M48
; DRILL file {KiCad (5.1.6)-1} date 08/29/20 17:57:35
; FORMAT={-:-/ absolute / metric / decimal}
; #@! TF.CreationDate,2020-08-29T17:57:35+05:30
; #@! TF.GenerationSoftware,Kicad,Pcbnew,(5.1.6)-1
; #@! TF.FileFunction,Plated,1,4,PTH
FMAT,2
METRIC
T1C0.200
T2C0.330
T3C0.400
T4C0.838
T5C1.016
T6C1.100
T7C1.199
%
G90
G05
T1
X124.003Y-67.564
X125.73Y-80.01
X125.984Y-102.87
X125.984Y-107.95
X127.0Y-95.504
X127.0Y-96.52
X127.0Y-97.536
X127.787Y-101.6
X128.0Y-104.14
X128.524Y-96.52
X129.032Y-67.564
X129.54Y-104.648
X129.54Y-115.392
X130.048Y-80.264
X130.048Y-101.092
X130.556Y-70.612
X130.556Y-72.644
X130.556Y-93.98
X130.556Y-109.728
X130.556Y-111.76
X130.683Y-107.942
X131.445Y-91.612
X132.08Y-82.55
X132.08Y-84.328
X132.646Y-91.551
X132.696Y-93.634
X132.715Y-86.188
X133.096Y-91.948
X133.096Y-99.06
X133.096Y-99.06
X133.604Y-109.728
X133.858Y-107.942
X133.985Y-86.188
X133.985Y-91.612
X134.112Y-67.056
X134.112Y-73.152
X134.112Y-96.52
X134.112Y-111.76
X134.35Y-93.98
X134.62Y-82.55
X134.62Y-83.82
X134.62Y-99.06
X134.62Y-101.6
X135.128Y-86.36
X135.128Y-96.012
X135.557Y-67.056
X135.636Y-80.264
X135.819Y-76.2
X135.831Y-99.924
X136.144Y-73.152
X136.157Y-66.731
X136.652Y-104.648
X136.652Y-109.728
X136.652Y-109.728
X137.033Y-107.942
X137.16Y-102.616
X137.16Y-111.76
X137.188Y-100.574
X137.51Y-80.499
X137.652Y-83.82
X138.176Y-68.58
X138.176Y-70.612
X138.302Y-73.66
X138.43Y-104.705
X138.684Y-89.408
X138.684Y-96.52
X139.192Y-83.82
X139.192Y-93.98
X139.442Y-104.924
X139.473Y-81.755
X139.7Y-68.58
X139.7Y-86.36
X139.7Y-89.408
X139.7Y-91.948
X140.208Y-70.104
X140.208Y-75.184
X140.27Y-105.34
X140.308Y-71.528
X140.47Y-96.52
X140.471Y-81.215
X140.475Y-78.99
X140.665Y-80.29
X140.7Y-99.06
X140.716Y-89.408
X140.716Y-91.44
X140.716Y-93.98
X140.716Y-109.212
X140.716Y-110.744
X140.716Y-114.3
X140.962Y-83.82
X141.24Y-86.36
X141.252Y-104.665
X141.342Y-105.304
X142.24Y-99.06
X142.51Y-101.6
X142.748Y-72.136
X142.748Y-76.708
X142.748Y-78.74
X142.748Y-83.82
X143.257Y-109.528
X143.518Y-64.254
X143.518Y-67.056
X143.764Y-110.76
X144.414Y-90.534
X144.414Y-96.41
X144.78Y-90.424
X144.78Y-100.33
X144.78Y-111.76
X144.78Y-114.3
X145.064Y-90.534
X145.137Y-102.767
X145.529Y-99.081
X145.714Y-90.534
X145.714Y-96.41
X145.796Y-111.252
X145.796Y-114.992
X146.279Y-100.33
X146.279Y-102.641
X146.304Y-98.46
X146.916Y-103.24
X147.32Y-100.584
X147.32Y-104.648
X147.642Y-103.514
X147.642Y-76.014
X148.336Y-78.232
X148.844Y-101.6
X148.844Y-102.616
X148.844Y-105.664
X148.844Y-106.68
X148.844Y-109.728
X148.91Y-103.795
X148.91Y-104.795
X148.91Y-107.795
X149.352Y-94.996
X149.418Y-83.988
X149.598Y-86.868
X149.86Y-100.076
X149.86Y-101.6
X150.322Y-94.996
X150.322Y-96.396
X150.368Y-81.788
X150.368Y-100.076
X150.368Y-104.14
X150.368Y-106.68
X150.368Y-107.696
X150.368Y-108.712
X150.368Y-108.712
X150.368Y-109.728
X150.656Y-102.795
X150.876Y-88.9
X150.876Y-111.76
X151.138Y-86.868
X151.292Y-96.396
X151.384Y-94.996
X151.384Y-99.568
X151.384Y-104.14
X151.384Y-105.664
X151.384Y-108.712
X151.892Y-101.6
X151.892Y-103.124
X152.035Y-111.752
X152.4Y-104.14
X152.4Y-109.728
X152.46Y-105.164
X152.46Y-106.74
X152.46Y-107.87
X152.908Y-84.328
X152.908Y-86.868
X152.908Y-99.568
X152.908Y-101.6
X152.908Y-103.124
X152.908Y-109.22
X152.908Y-111.76
X153.4Y-95.25
X153.416Y-97.028
X153.416Y-104.14
X153.61Y-106.72
X153.67Y-93.48
X153.889Y-108.149
X153.889Y-109.185
X153.924Y-101.6
X153.924Y-103.124
X153.924Y-109.22
X154.035Y-111.752
X154.104Y-105.684
X154.76Y-109.02
X154.809Y-107.229
X154.94Y-101.6
X154.94Y-104.14
X154.94Y-111.76
X155.448Y-104.14
X155.785Y-108.645
X155.788Y-105.195
X155.95Y-95.814
X155.956Y-101.6
X155.956Y-106.172
X155.956Y-107.696
X155.956Y-109.728
X156.972Y-101.6
X156.972Y-104.648
X156.972Y-106.68
X156.972Y-107.696
X156.972Y-110.744
X157.131Y-105.823
X157.16Y-102.795
X157.48Y-108.712
X157.48Y-109.728
X157.48Y-111.76
X158.496Y-93.98
X158.496Y-95.504
X159.021Y-93.489
X159.258Y-80.264
X159.258Y-83.82
X162.288Y-100.059
X162.967Y-94.488
X162.967Y-100.088
X163.576Y-100.076
X163.576Y-100.076
X163.584Y-94.489
X164.084Y-106.172
X164.267Y-100.088
X164.917Y-100.088
X165.017Y-93.98
X165.1Y-115.824
X165.567Y-94.488
X166.217Y-100.088
X166.317Y-94.996
X167.124Y-106.172
X167.132Y-100.076
X168.148Y-99.584
X170.442Y-115.824
X172.56Y-111.76
X175.167Y-111.534
X176.26Y-87.376
X176.764Y-84.16
X176.764Y-84.16
X177.8Y-87.376
X179.417Y-115.034
T2
X163.092Y-96.538
X163.092Y-98.038
X164.592Y-96.538
X164.592Y-98.038
X166.092Y-96.538
X166.092Y-98.038
T3
X148.43Y-83.95
X152.908Y-82.548
X157.16Y-103.795
X157.48Y-99.06
X157.48Y-99.06
X161.29Y-90.805
X161.29Y-90.805
X165.608Y-97.536
X165.608Y-97.536
X167.411Y-89.56
X167.411Y-89.56
X169.125Y-89.535
X173.99Y-90.17
X177.292Y-70.104
X177.292Y-72.136
X177.292Y-72.136
T4
X124.992Y-65.024
X127.992Y-65.024
T5
X125.73Y-80.01
X125.73Y-85.09
X125.73Y-90.17
X125.73Y-95.25
X125.73Y-100.33
X125.73Y-105.41
X125.73Y-110.49
X125.984Y-77.47
X125.984Y-82.55
X125.984Y-87.63
X125.984Y-92.71
X125.984Y-97.79
X125.984Y-102.87
X125.984Y-107.95
X125.984Y-113.03
X181.483Y-77.47
X181.483Y-82.55
X181.483Y-87.63
X181.483Y-92.71
X181.483Y-97.79
X181.483Y-102.87
X181.483Y-107.95
X181.483Y-113.03
X181.737Y-80.01
X181.737Y-85.09
X181.737Y-90.17
X181.737Y-95.25
X181.737Y-100.33
X181.737Y-105.41
X181.737Y-110.49
T6
X162.56Y-111.76
X165.06Y-111.76
X167.56Y-111.76
X170.06Y-111.76
X172.56Y-111.76
T7
X145.458Y-74.676
X148.958Y-74.676
X152.458Y-74.676
X155.956Y-74.676
T0
M30
