%TF.GenerationSoftware,KiCad,Pcbnew,(5.1.6)-1*%
%TF.CreationDate,2020-08-29T17:57:31+05:30*%
%TF.ProjectId,TENET,54454e45-542e-46b6-9963-61645f706362,Minor Project*%
%TF.SameCoordinates,Original*%
%TF.FileFunction,Paste,Top*%
%TF.FilePolarity,Positive*%
%FSLAX46Y46*%
G04 Gerber Fmt 4.6, Leading zero omitted, Abs format (unit mm)*
G04 Created by KiCad (PCBNEW (5.1.6)-1) date 2020-08-29 17:57:31*
%MOMM*%
%LPD*%
G01*
G04 APERTURE LIST*
%ADD10C,0.152400*%
%ADD11R,0.900000X1.000000*%
%ADD12R,0.700000X0.700000*%
%ADD13R,0.700000X1.150000*%
%ADD14R,1.150000X0.700000*%
%ADD15R,0.930000X0.980000*%
%ADD16R,1.160000X1.470000*%
%ADD17R,0.398780X1.447800*%
%ADD18R,2.499360X1.498600*%
%ADD19R,1.798320X1.498600*%
%ADD20R,0.558800X1.905000*%
%ADD21R,0.500000X0.600000*%
%ADD22R,0.750000X0.300000*%
%ADD23R,2.500000X1.000000*%
%ADD24R,1.000000X1.800000*%
%ADD25R,0.650000X1.060000*%
%ADD26R,0.300000X1.600000*%
%ADD27R,2.310000X2.460000*%
%ADD28R,0.720000X0.600000*%
%ADD29R,0.550000X0.280000*%
%ADD30R,0.280000X0.550000*%
%ADD31R,0.650000X0.470000*%
%ADD32R,0.800000X0.400000*%
%ADD33R,0.350000X0.800000*%
%ADD34R,0.203200X0.762000*%
%ADD35R,0.203200X1.143000*%
%ADD36R,0.762000X0.203200*%
%ADD37R,1.143000X0.203200*%
%ADD38R,0.508000X0.203200*%
%ADD39R,0.355600X0.304800*%
%ADD40R,0.304800X0.355600*%
%ADD41R,0.500000X0.700000*%
%ADD42R,0.200000X1.100000*%
%ADD43R,0.980000X0.930000*%
%ADD44R,0.450000X1.475000*%
%ADD45R,3.402000X2.513000*%
%ADD46R,0.700000X1.525000*%
%ADD47R,0.600000X1.200000*%
%ADD48R,0.600000X0.800000*%
%ADD49R,0.998220X0.998220*%
%ADD50R,1.099820X0.899160*%
%ADD51R,0.899160X0.899160*%
%ADD52R,0.899160X1.099820*%
%ADD53R,1.000000X0.700000*%
%ADD54R,0.600000X0.700000*%
%ADD55R,1.470000X1.160000*%
%ADD56R,1.099820X0.998220*%
G04 APERTURE END LIST*
D10*
%TO.C,U2*%
X140538200Y-76538399D02*
X139954000Y-76538399D01*
X139954000Y-76538399D02*
X139954000Y-78441600D01*
X139954000Y-78441600D02*
X140538200Y-78441600D01*
X140538200Y-78441600D02*
X140538200Y-76538399D01*
X137845800Y-76538399D02*
X138430000Y-76538399D01*
X138430000Y-76538399D02*
X138430000Y-78441600D01*
X138430000Y-78441600D02*
X137845800Y-78441600D01*
X137845800Y-78441600D02*
X137845800Y-76538399D01*
%TD*%
D11*
%TO.C,L1*%
X167425000Y-89535000D03*
X169125000Y-89535000D03*
%TD*%
D12*
%TO.C,IC3*%
X154760000Y-109020000D03*
X154760000Y-106720000D03*
X153610000Y-109020000D03*
X153610000Y-107870000D03*
X153610000Y-106720000D03*
X153610000Y-105570000D03*
X152460000Y-109020000D03*
X152460000Y-107870000D03*
X152460000Y-106720000D03*
X152460000Y-105570000D03*
X151310000Y-109020000D03*
X151310000Y-106720000D03*
X149035000Y-101645000D03*
X150035000Y-101645000D03*
X151035000Y-101645000D03*
X152035000Y-101645000D03*
X153035000Y-101645000D03*
X154035000Y-101645000D03*
X155035000Y-101645000D03*
X156035000Y-101645000D03*
X157035000Y-101645000D03*
X151385000Y-104245000D03*
X152485000Y-104245000D03*
X153585000Y-104245000D03*
X154685000Y-104245000D03*
X155785000Y-104245000D03*
X155785000Y-105345000D03*
X155785000Y-106445000D03*
X155785000Y-107545000D03*
X155785000Y-108645000D03*
X155785000Y-109745000D03*
X150285000Y-109745000D03*
X150285000Y-108645000D03*
X150285000Y-107545000D03*
X150285000Y-106445000D03*
X150285000Y-105345000D03*
X150285000Y-104245000D03*
D13*
X151035000Y-102870000D03*
X152035000Y-102870000D03*
X153035000Y-102870000D03*
X154035000Y-102870000D03*
X155035000Y-102870000D03*
D14*
X157160000Y-102795000D03*
X157160000Y-103795000D03*
X157160000Y-104795000D03*
X157160000Y-105795000D03*
X157160000Y-106795000D03*
X157160000Y-107795000D03*
X157160000Y-108795000D03*
X157160000Y-109795000D03*
X157160000Y-110795000D03*
X157160000Y-111795000D03*
D13*
X155035000Y-111720000D03*
X154035000Y-111720000D03*
X153035000Y-111720000D03*
X152035000Y-111720000D03*
X151035000Y-111720000D03*
D14*
X148910000Y-111795000D03*
X148910000Y-110795000D03*
X148910000Y-109795000D03*
X148910000Y-108795000D03*
X148910000Y-107795000D03*
X148910000Y-106795000D03*
X148910000Y-105795000D03*
X148910000Y-104795000D03*
X148910000Y-103795000D03*
X148910000Y-102795000D03*
%TD*%
D15*
%TO.C,R15*%
X151138000Y-86868000D03*
X149598000Y-86868000D03*
%TD*%
D16*
%TO.C,C6*%
X140082000Y-73660000D03*
X138302000Y-73660000D03*
%TD*%
D17*
%TO.C,J1*%
X136806940Y-66730880D03*
D18*
X135509000Y-64008000D03*
D19*
X131826000Y-64008000D03*
X139192000Y-64008000D03*
D17*
X134861300Y-66730880D03*
X134211060Y-66730880D03*
X136156700Y-66730880D03*
X135509000Y-66730880D03*
%TD*%
D20*
%TO.C,U10*%
X128992000Y-67221100D03*
X126492000Y-67221100D03*
X123992000Y-67221100D03*
%TD*%
D21*
%TO.C,U9*%
X143185000Y-105035000D03*
X143185000Y-105785000D03*
X143835000Y-105035000D03*
X143835000Y-105785000D03*
D22*
X142060000Y-106160000D03*
X142060000Y-105660000D03*
X142060000Y-105160000D03*
X142060000Y-104660000D03*
X144960000Y-104660000D03*
X144960000Y-105160000D03*
X144960000Y-105660000D03*
X144960000Y-106160000D03*
%TD*%
D23*
%TO.C,U8*%
X176764000Y-70160000D03*
X176764000Y-72160000D03*
X176764000Y-74160000D03*
X176764000Y-76160000D03*
X176764000Y-78160000D03*
X176764000Y-80160000D03*
X176764000Y-82160000D03*
X176764000Y-84160000D03*
D24*
X174164000Y-85660000D03*
X172164000Y-85660000D03*
X170164000Y-85660000D03*
X168164000Y-85660000D03*
X166164000Y-85660000D03*
X164164000Y-85660000D03*
D23*
X161564000Y-84160000D03*
X161564000Y-82160000D03*
X161564000Y-80160000D03*
X161564000Y-78160000D03*
X161564000Y-76160000D03*
X161564000Y-74160000D03*
X161564000Y-72160000D03*
X161564000Y-70160000D03*
%TD*%
D25*
%TO.C,U7*%
X149418000Y-81788000D03*
X148468000Y-81788000D03*
X150368000Y-81788000D03*
X150368000Y-83988000D03*
X149418000Y-83988000D03*
X148468000Y-83988000D03*
%TD*%
D26*
%TO.C,U6*%
X166217000Y-100088000D03*
X165567000Y-100088000D03*
X164917000Y-100088000D03*
X164267000Y-100088000D03*
X163617000Y-100088000D03*
X162967000Y-100088000D03*
X162317000Y-100088000D03*
X162317000Y-94488000D03*
X162967000Y-94488000D03*
X163617000Y-94488000D03*
X164267000Y-94488000D03*
X164917000Y-94488000D03*
X165567000Y-94488000D03*
X166217000Y-94488000D03*
X166867000Y-100088000D03*
D27*
X164592000Y-97288000D03*
D26*
X166867000Y-94488000D03*
%TD*%
D28*
%TO.C,U5*%
X151292000Y-94996000D03*
X150322000Y-94996000D03*
X149352000Y-94996000D03*
X148382000Y-94996000D03*
X148382000Y-96396000D03*
X149352000Y-96396000D03*
X150322000Y-96396000D03*
X151292000Y-96396000D03*
%TD*%
D29*
%TO.C,U4*%
X136535000Y-99125000D03*
X136535000Y-99555000D03*
X136535000Y-99985000D03*
X136535000Y-100415000D03*
X136535000Y-102135000D03*
X136535000Y-101705000D03*
X136535000Y-101275000D03*
X136535000Y-100845000D03*
X139035000Y-99125000D03*
X139035000Y-99555000D03*
X139035000Y-99985000D03*
X139035000Y-100415000D03*
X139035000Y-100845000D03*
X139035000Y-101705000D03*
X139035000Y-102135000D03*
X139035000Y-101275000D03*
D30*
X138430000Y-99230000D03*
X138000000Y-99230000D03*
X137570000Y-99230000D03*
X137140000Y-99230000D03*
X137140000Y-102030000D03*
X137570000Y-102030000D03*
X138000000Y-102030000D03*
X138430000Y-102030000D03*
%TD*%
D31*
%TO.C,U3*%
X140270000Y-104140000D03*
X140270000Y-105340000D03*
D32*
X140270000Y-104740000D03*
D31*
X138430000Y-104140000D03*
X138430000Y-105340000D03*
D32*
X138430000Y-104740000D03*
D33*
X139650000Y-103820000D03*
X139050000Y-103820000D03*
X139650000Y-105660000D03*
X139050000Y-105660000D03*
%TD*%
D34*
%TO.C,U2*%
X140442000Y-81216500D03*
D35*
X139442000Y-81026000D03*
X138942000Y-81026000D03*
D34*
X137942000Y-81216500D03*
D36*
X137718800Y-80290000D03*
D37*
X137909300Y-79640001D03*
X137909300Y-78990000D03*
X137909300Y-78340000D03*
X137909300Y-77489999D03*
X137909300Y-76639999D03*
D34*
X138442000Y-81216500D03*
X139942000Y-81216500D03*
D38*
X140792200Y-77489999D03*
X140792200Y-76639999D03*
X140792200Y-78340000D03*
D37*
X140474700Y-78990000D03*
X140474700Y-79640001D03*
D36*
X140665200Y-80290000D03*
%TD*%
D39*
%TO.C,U1*%
X145529300Y-99080701D03*
D40*
X146278600Y-99330002D03*
X146278600Y-100330000D03*
D39*
X145529300Y-100579301D03*
D40*
X144780000Y-100330000D03*
X144780000Y-99330002D03*
%TD*%
D41*
%TO.C,S1*%
X175167000Y-111534000D03*
X179417000Y-111534000D03*
X175167000Y-115034000D03*
X179417000Y-115034000D03*
D42*
X174817000Y-115034000D03*
X179767000Y-111534000D03*
X174817000Y-111534000D03*
X179767000Y-115034000D03*
%TD*%
D43*
%TO.C,R28*%
X137033000Y-107942000D03*
X137033000Y-109482000D03*
%TD*%
%TO.C,R27*%
X133858000Y-107942000D03*
X133858000Y-109482000D03*
%TD*%
%TO.C,R26*%
X130683000Y-107942000D03*
X130683000Y-109482000D03*
%TD*%
%TO.C,R25*%
X143764000Y-109220000D03*
X143764000Y-110760000D03*
%TD*%
%TO.C,R24*%
X143764000Y-114316000D03*
X143764000Y-112776000D03*
%TD*%
D15*
%TO.C,R23*%
X168902000Y-115824000D03*
X170442000Y-115824000D03*
%TD*%
%TO.C,R22*%
X165100000Y-115824000D03*
X166640000Y-115824000D03*
%TD*%
%TO.C,R21*%
X128000000Y-104140000D03*
X129540000Y-104140000D03*
%TD*%
D43*
%TO.C,R20*%
X179324000Y-80280000D03*
X179324000Y-78740000D03*
%TD*%
%TO.C,R19*%
X179324000Y-83820000D03*
X179324000Y-82280000D03*
%TD*%
%TO.C,R18*%
X140716000Y-109212000D03*
X140716000Y-110752000D03*
%TD*%
%TO.C,R17*%
X159004000Y-71104000D03*
X159004000Y-72644000D03*
%TD*%
%TO.C,R16*%
X159004000Y-74922000D03*
X159004000Y-76462000D03*
%TD*%
D15*
%TO.C,R14*%
X150876000Y-88900000D03*
X149336000Y-88900000D03*
%TD*%
D43*
%TO.C,R13*%
X132080000Y-84090000D03*
X132080000Y-82550000D03*
%TD*%
%TO.C,R12*%
X134620000Y-82550000D03*
X134620000Y-84090000D03*
%TD*%
D15*
%TO.C,R11*%
X138930000Y-96520000D03*
X140470000Y-96520000D03*
%TD*%
D43*
%TO.C,R10*%
X160528000Y-94488000D03*
X160528000Y-96028000D03*
%TD*%
D15*
%TO.C,R9*%
X130810000Y-93980000D03*
X132350000Y-93980000D03*
%TD*%
%TO.C,R8*%
X139700000Y-86360000D03*
X141240000Y-86360000D03*
%TD*%
D43*
%TO.C,R7*%
X168148000Y-96536000D03*
X168148000Y-94996000D03*
%TD*%
%TO.C,R6*%
X156210000Y-94480000D03*
X156210000Y-96020000D03*
%TD*%
D15*
%TO.C,R5*%
X137652000Y-83820000D03*
X139192000Y-83820000D03*
%TD*%
%TO.C,R4*%
X142502000Y-83820000D03*
X140962000Y-83820000D03*
%TD*%
D43*
%TO.C,R3*%
X142748000Y-76708000D03*
X142748000Y-75168000D03*
%TD*%
%TO.C,R2*%
X142502000Y-78740000D03*
X142502000Y-80280000D03*
%TD*%
D15*
%TO.C,R1*%
X143518000Y-64008000D03*
X141978000Y-64008000D03*
%TD*%
D44*
%TO.C,Q1*%
X143764000Y-90534000D03*
X144414000Y-90534000D03*
X145064000Y-90534000D03*
X145714000Y-90534000D03*
X145714000Y-96410000D03*
X145064000Y-96410000D03*
X144414000Y-96410000D03*
X143764000Y-96410000D03*
%TD*%
D45*
%TO.C,IC2*%
X133350000Y-88900000D03*
D46*
X131445000Y-86188000D03*
X132715000Y-86188000D03*
X133985000Y-86188000D03*
X135255000Y-86188000D03*
X135255000Y-91612000D03*
X133985000Y-91612000D03*
X132715000Y-91612000D03*
X131445000Y-91612000D03*
%TD*%
D47*
%TO.C,IC1*%
X140650000Y-91440000D03*
X139700000Y-91440000D03*
X138750000Y-91440000D03*
X138750000Y-88940000D03*
X139700000Y-88940000D03*
X140650000Y-88940000D03*
%TD*%
D48*
%TO.C,FB1*%
X142432000Y-68580000D03*
X141032000Y-68580000D03*
%TD*%
D49*
%TO.C,D10*%
X137033000Y-112141000D03*
X137033000Y-113893600D03*
%TD*%
%TO.C,D9*%
X130683000Y-113652300D03*
X130683000Y-111899700D03*
%TD*%
%TO.C,D8*%
X133858000Y-111899700D03*
X133858000Y-113652300D03*
%TD*%
%TO.C,D7*%
X127787400Y-101600000D03*
X129540000Y-101600000D03*
%TD*%
%TO.C,D6*%
X140716000Y-114274600D03*
X140716000Y-112522000D03*
%TD*%
D50*
%TO.C,D5*%
X147320000Y-88249760D03*
D51*
X147320000Y-85852000D03*
%TD*%
D49*
%TO.C,D4*%
X130327400Y-80010000D03*
X132080000Y-80010000D03*
%TD*%
%TO.C,D3*%
X135496300Y-80010000D03*
X133743700Y-80010000D03*
%TD*%
D52*
%TO.C,D2*%
X135818880Y-76200000D03*
D51*
X133421120Y-76200000D03*
%TD*%
D53*
%TO.C,D1*%
X136410000Y-70596000D03*
D54*
X138110000Y-68596000D03*
X136210000Y-68596000D03*
X138110000Y-70596000D03*
%TD*%
D15*
%TO.C,C25*%
X176260000Y-87376000D03*
X177800000Y-87376000D03*
%TD*%
D43*
%TO.C,C24*%
X159258000Y-78724000D03*
X159258000Y-80264000D03*
%TD*%
%TO.C,C23*%
X159258000Y-83820000D03*
X159258000Y-82280000D03*
%TD*%
D55*
%TO.C,C22*%
X152908000Y-88648000D03*
X152908000Y-86868000D03*
%TD*%
%TO.C,C21*%
X152908000Y-82548000D03*
X152908000Y-84328000D03*
%TD*%
D15*
%TO.C,C20*%
X140470000Y-93980000D03*
X138930000Y-93980000D03*
%TD*%
%TO.C,C19*%
X134350000Y-93980000D03*
X135890000Y-93980000D03*
%TD*%
D43*
%TO.C,C18*%
X168148000Y-99584000D03*
X168148000Y-98044000D03*
%TD*%
D56*
%TO.C,C17*%
X163911280Y-106172000D03*
X165608000Y-106172000D03*
%TD*%
D15*
%TO.C,C16*%
X164084000Y-104140000D03*
X165624000Y-104140000D03*
%TD*%
%TO.C,C15*%
X134620000Y-101600000D03*
X133080000Y-101600000D03*
%TD*%
D43*
%TO.C,C14*%
X153670000Y-91940000D03*
X153670000Y-93480000D03*
%TD*%
D15*
%TO.C,C13*%
X134620000Y-99060000D03*
X133080000Y-99060000D03*
%TD*%
%TO.C,C12*%
X140700000Y-99060000D03*
X142240000Y-99060000D03*
%TD*%
%TO.C,C11*%
X140970000Y-101600000D03*
X142510000Y-101600000D03*
%TD*%
D43*
%TO.C,C10*%
X153400000Y-95250000D03*
X153400000Y-96790000D03*
%TD*%
%TO.C,C9*%
X133350000Y-105410000D03*
X133350000Y-103870000D03*
%TD*%
%TO.C,C8*%
X135890000Y-105410000D03*
X135890000Y-103870000D03*
%TD*%
D16*
%TO.C,C7*%
X134364000Y-73152000D03*
X136144000Y-73152000D03*
%TD*%
D15*
%TO.C,C5*%
X167132000Y-104140000D03*
X168672000Y-104140000D03*
%TD*%
%TO.C,C4*%
X168656000Y-106172000D03*
X167116000Y-106172000D03*
%TD*%
D43*
%TO.C,C3*%
X140208000Y-70088000D03*
X140208000Y-71628000D03*
%TD*%
%TO.C,C2*%
X142748000Y-70596000D03*
X142748000Y-72136000D03*
%TD*%
D15*
%TO.C,C1*%
X143518000Y-67056000D03*
X141978000Y-67056000D03*
%TD*%
M02*
