%TF.GenerationSoftware,KiCad,Pcbnew,(5.1.6)-1*%
%TF.CreationDate,2020-08-29T17:57:31+05:30*%
%TF.ProjectId,TENET,54454e45-542e-46b6-9963-61645f706362,Minor Project*%
%TF.SameCoordinates,Original*%
%TF.FileFunction,Soldermask,Bot*%
%TF.FilePolarity,Negative*%
%FSLAX46Y46*%
G04 Gerber Fmt 4.6, Leading zero omitted, Abs format (unit mm)*
G04 Created by KiCad (PCBNEW (5.1.6)-1) date 2020-08-29 17:57:31*
%MOMM*%
%LPD*%
G01*
G04 APERTURE LIST*
%ADD10O,3.251200X1.727200*%
%ADD11C,1.051560*%
%ADD12C,1.446200*%
%ADD13C,0.480000*%
%ADD14R,3.601720X1.800860*%
%ADD15R,4.803140X1.201420*%
%ADD16C,2.200000*%
%ADD17C,2.235200*%
%ADD18R,2.235200X2.235200*%
G04 APERTURE END LIST*
D10*
%TO.C,J4*%
X181483000Y-77470000D03*
X181737000Y-80010000D03*
X181483000Y-82550000D03*
X181737000Y-85090000D03*
X181483000Y-87630000D03*
X181737000Y-90170000D03*
X181483000Y-92710000D03*
X181737000Y-95250000D03*
X181483000Y-97790000D03*
X181737000Y-100330000D03*
X181483000Y-102870000D03*
X181737000Y-105410000D03*
X181483000Y-107950000D03*
X181737000Y-110490000D03*
X181483000Y-113030000D03*
%TD*%
D11*
%TO.C,J1*%
X133609080Y-66207640D03*
X137408920Y-66207640D03*
%TD*%
D12*
%TO.C,U10*%
X124992000Y-65024400D03*
X127992000Y-65024400D03*
%TD*%
D13*
%TO.C,U6*%
X163092000Y-96538000D03*
X164592000Y-96538000D03*
X166092000Y-96538000D03*
X163092000Y-98038000D03*
X164592000Y-98038000D03*
X166092000Y-98038000D03*
%TD*%
D14*
%TO.C,J6*%
X124343160Y-75044300D03*
X124343160Y-68247260D03*
D15*
X129540000Y-72644000D03*
X129540000Y-70647560D03*
%TD*%
D16*
%TO.C,J5*%
X172560000Y-111760000D03*
X170060000Y-111760000D03*
X167560000Y-111760000D03*
X165060000Y-111760000D03*
X162560000Y-111760000D03*
%TD*%
D10*
%TO.C,J3*%
X125984000Y-113030000D03*
X125730000Y-110490000D03*
X125984000Y-107950000D03*
X125730000Y-105410000D03*
X125984000Y-102870000D03*
X125730000Y-100330000D03*
X125984000Y-97790000D03*
X125730000Y-95250000D03*
X125984000Y-92710000D03*
X125730000Y-90170000D03*
X125984000Y-87630000D03*
X125730000Y-85090000D03*
X125984000Y-82550000D03*
X125730000Y-80010000D03*
X125984000Y-77470000D03*
%TD*%
D17*
%TO.C,J2*%
X145458180Y-74676000D03*
X148958300Y-74676000D03*
X152458420Y-74676000D03*
D18*
X155956000Y-74676000D03*
%TD*%
M02*
