%TF.GenerationSoftware,KiCad,Pcbnew,(5.1.6)-1*%
%TF.CreationDate,2020-08-29T17:57:31+05:30*%
%TF.ProjectId,TENET,54454e45-542e-46b6-9963-61645f706362,Minor Project*%
%TF.SameCoordinates,Original*%
%TF.FileFunction,Legend,Top*%
%TF.FilePolarity,Positive*%
%FSLAX46Y46*%
G04 Gerber Fmt 4.6, Leading zero omitted, Abs format (unit mm)*
G04 Created by KiCad (PCBNEW (5.1.6)-1) date 2020-08-29 17:57:31*
%MOMM*%
%LPD*%
G01*
G04 APERTURE LIST*
%ADD10C,0.125000*%
%ADD11C,0.300000*%
%ADD12C,0.100000*%
%ADD13C,0.200000*%
%ADD14C,0.203200*%
%ADD15C,0.066040*%
%ADD16C,0.304800*%
%ADD17C,0.152400*%
%ADD18C,0.150000*%
%ADD19C,0.120000*%
%ADD20C,0.127000*%
%ADD21C,0.254000*%
%ADD22C,0.050000*%
G04 APERTURE END LIST*
D10*
X172821647Y-113110200D02*
X172774028Y-113086390D01*
X172702600Y-113086390D01*
X172631171Y-113110200D01*
X172583552Y-113157819D01*
X172559742Y-113205438D01*
X172535933Y-113300676D01*
X172535933Y-113372104D01*
X172559742Y-113467342D01*
X172583552Y-113514961D01*
X172631171Y-113562580D01*
X172702600Y-113586390D01*
X172750219Y-113586390D01*
X172821647Y-113562580D01*
X172845457Y-113538771D01*
X172845457Y-113372104D01*
X172750219Y-113372104D01*
X173059742Y-113586390D02*
X173059742Y-113086390D01*
X173345457Y-113586390D01*
X173345457Y-113086390D01*
X173583552Y-113586390D02*
X173583552Y-113086390D01*
X173702600Y-113086390D01*
X173774028Y-113110200D01*
X173821647Y-113157819D01*
X173845457Y-113205438D01*
X173869266Y-113300676D01*
X173869266Y-113372104D01*
X173845457Y-113467342D01*
X173821647Y-113514961D01*
X173774028Y-113562580D01*
X173702600Y-113586390D01*
X173583552Y-113586390D01*
X169496704Y-113637190D02*
X169330038Y-113399095D01*
X169210990Y-113637190D02*
X169210990Y-113137190D01*
X169401466Y-113137190D01*
X169449085Y-113161000D01*
X169472895Y-113184809D01*
X169496704Y-113232428D01*
X169496704Y-113303857D01*
X169472895Y-113351476D01*
X169449085Y-113375285D01*
X169401466Y-113399095D01*
X169210990Y-113399095D01*
X169710990Y-113375285D02*
X169877657Y-113375285D01*
X169949085Y-113637190D02*
X169710990Y-113637190D01*
X169710990Y-113137190D01*
X169949085Y-113137190D01*
X170139561Y-113613380D02*
X170210990Y-113637190D01*
X170330038Y-113637190D01*
X170377657Y-113613380D01*
X170401466Y-113589571D01*
X170425276Y-113541952D01*
X170425276Y-113494333D01*
X170401466Y-113446714D01*
X170377657Y-113422904D01*
X170330038Y-113399095D01*
X170234800Y-113375285D01*
X170187180Y-113351476D01*
X170163371Y-113327666D01*
X170139561Y-113280047D01*
X170139561Y-113232428D01*
X170163371Y-113184809D01*
X170187180Y-113161000D01*
X170234800Y-113137190D01*
X170353847Y-113137190D01*
X170425276Y-113161000D01*
X170639561Y-113375285D02*
X170806228Y-113375285D01*
X170877657Y-113637190D02*
X170639561Y-113637190D01*
X170639561Y-113137190D01*
X170877657Y-113137190D01*
X171020514Y-113137190D02*
X171306228Y-113137190D01*
X171163371Y-113637190D02*
X171163371Y-113137190D01*
X171472895Y-113637190D02*
X171472895Y-113137190D01*
X171758609Y-113637190D01*
X171758609Y-113137190D01*
X166458247Y-113537180D02*
X166529676Y-113560990D01*
X166648723Y-113560990D01*
X166696342Y-113537180D01*
X166720152Y-113513371D01*
X166743961Y-113465752D01*
X166743961Y-113418133D01*
X166720152Y-113370514D01*
X166696342Y-113346704D01*
X166648723Y-113322895D01*
X166553485Y-113299085D01*
X166505866Y-113275276D01*
X166482057Y-113251466D01*
X166458247Y-113203847D01*
X166458247Y-113156228D01*
X166482057Y-113108609D01*
X166505866Y-113084800D01*
X166553485Y-113060990D01*
X166672533Y-113060990D01*
X166743961Y-113084800D01*
X166910628Y-113060990D02*
X167029676Y-113560990D01*
X167124914Y-113203847D01*
X167220152Y-113560990D01*
X167339200Y-113060990D01*
X167815390Y-113513371D02*
X167791580Y-113537180D01*
X167720152Y-113560990D01*
X167672533Y-113560990D01*
X167601104Y-113537180D01*
X167553485Y-113489561D01*
X167529676Y-113441942D01*
X167505866Y-113346704D01*
X167505866Y-113275276D01*
X167529676Y-113180038D01*
X167553485Y-113132419D01*
X167601104Y-113084800D01*
X167672533Y-113060990D01*
X167720152Y-113060990D01*
X167791580Y-113084800D01*
X167815390Y-113108609D01*
X168267771Y-113560990D02*
X168029676Y-113560990D01*
X168029676Y-113060990D01*
X168434438Y-113560990D02*
X168434438Y-113060990D01*
X168720152Y-113560990D02*
X168505866Y-113275276D01*
X168720152Y-113060990D02*
X168434438Y-113346704D01*
X163964276Y-113613380D02*
X164035704Y-113637190D01*
X164154752Y-113637190D01*
X164202371Y-113613380D01*
X164226180Y-113589571D01*
X164249990Y-113541952D01*
X164249990Y-113494333D01*
X164226180Y-113446714D01*
X164202371Y-113422904D01*
X164154752Y-113399095D01*
X164059514Y-113375285D01*
X164011895Y-113351476D01*
X163988085Y-113327666D01*
X163964276Y-113280047D01*
X163964276Y-113232428D01*
X163988085Y-113184809D01*
X164011895Y-113161000D01*
X164059514Y-113137190D01*
X164178561Y-113137190D01*
X164249990Y-113161000D01*
X164416657Y-113137190D02*
X164535704Y-113637190D01*
X164630942Y-113280047D01*
X164726180Y-113637190D01*
X164845228Y-113137190D01*
X165035704Y-113637190D02*
X165035704Y-113137190D01*
X165154752Y-113137190D01*
X165226180Y-113161000D01*
X165273800Y-113208619D01*
X165297609Y-113256238D01*
X165321419Y-113351476D01*
X165321419Y-113422904D01*
X165297609Y-113518142D01*
X165273800Y-113565761D01*
X165226180Y-113613380D01*
X165154752Y-113637190D01*
X165035704Y-113637190D01*
X165535704Y-113637190D02*
X165535704Y-113137190D01*
X165869038Y-113137190D02*
X165964276Y-113137190D01*
X166011895Y-113161000D01*
X166059514Y-113208619D01*
X166083323Y-113303857D01*
X166083323Y-113470523D01*
X166059514Y-113565761D01*
X166011895Y-113613380D01*
X165964276Y-113637190D01*
X165869038Y-113637190D01*
X165821419Y-113613380D01*
X165773800Y-113565761D01*
X165749990Y-113470523D01*
X165749990Y-113303857D01*
X165773800Y-113208619D01*
X165821419Y-113161000D01*
X165869038Y-113137190D01*
X161512333Y-113137190D02*
X161679000Y-113637190D01*
X161845666Y-113137190D01*
X162298047Y-113589571D02*
X162274238Y-113613380D01*
X162202809Y-113637190D01*
X162155190Y-113637190D01*
X162083761Y-113613380D01*
X162036142Y-113565761D01*
X162012333Y-113518142D01*
X161988523Y-113422904D01*
X161988523Y-113351476D01*
X162012333Y-113256238D01*
X162036142Y-113208619D01*
X162083761Y-113161000D01*
X162155190Y-113137190D01*
X162202809Y-113137190D01*
X162274238Y-113161000D01*
X162298047Y-113184809D01*
X162798047Y-113589571D02*
X162774238Y-113613380D01*
X162702809Y-113637190D01*
X162655190Y-113637190D01*
X162583761Y-113613380D01*
X162536142Y-113565761D01*
X162512333Y-113518142D01*
X162488523Y-113422904D01*
X162488523Y-113351476D01*
X162512333Y-113256238D01*
X162536142Y-113208619D01*
X162583761Y-113161000D01*
X162655190Y-113137190D01*
X162702809Y-113137190D01*
X162774238Y-113161000D01*
X162798047Y-113184809D01*
X144807133Y-69314900D02*
X144759514Y-69291090D01*
X144688085Y-69291090D01*
X144616657Y-69314900D01*
X144569038Y-69362519D01*
X144545228Y-69410138D01*
X144521419Y-69505376D01*
X144521419Y-69576804D01*
X144545228Y-69672042D01*
X144569038Y-69719661D01*
X144616657Y-69767280D01*
X144688085Y-69791090D01*
X144735704Y-69791090D01*
X144807133Y-69767280D01*
X144830942Y-69743471D01*
X144830942Y-69576804D01*
X144735704Y-69576804D01*
X145045228Y-69791090D02*
X145045228Y-69291090D01*
X145235704Y-69291090D01*
X145283323Y-69314900D01*
X145307133Y-69338709D01*
X145330942Y-69386328D01*
X145330942Y-69457757D01*
X145307133Y-69505376D01*
X145283323Y-69529185D01*
X145235704Y-69552995D01*
X145045228Y-69552995D01*
X145545228Y-69791090D02*
X145545228Y-69291090D01*
X145878561Y-69291090D02*
X145973800Y-69291090D01*
X146021419Y-69314900D01*
X146069038Y-69362519D01*
X146092847Y-69457757D01*
X146092847Y-69624423D01*
X146069038Y-69719661D01*
X146021419Y-69767280D01*
X145973800Y-69791090D01*
X145878561Y-69791090D01*
X145830942Y-69767280D01*
X145783323Y-69719661D01*
X145759514Y-69624423D01*
X145759514Y-69457757D01*
X145783323Y-69362519D01*
X145830942Y-69314900D01*
X145878561Y-69291090D01*
X146902371Y-69457757D02*
X146902371Y-69791090D01*
X146783323Y-69267280D02*
X146664276Y-69624423D01*
X146973800Y-69624423D01*
X147140466Y-69338709D02*
X147164276Y-69314900D01*
X147211895Y-69291090D01*
X147330942Y-69291090D01*
X147378561Y-69314900D01*
X147402371Y-69338709D01*
X147426180Y-69386328D01*
X147426180Y-69433947D01*
X147402371Y-69505376D01*
X147116657Y-69791090D01*
X147426180Y-69791090D01*
X145390466Y-70404185D02*
X145461895Y-70427995D01*
X145485704Y-70451804D01*
X145509514Y-70499423D01*
X145509514Y-70570852D01*
X145485704Y-70618471D01*
X145461895Y-70642280D01*
X145414276Y-70666090D01*
X145223800Y-70666090D01*
X145223800Y-70166090D01*
X145390466Y-70166090D01*
X145438085Y-70189900D01*
X145461895Y-70213709D01*
X145485704Y-70261328D01*
X145485704Y-70308947D01*
X145461895Y-70356566D01*
X145438085Y-70380376D01*
X145390466Y-70404185D01*
X145223800Y-70404185D01*
X145723800Y-70666090D02*
X145723800Y-70166090D01*
X145961895Y-70666090D02*
X145961895Y-70166090D01*
X146247609Y-70666090D01*
X146247609Y-70166090D01*
X146461895Y-70213709D02*
X146485704Y-70189900D01*
X146533323Y-70166090D01*
X146652371Y-70166090D01*
X146699990Y-70189900D01*
X146723800Y-70213709D01*
X146747609Y-70261328D01*
X146747609Y-70308947D01*
X146723800Y-70380376D01*
X146438085Y-70666090D01*
X146747609Y-70666090D01*
X148083733Y-69340300D02*
X148036114Y-69316490D01*
X147964685Y-69316490D01*
X147893257Y-69340300D01*
X147845638Y-69387919D01*
X147821828Y-69435538D01*
X147798019Y-69530776D01*
X147798019Y-69602204D01*
X147821828Y-69697442D01*
X147845638Y-69745061D01*
X147893257Y-69792680D01*
X147964685Y-69816490D01*
X148012304Y-69816490D01*
X148083733Y-69792680D01*
X148107542Y-69768871D01*
X148107542Y-69602204D01*
X148012304Y-69602204D01*
X148321828Y-69816490D02*
X148321828Y-69316490D01*
X148512304Y-69316490D01*
X148559923Y-69340300D01*
X148583733Y-69364109D01*
X148607542Y-69411728D01*
X148607542Y-69483157D01*
X148583733Y-69530776D01*
X148559923Y-69554585D01*
X148512304Y-69578395D01*
X148321828Y-69578395D01*
X148821828Y-69816490D02*
X148821828Y-69316490D01*
X149155161Y-69316490D02*
X149250400Y-69316490D01*
X149298019Y-69340300D01*
X149345638Y-69387919D01*
X149369447Y-69483157D01*
X149369447Y-69649823D01*
X149345638Y-69745061D01*
X149298019Y-69792680D01*
X149250400Y-69816490D01*
X149155161Y-69816490D01*
X149107542Y-69792680D01*
X149059923Y-69745061D01*
X149036114Y-69649823D01*
X149036114Y-69483157D01*
X149059923Y-69387919D01*
X149107542Y-69340300D01*
X149155161Y-69316490D01*
X150178971Y-69483157D02*
X150178971Y-69816490D01*
X150059923Y-69292680D02*
X149940876Y-69649823D01*
X150250400Y-69649823D01*
X150702780Y-69816490D02*
X150417066Y-69816490D01*
X150559923Y-69816490D02*
X150559923Y-69316490D01*
X150512304Y-69387919D01*
X150464685Y-69435538D01*
X150417066Y-69459347D01*
X148667066Y-70429585D02*
X148738495Y-70453395D01*
X148762304Y-70477204D01*
X148786114Y-70524823D01*
X148786114Y-70596252D01*
X148762304Y-70643871D01*
X148738495Y-70667680D01*
X148690876Y-70691490D01*
X148500400Y-70691490D01*
X148500400Y-70191490D01*
X148667066Y-70191490D01*
X148714685Y-70215300D01*
X148738495Y-70239109D01*
X148762304Y-70286728D01*
X148762304Y-70334347D01*
X148738495Y-70381966D01*
X148714685Y-70405776D01*
X148667066Y-70429585D01*
X148500400Y-70429585D01*
X149000400Y-70691490D02*
X149000400Y-70191490D01*
X149238495Y-70691490D02*
X149238495Y-70191490D01*
X149524209Y-70691490D01*
X149524209Y-70191490D01*
X150024209Y-70691490D02*
X149738495Y-70691490D01*
X149881352Y-70691490D02*
X149881352Y-70191490D01*
X149833733Y-70262919D01*
X149786114Y-70310538D01*
X149738495Y-70334347D01*
X151639733Y-69314900D02*
X151592114Y-69291090D01*
X151520685Y-69291090D01*
X151449257Y-69314900D01*
X151401638Y-69362519D01*
X151377828Y-69410138D01*
X151354019Y-69505376D01*
X151354019Y-69576804D01*
X151377828Y-69672042D01*
X151401638Y-69719661D01*
X151449257Y-69767280D01*
X151520685Y-69791090D01*
X151568304Y-69791090D01*
X151639733Y-69767280D01*
X151663542Y-69743471D01*
X151663542Y-69576804D01*
X151568304Y-69576804D01*
X151877828Y-69791090D02*
X151877828Y-69291090D01*
X152068304Y-69291090D01*
X152115923Y-69314900D01*
X152139733Y-69338709D01*
X152163542Y-69386328D01*
X152163542Y-69457757D01*
X152139733Y-69505376D01*
X152115923Y-69529185D01*
X152068304Y-69552995D01*
X151877828Y-69552995D01*
X152377828Y-69791090D02*
X152377828Y-69291090D01*
X152711161Y-69291090D02*
X152806400Y-69291090D01*
X152854019Y-69314900D01*
X152901638Y-69362519D01*
X152925447Y-69457757D01*
X152925447Y-69624423D01*
X152901638Y-69719661D01*
X152854019Y-69767280D01*
X152806400Y-69791090D01*
X152711161Y-69791090D01*
X152663542Y-69767280D01*
X152615923Y-69719661D01*
X152592114Y-69624423D01*
X152592114Y-69457757D01*
X152615923Y-69362519D01*
X152663542Y-69314900D01*
X152711161Y-69291090D01*
X153734971Y-69457757D02*
X153734971Y-69791090D01*
X153615923Y-69267280D02*
X153496876Y-69624423D01*
X153806400Y-69624423D01*
X154092114Y-69291090D02*
X154139733Y-69291090D01*
X154187352Y-69314900D01*
X154211161Y-69338709D01*
X154234971Y-69386328D01*
X154258780Y-69481566D01*
X154258780Y-69600614D01*
X154234971Y-69695852D01*
X154211161Y-69743471D01*
X154187352Y-69767280D01*
X154139733Y-69791090D01*
X154092114Y-69791090D01*
X154044495Y-69767280D01*
X154020685Y-69743471D01*
X153996876Y-69695852D01*
X153973066Y-69600614D01*
X153973066Y-69481566D01*
X153996876Y-69386328D01*
X154020685Y-69338709D01*
X154044495Y-69314900D01*
X154092114Y-69291090D01*
X152068304Y-70523233D02*
X152306400Y-70523233D01*
X152020685Y-70666090D02*
X152187352Y-70166090D01*
X152354019Y-70666090D01*
X152520685Y-70666090D02*
X152520685Y-70166090D01*
X152758780Y-70666090D02*
X152758780Y-70166090D01*
X153044495Y-70666090D01*
X153044495Y-70166090D01*
X153258780Y-70213709D02*
X153282590Y-70189900D01*
X153330209Y-70166090D01*
X153449257Y-70166090D01*
X153496876Y-70189900D01*
X153520685Y-70213709D01*
X153544495Y-70261328D01*
X153544495Y-70308947D01*
X153520685Y-70380376D01*
X153234971Y-70666090D01*
X153544495Y-70666090D01*
X155170333Y-69213300D02*
X155122714Y-69189490D01*
X155051285Y-69189490D01*
X154979857Y-69213300D01*
X154932238Y-69260919D01*
X154908428Y-69308538D01*
X154884619Y-69403776D01*
X154884619Y-69475204D01*
X154908428Y-69570442D01*
X154932238Y-69618061D01*
X154979857Y-69665680D01*
X155051285Y-69689490D01*
X155098904Y-69689490D01*
X155170333Y-69665680D01*
X155194142Y-69641871D01*
X155194142Y-69475204D01*
X155098904Y-69475204D01*
X155408428Y-69689490D02*
X155408428Y-69189490D01*
X155598904Y-69189490D01*
X155646523Y-69213300D01*
X155670333Y-69237109D01*
X155694142Y-69284728D01*
X155694142Y-69356157D01*
X155670333Y-69403776D01*
X155646523Y-69427585D01*
X155598904Y-69451395D01*
X155408428Y-69451395D01*
X155908428Y-69689490D02*
X155908428Y-69189490D01*
X156241761Y-69189490D02*
X156337000Y-69189490D01*
X156384619Y-69213300D01*
X156432238Y-69260919D01*
X156456047Y-69356157D01*
X156456047Y-69522823D01*
X156432238Y-69618061D01*
X156384619Y-69665680D01*
X156337000Y-69689490D01*
X156241761Y-69689490D01*
X156194142Y-69665680D01*
X156146523Y-69618061D01*
X156122714Y-69522823D01*
X156122714Y-69356157D01*
X156146523Y-69260919D01*
X156194142Y-69213300D01*
X156241761Y-69189490D01*
X157003666Y-69189490D02*
X157313190Y-69189490D01*
X157146523Y-69379966D01*
X157217952Y-69379966D01*
X157265571Y-69403776D01*
X157289380Y-69427585D01*
X157313190Y-69475204D01*
X157313190Y-69594252D01*
X157289380Y-69641871D01*
X157265571Y-69665680D01*
X157217952Y-69689490D01*
X157075095Y-69689490D01*
X157027476Y-69665680D01*
X157003666Y-69641871D01*
X157551285Y-69689490D02*
X157646523Y-69689490D01*
X157694142Y-69665680D01*
X157717952Y-69641871D01*
X157765571Y-69570442D01*
X157789380Y-69475204D01*
X157789380Y-69284728D01*
X157765571Y-69237109D01*
X157741761Y-69213300D01*
X157694142Y-69189490D01*
X157598904Y-69189490D01*
X157551285Y-69213300D01*
X157527476Y-69237109D01*
X157503666Y-69284728D01*
X157503666Y-69403776D01*
X157527476Y-69451395D01*
X157551285Y-69475204D01*
X157598904Y-69499014D01*
X157694142Y-69499014D01*
X157741761Y-69475204D01*
X157765571Y-69451395D01*
X157789380Y-69403776D01*
X155598904Y-70421633D02*
X155837000Y-70421633D01*
X155551285Y-70564490D02*
X155717952Y-70064490D01*
X155884619Y-70564490D01*
X156051285Y-70564490D02*
X156051285Y-70064490D01*
X156289380Y-70564490D02*
X156289380Y-70064490D01*
X156575095Y-70564490D01*
X156575095Y-70064490D01*
X157075095Y-70564490D02*
X156789380Y-70564490D01*
X156932238Y-70564490D02*
X156932238Y-70064490D01*
X156884619Y-70135919D01*
X156837000Y-70183538D01*
X156789380Y-70207347D01*
X174313904Y-107459866D02*
X175113904Y-107269390D01*
X174542476Y-107117009D01*
X175113904Y-106964628D01*
X174313904Y-106774152D01*
X175113904Y-106469390D02*
X174313904Y-106469390D01*
X175113904Y-105631295D02*
X174732952Y-105897961D01*
X175113904Y-106088438D02*
X174313904Y-106088438D01*
X174313904Y-105783676D01*
X174352000Y-105707485D01*
X174390095Y-105669390D01*
X174466285Y-105631295D01*
X174580571Y-105631295D01*
X174656761Y-105669390D01*
X174694857Y-105707485D01*
X174732952Y-105783676D01*
X174732952Y-106088438D01*
X174694857Y-105288438D02*
X174694857Y-105021771D01*
X175113904Y-104907485D02*
X175113904Y-105288438D01*
X174313904Y-105288438D01*
X174313904Y-104907485D01*
X175113904Y-104183676D02*
X175113904Y-104564628D01*
X174313904Y-104564628D01*
X174694857Y-103917009D02*
X174694857Y-103650342D01*
X175113904Y-103536057D02*
X175113904Y-103917009D01*
X174313904Y-103917009D01*
X174313904Y-103536057D01*
X175075809Y-103231295D02*
X175113904Y-103117009D01*
X175113904Y-102926533D01*
X175075809Y-102850342D01*
X175037714Y-102812247D01*
X174961523Y-102774152D01*
X174885333Y-102774152D01*
X174809142Y-102812247D01*
X174771047Y-102850342D01*
X174732952Y-102926533D01*
X174694857Y-103078914D01*
X174656761Y-103155104D01*
X174618666Y-103193200D01*
X174542476Y-103231295D01*
X174466285Y-103231295D01*
X174390095Y-103193200D01*
X174352000Y-103155104D01*
X174313904Y-103078914D01*
X174313904Y-102888438D01*
X174352000Y-102774152D01*
X175075809Y-102469390D02*
X175113904Y-102355104D01*
X175113904Y-102164628D01*
X175075809Y-102088438D01*
X175037714Y-102050342D01*
X174961523Y-102012247D01*
X174885333Y-102012247D01*
X174809142Y-102050342D01*
X174771047Y-102088438D01*
X174732952Y-102164628D01*
X174694857Y-102317009D01*
X174656761Y-102393200D01*
X174618666Y-102431295D01*
X174542476Y-102469390D01*
X174466285Y-102469390D01*
X174390095Y-102431295D01*
X174352000Y-102393200D01*
X174313904Y-102317009D01*
X174313904Y-102126533D01*
X174352000Y-102012247D01*
X175113904Y-101059866D02*
X174313904Y-101059866D01*
X174313904Y-100869390D01*
X174352000Y-100755104D01*
X174428190Y-100678914D01*
X174504380Y-100640819D01*
X174656761Y-100602723D01*
X174771047Y-100602723D01*
X174923428Y-100640819D01*
X174999619Y-100678914D01*
X175075809Y-100755104D01*
X175113904Y-100869390D01*
X175113904Y-101059866D01*
X174694857Y-100259866D02*
X174694857Y-99993200D01*
X175113904Y-99878914D02*
X175113904Y-100259866D01*
X174313904Y-100259866D01*
X174313904Y-99878914D01*
X174313904Y-99650342D02*
X175113904Y-99383676D01*
X174313904Y-99117009D01*
X174694857Y-98850342D02*
X174694857Y-98583676D01*
X175113904Y-98469390D02*
X175113904Y-98850342D01*
X174313904Y-98850342D01*
X174313904Y-98469390D01*
X175113904Y-97745580D02*
X175113904Y-98126533D01*
X174313904Y-98126533D01*
X174313904Y-97326533D02*
X174313904Y-97174152D01*
X174352000Y-97097961D01*
X174428190Y-97021771D01*
X174580571Y-96983676D01*
X174847238Y-96983676D01*
X174999619Y-97021771D01*
X175075809Y-97097961D01*
X175113904Y-97174152D01*
X175113904Y-97326533D01*
X175075809Y-97402723D01*
X174999619Y-97478914D01*
X174847238Y-97517009D01*
X174580571Y-97517009D01*
X174428190Y-97478914D01*
X174352000Y-97402723D01*
X174313904Y-97326533D01*
X175113904Y-96640819D02*
X174313904Y-96640819D01*
X174313904Y-96336057D01*
X174352000Y-96259866D01*
X174390095Y-96221771D01*
X174466285Y-96183676D01*
X174580571Y-96183676D01*
X174656761Y-96221771D01*
X174694857Y-96259866D01*
X174732952Y-96336057D01*
X174732952Y-96640819D01*
X175113904Y-95840819D02*
X174313904Y-95840819D01*
X174885333Y-95574152D01*
X174313904Y-95307485D01*
X175113904Y-95307485D01*
X174694857Y-94926533D02*
X174694857Y-94659866D01*
X175113904Y-94545580D02*
X175113904Y-94926533D01*
X174313904Y-94926533D01*
X174313904Y-94545580D01*
X175113904Y-94202723D02*
X174313904Y-94202723D01*
X175113904Y-93745580D01*
X174313904Y-93745580D01*
X174313904Y-93478914D02*
X174313904Y-93021771D01*
X175113904Y-93250342D02*
X174313904Y-93250342D01*
X174694857Y-91878914D02*
X174732952Y-91764628D01*
X174771047Y-91726533D01*
X174847238Y-91688438D01*
X174961523Y-91688438D01*
X175037714Y-91726533D01*
X175075809Y-91764628D01*
X175113904Y-91840819D01*
X175113904Y-92145580D01*
X174313904Y-92145580D01*
X174313904Y-91878914D01*
X174352000Y-91802723D01*
X174390095Y-91764628D01*
X174466285Y-91726533D01*
X174542476Y-91726533D01*
X174618666Y-91764628D01*
X174656761Y-91802723D01*
X174694857Y-91878914D01*
X174694857Y-92145580D01*
X174313904Y-91193200D02*
X174313904Y-91040819D01*
X174352000Y-90964628D01*
X174428190Y-90888438D01*
X174580571Y-90850342D01*
X174847238Y-90850342D01*
X174999619Y-90888438D01*
X175075809Y-90964628D01*
X175113904Y-91040819D01*
X175113904Y-91193200D01*
X175075809Y-91269390D01*
X174999619Y-91345580D01*
X174847238Y-91383676D01*
X174580571Y-91383676D01*
X174428190Y-91345580D01*
X174352000Y-91269390D01*
X174313904Y-91193200D01*
X174885333Y-90545580D02*
X174885333Y-90164628D01*
X175113904Y-90621771D02*
X174313904Y-90355104D01*
X175113904Y-90088438D01*
X175113904Y-89364628D02*
X174732952Y-89631295D01*
X175113904Y-89821771D02*
X174313904Y-89821771D01*
X174313904Y-89517009D01*
X174352000Y-89440819D01*
X174390095Y-89402723D01*
X174466285Y-89364628D01*
X174580571Y-89364628D01*
X174656761Y-89402723D01*
X174694857Y-89440819D01*
X174732952Y-89517009D01*
X174732952Y-89821771D01*
X175113904Y-89021771D02*
X174313904Y-89021771D01*
X174313904Y-88831295D01*
X174352000Y-88717009D01*
X174428190Y-88640819D01*
X174504380Y-88602723D01*
X174656761Y-88564628D01*
X174771047Y-88564628D01*
X174923428Y-88602723D01*
X174999619Y-88640819D01*
X175075809Y-88717009D01*
X175113904Y-88831295D01*
X175113904Y-89021771D01*
X176435533Y-104342485D02*
X176435533Y-104104390D01*
X176578390Y-104390104D02*
X176078390Y-104223438D01*
X176578390Y-104056771D01*
X176578390Y-103652009D02*
X176578390Y-103890104D01*
X176078390Y-103890104D01*
X176078390Y-103390104D02*
X176078390Y-103294866D01*
X176102200Y-103247247D01*
X176149819Y-103199628D01*
X176245057Y-103175819D01*
X176411723Y-103175819D01*
X176506961Y-103199628D01*
X176554580Y-103247247D01*
X176578390Y-103294866D01*
X176578390Y-103390104D01*
X176554580Y-103437723D01*
X176506961Y-103485342D01*
X176411723Y-103509152D01*
X176245057Y-103509152D01*
X176149819Y-103485342D01*
X176102200Y-103437723D01*
X176078390Y-103390104D01*
X176578390Y-102961533D02*
X176078390Y-102961533D01*
X176578390Y-102675819D02*
X176292676Y-102890104D01*
X176078390Y-102675819D02*
X176364104Y-102961533D01*
X176745057Y-101961533D02*
X176030771Y-101961533D01*
X176435533Y-101247247D02*
X176435533Y-101009152D01*
X176578390Y-101294866D02*
X176078390Y-101128200D01*
X176578390Y-100961533D01*
X176578390Y-100794866D02*
X176078390Y-100794866D01*
X176435533Y-100628200D01*
X176078390Y-100461533D01*
X176578390Y-100461533D01*
X176435533Y-100247247D02*
X176435533Y-100009152D01*
X176578390Y-100294866D02*
X176078390Y-100128200D01*
X176578390Y-99961533D01*
X176578390Y-99794866D02*
X176078390Y-99794866D01*
X176578390Y-99509152D01*
X176078390Y-99509152D01*
X176745057Y-98771057D02*
X176030771Y-98771057D01*
X176078390Y-97890104D02*
X176435533Y-97890104D01*
X176506961Y-97913914D01*
X176554580Y-97961533D01*
X176578390Y-98032961D01*
X176578390Y-98080580D01*
X176435533Y-97675819D02*
X176435533Y-97437723D01*
X176578390Y-97723438D02*
X176078390Y-97556771D01*
X176578390Y-97390104D01*
X176078390Y-97294866D02*
X176078390Y-97009152D01*
X176578390Y-97152009D02*
X176078390Y-97152009D01*
X176578390Y-96842485D02*
X176078390Y-96842485D01*
X176578390Y-96604390D02*
X176078390Y-96604390D01*
X176578390Y-96318676D01*
X176078390Y-96318676D01*
X176745057Y-95580580D02*
X176030771Y-95580580D01*
X176578390Y-94842485D02*
X176078390Y-94842485D01*
X176578390Y-94556771D02*
X176292676Y-94771057D01*
X176078390Y-94556771D02*
X176364104Y-94842485D01*
X176316485Y-94342485D02*
X176316485Y-94175819D01*
X176578390Y-94104390D02*
X176578390Y-94342485D01*
X176078390Y-94342485D01*
X176078390Y-94104390D01*
X176078390Y-93961533D02*
X176578390Y-93794866D01*
X176078390Y-93628200D01*
X176578390Y-93461533D02*
X176078390Y-93461533D01*
X176578390Y-93223438D02*
X176078390Y-93223438D01*
X176578390Y-92937723D01*
X176078390Y-92937723D01*
D11*
X171720771Y-102329857D02*
X171720771Y-101472714D01*
X173220771Y-101901285D02*
X171720771Y-101901285D01*
X172435057Y-100972714D02*
X172435057Y-100472714D01*
X173220771Y-100258428D02*
X173220771Y-100972714D01*
X171720771Y-100972714D01*
X171720771Y-100258428D01*
X173220771Y-99615571D02*
X171720771Y-99615571D01*
X173220771Y-98758428D01*
X171720771Y-98758428D01*
X172435057Y-98044142D02*
X172435057Y-97544142D01*
X173220771Y-97329857D02*
X173220771Y-98044142D01*
X171720771Y-98044142D01*
X171720771Y-97329857D01*
X171720771Y-96901285D02*
X171720771Y-96044142D01*
X173220771Y-96472714D02*
X171720771Y-96472714D01*
D10*
X122887609Y-109882085D02*
X123387609Y-109882085D01*
X123030466Y-110048752D01*
X123387609Y-110215419D01*
X122887609Y-110215419D01*
X122887609Y-110453514D02*
X123387609Y-110453514D01*
X122911419Y-110667800D02*
X122887609Y-110739228D01*
X122887609Y-110858276D01*
X122911419Y-110905895D01*
X122935228Y-110929704D01*
X122982847Y-110953514D01*
X123030466Y-110953514D01*
X123078085Y-110929704D01*
X123101895Y-110905895D01*
X123125704Y-110858276D01*
X123149514Y-110763038D01*
X123173323Y-110715419D01*
X123197133Y-110691609D01*
X123244752Y-110667800D01*
X123292371Y-110667800D01*
X123339990Y-110691609D01*
X123363800Y-110715419D01*
X123387609Y-110763038D01*
X123387609Y-110882085D01*
X123363800Y-110953514D01*
X123387609Y-111263038D02*
X123387609Y-111358276D01*
X123363800Y-111405895D01*
X123316180Y-111453514D01*
X123220942Y-111477323D01*
X123054276Y-111477323D01*
X122959038Y-111453514D01*
X122911419Y-111405895D01*
X122887609Y-111358276D01*
X122887609Y-111263038D01*
X122911419Y-111215419D01*
X122959038Y-111167800D01*
X123054276Y-111143990D01*
X123220942Y-111143990D01*
X123316180Y-111167800D01*
X123363800Y-111215419D01*
X123387609Y-111263038D01*
X122862209Y-112472885D02*
X123362209Y-112472885D01*
X123005066Y-112639552D01*
X123362209Y-112806219D01*
X122862209Y-112806219D01*
X123362209Y-113139552D02*
X123362209Y-113234790D01*
X123338400Y-113282409D01*
X123290780Y-113330028D01*
X123195542Y-113353838D01*
X123028876Y-113353838D01*
X122933638Y-113330028D01*
X122886019Y-113282409D01*
X122862209Y-113234790D01*
X122862209Y-113139552D01*
X122886019Y-113091933D01*
X122933638Y-113044314D01*
X123028876Y-113020504D01*
X123195542Y-113020504D01*
X123290780Y-113044314D01*
X123338400Y-113091933D01*
X123362209Y-113139552D01*
X122886019Y-113544314D02*
X122862209Y-113615742D01*
X122862209Y-113734790D01*
X122886019Y-113782409D01*
X122909828Y-113806219D01*
X122957447Y-113830028D01*
X123005066Y-113830028D01*
X123052685Y-113806219D01*
X123076495Y-113782409D01*
X123100304Y-113734790D01*
X123124114Y-113639552D01*
X123147923Y-113591933D01*
X123171733Y-113568123D01*
X123219352Y-113544314D01*
X123266971Y-113544314D01*
X123314590Y-113568123D01*
X123338400Y-113591933D01*
X123362209Y-113639552D01*
X123362209Y-113758600D01*
X123338400Y-113830028D01*
X122862209Y-114044314D02*
X123362209Y-114044314D01*
X123389200Y-107670647D02*
X123413009Y-107623028D01*
X123413009Y-107551600D01*
X123389200Y-107480171D01*
X123341580Y-107432552D01*
X123293961Y-107408742D01*
X123198723Y-107384933D01*
X123127295Y-107384933D01*
X123032057Y-107408742D01*
X122984438Y-107432552D01*
X122936819Y-107480171D01*
X122913009Y-107551600D01*
X122913009Y-107599219D01*
X122936819Y-107670647D01*
X122960628Y-107694457D01*
X123127295Y-107694457D01*
X123127295Y-107599219D01*
X122913009Y-107908742D02*
X123413009Y-107908742D01*
X122913009Y-108194457D01*
X123413009Y-108194457D01*
X122913009Y-108432552D02*
X123413009Y-108432552D01*
X123413009Y-108551600D01*
X123389200Y-108623028D01*
X123341580Y-108670647D01*
X123293961Y-108694457D01*
X123198723Y-108718266D01*
X123127295Y-108718266D01*
X123032057Y-108694457D01*
X122984438Y-108670647D01*
X122936819Y-108623028D01*
X122913009Y-108551600D01*
X122913009Y-108432552D01*
X123038419Y-104817942D02*
X123014609Y-104889371D01*
X123014609Y-105008419D01*
X123038419Y-105056038D01*
X123062228Y-105079847D01*
X123109847Y-105103657D01*
X123157466Y-105103657D01*
X123205085Y-105079847D01*
X123228895Y-105056038D01*
X123252704Y-105008419D01*
X123276514Y-104913180D01*
X123300323Y-104865561D01*
X123324133Y-104841752D01*
X123371752Y-104817942D01*
X123419371Y-104817942D01*
X123466990Y-104841752D01*
X123490800Y-104865561D01*
X123514609Y-104913180D01*
X123514609Y-105032228D01*
X123490800Y-105103657D01*
X123062228Y-105603657D02*
X123038419Y-105579847D01*
X123014609Y-105508419D01*
X123014609Y-105460800D01*
X123038419Y-105389371D01*
X123086038Y-105341752D01*
X123133657Y-105317942D01*
X123228895Y-105294133D01*
X123300323Y-105294133D01*
X123395561Y-105317942D01*
X123443180Y-105341752D01*
X123490800Y-105389371D01*
X123514609Y-105460800D01*
X123514609Y-105508419D01*
X123490800Y-105579847D01*
X123466990Y-105603657D01*
X123014609Y-105817942D02*
X123514609Y-105817942D01*
X123014609Y-106103657D02*
X123300323Y-105889371D01*
X123514609Y-106103657D02*
X123228895Y-105817942D01*
X123465400Y-102616047D02*
X123489209Y-102568428D01*
X123489209Y-102497000D01*
X123465400Y-102425571D01*
X123417780Y-102377952D01*
X123370161Y-102354142D01*
X123274923Y-102330333D01*
X123203495Y-102330333D01*
X123108257Y-102354142D01*
X123060638Y-102377952D01*
X123013019Y-102425571D01*
X122989209Y-102497000D01*
X122989209Y-102544619D01*
X123013019Y-102616047D01*
X123036828Y-102639857D01*
X123203495Y-102639857D01*
X123203495Y-102544619D01*
X122989209Y-102854142D02*
X123489209Y-102854142D01*
X122989209Y-103139857D01*
X123489209Y-103139857D01*
X122989209Y-103377952D02*
X123489209Y-103377952D01*
X123489209Y-103497000D01*
X123465400Y-103568428D01*
X123417780Y-103616047D01*
X123370161Y-103639857D01*
X123274923Y-103663666D01*
X123203495Y-103663666D01*
X123108257Y-103639857D01*
X123060638Y-103616047D01*
X123013019Y-103568428D01*
X122989209Y-103497000D01*
X122989209Y-103377952D01*
X122871752Y-100683190D02*
X122871752Y-100183190D01*
X122990800Y-100183190D01*
X123062228Y-100207000D01*
X123109847Y-100254619D01*
X123133657Y-100302238D01*
X123157466Y-100397476D01*
X123157466Y-100468904D01*
X123133657Y-100564142D01*
X123109847Y-100611761D01*
X123062228Y-100659380D01*
X122990800Y-100683190D01*
X122871752Y-100683190D01*
X123324133Y-100183190D02*
X123657466Y-100183190D01*
X123443180Y-100683190D01*
X122820952Y-98092390D02*
X122820952Y-97592390D01*
X122940000Y-97592390D01*
X123011428Y-97616200D01*
X123059047Y-97663819D01*
X123082857Y-97711438D01*
X123106666Y-97806676D01*
X123106666Y-97878104D01*
X123082857Y-97973342D01*
X123059047Y-98020961D01*
X123011428Y-98068580D01*
X122940000Y-98092390D01*
X122820952Y-98092390D01*
X123535238Y-97592390D02*
X123440000Y-97592390D01*
X123392380Y-97616200D01*
X123368571Y-97640009D01*
X123320952Y-97711438D01*
X123297142Y-97806676D01*
X123297142Y-97997152D01*
X123320952Y-98044771D01*
X123344761Y-98068580D01*
X123392380Y-98092390D01*
X123487619Y-98092390D01*
X123535238Y-98068580D01*
X123559047Y-98044771D01*
X123582857Y-97997152D01*
X123582857Y-97878104D01*
X123559047Y-97830485D01*
X123535238Y-97806676D01*
X123487619Y-97782866D01*
X123392380Y-97782866D01*
X123344761Y-97806676D01*
X123320952Y-97830485D01*
X123297142Y-97878104D01*
X122770152Y-95552390D02*
X122770152Y-95052390D01*
X122889200Y-95052390D01*
X122960628Y-95076200D01*
X123008247Y-95123819D01*
X123032057Y-95171438D01*
X123055866Y-95266676D01*
X123055866Y-95338104D01*
X123032057Y-95433342D01*
X123008247Y-95480961D01*
X122960628Y-95528580D01*
X122889200Y-95552390D01*
X122770152Y-95552390D01*
X123508247Y-95052390D02*
X123270152Y-95052390D01*
X123246342Y-95290485D01*
X123270152Y-95266676D01*
X123317771Y-95242866D01*
X123436819Y-95242866D01*
X123484438Y-95266676D01*
X123508247Y-95290485D01*
X123532057Y-95338104D01*
X123532057Y-95457152D01*
X123508247Y-95504771D01*
X123484438Y-95528580D01*
X123436819Y-95552390D01*
X123317771Y-95552390D01*
X123270152Y-95528580D01*
X123246342Y-95504771D01*
X122820952Y-92986990D02*
X122820952Y-92486990D01*
X122940000Y-92486990D01*
X123011428Y-92510800D01*
X123059047Y-92558419D01*
X123082857Y-92606038D01*
X123106666Y-92701276D01*
X123106666Y-92772704D01*
X123082857Y-92867942D01*
X123059047Y-92915561D01*
X123011428Y-92963180D01*
X122940000Y-92986990D01*
X122820952Y-92986990D01*
X123535238Y-92653657D02*
X123535238Y-92986990D01*
X123416190Y-92463180D02*
X123297142Y-92820323D01*
X123606666Y-92820323D01*
X122820952Y-90497790D02*
X122820952Y-89997790D01*
X122940000Y-89997790D01*
X123011428Y-90021600D01*
X123059047Y-90069219D01*
X123082857Y-90116838D01*
X123106666Y-90212076D01*
X123106666Y-90283504D01*
X123082857Y-90378742D01*
X123059047Y-90426361D01*
X123011428Y-90473980D01*
X122940000Y-90497790D01*
X122820952Y-90497790D01*
X123273333Y-89997790D02*
X123582857Y-89997790D01*
X123416190Y-90188266D01*
X123487619Y-90188266D01*
X123535238Y-90212076D01*
X123559047Y-90235885D01*
X123582857Y-90283504D01*
X123582857Y-90402552D01*
X123559047Y-90450171D01*
X123535238Y-90473980D01*
X123487619Y-90497790D01*
X123344761Y-90497790D01*
X123297142Y-90473980D01*
X123273333Y-90450171D01*
X122897152Y-87881590D02*
X122897152Y-87381590D01*
X123016200Y-87381590D01*
X123087628Y-87405400D01*
X123135247Y-87453019D01*
X123159057Y-87500638D01*
X123182866Y-87595876D01*
X123182866Y-87667304D01*
X123159057Y-87762542D01*
X123135247Y-87810161D01*
X123087628Y-87857780D01*
X123016200Y-87881590D01*
X122897152Y-87881590D01*
X123373342Y-87429209D02*
X123397152Y-87405400D01*
X123444771Y-87381590D01*
X123563819Y-87381590D01*
X123611438Y-87405400D01*
X123635247Y-87429209D01*
X123659057Y-87476828D01*
X123659057Y-87524447D01*
X123635247Y-87595876D01*
X123349533Y-87881590D01*
X123659057Y-87881590D01*
X122846352Y-85316190D02*
X122846352Y-84816190D01*
X122965400Y-84816190D01*
X123036828Y-84840000D01*
X123084447Y-84887619D01*
X123108257Y-84935238D01*
X123132066Y-85030476D01*
X123132066Y-85101904D01*
X123108257Y-85197142D01*
X123084447Y-85244761D01*
X123036828Y-85292380D01*
X122965400Y-85316190D01*
X122846352Y-85316190D01*
X123608257Y-85316190D02*
X123322542Y-85316190D01*
X123465400Y-85316190D02*
X123465400Y-84816190D01*
X123417780Y-84887619D01*
X123370161Y-84935238D01*
X123322542Y-84959047D01*
X122973352Y-82776190D02*
X122973352Y-82276190D01*
X123092400Y-82276190D01*
X123163828Y-82300000D01*
X123211447Y-82347619D01*
X123235257Y-82395238D01*
X123259066Y-82490476D01*
X123259066Y-82561904D01*
X123235257Y-82657142D01*
X123211447Y-82704761D01*
X123163828Y-82752380D01*
X123092400Y-82776190D01*
X122973352Y-82776190D01*
X123568590Y-82276190D02*
X123616209Y-82276190D01*
X123663828Y-82300000D01*
X123687638Y-82323809D01*
X123711447Y-82371428D01*
X123735257Y-82466666D01*
X123735257Y-82585714D01*
X123711447Y-82680952D01*
X123687638Y-82728571D01*
X123663828Y-82752380D01*
X123616209Y-82776190D01*
X123568590Y-82776190D01*
X123520971Y-82752380D01*
X123497161Y-82728571D01*
X123473352Y-82680952D01*
X123449542Y-82585714D01*
X123449542Y-82466666D01*
X123473352Y-82371428D01*
X123497161Y-82323809D01*
X123520971Y-82300000D01*
X123568590Y-82276190D01*
X123440000Y-79705247D02*
X123463809Y-79657628D01*
X123463809Y-79586200D01*
X123440000Y-79514771D01*
X123392380Y-79467152D01*
X123344761Y-79443342D01*
X123249523Y-79419533D01*
X123178095Y-79419533D01*
X123082857Y-79443342D01*
X123035238Y-79467152D01*
X122987619Y-79514771D01*
X122963809Y-79586200D01*
X122963809Y-79633819D01*
X122987619Y-79705247D01*
X123011428Y-79729057D01*
X123178095Y-79729057D01*
X123178095Y-79633819D01*
X122963809Y-79943342D02*
X123463809Y-79943342D01*
X122963809Y-80229057D01*
X123463809Y-80229057D01*
X122963809Y-80467152D02*
X123463809Y-80467152D01*
X123463809Y-80586200D01*
X123440000Y-80657628D01*
X123392380Y-80705247D01*
X123344761Y-80729057D01*
X123249523Y-80752866D01*
X123178095Y-80752866D01*
X123082857Y-80729057D01*
X123035238Y-80705247D01*
X122987619Y-80657628D01*
X122963809Y-80586200D01*
X122963809Y-80467152D01*
X122839219Y-77297790D02*
X123005885Y-77797790D01*
X123172552Y-77297790D01*
X123339219Y-77797790D02*
X123339219Y-77297790D01*
X123505885Y-77654933D01*
X123672552Y-77297790D01*
X123672552Y-77797790D01*
X183995190Y-114449895D02*
X183757095Y-114616561D01*
X183995190Y-114735609D02*
X183495190Y-114735609D01*
X183495190Y-114545133D01*
X183519000Y-114497514D01*
X183542809Y-114473704D01*
X183590428Y-114449895D01*
X183661857Y-114449895D01*
X183709476Y-114473704D01*
X183733285Y-114497514D01*
X183757095Y-114545133D01*
X183757095Y-114735609D01*
X183733285Y-114235609D02*
X183733285Y-114068942D01*
X183995190Y-113997514D02*
X183995190Y-114235609D01*
X183495190Y-114235609D01*
X183495190Y-113997514D01*
X183971380Y-113807038D02*
X183995190Y-113735609D01*
X183995190Y-113616561D01*
X183971380Y-113568942D01*
X183947571Y-113545133D01*
X183899952Y-113521323D01*
X183852333Y-113521323D01*
X183804714Y-113545133D01*
X183780904Y-113568942D01*
X183757095Y-113616561D01*
X183733285Y-113711800D01*
X183709476Y-113759419D01*
X183685666Y-113783228D01*
X183638047Y-113807038D01*
X183590428Y-113807038D01*
X183542809Y-113783228D01*
X183519000Y-113759419D01*
X183495190Y-113711800D01*
X183495190Y-113592752D01*
X183519000Y-113521323D01*
X183733285Y-113307038D02*
X183733285Y-113140371D01*
X183995190Y-113068942D02*
X183995190Y-113307038D01*
X183495190Y-113307038D01*
X183495190Y-113068942D01*
X183495190Y-112926085D02*
X183495190Y-112640371D01*
X183995190Y-112783228D02*
X183495190Y-112783228D01*
X183995190Y-112473704D02*
X183495190Y-112473704D01*
X183995190Y-112187990D01*
X183495190Y-112187990D01*
X183647590Y-111258266D02*
X184147590Y-111091600D01*
X183647590Y-110924933D01*
X184099971Y-110472552D02*
X184123780Y-110496361D01*
X184147590Y-110567790D01*
X184147590Y-110615409D01*
X184123780Y-110686838D01*
X184076161Y-110734457D01*
X184028542Y-110758266D01*
X183933304Y-110782076D01*
X183861876Y-110782076D01*
X183766638Y-110758266D01*
X183719019Y-110734457D01*
X183671400Y-110686838D01*
X183647590Y-110615409D01*
X183647590Y-110567790D01*
X183671400Y-110496361D01*
X183695209Y-110472552D01*
X184099971Y-109972552D02*
X184123780Y-109996361D01*
X184147590Y-110067790D01*
X184147590Y-110115409D01*
X184123780Y-110186838D01*
X184076161Y-110234457D01*
X184028542Y-110258266D01*
X183933304Y-110282076D01*
X183861876Y-110282076D01*
X183766638Y-110258266D01*
X183719019Y-110234457D01*
X183671400Y-110186838D01*
X183647590Y-110115409D01*
X183647590Y-110067790D01*
X183671400Y-109996361D01*
X183695209Y-109972552D01*
X184223790Y-108393657D02*
X183723790Y-108393657D01*
X184223790Y-108107942D01*
X183723790Y-108107942D01*
X184176171Y-107584133D02*
X184199980Y-107607942D01*
X184223790Y-107679371D01*
X184223790Y-107726990D01*
X184199980Y-107798419D01*
X184152361Y-107846038D01*
X184104742Y-107869847D01*
X184009504Y-107893657D01*
X183938076Y-107893657D01*
X183842838Y-107869847D01*
X183795219Y-107846038D01*
X183747600Y-107798419D01*
X183723790Y-107726990D01*
X183723790Y-107679371D01*
X183747600Y-107607942D01*
X183771409Y-107584133D01*
X183640457Y-105569533D02*
X183878552Y-105569533D01*
X183592838Y-105712390D02*
X183759504Y-105212390D01*
X183926171Y-105712390D01*
X184188076Y-105212390D02*
X184235695Y-105212390D01*
X184283314Y-105236200D01*
X184307123Y-105260009D01*
X184330933Y-105307628D01*
X184354742Y-105402866D01*
X184354742Y-105521914D01*
X184330933Y-105617152D01*
X184307123Y-105664771D01*
X184283314Y-105688580D01*
X184235695Y-105712390D01*
X184188076Y-105712390D01*
X184140457Y-105688580D01*
X184116647Y-105664771D01*
X184092838Y-105617152D01*
X184069028Y-105521914D01*
X184069028Y-105402866D01*
X184092838Y-105307628D01*
X184116647Y-105260009D01*
X184140457Y-105236200D01*
X184188076Y-105212390D01*
X183615057Y-102927933D02*
X183853152Y-102927933D01*
X183567438Y-103070790D02*
X183734104Y-102570790D01*
X183900771Y-103070790D01*
X184329342Y-103070790D02*
X184043628Y-103070790D01*
X184186485Y-103070790D02*
X184186485Y-102570790D01*
X184138866Y-102642219D01*
X184091247Y-102689838D01*
X184043628Y-102713647D01*
X183903133Y-101918923D02*
X183903133Y-101680828D01*
X184045990Y-101966542D02*
X183545990Y-101799876D01*
X184045990Y-101633209D01*
X183593609Y-101490352D02*
X183569800Y-101466542D01*
X183545990Y-101418923D01*
X183545990Y-101299876D01*
X183569800Y-101252257D01*
X183593609Y-101228447D01*
X183641228Y-101204638D01*
X183688847Y-101204638D01*
X183760276Y-101228447D01*
X184045990Y-101514161D01*
X184045990Y-101204638D01*
X183522180Y-100633209D02*
X184165038Y-101061780D01*
X184022180Y-100490352D02*
X184045990Y-100418923D01*
X184045990Y-100299876D01*
X184022180Y-100252257D01*
X183998371Y-100228447D01*
X183950752Y-100204638D01*
X183903133Y-100204638D01*
X183855514Y-100228447D01*
X183831704Y-100252257D01*
X183807895Y-100299876D01*
X183784085Y-100395114D01*
X183760276Y-100442733D01*
X183736466Y-100466542D01*
X183688847Y-100490352D01*
X183641228Y-100490352D01*
X183593609Y-100466542D01*
X183569800Y-100442733D01*
X183545990Y-100395114D01*
X183545990Y-100276066D01*
X183569800Y-100204638D01*
X183998371Y-99704638D02*
X184022180Y-99728447D01*
X184045990Y-99799876D01*
X184045990Y-99847495D01*
X184022180Y-99918923D01*
X183974561Y-99966542D01*
X183926942Y-99990352D01*
X183831704Y-100014161D01*
X183760276Y-100014161D01*
X183665038Y-99990352D01*
X183617419Y-99966542D01*
X183569800Y-99918923D01*
X183545990Y-99847495D01*
X183545990Y-99799876D01*
X183569800Y-99728447D01*
X183593609Y-99704638D01*
X184045990Y-99252257D02*
X184045990Y-99490352D01*
X183545990Y-99490352D01*
X183928533Y-98730428D02*
X183928533Y-98492333D01*
X184071390Y-98778047D02*
X183571390Y-98611380D01*
X184071390Y-98444714D01*
X183571390Y-98325666D02*
X183571390Y-98016142D01*
X183761866Y-98182809D01*
X183761866Y-98111380D01*
X183785676Y-98063761D01*
X183809485Y-98039952D01*
X183857104Y-98016142D01*
X183976152Y-98016142D01*
X184023771Y-98039952D01*
X184047580Y-98063761D01*
X184071390Y-98111380D01*
X184071390Y-98254238D01*
X184047580Y-98301857D01*
X184023771Y-98325666D01*
X183547580Y-97444714D02*
X184190438Y-97873285D01*
X184047580Y-97301857D02*
X184071390Y-97230428D01*
X184071390Y-97111380D01*
X184047580Y-97063761D01*
X184023771Y-97039952D01*
X183976152Y-97016142D01*
X183928533Y-97016142D01*
X183880914Y-97039952D01*
X183857104Y-97063761D01*
X183833295Y-97111380D01*
X183809485Y-97206619D01*
X183785676Y-97254238D01*
X183761866Y-97278047D01*
X183714247Y-97301857D01*
X183666628Y-97301857D01*
X183619009Y-97278047D01*
X183595200Y-97254238D01*
X183571390Y-97206619D01*
X183571390Y-97087571D01*
X183595200Y-97016142D01*
X184071390Y-96801857D02*
X183571390Y-96801857D01*
X183571390Y-96682809D01*
X183595200Y-96611380D01*
X183642819Y-96563761D01*
X183690438Y-96539952D01*
X183785676Y-96516142D01*
X183857104Y-96516142D01*
X183952342Y-96539952D01*
X183999961Y-96563761D01*
X184047580Y-96611380D01*
X184071390Y-96682809D01*
X184071390Y-96801857D01*
X183928533Y-96325666D02*
X183928533Y-96087571D01*
X184071390Y-96373285D02*
X183571390Y-96206619D01*
X184071390Y-96039952D01*
X183615057Y-95180933D02*
X183853152Y-95180933D01*
X183567438Y-95323790D02*
X183734104Y-94823790D01*
X183900771Y-95323790D01*
X184281723Y-94990457D02*
X184281723Y-95323790D01*
X184162676Y-94799980D02*
X184043628Y-95157123D01*
X184353152Y-95157123D01*
X183538857Y-92742533D02*
X183776952Y-92742533D01*
X183491238Y-92885390D02*
X183657904Y-92385390D01*
X183824571Y-92885390D01*
X184229333Y-92385390D02*
X183991238Y-92385390D01*
X183967428Y-92623485D01*
X183991238Y-92599676D01*
X184038857Y-92575866D01*
X184157904Y-92575866D01*
X184205523Y-92599676D01*
X184229333Y-92623485D01*
X184253142Y-92671104D01*
X184253142Y-92790152D01*
X184229333Y-92837771D01*
X184205523Y-92861580D01*
X184157904Y-92885390D01*
X184038857Y-92885390D01*
X183991238Y-92861580D01*
X183967428Y-92837771D01*
X183665857Y-90278733D02*
X183903952Y-90278733D01*
X183618238Y-90421590D02*
X183784904Y-89921590D01*
X183951571Y-90421590D01*
X184332523Y-89921590D02*
X184237285Y-89921590D01*
X184189666Y-89945400D01*
X184165857Y-89969209D01*
X184118238Y-90040638D01*
X184094428Y-90135876D01*
X184094428Y-90326352D01*
X184118238Y-90373971D01*
X184142047Y-90397780D01*
X184189666Y-90421590D01*
X184284904Y-90421590D01*
X184332523Y-90397780D01*
X184356333Y-90373971D01*
X184380142Y-90326352D01*
X184380142Y-90207304D01*
X184356333Y-90159685D01*
X184332523Y-90135876D01*
X184284904Y-90112066D01*
X184189666Y-90112066D01*
X184142047Y-90135876D01*
X184118238Y-90159685D01*
X184094428Y-90207304D01*
X183589657Y-87662533D02*
X183827752Y-87662533D01*
X183542038Y-87805390D02*
X183708704Y-87305390D01*
X183875371Y-87805390D01*
X183994419Y-87305390D02*
X184327752Y-87305390D01*
X184113466Y-87805390D01*
X183647590Y-86235266D02*
X184147590Y-86068600D01*
X183647590Y-85901933D01*
X183885685Y-85568600D02*
X183909495Y-85497171D01*
X183933304Y-85473361D01*
X183980923Y-85449552D01*
X184052352Y-85449552D01*
X184099971Y-85473361D01*
X184123780Y-85497171D01*
X184147590Y-85544790D01*
X184147590Y-85735266D01*
X183647590Y-85735266D01*
X183647590Y-85568600D01*
X183671400Y-85520980D01*
X183695209Y-85497171D01*
X183742828Y-85473361D01*
X183790447Y-85473361D01*
X183838066Y-85497171D01*
X183861876Y-85520980D01*
X183885685Y-85568600D01*
X183885685Y-85735266D01*
X183647590Y-85235266D02*
X184052352Y-85235266D01*
X184099971Y-85211457D01*
X184123780Y-85187647D01*
X184147590Y-85140028D01*
X184147590Y-85044790D01*
X184123780Y-84997171D01*
X184099971Y-84973361D01*
X184052352Y-84949552D01*
X183647590Y-84949552D01*
X184123780Y-84735266D02*
X184147590Y-84663838D01*
X184147590Y-84544790D01*
X184123780Y-84497171D01*
X184099971Y-84473361D01*
X184052352Y-84449552D01*
X184004733Y-84449552D01*
X183957114Y-84473361D01*
X183933304Y-84497171D01*
X183909495Y-84544790D01*
X183885685Y-84640028D01*
X183861876Y-84687647D01*
X183838066Y-84711457D01*
X183790447Y-84735266D01*
X183742828Y-84735266D01*
X183695209Y-84711457D01*
X183671400Y-84687647D01*
X183647590Y-84640028D01*
X183647590Y-84520980D01*
X183671400Y-84449552D01*
X184147590Y-83538095D02*
X183909495Y-83704761D01*
X184147590Y-83823809D02*
X183647590Y-83823809D01*
X183647590Y-83633333D01*
X183671400Y-83585714D01*
X183695209Y-83561904D01*
X183742828Y-83538095D01*
X183814257Y-83538095D01*
X183861876Y-83561904D01*
X183885685Y-83585714D01*
X183909495Y-83633333D01*
X183909495Y-83823809D01*
X183885685Y-83323809D02*
X183885685Y-83157142D01*
X184147590Y-83085714D02*
X184147590Y-83323809D01*
X183647590Y-83323809D01*
X183647590Y-83085714D01*
X184123780Y-82895238D02*
X184147590Y-82823809D01*
X184147590Y-82704761D01*
X184123780Y-82657142D01*
X184099971Y-82633333D01*
X184052352Y-82609523D01*
X184004733Y-82609523D01*
X183957114Y-82633333D01*
X183933304Y-82657142D01*
X183909495Y-82704761D01*
X183885685Y-82800000D01*
X183861876Y-82847619D01*
X183838066Y-82871428D01*
X183790447Y-82895238D01*
X183742828Y-82895238D01*
X183695209Y-82871428D01*
X183671400Y-82847619D01*
X183647590Y-82800000D01*
X183647590Y-82680952D01*
X183671400Y-82609523D01*
X183885685Y-82395238D02*
X183885685Y-82228571D01*
X184147590Y-82157142D02*
X184147590Y-82395238D01*
X183647590Y-82395238D01*
X183647590Y-82157142D01*
X183647590Y-82014285D02*
X183647590Y-81728571D01*
X184147590Y-81871428D02*
X183647590Y-81871428D01*
X184147590Y-81561904D02*
X183647590Y-81561904D01*
X184147590Y-81276190D01*
X183647590Y-81276190D01*
X183667447Y-79710790D02*
X183953161Y-79710790D01*
X183810304Y-80210790D02*
X183810304Y-79710790D01*
X184072209Y-79710790D02*
X184405542Y-80210790D01*
X184405542Y-79710790D02*
X184072209Y-80210790D01*
X183888866Y-77746990D02*
X183722200Y-77508895D01*
X183603152Y-77746990D02*
X183603152Y-77246990D01*
X183793628Y-77246990D01*
X183841247Y-77270800D01*
X183865057Y-77294609D01*
X183888866Y-77342228D01*
X183888866Y-77413657D01*
X183865057Y-77461276D01*
X183841247Y-77485085D01*
X183793628Y-77508895D01*
X183603152Y-77508895D01*
X184055533Y-77246990D02*
X184388866Y-77746990D01*
X184388866Y-77246990D02*
X184055533Y-77746990D01*
D12*
%TO.C,L1*%
X167275000Y-90335000D02*
X169275000Y-90335000D01*
X167275000Y-88735000D02*
X169275000Y-88735000D01*
D13*
%TO.C,IC3*%
X147535000Y-102845000D02*
X147535000Y-102845000D01*
X147535000Y-102645000D02*
X147535000Y-102645000D01*
D12*
X148035000Y-100995000D02*
X158035000Y-100995000D01*
X148035000Y-115995000D02*
X148035000Y-100995000D01*
X158035000Y-115995000D02*
X148035000Y-115995000D01*
X158035000Y-100995000D02*
X158035000Y-115995000D01*
D13*
X147535000Y-102645000D02*
G75*
G02*
X147535000Y-102845000I0J-100000D01*
G01*
X147535000Y-102845000D02*
G75*
G02*
X147535000Y-102645000I0J100000D01*
G01*
%TO.C,R15*%
X150768000Y-87658000D02*
X151903000Y-87658000D01*
X148833000Y-87658000D02*
X149968000Y-87658000D01*
X150768000Y-86078000D02*
X151903000Y-86078000D01*
X148833000Y-87658000D02*
X148833000Y-86078000D01*
X151903000Y-87658000D02*
X151903000Y-86078000D01*
X148833000Y-86078000D02*
X149968000Y-86078000D01*
%TO.C,C6*%
X137822000Y-72625000D02*
X138742000Y-72625000D01*
X139642000Y-72625000D02*
X140562000Y-72625000D01*
X139642000Y-74695000D02*
X140562000Y-74695000D01*
X140962000Y-74295000D02*
X140962000Y-73025000D01*
X137822000Y-74695000D02*
X138742000Y-74695000D01*
X137422000Y-74295000D02*
X137422000Y-73025000D01*
X137422000Y-73024990D02*
G75*
G02*
X137822000Y-72624990I400000J0D01*
G01*
X137822000Y-74695000D02*
G75*
G02*
X137422000Y-74295000I0J400000D01*
G01*
X140962000Y-74295000D02*
G75*
G02*
X140562000Y-74695000I-400000J0D01*
G01*
X140562000Y-72625000D02*
G75*
G02*
X140962000Y-73025000I0J-400000D01*
G01*
D14*
%TO.C,J4*%
X181610000Y-111506000D02*
X181610000Y-112014000D01*
X181610000Y-108966000D02*
X181610000Y-109474000D01*
X181610000Y-106426000D02*
X181610000Y-106934000D01*
X181610000Y-103886000D02*
X181610000Y-104394000D01*
X181610000Y-101346000D02*
X181610000Y-101854000D01*
X181610000Y-114300000D02*
X181610000Y-114046000D01*
X181610000Y-114300000D02*
X180619400Y-114300000D01*
X180619400Y-114300000D02*
X180340000Y-114020600D01*
X181610000Y-114300000D02*
X182600600Y-114300000D01*
X182600600Y-114300000D02*
X182880000Y-114020600D01*
X181610000Y-98806000D02*
X181610000Y-99314000D01*
X181610000Y-96266000D02*
X181610000Y-96774000D01*
X181610000Y-93726000D02*
X181610000Y-94234000D01*
X181610000Y-91186000D02*
X181610000Y-91694000D01*
X181610000Y-88646000D02*
X181610000Y-89154000D01*
X181610000Y-86106000D02*
X181610000Y-86614000D01*
X181610000Y-83566000D02*
X181610000Y-84076540D01*
X181610000Y-81026000D02*
X181610000Y-81534000D01*
X181610000Y-78486000D02*
X181610000Y-78994000D01*
X181610000Y-76200000D02*
X182600600Y-76200000D01*
X182600600Y-76200000D02*
X182880000Y-76479400D01*
X181610000Y-76200000D02*
X180619400Y-76200000D01*
X180619400Y-76200000D02*
X180340000Y-76479400D01*
X181610000Y-76200000D02*
X181610000Y-76454000D01*
D15*
%TO.C,J1*%
X138292840Y-63258700D02*
X138292840Y-64757300D01*
X138292840Y-64757300D02*
X140091160Y-64757300D01*
X140091160Y-63258700D02*
X140091160Y-64757300D01*
X138292840Y-63258700D02*
X140091160Y-63258700D01*
X134759700Y-63660020D02*
X134759700Y-64355980D01*
X134759700Y-64355980D02*
X136258300Y-64355980D01*
X136258300Y-63660020D02*
X136258300Y-64355980D01*
X134759700Y-63660020D02*
X136258300Y-63660020D01*
X130926840Y-63258700D02*
X130926840Y-64757300D01*
X130926840Y-64757300D02*
X132725160Y-64757300D01*
X132725160Y-63258700D02*
X132725160Y-64757300D01*
X130926840Y-63258700D02*
X132725160Y-63258700D01*
X138191240Y-63159640D02*
X138191240Y-64856360D01*
X138191240Y-64856360D02*
X140192760Y-64856360D01*
X140192760Y-63159640D02*
X140192760Y-64856360D01*
X138191240Y-63159640D02*
X140192760Y-63159640D01*
X130825240Y-63159640D02*
X130825240Y-64856360D01*
X130825240Y-64856360D02*
X132826760Y-64856360D01*
X132826760Y-63159640D02*
X132826760Y-64856360D01*
X130825240Y-63159640D02*
X132826760Y-63159640D01*
X134160260Y-63159640D02*
X134160260Y-64856360D01*
X134160260Y-64856360D02*
X136857740Y-64856360D01*
X136857740Y-63159640D02*
X136857740Y-64856360D01*
X134160260Y-63159640D02*
X136857740Y-63159640D01*
D16*
X139501880Y-66987420D02*
X139501880Y-66006980D01*
X139501880Y-66006980D02*
X139506960Y-66006980D01*
X139506960Y-67007740D02*
X138508740Y-67007740D01*
X131511040Y-66006980D02*
X131511040Y-67007740D01*
X131511040Y-67007740D02*
X132509260Y-67007740D01*
X139506960Y-63009780D02*
X139506960Y-62009020D01*
X131511040Y-63009780D02*
X131511040Y-62009020D01*
D17*
%TO.C,U10*%
X129604140Y-63398400D02*
X123379860Y-63398400D01*
X123379860Y-63398400D02*
X122770900Y-63398400D01*
X124604140Y-66649600D02*
X125879860Y-66649600D01*
X127104140Y-66649600D02*
X128379860Y-66649600D01*
X129604140Y-66649600D02*
X130213100Y-66649600D01*
X122770900Y-63398400D02*
X122770900Y-66649600D01*
X122770900Y-66649600D02*
X123379860Y-66649600D01*
X130213100Y-66649600D02*
X130213100Y-63398400D01*
X130213100Y-63398400D02*
X129604140Y-63398400D01*
D18*
%TO.C,U9*%
X145010000Y-104285000D02*
X142010000Y-104285000D01*
X143510000Y-106535000D02*
X142010000Y-106535000D01*
D19*
%TO.C,U8*%
X161044000Y-61540000D02*
X177284000Y-61540000D01*
X177284000Y-61540000D02*
X177284000Y-69160000D01*
X177284000Y-85160000D02*
X177284000Y-85780000D01*
X177284000Y-85780000D02*
X175164000Y-85780000D01*
X163164000Y-85780000D02*
X161044000Y-85780000D01*
X161044000Y-85780000D02*
X161044000Y-85160000D01*
X161044000Y-69160000D02*
X161044000Y-61540000D01*
X161044000Y-69160000D02*
X160434000Y-69160000D01*
%TO.C,U7*%
X151028000Y-83788000D02*
X151028000Y-81988000D01*
X147808000Y-81988000D02*
X147808000Y-84438000D01*
D12*
%TO.C,U6*%
X167292000Y-95688000D02*
X167292000Y-95388000D01*
X167292000Y-95388000D02*
X167192000Y-95288000D01*
X167192000Y-95288000D02*
X167192000Y-93988000D01*
X162092000Y-94888000D02*
X161892000Y-94888000D01*
X161892000Y-94888000D02*
X161892000Y-95288000D01*
X167092000Y-99688000D02*
X167292000Y-99688000D01*
X167292000Y-99688000D02*
X167292000Y-99288000D01*
X161992000Y-99688000D02*
X162092000Y-99688000D01*
X162092000Y-99688000D02*
X161892000Y-99688000D01*
X161892000Y-99688000D02*
X161892000Y-99188000D01*
%TO.C,U5*%
X147787000Y-94421000D02*
X148262000Y-94421000D01*
X147762000Y-94421000D02*
X147762000Y-94921000D01*
X151912000Y-94421000D02*
X151912000Y-94946000D01*
X151912000Y-94421000D02*
X151362000Y-94421000D01*
X151912000Y-96971000D02*
X151912000Y-96546000D01*
X151912000Y-96971000D02*
X151412000Y-96971000D01*
X147762000Y-96971000D02*
X148212000Y-96971000D01*
X147762000Y-96971000D02*
X147762000Y-96546000D01*
%TO.C,U4*%
X138785000Y-102480000D02*
X139385000Y-102480000D01*
X139385000Y-102480000D02*
X139385000Y-102080000D01*
X138735000Y-98780000D02*
X139385000Y-98780000D01*
X139385000Y-98780000D02*
X139385000Y-99080000D01*
X136185000Y-99130000D02*
X136185000Y-98780000D01*
X136185000Y-98780000D02*
X136885000Y-98780000D01*
X136235000Y-102330000D02*
X136435000Y-102330000D01*
X136435000Y-102330000D02*
X136585000Y-102480000D01*
X136585000Y-102480000D02*
X136835000Y-102480000D01*
%TO.C,U3*%
X140200000Y-106090000D02*
X140700000Y-106090000D01*
X140700000Y-106090000D02*
X140700000Y-105740000D01*
X140700000Y-103740000D02*
X140700000Y-103390000D01*
X140700000Y-103390000D02*
X140150000Y-103390000D01*
X138000000Y-103740000D02*
X138000000Y-103390000D01*
X138000000Y-103390000D02*
X138650000Y-103390000D01*
X138000000Y-105640000D02*
X138000000Y-105790000D01*
X138000000Y-105790000D02*
X138300000Y-106090000D01*
X138300000Y-106090000D02*
X138550000Y-106090000D01*
X138550000Y-106090000D02*
X138550000Y-106190000D01*
D17*
%TO.C,U2*%
X137515600Y-76060300D02*
X140868400Y-76060300D01*
X139132501Y-75628500D02*
X139132501Y-75374500D01*
X139132501Y-75374500D02*
X138751500Y-75374500D01*
X138751500Y-75374500D02*
X138751500Y-75628500D01*
X138751500Y-75628500D02*
X139132501Y-75628500D01*
X138632499Y-81851500D02*
X138632499Y-82105500D01*
X138632499Y-82105500D02*
X138251499Y-82105500D01*
X138251499Y-82105500D02*
X138251499Y-81851500D01*
X138251499Y-81851500D02*
X138632499Y-81851500D01*
%TO.C,U1*%
X144399000Y-100960301D02*
X145109719Y-100960301D01*
X146659600Y-100960301D02*
X146659600Y-100749581D01*
X146659600Y-98699701D02*
X145948881Y-98699701D01*
X144399000Y-98699701D02*
X144399000Y-98910421D01*
X144399000Y-99749583D02*
X144399000Y-99910419D01*
X144399000Y-100749581D02*
X144399000Y-100960301D01*
X145948881Y-100960301D02*
X146659600Y-100960301D01*
X146659600Y-99910419D02*
X146659600Y-99749583D01*
X146659600Y-98910421D02*
X146659600Y-98699701D01*
X145109719Y-98699701D02*
X144399000Y-98699701D01*
D12*
%TO.C,S1*%
X177292000Y-115684000D02*
X177892000Y-115684000D01*
X177292000Y-115684000D02*
X176692000Y-115684000D01*
X174892000Y-113284000D02*
X174892000Y-112684000D01*
X174892000Y-113284000D02*
X174892000Y-113884000D01*
X177292000Y-110884000D02*
X177892000Y-110884000D01*
X177292000Y-110884000D02*
X176692000Y-110884000D01*
X179692000Y-113284000D02*
X179692000Y-112684000D01*
X179692000Y-113284000D02*
X179692000Y-113884000D01*
D13*
%TO.C,R28*%
X137823000Y-108312000D02*
X137823000Y-107177000D01*
X137823000Y-110247000D02*
X137823000Y-109112000D01*
X136243000Y-108312000D02*
X136243000Y-107177000D01*
X137823000Y-110247000D02*
X136243000Y-110247000D01*
X137823000Y-107177000D02*
X136243000Y-107177000D01*
X136243000Y-110247000D02*
X136243000Y-109112000D01*
%TO.C,R27*%
X134648000Y-108312000D02*
X134648000Y-107177000D01*
X134648000Y-110247000D02*
X134648000Y-109112000D01*
X133068000Y-108312000D02*
X133068000Y-107177000D01*
X134648000Y-110247000D02*
X133068000Y-110247000D01*
X134648000Y-107177000D02*
X133068000Y-107177000D01*
X133068000Y-110247000D02*
X133068000Y-109112000D01*
%TO.C,R26*%
X131473000Y-108312000D02*
X131473000Y-107177000D01*
X131473000Y-110247000D02*
X131473000Y-109112000D01*
X129893000Y-108312000D02*
X129893000Y-107177000D01*
X131473000Y-110247000D02*
X129893000Y-110247000D01*
X131473000Y-107177000D02*
X129893000Y-107177000D01*
X129893000Y-110247000D02*
X129893000Y-109112000D01*
%TO.C,R25*%
X144554000Y-109590000D02*
X144554000Y-108455000D01*
X144554000Y-111525000D02*
X144554000Y-110390000D01*
X142974000Y-109590000D02*
X142974000Y-108455000D01*
X144554000Y-111525000D02*
X142974000Y-111525000D01*
X144554000Y-108455000D02*
X142974000Y-108455000D01*
X142974000Y-111525000D02*
X142974000Y-110390000D01*
%TO.C,R24*%
X142974000Y-113946000D02*
X142974000Y-115081000D01*
X142974000Y-112011000D02*
X142974000Y-113146000D01*
X144554000Y-113946000D02*
X144554000Y-115081000D01*
X142974000Y-112011000D02*
X144554000Y-112011000D01*
X142974000Y-115081000D02*
X144554000Y-115081000D01*
X144554000Y-112011000D02*
X144554000Y-113146000D01*
%TO.C,R23*%
X169272000Y-115034000D02*
X168137000Y-115034000D01*
X171207000Y-115034000D02*
X170072000Y-115034000D01*
X169272000Y-116614000D02*
X168137000Y-116614000D01*
X171207000Y-115034000D02*
X171207000Y-116614000D01*
X168137000Y-115034000D02*
X168137000Y-116614000D01*
X171207000Y-116614000D02*
X170072000Y-116614000D01*
%TO.C,R22*%
X165470000Y-115034000D02*
X164335000Y-115034000D01*
X167405000Y-115034000D02*
X166270000Y-115034000D01*
X165470000Y-116614000D02*
X164335000Y-116614000D01*
X167405000Y-115034000D02*
X167405000Y-116614000D01*
X164335000Y-115034000D02*
X164335000Y-116614000D01*
X167405000Y-116614000D02*
X166270000Y-116614000D01*
%TO.C,R21*%
X128370000Y-103350000D02*
X127235000Y-103350000D01*
X130305000Y-103350000D02*
X129170000Y-103350000D01*
X128370000Y-104930000D02*
X127235000Y-104930000D01*
X130305000Y-103350000D02*
X130305000Y-104930000D01*
X127235000Y-103350000D02*
X127235000Y-104930000D01*
X130305000Y-104930000D02*
X129170000Y-104930000D01*
%TO.C,R20*%
X178534000Y-79910000D02*
X178534000Y-81045000D01*
X178534000Y-77975000D02*
X178534000Y-79110000D01*
X180114000Y-79910000D02*
X180114000Y-81045000D01*
X178534000Y-77975000D02*
X180114000Y-77975000D01*
X178534000Y-81045000D02*
X180114000Y-81045000D01*
X180114000Y-77975000D02*
X180114000Y-79110000D01*
%TO.C,R19*%
X178534000Y-83450000D02*
X178534000Y-84585000D01*
X178534000Y-81515000D02*
X178534000Y-82650000D01*
X180114000Y-83450000D02*
X180114000Y-84585000D01*
X178534000Y-81515000D02*
X180114000Y-81515000D01*
X178534000Y-84585000D02*
X180114000Y-84585000D01*
X180114000Y-81515000D02*
X180114000Y-82650000D01*
%TO.C,R18*%
X141506000Y-109582000D02*
X141506000Y-108447000D01*
X141506000Y-111517000D02*
X141506000Y-110382000D01*
X139926000Y-109582000D02*
X139926000Y-108447000D01*
X141506000Y-111517000D02*
X139926000Y-111517000D01*
X141506000Y-108447000D02*
X139926000Y-108447000D01*
X139926000Y-111517000D02*
X139926000Y-110382000D01*
%TO.C,R17*%
X159794000Y-71474000D02*
X159794000Y-70339000D01*
X159794000Y-73409000D02*
X159794000Y-72274000D01*
X158214000Y-71474000D02*
X158214000Y-70339000D01*
X159794000Y-73409000D02*
X158214000Y-73409000D01*
X159794000Y-70339000D02*
X158214000Y-70339000D01*
X158214000Y-73409000D02*
X158214000Y-72274000D01*
%TO.C,R16*%
X159794000Y-75292000D02*
X159794000Y-74157000D01*
X159794000Y-77227000D02*
X159794000Y-76092000D01*
X158214000Y-75292000D02*
X158214000Y-74157000D01*
X159794000Y-77227000D02*
X158214000Y-77227000D01*
X159794000Y-74157000D02*
X158214000Y-74157000D01*
X158214000Y-77227000D02*
X158214000Y-76092000D01*
%TO.C,R14*%
X150506000Y-89690000D02*
X151641000Y-89690000D01*
X148571000Y-89690000D02*
X149706000Y-89690000D01*
X150506000Y-88110000D02*
X151641000Y-88110000D01*
X148571000Y-89690000D02*
X148571000Y-88110000D01*
X151641000Y-89690000D02*
X151641000Y-88110000D01*
X148571000Y-88110000D02*
X149706000Y-88110000D01*
%TO.C,R13*%
X131290000Y-83720000D02*
X131290000Y-84855000D01*
X131290000Y-81785000D02*
X131290000Y-82920000D01*
X132870000Y-83720000D02*
X132870000Y-84855000D01*
X131290000Y-81785000D02*
X132870000Y-81785000D01*
X131290000Y-84855000D02*
X132870000Y-84855000D01*
X132870000Y-81785000D02*
X132870000Y-82920000D01*
%TO.C,R12*%
X135410000Y-82920000D02*
X135410000Y-81785000D01*
X135410000Y-84855000D02*
X135410000Y-83720000D01*
X133830000Y-82920000D02*
X133830000Y-81785000D01*
X135410000Y-84855000D02*
X133830000Y-84855000D01*
X135410000Y-81785000D02*
X133830000Y-81785000D01*
X133830000Y-84855000D02*
X133830000Y-83720000D01*
%TO.C,R11*%
X139300000Y-95730000D02*
X138165000Y-95730000D01*
X141235000Y-95730000D02*
X140100000Y-95730000D01*
X139300000Y-97310000D02*
X138165000Y-97310000D01*
X141235000Y-95730000D02*
X141235000Y-97310000D01*
X138165000Y-95730000D02*
X138165000Y-97310000D01*
X141235000Y-97310000D02*
X140100000Y-97310000D01*
%TO.C,R10*%
X161318000Y-94858000D02*
X161318000Y-93723000D01*
X161318000Y-96793000D02*
X161318000Y-95658000D01*
X159738000Y-94858000D02*
X159738000Y-93723000D01*
X161318000Y-96793000D02*
X159738000Y-96793000D01*
X161318000Y-93723000D02*
X159738000Y-93723000D01*
X159738000Y-96793000D02*
X159738000Y-95658000D01*
%TO.C,R9*%
X131180000Y-93190000D02*
X130045000Y-93190000D01*
X133115000Y-93190000D02*
X131980000Y-93190000D01*
X131180000Y-94770000D02*
X130045000Y-94770000D01*
X133115000Y-93190000D02*
X133115000Y-94770000D01*
X130045000Y-93190000D02*
X130045000Y-94770000D01*
X133115000Y-94770000D02*
X131980000Y-94770000D01*
%TO.C,R8*%
X140070000Y-85570000D02*
X138935000Y-85570000D01*
X142005000Y-85570000D02*
X140870000Y-85570000D01*
X140070000Y-87150000D02*
X138935000Y-87150000D01*
X142005000Y-85570000D02*
X142005000Y-87150000D01*
X138935000Y-85570000D02*
X138935000Y-87150000D01*
X142005000Y-87150000D02*
X140870000Y-87150000D01*
%TO.C,R7*%
X167358000Y-96166000D02*
X167358000Y-97301000D01*
X167358000Y-94231000D02*
X167358000Y-95366000D01*
X168938000Y-96166000D02*
X168938000Y-97301000D01*
X167358000Y-94231000D02*
X168938000Y-94231000D01*
X167358000Y-97301000D02*
X168938000Y-97301000D01*
X168938000Y-94231000D02*
X168938000Y-95366000D01*
%TO.C,R6*%
X157000000Y-94850000D02*
X157000000Y-93715000D01*
X157000000Y-96785000D02*
X157000000Y-95650000D01*
X155420000Y-94850000D02*
X155420000Y-93715000D01*
X157000000Y-96785000D02*
X155420000Y-96785000D01*
X157000000Y-93715000D02*
X155420000Y-93715000D01*
X155420000Y-96785000D02*
X155420000Y-95650000D01*
%TO.C,R5*%
X138022000Y-83030000D02*
X136887000Y-83030000D01*
X139957000Y-83030000D02*
X138822000Y-83030000D01*
X138022000Y-84610000D02*
X136887000Y-84610000D01*
X139957000Y-83030000D02*
X139957000Y-84610000D01*
X136887000Y-83030000D02*
X136887000Y-84610000D01*
X139957000Y-84610000D02*
X138822000Y-84610000D01*
%TO.C,R4*%
X142132000Y-84610000D02*
X143267000Y-84610000D01*
X140197000Y-84610000D02*
X141332000Y-84610000D01*
X142132000Y-83030000D02*
X143267000Y-83030000D01*
X140197000Y-84610000D02*
X140197000Y-83030000D01*
X143267000Y-84610000D02*
X143267000Y-83030000D01*
X140197000Y-83030000D02*
X141332000Y-83030000D01*
%TO.C,R3*%
X141958000Y-76338000D02*
X141958000Y-77473000D01*
X141958000Y-74403000D02*
X141958000Y-75538000D01*
X143538000Y-76338000D02*
X143538000Y-77473000D01*
X141958000Y-74403000D02*
X143538000Y-74403000D01*
X141958000Y-77473000D02*
X143538000Y-77473000D01*
X143538000Y-74403000D02*
X143538000Y-75538000D01*
%TO.C,R2*%
X143292000Y-79110000D02*
X143292000Y-77975000D01*
X143292000Y-81045000D02*
X143292000Y-79910000D01*
X141712000Y-79110000D02*
X141712000Y-77975000D01*
X143292000Y-81045000D02*
X141712000Y-81045000D01*
X143292000Y-77975000D02*
X141712000Y-77975000D01*
X141712000Y-81045000D02*
X141712000Y-79910000D01*
%TO.C,R1*%
X143148000Y-64798000D02*
X144283000Y-64798000D01*
X141213000Y-64798000D02*
X142348000Y-64798000D01*
X143148000Y-63218000D02*
X144283000Y-63218000D01*
X141213000Y-64798000D02*
X141213000Y-63218000D01*
X144283000Y-64798000D02*
X144283000Y-63218000D01*
X141213000Y-63218000D02*
X142348000Y-63218000D01*
%TO.C,Q1*%
X143189000Y-97147000D02*
X143189000Y-95672000D01*
X146204000Y-95322000D02*
X143274000Y-95322000D01*
X146204000Y-91622000D02*
X146204000Y-95322000D01*
X143274000Y-91622000D02*
X146204000Y-91622000D01*
X143274000Y-95322000D02*
X143274000Y-91622000D01*
D12*
%TO.C,J5*%
X175160000Y-108760000D02*
X175160000Y-109260000D01*
X175160000Y-108760000D02*
X174660000Y-108760000D01*
X175160000Y-114760000D02*
X174660000Y-114760000D01*
X175160000Y-114760000D02*
X175160000Y-114260000D01*
X159960000Y-108760000D02*
X159960000Y-109260000D01*
X159960000Y-108760000D02*
X160460000Y-108760000D01*
X159960000Y-114760000D02*
X159960000Y-114260000D01*
X159960000Y-114760000D02*
X160460000Y-114760000D01*
D14*
%TO.C,J3*%
X125857000Y-78994000D02*
X125857000Y-78486000D01*
X125857000Y-81534000D02*
X125857000Y-81026000D01*
X125857000Y-84074000D02*
X125857000Y-83566000D01*
X125857000Y-86614000D02*
X125857000Y-86106000D01*
X125857000Y-89154000D02*
X125857000Y-88646000D01*
X125857000Y-76200000D02*
X125857000Y-76454000D01*
X125857000Y-76200000D02*
X126847600Y-76200000D01*
X126847600Y-76200000D02*
X127127000Y-76479400D01*
X125857000Y-76200000D02*
X124866400Y-76200000D01*
X124866400Y-76200000D02*
X124587000Y-76479400D01*
X125857000Y-91694000D02*
X125857000Y-91186000D01*
X125857000Y-94234000D02*
X125857000Y-93726000D01*
X125857000Y-96774000D02*
X125857000Y-96266000D01*
X125857000Y-99314000D02*
X125857000Y-98806000D01*
X125857000Y-101854000D02*
X125857000Y-101346000D01*
X125857000Y-104394000D02*
X125857000Y-103886000D01*
X125857000Y-106934000D02*
X125857000Y-106423460D01*
X125857000Y-109474000D02*
X125857000Y-108966000D01*
X125857000Y-112014000D02*
X125857000Y-111506000D01*
X125857000Y-114300000D02*
X124866400Y-114300000D01*
X124866400Y-114300000D02*
X124587000Y-114020600D01*
X125857000Y-114300000D02*
X126847600Y-114300000D01*
X126847600Y-114300000D02*
X127127000Y-114020600D01*
X125857000Y-114300000D02*
X125857000Y-114046000D01*
%TO.C,J2*%
X157703520Y-78074520D02*
X143708120Y-78074520D01*
X143708120Y-78074520D02*
X143708120Y-71876920D01*
X143708120Y-71876920D02*
X143708120Y-71076820D01*
X143708120Y-71076820D02*
X157703520Y-71076820D01*
X157703520Y-71076820D02*
X157703520Y-71876920D01*
X157703520Y-71876920D02*
X157703520Y-78074520D01*
X143708120Y-71876920D02*
X157703520Y-71876920D01*
D13*
%TO.C,IC2*%
X130745000Y-92375000D02*
X130745000Y-90850000D01*
%TO.C,IC1*%
X141300000Y-88340000D02*
X141300000Y-89540000D01*
X138250000Y-89890000D02*
X141150000Y-89890000D01*
X138250000Y-90490000D02*
X138250000Y-89890000D01*
X141150000Y-90490000D02*
X138250000Y-90490000D01*
X141150000Y-89890000D02*
X141150000Y-90490000D01*
D19*
%TO.C,FB1*%
X142032000Y-68280000D02*
X141432000Y-68280000D01*
X142032000Y-68880000D02*
X141432000Y-68880000D01*
D20*
%TO.C,D10*%
X136558020Y-111429800D02*
X137507980Y-111429800D01*
%TO.C,D9*%
X130208020Y-111188500D02*
X131157980Y-111188500D01*
%TO.C,D8*%
X133383020Y-111188500D02*
X134332980Y-111188500D01*
%TO.C,D7*%
X127076200Y-102074980D02*
X127076200Y-101125020D01*
%TO.C,D6*%
X141190980Y-114985800D02*
X140241020Y-114985800D01*
D14*
%TO.C,D5*%
X146695160Y-88945720D02*
X147944840Y-88945720D01*
D20*
X146695160Y-87899240D02*
X146695160Y-86202520D01*
X147944840Y-87899240D02*
X147944840Y-86202520D01*
%TO.C,D4*%
X129616200Y-80484980D02*
X129616200Y-79535020D01*
%TO.C,D3*%
X136207500Y-79535020D02*
X136207500Y-80484980D01*
D14*
%TO.C,D2*%
X136514840Y-76824840D02*
X136514840Y-75575160D01*
D20*
X135468360Y-76824840D02*
X133771640Y-76824840D01*
X135468360Y-75575160D02*
X133771640Y-75575160D01*
D12*
%TO.C,D1*%
X135560000Y-69996000D02*
X135560000Y-70146000D01*
X135560000Y-70146000D02*
X135810000Y-70396000D01*
X135810000Y-70396000D02*
X135860000Y-70396000D01*
X135860000Y-70396000D02*
X135860000Y-70596000D01*
X138760000Y-70096000D02*
X138760000Y-70396000D01*
X138760000Y-70396000D02*
X138560000Y-70396000D01*
X138560000Y-68796000D02*
X138760000Y-68796000D01*
X138760000Y-68796000D02*
X138760000Y-68996000D01*
X135560000Y-69096000D02*
X135560000Y-68796000D01*
X135560000Y-68796000D02*
X135760000Y-68796000D01*
D18*
%TO.C,C25*%
X176630000Y-88166000D02*
X175895000Y-88166000D01*
X178565000Y-86986000D02*
X178565000Y-87766000D01*
X176630000Y-86586000D02*
X175895000Y-86586000D01*
X178165000Y-86586000D02*
X177430000Y-86586000D01*
X178165000Y-88166000D02*
X177430000Y-88166000D01*
X175495000Y-87766000D02*
X175495000Y-86986000D01*
X175495000Y-86986000D02*
G75*
G02*
X175895000Y-86586000I400000J0D01*
G01*
X175895000Y-88166000D02*
G75*
G02*
X175495000Y-87766000I0J400000D01*
G01*
X178565000Y-87766000D02*
G75*
G02*
X178165000Y-88166000I-400000J0D01*
G01*
X178165000Y-86586000D02*
G75*
G02*
X178565000Y-86986000I0J-400000D01*
G01*
%TO.C,C24*%
X158468000Y-79094000D02*
X158468000Y-78359000D01*
X159648000Y-81029000D02*
X158868000Y-81029000D01*
X160048000Y-79094000D02*
X160048000Y-78359000D01*
X160048000Y-80629000D02*
X160048000Y-79894000D01*
X158468000Y-80629000D02*
X158468000Y-79894000D01*
X158868000Y-77959000D02*
X159648000Y-77959000D01*
X159648000Y-77959000D02*
G75*
G02*
X160048000Y-78359000I0J-400000D01*
G01*
X158468000Y-78359000D02*
G75*
G02*
X158868000Y-77959000I400000J0D01*
G01*
X158868000Y-81029000D02*
G75*
G02*
X158468000Y-80629000I0J400000D01*
G01*
X160048000Y-80629000D02*
G75*
G02*
X159648000Y-81029000I-400000J0D01*
G01*
%TO.C,C23*%
X160048000Y-83450000D02*
X160048000Y-84185000D01*
X158868000Y-81515000D02*
X159648000Y-81515000D01*
X158468000Y-83450000D02*
X158468000Y-84185000D01*
X158468000Y-81915000D02*
X158468000Y-82650000D01*
X160048000Y-81915000D02*
X160048000Y-82650000D01*
X159648000Y-84585000D02*
X158868000Y-84585000D01*
X158868000Y-84585000D02*
G75*
G02*
X158468000Y-84185000I0J400000D01*
G01*
X160048000Y-84185000D02*
G75*
G02*
X159648000Y-84585000I-400000J0D01*
G01*
X159648000Y-81515000D02*
G75*
G02*
X160048000Y-81915000I0J-400000D01*
G01*
X158468000Y-81915000D02*
G75*
G02*
X158868000Y-81515000I400000J0D01*
G01*
D13*
%TO.C,C22*%
X153943000Y-86388000D02*
X153943000Y-87308000D01*
X153943000Y-88208000D02*
X153943000Y-89128000D01*
X151873000Y-88208000D02*
X151873000Y-89128000D01*
X152273000Y-89528000D02*
X153543000Y-89528000D01*
X151873000Y-86388000D02*
X151873000Y-87308000D01*
X152273000Y-85988000D02*
X153543000Y-85988000D01*
X153543010Y-85988000D02*
G75*
G02*
X153943010Y-86388000I0J-400000D01*
G01*
X151873000Y-86388000D02*
G75*
G02*
X152273000Y-85988000I400000J0D01*
G01*
X152273000Y-89528000D02*
G75*
G02*
X151873000Y-89128000I0J400000D01*
G01*
X153943000Y-89128000D02*
G75*
G02*
X153543000Y-89528000I-400000J0D01*
G01*
%TO.C,C21*%
X151873000Y-84808000D02*
X151873000Y-83888000D01*
X151873000Y-82988000D02*
X151873000Y-82068000D01*
X153943000Y-82988000D02*
X153943000Y-82068000D01*
X153543000Y-81668000D02*
X152273000Y-81668000D01*
X153943000Y-84808000D02*
X153943000Y-83888000D01*
X153543000Y-85208000D02*
X152273000Y-85208000D01*
X152272990Y-85208000D02*
G75*
G02*
X151872990Y-84808000I0J400000D01*
G01*
X153943000Y-84808000D02*
G75*
G02*
X153543000Y-85208000I-400000J0D01*
G01*
X153543000Y-81668000D02*
G75*
G02*
X153943000Y-82068000I0J-400000D01*
G01*
X151873000Y-82068000D02*
G75*
G02*
X152273000Y-81668000I400000J0D01*
G01*
D18*
%TO.C,C20*%
X140100000Y-93190000D02*
X140835000Y-93190000D01*
X138165000Y-94370000D02*
X138165000Y-93590000D01*
X140100000Y-94770000D02*
X140835000Y-94770000D01*
X138565000Y-94770000D02*
X139300000Y-94770000D01*
X138565000Y-93190000D02*
X139300000Y-93190000D01*
X141235000Y-93590000D02*
X141235000Y-94370000D01*
X141235000Y-94370000D02*
G75*
G02*
X140835000Y-94770000I-400000J0D01*
G01*
X140835000Y-93190000D02*
G75*
G02*
X141235000Y-93590000I0J-400000D01*
G01*
X138165000Y-93590000D02*
G75*
G02*
X138565000Y-93190000I400000J0D01*
G01*
X138565000Y-94770000D02*
G75*
G02*
X138165000Y-94370000I0J400000D01*
G01*
%TO.C,C19*%
X134720000Y-94770000D02*
X133985000Y-94770000D01*
X136655000Y-93590000D02*
X136655000Y-94370000D01*
X134720000Y-93190000D02*
X133985000Y-93190000D01*
X136255000Y-93190000D02*
X135520000Y-93190000D01*
X136255000Y-94770000D02*
X135520000Y-94770000D01*
X133585000Y-94370000D02*
X133585000Y-93590000D01*
X133585000Y-93590000D02*
G75*
G02*
X133985000Y-93190000I400000J0D01*
G01*
X133985000Y-94770000D02*
G75*
G02*
X133585000Y-94370000I0J400000D01*
G01*
X136655000Y-94370000D02*
G75*
G02*
X136255000Y-94770000I-400000J0D01*
G01*
X136255000Y-93190000D02*
G75*
G02*
X136655000Y-93590000I0J-400000D01*
G01*
%TO.C,C18*%
X168938000Y-99214000D02*
X168938000Y-99949000D01*
X167758000Y-97279000D02*
X168538000Y-97279000D01*
X167358000Y-99214000D02*
X167358000Y-99949000D01*
X167358000Y-97679000D02*
X167358000Y-98414000D01*
X168938000Y-97679000D02*
X168938000Y-98414000D01*
X168538000Y-100349000D02*
X167758000Y-100349000D01*
X167758000Y-100349000D02*
G75*
G02*
X167358000Y-99949000I0J400000D01*
G01*
X168938000Y-99949000D02*
G75*
G02*
X168538000Y-100349000I-400000J0D01*
G01*
X168538000Y-97279000D02*
G75*
G02*
X168938000Y-97679000I0J-400000D01*
G01*
X167358000Y-97679000D02*
G75*
G02*
X167758000Y-97279000I400000J0D01*
G01*
D20*
%TO.C,C17*%
X166410640Y-105664000D02*
X166410640Y-106680000D01*
D18*
%TO.C,C16*%
X164454000Y-104930000D02*
X163719000Y-104930000D01*
X166389000Y-103750000D02*
X166389000Y-104530000D01*
X164454000Y-103350000D02*
X163719000Y-103350000D01*
X165989000Y-103350000D02*
X165254000Y-103350000D01*
X165989000Y-104930000D02*
X165254000Y-104930000D01*
X163319000Y-104530000D02*
X163319000Y-103750000D01*
X163319000Y-103750000D02*
G75*
G02*
X163719000Y-103350000I400000J0D01*
G01*
X163719000Y-104930000D02*
G75*
G02*
X163319000Y-104530000I0J400000D01*
G01*
X166389000Y-104530000D02*
G75*
G02*
X165989000Y-104930000I-400000J0D01*
G01*
X165989000Y-103350000D02*
G75*
G02*
X166389000Y-103750000I0J-400000D01*
G01*
%TO.C,C15*%
X134250000Y-100810000D02*
X134985000Y-100810000D01*
X132315000Y-101990000D02*
X132315000Y-101210000D01*
X134250000Y-102390000D02*
X134985000Y-102390000D01*
X132715000Y-102390000D02*
X133450000Y-102390000D01*
X132715000Y-100810000D02*
X133450000Y-100810000D01*
X135385000Y-101210000D02*
X135385000Y-101990000D01*
X135385000Y-101990000D02*
G75*
G02*
X134985000Y-102390000I-400000J0D01*
G01*
X134985000Y-100810000D02*
G75*
G02*
X135385000Y-101210000I0J-400000D01*
G01*
X132315000Y-101210000D02*
G75*
G02*
X132715000Y-100810000I400000J0D01*
G01*
X132715000Y-102390000D02*
G75*
G02*
X132315000Y-101990000I0J400000D01*
G01*
%TO.C,C14*%
X152880000Y-92310000D02*
X152880000Y-91575000D01*
X154060000Y-94245000D02*
X153280000Y-94245000D01*
X154460000Y-92310000D02*
X154460000Y-91575000D01*
X154460000Y-93845000D02*
X154460000Y-93110000D01*
X152880000Y-93845000D02*
X152880000Y-93110000D01*
X153280000Y-91175000D02*
X154060000Y-91175000D01*
X154060000Y-91175000D02*
G75*
G02*
X154460000Y-91575000I0J-400000D01*
G01*
X152880000Y-91575000D02*
G75*
G02*
X153280000Y-91175000I400000J0D01*
G01*
X153280000Y-94245000D02*
G75*
G02*
X152880000Y-93845000I0J400000D01*
G01*
X154460000Y-93845000D02*
G75*
G02*
X154060000Y-94245000I-400000J0D01*
G01*
%TO.C,C13*%
X134250000Y-98270000D02*
X134985000Y-98270000D01*
X132315000Y-99450000D02*
X132315000Y-98670000D01*
X134250000Y-99850000D02*
X134985000Y-99850000D01*
X132715000Y-99850000D02*
X133450000Y-99850000D01*
X132715000Y-98270000D02*
X133450000Y-98270000D01*
X135385000Y-98670000D02*
X135385000Y-99450000D01*
X135385000Y-99450000D02*
G75*
G02*
X134985000Y-99850000I-400000J0D01*
G01*
X134985000Y-98270000D02*
G75*
G02*
X135385000Y-98670000I0J-400000D01*
G01*
X132315000Y-98670000D02*
G75*
G02*
X132715000Y-98270000I400000J0D01*
G01*
X132715000Y-99850000D02*
G75*
G02*
X132315000Y-99450000I0J400000D01*
G01*
%TO.C,C12*%
X141070000Y-99850000D02*
X140335000Y-99850000D01*
X143005000Y-98670000D02*
X143005000Y-99450000D01*
X141070000Y-98270000D02*
X140335000Y-98270000D01*
X142605000Y-98270000D02*
X141870000Y-98270000D01*
X142605000Y-99850000D02*
X141870000Y-99850000D01*
X139935000Y-99450000D02*
X139935000Y-98670000D01*
X139935000Y-98670000D02*
G75*
G02*
X140335000Y-98270000I400000J0D01*
G01*
X140335000Y-99850000D02*
G75*
G02*
X139935000Y-99450000I0J400000D01*
G01*
X143005000Y-99450000D02*
G75*
G02*
X142605000Y-99850000I-400000J0D01*
G01*
X142605000Y-98270000D02*
G75*
G02*
X143005000Y-98670000I0J-400000D01*
G01*
%TO.C,C11*%
X141340000Y-102390000D02*
X140605000Y-102390000D01*
X143275000Y-101210000D02*
X143275000Y-101990000D01*
X141340000Y-100810000D02*
X140605000Y-100810000D01*
X142875000Y-100810000D02*
X142140000Y-100810000D01*
X142875000Y-102390000D02*
X142140000Y-102390000D01*
X140205000Y-101990000D02*
X140205000Y-101210000D01*
X140205000Y-101210000D02*
G75*
G02*
X140605000Y-100810000I400000J0D01*
G01*
X140605000Y-102390000D02*
G75*
G02*
X140205000Y-101990000I0J400000D01*
G01*
X143275000Y-101990000D02*
G75*
G02*
X142875000Y-102390000I-400000J0D01*
G01*
X142875000Y-100810000D02*
G75*
G02*
X143275000Y-101210000I0J-400000D01*
G01*
%TO.C,C10*%
X152610000Y-95620000D02*
X152610000Y-94885000D01*
X153790000Y-97555000D02*
X153010000Y-97555000D01*
X154190000Y-95620000D02*
X154190000Y-94885000D01*
X154190000Y-97155000D02*
X154190000Y-96420000D01*
X152610000Y-97155000D02*
X152610000Y-96420000D01*
X153010000Y-94485000D02*
X153790000Y-94485000D01*
X153790000Y-94485000D02*
G75*
G02*
X154190000Y-94885000I0J-400000D01*
G01*
X152610000Y-94885000D02*
G75*
G02*
X153010000Y-94485000I400000J0D01*
G01*
X153010000Y-97555000D02*
G75*
G02*
X152610000Y-97155000I0J400000D01*
G01*
X154190000Y-97155000D02*
G75*
G02*
X153790000Y-97555000I-400000J0D01*
G01*
%TO.C,C9*%
X134140000Y-105040000D02*
X134140000Y-105775000D01*
X132960000Y-103105000D02*
X133740000Y-103105000D01*
X132560000Y-105040000D02*
X132560000Y-105775000D01*
X132560000Y-103505000D02*
X132560000Y-104240000D01*
X134140000Y-103505000D02*
X134140000Y-104240000D01*
X133740000Y-106175000D02*
X132960000Y-106175000D01*
X132960000Y-106175000D02*
G75*
G02*
X132560000Y-105775000I0J400000D01*
G01*
X134140000Y-105775000D02*
G75*
G02*
X133740000Y-106175000I-400000J0D01*
G01*
X133740000Y-103105000D02*
G75*
G02*
X134140000Y-103505000I0J-400000D01*
G01*
X132560000Y-103505000D02*
G75*
G02*
X132960000Y-103105000I400000J0D01*
G01*
%TO.C,C8*%
X136680000Y-105040000D02*
X136680000Y-105775000D01*
X135500000Y-103105000D02*
X136280000Y-103105000D01*
X135100000Y-105040000D02*
X135100000Y-105775000D01*
X135100000Y-103505000D02*
X135100000Y-104240000D01*
X136680000Y-103505000D02*
X136680000Y-104240000D01*
X136280000Y-106175000D02*
X135500000Y-106175000D01*
X135500000Y-106175000D02*
G75*
G02*
X135100000Y-105775000I0J400000D01*
G01*
X136680000Y-105775000D02*
G75*
G02*
X136280000Y-106175000I-400000J0D01*
G01*
X136280000Y-103105000D02*
G75*
G02*
X136680000Y-103505000I0J-400000D01*
G01*
X135100000Y-103505000D02*
G75*
G02*
X135500000Y-103105000I400000J0D01*
G01*
D13*
%TO.C,C7*%
X136624000Y-74187000D02*
X135704000Y-74187000D01*
X134804000Y-74187000D02*
X133884000Y-74187000D01*
X134804000Y-72117000D02*
X133884000Y-72117000D01*
X133484000Y-72517000D02*
X133484000Y-73787000D01*
X136624000Y-72117000D02*
X135704000Y-72117000D01*
X137024000Y-72517000D02*
X137024000Y-73787000D01*
X137024000Y-73787010D02*
G75*
G02*
X136624000Y-74187010I-400000J0D01*
G01*
X136624000Y-72117000D02*
G75*
G02*
X137024000Y-72517000I0J-400000D01*
G01*
X133484000Y-72517000D02*
G75*
G02*
X133884000Y-72117000I400000J0D01*
G01*
X133884000Y-74187000D02*
G75*
G02*
X133484000Y-73787000I0J400000D01*
G01*
D18*
%TO.C,C5*%
X167502000Y-104930000D02*
X166767000Y-104930000D01*
X169437000Y-103750000D02*
X169437000Y-104530000D01*
X167502000Y-103350000D02*
X166767000Y-103350000D01*
X169037000Y-103350000D02*
X168302000Y-103350000D01*
X169037000Y-104930000D02*
X168302000Y-104930000D01*
X166367000Y-104530000D02*
X166367000Y-103750000D01*
X166367000Y-103750000D02*
G75*
G02*
X166767000Y-103350000I400000J0D01*
G01*
X166767000Y-104930000D02*
G75*
G02*
X166367000Y-104530000I0J400000D01*
G01*
X169437000Y-104530000D02*
G75*
G02*
X169037000Y-104930000I-400000J0D01*
G01*
X169037000Y-103350000D02*
G75*
G02*
X169437000Y-103750000I0J-400000D01*
G01*
%TO.C,C4*%
X168286000Y-105382000D02*
X169021000Y-105382000D01*
X166351000Y-106562000D02*
X166351000Y-105782000D01*
X168286000Y-106962000D02*
X169021000Y-106962000D01*
X166751000Y-106962000D02*
X167486000Y-106962000D01*
X166751000Y-105382000D02*
X167486000Y-105382000D01*
X169421000Y-105782000D02*
X169421000Y-106562000D01*
X169421000Y-106562000D02*
G75*
G02*
X169021000Y-106962000I-400000J0D01*
G01*
X169021000Y-105382000D02*
G75*
G02*
X169421000Y-105782000I0J-400000D01*
G01*
X166351000Y-105782000D02*
G75*
G02*
X166751000Y-105382000I400000J0D01*
G01*
X166751000Y-106962000D02*
G75*
G02*
X166351000Y-106562000I0J400000D01*
G01*
%TO.C,C3*%
X139418000Y-70458000D02*
X139418000Y-69723000D01*
X140598000Y-72393000D02*
X139818000Y-72393000D01*
X140998000Y-70458000D02*
X140998000Y-69723000D01*
X140998000Y-71993000D02*
X140998000Y-71258000D01*
X139418000Y-71993000D02*
X139418000Y-71258000D01*
X139818000Y-69323000D02*
X140598000Y-69323000D01*
X140598000Y-69323000D02*
G75*
G02*
X140998000Y-69723000I0J-400000D01*
G01*
X139418000Y-69723000D02*
G75*
G02*
X139818000Y-69323000I400000J0D01*
G01*
X139818000Y-72393000D02*
G75*
G02*
X139418000Y-71993000I0J400000D01*
G01*
X140998000Y-71993000D02*
G75*
G02*
X140598000Y-72393000I-400000J0D01*
G01*
%TO.C,C2*%
X141958000Y-70966000D02*
X141958000Y-70231000D01*
X143138000Y-72901000D02*
X142358000Y-72901000D01*
X143538000Y-70966000D02*
X143538000Y-70231000D01*
X143538000Y-72501000D02*
X143538000Y-71766000D01*
X141958000Y-72501000D02*
X141958000Y-71766000D01*
X142358000Y-69831000D02*
X143138000Y-69831000D01*
X143138000Y-69831000D02*
G75*
G02*
X143538000Y-70231000I0J-400000D01*
G01*
X141958000Y-70231000D02*
G75*
G02*
X142358000Y-69831000I400000J0D01*
G01*
X142358000Y-72901000D02*
G75*
G02*
X141958000Y-72501000I0J400000D01*
G01*
X143538000Y-72501000D02*
G75*
G02*
X143138000Y-72901000I-400000J0D01*
G01*
%TO.C,C1*%
X143148000Y-66266000D02*
X143883000Y-66266000D01*
X141213000Y-67446000D02*
X141213000Y-66666000D01*
X143148000Y-67846000D02*
X143883000Y-67846000D01*
X141613000Y-67846000D02*
X142348000Y-67846000D01*
X141613000Y-66266000D02*
X142348000Y-66266000D01*
X144283000Y-66666000D02*
X144283000Y-67446000D01*
X144283000Y-67446000D02*
G75*
G02*
X143883000Y-67846000I-400000J0D01*
G01*
X143883000Y-66266000D02*
G75*
G02*
X144283000Y-66666000I0J-400000D01*
G01*
X141213000Y-66666000D02*
G75*
G02*
X141613000Y-66266000I400000J0D01*
G01*
X141613000Y-67846000D02*
G75*
G02*
X141213000Y-67446000I0J400000D01*
G01*
%TO.C,L1*%
D21*
X168012533Y-92827323D02*
X167407771Y-92827323D01*
X167407771Y-91557323D01*
X169101104Y-92827323D02*
X168375390Y-92827323D01*
X168738247Y-92827323D02*
X168738247Y-91557323D01*
X168617295Y-91738752D01*
X168496342Y-91859704D01*
X168375390Y-91920180D01*
%TO.C,IC3*%
X153309523Y-109734761D02*
X152039523Y-109734761D01*
X153188571Y-108404285D02*
X153249047Y-108464761D01*
X153309523Y-108646190D01*
X153309523Y-108767142D01*
X153249047Y-108948571D01*
X153128095Y-109069523D01*
X153007142Y-109130000D01*
X152765238Y-109190476D01*
X152583809Y-109190476D01*
X152341904Y-109130000D01*
X152220952Y-109069523D01*
X152100000Y-108948571D01*
X152039523Y-108767142D01*
X152039523Y-108646190D01*
X152100000Y-108464761D01*
X152160476Y-108404285D01*
X152039523Y-107980952D02*
X152039523Y-107194761D01*
X152523333Y-107618095D01*
X152523333Y-107436666D01*
X152583809Y-107315714D01*
X152644285Y-107255238D01*
X152765238Y-107194761D01*
X153067619Y-107194761D01*
X153188571Y-107255238D01*
X153249047Y-107315714D01*
X153309523Y-107436666D01*
X153309523Y-107799523D01*
X153249047Y-107920476D01*
X153188571Y-107980952D01*
%TO.C,R15*%
D18*
X149853714Y-85829904D02*
X149587047Y-85448952D01*
X149396571Y-85829904D02*
X149396571Y-85029904D01*
X149701333Y-85029904D01*
X149777523Y-85068000D01*
X149815619Y-85106095D01*
X149853714Y-85182285D01*
X149853714Y-85296571D01*
X149815619Y-85372761D01*
X149777523Y-85410857D01*
X149701333Y-85448952D01*
X149396571Y-85448952D01*
X150615619Y-85829904D02*
X150158476Y-85829904D01*
X150387047Y-85829904D02*
X150387047Y-85029904D01*
X150310857Y-85144190D01*
X150234666Y-85220380D01*
X150158476Y-85258476D01*
X151339428Y-85029904D02*
X150958476Y-85029904D01*
X150920380Y-85410857D01*
X150958476Y-85372761D01*
X151034666Y-85334666D01*
X151225142Y-85334666D01*
X151301333Y-85372761D01*
X151339428Y-85410857D01*
X151377523Y-85487047D01*
X151377523Y-85677523D01*
X151339428Y-85753714D01*
X151301333Y-85791809D01*
X151225142Y-85829904D01*
X151034666Y-85829904D01*
X150958476Y-85791809D01*
X150920380Y-85753714D01*
%TO.C,C6*%
X139134866Y-75647514D02*
X139096771Y-75685609D01*
X138982485Y-75723704D01*
X138906295Y-75723704D01*
X138792009Y-75685609D01*
X138715819Y-75609419D01*
X138677723Y-75533228D01*
X138639628Y-75380847D01*
X138639628Y-75266561D01*
X138677723Y-75114180D01*
X138715819Y-75037990D01*
X138792009Y-74961800D01*
X138906295Y-74923704D01*
X138982485Y-74923704D01*
X139096771Y-74961800D01*
X139134866Y-74999895D01*
X139820580Y-74923704D02*
X139668200Y-74923704D01*
X139592009Y-74961800D01*
X139553914Y-74999895D01*
X139477723Y-75114180D01*
X139439628Y-75266561D01*
X139439628Y-75571323D01*
X139477723Y-75647514D01*
X139515819Y-75685609D01*
X139592009Y-75723704D01*
X139744390Y-75723704D01*
X139820580Y-75685609D01*
X139858676Y-75647514D01*
X139896771Y-75571323D01*
X139896771Y-75380847D01*
X139858676Y-75304657D01*
X139820580Y-75266561D01*
X139744390Y-75228466D01*
X139592009Y-75228466D01*
X139515819Y-75266561D01*
X139477723Y-75304657D01*
X139439628Y-75380847D01*
%TO.C,J4*%
D20*
X181635400Y-114728171D02*
X181635400Y-115163600D01*
X181606371Y-115250685D01*
X181548314Y-115308742D01*
X181461228Y-115337771D01*
X181403171Y-115337771D01*
X182186942Y-114931371D02*
X182186942Y-115337771D01*
X182041800Y-114699142D02*
X181896657Y-115134571D01*
X182274028Y-115134571D01*
%TO.C,J1*%
X132016533Y-67379904D02*
X132016533Y-67951333D01*
X131978438Y-68065619D01*
X131902247Y-68141809D01*
X131787961Y-68179904D01*
X131711771Y-68179904D01*
X132816533Y-68179904D02*
X132359390Y-68179904D01*
X132587961Y-68179904D02*
X132587961Y-67379904D01*
X132511771Y-67494190D01*
X132435580Y-67570380D01*
X132359390Y-67608476D01*
%TO.C,U10*%
D18*
X123577504Y-68794380D02*
X123577504Y-69603904D01*
X123625123Y-69699142D01*
X123672742Y-69746761D01*
X123767980Y-69794380D01*
X123958457Y-69794380D01*
X124053695Y-69746761D01*
X124101314Y-69699142D01*
X124148933Y-69603904D01*
X124148933Y-68794380D01*
X125148933Y-69794380D02*
X124577504Y-69794380D01*
X124863219Y-69794380D02*
X124863219Y-68794380D01*
X124767980Y-68937238D01*
X124672742Y-69032476D01*
X124577504Y-69080095D01*
X125767980Y-68794380D02*
X125863219Y-68794380D01*
X125958457Y-68842000D01*
X126006076Y-68889619D01*
X126053695Y-68984857D01*
X126101314Y-69175333D01*
X126101314Y-69413428D01*
X126053695Y-69603904D01*
X126006076Y-69699142D01*
X125958457Y-69746761D01*
X125863219Y-69794380D01*
X125767980Y-69794380D01*
X125672742Y-69746761D01*
X125625123Y-69699142D01*
X125577504Y-69603904D01*
X125529885Y-69413428D01*
X125529885Y-69175333D01*
X125577504Y-68984857D01*
X125625123Y-68889619D01*
X125672742Y-68842000D01*
X125767980Y-68794380D01*
X129093980Y-68808600D02*
X129332076Y-68808600D01*
X129236838Y-69046695D02*
X129332076Y-68808600D01*
X129236838Y-68570504D01*
X129522552Y-68951457D02*
X129332076Y-68808600D01*
X129522552Y-68665742D01*
X129093980Y-68808600D02*
X129332076Y-68808600D01*
X129236838Y-69046695D02*
X129332076Y-68808600D01*
X129236838Y-68570504D01*
X129522552Y-68951457D02*
X129332076Y-68808600D01*
X129522552Y-68665742D01*
%TO.C,U9*%
X142748095Y-106912380D02*
X142748095Y-107721904D01*
X142795714Y-107817142D01*
X142843333Y-107864761D01*
X142938571Y-107912380D01*
X143129047Y-107912380D01*
X143224285Y-107864761D01*
X143271904Y-107817142D01*
X143319523Y-107721904D01*
X143319523Y-106912380D01*
X143843333Y-107912380D02*
X144033809Y-107912380D01*
X144129047Y-107864761D01*
X144176666Y-107817142D01*
X144271904Y-107674285D01*
X144319523Y-107483809D01*
X144319523Y-107102857D01*
X144271904Y-107007619D01*
X144224285Y-106960000D01*
X144129047Y-106912380D01*
X143938571Y-106912380D01*
X143843333Y-106960000D01*
X143795714Y-107007619D01*
X143748095Y-107102857D01*
X143748095Y-107340952D01*
X143795714Y-107436190D01*
X143843333Y-107483809D01*
X143938571Y-107531428D01*
X144129047Y-107531428D01*
X144224285Y-107483809D01*
X144271904Y-107436190D01*
X144319523Y-107340952D01*
%TO.C,U8*%
X171831095Y-87031580D02*
X171831095Y-87841104D01*
X171878714Y-87936342D01*
X171926333Y-87983961D01*
X172021571Y-88031580D01*
X172212047Y-88031580D01*
X172307285Y-87983961D01*
X172354904Y-87936342D01*
X172402523Y-87841104D01*
X172402523Y-87031580D01*
X173021571Y-87460152D02*
X172926333Y-87412533D01*
X172878714Y-87364914D01*
X172831095Y-87269676D01*
X172831095Y-87222057D01*
X172878714Y-87126819D01*
X172926333Y-87079200D01*
X173021571Y-87031580D01*
X173212047Y-87031580D01*
X173307285Y-87079200D01*
X173354904Y-87126819D01*
X173402523Y-87222057D01*
X173402523Y-87269676D01*
X173354904Y-87364914D01*
X173307285Y-87412533D01*
X173212047Y-87460152D01*
X173021571Y-87460152D01*
X172926333Y-87507771D01*
X172878714Y-87555390D01*
X172831095Y-87650628D01*
X172831095Y-87841104D01*
X172878714Y-87936342D01*
X172926333Y-87983961D01*
X173021571Y-88031580D01*
X173212047Y-88031580D01*
X173307285Y-87983961D01*
X173354904Y-87936342D01*
X173402523Y-87841104D01*
X173402523Y-87650628D01*
X173354904Y-87555390D01*
X173307285Y-87507771D01*
X173212047Y-87460152D01*
%TO.C,U7*%
X145970380Y-83649904D02*
X146779904Y-83649904D01*
X146875142Y-83602285D01*
X146922761Y-83554666D01*
X146970380Y-83459428D01*
X146970380Y-83268952D01*
X146922761Y-83173714D01*
X146875142Y-83126095D01*
X146779904Y-83078476D01*
X145970380Y-83078476D01*
X145970380Y-82697523D02*
X145970380Y-82030857D01*
X146970380Y-82459428D01*
%TO.C,U6*%
X163830095Y-101940380D02*
X163830095Y-102749904D01*
X163877714Y-102845142D01*
X163925333Y-102892761D01*
X164020571Y-102940380D01*
X164211047Y-102940380D01*
X164306285Y-102892761D01*
X164353904Y-102845142D01*
X164401523Y-102749904D01*
X164401523Y-101940380D01*
X165306285Y-101940380D02*
X165115809Y-101940380D01*
X165020571Y-101988000D01*
X164972952Y-102035619D01*
X164877714Y-102178476D01*
X164830095Y-102368952D01*
X164830095Y-102749904D01*
X164877714Y-102845142D01*
X164925333Y-102892761D01*
X165020571Y-102940380D01*
X165211047Y-102940380D01*
X165306285Y-102892761D01*
X165353904Y-102845142D01*
X165401523Y-102749904D01*
X165401523Y-102511809D01*
X165353904Y-102416571D01*
X165306285Y-102368952D01*
X165211047Y-102321333D01*
X165020571Y-102321333D01*
X164925333Y-102368952D01*
X164877714Y-102416571D01*
X164830095Y-102511809D01*
%TO.C,U5*%
X149021895Y-97343980D02*
X149021895Y-98153504D01*
X149069514Y-98248742D01*
X149117133Y-98296361D01*
X149212371Y-98343980D01*
X149402847Y-98343980D01*
X149498085Y-98296361D01*
X149545704Y-98248742D01*
X149593323Y-98153504D01*
X149593323Y-97343980D01*
X150545704Y-97343980D02*
X150069514Y-97343980D01*
X150021895Y-97820171D01*
X150069514Y-97772552D01*
X150164752Y-97724933D01*
X150402847Y-97724933D01*
X150498085Y-97772552D01*
X150545704Y-97820171D01*
X150593323Y-97915409D01*
X150593323Y-98153504D01*
X150545704Y-98248742D01*
X150498085Y-98296361D01*
X150402847Y-98343980D01*
X150164752Y-98343980D01*
X150069514Y-98296361D01*
X150021895Y-98248742D01*
%TO.C,U4*%
D10*
X137337847Y-98024190D02*
X137337847Y-98428952D01*
X137361657Y-98476571D01*
X137385466Y-98500380D01*
X137433085Y-98524190D01*
X137528323Y-98524190D01*
X137575942Y-98500380D01*
X137599752Y-98476571D01*
X137623561Y-98428952D01*
X137623561Y-98024190D01*
X138075942Y-98190857D02*
X138075942Y-98524190D01*
X137956895Y-98000380D02*
X137837847Y-98357523D01*
X138147371Y-98357523D01*
%TO.C,U3*%
D18*
X138836495Y-106665780D02*
X138836495Y-107475304D01*
X138884114Y-107570542D01*
X138931733Y-107618161D01*
X139026971Y-107665780D01*
X139217447Y-107665780D01*
X139312685Y-107618161D01*
X139360304Y-107570542D01*
X139407923Y-107475304D01*
X139407923Y-106665780D01*
X139788876Y-106665780D02*
X140407923Y-106665780D01*
X140074590Y-107046733D01*
X140217447Y-107046733D01*
X140312685Y-107094352D01*
X140360304Y-107141971D01*
X140407923Y-107237209D01*
X140407923Y-107475304D01*
X140360304Y-107570542D01*
X140312685Y-107618161D01*
X140217447Y-107665780D01*
X139931733Y-107665780D01*
X139836495Y-107618161D01*
X139788876Y-107570542D01*
%TO.C,U2*%
X135520180Y-78968504D02*
X136329704Y-78968504D01*
X136424942Y-78920885D01*
X136472561Y-78873266D01*
X136520180Y-78778028D01*
X136520180Y-78587552D01*
X136472561Y-78492314D01*
X136424942Y-78444695D01*
X136329704Y-78397076D01*
X135520180Y-78397076D01*
X135615419Y-77968504D02*
X135567800Y-77920885D01*
X135520180Y-77825647D01*
X135520180Y-77587552D01*
X135567800Y-77492314D01*
X135615419Y-77444695D01*
X135710657Y-77397076D01*
X135805895Y-77397076D01*
X135948752Y-77444695D01*
X136520180Y-78016123D01*
X136520180Y-77397076D01*
X141681200Y-79692380D02*
X141681200Y-79930476D01*
X141443104Y-79835238D02*
X141681200Y-79930476D01*
X141919295Y-79835238D01*
X141538342Y-80120952D02*
X141681200Y-79930476D01*
X141824057Y-80120952D01*
X141681200Y-79692380D02*
X141681200Y-79930476D01*
X141443104Y-79835238D02*
X141681200Y-79930476D01*
X141919295Y-79835238D01*
X141538342Y-80120952D02*
X141681200Y-79930476D01*
X141824057Y-80120952D01*
%TO.C,U1*%
D10*
X145237247Y-97744790D02*
X145237247Y-98149552D01*
X145261057Y-98197171D01*
X145284866Y-98220980D01*
X145332485Y-98244790D01*
X145427723Y-98244790D01*
X145475342Y-98220980D01*
X145499152Y-98197171D01*
X145522961Y-98149552D01*
X145522961Y-97744790D01*
X146022961Y-98244790D02*
X145737247Y-98244790D01*
X145880104Y-98244790D02*
X145880104Y-97744790D01*
X145832485Y-97816219D01*
X145784866Y-97863838D01*
X145737247Y-97887647D01*
D18*
X143992600Y-98282381D02*
X143992600Y-98520477D01*
X143754504Y-98425239D02*
X143992600Y-98520477D01*
X144230695Y-98425239D01*
X143849742Y-98710953D02*
X143992600Y-98520477D01*
X144135457Y-98710953D01*
X143992600Y-98282381D02*
X143992600Y-98520477D01*
X143754504Y-98425239D02*
X143992600Y-98520477D01*
X144230695Y-98425239D01*
X143849742Y-98710953D02*
X143992600Y-98520477D01*
X144135457Y-98710953D01*
%TO.C,S1*%
X176606295Y-110412161D02*
X176749152Y-110459780D01*
X176987247Y-110459780D01*
X177082485Y-110412161D01*
X177130104Y-110364542D01*
X177177723Y-110269304D01*
X177177723Y-110174066D01*
X177130104Y-110078828D01*
X177082485Y-110031209D01*
X176987247Y-109983590D01*
X176796771Y-109935971D01*
X176701533Y-109888352D01*
X176653914Y-109840733D01*
X176606295Y-109745495D01*
X176606295Y-109650257D01*
X176653914Y-109555019D01*
X176701533Y-109507400D01*
X176796771Y-109459780D01*
X177034866Y-109459780D01*
X177177723Y-109507400D01*
X178130104Y-110459780D02*
X177558676Y-110459780D01*
X177844390Y-110459780D02*
X177844390Y-109459780D01*
X177749152Y-109602638D01*
X177653914Y-109697876D01*
X177558676Y-109745495D01*
%TO.C,R28*%
X135994904Y-109226285D02*
X135613952Y-109492952D01*
X135994904Y-109683428D02*
X135194904Y-109683428D01*
X135194904Y-109378666D01*
X135233000Y-109302476D01*
X135271095Y-109264380D01*
X135347285Y-109226285D01*
X135461571Y-109226285D01*
X135537761Y-109264380D01*
X135575857Y-109302476D01*
X135613952Y-109378666D01*
X135613952Y-109683428D01*
X135271095Y-108921523D02*
X135233000Y-108883428D01*
X135194904Y-108807238D01*
X135194904Y-108616761D01*
X135233000Y-108540571D01*
X135271095Y-108502476D01*
X135347285Y-108464380D01*
X135423476Y-108464380D01*
X135537761Y-108502476D01*
X135994904Y-108959619D01*
X135994904Y-108464380D01*
X135537761Y-108007238D02*
X135499666Y-108083428D01*
X135461571Y-108121523D01*
X135385380Y-108159619D01*
X135347285Y-108159619D01*
X135271095Y-108121523D01*
X135233000Y-108083428D01*
X135194904Y-108007238D01*
X135194904Y-107854857D01*
X135233000Y-107778666D01*
X135271095Y-107740571D01*
X135347285Y-107702476D01*
X135385380Y-107702476D01*
X135461571Y-107740571D01*
X135499666Y-107778666D01*
X135537761Y-107854857D01*
X135537761Y-108007238D01*
X135575857Y-108083428D01*
X135613952Y-108121523D01*
X135690142Y-108159619D01*
X135842523Y-108159619D01*
X135918714Y-108121523D01*
X135956809Y-108083428D01*
X135994904Y-108007238D01*
X135994904Y-107854857D01*
X135956809Y-107778666D01*
X135918714Y-107740571D01*
X135842523Y-107702476D01*
X135690142Y-107702476D01*
X135613952Y-107740571D01*
X135575857Y-107778666D01*
X135537761Y-107854857D01*
%TO.C,R27*%
X132819904Y-109226285D02*
X132438952Y-109492952D01*
X132819904Y-109683428D02*
X132019904Y-109683428D01*
X132019904Y-109378666D01*
X132058000Y-109302476D01*
X132096095Y-109264380D01*
X132172285Y-109226285D01*
X132286571Y-109226285D01*
X132362761Y-109264380D01*
X132400857Y-109302476D01*
X132438952Y-109378666D01*
X132438952Y-109683428D01*
X132096095Y-108921523D02*
X132058000Y-108883428D01*
X132019904Y-108807238D01*
X132019904Y-108616761D01*
X132058000Y-108540571D01*
X132096095Y-108502476D01*
X132172285Y-108464380D01*
X132248476Y-108464380D01*
X132362761Y-108502476D01*
X132819904Y-108959619D01*
X132819904Y-108464380D01*
X132019904Y-108197714D02*
X132019904Y-107664380D01*
X132819904Y-108007238D01*
%TO.C,R26*%
X129644904Y-109226285D02*
X129263952Y-109492952D01*
X129644904Y-109683428D02*
X128844904Y-109683428D01*
X128844904Y-109378666D01*
X128883000Y-109302476D01*
X128921095Y-109264380D01*
X128997285Y-109226285D01*
X129111571Y-109226285D01*
X129187761Y-109264380D01*
X129225857Y-109302476D01*
X129263952Y-109378666D01*
X129263952Y-109683428D01*
X128921095Y-108921523D02*
X128883000Y-108883428D01*
X128844904Y-108807238D01*
X128844904Y-108616761D01*
X128883000Y-108540571D01*
X128921095Y-108502476D01*
X128997285Y-108464380D01*
X129073476Y-108464380D01*
X129187761Y-108502476D01*
X129644904Y-108959619D01*
X129644904Y-108464380D01*
X128844904Y-107778666D02*
X128844904Y-107931047D01*
X128883000Y-108007238D01*
X128921095Y-108045333D01*
X129035380Y-108121523D01*
X129187761Y-108159619D01*
X129492523Y-108159619D01*
X129568714Y-108121523D01*
X129606809Y-108083428D01*
X129644904Y-108007238D01*
X129644904Y-107854857D01*
X129606809Y-107778666D01*
X129568714Y-107740571D01*
X129492523Y-107702476D01*
X129302047Y-107702476D01*
X129225857Y-107740571D01*
X129187761Y-107778666D01*
X129149666Y-107854857D01*
X129149666Y-108007238D01*
X129187761Y-108083428D01*
X129225857Y-108121523D01*
X129302047Y-108159619D01*
%TO.C,R25*%
X142725904Y-110504285D02*
X142344952Y-110770952D01*
X142725904Y-110961428D02*
X141925904Y-110961428D01*
X141925904Y-110656666D01*
X141964000Y-110580476D01*
X142002095Y-110542380D01*
X142078285Y-110504285D01*
X142192571Y-110504285D01*
X142268761Y-110542380D01*
X142306857Y-110580476D01*
X142344952Y-110656666D01*
X142344952Y-110961428D01*
X142002095Y-110199523D02*
X141964000Y-110161428D01*
X141925904Y-110085238D01*
X141925904Y-109894761D01*
X141964000Y-109818571D01*
X142002095Y-109780476D01*
X142078285Y-109742380D01*
X142154476Y-109742380D01*
X142268761Y-109780476D01*
X142725904Y-110237619D01*
X142725904Y-109742380D01*
X141925904Y-109018571D02*
X141925904Y-109399523D01*
X142306857Y-109437619D01*
X142268761Y-109399523D01*
X142230666Y-109323333D01*
X142230666Y-109132857D01*
X142268761Y-109056666D01*
X142306857Y-109018571D01*
X142383047Y-108980476D01*
X142573523Y-108980476D01*
X142649714Y-109018571D01*
X142687809Y-109056666D01*
X142725904Y-109132857D01*
X142725904Y-109323333D01*
X142687809Y-109399523D01*
X142649714Y-109437619D01*
%TO.C,R24*%
X145525904Y-114060285D02*
X145144952Y-114326952D01*
X145525904Y-114517428D02*
X144725904Y-114517428D01*
X144725904Y-114212666D01*
X144764000Y-114136476D01*
X144802095Y-114098380D01*
X144878285Y-114060285D01*
X144992571Y-114060285D01*
X145068761Y-114098380D01*
X145106857Y-114136476D01*
X145144952Y-114212666D01*
X145144952Y-114517428D01*
X144802095Y-113755523D02*
X144764000Y-113717428D01*
X144725904Y-113641238D01*
X144725904Y-113450761D01*
X144764000Y-113374571D01*
X144802095Y-113336476D01*
X144878285Y-113298380D01*
X144954476Y-113298380D01*
X145068761Y-113336476D01*
X145525904Y-113793619D01*
X145525904Y-113298380D01*
X144992571Y-112612666D02*
X145525904Y-112612666D01*
X144687809Y-112803142D02*
X145259238Y-112993619D01*
X145259238Y-112498380D01*
%TO.C,R23*%
X172205714Y-116185904D02*
X171939047Y-115804952D01*
X171748571Y-116185904D02*
X171748571Y-115385904D01*
X172053333Y-115385904D01*
X172129523Y-115424000D01*
X172167619Y-115462095D01*
X172205714Y-115538285D01*
X172205714Y-115652571D01*
X172167619Y-115728761D01*
X172129523Y-115766857D01*
X172053333Y-115804952D01*
X171748571Y-115804952D01*
X172510476Y-115462095D02*
X172548571Y-115424000D01*
X172624761Y-115385904D01*
X172815238Y-115385904D01*
X172891428Y-115424000D01*
X172929523Y-115462095D01*
X172967619Y-115538285D01*
X172967619Y-115614476D01*
X172929523Y-115728761D01*
X172472380Y-116185904D01*
X172967619Y-116185904D01*
X173234285Y-115385904D02*
X173729523Y-115385904D01*
X173462857Y-115690666D01*
X173577142Y-115690666D01*
X173653333Y-115728761D01*
X173691428Y-115766857D01*
X173729523Y-115843047D01*
X173729523Y-116033523D01*
X173691428Y-116109714D01*
X173653333Y-116147809D01*
X173577142Y-116185904D01*
X173348571Y-116185904D01*
X173272380Y-116147809D01*
X173234285Y-116109714D01*
%TO.C,R22*%
X162680714Y-115931904D02*
X162414047Y-115550952D01*
X162223571Y-115931904D02*
X162223571Y-115131904D01*
X162528333Y-115131904D01*
X162604523Y-115170000D01*
X162642619Y-115208095D01*
X162680714Y-115284285D01*
X162680714Y-115398571D01*
X162642619Y-115474761D01*
X162604523Y-115512857D01*
X162528333Y-115550952D01*
X162223571Y-115550952D01*
X162985476Y-115208095D02*
X163023571Y-115170000D01*
X163099761Y-115131904D01*
X163290238Y-115131904D01*
X163366428Y-115170000D01*
X163404523Y-115208095D01*
X163442619Y-115284285D01*
X163442619Y-115360476D01*
X163404523Y-115474761D01*
X162947380Y-115931904D01*
X163442619Y-115931904D01*
X163747380Y-115208095D02*
X163785476Y-115170000D01*
X163861666Y-115131904D01*
X164052142Y-115131904D01*
X164128333Y-115170000D01*
X164166428Y-115208095D01*
X164204523Y-115284285D01*
X164204523Y-115360476D01*
X164166428Y-115474761D01*
X163709285Y-115931904D01*
X164204523Y-115931904D01*
%TO.C,R21*%
X128255714Y-105901904D02*
X127989047Y-105520952D01*
X127798571Y-105901904D02*
X127798571Y-105101904D01*
X128103333Y-105101904D01*
X128179523Y-105140000D01*
X128217619Y-105178095D01*
X128255714Y-105254285D01*
X128255714Y-105368571D01*
X128217619Y-105444761D01*
X128179523Y-105482857D01*
X128103333Y-105520952D01*
X127798571Y-105520952D01*
X128560476Y-105178095D02*
X128598571Y-105140000D01*
X128674761Y-105101904D01*
X128865238Y-105101904D01*
X128941428Y-105140000D01*
X128979523Y-105178095D01*
X129017619Y-105254285D01*
X129017619Y-105330476D01*
X128979523Y-105444761D01*
X128522380Y-105901904D01*
X129017619Y-105901904D01*
X129779523Y-105901904D02*
X129322380Y-105901904D01*
X129550952Y-105901904D02*
X129550952Y-105101904D01*
X129474761Y-105216190D01*
X129398571Y-105292380D01*
X129322380Y-105330476D01*
%TO.C,R20*%
D10*
X178646971Y-77772390D02*
X178480304Y-77534295D01*
X178361257Y-77772390D02*
X178361257Y-77272390D01*
X178551733Y-77272390D01*
X178599352Y-77296200D01*
X178623161Y-77320009D01*
X178646971Y-77367628D01*
X178646971Y-77439057D01*
X178623161Y-77486676D01*
X178599352Y-77510485D01*
X178551733Y-77534295D01*
X178361257Y-77534295D01*
X178837447Y-77320009D02*
X178861257Y-77296200D01*
X178908876Y-77272390D01*
X179027923Y-77272390D01*
X179075542Y-77296200D01*
X179099352Y-77320009D01*
X179123161Y-77367628D01*
X179123161Y-77415247D01*
X179099352Y-77486676D01*
X178813638Y-77772390D01*
X179123161Y-77772390D01*
X179432685Y-77272390D02*
X179480304Y-77272390D01*
X179527923Y-77296200D01*
X179551733Y-77320009D01*
X179575542Y-77367628D01*
X179599352Y-77462866D01*
X179599352Y-77581914D01*
X179575542Y-77677152D01*
X179551733Y-77724771D01*
X179527923Y-77748580D01*
X179480304Y-77772390D01*
X179432685Y-77772390D01*
X179385066Y-77748580D01*
X179361257Y-77724771D01*
X179337447Y-77677152D01*
X179313638Y-77581914D01*
X179313638Y-77462866D01*
X179337447Y-77367628D01*
X179361257Y-77320009D01*
X179385066Y-77296200D01*
X179432685Y-77272390D01*
%TO.C,R19*%
X178773971Y-85417790D02*
X178607304Y-85179695D01*
X178488257Y-85417790D02*
X178488257Y-84917790D01*
X178678733Y-84917790D01*
X178726352Y-84941600D01*
X178750161Y-84965409D01*
X178773971Y-85013028D01*
X178773971Y-85084457D01*
X178750161Y-85132076D01*
X178726352Y-85155885D01*
X178678733Y-85179695D01*
X178488257Y-85179695D01*
X179250161Y-85417790D02*
X178964447Y-85417790D01*
X179107304Y-85417790D02*
X179107304Y-84917790D01*
X179059685Y-84989219D01*
X179012066Y-85036838D01*
X178964447Y-85060647D01*
X179488257Y-85417790D02*
X179583495Y-85417790D01*
X179631114Y-85393980D01*
X179654923Y-85370171D01*
X179702542Y-85298742D01*
X179726352Y-85203504D01*
X179726352Y-85013028D01*
X179702542Y-84965409D01*
X179678733Y-84941600D01*
X179631114Y-84917790D01*
X179535876Y-84917790D01*
X179488257Y-84941600D01*
X179464447Y-84965409D01*
X179440638Y-85013028D01*
X179440638Y-85132076D01*
X179464447Y-85179695D01*
X179488257Y-85203504D01*
X179535876Y-85227314D01*
X179631114Y-85227314D01*
X179678733Y-85203504D01*
X179702542Y-85179695D01*
X179726352Y-85132076D01*
%TO.C,R18*%
D18*
X139677904Y-110496285D02*
X139296952Y-110762952D01*
X139677904Y-110953428D02*
X138877904Y-110953428D01*
X138877904Y-110648666D01*
X138916000Y-110572476D01*
X138954095Y-110534380D01*
X139030285Y-110496285D01*
X139144571Y-110496285D01*
X139220761Y-110534380D01*
X139258857Y-110572476D01*
X139296952Y-110648666D01*
X139296952Y-110953428D01*
X139677904Y-109734380D02*
X139677904Y-110191523D01*
X139677904Y-109962952D02*
X138877904Y-109962952D01*
X138992190Y-110039142D01*
X139068380Y-110115333D01*
X139106476Y-110191523D01*
X139220761Y-109277238D02*
X139182666Y-109353428D01*
X139144571Y-109391523D01*
X139068380Y-109429619D01*
X139030285Y-109429619D01*
X138954095Y-109391523D01*
X138916000Y-109353428D01*
X138877904Y-109277238D01*
X138877904Y-109124857D01*
X138916000Y-109048666D01*
X138954095Y-109010571D01*
X139030285Y-108972476D01*
X139068380Y-108972476D01*
X139144571Y-109010571D01*
X139182666Y-109048666D01*
X139220761Y-109124857D01*
X139220761Y-109277238D01*
X139258857Y-109353428D01*
X139296952Y-109391523D01*
X139373142Y-109429619D01*
X139525523Y-109429619D01*
X139601714Y-109391523D01*
X139639809Y-109353428D01*
X139677904Y-109277238D01*
X139677904Y-109124857D01*
X139639809Y-109048666D01*
X139601714Y-109010571D01*
X139525523Y-108972476D01*
X139373142Y-108972476D01*
X139296952Y-109010571D01*
X139258857Y-109048666D01*
X139220761Y-109124857D01*
%TO.C,R17*%
D10*
X158682571Y-70025390D02*
X158515904Y-69787295D01*
X158396857Y-70025390D02*
X158396857Y-69525390D01*
X158587333Y-69525390D01*
X158634952Y-69549200D01*
X158658761Y-69573009D01*
X158682571Y-69620628D01*
X158682571Y-69692057D01*
X158658761Y-69739676D01*
X158634952Y-69763485D01*
X158587333Y-69787295D01*
X158396857Y-69787295D01*
X159158761Y-70025390D02*
X158873047Y-70025390D01*
X159015904Y-70025390D02*
X159015904Y-69525390D01*
X158968285Y-69596819D01*
X158920666Y-69644438D01*
X158873047Y-69668247D01*
X159325428Y-69525390D02*
X159658761Y-69525390D01*
X159444476Y-70025390D01*
%TO.C,R16*%
D22*
X158900828Y-73902876D02*
X158834161Y-73807638D01*
X158786542Y-73902876D02*
X158786542Y-73702876D01*
X158862733Y-73702876D01*
X158881780Y-73712400D01*
X158891304Y-73721923D01*
X158900828Y-73740971D01*
X158900828Y-73769542D01*
X158891304Y-73788590D01*
X158881780Y-73798114D01*
X158862733Y-73807638D01*
X158786542Y-73807638D01*
X159091304Y-73902876D02*
X158977019Y-73902876D01*
X159034161Y-73902876D02*
X159034161Y-73702876D01*
X159015114Y-73731447D01*
X158996066Y-73750495D01*
X158977019Y-73760019D01*
X159262733Y-73702876D02*
X159224638Y-73702876D01*
X159205590Y-73712400D01*
X159196066Y-73721923D01*
X159177019Y-73750495D01*
X159167495Y-73788590D01*
X159167495Y-73864780D01*
X159177019Y-73883828D01*
X159186542Y-73893352D01*
X159205590Y-73902876D01*
X159243685Y-73902876D01*
X159262733Y-73893352D01*
X159272257Y-73883828D01*
X159281780Y-73864780D01*
X159281780Y-73817161D01*
X159272257Y-73798114D01*
X159262733Y-73788590D01*
X159243685Y-73779066D01*
X159205590Y-73779066D01*
X159186542Y-73788590D01*
X159177019Y-73798114D01*
X159167495Y-73817161D01*
%TO.C,R14*%
D18*
X149625114Y-90811304D02*
X149358447Y-90430352D01*
X149167971Y-90811304D02*
X149167971Y-90011304D01*
X149472733Y-90011304D01*
X149548923Y-90049400D01*
X149587019Y-90087495D01*
X149625114Y-90163685D01*
X149625114Y-90277971D01*
X149587019Y-90354161D01*
X149548923Y-90392257D01*
X149472733Y-90430352D01*
X149167971Y-90430352D01*
X150387019Y-90811304D02*
X149929876Y-90811304D01*
X150158447Y-90811304D02*
X150158447Y-90011304D01*
X150082257Y-90125590D01*
X150006066Y-90201780D01*
X149929876Y-90239876D01*
X151072733Y-90277971D02*
X151072733Y-90811304D01*
X150882257Y-89973209D02*
X150691780Y-90544638D01*
X151187019Y-90544638D01*
%TO.C,R13*%
X131197304Y-83699285D02*
X130816352Y-83965952D01*
X131197304Y-84156428D02*
X130397304Y-84156428D01*
X130397304Y-83851666D01*
X130435400Y-83775476D01*
X130473495Y-83737380D01*
X130549685Y-83699285D01*
X130663971Y-83699285D01*
X130740161Y-83737380D01*
X130778257Y-83775476D01*
X130816352Y-83851666D01*
X130816352Y-84156428D01*
X131197304Y-82937380D02*
X131197304Y-83394523D01*
X131197304Y-83165952D02*
X130397304Y-83165952D01*
X130511590Y-83242142D01*
X130587780Y-83318333D01*
X130625876Y-83394523D01*
X130397304Y-82670714D02*
X130397304Y-82175476D01*
X130702066Y-82442142D01*
X130702066Y-82327857D01*
X130740161Y-82251666D01*
X130778257Y-82213571D01*
X130854447Y-82175476D01*
X131044923Y-82175476D01*
X131121114Y-82213571D01*
X131159209Y-82251666D01*
X131197304Y-82327857D01*
X131197304Y-82556428D01*
X131159209Y-82632619D01*
X131121114Y-82670714D01*
%TO.C,R12*%
X136302704Y-83775485D02*
X135921752Y-84042152D01*
X136302704Y-84232628D02*
X135502704Y-84232628D01*
X135502704Y-83927866D01*
X135540800Y-83851676D01*
X135578895Y-83813580D01*
X135655085Y-83775485D01*
X135769371Y-83775485D01*
X135845561Y-83813580D01*
X135883657Y-83851676D01*
X135921752Y-83927866D01*
X135921752Y-84232628D01*
X136302704Y-83013580D02*
X136302704Y-83470723D01*
X136302704Y-83242152D02*
X135502704Y-83242152D01*
X135616990Y-83318342D01*
X135693180Y-83394533D01*
X135731276Y-83470723D01*
X135578895Y-82708819D02*
X135540800Y-82670723D01*
X135502704Y-82594533D01*
X135502704Y-82404057D01*
X135540800Y-82327866D01*
X135578895Y-82289771D01*
X135655085Y-82251676D01*
X135731276Y-82251676D01*
X135845561Y-82289771D01*
X136302704Y-82746914D01*
X136302704Y-82251676D01*
%TO.C,R11*%
D10*
X137335390Y-96739828D02*
X137097295Y-96906495D01*
X137335390Y-97025542D02*
X136835390Y-97025542D01*
X136835390Y-96835066D01*
X136859200Y-96787447D01*
X136883009Y-96763638D01*
X136930628Y-96739828D01*
X137002057Y-96739828D01*
X137049676Y-96763638D01*
X137073485Y-96787447D01*
X137097295Y-96835066D01*
X137097295Y-97025542D01*
X137335390Y-96263638D02*
X137335390Y-96549352D01*
X137335390Y-96406495D02*
X136835390Y-96406495D01*
X136906819Y-96454114D01*
X136954438Y-96501733D01*
X136978247Y-96549352D01*
X137335390Y-95787447D02*
X137335390Y-96073161D01*
X137335390Y-95930304D02*
X136835390Y-95930304D01*
X136906819Y-95977923D01*
X136954438Y-96025542D01*
X136978247Y-96073161D01*
%TO.C,R10*%
D18*
X159489904Y-95772285D02*
X159108952Y-96038952D01*
X159489904Y-96229428D02*
X158689904Y-96229428D01*
X158689904Y-95924666D01*
X158728000Y-95848476D01*
X158766095Y-95810380D01*
X158842285Y-95772285D01*
X158956571Y-95772285D01*
X159032761Y-95810380D01*
X159070857Y-95848476D01*
X159108952Y-95924666D01*
X159108952Y-96229428D01*
X159489904Y-95010380D02*
X159489904Y-95467523D01*
X159489904Y-95238952D02*
X158689904Y-95238952D01*
X158804190Y-95315142D01*
X158880380Y-95391333D01*
X158918476Y-95467523D01*
X158689904Y-94515142D02*
X158689904Y-94438952D01*
X158728000Y-94362761D01*
X158766095Y-94324666D01*
X158842285Y-94286571D01*
X158994666Y-94248476D01*
X159185142Y-94248476D01*
X159337523Y-94286571D01*
X159413714Y-94324666D01*
X159451809Y-94362761D01*
X159489904Y-94438952D01*
X159489904Y-94515142D01*
X159451809Y-94591333D01*
X159413714Y-94629428D01*
X159337523Y-94667523D01*
X159185142Y-94705619D01*
X158994666Y-94705619D01*
X158842285Y-94667523D01*
X158766095Y-94629428D01*
X158728000Y-94591333D01*
X158689904Y-94515142D01*
%TO.C,R9*%
X131446666Y-95741904D02*
X131180000Y-95360952D01*
X130989523Y-95741904D02*
X130989523Y-94941904D01*
X131294285Y-94941904D01*
X131370476Y-94980000D01*
X131408571Y-95018095D01*
X131446666Y-95094285D01*
X131446666Y-95208571D01*
X131408571Y-95284761D01*
X131370476Y-95322857D01*
X131294285Y-95360952D01*
X130989523Y-95360952D01*
X131827619Y-95741904D02*
X131980000Y-95741904D01*
X132056190Y-95703809D01*
X132094285Y-95665714D01*
X132170476Y-95551428D01*
X132208571Y-95399047D01*
X132208571Y-95094285D01*
X132170476Y-95018095D01*
X132132380Y-94980000D01*
X132056190Y-94941904D01*
X131903809Y-94941904D01*
X131827619Y-94980000D01*
X131789523Y-95018095D01*
X131751428Y-95094285D01*
X131751428Y-95284761D01*
X131789523Y-95360952D01*
X131827619Y-95399047D01*
X131903809Y-95437142D01*
X132056190Y-95437142D01*
X132132380Y-95399047D01*
X132170476Y-95360952D01*
X132208571Y-95284761D01*
%TO.C,R8*%
X142792466Y-86950504D02*
X142525800Y-86569552D01*
X142335323Y-86950504D02*
X142335323Y-86150504D01*
X142640085Y-86150504D01*
X142716276Y-86188600D01*
X142754371Y-86226695D01*
X142792466Y-86302885D01*
X142792466Y-86417171D01*
X142754371Y-86493361D01*
X142716276Y-86531457D01*
X142640085Y-86569552D01*
X142335323Y-86569552D01*
X143249609Y-86493361D02*
X143173419Y-86455266D01*
X143135323Y-86417171D01*
X143097228Y-86340980D01*
X143097228Y-86302885D01*
X143135323Y-86226695D01*
X143173419Y-86188600D01*
X143249609Y-86150504D01*
X143401990Y-86150504D01*
X143478180Y-86188600D01*
X143516276Y-86226695D01*
X143554371Y-86302885D01*
X143554371Y-86340980D01*
X143516276Y-86417171D01*
X143478180Y-86455266D01*
X143401990Y-86493361D01*
X143249609Y-86493361D01*
X143173419Y-86531457D01*
X143135323Y-86569552D01*
X143097228Y-86645742D01*
X143097228Y-86798123D01*
X143135323Y-86874314D01*
X143173419Y-86912409D01*
X143249609Y-86950504D01*
X143401990Y-86950504D01*
X143478180Y-86912409D01*
X143516276Y-86874314D01*
X143554371Y-86798123D01*
X143554371Y-86645742D01*
X143516276Y-86569552D01*
X143478180Y-86531457D01*
X143401990Y-86493361D01*
%TO.C,R7*%
X169909904Y-95899333D02*
X169528952Y-96166000D01*
X169909904Y-96356476D02*
X169109904Y-96356476D01*
X169109904Y-96051714D01*
X169148000Y-95975523D01*
X169186095Y-95937428D01*
X169262285Y-95899333D01*
X169376571Y-95899333D01*
X169452761Y-95937428D01*
X169490857Y-95975523D01*
X169528952Y-96051714D01*
X169528952Y-96356476D01*
X169109904Y-95632666D02*
X169109904Y-95099333D01*
X169909904Y-95442190D01*
%TO.C,R6*%
X155171904Y-95383333D02*
X154790952Y-95650000D01*
X155171904Y-95840476D02*
X154371904Y-95840476D01*
X154371904Y-95535714D01*
X154410000Y-95459523D01*
X154448095Y-95421428D01*
X154524285Y-95383333D01*
X154638571Y-95383333D01*
X154714761Y-95421428D01*
X154752857Y-95459523D01*
X154790952Y-95535714D01*
X154790952Y-95840476D01*
X154371904Y-94697619D02*
X154371904Y-94850000D01*
X154410000Y-94926190D01*
X154448095Y-94964285D01*
X154562380Y-95040476D01*
X154714761Y-95078571D01*
X155019523Y-95078571D01*
X155095714Y-95040476D01*
X155133809Y-95002380D01*
X155171904Y-94926190D01*
X155171904Y-94773809D01*
X155133809Y-94697619D01*
X155095714Y-94659523D01*
X155019523Y-94621428D01*
X154829047Y-94621428D01*
X154752857Y-94659523D01*
X154714761Y-94697619D01*
X154676666Y-94773809D01*
X154676666Y-94926190D01*
X154714761Y-95002380D01*
X154752857Y-95040476D01*
X154829047Y-95078571D01*
%TO.C,R5*%
X138288666Y-85581904D02*
X138022000Y-85200952D01*
X137831523Y-85581904D02*
X137831523Y-84781904D01*
X138136285Y-84781904D01*
X138212476Y-84820000D01*
X138250571Y-84858095D01*
X138288666Y-84934285D01*
X138288666Y-85048571D01*
X138250571Y-85124761D01*
X138212476Y-85162857D01*
X138136285Y-85200952D01*
X137831523Y-85200952D01*
X139012476Y-84781904D02*
X138631523Y-84781904D01*
X138593428Y-85162857D01*
X138631523Y-85124761D01*
X138707714Y-85086666D01*
X138898190Y-85086666D01*
X138974380Y-85124761D01*
X139012476Y-85162857D01*
X139050571Y-85239047D01*
X139050571Y-85429523D01*
X139012476Y-85505714D01*
X138974380Y-85543809D01*
X138898190Y-85581904D01*
X138707714Y-85581904D01*
X138631523Y-85543809D01*
X138593428Y-85505714D01*
%TO.C,R4*%
X141598666Y-82781904D02*
X141332000Y-82400952D01*
X141141523Y-82781904D02*
X141141523Y-81981904D01*
X141446285Y-81981904D01*
X141522476Y-82020000D01*
X141560571Y-82058095D01*
X141598666Y-82134285D01*
X141598666Y-82248571D01*
X141560571Y-82324761D01*
X141522476Y-82362857D01*
X141446285Y-82400952D01*
X141141523Y-82400952D01*
X142284380Y-82248571D02*
X142284380Y-82781904D01*
X142093904Y-81943809D02*
X141903428Y-82515238D01*
X142398666Y-82515238D01*
%TO.C,R3*%
X142360666Y-74199704D02*
X142094000Y-73818752D01*
X141903523Y-74199704D02*
X141903523Y-73399704D01*
X142208285Y-73399704D01*
X142284476Y-73437800D01*
X142322571Y-73475895D01*
X142360666Y-73552085D01*
X142360666Y-73666371D01*
X142322571Y-73742561D01*
X142284476Y-73780657D01*
X142208285Y-73818752D01*
X141903523Y-73818752D01*
X142627333Y-73399704D02*
X143122571Y-73399704D01*
X142855904Y-73704466D01*
X142970190Y-73704466D01*
X143046380Y-73742561D01*
X143084476Y-73780657D01*
X143122571Y-73856847D01*
X143122571Y-74047323D01*
X143084476Y-74123514D01*
X143046380Y-74161609D01*
X142970190Y-74199704D01*
X142741619Y-74199704D01*
X142665428Y-74161609D01*
X142627333Y-74123514D01*
%TO.C,R2*%
X144456104Y-79711533D02*
X144075152Y-79978200D01*
X144456104Y-80168676D02*
X143656104Y-80168676D01*
X143656104Y-79863914D01*
X143694200Y-79787723D01*
X143732295Y-79749628D01*
X143808485Y-79711533D01*
X143922771Y-79711533D01*
X143998961Y-79749628D01*
X144037057Y-79787723D01*
X144075152Y-79863914D01*
X144075152Y-80168676D01*
X143732295Y-79406771D02*
X143694200Y-79368676D01*
X143656104Y-79292485D01*
X143656104Y-79102009D01*
X143694200Y-79025819D01*
X143732295Y-78987723D01*
X143808485Y-78949628D01*
X143884676Y-78949628D01*
X143998961Y-78987723D01*
X144456104Y-79444866D01*
X144456104Y-78949628D01*
%TO.C,R1*%
X142614666Y-62947504D02*
X142348000Y-62566552D01*
X142157523Y-62947504D02*
X142157523Y-62147504D01*
X142462285Y-62147504D01*
X142538476Y-62185600D01*
X142576571Y-62223695D01*
X142614666Y-62299885D01*
X142614666Y-62414171D01*
X142576571Y-62490361D01*
X142538476Y-62528457D01*
X142462285Y-62566552D01*
X142157523Y-62566552D01*
X143376571Y-62947504D02*
X142919428Y-62947504D01*
X143148000Y-62947504D02*
X143148000Y-62147504D01*
X143071809Y-62261790D01*
X142995619Y-62337980D01*
X142919428Y-62376076D01*
%TO.C,Q1*%
D21*
X147939276Y-92678552D02*
X147878800Y-92799504D01*
X147757847Y-92920457D01*
X147576419Y-93101885D01*
X147515942Y-93222838D01*
X147515942Y-93343790D01*
X147818323Y-93283314D02*
X147757847Y-93404266D01*
X147636895Y-93525219D01*
X147394990Y-93585695D01*
X146971657Y-93585695D01*
X146729752Y-93525219D01*
X146608800Y-93404266D01*
X146548323Y-93283314D01*
X146548323Y-93041409D01*
X146608800Y-92920457D01*
X146729752Y-92799504D01*
X146971657Y-92739028D01*
X147394990Y-92739028D01*
X147636895Y-92799504D01*
X147757847Y-92920457D01*
X147818323Y-93041409D01*
X147818323Y-93283314D01*
X147818323Y-91529504D02*
X147818323Y-92255219D01*
X147818323Y-91892361D02*
X146548323Y-91892361D01*
X146729752Y-92013314D01*
X146850704Y-92134266D01*
X146911180Y-92255219D01*
%TO.C,J5*%
D18*
X162861666Y-109307380D02*
X162861666Y-110021666D01*
X162814047Y-110164523D01*
X162718809Y-110259761D01*
X162575952Y-110307380D01*
X162480714Y-110307380D01*
X163814047Y-109307380D02*
X163337857Y-109307380D01*
X163290238Y-109783571D01*
X163337857Y-109735952D01*
X163433095Y-109688333D01*
X163671190Y-109688333D01*
X163766428Y-109735952D01*
X163814047Y-109783571D01*
X163861666Y-109878809D01*
X163861666Y-110116904D01*
X163814047Y-110212142D01*
X163766428Y-110259761D01*
X163671190Y-110307380D01*
X163433095Y-110307380D01*
X163337857Y-110259761D01*
X163290238Y-110212142D01*
%TO.C,J3*%
D20*
X125082333Y-114827104D02*
X125082333Y-115398533D01*
X125044238Y-115512819D01*
X124968047Y-115589009D01*
X124853761Y-115627104D01*
X124777571Y-115627104D01*
X125387095Y-114827104D02*
X125882333Y-114827104D01*
X125615666Y-115131866D01*
X125729952Y-115131866D01*
X125806142Y-115169961D01*
X125844238Y-115208057D01*
X125882333Y-115284247D01*
X125882333Y-115474723D01*
X125844238Y-115550914D01*
X125806142Y-115589009D01*
X125729952Y-115627104D01*
X125501380Y-115627104D01*
X125425190Y-115589009D01*
X125387095Y-115550914D01*
%TO.C,J2*%
X152679400Y-78279171D02*
X152679400Y-78714600D01*
X152650371Y-78801685D01*
X152592314Y-78859742D01*
X152505228Y-78888771D01*
X152447171Y-78888771D01*
X152940657Y-78337228D02*
X152969685Y-78308200D01*
X153027742Y-78279171D01*
X153172885Y-78279171D01*
X153230942Y-78308200D01*
X153259971Y-78337228D01*
X153289000Y-78395285D01*
X153289000Y-78453342D01*
X153259971Y-78540428D01*
X152911628Y-78888771D01*
X153289000Y-78888771D01*
%TO.C,IC2*%
D21*
X130266923Y-90165161D02*
X128996923Y-90165161D01*
X130145971Y-88834685D02*
X130206447Y-88895161D01*
X130266923Y-89076590D01*
X130266923Y-89197542D01*
X130206447Y-89378971D01*
X130085495Y-89499923D01*
X129964542Y-89560400D01*
X129722638Y-89620876D01*
X129541209Y-89620876D01*
X129299304Y-89560400D01*
X129178352Y-89499923D01*
X129057400Y-89378971D01*
X128996923Y-89197542D01*
X128996923Y-89076590D01*
X129057400Y-88895161D01*
X129117876Y-88834685D01*
X129117876Y-88350876D02*
X129057400Y-88290400D01*
X128996923Y-88169447D01*
X128996923Y-87867066D01*
X129057400Y-87746114D01*
X129117876Y-87685638D01*
X129238828Y-87625161D01*
X129359780Y-87625161D01*
X129541209Y-87685638D01*
X130266923Y-88411352D01*
X130266923Y-87625161D01*
%TO.C,IC1*%
X137734523Y-91485961D02*
X136464523Y-91485961D01*
X137613571Y-90155485D02*
X137674047Y-90215961D01*
X137734523Y-90397390D01*
X137734523Y-90518342D01*
X137674047Y-90699771D01*
X137553095Y-90820723D01*
X137432142Y-90881200D01*
X137190238Y-90941676D01*
X137008809Y-90941676D01*
X136766904Y-90881200D01*
X136645952Y-90820723D01*
X136525000Y-90699771D01*
X136464523Y-90518342D01*
X136464523Y-90397390D01*
X136525000Y-90215961D01*
X136585476Y-90155485D01*
X137734523Y-88945961D02*
X137734523Y-89671676D01*
X137734523Y-89308819D02*
X136464523Y-89308819D01*
X136645952Y-89429771D01*
X136766904Y-89550723D01*
X136827380Y-89671676D01*
%TO.C,FB1*%
D10*
X143347333Y-68772885D02*
X143180666Y-68772885D01*
X143180666Y-69034790D02*
X143180666Y-68534790D01*
X143418761Y-68534790D01*
X143775904Y-68772885D02*
X143847333Y-68796695D01*
X143871142Y-68820504D01*
X143894952Y-68868123D01*
X143894952Y-68939552D01*
X143871142Y-68987171D01*
X143847333Y-69010980D01*
X143799714Y-69034790D01*
X143609238Y-69034790D01*
X143609238Y-68534790D01*
X143775904Y-68534790D01*
X143823523Y-68558600D01*
X143847333Y-68582409D01*
X143871142Y-68630028D01*
X143871142Y-68677647D01*
X143847333Y-68725266D01*
X143823523Y-68749076D01*
X143775904Y-68772885D01*
X143609238Y-68772885D01*
X144371142Y-69034790D02*
X144085428Y-69034790D01*
X144228285Y-69034790D02*
X144228285Y-68534790D01*
X144180666Y-68606219D01*
X144133047Y-68653838D01*
X144085428Y-68677647D01*
%TO.C,D10*%
D20*
X136292771Y-113757528D02*
X135683171Y-113757528D01*
X135683171Y-113612385D01*
X135712200Y-113525300D01*
X135770257Y-113467242D01*
X135828314Y-113438214D01*
X135944428Y-113409185D01*
X136031514Y-113409185D01*
X136147628Y-113438214D01*
X136205685Y-113467242D01*
X136263742Y-113525300D01*
X136292771Y-113612385D01*
X136292771Y-113757528D01*
X136292771Y-112828614D02*
X136292771Y-113176957D01*
X136292771Y-113002785D02*
X135683171Y-113002785D01*
X135770257Y-113060842D01*
X135828314Y-113118900D01*
X135857342Y-113176957D01*
X135683171Y-112451242D02*
X135683171Y-112393185D01*
X135712200Y-112335128D01*
X135741228Y-112306100D01*
X135799285Y-112277071D01*
X135915400Y-112248042D01*
X136060542Y-112248042D01*
X136176657Y-112277071D01*
X136234714Y-112306100D01*
X136263742Y-112335128D01*
X136292771Y-112393185D01*
X136292771Y-112451242D01*
X136263742Y-112509300D01*
X136234714Y-112538328D01*
X136176657Y-112567357D01*
X136060542Y-112596385D01*
X135915400Y-112596385D01*
X135799285Y-112567357D01*
X135741228Y-112538328D01*
X135712200Y-112509300D01*
X135683171Y-112451242D01*
%TO.C,D9*%
X129942771Y-113225942D02*
X129333171Y-113225942D01*
X129333171Y-113080800D01*
X129362200Y-112993714D01*
X129420257Y-112935657D01*
X129478314Y-112906628D01*
X129594428Y-112877600D01*
X129681514Y-112877600D01*
X129797628Y-112906628D01*
X129855685Y-112935657D01*
X129913742Y-112993714D01*
X129942771Y-113080800D01*
X129942771Y-113225942D01*
X129942771Y-112587314D02*
X129942771Y-112471200D01*
X129913742Y-112413142D01*
X129884714Y-112384114D01*
X129797628Y-112326057D01*
X129681514Y-112297028D01*
X129449285Y-112297028D01*
X129391228Y-112326057D01*
X129362200Y-112355085D01*
X129333171Y-112413142D01*
X129333171Y-112529257D01*
X129362200Y-112587314D01*
X129391228Y-112616342D01*
X129449285Y-112645371D01*
X129594428Y-112645371D01*
X129652485Y-112616342D01*
X129681514Y-112587314D01*
X129710542Y-112529257D01*
X129710542Y-112413142D01*
X129681514Y-112355085D01*
X129652485Y-112326057D01*
X129594428Y-112297028D01*
D22*
%TO.C,D8*%
D20*
X133117771Y-113225942D02*
X132508171Y-113225942D01*
X132508171Y-113080800D01*
X132537200Y-112993714D01*
X132595257Y-112935657D01*
X132653314Y-112906628D01*
X132769428Y-112877600D01*
X132856514Y-112877600D01*
X132972628Y-112906628D01*
X133030685Y-112935657D01*
X133088742Y-112993714D01*
X133117771Y-113080800D01*
X133117771Y-113225942D01*
X132769428Y-112529257D02*
X132740400Y-112587314D01*
X132711371Y-112616342D01*
X132653314Y-112645371D01*
X132624285Y-112645371D01*
X132566228Y-112616342D01*
X132537200Y-112587314D01*
X132508171Y-112529257D01*
X132508171Y-112413142D01*
X132537200Y-112355085D01*
X132566228Y-112326057D01*
X132624285Y-112297028D01*
X132653314Y-112297028D01*
X132711371Y-112326057D01*
X132740400Y-112355085D01*
X132769428Y-112413142D01*
X132769428Y-112529257D01*
X132798457Y-112587314D01*
X132827485Y-112616342D01*
X132885542Y-112645371D01*
X133001657Y-112645371D01*
X133059714Y-112616342D01*
X133088742Y-112587314D01*
X133117771Y-112529257D01*
X133117771Y-112413142D01*
X133088742Y-112355085D01*
X133059714Y-112326057D01*
X133001657Y-112297028D01*
X132885542Y-112297028D01*
X132827485Y-112326057D01*
X132798457Y-112355085D01*
X132769428Y-112413142D01*
%TO.C,D7*%
X126626257Y-102350751D02*
X126626257Y-101741151D01*
X126771400Y-101741151D01*
X126858485Y-101770180D01*
X126916542Y-101828237D01*
X126945571Y-101886294D01*
X126974600Y-102002408D01*
X126974600Y-102089494D01*
X126945571Y-102205608D01*
X126916542Y-102263665D01*
X126858485Y-102321722D01*
X126771400Y-102350751D01*
X126626257Y-102350751D01*
X127177800Y-101741151D02*
X127584200Y-101741151D01*
X127322942Y-102350751D01*
%TO.C,D6*%
X142007771Y-113848242D02*
X141398171Y-113848242D01*
X141398171Y-113703100D01*
X141427200Y-113616014D01*
X141485257Y-113557957D01*
X141543314Y-113528928D01*
X141659428Y-113499900D01*
X141746514Y-113499900D01*
X141862628Y-113528928D01*
X141920685Y-113557957D01*
X141978742Y-113616014D01*
X142007771Y-113703100D01*
X142007771Y-113848242D01*
X141398171Y-112977385D02*
X141398171Y-113093500D01*
X141427200Y-113151557D01*
X141456228Y-113180585D01*
X141543314Y-113238642D01*
X141659428Y-113267671D01*
X141891657Y-113267671D01*
X141949714Y-113238642D01*
X141978742Y-113209614D01*
X142007771Y-113151557D01*
X142007771Y-113035442D01*
X141978742Y-112977385D01*
X141949714Y-112948357D01*
X141891657Y-112919328D01*
X141746514Y-112919328D01*
X141688457Y-112948357D01*
X141659428Y-112977385D01*
X141630400Y-113035442D01*
X141630400Y-113151557D01*
X141659428Y-113209614D01*
X141688457Y-113238642D01*
X141746514Y-113267671D01*
D22*
%TO.C,D5*%
D20*
X146325771Y-87500822D02*
X145716171Y-87500822D01*
X145716171Y-87355680D01*
X145745200Y-87268594D01*
X145803257Y-87210537D01*
X145861314Y-87181508D01*
X145977428Y-87152480D01*
X146064514Y-87152480D01*
X146180628Y-87181508D01*
X146238685Y-87210537D01*
X146296742Y-87268594D01*
X146325771Y-87355680D01*
X146325771Y-87500822D01*
X145716171Y-86600937D02*
X145716171Y-86891222D01*
X146006457Y-86920251D01*
X145977428Y-86891222D01*
X145948400Y-86833165D01*
X145948400Y-86688022D01*
X145977428Y-86629965D01*
X146006457Y-86600937D01*
X146064514Y-86571908D01*
X146209657Y-86571908D01*
X146267714Y-86600937D01*
X146296742Y-86629965D01*
X146325771Y-86688022D01*
X146325771Y-86833165D01*
X146296742Y-86891222D01*
X146267714Y-86920251D01*
%TO.C,D4*%
X130753757Y-81301771D02*
X130753757Y-80692171D01*
X130898900Y-80692171D01*
X130985985Y-80721200D01*
X131044042Y-80779257D01*
X131073071Y-80837314D01*
X131102100Y-80953428D01*
X131102100Y-81040514D01*
X131073071Y-81156628D01*
X131044042Y-81214685D01*
X130985985Y-81272742D01*
X130898900Y-81301771D01*
X130753757Y-81301771D01*
X131624614Y-80895371D02*
X131624614Y-81301771D01*
X131479471Y-80663142D02*
X131334328Y-81098571D01*
X131711700Y-81098571D01*
%TO.C,D3*%
X133484257Y-79091971D02*
X133484257Y-78482371D01*
X133629400Y-78482371D01*
X133716485Y-78511400D01*
X133774542Y-78569457D01*
X133803571Y-78627514D01*
X133832600Y-78743628D01*
X133832600Y-78830714D01*
X133803571Y-78946828D01*
X133774542Y-79004885D01*
X133716485Y-79062942D01*
X133629400Y-79091971D01*
X133484257Y-79091971D01*
X134035800Y-78482371D02*
X134413171Y-78482371D01*
X134209971Y-78714600D01*
X134297057Y-78714600D01*
X134355114Y-78743628D01*
X134384142Y-78772657D01*
X134413171Y-78830714D01*
X134413171Y-78975857D01*
X134384142Y-79033914D01*
X134355114Y-79062942D01*
X134297057Y-79091971D01*
X134122885Y-79091971D01*
X134064828Y-79062942D01*
X134035800Y-79033914D01*
%TO.C,D2*%
X133179457Y-77720371D02*
X133179457Y-77110771D01*
X133324600Y-77110771D01*
X133411685Y-77139800D01*
X133469742Y-77197857D01*
X133498771Y-77255914D01*
X133527800Y-77372028D01*
X133527800Y-77459114D01*
X133498771Y-77575228D01*
X133469742Y-77633285D01*
X133411685Y-77691342D01*
X133324600Y-77720371D01*
X133179457Y-77720371D01*
X133760028Y-77168828D02*
X133789057Y-77139800D01*
X133847114Y-77110771D01*
X133992257Y-77110771D01*
X134050314Y-77139800D01*
X134079342Y-77168828D01*
X134108371Y-77226885D01*
X134108371Y-77284942D01*
X134079342Y-77372028D01*
X133731000Y-77720371D01*
X134108371Y-77720371D01*
%TO.C,D1*%
D18*
X134362380Y-70334095D02*
X133362380Y-70334095D01*
X133362380Y-70096000D01*
X133410000Y-69953142D01*
X133505238Y-69857904D01*
X133600476Y-69810285D01*
X133790952Y-69762666D01*
X133933809Y-69762666D01*
X134124285Y-69810285D01*
X134219523Y-69857904D01*
X134314761Y-69953142D01*
X134362380Y-70096000D01*
X134362380Y-70334095D01*
X134362380Y-68810285D02*
X134362380Y-69381714D01*
X134362380Y-69096000D02*
X133362380Y-69096000D01*
X133505238Y-69191238D01*
X133600476Y-69286476D01*
X133648095Y-69381714D01*
%TO.C,C25*%
X176515714Y-89061714D02*
X176477619Y-89099809D01*
X176363333Y-89137904D01*
X176287142Y-89137904D01*
X176172857Y-89099809D01*
X176096666Y-89023619D01*
X176058571Y-88947428D01*
X176020476Y-88795047D01*
X176020476Y-88680761D01*
X176058571Y-88528380D01*
X176096666Y-88452190D01*
X176172857Y-88376000D01*
X176287142Y-88337904D01*
X176363333Y-88337904D01*
X176477619Y-88376000D01*
X176515714Y-88414095D01*
X176820476Y-88414095D02*
X176858571Y-88376000D01*
X176934761Y-88337904D01*
X177125238Y-88337904D01*
X177201428Y-88376000D01*
X177239523Y-88414095D01*
X177277619Y-88490285D01*
X177277619Y-88566476D01*
X177239523Y-88680761D01*
X176782380Y-89137904D01*
X177277619Y-89137904D01*
X178001428Y-88337904D02*
X177620476Y-88337904D01*
X177582380Y-88718857D01*
X177620476Y-88680761D01*
X177696666Y-88642666D01*
X177887142Y-88642666D01*
X177963333Y-88680761D01*
X178001428Y-88718857D01*
X178039523Y-88795047D01*
X178039523Y-88985523D01*
X178001428Y-89061714D01*
X177963333Y-89099809D01*
X177887142Y-89137904D01*
X177696666Y-89137904D01*
X177620476Y-89099809D01*
X177582380Y-89061714D01*
%TO.C,C24*%
X158143714Y-80008285D02*
X158181809Y-80046380D01*
X158219904Y-80160666D01*
X158219904Y-80236857D01*
X158181809Y-80351142D01*
X158105619Y-80427333D01*
X158029428Y-80465428D01*
X157877047Y-80503523D01*
X157762761Y-80503523D01*
X157610380Y-80465428D01*
X157534190Y-80427333D01*
X157458000Y-80351142D01*
X157419904Y-80236857D01*
X157419904Y-80160666D01*
X157458000Y-80046380D01*
X157496095Y-80008285D01*
X157496095Y-79703523D02*
X157458000Y-79665428D01*
X157419904Y-79589238D01*
X157419904Y-79398761D01*
X157458000Y-79322571D01*
X157496095Y-79284476D01*
X157572285Y-79246380D01*
X157648476Y-79246380D01*
X157762761Y-79284476D01*
X158219904Y-79741619D01*
X158219904Y-79246380D01*
X157686571Y-78560666D02*
X158219904Y-78560666D01*
X157381809Y-78751142D02*
X157953238Y-78941619D01*
X157953238Y-78446380D01*
%TO.C,C23*%
X158095914Y-83724685D02*
X158134009Y-83762780D01*
X158172104Y-83877066D01*
X158172104Y-83953257D01*
X158134009Y-84067542D01*
X158057819Y-84143733D01*
X157981628Y-84181828D01*
X157829247Y-84219923D01*
X157714961Y-84219923D01*
X157562580Y-84181828D01*
X157486390Y-84143733D01*
X157410200Y-84067542D01*
X157372104Y-83953257D01*
X157372104Y-83877066D01*
X157410200Y-83762780D01*
X157448295Y-83724685D01*
X157448295Y-83419923D02*
X157410200Y-83381828D01*
X157372104Y-83305638D01*
X157372104Y-83115161D01*
X157410200Y-83038971D01*
X157448295Y-83000876D01*
X157524485Y-82962780D01*
X157600676Y-82962780D01*
X157714961Y-83000876D01*
X158172104Y-83458019D01*
X158172104Y-82962780D01*
X157372104Y-82696114D02*
X157372104Y-82200876D01*
X157676866Y-82467542D01*
X157676866Y-82353257D01*
X157714961Y-82277066D01*
X157753057Y-82238971D01*
X157829247Y-82200876D01*
X158019723Y-82200876D01*
X158095914Y-82238971D01*
X158134009Y-82277066D01*
X158172104Y-82353257D01*
X158172104Y-82581828D01*
X158134009Y-82658019D01*
X158095914Y-82696114D01*
%TO.C,C22*%
X154793714Y-88272285D02*
X154831809Y-88310380D01*
X154869904Y-88424666D01*
X154869904Y-88500857D01*
X154831809Y-88615142D01*
X154755619Y-88691333D01*
X154679428Y-88729428D01*
X154527047Y-88767523D01*
X154412761Y-88767523D01*
X154260380Y-88729428D01*
X154184190Y-88691333D01*
X154108000Y-88615142D01*
X154069904Y-88500857D01*
X154069904Y-88424666D01*
X154108000Y-88310380D01*
X154146095Y-88272285D01*
X154146095Y-87967523D02*
X154108000Y-87929428D01*
X154069904Y-87853238D01*
X154069904Y-87662761D01*
X154108000Y-87586571D01*
X154146095Y-87548476D01*
X154222285Y-87510380D01*
X154298476Y-87510380D01*
X154412761Y-87548476D01*
X154869904Y-88005619D01*
X154869904Y-87510380D01*
X154146095Y-87205619D02*
X154108000Y-87167523D01*
X154069904Y-87091333D01*
X154069904Y-86900857D01*
X154108000Y-86824666D01*
X154146095Y-86786571D01*
X154222285Y-86748476D01*
X154298476Y-86748476D01*
X154412761Y-86786571D01*
X154869904Y-87243714D01*
X154869904Y-86748476D01*
%TO.C,C21*%
X155276514Y-83699285D02*
X155314609Y-83737380D01*
X155352704Y-83851666D01*
X155352704Y-83927857D01*
X155314609Y-84042142D01*
X155238419Y-84118333D01*
X155162228Y-84156428D01*
X155009847Y-84194523D01*
X154895561Y-84194523D01*
X154743180Y-84156428D01*
X154666990Y-84118333D01*
X154590800Y-84042142D01*
X154552704Y-83927857D01*
X154552704Y-83851666D01*
X154590800Y-83737380D01*
X154628895Y-83699285D01*
X154628895Y-83394523D02*
X154590800Y-83356428D01*
X154552704Y-83280238D01*
X154552704Y-83089761D01*
X154590800Y-83013571D01*
X154628895Y-82975476D01*
X154705085Y-82937380D01*
X154781276Y-82937380D01*
X154895561Y-82975476D01*
X155352704Y-83432619D01*
X155352704Y-82937380D01*
X155352704Y-82175476D02*
X155352704Y-82632619D01*
X155352704Y-82404047D02*
X154552704Y-82404047D01*
X154666990Y-82480238D01*
X154743180Y-82556428D01*
X154781276Y-82632619D01*
%TO.C,C20*%
X142220914Y-94621285D02*
X142259009Y-94659380D01*
X142297104Y-94773666D01*
X142297104Y-94849857D01*
X142259009Y-94964142D01*
X142182819Y-95040333D01*
X142106628Y-95078428D01*
X141954247Y-95116523D01*
X141839961Y-95116523D01*
X141687580Y-95078428D01*
X141611390Y-95040333D01*
X141535200Y-94964142D01*
X141497104Y-94849857D01*
X141497104Y-94773666D01*
X141535200Y-94659380D01*
X141573295Y-94621285D01*
X141573295Y-94316523D02*
X141535200Y-94278428D01*
X141497104Y-94202238D01*
X141497104Y-94011761D01*
X141535200Y-93935571D01*
X141573295Y-93897476D01*
X141649485Y-93859380D01*
X141725676Y-93859380D01*
X141839961Y-93897476D01*
X142297104Y-94354619D01*
X142297104Y-93859380D01*
X141497104Y-93364142D02*
X141497104Y-93287952D01*
X141535200Y-93211761D01*
X141573295Y-93173666D01*
X141649485Y-93135571D01*
X141801866Y-93097476D01*
X141992342Y-93097476D01*
X142144723Y-93135571D01*
X142220914Y-93173666D01*
X142259009Y-93211761D01*
X142297104Y-93287952D01*
X142297104Y-93364142D01*
X142259009Y-93440333D01*
X142220914Y-93478428D01*
X142144723Y-93516523D01*
X141992342Y-93554619D01*
X141801866Y-93554619D01*
X141649485Y-93516523D01*
X141573295Y-93478428D01*
X141535200Y-93440333D01*
X141497104Y-93364142D01*
%TO.C,C19*%
X134605714Y-95665714D02*
X134567619Y-95703809D01*
X134453333Y-95741904D01*
X134377142Y-95741904D01*
X134262857Y-95703809D01*
X134186666Y-95627619D01*
X134148571Y-95551428D01*
X134110476Y-95399047D01*
X134110476Y-95284761D01*
X134148571Y-95132380D01*
X134186666Y-95056190D01*
X134262857Y-94980000D01*
X134377142Y-94941904D01*
X134453333Y-94941904D01*
X134567619Y-94980000D01*
X134605714Y-95018095D01*
X135367619Y-95741904D02*
X134910476Y-95741904D01*
X135139047Y-95741904D02*
X135139047Y-94941904D01*
X135062857Y-95056190D01*
X134986666Y-95132380D01*
X134910476Y-95170476D01*
X135748571Y-95741904D02*
X135900952Y-95741904D01*
X135977142Y-95703809D01*
X136015238Y-95665714D01*
X136091428Y-95551428D01*
X136129523Y-95399047D01*
X136129523Y-95094285D01*
X136091428Y-95018095D01*
X136053333Y-94980000D01*
X135977142Y-94941904D01*
X135824761Y-94941904D01*
X135748571Y-94980000D01*
X135710476Y-95018095D01*
X135672380Y-95094285D01*
X135672380Y-95284761D01*
X135710476Y-95360952D01*
X135748571Y-95399047D01*
X135824761Y-95437142D01*
X135977142Y-95437142D01*
X136053333Y-95399047D01*
X136091428Y-95360952D01*
X136129523Y-95284761D01*
%TO.C,C18*%
X169833714Y-99328285D02*
X169871809Y-99366380D01*
X169909904Y-99480666D01*
X169909904Y-99556857D01*
X169871809Y-99671142D01*
X169795619Y-99747333D01*
X169719428Y-99785428D01*
X169567047Y-99823523D01*
X169452761Y-99823523D01*
X169300380Y-99785428D01*
X169224190Y-99747333D01*
X169148000Y-99671142D01*
X169109904Y-99556857D01*
X169109904Y-99480666D01*
X169148000Y-99366380D01*
X169186095Y-99328285D01*
X169909904Y-98566380D02*
X169909904Y-99023523D01*
X169909904Y-98794952D02*
X169109904Y-98794952D01*
X169224190Y-98871142D01*
X169300380Y-98947333D01*
X169338476Y-99023523D01*
X169452761Y-98109238D02*
X169414666Y-98185428D01*
X169376571Y-98223523D01*
X169300380Y-98261619D01*
X169262285Y-98261619D01*
X169186095Y-98223523D01*
X169148000Y-98185428D01*
X169109904Y-98109238D01*
X169109904Y-97956857D01*
X169148000Y-97880666D01*
X169186095Y-97842571D01*
X169262285Y-97804476D01*
X169300380Y-97804476D01*
X169376571Y-97842571D01*
X169414666Y-97880666D01*
X169452761Y-97956857D01*
X169452761Y-98109238D01*
X169490857Y-98185428D01*
X169528952Y-98223523D01*
X169605142Y-98261619D01*
X169757523Y-98261619D01*
X169833714Y-98223523D01*
X169871809Y-98185428D01*
X169909904Y-98109238D01*
X169909904Y-97956857D01*
X169871809Y-97880666D01*
X169833714Y-97842571D01*
X169757523Y-97804476D01*
X169605142Y-97804476D01*
X169528952Y-97842571D01*
X169490857Y-97880666D01*
X169452761Y-97956857D01*
%TO.C,C17*%
D20*
X163438114Y-107532714D02*
X163409085Y-107561742D01*
X163322000Y-107590771D01*
X163263942Y-107590771D01*
X163176857Y-107561742D01*
X163118800Y-107503685D01*
X163089771Y-107445628D01*
X163060742Y-107329514D01*
X163060742Y-107242428D01*
X163089771Y-107126314D01*
X163118800Y-107068257D01*
X163176857Y-107010200D01*
X163263942Y-106981171D01*
X163322000Y-106981171D01*
X163409085Y-107010200D01*
X163438114Y-107039228D01*
X164018685Y-107590771D02*
X163670342Y-107590771D01*
X163844514Y-107590771D02*
X163844514Y-106981171D01*
X163786457Y-107068257D01*
X163728400Y-107126314D01*
X163670342Y-107155342D01*
X164221885Y-106981171D02*
X164628285Y-106981171D01*
X164367028Y-107590771D01*
%TO.C,C16*%
D18*
X162845714Y-104654285D02*
X162883809Y-104692380D01*
X162921904Y-104806666D01*
X162921904Y-104882857D01*
X162883809Y-104997142D01*
X162807619Y-105073333D01*
X162731428Y-105111428D01*
X162579047Y-105149523D01*
X162464761Y-105149523D01*
X162312380Y-105111428D01*
X162236190Y-105073333D01*
X162160000Y-104997142D01*
X162121904Y-104882857D01*
X162121904Y-104806666D01*
X162160000Y-104692380D01*
X162198095Y-104654285D01*
X162921904Y-103892380D02*
X162921904Y-104349523D01*
X162921904Y-104120952D02*
X162121904Y-104120952D01*
X162236190Y-104197142D01*
X162312380Y-104273333D01*
X162350476Y-104349523D01*
X162121904Y-103206666D02*
X162121904Y-103359047D01*
X162160000Y-103435238D01*
X162198095Y-103473333D01*
X162312380Y-103549523D01*
X162464761Y-103587619D01*
X162769523Y-103587619D01*
X162845714Y-103549523D01*
X162883809Y-103511428D01*
X162921904Y-103435238D01*
X162921904Y-103282857D01*
X162883809Y-103206666D01*
X162845714Y-103168571D01*
X162769523Y-103130476D01*
X162579047Y-103130476D01*
X162502857Y-103168571D01*
X162464761Y-103206666D01*
X162426666Y-103282857D01*
X162426666Y-103435238D01*
X162464761Y-103511428D01*
X162502857Y-103549523D01*
X162579047Y-103587619D01*
%TO.C,C15*%
D10*
X133528571Y-100559371D02*
X133504761Y-100583180D01*
X133433333Y-100606990D01*
X133385714Y-100606990D01*
X133314285Y-100583180D01*
X133266666Y-100535561D01*
X133242857Y-100487942D01*
X133219047Y-100392704D01*
X133219047Y-100321276D01*
X133242857Y-100226038D01*
X133266666Y-100178419D01*
X133314285Y-100130800D01*
X133385714Y-100106990D01*
X133433333Y-100106990D01*
X133504761Y-100130800D01*
X133528571Y-100154609D01*
X134004761Y-100606990D02*
X133719047Y-100606990D01*
X133861904Y-100606990D02*
X133861904Y-100106990D01*
X133814285Y-100178419D01*
X133766666Y-100226038D01*
X133719047Y-100249847D01*
X134457142Y-100106990D02*
X134219047Y-100106990D01*
X134195238Y-100345085D01*
X134219047Y-100321276D01*
X134266666Y-100297466D01*
X134385714Y-100297466D01*
X134433333Y-100321276D01*
X134457142Y-100345085D01*
X134480952Y-100392704D01*
X134480952Y-100511752D01*
X134457142Y-100559371D01*
X134433333Y-100583180D01*
X134385714Y-100606990D01*
X134266666Y-100606990D01*
X134219047Y-100583180D01*
X134195238Y-100559371D01*
%TO.C,C14*%
D18*
X152555714Y-93224285D02*
X152593809Y-93262380D01*
X152631904Y-93376666D01*
X152631904Y-93452857D01*
X152593809Y-93567142D01*
X152517619Y-93643333D01*
X152441428Y-93681428D01*
X152289047Y-93719523D01*
X152174761Y-93719523D01*
X152022380Y-93681428D01*
X151946190Y-93643333D01*
X151870000Y-93567142D01*
X151831904Y-93452857D01*
X151831904Y-93376666D01*
X151870000Y-93262380D01*
X151908095Y-93224285D01*
X152631904Y-92462380D02*
X152631904Y-92919523D01*
X152631904Y-92690952D02*
X151831904Y-92690952D01*
X151946190Y-92767142D01*
X152022380Y-92843333D01*
X152060476Y-92919523D01*
X152098571Y-91776666D02*
X152631904Y-91776666D01*
X151793809Y-91967142D02*
X152365238Y-92157619D01*
X152365238Y-91662380D01*
%TO.C,C13*%
X133335714Y-97945714D02*
X133297619Y-97983809D01*
X133183333Y-98021904D01*
X133107142Y-98021904D01*
X132992857Y-97983809D01*
X132916666Y-97907619D01*
X132878571Y-97831428D01*
X132840476Y-97679047D01*
X132840476Y-97564761D01*
X132878571Y-97412380D01*
X132916666Y-97336190D01*
X132992857Y-97260000D01*
X133107142Y-97221904D01*
X133183333Y-97221904D01*
X133297619Y-97260000D01*
X133335714Y-97298095D01*
X134097619Y-98021904D02*
X133640476Y-98021904D01*
X133869047Y-98021904D02*
X133869047Y-97221904D01*
X133792857Y-97336190D01*
X133716666Y-97412380D01*
X133640476Y-97450476D01*
X134364285Y-97221904D02*
X134859523Y-97221904D01*
X134592857Y-97526666D01*
X134707142Y-97526666D01*
X134783333Y-97564761D01*
X134821428Y-97602857D01*
X134859523Y-97679047D01*
X134859523Y-97869523D01*
X134821428Y-97945714D01*
X134783333Y-97983809D01*
X134707142Y-98021904D01*
X134478571Y-98021904D01*
X134402380Y-97983809D01*
X134364285Y-97945714D01*
%TO.C,C12*%
D10*
X141461371Y-97739971D02*
X141437561Y-97763780D01*
X141366133Y-97787590D01*
X141318514Y-97787590D01*
X141247085Y-97763780D01*
X141199466Y-97716161D01*
X141175657Y-97668542D01*
X141151847Y-97573304D01*
X141151847Y-97501876D01*
X141175657Y-97406638D01*
X141199466Y-97359019D01*
X141247085Y-97311400D01*
X141318514Y-97287590D01*
X141366133Y-97287590D01*
X141437561Y-97311400D01*
X141461371Y-97335209D01*
X141937561Y-97787590D02*
X141651847Y-97787590D01*
X141794704Y-97787590D02*
X141794704Y-97287590D01*
X141747085Y-97359019D01*
X141699466Y-97406638D01*
X141651847Y-97430447D01*
X142128038Y-97335209D02*
X142151847Y-97311400D01*
X142199466Y-97287590D01*
X142318514Y-97287590D01*
X142366133Y-97311400D01*
X142389942Y-97335209D01*
X142413752Y-97382828D01*
X142413752Y-97430447D01*
X142389942Y-97501876D01*
X142104228Y-97787590D01*
X142413752Y-97787590D01*
%TO.C,C11*%
D18*
X141225714Y-103285714D02*
X141187619Y-103323809D01*
X141073333Y-103361904D01*
X140997142Y-103361904D01*
X140882857Y-103323809D01*
X140806666Y-103247619D01*
X140768571Y-103171428D01*
X140730476Y-103019047D01*
X140730476Y-102904761D01*
X140768571Y-102752380D01*
X140806666Y-102676190D01*
X140882857Y-102600000D01*
X140997142Y-102561904D01*
X141073333Y-102561904D01*
X141187619Y-102600000D01*
X141225714Y-102638095D01*
X141987619Y-103361904D02*
X141530476Y-103361904D01*
X141759047Y-103361904D02*
X141759047Y-102561904D01*
X141682857Y-102676190D01*
X141606666Y-102752380D01*
X141530476Y-102790476D01*
X142749523Y-103361904D02*
X142292380Y-103361904D01*
X142520952Y-103361904D02*
X142520952Y-102561904D01*
X142444761Y-102676190D01*
X142368571Y-102752380D01*
X142292380Y-102790476D01*
%TO.C,C10*%
D10*
X153094571Y-98476571D02*
X153070761Y-98500380D01*
X152999333Y-98524190D01*
X152951714Y-98524190D01*
X152880285Y-98500380D01*
X152832666Y-98452761D01*
X152808857Y-98405142D01*
X152785047Y-98309904D01*
X152785047Y-98238476D01*
X152808857Y-98143238D01*
X152832666Y-98095619D01*
X152880285Y-98048000D01*
X152951714Y-98024190D01*
X152999333Y-98024190D01*
X153070761Y-98048000D01*
X153094571Y-98071809D01*
X153570761Y-98524190D02*
X153285047Y-98524190D01*
X153427904Y-98524190D02*
X153427904Y-98024190D01*
X153380285Y-98095619D01*
X153332666Y-98143238D01*
X153285047Y-98167047D01*
X153880285Y-98024190D02*
X153927904Y-98024190D01*
X153975523Y-98048000D01*
X153999333Y-98071809D01*
X154023142Y-98119428D01*
X154046952Y-98214666D01*
X154046952Y-98333714D01*
X154023142Y-98428952D01*
X153999333Y-98476571D01*
X153975523Y-98500380D01*
X153927904Y-98524190D01*
X153880285Y-98524190D01*
X153832666Y-98500380D01*
X153808857Y-98476571D01*
X153785047Y-98428952D01*
X153761238Y-98333714D01*
X153761238Y-98214666D01*
X153785047Y-98119428D01*
X153808857Y-98071809D01*
X153832666Y-98048000D01*
X153880285Y-98024190D01*
%TO.C,C9*%
D18*
X132365714Y-105543333D02*
X132403809Y-105581428D01*
X132441904Y-105695714D01*
X132441904Y-105771904D01*
X132403809Y-105886190D01*
X132327619Y-105962380D01*
X132251428Y-106000476D01*
X132099047Y-106038571D01*
X131984761Y-106038571D01*
X131832380Y-106000476D01*
X131756190Y-105962380D01*
X131680000Y-105886190D01*
X131641904Y-105771904D01*
X131641904Y-105695714D01*
X131680000Y-105581428D01*
X131718095Y-105543333D01*
X132441904Y-105162380D02*
X132441904Y-105010000D01*
X132403809Y-104933809D01*
X132365714Y-104895714D01*
X132251428Y-104819523D01*
X132099047Y-104781428D01*
X131794285Y-104781428D01*
X131718095Y-104819523D01*
X131680000Y-104857619D01*
X131641904Y-104933809D01*
X131641904Y-105086190D01*
X131680000Y-105162380D01*
X131718095Y-105200476D01*
X131794285Y-105238571D01*
X131984761Y-105238571D01*
X132060952Y-105200476D01*
X132099047Y-105162380D01*
X132137142Y-105086190D01*
X132137142Y-104933809D01*
X132099047Y-104857619D01*
X132060952Y-104819523D01*
X131984761Y-104781428D01*
%TO.C,C8*%
D10*
X134900171Y-104680533D02*
X134923980Y-104704342D01*
X134947790Y-104775771D01*
X134947790Y-104823390D01*
X134923980Y-104894819D01*
X134876361Y-104942438D01*
X134828742Y-104966247D01*
X134733504Y-104990057D01*
X134662076Y-104990057D01*
X134566838Y-104966247D01*
X134519219Y-104942438D01*
X134471600Y-104894819D01*
X134447790Y-104823390D01*
X134447790Y-104775771D01*
X134471600Y-104704342D01*
X134495409Y-104680533D01*
X134662076Y-104394819D02*
X134638266Y-104442438D01*
X134614457Y-104466247D01*
X134566838Y-104490057D01*
X134543028Y-104490057D01*
X134495409Y-104466247D01*
X134471600Y-104442438D01*
X134447790Y-104394819D01*
X134447790Y-104299580D01*
X134471600Y-104251961D01*
X134495409Y-104228152D01*
X134543028Y-104204342D01*
X134566838Y-104204342D01*
X134614457Y-104228152D01*
X134638266Y-104251961D01*
X134662076Y-104299580D01*
X134662076Y-104394819D01*
X134685885Y-104442438D01*
X134709695Y-104466247D01*
X134757314Y-104490057D01*
X134852552Y-104490057D01*
X134900171Y-104466247D01*
X134923980Y-104442438D01*
X134947790Y-104394819D01*
X134947790Y-104299580D01*
X134923980Y-104251961D01*
X134900171Y-104228152D01*
X134852552Y-104204342D01*
X134757314Y-104204342D01*
X134709695Y-104228152D01*
X134685885Y-104251961D01*
X134662076Y-104299580D01*
%TO.C,C7*%
D18*
X135120666Y-75037714D02*
X135082571Y-75075809D01*
X134968285Y-75113904D01*
X134892095Y-75113904D01*
X134777809Y-75075809D01*
X134701619Y-74999619D01*
X134663523Y-74923428D01*
X134625428Y-74771047D01*
X134625428Y-74656761D01*
X134663523Y-74504380D01*
X134701619Y-74428190D01*
X134777809Y-74352000D01*
X134892095Y-74313904D01*
X134968285Y-74313904D01*
X135082571Y-74352000D01*
X135120666Y-74390095D01*
X135387333Y-74313904D02*
X135920666Y-74313904D01*
X135577809Y-75113904D01*
%TO.C,C5*%
X170046666Y-104425714D02*
X170008571Y-104463809D01*
X169894285Y-104501904D01*
X169818095Y-104501904D01*
X169703809Y-104463809D01*
X169627619Y-104387619D01*
X169589523Y-104311428D01*
X169551428Y-104159047D01*
X169551428Y-104044761D01*
X169589523Y-103892380D01*
X169627619Y-103816190D01*
X169703809Y-103740000D01*
X169818095Y-103701904D01*
X169894285Y-103701904D01*
X170008571Y-103740000D01*
X170046666Y-103778095D01*
X170770476Y-103701904D02*
X170389523Y-103701904D01*
X170351428Y-104082857D01*
X170389523Y-104044761D01*
X170465714Y-104006666D01*
X170656190Y-104006666D01*
X170732380Y-104044761D01*
X170770476Y-104082857D01*
X170808571Y-104159047D01*
X170808571Y-104349523D01*
X170770476Y-104425714D01*
X170732380Y-104463809D01*
X170656190Y-104501904D01*
X170465714Y-104501904D01*
X170389523Y-104463809D01*
X170351428Y-104425714D01*
%TO.C,C4*%
X170046666Y-106965714D02*
X170008571Y-107003809D01*
X169894285Y-107041904D01*
X169818095Y-107041904D01*
X169703809Y-107003809D01*
X169627619Y-106927619D01*
X169589523Y-106851428D01*
X169551428Y-106699047D01*
X169551428Y-106584761D01*
X169589523Y-106432380D01*
X169627619Y-106356190D01*
X169703809Y-106280000D01*
X169818095Y-106241904D01*
X169894285Y-106241904D01*
X170008571Y-106280000D01*
X170046666Y-106318095D01*
X170732380Y-106508571D02*
X170732380Y-107041904D01*
X170541904Y-106203809D02*
X170351428Y-106775238D01*
X170846666Y-106775238D01*
%TO.C,C3*%
D10*
X138702266Y-71908171D02*
X138678457Y-71931980D01*
X138607028Y-71955790D01*
X138559409Y-71955790D01*
X138487980Y-71931980D01*
X138440361Y-71884361D01*
X138416552Y-71836742D01*
X138392742Y-71741504D01*
X138392742Y-71670076D01*
X138416552Y-71574838D01*
X138440361Y-71527219D01*
X138487980Y-71479600D01*
X138559409Y-71455790D01*
X138607028Y-71455790D01*
X138678457Y-71479600D01*
X138702266Y-71503409D01*
X138868933Y-71455790D02*
X139178457Y-71455790D01*
X139011790Y-71646266D01*
X139083219Y-71646266D01*
X139130838Y-71670076D01*
X139154647Y-71693885D01*
X139178457Y-71741504D01*
X139178457Y-71860552D01*
X139154647Y-71908171D01*
X139130838Y-71931980D01*
X139083219Y-71955790D01*
X138940361Y-71955790D01*
X138892742Y-71931980D01*
X138868933Y-71908171D01*
%TO.C,C2*%
X141707371Y-70542933D02*
X141731180Y-70566742D01*
X141754990Y-70638171D01*
X141754990Y-70685790D01*
X141731180Y-70757219D01*
X141683561Y-70804838D01*
X141635942Y-70828647D01*
X141540704Y-70852457D01*
X141469276Y-70852457D01*
X141374038Y-70828647D01*
X141326419Y-70804838D01*
X141278800Y-70757219D01*
X141254990Y-70685790D01*
X141254990Y-70638171D01*
X141278800Y-70566742D01*
X141302609Y-70542933D01*
X141302609Y-70352457D02*
X141278800Y-70328647D01*
X141254990Y-70281028D01*
X141254990Y-70161980D01*
X141278800Y-70114361D01*
X141302609Y-70090552D01*
X141350228Y-70066742D01*
X141397847Y-70066742D01*
X141469276Y-70090552D01*
X141754990Y-70376266D01*
X141754990Y-70066742D01*
%TO.C,C1*%
D18*
X142614666Y-65941714D02*
X142576571Y-65979809D01*
X142462285Y-66017904D01*
X142386095Y-66017904D01*
X142271809Y-65979809D01*
X142195619Y-65903619D01*
X142157523Y-65827428D01*
X142119428Y-65675047D01*
X142119428Y-65560761D01*
X142157523Y-65408380D01*
X142195619Y-65332190D01*
X142271809Y-65256000D01*
X142386095Y-65217904D01*
X142462285Y-65217904D01*
X142576571Y-65256000D01*
X142614666Y-65294095D01*
X143376571Y-66017904D02*
X142919428Y-66017904D01*
X143148000Y-66017904D02*
X143148000Y-65217904D01*
X143071809Y-65332190D01*
X142995619Y-65408380D01*
X142919428Y-65446476D01*
%TD*%
M02*
