G04 Layer: TopSilkLayer*
G04 EasyEDA v6.4.3, 2020-08-12T23:02:41+05:30*
G04 0c64d8637b0b46b586c93cd23854d17d,10*
G04 Gerber Generator version 0.2*
G04 Scale: 100 percent, Rotated: No, Reflected: No *
G04 Dimensions in inches *
G04 leading zeros omitted , absolute positions ,2 integer and 4 decimal *
%FSLAX24Y24*%
%MOIN*%
G90*
G70D02*

%ADD15C,0.001000*%
%ADD29C,0.005000*%
%ADD30C,0.006000*%
%ADD31C,0.004720*%
%ADD32C,0.003940*%
%ADD33C,0.004000*%
%ADD34C,0.002000*%
%ADD35C,0.001200*%
%ADD36C,0.003200*%
%ADD37C,0.001920*%
%ADD38C,0.002800*%

%LPD*%
G54D29*
G01X3539Y2437D02*
G01X5192Y2437D01*
G01X5192Y4563D01*
G01X3539Y4563D01*
G01X3539Y2437D01*
G54D30*
G01X13000Y250D02*
G01X12750Y0D01*
G01X12250Y0D01*
G01X12000Y250D01*
G01X11750Y0D01*
G01X11250Y0D01*
G01X11000Y250D01*
G01X10750Y0D01*
G01X10250Y0D01*
G01X10000Y250D01*
G01X9750Y0D01*
G01X9250Y0D01*
G01X9000Y250D01*
G01X8750Y0D01*
G01X8250Y0D01*
G01X8000Y250D01*
G01X7750Y0D01*
G01X7250Y0D01*
G01X7000Y250D01*
G01X6750Y0D01*
G01X6250Y0D01*
G01X6000Y250D01*
G01X5750Y0D01*
G01X5250Y0D01*
G01X5000Y250D01*
G01X4750Y0D01*
G01X4250Y0D01*
G01X4000Y250D01*
G01X3750Y0D01*
G01X3250Y0D01*
G01X3000Y250D01*
G01X2750Y0D01*
G01X2250Y0D01*
G01X2000Y250D01*
G01X1750Y0D01*
G01X1250Y0D01*
G01X1000Y250D01*
G01X1000Y750D01*
G01X1250Y1000D01*
G01X1750Y1000D01*
G01X2000Y750D01*
G01X2250Y1000D01*
G01X2750Y1000D01*
G01X3000Y750D01*
G01X3250Y1000D01*
G01X3750Y1000D01*
G01X4000Y750D01*
G01X4250Y1000D01*
G01X4750Y1000D01*
G01X5000Y750D01*
G01X5250Y1000D01*
G01X5750Y1000D01*
G01X6000Y750D01*
G01X6250Y1000D01*
G01X6750Y1000D01*
G01X7000Y750D01*
G01X7250Y1000D01*
G01X7750Y1000D01*
G01X8000Y750D01*
G01X8250Y1000D01*
G01X8750Y1000D01*
G01X9000Y750D01*
G01X9250Y1000D01*
G01X9750Y1000D01*
G01X10000Y750D01*
G01X10250Y1000D01*
G01X10750Y1000D01*
G01X11000Y750D01*
G01X11250Y1000D01*
G01X11750Y1000D01*
G01X12000Y750D01*
G01X12250Y1000D01*
G01X12750Y1000D01*
G01X13000Y750D01*
G01X13250Y1000D01*
G01X13750Y1000D01*
G01X14000Y750D01*
G01X14000Y250D01*
G01X13750Y0D01*
G01X13250Y0D01*
G01X13000Y250D01*
G01X13000Y750D01*
G01X14000Y750D02*
G01X14250Y1000D01*
G01X14750Y1000D01*
G01X15000Y750D01*
G01X15000Y250D01*
G01X14750Y0D01*
G01X14250Y0D01*
G01X14000Y250D01*
G01X11000Y750D02*
G01X11000Y250D01*
G01X12000Y750D02*
G01X12000Y250D01*
G01X10000Y750D02*
G01X10000Y250D01*
G01X8000Y750D02*
G01X8000Y250D01*
G01X9000Y750D02*
G01X9000Y250D01*
G01X7000Y750D02*
G01X7000Y250D01*
G01X5000Y750D02*
G01X5000Y250D01*
G01X6000Y750D02*
G01X6000Y250D01*
G01X4000Y750D02*
G01X4000Y250D01*
G01X2000Y750D02*
G01X2000Y250D01*
G01X3000Y750D02*
G01X3000Y250D01*
G01X15000Y750D02*
G01X15250Y1000D01*
G01X15750Y1000D01*
G01X16000Y750D01*
G01X16000Y250D01*
G01X15750Y0D01*
G01X15250Y0D01*
G01X15000Y250D01*
G54D31*
G01X2598Y4724D02*
G01X3992Y4724D01*
G01X3992Y5472D01*
G01X2598Y5472D01*
G54D29*
G01X5580Y3031D02*
G01X5580Y1063D01*
G01X6761Y1063D01*
G01X6761Y3031D01*
G01X5580Y3031D01*
G54D30*
G01X4000Y6750D02*
G01X4250Y7000D01*
G01X4750Y7000D01*
G01X5000Y6750D01*
G01X5250Y7000D01*
G01X5750Y7000D01*
G01X6000Y6750D01*
G01X6250Y7000D01*
G01X6750Y7000D01*
G01X7000Y6750D01*
G01X7250Y7000D01*
G01X7750Y7000D01*
G01X8000Y6750D01*
G01X8250Y7000D01*
G01X8750Y7000D01*
G01X9000Y6750D01*
G01X9250Y7000D01*
G01X9750Y7000D01*
G01X10000Y6750D01*
G01X10250Y7000D01*
G01X10750Y7000D01*
G01X11000Y6750D01*
G01X11250Y7000D01*
G01X11750Y7000D01*
G01X12000Y6750D01*
G01X12250Y7000D01*
G01X12750Y7000D01*
G01X13000Y6750D01*
G01X13250Y7000D01*
G01X13750Y7000D01*
G01X14000Y6750D01*
G01X14250Y7000D01*
G01X14750Y7000D01*
G01X15000Y6750D01*
G01X15250Y7000D01*
G01X15750Y7000D01*
G01X16000Y6750D01*
G01X16000Y6250D01*
G01X15750Y6000D01*
G01X15250Y6000D01*
G01X15000Y6250D01*
G01X14750Y6000D01*
G01X14250Y6000D01*
G01X14000Y6250D01*
G01X13750Y6000D01*
G01X13250Y6000D01*
G01X13000Y6250D01*
G01X12750Y6000D01*
G01X12250Y6000D01*
G01X12000Y6250D01*
G01X11750Y6000D01*
G01X11250Y6000D01*
G01X11000Y6250D01*
G01X10750Y6000D01*
G01X10250Y6000D01*
G01X10000Y6250D01*
G01X9750Y6000D01*
G01X9250Y6000D01*
G01X9000Y6250D01*
G01X8750Y6000D01*
G01X8250Y6000D01*
G01X8000Y6250D01*
G01X7750Y6000D01*
G01X7250Y6000D01*
G01X7000Y6250D01*
G01X6750Y6000D01*
G01X6250Y6000D01*
G01X6000Y6250D01*
G01X5750Y6000D01*
G01X5250Y6000D01*
G01X5000Y6250D01*
G01X4750Y6000D01*
G01X4250Y6000D01*
G01X4000Y6250D01*
G01X3750Y6000D01*
G01X3250Y6000D01*
G01X3000Y6250D01*
G01X3000Y6750D01*
G01X3250Y7000D01*
G01X3750Y7000D01*
G01X4000Y6750D01*
G01X4000Y6250D01*
G01X3000Y6250D02*
G01X2750Y6000D01*
G01X2250Y6000D01*
G01X2000Y6250D01*
G01X2000Y6750D01*
G01X2250Y7000D01*
G01X2750Y7000D01*
G01X3000Y6750D01*
G01X6000Y6250D02*
G01X6000Y6750D01*
G01X5000Y6250D02*
G01X5000Y6750D01*
G01X7000Y6250D02*
G01X7000Y6750D01*
G01X9000Y6250D02*
G01X9000Y6750D01*
G01X8000Y6250D02*
G01X8000Y6750D01*
G01X10000Y6250D02*
G01X10000Y6750D01*
G01X12000Y6250D02*
G01X12000Y6750D01*
G01X11000Y6250D02*
G01X11000Y6750D01*
G01X13000Y6250D02*
G01X13000Y6750D01*
G01X15000Y6250D02*
G01X15000Y6750D01*
G01X14000Y6250D02*
G01X14000Y6750D01*
G01X2000Y6250D02*
G01X1750Y6000D01*
G01X1250Y6000D01*
G01X1000Y6250D01*
G01X1000Y6750D01*
G01X1250Y7000D01*
G01X1750Y7000D01*
G01X2000Y6750D01*
G54D32*
G01X11082Y5468D02*
G01X15649Y5468D01*
G01X16141Y5468D01*
G01X16496Y5468D01*
G01X16988Y5468D01*
G01X16988Y1531D01*
G01X16732Y1531D01*
G01X16574Y1531D01*
G01X16102Y1531D01*
G01X15944Y1531D01*
G01X15649Y1531D01*
G01X11082Y1531D01*
G01X11082Y5468D01*
G01X15649Y5468D02*
G01X15649Y1531D01*
G01X16496Y5468D02*
G01X16496Y2318D01*
G01X16141Y2318D01*
G01X16141Y5468D01*
G01X16732Y1531D02*
G01X16732Y1767D01*
G01X16574Y1767D01*
G01X16574Y1531D01*
G01X16102Y1531D02*
G01X16102Y1767D01*
G01X15944Y1767D01*
G01X15944Y1531D01*
G54D33*
G01X7755Y5403D02*
G01X9212Y5403D01*
G01X9212Y4143D01*
G01X7755Y4143D01*
G01X7755Y5403D01*
G54D34*
G01X6053Y4635D02*
G01X6840Y4635D01*
G01X6840Y3848D01*
G01X6053Y3848D01*
G01X6053Y4635D01*
G54D15*
G01X6683Y4084D02*
G01X6604Y4084D01*
G01X6604Y4320D01*
G01X6683Y4320D01*
G01X6683Y4399D01*
G01X6210Y4399D01*
G01X6210Y4005D01*
G01X6683Y4005D01*
G01X6683Y4084D01*
G01X6407Y4163D02*
G01X6407Y4045D01*
G01X6525Y4045D01*
G01X6525Y4163D01*
G01X6407Y4163D01*
G54D35*
G01X8302Y1319D02*
G01X8416Y1319D01*
G01X8302Y1319D02*
G01X8302Y1368D01*
G01X8307Y1385D01*
G01X8312Y1390D01*
G01X8323Y1396D01*
G01X8334Y1396D01*
G01X8345Y1390D01*
G01X8351Y1385D01*
G01X8356Y1368D01*
G01X8356Y1319D01*
G01X8356Y1357D02*
G01X8416Y1396D01*
G01X8323Y1432D02*
G01X8318Y1442D01*
G01X8302Y1459D01*
G01X8416Y1459D01*
G01X8302Y1506D02*
G01X8302Y1566D01*
G01X8345Y1533D01*
G01X8345Y1549D01*
G01X8351Y1560D01*
G01X8356Y1566D01*
G01X8372Y1571D01*
G01X8383Y1571D01*
G01X8400Y1566D01*
G01X8411Y1555D01*
G01X8416Y1538D01*
G01X8416Y1522D01*
G01X8411Y1506D01*
G01X8405Y1500D01*
G01X8394Y1495D01*
G01X7912Y1314D02*
G01X8026Y1314D01*
G01X7912Y1314D02*
G01X7912Y1363D01*
G01X7917Y1380D01*
G01X7922Y1385D01*
G01X7933Y1391D01*
G01X7944Y1391D01*
G01X7955Y1385D01*
G01X7961Y1380D01*
G01X7966Y1363D01*
G01X7966Y1314D01*
G01X7966Y1353D02*
G01X8026Y1391D01*
G01X7933Y1427D02*
G01X7928Y1438D01*
G01X7912Y1454D01*
G01X8026Y1454D01*
G01X7912Y1545D02*
G01X7988Y1490D01*
G01X7988Y1572D01*
G01X7912Y1545D02*
G01X8026Y1545D01*
G54D36*
G01X3126Y1265D02*
G01X3344Y1265D01*
G01X3388Y1279D01*
G01X3417Y1308D01*
G01X3431Y1352D01*
G01X3431Y1381D01*
G01X3417Y1425D01*
G01X3388Y1454D01*
G01X3344Y1468D01*
G01X3126Y1468D01*
G01X3126Y1710D02*
G01X3330Y1564D01*
G01X3330Y1783D01*
G01X3126Y1710D02*
G01X3431Y1710D01*
G54D35*
G01X3793Y2274D02*
G01X3786Y2285D01*
G01X3776Y2296D01*
G01X3765Y2301D01*
G01X3744Y2301D01*
G01X3733Y2296D01*
G01X3722Y2285D01*
G01X3715Y2274D01*
G01X3711Y2258D01*
G01X3711Y2230D01*
G01X3715Y2214D01*
G01X3722Y2203D01*
G01X3733Y2192D01*
G01X3744Y2187D01*
G01X3765Y2187D01*
G01X3776Y2192D01*
G01X3786Y2203D01*
G01X3793Y2214D01*
G01X3834Y2274D02*
G01X3834Y2279D01*
G01X3840Y2290D01*
G01X3845Y2296D01*
G01X3856Y2301D01*
G01X3878Y2301D01*
G01X3889Y2296D01*
G01X3894Y2290D01*
G01X3900Y2279D01*
G01X3900Y2268D01*
G01X3894Y2258D01*
G01X3883Y2241D01*
G01X3829Y2187D01*
G01X3904Y2187D01*
G01X3940Y2279D02*
G01X3952Y2285D01*
G01X3968Y2301D01*
G01X3968Y2187D01*
G54D36*
G01X180Y3357D02*
G01X413Y3357D01*
G01X456Y3343D01*
G01X471Y3328D01*
G01X486Y3299D01*
G01X486Y3270D01*
G01X471Y3241D01*
G01X456Y3226D01*
G01X413Y3212D01*
G01X384Y3212D01*
G01X238Y3453D02*
G01X224Y3482D01*
G01X180Y3526D01*
G01X486Y3526D01*
G54D35*
G01X2739Y3842D02*
G01X2739Y3727D01*
G01X2739Y3842D02*
G01X2777Y3842D01*
G01X2793Y3836D01*
G01X2804Y3825D01*
G01X2809Y3814D01*
G01X2815Y3797D01*
G01X2815Y3771D01*
G01X2809Y3754D01*
G01X2804Y3743D01*
G01X2793Y3732D01*
G01X2777Y3727D01*
G01X2739Y3727D01*
G01X2851Y3820D02*
G01X2862Y3825D01*
G01X2878Y3842D01*
G01X2878Y3727D01*
G01X4411Y5015D02*
G01X4405Y5026D01*
G01X4394Y5037D01*
G01X4384Y5042D01*
G01X4362Y5042D01*
G01X4351Y5037D01*
G01X4340Y5026D01*
G01X4334Y5015D01*
G01X4329Y4999D01*
G01X4329Y4971D01*
G01X4334Y4955D01*
G01X4340Y4944D01*
G01X4351Y4933D01*
G01X4362Y4928D01*
G01X4384Y4928D01*
G01X4394Y4933D01*
G01X4405Y4944D01*
G01X4411Y4955D01*
G01X4452Y5015D02*
G01X4452Y5020D01*
G01X4458Y5031D01*
G01X4463Y5037D01*
G01X4474Y5042D01*
G01X4496Y5042D01*
G01X4507Y5037D01*
G01X4512Y5031D01*
G01X4518Y5020D01*
G01X4518Y5010D01*
G01X4512Y4999D01*
G01X4501Y4982D01*
G01X4447Y4928D01*
G01X4523Y4928D01*
G01X16290Y1427D02*
G01X16290Y1313D01*
G01X16290Y1427D02*
G01X16338Y1427D01*
G01X16355Y1422D01*
G01X16361Y1416D01*
G01X16366Y1405D01*
G01X16366Y1394D01*
G01X16361Y1384D01*
G01X16355Y1378D01*
G01X16338Y1373D01*
G01X16290Y1373D01*
G01X16328Y1373D02*
G01X16366Y1313D01*
G01X16457Y1427D02*
G01X16402Y1351D01*
G01X16484Y1351D01*
G01X16457Y1427D02*
G01X16457Y1313D01*
G01X4309Y5475D02*
G01X4309Y5361D01*
G01X4309Y5475D02*
G01X4358Y5475D01*
G01X4375Y5470D01*
G01X4380Y5464D01*
G01X4386Y5454D01*
G01X4386Y5443D01*
G01X4380Y5432D01*
G01X4375Y5426D01*
G01X4358Y5421D01*
G01X4309Y5421D01*
G01X4347Y5421D02*
G01X4386Y5361D01*
G01X4487Y5475D02*
G01X4433Y5475D01*
G01X4427Y5426D01*
G01X4433Y5432D01*
G01X4449Y5437D01*
G01X4465Y5437D01*
G01X4482Y5432D01*
G01X4493Y5421D01*
G01X4498Y5404D01*
G01X4498Y5394D01*
G01X4493Y5377D01*
G01X4482Y5366D01*
G01X4465Y5361D01*
G01X4449Y5361D01*
G01X4433Y5366D01*
G01X4427Y5372D01*
G01X4422Y5383D01*
G01X2678Y2623D02*
G01X2672Y2634D01*
G01X2661Y2645D01*
G01X2650Y2651D01*
G01X2628Y2651D01*
G01X2618Y2645D01*
G01X2607Y2634D01*
G01X2601Y2623D01*
G01X2596Y2607D01*
G01X2596Y2580D01*
G01X2601Y2563D01*
G01X2607Y2552D01*
G01X2618Y2541D01*
G01X2628Y2536D01*
G01X2650Y2536D01*
G01X2661Y2541D01*
G01X2672Y2552D01*
G01X2678Y2563D01*
G01X2714Y2629D02*
G01X2724Y2634D01*
G01X2741Y2651D01*
G01X2741Y2536D01*
G01X2339Y1627D02*
G01X2453Y1627D01*
G01X2339Y1627D02*
G01X2339Y1676D01*
G01X2344Y1692D01*
G01X2350Y1698D01*
G01X2361Y1703D01*
G01X2371Y1703D01*
G01X2382Y1698D01*
G01X2388Y1692D01*
G01X2393Y1676D01*
G01X2393Y1627D01*
G01X2393Y1665D02*
G01X2453Y1703D01*
G01X2361Y1739D02*
G01X2355Y1750D01*
G01X2339Y1766D01*
G01X2453Y1766D01*
G54D37*
G01X5087Y5926D02*
G01X5087Y5937D01*
G01X5098Y5958D01*
G01X5109Y5969D01*
G01X5130Y5980D01*
G01X5174Y5980D01*
G01X5196Y5969D01*
G01X5207Y5958D01*
G01X5218Y5937D01*
G01X5218Y5915D01*
G01X5207Y5893D01*
G01X5185Y5860D01*
G01X5076Y5751D01*
G01X5229Y5751D01*
G01X5311Y5926D02*
G01X5311Y5937D01*
G01X5322Y5958D01*
G01X5333Y5969D01*
G01X5355Y5980D01*
G01X5399Y5980D01*
G01X5421Y5969D01*
G01X5431Y5958D01*
G01X5442Y5937D01*
G01X5442Y5915D01*
G01X5431Y5893D01*
G01X5410Y5860D01*
G01X5301Y5751D01*
G01X5453Y5751D01*
G01X5525Y5904D02*
G01X5525Y5795D01*
G01X5536Y5762D01*
G01X5558Y5751D01*
G01X5591Y5751D01*
G01X5613Y5762D01*
G01X5645Y5795D01*
G01X5645Y5904D02*
G01X5645Y5751D01*
G01X6589Y1907D02*
G01X6578Y1907D01*
G01X6556Y1918D01*
G01X6545Y1929D01*
G01X6534Y1951D01*
G01X6534Y1995D01*
G01X6545Y2017D01*
G01X6556Y2028D01*
G01X6578Y2038D01*
G01X6600Y2038D01*
G01X6621Y2028D01*
G01X6654Y2005D01*
G01X6763Y1897D01*
G01X6763Y2049D01*
G01X6589Y2132D02*
G01X6578Y2132D01*
G01X6556Y2143D01*
G01X6545Y2154D01*
G01X6534Y2176D01*
G01X6534Y2220D01*
G01X6545Y2241D01*
G01X6556Y2252D01*
G01X6578Y2263D01*
G01X6600Y2263D01*
G01X6621Y2252D01*
G01X6654Y2230D01*
G01X6763Y2121D01*
G01X6763Y2274D01*
G01X6611Y2346D02*
G01X6720Y2346D01*
G01X6752Y2357D01*
G01X6763Y2379D01*
G01X6763Y2412D01*
G01X6752Y2433D01*
G01X6720Y2466D01*
G01X6611Y2466D02*
G01X6763Y2466D01*
G54D38*
G01X8248Y954D02*
G01X8582Y954D01*
G01X8582Y954D02*
G01X8582Y1145D01*
G01X8248Y1250D02*
G01X8582Y1250D01*
G01X8248Y1250D02*
G01X8248Y1393D01*
G01X8264Y1441D01*
G01X8280Y1457D01*
G01X8312Y1473D01*
G01X8360Y1473D01*
G01X8391Y1457D01*
G01X8407Y1441D01*
G01X8423Y1393D01*
G01X8423Y1250D01*
G01X8296Y1801D02*
G01X8264Y1769D01*
G01X8248Y1721D01*
G01X8248Y1657D01*
G01X8264Y1610D01*
G01X8296Y1578D01*
G01X8328Y1578D01*
G01X8360Y1594D01*
G01X8375Y1610D01*
G01X8391Y1642D01*
G01X8423Y1737D01*
G01X8439Y1769D01*
G01X8455Y1785D01*
G01X8487Y1801D01*
G01X8535Y1801D01*
G01X8566Y1769D01*
G01X8582Y1721D01*
G01X8582Y1657D01*
G01X8566Y1610D01*
G01X8535Y1578D01*
G01X8439Y1906D02*
G01X8439Y2192D01*
G01X8312Y2297D02*
G01X8296Y2329D01*
G01X8248Y2377D01*
G01X8582Y2377D01*
G54D29*
G75*
G01X4366Y3815D02*
G03X4368Y3815I-18J-315D01*
G01*
G75*
G01X5843Y2658D02*
G03X5842Y2655I-26J-1D01*
G01*
G54D32*
G75*
G01X11122Y2024D02*
G03X11122Y2026I453J1D01*
G01*
G54D29*
G75*
G01X8524Y2293D02*
G03X8522Y2293I-1J79D01*
G01*
G54D15*
G75*
G01X6250Y4518D02*
G03X6250Y4516I-39J1D01*
G01*

%LPD*%
G36*
G01X7682Y5560D02*
G01X7672Y5560D01*
G01X7662Y5559D01*
G01X7652Y5557D01*
G01X7643Y5553D01*
G01X7634Y5548D01*
G01X7627Y5542D01*
G01X7619Y5536D01*
G01X7613Y5528D01*
G01X7608Y5520D01*
G01X7603Y5511D01*
G01X7600Y5501D01*
G01X7598Y5492D01*
G01X7598Y5472D01*
G01X7600Y5462D01*
G01X7603Y5453D01*
G01X7608Y5444D01*
G01X7613Y5436D01*
G01X7619Y5428D01*
G01X7627Y5421D01*
G01X7634Y5415D01*
G01X7652Y5407D01*
G01X7662Y5404D01*
G01X7672Y5403D01*
G01X7682Y5403D01*
G01X7691Y5404D01*
G01X7701Y5407D01*
G01X7719Y5415D01*
G01X7727Y5421D01*
G01X7734Y5428D01*
G01X7746Y5444D01*
G01X7750Y5453D01*
G01X7753Y5462D01*
G01X7755Y5472D01*
G01X7755Y5492D01*
G01X7753Y5501D01*
G01X7750Y5511D01*
G01X7746Y5520D01*
G01X7734Y5536D01*
G01X7727Y5542D01*
G01X7719Y5548D01*
G01X7710Y5553D01*
G01X7701Y5557D01*
G01X7691Y5559D01*
G01X7682Y5560D01*
G37*
M00*
M02*
