;Layer: Drill PTH
;EasyEDA v6.4.3, 2020-08-12T23:02:41+05:30
;0c64d8637b0b46b586c93cd23854d17d,10
;Gerber Generator version 0.2
M48
INCH,LZ,00.0000
;Holesize 1 = 0.007 INCH
T01C0.007
;Holesize 2 = 0.008 INCH
T02C0.008
;Holesize 3 = 0.040 INCH
T03C0.040
%
G05
G90
T01
X+014015Y+000866
X+014773Y+002736
X+015177Y+002283
X+009340Y+002342
X+002037Y+002962
X+001023Y+000826
X+002047Y+001614
X+004734Y+002165
X+004714Y+003307
X+005354Y+002165
X+010196Y+000905
X+003543Y+004488
X+014842Y+003661
X+015619Y+005885
X+003444Y+005551
X+010275Y+002490
X+012007Y+006348
X+011929Y+005511
X+009694Y+001899
X+014704Y+003326
X+007509Y+004133
X+009537Y+003602
X+009488Y+004153
X+008002Y+006446
X+006850Y+004665
X+005580Y+004813
X+012293Y+005462
X+012578Y+005472
X+013941Y+005502
X+014469Y+005641
X+013661Y+004365
X+013041Y+004256
X+013941Y+004055
X+014955Y+004586
X+013641Y+002618
X+010674Y+001555
X+013815Y+002830
X+012841Y+004434
X+005954Y+004911
X+016771Y+001299
X+004045Y+003503
X+009665Y+002552
X+004055Y+003759
X+009872Y+002352
X+015767Y+002765
X+015659Y+004173
X+016102Y+001102
X+016171Y+004635
X+007696Y+002898
X+012666Y+004020
X+012590Y+003722
X+014558Y+003079
X+012977Y+001072
X+010246Y+001735
X+011476Y+005374
X+006702Y+003444
X+004350Y+001998
X+011939Y+004734
X+015194Y+005570
X+013011Y+000580
X+014936Y+005580
X+011804Y+003942
X+012509Y+002268
X+013277Y+001146
X+011115Y+003048
T02
X+013759Y+002007
X+008828Y+001328
X+009350Y+001318
X+011692Y+004734
X+013070Y+004015
X+014438Y+001289
X+015935Y+000816
X+007086Y+003346
X+007255Y+004453
X+009108Y+001257
X+006683Y+004114
X+009143Y+003093
X+008033Y+000730
X+010558Y+001336
X+003941Y+000659
X+008332Y+001146
X+004301Y+001456
X+007155Y+005078
X+006898Y+004242
X+008651Y+004045
X+006456Y+004212
X+008871Y+000880
X+010649Y+000971
X+014960Y+001082
X+015354Y+001082
X+004783Y+005216
X+015684Y+001875
X+009801Y+004417
X+004202Y+002185
X+006279Y+001663
X+008009Y+003722
X+014994Y+002829
X+004360Y+004035
X+006126Y+003371
X+005851Y+004493
X+003809Y+005433
X+001653Y+005787
X+000713Y+006028
X+001402Y+001215
X+000629Y+001220
X+011921Y+003059
X+006023Y+006368
X+002470Y+005462
X+005364Y+003184
X+005502Y+003897
X+005134Y+003410
X+005767Y+003922
X+011702Y+003460
X+006978Y+006141
X+011025Y+005333
X+012384Y+004161
X+013011Y+002076
X+009980Y+004232
X+009881Y+004645
X+013366Y+002083
X+002815Y+005531
X+010757Y+002490
X+013041Y+002691
X+012220Y+004738
X+010541Y+003572
X+014153Y+001643
X+009960Y+003572
X+010537Y+003271
X+011100Y+003614
X+008769Y+003066
X+007145Y+003673
X+009151Y+003978
X+011186Y+005509
X+010941Y+005104
X+014478Y+006040
X+010009Y+006035
X+013021Y+006066
X+013238Y+005866
X+005314Y+001318
X+007239Y+001653
X+007244Y+001456
X+008260Y+005521
X+007657Y+005236
X+011047Y+004443
X+008196Y+004127
X+007460Y+004830
X+008346Y+002933
X+009646Y+001293
X+007736Y+001663
X+011019Y+000584
X+014586Y+001653
T03
X+001500Y+000501G85X+001500Y+000499
X+002500Y+000501G85X+002500Y+000499
X+003500Y+000501G85X+003500Y+000499
X+004500Y+000501G85X+004500Y+000499
X+005500Y+000501G85X+005500Y+000499
X+006500Y+000501G85X+006500Y+000499
X+007500Y+000501G85X+007500Y+000499
X+008500Y+000501G85X+008500Y+000499
X+009500Y+000501G85X+009500Y+000499
X+010500Y+000501G85X+010500Y+000499
X+011500Y+000501G85X+011500Y+000499
X+012500Y+000501G85X+012500Y+000499
X+013500Y+000501G85X+013500Y+000499
X+014500Y+000501G85X+014500Y+000499
X+015500Y+000501G85X+015500Y+000499
X+015500Y+006498G85X+015500Y+006501
X+014500Y+006498G85X+014500Y+006501
X+013500Y+006498G85X+013500Y+006501
X+012500Y+006498G85X+012500Y+006501
X+011500Y+006498G85X+011500Y+006501
X+010500Y+006498G85X+010500Y+006501
X+009500Y+006498G85X+009500Y+006501
X+008500Y+006498G85X+008500Y+006501
X+007500Y+006498G85X+007500Y+006501
X+006500Y+006498G85X+006500Y+006501
X+005500Y+006498G85X+005500Y+006501
X+004500Y+006498G85X+004500Y+006501
X+003500Y+006498G85X+003500Y+006501
X+002500Y+006498G85X+002500Y+006501
X+001500Y+006498G85X+001500Y+006501
M30
