G04 Layer: TopPasteMaskLayer*
G04 EasyEDA v6.4.3, 2020-08-12T23:02:41+05:30*
G04 0c64d8637b0b46b586c93cd23854d17d,10*
G04 Gerber Generator version 0.2*
G04 Scale: 100 percent, Rotated: No, Reflected: No *
G04 Dimensions in inches *
G04 leading zeros omitted , absolute positions ,2 integer and 4 decimal *
%FSLAX24Y24*%
%MOIN*%
G90*
G70D02*

%ADD19R,0.029530X0.045280*%
%ADD20R,0.055120X0.037400*%
%ADD22R,0.027560X0.045280*%
%ADD24R,0.017720X0.017720*%
%ADD25R,0.010630X0.017720*%
%ADD26R,0.017720X0.010630*%
%ADD27R,0.037400X0.017720*%
%ADD28R,0.023620X0.007870*%

%LPD*%
G36*
G01X8304Y1201D02*
G01X8304Y1201D01*
G01X8303Y1201D01*
G01X8303Y1202D01*
G01X8303Y1202D01*
G01X8302Y1202D01*
G01X8302Y1202D01*
G01X8302Y1203D01*
G01X8301Y1203D01*
G01X8301Y1203D01*
G01X8301Y1204D01*
G01X8301Y1204D01*
G01X8301Y1205D01*
G01X8301Y1205D01*
G01X8301Y1442D01*
G01X8301Y1442D01*
G01X8301Y1443D01*
G01X8301Y1443D01*
G01X8301Y1444D01*
G01X8301Y1444D01*
G01X8302Y1444D01*
G01X8302Y1445D01*
G01X8302Y1445D01*
G01X8303Y1445D01*
G01X8303Y1445D01*
G01X8303Y1445D01*
G01X8304Y1445D01*
G01X8304Y1445D01*
G01X8541Y1445D01*
G01X8542Y1445D01*
G01X8542Y1445D01*
G01X8542Y1445D01*
G01X8543Y1445D01*
G01X8543Y1445D01*
G01X8544Y1445D01*
G01X8544Y1444D01*
G01X8544Y1444D01*
G01X8544Y1444D01*
G01X8545Y1443D01*
G01X8545Y1443D01*
G01X8545Y1442D01*
G01X8545Y1442D01*
G01X8545Y1205D01*
G01X8545Y1205D01*
G01X8545Y1204D01*
G01X8545Y1204D01*
G01X8544Y1203D01*
G01X8544Y1203D01*
G01X8544Y1203D01*
G01X8544Y1202D01*
G01X8543Y1202D01*
G01X8543Y1202D01*
G01X8542Y1202D01*
G01X8542Y1201D01*
G01X8542Y1201D01*
G01X8541Y1201D01*
G01X8304Y1201D01*
G37*
G36*
G01X8304Y1556D02*
G01X8304Y1556D01*
G01X8303Y1556D01*
G01X8303Y1556D01*
G01X8303Y1556D01*
G01X8302Y1556D01*
G01X8302Y1557D01*
G01X8302Y1557D01*
G01X8301Y1557D01*
G01X8301Y1558D01*
G01X8301Y1558D01*
G01X8301Y1558D01*
G01X8301Y1559D01*
G01X8301Y1559D01*
G01X8301Y1796D01*
G01X8301Y1797D01*
G01X8301Y1797D01*
G01X8301Y1797D01*
G01X8301Y1798D01*
G01X8301Y1798D01*
G01X8302Y1798D01*
G01X8302Y1799D01*
G01X8302Y1799D01*
G01X8303Y1799D01*
G01X8303Y1800D01*
G01X8303Y1800D01*
G01X8304Y1800D01*
G01X8304Y1800D01*
G01X8541Y1800D01*
G01X8542Y1800D01*
G01X8542Y1800D01*
G01X8542Y1800D01*
G01X8543Y1799D01*
G01X8543Y1799D01*
G01X8544Y1799D01*
G01X8544Y1798D01*
G01X8544Y1798D01*
G01X8544Y1798D01*
G01X8545Y1797D01*
G01X8545Y1797D01*
G01X8545Y1797D01*
G01X8545Y1796D01*
G01X8545Y1559D01*
G01X8545Y1559D01*
G01X8545Y1558D01*
G01X8545Y1558D01*
G01X8544Y1558D01*
G01X8544Y1557D01*
G01X8544Y1557D01*
G01X8544Y1557D01*
G01X8543Y1556D01*
G01X8543Y1556D01*
G01X8542Y1556D01*
G01X8542Y1556D01*
G01X8542Y1556D01*
G01X8541Y1556D01*
G01X8304Y1556D01*
G37*
G36*
G01X7915Y1196D02*
G01X7914Y1196D01*
G01X7914Y1197D01*
G01X7913Y1197D01*
G01X7913Y1197D01*
G01X7913Y1197D01*
G01X7912Y1197D01*
G01X7912Y1198D01*
G01X7912Y1198D01*
G01X7911Y1198D01*
G01X7911Y1199D01*
G01X7911Y1199D01*
G01X7911Y1200D01*
G01X7911Y1200D01*
G01X7911Y1437D01*
G01X7911Y1437D01*
G01X7911Y1438D01*
G01X7911Y1438D01*
G01X7911Y1439D01*
G01X7912Y1439D01*
G01X7912Y1439D01*
G01X7912Y1440D01*
G01X7913Y1440D01*
G01X7913Y1440D01*
G01X7913Y1440D01*
G01X7914Y1440D01*
G01X7914Y1440D01*
G01X7915Y1440D01*
G01X8151Y1440D01*
G01X8152Y1440D01*
G01X8152Y1440D01*
G01X8153Y1440D01*
G01X8153Y1440D01*
G01X8153Y1440D01*
G01X8154Y1440D01*
G01X8154Y1439D01*
G01X8154Y1439D01*
G01X8155Y1439D01*
G01X8155Y1438D01*
G01X8155Y1438D01*
G01X8155Y1437D01*
G01X8155Y1437D01*
G01X8155Y1200D01*
G01X8155Y1200D01*
G01X8155Y1199D01*
G01X8155Y1199D01*
G01X8155Y1198D01*
G01X8154Y1198D01*
G01X8154Y1198D01*
G01X8154Y1197D01*
G01X8153Y1197D01*
G01X8153Y1197D01*
G01X8153Y1197D01*
G01X8152Y1197D01*
G01X8152Y1196D01*
G01X8151Y1196D01*
G01X7915Y1196D01*
G37*
G36*
G01X7915Y1551D02*
G01X7914Y1551D01*
G01X7914Y1551D01*
G01X7913Y1551D01*
G01X7913Y1551D01*
G01X7913Y1551D01*
G01X7912Y1552D01*
G01X7912Y1552D01*
G01X7912Y1552D01*
G01X7911Y1553D01*
G01X7911Y1553D01*
G01X7911Y1554D01*
G01X7911Y1554D01*
G01X7911Y1554D01*
G01X7911Y1791D01*
G01X7911Y1792D01*
G01X7911Y1792D01*
G01X7911Y1792D01*
G01X7911Y1793D01*
G01X7912Y1793D01*
G01X7912Y1794D01*
G01X7912Y1794D01*
G01X7913Y1794D01*
G01X7913Y1794D01*
G01X7913Y1795D01*
G01X7914Y1795D01*
G01X7914Y1795D01*
G01X7915Y1795D01*
G01X8151Y1795D01*
G01X8152Y1795D01*
G01X8152Y1795D01*
G01X8153Y1795D01*
G01X8153Y1794D01*
G01X8153Y1794D01*
G01X8154Y1794D01*
G01X8154Y1794D01*
G01X8154Y1793D01*
G01X8155Y1793D01*
G01X8155Y1792D01*
G01X8155Y1792D01*
G01X8155Y1792D01*
G01X8155Y1791D01*
G01X8155Y1554D01*
G01X8155Y1554D01*
G01X8155Y1554D01*
G01X8155Y1553D01*
G01X8155Y1553D01*
G01X8154Y1552D01*
G01X8154Y1552D01*
G01X8154Y1552D01*
G01X8153Y1551D01*
G01X8153Y1551D01*
G01X8153Y1551D01*
G01X8152Y1551D01*
G01X8152Y1551D01*
G01X8151Y1551D01*
G01X7915Y1551D01*
G37*
G36*
G01X3064Y1907D02*
G01X3064Y1907D01*
G01X3064Y1907D01*
G01X3064Y1907D01*
G01X3065Y1907D01*
G01X3065Y1907D01*
G01X3065Y1907D01*
G01X3065Y1906D01*
G01X3065Y1906D01*
G01X3065Y1906D01*
G01X3065Y1906D01*
G01X3065Y1906D01*
G01X3065Y1905D01*
G01X3065Y1905D01*
G01X3065Y1791D01*
G01X3065Y1790D01*
G01X3065Y1790D01*
G01X3065Y1790D01*
G01X3065Y1790D01*
G01X3065Y1790D01*
G01X3065Y1789D01*
G01X3065Y1789D01*
G01X3065Y1789D01*
G01X3065Y1789D01*
G01X3064Y1789D01*
G01X3064Y1789D01*
G01X3064Y1789D01*
G01X3064Y1789D01*
G01X2733Y1789D01*
G01X2732Y1789D01*
G01X2732Y1789D01*
G01X2732Y1789D01*
G01X2732Y1789D01*
G01X2732Y1789D01*
G01X2731Y1789D01*
G01X2731Y1789D01*
G01X2731Y1790D01*
G01X2731Y1790D01*
G01X2731Y1790D01*
G01X2731Y1790D01*
G01X2731Y1790D01*
G01X2731Y1791D01*
G01X2731Y1905D01*
G01X2731Y1905D01*
G01X2731Y1906D01*
G01X2731Y1906D01*
G01X2731Y1906D01*
G01X2731Y1906D01*
G01X2731Y1906D01*
G01X2731Y1907D01*
G01X2732Y1907D01*
G01X2732Y1907D01*
G01X2732Y1907D01*
G01X2732Y1907D01*
G01X2732Y1907D01*
G01X2733Y1907D01*
G01X3064Y1907D01*
G37*
G36*
G01X3005Y1710D02*
G01X3005Y1710D01*
G01X3005Y1710D01*
G01X3005Y1710D01*
G01X3005Y1710D01*
G01X3006Y1710D01*
G01X3006Y1710D01*
G01X3006Y1710D01*
G01X3006Y1709D01*
G01X3006Y1709D01*
G01X3006Y1709D01*
G01X3006Y1709D01*
G01X3006Y1709D01*
G01X3006Y1708D01*
G01X3006Y1594D01*
G01X3006Y1594D01*
G01X3006Y1593D01*
G01X3006Y1593D01*
G01X3006Y1593D01*
G01X3006Y1593D01*
G01X3006Y1593D01*
G01X3006Y1593D01*
G01X3006Y1592D01*
G01X3005Y1592D01*
G01X3005Y1592D01*
G01X3005Y1592D01*
G01X3005Y1592D01*
G01X3005Y1592D01*
G01X2733Y1592D01*
G01X2732Y1592D01*
G01X2732Y1592D01*
G01X2732Y1592D01*
G01X2732Y1592D01*
G01X2732Y1592D01*
G01X2731Y1593D01*
G01X2731Y1593D01*
G01X2731Y1593D01*
G01X2731Y1593D01*
G01X2731Y1593D01*
G01X2731Y1593D01*
G01X2731Y1594D01*
G01X2731Y1594D01*
G01X2731Y1708D01*
G01X2731Y1709D01*
G01X2731Y1709D01*
G01X2731Y1709D01*
G01X2731Y1709D01*
G01X2731Y1709D01*
G01X2731Y1710D01*
G01X2731Y1710D01*
G01X2732Y1710D01*
G01X2732Y1710D01*
G01X2732Y1710D01*
G01X2732Y1710D01*
G01X2732Y1710D01*
G01X2733Y1710D01*
G01X3005Y1710D01*
G37*
G36*
G01X3005Y1513D02*
G01X3005Y1513D01*
G01X3005Y1513D01*
G01X3005Y1513D01*
G01X3005Y1513D01*
G01X3006Y1513D01*
G01X3006Y1513D01*
G01X3006Y1513D01*
G01X3006Y1513D01*
G01X3006Y1512D01*
G01X3006Y1512D01*
G01X3006Y1512D01*
G01X3006Y1512D01*
G01X3006Y1512D01*
G01X3006Y1397D01*
G01X3006Y1397D01*
G01X3006Y1397D01*
G01X3006Y1396D01*
G01X3006Y1396D01*
G01X3006Y1396D01*
G01X3006Y1396D01*
G01X3006Y1396D01*
G01X3006Y1396D01*
G01X3005Y1395D01*
G01X3005Y1395D01*
G01X3005Y1395D01*
G01X3005Y1395D01*
G01X3005Y1395D01*
G01X2733Y1395D01*
G01X2732Y1395D01*
G01X2732Y1395D01*
G01X2732Y1395D01*
G01X2732Y1395D01*
G01X2732Y1396D01*
G01X2731Y1396D01*
G01X2731Y1396D01*
G01X2731Y1396D01*
G01X2731Y1396D01*
G01X2731Y1396D01*
G01X2731Y1397D01*
G01X2731Y1397D01*
G01X2731Y1397D01*
G01X2731Y1512D01*
G01X2731Y1512D01*
G01X2731Y1512D01*
G01X2731Y1512D01*
G01X2731Y1512D01*
G01X2731Y1513D01*
G01X2731Y1513D01*
G01X2731Y1513D01*
G01X2732Y1513D01*
G01X2732Y1513D01*
G01X2732Y1513D01*
G01X2732Y1513D01*
G01X2732Y1513D01*
G01X2733Y1513D01*
G01X3005Y1513D01*
G37*
G36*
G01X3005Y1316D02*
G01X3005Y1316D01*
G01X3005Y1316D01*
G01X3005Y1316D01*
G01X3005Y1316D01*
G01X3006Y1316D01*
G01X3006Y1316D01*
G01X3006Y1316D01*
G01X3006Y1316D01*
G01X3006Y1316D01*
G01X3006Y1315D01*
G01X3006Y1315D01*
G01X3006Y1315D01*
G01X3006Y1315D01*
G01X3006Y1200D01*
G01X3006Y1200D01*
G01X3006Y1200D01*
G01X3006Y1200D01*
G01X3006Y1199D01*
G01X3006Y1199D01*
G01X3006Y1199D01*
G01X3006Y1199D01*
G01X3006Y1199D01*
G01X3005Y1199D01*
G01X3005Y1198D01*
G01X3005Y1198D01*
G01X3005Y1198D01*
G01X3005Y1198D01*
G01X2733Y1198D01*
G01X2732Y1198D01*
G01X2732Y1198D01*
G01X2732Y1198D01*
G01X2732Y1199D01*
G01X2732Y1199D01*
G01X2731Y1199D01*
G01X2731Y1199D01*
G01X2731Y1199D01*
G01X2731Y1199D01*
G01X2731Y1200D01*
G01X2731Y1200D01*
G01X2731Y1200D01*
G01X2731Y1200D01*
G01X2731Y1315D01*
G01X2731Y1315D01*
G01X2731Y1315D01*
G01X2731Y1315D01*
G01X2731Y1316D01*
G01X2731Y1316D01*
G01X2731Y1316D01*
G01X2731Y1316D01*
G01X2732Y1316D01*
G01X2732Y1316D01*
G01X2732Y1316D01*
G01X2732Y1316D01*
G01X2732Y1316D01*
G01X2733Y1316D01*
G01X3005Y1316D01*
G37*
G36*
G01X4205Y1316D02*
G01X4206Y1316D01*
G01X4206Y1316D01*
G01X4206Y1316D01*
G01X4206Y1316D01*
G01X4206Y1316D01*
G01X4207Y1316D01*
G01X4207Y1316D01*
G01X4207Y1316D01*
G01X4207Y1316D01*
G01X4207Y1315D01*
G01X4207Y1315D01*
G01X4207Y1315D01*
G01X4207Y1315D01*
G01X4207Y1200D01*
G01X4207Y1200D01*
G01X4207Y1200D01*
G01X4207Y1200D01*
G01X4207Y1199D01*
G01X4207Y1199D01*
G01X4207Y1199D01*
G01X4207Y1199D01*
G01X4206Y1199D01*
G01X4206Y1199D01*
G01X4206Y1198D01*
G01X4206Y1198D01*
G01X4206Y1198D01*
G01X4205Y1198D01*
G01X3933Y1198D01*
G01X3933Y1198D01*
G01X3933Y1198D01*
G01X3933Y1198D01*
G01X3933Y1199D01*
G01X3932Y1199D01*
G01X3932Y1199D01*
G01X3932Y1199D01*
G01X3932Y1199D01*
G01X3932Y1199D01*
G01X3932Y1200D01*
G01X3932Y1200D01*
G01X3932Y1200D01*
G01X3932Y1200D01*
G01X3932Y1315D01*
G01X3932Y1315D01*
G01X3932Y1315D01*
G01X3932Y1315D01*
G01X3932Y1316D01*
G01X3932Y1316D01*
G01X3932Y1316D01*
G01X3932Y1316D01*
G01X3932Y1316D01*
G01X3933Y1316D01*
G01X3933Y1316D01*
G01X3933Y1316D01*
G01X3933Y1316D01*
G01X3933Y1316D01*
G01X4205Y1316D01*
G37*
G36*
G01X4205Y1513D02*
G01X4206Y1513D01*
G01X4206Y1513D01*
G01X4206Y1513D01*
G01X4206Y1513D01*
G01X4206Y1513D01*
G01X4207Y1513D01*
G01X4207Y1513D01*
G01X4207Y1513D01*
G01X4207Y1512D01*
G01X4207Y1512D01*
G01X4207Y1512D01*
G01X4207Y1512D01*
G01X4207Y1512D01*
G01X4207Y1397D01*
G01X4207Y1397D01*
G01X4207Y1397D01*
G01X4207Y1396D01*
G01X4207Y1396D01*
G01X4207Y1396D01*
G01X4207Y1396D01*
G01X4207Y1396D01*
G01X4206Y1396D01*
G01X4206Y1395D01*
G01X4206Y1395D01*
G01X4206Y1395D01*
G01X4206Y1395D01*
G01X4205Y1395D01*
G01X3933Y1395D01*
G01X3933Y1395D01*
G01X3933Y1395D01*
G01X3933Y1395D01*
G01X3933Y1395D01*
G01X3932Y1396D01*
G01X3932Y1396D01*
G01X3932Y1396D01*
G01X3932Y1396D01*
G01X3932Y1396D01*
G01X3932Y1396D01*
G01X3932Y1397D01*
G01X3932Y1397D01*
G01X3932Y1397D01*
G01X3932Y1512D01*
G01X3932Y1512D01*
G01X3932Y1512D01*
G01X3932Y1512D01*
G01X3932Y1512D01*
G01X3932Y1513D01*
G01X3932Y1513D01*
G01X3932Y1513D01*
G01X3932Y1513D01*
G01X3933Y1513D01*
G01X3933Y1513D01*
G01X3933Y1513D01*
G01X3933Y1513D01*
G01X3933Y1513D01*
G01X4205Y1513D01*
G37*
G36*
G01X4205Y1710D02*
G01X4206Y1710D01*
G01X4206Y1710D01*
G01X4206Y1710D01*
G01X4206Y1710D01*
G01X4206Y1710D01*
G01X4207Y1710D01*
G01X4207Y1710D01*
G01X4207Y1709D01*
G01X4207Y1709D01*
G01X4207Y1709D01*
G01X4207Y1709D01*
G01X4207Y1709D01*
G01X4207Y1708D01*
G01X4207Y1594D01*
G01X4207Y1594D01*
G01X4207Y1593D01*
G01X4207Y1593D01*
G01X4207Y1593D01*
G01X4207Y1593D01*
G01X4207Y1593D01*
G01X4207Y1593D01*
G01X4206Y1592D01*
G01X4206Y1592D01*
G01X4206Y1592D01*
G01X4206Y1592D01*
G01X4206Y1592D01*
G01X4205Y1592D01*
G01X3933Y1592D01*
G01X3933Y1592D01*
G01X3933Y1592D01*
G01X3933Y1592D01*
G01X3933Y1592D01*
G01X3932Y1592D01*
G01X3932Y1593D01*
G01X3932Y1593D01*
G01X3932Y1593D01*
G01X3932Y1593D01*
G01X3932Y1593D01*
G01X3932Y1593D01*
G01X3932Y1594D01*
G01X3932Y1594D01*
G01X3932Y1708D01*
G01X3932Y1709D01*
G01X3932Y1709D01*
G01X3932Y1709D01*
G01X3932Y1709D01*
G01X3932Y1709D01*
G01X3932Y1710D01*
G01X3932Y1710D01*
G01X3932Y1710D01*
G01X3933Y1710D01*
G01X3933Y1710D01*
G01X3933Y1710D01*
G01X3933Y1710D01*
G01X3933Y1710D01*
G01X4205Y1710D01*
G37*
G36*
G01X4205Y1907D02*
G01X4206Y1907D01*
G01X4206Y1907D01*
G01X4206Y1907D01*
G01X4206Y1907D01*
G01X4206Y1907D01*
G01X4207Y1907D01*
G01X4207Y1906D01*
G01X4207Y1906D01*
G01X4207Y1906D01*
G01X4207Y1906D01*
G01X4207Y1906D01*
G01X4207Y1905D01*
G01X4207Y1905D01*
G01X4207Y1791D01*
G01X4207Y1790D01*
G01X4207Y1790D01*
G01X4207Y1790D01*
G01X4207Y1790D01*
G01X4207Y1790D01*
G01X4207Y1789D01*
G01X4207Y1789D01*
G01X4206Y1789D01*
G01X4206Y1789D01*
G01X4206Y1789D01*
G01X4206Y1789D01*
G01X4206Y1789D01*
G01X4205Y1789D01*
G01X3933Y1789D01*
G01X3933Y1789D01*
G01X3933Y1789D01*
G01X3933Y1789D01*
G01X3933Y1789D01*
G01X3932Y1789D01*
G01X3932Y1789D01*
G01X3932Y1789D01*
G01X3932Y1790D01*
G01X3932Y1790D01*
G01X3932Y1790D01*
G01X3932Y1790D01*
G01X3932Y1790D01*
G01X3932Y1791D01*
G01X3932Y1905D01*
G01X3932Y1905D01*
G01X3932Y1906D01*
G01X3932Y1906D01*
G01X3932Y1906D01*
G01X3932Y1906D01*
G01X3932Y1906D01*
G01X3932Y1907D01*
G01X3932Y1907D01*
G01X3933Y1907D01*
G01X3933Y1907D01*
G01X3933Y1907D01*
G01X3933Y1907D01*
G01X3933Y1907D01*
G01X4205Y1907D01*
G37*
G36*
G01X3736Y1868D02*
G01X3737Y1868D01*
G01X3738Y1867D01*
G01X3739Y1867D01*
G01X3740Y1867D01*
G01X3741Y1866D01*
G01X3742Y1866D01*
G01X3743Y1865D01*
G01X3743Y1864D01*
G01X3744Y1863D01*
G01X3744Y1862D01*
G01X3744Y1861D01*
G01X3745Y1860D01*
G01X3745Y1859D01*
G01X3745Y1246D01*
G01X3745Y1245D01*
G01X3744Y1244D01*
G01X3744Y1243D01*
G01X3744Y1242D01*
G01X3743Y1241D01*
G01X3743Y1241D01*
G01X3742Y1240D01*
G01X3741Y1239D01*
G01X3740Y1239D01*
G01X3739Y1238D01*
G01X3738Y1238D01*
G01X3737Y1238D01*
G01X3736Y1238D01*
G01X3202Y1238D01*
G01X3201Y1238D01*
G01X3200Y1238D01*
G01X3199Y1238D01*
G01X3198Y1239D01*
G01X3197Y1239D01*
G01X3196Y1240D01*
G01X3196Y1241D01*
G01X3195Y1241D01*
G01X3194Y1242D01*
G01X3194Y1243D01*
G01X3194Y1244D01*
G01X3194Y1245D01*
G01X3193Y1246D01*
G01X3193Y1859D01*
G01X3194Y1860D01*
G01X3194Y1861D01*
G01X3194Y1862D01*
G01X3194Y1863D01*
G01X3195Y1864D01*
G01X3196Y1865D01*
G01X3196Y1866D01*
G01X3197Y1866D01*
G01X3198Y1867D01*
G01X3199Y1867D01*
G01X3200Y1867D01*
G01X3201Y1868D01*
G01X3202Y1868D01*
G01X3736Y1868D01*
G37*
G36*
G01X4191Y2061D02*
G01X4191Y2061D01*
G01X4191Y2060D01*
G01X4191Y2060D01*
G01X4191Y2060D01*
G01X4191Y2059D01*
G01X4191Y2059D01*
G01X4190Y2059D01*
G01X4190Y2058D01*
G01X4190Y2058D01*
G01X4189Y2058D01*
G01X4189Y2058D01*
G01X4188Y2058D01*
G01X4188Y2058D01*
G01X3951Y2058D01*
G01X3951Y2058D01*
G01X3950Y2058D01*
G01X3950Y2058D01*
G01X3949Y2058D01*
G01X3949Y2058D01*
G01X3949Y2059D01*
G01X3948Y2059D01*
G01X3948Y2059D01*
G01X3948Y2060D01*
G01X3948Y2060D01*
G01X3947Y2060D01*
G01X3947Y2061D01*
G01X3947Y2061D01*
G01X3947Y2298D01*
G01X3947Y2298D01*
G01X3947Y2299D01*
G01X3948Y2299D01*
G01X3948Y2300D01*
G01X3948Y2300D01*
G01X3948Y2300D01*
G01X3949Y2301D01*
G01X3949Y2301D01*
G01X3949Y2301D01*
G01X3950Y2301D01*
G01X3950Y2302D01*
G01X3951Y2302D01*
G01X3951Y2302D01*
G01X4188Y2302D01*
G01X4188Y2302D01*
G01X4189Y2302D01*
G01X4189Y2301D01*
G01X4190Y2301D01*
G01X4190Y2301D01*
G01X4190Y2301D01*
G01X4191Y2300D01*
G01X4191Y2300D01*
G01X4191Y2300D01*
G01X4191Y2299D01*
G01X4191Y2299D01*
G01X4191Y2298D01*
G01X4191Y2298D01*
G01X4191Y2061D01*
G37*
G36*
G01X3837Y2061D02*
G01X3837Y2061D01*
G01X3837Y2060D01*
G01X3837Y2060D01*
G01X3837Y2060D01*
G01X3836Y2059D01*
G01X3836Y2059D01*
G01X3836Y2059D01*
G01X3836Y2058D01*
G01X3835Y2058D01*
G01X3835Y2058D01*
G01X3834Y2058D01*
G01X3834Y2058D01*
G01X3833Y2058D01*
G01X3597Y2058D01*
G01X3596Y2058D01*
G01X3596Y2058D01*
G01X3595Y2058D01*
G01X3595Y2058D01*
G01X3595Y2058D01*
G01X3594Y2059D01*
G01X3594Y2059D01*
G01X3594Y2059D01*
G01X3593Y2060D01*
G01X3593Y2060D01*
G01X3593Y2060D01*
G01X3593Y2061D01*
G01X3593Y2061D01*
G01X3593Y2298D01*
G01X3593Y2298D01*
G01X3593Y2299D01*
G01X3593Y2299D01*
G01X3593Y2300D01*
G01X3594Y2300D01*
G01X3594Y2300D01*
G01X3594Y2301D01*
G01X3595Y2301D01*
G01X3595Y2301D01*
G01X3595Y2301D01*
G01X3596Y2302D01*
G01X3596Y2302D01*
G01X3597Y2302D01*
G01X3833Y2302D01*
G01X3834Y2302D01*
G01X3834Y2302D01*
G01X3835Y2301D01*
G01X3835Y2301D01*
G01X3836Y2301D01*
G01X3836Y2301D01*
G01X3836Y2300D01*
G01X3836Y2300D01*
G01X3837Y2300D01*
G01X3837Y2299D01*
G01X3837Y2299D01*
G01X3837Y2298D01*
G01X3837Y2298D01*
G01X3837Y2061D01*
G37*
G36*
G01X1431Y3933D02*
G01X1431Y3933D01*
G01X1430Y3933D01*
G01X1430Y3933D01*
G01X1430Y3933D01*
G01X1430Y3933D01*
G01X1429Y3933D01*
G01X1429Y3933D01*
G01X1429Y3934D01*
G01X1429Y3934D01*
G01X1429Y3934D01*
G01X1429Y3934D01*
G01X1429Y3935D01*
G01X1429Y3935D01*
G01X1429Y4088D01*
G01X1429Y4088D01*
G01X1429Y4088D01*
G01X1429Y4089D01*
G01X1429Y4089D01*
G01X1429Y4089D01*
G01X1429Y4089D01*
G01X1429Y4089D01*
G01X1430Y4090D01*
G01X1430Y4090D01*
G01X1430Y4090D01*
G01X1430Y4090D01*
G01X1431Y4090D01*
G01X1431Y4090D01*
G01X1958Y4090D01*
G01X1958Y4090D01*
G01X1958Y4090D01*
G01X1959Y4090D01*
G01X1959Y4090D01*
G01X1959Y4090D01*
G01X1959Y4089D01*
G01X1960Y4089D01*
G01X1960Y4089D01*
G01X1960Y4089D01*
G01X1960Y4089D01*
G01X1960Y4088D01*
G01X1960Y4088D01*
G01X1960Y4088D01*
G01X1960Y3935D01*
G01X1960Y3935D01*
G01X1960Y3934D01*
G01X1960Y3934D01*
G01X1960Y3934D01*
G01X1960Y3934D01*
G01X1960Y3933D01*
G01X1959Y3933D01*
G01X1959Y3933D01*
G01X1959Y3933D01*
G01X1959Y3933D01*
G01X1958Y3933D01*
G01X1958Y3933D01*
G01X1958Y3933D01*
G01X1431Y3933D01*
G37*
G36*
G01X1431Y3677D02*
G01X1431Y3677D01*
G01X1430Y3677D01*
G01X1430Y3677D01*
G01X1430Y3677D01*
G01X1430Y3677D01*
G01X1429Y3677D01*
G01X1429Y3678D01*
G01X1429Y3678D01*
G01X1429Y3678D01*
G01X1429Y3678D01*
G01X1429Y3679D01*
G01X1429Y3679D01*
G01X1429Y3679D01*
G01X1429Y3832D01*
G01X1429Y3832D01*
G01X1429Y3832D01*
G01X1429Y3833D01*
G01X1429Y3833D01*
G01X1429Y3833D01*
G01X1429Y3833D01*
G01X1429Y3834D01*
G01X1430Y3834D01*
G01X1430Y3834D01*
G01X1430Y3834D01*
G01X1430Y3834D01*
G01X1431Y3834D01*
G01X1431Y3834D01*
G01X1958Y3834D01*
G01X1958Y3834D01*
G01X1958Y3834D01*
G01X1959Y3834D01*
G01X1959Y3834D01*
G01X1959Y3834D01*
G01X1959Y3834D01*
G01X1960Y3833D01*
G01X1960Y3833D01*
G01X1960Y3833D01*
G01X1960Y3833D01*
G01X1960Y3832D01*
G01X1960Y3832D01*
G01X1960Y3832D01*
G01X1960Y3679D01*
G01X1960Y3679D01*
G01X1960Y3679D01*
G01X1960Y3678D01*
G01X1960Y3678D01*
G01X1960Y3678D01*
G01X1960Y3678D01*
G01X1959Y3677D01*
G01X1959Y3677D01*
G01X1959Y3677D01*
G01X1959Y3677D01*
G01X1958Y3677D01*
G01X1958Y3677D01*
G01X1958Y3677D01*
G01X1431Y3677D01*
G37*
G36*
G01X1431Y3421D02*
G01X1431Y3421D01*
G01X1430Y3421D01*
G01X1430Y3421D01*
G01X1430Y3421D01*
G01X1430Y3421D01*
G01X1429Y3421D01*
G01X1429Y3422D01*
G01X1429Y3422D01*
G01X1429Y3422D01*
G01X1429Y3422D01*
G01X1429Y3422D01*
G01X1429Y3423D01*
G01X1429Y3423D01*
G01X1429Y3576D01*
G01X1429Y3576D01*
G01X1429Y3576D01*
G01X1429Y3577D01*
G01X1429Y3577D01*
G01X1429Y3577D01*
G01X1429Y3577D01*
G01X1429Y3578D01*
G01X1430Y3578D01*
G01X1430Y3578D01*
G01X1430Y3578D01*
G01X1430Y3578D01*
G01X1431Y3578D01*
G01X1431Y3578D01*
G01X1958Y3578D01*
G01X1958Y3578D01*
G01X1958Y3578D01*
G01X1959Y3578D01*
G01X1959Y3578D01*
G01X1959Y3578D01*
G01X1959Y3578D01*
G01X1960Y3577D01*
G01X1960Y3577D01*
G01X1960Y3577D01*
G01X1960Y3577D01*
G01X1960Y3576D01*
G01X1960Y3576D01*
G01X1960Y3576D01*
G01X1960Y3423D01*
G01X1960Y3423D01*
G01X1960Y3422D01*
G01X1960Y3422D01*
G01X1960Y3422D01*
G01X1960Y3422D01*
G01X1960Y3422D01*
G01X1959Y3421D01*
G01X1959Y3421D01*
G01X1959Y3421D01*
G01X1959Y3421D01*
G01X1958Y3421D01*
G01X1958Y3421D01*
G01X1958Y3421D01*
G01X1431Y3421D01*
G37*
G36*
G01X1431Y3165D02*
G01X1431Y3165D01*
G01X1430Y3165D01*
G01X1430Y3165D01*
G01X1430Y3165D01*
G01X1430Y3165D01*
G01X1429Y3165D01*
G01X1429Y3166D01*
G01X1429Y3166D01*
G01X1429Y3166D01*
G01X1429Y3166D01*
G01X1429Y3167D01*
G01X1429Y3167D01*
G01X1429Y3167D01*
G01X1429Y3320D01*
G01X1429Y3320D01*
G01X1429Y3321D01*
G01X1429Y3321D01*
G01X1429Y3321D01*
G01X1429Y3321D01*
G01X1429Y3322D01*
G01X1429Y3322D01*
G01X1430Y3322D01*
G01X1430Y3322D01*
G01X1430Y3322D01*
G01X1430Y3322D01*
G01X1431Y3322D01*
G01X1431Y3322D01*
G01X1958Y3322D01*
G01X1958Y3322D01*
G01X1958Y3322D01*
G01X1959Y3322D01*
G01X1959Y3322D01*
G01X1959Y3322D01*
G01X1959Y3322D01*
G01X1960Y3322D01*
G01X1960Y3321D01*
G01X1960Y3321D01*
G01X1960Y3321D01*
G01X1960Y3321D01*
G01X1960Y3320D01*
G01X1960Y3320D01*
G01X1960Y3167D01*
G01X1960Y3167D01*
G01X1960Y3167D01*
G01X1960Y3166D01*
G01X1960Y3166D01*
G01X1960Y3166D01*
G01X1960Y3166D01*
G01X1959Y3165D01*
G01X1959Y3165D01*
G01X1959Y3165D01*
G01X1959Y3165D01*
G01X1958Y3165D01*
G01X1958Y3165D01*
G01X1958Y3165D01*
G01X1431Y3165D01*
G37*
G36*
G01X1431Y2909D02*
G01X1431Y2909D01*
G01X1430Y2909D01*
G01X1430Y2909D01*
G01X1430Y2909D01*
G01X1430Y2909D01*
G01X1429Y2910D01*
G01X1429Y2910D01*
G01X1429Y2910D01*
G01X1429Y2910D01*
G01X1429Y2911D01*
G01X1429Y2911D01*
G01X1429Y2911D01*
G01X1429Y2911D01*
G01X1429Y3064D01*
G01X1429Y3064D01*
G01X1429Y3065D01*
G01X1429Y3065D01*
G01X1429Y3065D01*
G01X1429Y3065D01*
G01X1429Y3066D01*
G01X1429Y3066D01*
G01X1430Y3066D01*
G01X1430Y3066D01*
G01X1430Y3066D01*
G01X1430Y3066D01*
G01X1431Y3066D01*
G01X1431Y3066D01*
G01X1958Y3066D01*
G01X1958Y3066D01*
G01X1958Y3066D01*
G01X1959Y3066D01*
G01X1959Y3066D01*
G01X1959Y3066D01*
G01X1959Y3066D01*
G01X1960Y3066D01*
G01X1960Y3065D01*
G01X1960Y3065D01*
G01X1960Y3065D01*
G01X1960Y3065D01*
G01X1960Y3064D01*
G01X1960Y3064D01*
G01X1960Y2911D01*
G01X1960Y2911D01*
G01X1960Y2911D01*
G01X1960Y2911D01*
G01X1960Y2910D01*
G01X1960Y2910D01*
G01X1960Y2910D01*
G01X1959Y2910D01*
G01X1959Y2909D01*
G01X1959Y2909D01*
G01X1959Y2909D01*
G01X1958Y2909D01*
G01X1958Y2909D01*
G01X1958Y2909D01*
G01X1431Y2909D01*
G37*
G36*
G01X1340Y1866D02*
G01X1339Y1866D01*
G01X1337Y1866D01*
G01X1336Y1866D01*
G01X1335Y1867D01*
G01X1334Y1867D01*
G01X1333Y1868D01*
G01X1333Y1869D01*
G01X1332Y1870D01*
G01X1331Y1871D01*
G01X1331Y1872D01*
G01X1331Y1873D01*
G01X1330Y1874D01*
G01X1330Y1875D01*
G01X1330Y2683D01*
G01X1330Y2684D01*
G01X1331Y2685D01*
G01X1331Y2686D01*
G01X1331Y2687D01*
G01X1332Y2688D01*
G01X1333Y2689D01*
G01X1333Y2690D01*
G01X1334Y2691D01*
G01X1335Y2691D01*
G01X1336Y2692D01*
G01X1337Y2692D01*
G01X1339Y2692D01*
G01X1340Y2692D01*
G01X1951Y2692D01*
G01X1952Y2692D01*
G01X1953Y2692D01*
G01X1954Y2692D01*
G01X1955Y2691D01*
G01X1956Y2691D01*
G01X1957Y2690D01*
G01X1958Y2689D01*
G01X1959Y2688D01*
G01X1959Y2687D01*
G01X1960Y2686D01*
G01X1960Y2685D01*
G01X1960Y2684D01*
G01X1960Y2683D01*
G01X1960Y1875D01*
G01X1960Y1874D01*
G01X1960Y1873D01*
G01X1960Y1872D01*
G01X1959Y1871D01*
G01X1959Y1870D01*
G01X1958Y1869D01*
G01X1957Y1868D01*
G01X1956Y1867D01*
G01X1955Y1867D01*
G01X1954Y1866D01*
G01X1953Y1866D01*
G01X1952Y1866D01*
G01X1951Y1866D01*
G01X1340Y1866D01*
G37*
G36*
G01X278Y1570D02*
G01X277Y1570D01*
G01X275Y1571D01*
G01X274Y1571D01*
G01X273Y1572D01*
G01X272Y1572D01*
G01X271Y1573D01*
G01X270Y1574D01*
G01X269Y1575D01*
G01X268Y1576D01*
G01X268Y1577D01*
G01X268Y1578D01*
G01X267Y1580D01*
G01X267Y1581D01*
G01X267Y2268D01*
G01X267Y2270D01*
G01X268Y2271D01*
G01X268Y2272D01*
G01X268Y2273D01*
G01X269Y2274D01*
G01X270Y2275D01*
G01X271Y2276D01*
G01X272Y2277D01*
G01X273Y2278D01*
G01X274Y2278D01*
G01X275Y2279D01*
G01X277Y2279D01*
G01X278Y2279D01*
G01X1005Y2279D01*
G01X1006Y2279D01*
G01X1007Y2279D01*
G01X1008Y2278D01*
G01X1010Y2278D01*
G01X1011Y2277D01*
G01X1012Y2276D01*
G01X1013Y2275D01*
G01X1013Y2274D01*
G01X1014Y2273D01*
G01X1015Y2272D01*
G01X1015Y2271D01*
G01X1015Y2270D01*
G01X1015Y2268D01*
G01X1015Y1581D01*
G01X1015Y1580D01*
G01X1015Y1578D01*
G01X1015Y1577D01*
G01X1014Y1576D01*
G01X1013Y1575D01*
G01X1013Y1574D01*
G01X1012Y1573D01*
G01X1011Y1572D01*
G01X1010Y1572D01*
G01X1008Y1571D01*
G01X1007Y1571D01*
G01X1006Y1570D01*
G01X1005Y1570D01*
G01X278Y1570D01*
G37*
G36*
G01X278Y2653D02*
G01X277Y2653D01*
G01X276Y2653D01*
G01X275Y2654D01*
G01X273Y2654D01*
G01X272Y2655D01*
G01X271Y2656D01*
G01X270Y2657D01*
G01X269Y2658D01*
G01X269Y2659D01*
G01X268Y2660D01*
G01X268Y2662D01*
G01X267Y2663D01*
G01X267Y2664D01*
G01X267Y3390D01*
G01X267Y3391D01*
G01X268Y3393D01*
G01X268Y3394D01*
G01X269Y3395D01*
G01X269Y3396D01*
G01X270Y3397D01*
G01X271Y3398D01*
G01X272Y3399D01*
G01X273Y3400D01*
G01X275Y3400D01*
G01X276Y3401D01*
G01X277Y3401D01*
G01X278Y3401D01*
G01X1004Y3401D01*
G01X1005Y3401D01*
G01X1007Y3401D01*
G01X1008Y3400D01*
G01X1009Y3400D01*
G01X1010Y3399D01*
G01X1011Y3398D01*
G01X1012Y3397D01*
G01X1013Y3396D01*
G01X1014Y3395D01*
G01X1015Y3394D01*
G01X1015Y3393D01*
G01X1015Y3391D01*
G01X1015Y3390D01*
G01X1015Y2664D01*
G01X1015Y2663D01*
G01X1015Y2662D01*
G01X1015Y2660D01*
G01X1014Y2659D01*
G01X1013Y2658D01*
G01X1012Y2657D01*
G01X1011Y2656D01*
G01X1010Y2655D01*
G01X1009Y2654D01*
G01X1008Y2654D01*
G01X1007Y2653D01*
G01X1005Y2653D01*
G01X1004Y2653D01*
G01X278Y2653D01*
G37*
G36*
G01X278Y3598D02*
G01X277Y3598D01*
G01X276Y3598D01*
G01X275Y3599D01*
G01X273Y3599D01*
G01X272Y3600D01*
G01X271Y3601D01*
G01X270Y3602D01*
G01X269Y3603D01*
G01X269Y3604D01*
G01X268Y3605D01*
G01X268Y3607D01*
G01X267Y3608D01*
G01X267Y3609D01*
G01X267Y4335D01*
G01X267Y4336D01*
G01X268Y4337D01*
G01X268Y4339D01*
G01X269Y4340D01*
G01X269Y4341D01*
G01X270Y4342D01*
G01X271Y4343D01*
G01X272Y4344D01*
G01X273Y4345D01*
G01X275Y4345D01*
G01X276Y4346D01*
G01X277Y4346D01*
G01X278Y4346D01*
G01X1004Y4346D01*
G01X1005Y4346D01*
G01X1007Y4346D01*
G01X1008Y4345D01*
G01X1009Y4345D01*
G01X1010Y4344D01*
G01X1011Y4343D01*
G01X1012Y4342D01*
G01X1013Y4341D01*
G01X1014Y4340D01*
G01X1015Y4339D01*
G01X1015Y4337D01*
G01X1015Y4336D01*
G01X1015Y4335D01*
G01X1015Y3609D01*
G01X1015Y3608D01*
G01X1015Y3607D01*
G01X1015Y3605D01*
G01X1014Y3604D01*
G01X1013Y3603D01*
G01X1012Y3602D01*
G01X1011Y3601D01*
G01X1010Y3600D01*
G01X1009Y3599D01*
G01X1008Y3599D01*
G01X1007Y3598D01*
G01X1005Y3598D01*
G01X1004Y3598D01*
G01X278Y3598D01*
G37*
G36*
G01X278Y4720D02*
G01X277Y4720D01*
G01X275Y4720D01*
G01X274Y4721D01*
G01X273Y4721D01*
G01X272Y4722D01*
G01X271Y4723D01*
G01X270Y4724D01*
G01X269Y4725D01*
G01X268Y4726D01*
G01X268Y4727D01*
G01X268Y4728D01*
G01X267Y4729D01*
G01X267Y4731D01*
G01X267Y5418D01*
G01X267Y5419D01*
G01X268Y5421D01*
G01X268Y5422D01*
G01X268Y5423D01*
G01X269Y5424D01*
G01X270Y5425D01*
G01X271Y5426D01*
G01X272Y5427D01*
G01X273Y5427D01*
G01X274Y5428D01*
G01X275Y5428D01*
G01X277Y5429D01*
G01X278Y5429D01*
G01X1005Y5429D01*
G01X1006Y5429D01*
G01X1007Y5428D01*
G01X1008Y5428D01*
G01X1010Y5427D01*
G01X1011Y5427D01*
G01X1012Y5426D01*
G01X1013Y5425D01*
G01X1013Y5424D01*
G01X1014Y5423D01*
G01X1015Y5422D01*
G01X1015Y5421D01*
G01X1015Y5419D01*
G01X1015Y5418D01*
G01X1015Y4731D01*
G01X1015Y4729D01*
G01X1015Y4728D01*
G01X1015Y4727D01*
G01X1014Y4726D01*
G01X1013Y4725D01*
G01X1013Y4724D01*
G01X1012Y4723D01*
G01X1011Y4722D01*
G01X1010Y4721D01*
G01X1008Y4721D01*
G01X1007Y4720D01*
G01X1006Y4720D01*
G01X1005Y4720D01*
G01X278Y4720D01*
G37*
G36*
G01X1340Y4307D02*
G01X1339Y4307D01*
G01X1337Y4307D01*
G01X1336Y4307D01*
G01X1335Y4308D01*
G01X1334Y4308D01*
G01X1333Y4309D01*
G01X1333Y4310D01*
G01X1332Y4311D01*
G01X1331Y4312D01*
G01X1331Y4313D01*
G01X1331Y4314D01*
G01X1330Y4315D01*
G01X1330Y4316D01*
G01X1330Y5124D01*
G01X1330Y5125D01*
G01X1331Y5126D01*
G01X1331Y5127D01*
G01X1331Y5128D01*
G01X1332Y5129D01*
G01X1333Y5130D01*
G01X1333Y5131D01*
G01X1334Y5132D01*
G01X1335Y5132D01*
G01X1336Y5133D01*
G01X1337Y5133D01*
G01X1339Y5133D01*
G01X1340Y5133D01*
G01X1951Y5133D01*
G01X1952Y5133D01*
G01X1953Y5133D01*
G01X1954Y5133D01*
G01X1955Y5132D01*
G01X1956Y5132D01*
G01X1957Y5131D01*
G01X1958Y5130D01*
G01X1959Y5129D01*
G01X1959Y5128D01*
G01X1960Y5127D01*
G01X1960Y5126D01*
G01X1960Y5125D01*
G01X1960Y5124D01*
G01X1960Y4316D01*
G01X1960Y4315D01*
G01X1960Y4314D01*
G01X1960Y4313D01*
G01X1959Y4312D01*
G01X1959Y4311D01*
G01X1958Y4310D01*
G01X1957Y4309D01*
G01X1956Y4308D01*
G01X1955Y4308D01*
G01X1954Y4307D01*
G01X1953Y4307D01*
G01X1952Y4307D01*
G01X1951Y4307D01*
G01X1340Y4307D01*
G37*
G36*
G01X2360Y3011D02*
G01X2359Y3011D01*
G01X2358Y3012D01*
G01X2358Y3012D01*
G01X2357Y3012D01*
G01X2356Y3012D01*
G01X2356Y3013D01*
G01X2355Y3013D01*
G01X2355Y3014D01*
G01X2355Y3015D01*
G01X2354Y3015D01*
G01X2354Y3016D01*
G01X2354Y3017D01*
G01X2354Y3017D01*
G01X2354Y3399D01*
G01X2354Y3400D01*
G01X2354Y3401D01*
G01X2354Y3401D01*
G01X2355Y3402D01*
G01X2355Y3403D01*
G01X2355Y3403D01*
G01X2356Y3404D01*
G01X2356Y3404D01*
G01X2357Y3404D01*
G01X2358Y3405D01*
G01X2358Y3405D01*
G01X2359Y3405D01*
G01X2360Y3405D01*
G01X2742Y3405D01*
G01X2742Y3405D01*
G01X2743Y3405D01*
G01X2744Y3405D01*
G01X2744Y3404D01*
G01X2745Y3404D01*
G01X2746Y3404D01*
G01X2746Y3403D01*
G01X2747Y3403D01*
G01X2747Y3402D01*
G01X2747Y3401D01*
G01X2747Y3401D01*
G01X2748Y3400D01*
G01X2748Y3399D01*
G01X2748Y3017D01*
G01X2748Y3017D01*
G01X2747Y3016D01*
G01X2747Y3015D01*
G01X2747Y3015D01*
G01X2747Y3014D01*
G01X2746Y3013D01*
G01X2746Y3013D01*
G01X2745Y3012D01*
G01X2744Y3012D01*
G01X2744Y3012D01*
G01X2743Y3012D01*
G01X2742Y3011D01*
G01X2742Y3011D01*
G01X2360Y3011D01*
G37*
G36*
G01X3105Y3011D02*
G01X3105Y3011D01*
G01X3105Y3011D01*
G01X3104Y3012D01*
G01X3104Y3012D01*
G01X3103Y3012D01*
G01X3103Y3012D01*
G01X3103Y3013D01*
G01X3103Y3013D01*
G01X3102Y3013D01*
G01X3102Y3014D01*
G01X3102Y3014D01*
G01X3102Y3014D01*
G01X3102Y3015D01*
G01X3102Y3402D01*
G01X3102Y3402D01*
G01X3102Y3402D01*
G01X3102Y3403D01*
G01X3102Y3403D01*
G01X3103Y3404D01*
G01X3103Y3404D01*
G01X3103Y3404D01*
G01X3103Y3404D01*
G01X3104Y3405D01*
G01X3104Y3405D01*
G01X3105Y3405D01*
G01X3105Y3405D01*
G01X3105Y3405D01*
G01X3335Y3405D01*
G01X3335Y3405D01*
G01X3335Y3405D01*
G01X3336Y3405D01*
G01X3336Y3405D01*
G01X3336Y3404D01*
G01X3337Y3404D01*
G01X3337Y3404D01*
G01X3337Y3404D01*
G01X3338Y3403D01*
G01X3338Y3403D01*
G01X3338Y3402D01*
G01X3338Y3402D01*
G01X3338Y3402D01*
G01X3338Y3015D01*
G01X3338Y3014D01*
G01X3338Y3014D01*
G01X3338Y3014D01*
G01X3338Y3013D01*
G01X3337Y3013D01*
G01X3337Y3013D01*
G01X3337Y3012D01*
G01X3336Y3012D01*
G01X3336Y3012D01*
G01X3336Y3012D01*
G01X3335Y3011D01*
G01X3335Y3011D01*
G01X3335Y3011D01*
G01X3105Y3011D01*
G37*
G36*
G01X3105Y3917D02*
G01X3105Y3917D01*
G01X3105Y3917D01*
G01X3104Y3917D01*
G01X3104Y3917D01*
G01X3103Y3917D01*
G01X3103Y3918D01*
G01X3103Y3918D01*
G01X3103Y3918D01*
G01X3102Y3919D01*
G01X3102Y3919D01*
G01X3102Y3920D01*
G01X3102Y3920D01*
G01X3102Y3920D01*
G01X3102Y4307D01*
G01X3102Y4307D01*
G01X3102Y4308D01*
G01X3102Y4308D01*
G01X3102Y4309D01*
G01X3103Y4309D01*
G01X3103Y4309D01*
G01X3103Y4310D01*
G01X3103Y4310D01*
G01X3104Y4310D01*
G01X3104Y4310D01*
G01X3105Y4310D01*
G01X3105Y4311D01*
G01X3105Y4311D01*
G01X3335Y4311D01*
G01X3335Y4311D01*
G01X3335Y4310D01*
G01X3336Y4310D01*
G01X3336Y4310D01*
G01X3336Y4310D01*
G01X3337Y4310D01*
G01X3337Y4309D01*
G01X3337Y4309D01*
G01X3338Y4309D01*
G01X3338Y4308D01*
G01X3338Y4308D01*
G01X3338Y4307D01*
G01X3338Y4307D01*
G01X3338Y3920D01*
G01X3338Y3920D01*
G01X3338Y3920D01*
G01X3338Y3919D01*
G01X3338Y3919D01*
G01X3337Y3918D01*
G01X3337Y3918D01*
G01X3337Y3918D01*
G01X3336Y3917D01*
G01X3336Y3917D01*
G01X3336Y3917D01*
G01X3335Y3917D01*
G01X3335Y3917D01*
G01X3335Y3917D01*
G01X3105Y3917D01*
G37*
G36*
G01X2357Y3917D02*
G01X2357Y3917D01*
G01X2357Y3917D01*
G01X2356Y3917D01*
G01X2356Y3917D01*
G01X2355Y3917D01*
G01X2355Y3918D01*
G01X2355Y3918D01*
G01X2355Y3918D01*
G01X2354Y3919D01*
G01X2354Y3919D01*
G01X2354Y3920D01*
G01X2354Y3920D01*
G01X2354Y3920D01*
G01X2354Y4307D01*
G01X2354Y4307D01*
G01X2354Y4308D01*
G01X2354Y4308D01*
G01X2354Y4309D01*
G01X2355Y4309D01*
G01X2355Y4309D01*
G01X2355Y4310D01*
G01X2355Y4310D01*
G01X2356Y4310D01*
G01X2356Y4310D01*
G01X2357Y4310D01*
G01X2357Y4311D01*
G01X2357Y4311D01*
G01X2587Y4311D01*
G01X2587Y4311D01*
G01X2587Y4310D01*
G01X2588Y4310D01*
G01X2588Y4310D01*
G01X2589Y4310D01*
G01X2589Y4310D01*
G01X2589Y4309D01*
G01X2589Y4309D01*
G01X2590Y4309D01*
G01X2590Y4308D01*
G01X2590Y4308D01*
G01X2590Y4307D01*
G01X2590Y4307D01*
G01X2590Y3920D01*
G01X2590Y3920D01*
G01X2590Y3920D01*
G01X2590Y3919D01*
G01X2590Y3919D01*
G01X2589Y3918D01*
G01X2589Y3918D01*
G01X2589Y3918D01*
G01X2589Y3917D01*
G01X2588Y3917D01*
G01X2588Y3917D01*
G01X2587Y3917D01*
G01X2587Y3917D01*
G01X2587Y3917D01*
G01X2357Y3917D01*
G37*
G36*
G01X4137Y5039D02*
G01X4137Y5040D01*
G01X4137Y5040D01*
G01X4138Y5040D01*
G01X4138Y5041D01*
G01X4138Y5041D01*
G01X4138Y5042D01*
G01X4139Y5042D01*
G01X4139Y5042D01*
G01X4139Y5042D01*
G01X4140Y5043D01*
G01X4140Y5043D01*
G01X4141Y5043D01*
G01X4141Y5043D01*
G01X4378Y5043D01*
G01X4378Y5043D01*
G01X4379Y5043D01*
G01X4379Y5043D01*
G01X4379Y5042D01*
G01X4380Y5042D01*
G01X4380Y5042D01*
G01X4381Y5042D01*
G01X4381Y5041D01*
G01X4381Y5041D01*
G01X4381Y5040D01*
G01X4381Y5040D01*
G01X4381Y5040D01*
G01X4381Y5039D01*
G01X4381Y4802D01*
G01X4381Y4802D01*
G01X4381Y4802D01*
G01X4381Y4801D01*
G01X4381Y4801D01*
G01X4381Y4800D01*
G01X4381Y4800D01*
G01X4380Y4800D01*
G01X4380Y4799D01*
G01X4379Y4799D01*
G01X4379Y4799D01*
G01X4379Y4799D01*
G01X4378Y4799D01*
G01X4378Y4799D01*
G01X4141Y4799D01*
G01X4141Y4799D01*
G01X4140Y4799D01*
G01X4140Y4799D01*
G01X4139Y4799D01*
G01X4139Y4799D01*
G01X4139Y4800D01*
G01X4138Y4800D01*
G01X4138Y4800D01*
G01X4138Y4801D01*
G01X4138Y4801D01*
G01X4137Y4802D01*
G01X4137Y4802D01*
G01X4137Y4802D01*
G01X4137Y5039D01*
G37*
G36*
G01X4492Y5039D02*
G01X4492Y5040D01*
G01X4492Y5040D01*
G01X4492Y5040D01*
G01X4492Y5041D01*
G01X4492Y5041D01*
G01X4493Y5042D01*
G01X4493Y5042D01*
G01X4493Y5042D01*
G01X4494Y5042D01*
G01X4494Y5043D01*
G01X4494Y5043D01*
G01X4495Y5043D01*
G01X4495Y5043D01*
G01X4732Y5043D01*
G01X4733Y5043D01*
G01X4733Y5043D01*
G01X4733Y5043D01*
G01X4734Y5042D01*
G01X4734Y5042D01*
G01X4735Y5042D01*
G01X4735Y5042D01*
G01X4735Y5041D01*
G01X4735Y5041D01*
G01X4736Y5040D01*
G01X4736Y5040D01*
G01X4736Y5040D01*
G01X4736Y5039D01*
G01X4736Y4802D01*
G01X4736Y4802D01*
G01X4736Y4802D01*
G01X4736Y4801D01*
G01X4735Y4801D01*
G01X4735Y4800D01*
G01X4735Y4800D01*
G01X4735Y4800D01*
G01X4734Y4799D01*
G01X4734Y4799D01*
G01X4733Y4799D01*
G01X4733Y4799D01*
G01X4733Y4799D01*
G01X4732Y4799D01*
G01X4495Y4799D01*
G01X4495Y4799D01*
G01X4494Y4799D01*
G01X4494Y4799D01*
G01X4494Y4799D01*
G01X4493Y4799D01*
G01X4493Y4800D01*
G01X4493Y4800D01*
G01X4492Y4800D01*
G01X4492Y4801D01*
G01X4492Y4801D01*
G01X4492Y4802D01*
G01X4492Y4802D01*
G01X4492Y4802D01*
G01X4492Y5039D01*
G37*
G36*
G01X16078Y1424D02*
G01X16078Y1424D01*
G01X16078Y1425D01*
G01X16078Y1425D01*
G01X16079Y1426D01*
G01X16079Y1426D01*
G01X16079Y1426D01*
G01X16079Y1427D01*
G01X16080Y1427D01*
G01X16080Y1427D01*
G01X16081Y1427D01*
G01X16081Y1428D01*
G01X16081Y1428D01*
G01X16082Y1428D01*
G01X16319Y1428D01*
G01X16319Y1428D01*
G01X16319Y1428D01*
G01X16320Y1427D01*
G01X16320Y1427D01*
G01X16321Y1427D01*
G01X16321Y1427D01*
G01X16321Y1426D01*
G01X16322Y1426D01*
G01X16322Y1426D01*
G01X16322Y1425D01*
G01X16322Y1425D01*
G01X16322Y1424D01*
G01X16322Y1424D01*
G01X16322Y1187D01*
G01X16322Y1187D01*
G01X16322Y1186D01*
G01X16322Y1186D01*
G01X16322Y1186D01*
G01X16322Y1185D01*
G01X16321Y1185D01*
G01X16321Y1185D01*
G01X16321Y1184D01*
G01X16320Y1184D01*
G01X16320Y1184D01*
G01X16319Y1184D01*
G01X16319Y1184D01*
G01X16319Y1184D01*
G01X16082Y1184D01*
G01X16081Y1184D01*
G01X16081Y1184D01*
G01X16081Y1184D01*
G01X16080Y1184D01*
G01X16080Y1184D01*
G01X16079Y1185D01*
G01X16079Y1185D01*
G01X16079Y1185D01*
G01X16079Y1186D01*
G01X16078Y1186D01*
G01X16078Y1186D01*
G01X16078Y1187D01*
G01X16078Y1187D01*
G01X16078Y1424D01*
G37*
G36*
G01X16433Y1424D02*
G01X16433Y1424D01*
G01X16433Y1425D01*
G01X16433Y1425D01*
G01X16433Y1426D01*
G01X16433Y1426D01*
G01X16434Y1426D01*
G01X16434Y1427D01*
G01X16434Y1427D01*
G01X16435Y1427D01*
G01X16435Y1427D01*
G01X16435Y1428D01*
G01X16436Y1428D01*
G01X16436Y1428D01*
G01X16673Y1428D01*
G01X16673Y1428D01*
G01X16674Y1428D01*
G01X16674Y1427D01*
G01X16675Y1427D01*
G01X16675Y1427D01*
G01X16675Y1427D01*
G01X16676Y1426D01*
G01X16676Y1426D01*
G01X16676Y1426D01*
G01X16676Y1425D01*
G01X16677Y1425D01*
G01X16677Y1424D01*
G01X16677Y1424D01*
G01X16677Y1187D01*
G01X16677Y1187D01*
G01X16677Y1186D01*
G01X16676Y1186D01*
G01X16676Y1186D01*
G01X16676Y1185D01*
G01X16676Y1185D01*
G01X16675Y1185D01*
G01X16675Y1184D01*
G01X16675Y1184D01*
G01X16674Y1184D01*
G01X16674Y1184D01*
G01X16673Y1184D01*
G01X16673Y1184D01*
G01X16436Y1184D01*
G01X16436Y1184D01*
G01X16435Y1184D01*
G01X16435Y1184D01*
G01X16435Y1184D01*
G01X16434Y1184D01*
G01X16434Y1185D01*
G01X16434Y1185D01*
G01X16433Y1185D01*
G01X16433Y1186D01*
G01X16433Y1186D01*
G01X16433Y1186D01*
G01X16433Y1187D01*
G01X16433Y1187D01*
G01X16433Y1424D01*
G37*
G36*
G01X4137Y5472D02*
G01X4137Y5473D01*
G01X4137Y5473D01*
G01X4138Y5474D01*
G01X4138Y5474D01*
G01X4138Y5474D01*
G01X4138Y5475D01*
G01X4139Y5475D01*
G01X4139Y5475D01*
G01X4139Y5475D01*
G01X4140Y5476D01*
G01X4140Y5476D01*
G01X4141Y5476D01*
G01X4141Y5476D01*
G01X4378Y5476D01*
G01X4378Y5476D01*
G01X4379Y5476D01*
G01X4379Y5476D01*
G01X4379Y5475D01*
G01X4380Y5475D01*
G01X4380Y5475D01*
G01X4381Y5475D01*
G01X4381Y5474D01*
G01X4381Y5474D01*
G01X4381Y5474D01*
G01X4381Y5473D01*
G01X4381Y5473D01*
G01X4381Y5472D01*
G01X4381Y5235D01*
G01X4381Y5235D01*
G01X4381Y5235D01*
G01X4381Y5234D01*
G01X4381Y5234D01*
G01X4381Y5233D01*
G01X4381Y5233D01*
G01X4380Y5233D01*
G01X4380Y5232D01*
G01X4379Y5232D01*
G01X4379Y5232D01*
G01X4379Y5232D01*
G01X4378Y5232D01*
G01X4378Y5232D01*
G01X4141Y5232D01*
G01X4141Y5232D01*
G01X4140Y5232D01*
G01X4140Y5232D01*
G01X4139Y5232D01*
G01X4139Y5232D01*
G01X4139Y5233D01*
G01X4138Y5233D01*
G01X4138Y5233D01*
G01X4138Y5234D01*
G01X4138Y5234D01*
G01X4137Y5235D01*
G01X4137Y5235D01*
G01X4137Y5235D01*
G01X4137Y5472D01*
G37*
G36*
G01X4492Y5472D02*
G01X4492Y5473D01*
G01X4492Y5473D01*
G01X4492Y5474D01*
G01X4492Y5474D01*
G01X4492Y5474D01*
G01X4493Y5475D01*
G01X4493Y5475D01*
G01X4493Y5475D01*
G01X4494Y5475D01*
G01X4494Y5476D01*
G01X4494Y5476D01*
G01X4495Y5476D01*
G01X4495Y5476D01*
G01X4732Y5476D01*
G01X4733Y5476D01*
G01X4733Y5476D01*
G01X4733Y5476D01*
G01X4734Y5475D01*
G01X4734Y5475D01*
G01X4735Y5475D01*
G01X4735Y5475D01*
G01X4735Y5474D01*
G01X4735Y5474D01*
G01X4736Y5474D01*
G01X4736Y5473D01*
G01X4736Y5473D01*
G01X4736Y5472D01*
G01X4736Y5235D01*
G01X4736Y5235D01*
G01X4736Y5235D01*
G01X4736Y5234D01*
G01X4735Y5234D01*
G01X4735Y5233D01*
G01X4735Y5233D01*
G01X4735Y5233D01*
G01X4734Y5232D01*
G01X4734Y5232D01*
G01X4733Y5232D01*
G01X4733Y5232D01*
G01X4733Y5232D01*
G01X4732Y5232D01*
G01X4495Y5232D01*
G01X4495Y5232D01*
G01X4494Y5232D01*
G01X4494Y5232D01*
G01X4494Y5232D01*
G01X4493Y5232D01*
G01X4493Y5233D01*
G01X4493Y5233D01*
G01X4492Y5233D01*
G01X4492Y5234D01*
G01X4492Y5234D01*
G01X4492Y5235D01*
G01X4492Y5235D01*
G01X4492Y5235D01*
G01X4492Y5472D01*
G37*
G36*
G01X2123Y2809D02*
G01X2123Y2810D01*
G01X2123Y2810D01*
G01X2123Y2811D01*
G01X2123Y2812D01*
G01X2124Y2812D01*
G01X2124Y2813D01*
G01X2124Y2813D01*
G01X2125Y2814D01*
G01X2126Y2814D01*
G01X2126Y2814D01*
G01X2127Y2814D01*
G01X2128Y2814D01*
G01X2128Y2815D01*
G01X2491Y2815D01*
G01X2492Y2814D01*
G01X2492Y2814D01*
G01X2493Y2814D01*
G01X2494Y2814D01*
G01X2494Y2814D01*
G01X2495Y2813D01*
G01X2495Y2813D01*
G01X2496Y2812D01*
G01X2496Y2812D01*
G01X2496Y2811D01*
G01X2496Y2810D01*
G01X2497Y2810D01*
G01X2497Y2809D01*
G01X2497Y2249D01*
G01X2497Y2249D01*
G01X2496Y2248D01*
G01X2496Y2247D01*
G01X2496Y2247D01*
G01X2496Y2246D01*
G01X2495Y2246D01*
G01X2495Y2245D01*
G01X2494Y2245D01*
G01X2494Y2244D01*
G01X2493Y2244D01*
G01X2492Y2244D01*
G01X2492Y2244D01*
G01X2491Y2244D01*
G01X2128Y2244D01*
G01X2128Y2244D01*
G01X2127Y2244D01*
G01X2126Y2244D01*
G01X2126Y2244D01*
G01X2125Y2245D01*
G01X2124Y2245D01*
G01X2124Y2246D01*
G01X2124Y2246D01*
G01X2123Y2247D01*
G01X2123Y2247D01*
G01X2123Y2248D01*
G01X2123Y2249D01*
G01X2123Y2249D01*
G01X2123Y2809D01*
G37*
G36*
G01X2910Y2809D02*
G01X2910Y2810D01*
G01X2910Y2810D01*
G01X2910Y2811D01*
G01X2911Y2812D01*
G01X2911Y2812D01*
G01X2911Y2813D01*
G01X2912Y2813D01*
G01X2912Y2814D01*
G01X2913Y2814D01*
G01X2914Y2814D01*
G01X2914Y2814D01*
G01X2915Y2814D01*
G01X2916Y2815D01*
G01X3278Y2815D01*
G01X3279Y2814D01*
G01X3280Y2814D01*
G01X3280Y2814D01*
G01X3281Y2814D01*
G01X3282Y2814D01*
G01X3282Y2813D01*
G01X3283Y2813D01*
G01X3283Y2812D01*
G01X3283Y2812D01*
G01X3284Y2811D01*
G01X3284Y2810D01*
G01X3284Y2810D01*
G01X3284Y2809D01*
G01X3284Y2249D01*
G01X3284Y2249D01*
G01X3284Y2248D01*
G01X3284Y2247D01*
G01X3283Y2247D01*
G01X3283Y2246D01*
G01X3283Y2246D01*
G01X3282Y2245D01*
G01X3282Y2245D01*
G01X3281Y2244D01*
G01X3280Y2244D01*
G01X3280Y2244D01*
G01X3279Y2244D01*
G01X3278Y2244D01*
G01X2916Y2244D01*
G01X2915Y2244D01*
G01X2914Y2244D01*
G01X2914Y2244D01*
G01X2913Y2244D01*
G01X2912Y2245D01*
G01X2912Y2245D01*
G01X2911Y2246D01*
G01X2911Y2246D01*
G01X2911Y2247D01*
G01X2910Y2247D01*
G01X2910Y2248D01*
G01X2910Y2249D01*
G01X2910Y2249D01*
G01X2910Y2809D01*
G37*
G36*
G01X2342Y1436D02*
G01X2341Y1436D01*
G01X2341Y1436D01*
G01X2340Y1436D01*
G01X2340Y1436D01*
G01X2340Y1436D01*
G01X2339Y1436D01*
G01X2339Y1437D01*
G01X2339Y1437D01*
G01X2339Y1438D01*
G01X2338Y1438D01*
G01X2338Y1438D01*
G01X2338Y1439D01*
G01X2338Y1439D01*
G01X2338Y1676D01*
G01X2338Y1676D01*
G01X2338Y1677D01*
G01X2338Y1677D01*
G01X2339Y1678D01*
G01X2339Y1678D01*
G01X2339Y1678D01*
G01X2339Y1679D01*
G01X2340Y1679D01*
G01X2340Y1679D01*
G01X2340Y1679D01*
G01X2341Y1680D01*
G01X2341Y1680D01*
G01X2342Y1680D01*
G01X2579Y1680D01*
G01X2579Y1680D01*
G01X2579Y1680D01*
G01X2580Y1679D01*
G01X2580Y1679D01*
G01X2581Y1679D01*
G01X2581Y1679D01*
G01X2581Y1678D01*
G01X2582Y1678D01*
G01X2582Y1678D01*
G01X2582Y1677D01*
G01X2582Y1677D01*
G01X2582Y1676D01*
G01X2582Y1676D01*
G01X2582Y1439D01*
G01X2582Y1439D01*
G01X2582Y1438D01*
G01X2582Y1438D01*
G01X2582Y1438D01*
G01X2582Y1437D01*
G01X2581Y1437D01*
G01X2581Y1436D01*
G01X2581Y1436D01*
G01X2580Y1436D01*
G01X2580Y1436D01*
G01X2579Y1436D01*
G01X2579Y1436D01*
G01X2579Y1436D01*
G01X2342Y1436D01*
G37*
G36*
G01X2342Y1790D02*
G01X2341Y1790D01*
G01X2341Y1790D01*
G01X2340Y1790D01*
G01X2340Y1790D01*
G01X2340Y1791D01*
G01X2339Y1791D01*
G01X2339Y1791D01*
G01X2339Y1791D01*
G01X2339Y1792D01*
G01X2338Y1792D01*
G01X2338Y1793D01*
G01X2338Y1793D01*
G01X2338Y1794D01*
G01X2338Y2030D01*
G01X2338Y2031D01*
G01X2338Y2031D01*
G01X2338Y2032D01*
G01X2339Y2032D01*
G01X2339Y2032D01*
G01X2339Y2033D01*
G01X2339Y2033D01*
G01X2340Y2033D01*
G01X2340Y2034D01*
G01X2340Y2034D01*
G01X2341Y2034D01*
G01X2341Y2034D01*
G01X2342Y2034D01*
G01X2579Y2034D01*
G01X2579Y2034D01*
G01X2579Y2034D01*
G01X2580Y2034D01*
G01X2580Y2034D01*
G01X2581Y2033D01*
G01X2581Y2033D01*
G01X2581Y2033D01*
G01X2582Y2032D01*
G01X2582Y2032D01*
G01X2582Y2032D01*
G01X2582Y2031D01*
G01X2582Y2031D01*
G01X2582Y2030D01*
G01X2582Y1794D01*
G01X2582Y1793D01*
G01X2582Y1793D01*
G01X2582Y1792D01*
G01X2582Y1792D01*
G01X2582Y1791D01*
G01X2581Y1791D01*
G01X2581Y1791D01*
G01X2581Y1791D01*
G01X2580Y1790D01*
G01X2580Y1790D01*
G01X2579Y1790D01*
G01X2579Y1790D01*
G01X2579Y1790D01*
G01X2342Y1790D01*
G37*
G36*
G01X2926Y5114D02*
G01X2927Y5138D01*
G01X2931Y5162D01*
G01X2939Y5185D01*
G01X2948Y5207D01*
G01X2961Y5227D01*
G01X2976Y5246D01*
G01X2993Y5263D01*
G01X3012Y5278D01*
G01X3033Y5291D01*
G01X3055Y5301D01*
G01X3078Y5308D01*
G01X3101Y5312D01*
G01X3126Y5314D01*
G01X3150Y5312D01*
G01X3173Y5308D01*
G01X3196Y5301D01*
G01X3218Y5291D01*
G01X3239Y5278D01*
G01X3258Y5263D01*
G01X3275Y5246D01*
G01X3290Y5227D01*
G01X3303Y5207D01*
G01X3313Y5185D01*
G01X3320Y5162D01*
G01X3324Y5138D01*
G01X3326Y5114D01*
G01X3324Y5090D01*
G01X3320Y5066D01*
G01X3313Y5043D01*
G01X3303Y5021D01*
G01X3290Y5000D01*
G01X3275Y4981D01*
G01X3258Y4964D01*
G01X3239Y4949D01*
G01X3218Y4937D01*
G01X3196Y4927D01*
G01X3173Y4920D01*
G01X3150Y4915D01*
G01X3126Y4914D01*
G01X3101Y4915D01*
G01X3078Y4920D01*
G01X3055Y4927D01*
G01X3033Y4937D01*
G01X3012Y4949D01*
G01X2993Y4964D01*
G01X2976Y4981D01*
G01X2961Y5000D01*
G01X2948Y5021D01*
G01X2939Y5043D01*
G01X2931Y5066D01*
G01X2927Y5090D01*
G01X2926Y5114D01*
G37*
G54D19*
G01X3765Y2879D03*
G01X4966Y2879D03*
G01X3765Y4120D03*
G01X4966Y4120D03*
G54D20*
G01X4366Y2683D03*
G01X4366Y4316D03*
G36*
G01X15131Y1188D02*
G01X15131Y1188D01*
G01X15131Y1187D01*
G01X15131Y1187D01*
G01X15131Y1187D01*
G01X15131Y1186D01*
G01X15130Y1186D01*
G01X15130Y1186D01*
G01X15130Y1185D01*
G01X15129Y1185D01*
G01X15129Y1185D01*
G01X15129Y1185D01*
G01X15128Y1185D01*
G01X15128Y1185D01*
G01X14891Y1185D01*
G01X14891Y1185D01*
G01X14890Y1185D01*
G01X14890Y1185D01*
G01X14889Y1185D01*
G01X14889Y1185D01*
G01X14888Y1186D01*
G01X14888Y1186D01*
G01X14888Y1186D01*
G01X14888Y1187D01*
G01X14888Y1187D01*
G01X14887Y1187D01*
G01X14887Y1188D01*
G01X14887Y1188D01*
G01X14887Y1425D01*
G01X14887Y1425D01*
G01X14887Y1426D01*
G01X14888Y1426D01*
G01X14888Y1427D01*
G01X14888Y1427D01*
G01X14888Y1427D01*
G01X14888Y1428D01*
G01X14889Y1428D01*
G01X14889Y1428D01*
G01X14890Y1428D01*
G01X14890Y1429D01*
G01X14891Y1429D01*
G01X14891Y1429D01*
G01X15128Y1429D01*
G01X15128Y1429D01*
G01X15129Y1429D01*
G01X15129Y1428D01*
G01X15129Y1428D01*
G01X15130Y1428D01*
G01X15130Y1428D01*
G01X15130Y1427D01*
G01X15131Y1427D01*
G01X15131Y1427D01*
G01X15131Y1426D01*
G01X15131Y1426D01*
G01X15131Y1425D01*
G01X15131Y1425D01*
G01X15131Y1188D01*
G37*
G36*
G01X14777Y1188D02*
G01X14777Y1188D01*
G01X14777Y1187D01*
G01X14777Y1187D01*
G01X14777Y1187D01*
G01X14776Y1186D01*
G01X14776Y1186D01*
G01X14776Y1186D01*
G01X14775Y1185D01*
G01X14775Y1185D01*
G01X14775Y1185D01*
G01X14774Y1185D01*
G01X14774Y1185D01*
G01X14773Y1185D01*
G01X14537Y1185D01*
G01X14536Y1185D01*
G01X14536Y1185D01*
G01X14535Y1185D01*
G01X14535Y1185D01*
G01X14535Y1185D01*
G01X14534Y1186D01*
G01X14534Y1186D01*
G01X14534Y1186D01*
G01X14533Y1187D01*
G01X14533Y1187D01*
G01X14533Y1187D01*
G01X14533Y1188D01*
G01X14533Y1188D01*
G01X14533Y1425D01*
G01X14533Y1425D01*
G01X14533Y1426D01*
G01X14533Y1426D01*
G01X14533Y1427D01*
G01X14534Y1427D01*
G01X14534Y1427D01*
G01X14534Y1428D01*
G01X14535Y1428D01*
G01X14535Y1428D01*
G01X14535Y1428D01*
G01X14536Y1429D01*
G01X14536Y1429D01*
G01X14537Y1429D01*
G01X14773Y1429D01*
G01X14774Y1429D01*
G01X14774Y1429D01*
G01X14775Y1428D01*
G01X14775Y1428D01*
G01X14775Y1428D01*
G01X14776Y1428D01*
G01X14776Y1427D01*
G01X14776Y1427D01*
G01X14777Y1427D01*
G01X14777Y1426D01*
G01X14777Y1426D01*
G01X14777Y1425D01*
G01X14777Y1425D01*
G01X14777Y1188D01*
G37*
G36*
G01X15899Y1188D02*
G01X15899Y1188D01*
G01X15899Y1187D01*
G01X15899Y1187D01*
G01X15899Y1187D01*
G01X15898Y1186D01*
G01X15898Y1186D01*
G01X15898Y1186D01*
G01X15897Y1185D01*
G01X15897Y1185D01*
G01X15897Y1185D01*
G01X15896Y1185D01*
G01X15896Y1185D01*
G01X15895Y1185D01*
G01X15659Y1185D01*
G01X15658Y1185D01*
G01X15658Y1185D01*
G01X15657Y1185D01*
G01X15657Y1185D01*
G01X15657Y1185D01*
G01X15656Y1186D01*
G01X15656Y1186D01*
G01X15656Y1186D01*
G01X15655Y1187D01*
G01X15655Y1187D01*
G01X15655Y1187D01*
G01X15655Y1188D01*
G01X15655Y1188D01*
G01X15655Y1425D01*
G01X15655Y1425D01*
G01X15655Y1426D01*
G01X15655Y1426D01*
G01X15655Y1427D01*
G01X15656Y1427D01*
G01X15656Y1427D01*
G01X15656Y1428D01*
G01X15657Y1428D01*
G01X15657Y1428D01*
G01X15657Y1428D01*
G01X15658Y1429D01*
G01X15658Y1429D01*
G01X15659Y1429D01*
G01X15895Y1429D01*
G01X15896Y1429D01*
G01X15896Y1429D01*
G01X15897Y1428D01*
G01X15897Y1428D01*
G01X15897Y1428D01*
G01X15898Y1428D01*
G01X15898Y1427D01*
G01X15898Y1427D01*
G01X15899Y1427D01*
G01X15899Y1426D01*
G01X15899Y1426D01*
G01X15899Y1425D01*
G01X15899Y1425D01*
G01X15899Y1188D01*
G37*
G36*
G01X15545Y1188D02*
G01X15545Y1188D01*
G01X15545Y1187D01*
G01X15544Y1187D01*
G01X15544Y1187D01*
G01X15544Y1186D01*
G01X15544Y1186D01*
G01X15544Y1186D01*
G01X15543Y1185D01*
G01X15543Y1185D01*
G01X15542Y1185D01*
G01X15542Y1185D01*
G01X15541Y1185D01*
G01X15541Y1185D01*
G01X15304Y1185D01*
G01X15304Y1185D01*
G01X15303Y1185D01*
G01X15303Y1185D01*
G01X15303Y1185D01*
G01X15302Y1185D01*
G01X15302Y1186D01*
G01X15302Y1186D01*
G01X15301Y1186D01*
G01X15301Y1187D01*
G01X15301Y1187D01*
G01X15301Y1187D01*
G01X15301Y1188D01*
G01X15301Y1188D01*
G01X15301Y1425D01*
G01X15301Y1425D01*
G01X15301Y1426D01*
G01X15301Y1426D01*
G01X15301Y1427D01*
G01X15301Y1427D01*
G01X15302Y1427D01*
G01X15302Y1428D01*
G01X15302Y1428D01*
G01X15303Y1428D01*
G01X15303Y1428D01*
G01X15303Y1429D01*
G01X15304Y1429D01*
G01X15304Y1429D01*
G01X15541Y1429D01*
G01X15541Y1429D01*
G01X15542Y1429D01*
G01X15542Y1428D01*
G01X15543Y1428D01*
G01X15543Y1428D01*
G01X15544Y1428D01*
G01X15544Y1427D01*
G01X15544Y1427D01*
G01X15544Y1427D01*
G01X15544Y1426D01*
G01X15545Y1426D01*
G01X15545Y1425D01*
G01X15545Y1425D01*
G01X15545Y1188D01*
G37*
G36*
G01X2657Y4891D02*
G01X2657Y4890D01*
G01X2657Y4890D01*
G01X2657Y4890D01*
G01X2657Y4889D01*
G01X2656Y4889D01*
G01X2656Y4889D01*
G01X2656Y4888D01*
G01X2655Y4888D01*
G01X2655Y4888D01*
G01X2655Y4888D01*
G01X2654Y4887D01*
G01X2654Y4887D01*
G01X2653Y4887D01*
G01X2302Y4887D01*
G01X2302Y4887D01*
G01X2301Y4887D01*
G01X2301Y4888D01*
G01X2301Y4888D01*
G01X2300Y4888D01*
G01X2300Y4888D01*
G01X2300Y4889D01*
G01X2299Y4889D01*
G01X2299Y4889D01*
G01X2299Y4890D01*
G01X2299Y4890D01*
G01X2299Y4890D01*
G01X2299Y4891D01*
G01X2299Y5305D01*
G01X2299Y5305D01*
G01X2299Y5306D01*
G01X2299Y5306D01*
G01X2299Y5307D01*
G01X2299Y5307D01*
G01X2300Y5307D01*
G01X2300Y5308D01*
G01X2300Y5308D01*
G01X2301Y5308D01*
G01X2301Y5308D01*
G01X2301Y5308D01*
G01X2302Y5309D01*
G01X2302Y5309D01*
G01X2653Y5309D01*
G01X2654Y5309D01*
G01X2654Y5308D01*
G01X2655Y5308D01*
G01X2655Y5308D01*
G01X2655Y5308D01*
G01X2656Y5308D01*
G01X2656Y5307D01*
G01X2656Y5307D01*
G01X2657Y5307D01*
G01X2657Y5306D01*
G01X2657Y5306D01*
G01X2657Y5305D01*
G01X2657Y5305D01*
G01X2657Y4891D01*
G37*
G36*
G01X3563Y5305D02*
G01X3563Y5305D01*
G01X3563Y5306D01*
G01X3563Y5306D01*
G01X3563Y5307D01*
G01X3563Y5307D01*
G01X3563Y5307D01*
G01X3564Y5308D01*
G01X3564Y5308D01*
G01X3564Y5308D01*
G01X3565Y5308D01*
G01X3565Y5308D01*
G01X3566Y5309D01*
G01X3566Y5309D01*
G01X3917Y5309D01*
G01X3918Y5309D01*
G01X3918Y5308D01*
G01X3918Y5308D01*
G01X3919Y5308D01*
G01X3919Y5308D01*
G01X3920Y5308D01*
G01X3920Y5307D01*
G01X3920Y5307D01*
G01X3920Y5307D01*
G01X3921Y5306D01*
G01X3921Y5306D01*
G01X3921Y5305D01*
G01X3921Y5305D01*
G01X3921Y4891D01*
G01X3921Y4890D01*
G01X3921Y4890D01*
G01X3921Y4890D01*
G01X3920Y4889D01*
G01X3920Y4889D01*
G01X3920Y4889D01*
G01X3920Y4888D01*
G01X3919Y4888D01*
G01X3919Y4888D01*
G01X3918Y4888D01*
G01X3918Y4887D01*
G01X3918Y4887D01*
G01X3917Y4887D01*
G01X3566Y4887D01*
G01X3566Y4887D01*
G01X3565Y4887D01*
G01X3565Y4888D01*
G01X3564Y4888D01*
G01X3564Y4888D01*
G01X3564Y4888D01*
G01X3563Y4889D01*
G01X3563Y4889D01*
G01X3563Y4889D01*
G01X3563Y4890D01*
G01X3563Y4890D01*
G01X3563Y4890D01*
G01X3563Y4891D01*
G01X3563Y5305D01*
G37*
G36*
G01X610Y1038D02*
G01X610Y1038D01*
G01X610Y1037D01*
G01X609Y1036D01*
G01X609Y1036D01*
G01X609Y1035D01*
G01X608Y1035D01*
G01X608Y1034D01*
G01X607Y1034D01*
G01X607Y1034D01*
G01X606Y1033D01*
G01X606Y1033D01*
G01X605Y1033D01*
G01X604Y1033D01*
G01X261Y1033D01*
G01X260Y1033D01*
G01X259Y1033D01*
G01X259Y1033D01*
G01X258Y1034D01*
G01X258Y1034D01*
G01X257Y1034D01*
G01X257Y1035D01*
G01X256Y1035D01*
G01X256Y1036D01*
G01X256Y1036D01*
G01X256Y1037D01*
G01X255Y1038D01*
G01X255Y1038D01*
G01X255Y1402D01*
G01X255Y1402D01*
G01X256Y1403D01*
G01X256Y1404D01*
G01X256Y1404D01*
G01X256Y1405D01*
G01X257Y1405D01*
G01X257Y1406D01*
G01X258Y1406D01*
G01X258Y1406D01*
G01X259Y1407D01*
G01X259Y1407D01*
G01X260Y1407D01*
G01X261Y1407D01*
G01X604Y1407D01*
G01X605Y1407D01*
G01X606Y1407D01*
G01X606Y1407D01*
G01X607Y1406D01*
G01X607Y1406D01*
G01X608Y1406D01*
G01X608Y1405D01*
G01X609Y1405D01*
G01X609Y1404D01*
G01X609Y1404D01*
G01X610Y1403D01*
G01X610Y1402D01*
G01X610Y1402D01*
G01X610Y1038D01*
G37*
G36*
G01X1240Y1038D02*
G01X1240Y1038D01*
G01X1240Y1037D01*
G01X1239Y1036D01*
G01X1239Y1036D01*
G01X1239Y1035D01*
G01X1238Y1035D01*
G01X1238Y1034D01*
G01X1237Y1034D01*
G01X1237Y1034D01*
G01X1236Y1033D01*
G01X1236Y1033D01*
G01X1235Y1033D01*
G01X1234Y1033D01*
G01X891Y1033D01*
G01X890Y1033D01*
G01X889Y1033D01*
G01X889Y1033D01*
G01X888Y1034D01*
G01X888Y1034D01*
G01X887Y1034D01*
G01X887Y1035D01*
G01X886Y1035D01*
G01X886Y1036D01*
G01X886Y1036D01*
G01X886Y1037D01*
G01X885Y1038D01*
G01X885Y1038D01*
G01X885Y1402D01*
G01X885Y1402D01*
G01X886Y1403D01*
G01X886Y1404D01*
G01X886Y1404D01*
G01X886Y1405D01*
G01X887Y1405D01*
G01X887Y1406D01*
G01X888Y1406D01*
G01X888Y1406D01*
G01X889Y1407D01*
G01X889Y1407D01*
G01X890Y1407D01*
G01X891Y1407D01*
G01X1234Y1407D01*
G01X1235Y1407D01*
G01X1236Y1407D01*
G01X1236Y1407D01*
G01X1237Y1406D01*
G01X1237Y1406D01*
G01X1238Y1406D01*
G01X1238Y1405D01*
G01X1239Y1405D01*
G01X1239Y1404D01*
G01X1239Y1404D01*
G01X1240Y1403D01*
G01X1240Y1402D01*
G01X1240Y1402D01*
G01X1240Y1038D01*
G37*
G36*
G01X610Y5605D02*
G01X610Y5605D01*
G01X610Y5604D01*
G01X609Y5603D01*
G01X609Y5603D01*
G01X609Y5602D01*
G01X608Y5602D01*
G01X608Y5601D01*
G01X607Y5601D01*
G01X607Y5601D01*
G01X606Y5600D01*
G01X606Y5600D01*
G01X605Y5600D01*
G01X604Y5600D01*
G01X261Y5600D01*
G01X260Y5600D01*
G01X259Y5600D01*
G01X259Y5600D01*
G01X258Y5601D01*
G01X258Y5601D01*
G01X257Y5601D01*
G01X257Y5602D01*
G01X256Y5602D01*
G01X256Y5603D01*
G01X256Y5603D01*
G01X256Y5604D01*
G01X255Y5605D01*
G01X255Y5605D01*
G01X255Y5969D01*
G01X255Y5969D01*
G01X256Y5970D01*
G01X256Y5971D01*
G01X256Y5971D01*
G01X256Y5972D01*
G01X257Y5972D01*
G01X257Y5973D01*
G01X258Y5973D01*
G01X258Y5973D01*
G01X259Y5974D01*
G01X259Y5974D01*
G01X260Y5974D01*
G01X261Y5974D01*
G01X604Y5974D01*
G01X605Y5974D01*
G01X606Y5974D01*
G01X606Y5974D01*
G01X607Y5973D01*
G01X607Y5973D01*
G01X608Y5973D01*
G01X608Y5972D01*
G01X609Y5972D01*
G01X609Y5971D01*
G01X609Y5971D01*
G01X610Y5970D01*
G01X610Y5969D01*
G01X610Y5969D01*
G01X610Y5605D01*
G37*
G36*
G01X1240Y5605D02*
G01X1240Y5605D01*
G01X1240Y5604D01*
G01X1239Y5603D01*
G01X1239Y5603D01*
G01X1239Y5602D01*
G01X1238Y5602D01*
G01X1238Y5601D01*
G01X1237Y5601D01*
G01X1237Y5601D01*
G01X1236Y5600D01*
G01X1236Y5600D01*
G01X1235Y5600D01*
G01X1234Y5600D01*
G01X891Y5600D01*
G01X890Y5600D01*
G01X889Y5600D01*
G01X889Y5600D01*
G01X888Y5601D01*
G01X888Y5601D01*
G01X887Y5601D01*
G01X887Y5602D01*
G01X886Y5602D01*
G01X886Y5603D01*
G01X886Y5603D01*
G01X886Y5604D01*
G01X885Y5605D01*
G01X885Y5605D01*
G01X885Y5969D01*
G01X885Y5969D01*
G01X886Y5970D01*
G01X886Y5971D01*
G01X886Y5971D01*
G01X886Y5972D01*
G01X887Y5972D01*
G01X887Y5973D01*
G01X888Y5973D01*
G01X888Y5973D01*
G01X889Y5974D01*
G01X889Y5974D01*
G01X890Y5974D01*
G01X891Y5974D01*
G01X1234Y5974D01*
G01X1235Y5974D01*
G01X1236Y5974D01*
G01X1236Y5974D01*
G01X1237Y5973D01*
G01X1237Y5973D01*
G01X1238Y5973D01*
G01X1238Y5972D01*
G01X1239Y5972D01*
G01X1239Y5971D01*
G01X1239Y5971D01*
G01X1240Y5970D01*
G01X1240Y5969D01*
G01X1240Y5969D01*
G01X1240Y5605D01*
G37*
G36*
G01X1826Y5905D02*
G01X1826Y5906D01*
G01X1826Y5906D01*
G01X1827Y5907D01*
G01X1827Y5907D01*
G01X1827Y5907D01*
G01X1827Y5908D01*
G01X1828Y5908D01*
G01X1828Y5908D01*
G01X1828Y5909D01*
G01X1829Y5909D01*
G01X1829Y5909D01*
G01X1830Y5909D01*
G01X1830Y5909D01*
G01X2067Y5909D01*
G01X2067Y5909D01*
G01X2068Y5909D01*
G01X2068Y5909D01*
G01X2068Y5909D01*
G01X2069Y5908D01*
G01X2069Y5908D01*
G01X2069Y5908D01*
G01X2070Y5907D01*
G01X2070Y5907D01*
G01X2070Y5907D01*
G01X2070Y5906D01*
G01X2070Y5906D01*
G01X2070Y5905D01*
G01X2070Y5669D01*
G01X2070Y5668D01*
G01X2070Y5668D01*
G01X2070Y5667D01*
G01X2070Y5667D01*
G01X2070Y5666D01*
G01X2069Y5666D01*
G01X2069Y5666D01*
G01X2069Y5666D01*
G01X2068Y5665D01*
G01X2068Y5665D01*
G01X2068Y5665D01*
G01X2067Y5665D01*
G01X2067Y5665D01*
G01X1830Y5665D01*
G01X1830Y5665D01*
G01X1829Y5665D01*
G01X1829Y5665D01*
G01X1828Y5665D01*
G01X1828Y5666D01*
G01X1828Y5666D01*
G01X1827Y5666D01*
G01X1827Y5666D01*
G01X1827Y5667D01*
G01X1827Y5667D01*
G01X1826Y5668D01*
G01X1826Y5668D01*
G01X1826Y5669D01*
G01X1826Y5905D01*
G37*
G36*
G01X2181Y5905D02*
G01X2181Y5906D01*
G01X2181Y5906D01*
G01X2181Y5907D01*
G01X2181Y5907D01*
G01X2181Y5907D01*
G01X2182Y5908D01*
G01X2182Y5908D01*
G01X2182Y5908D01*
G01X2183Y5909D01*
G01X2183Y5909D01*
G01X2183Y5909D01*
G01X2184Y5909D01*
G01X2184Y5909D01*
G01X2421Y5909D01*
G01X2422Y5909D01*
G01X2422Y5909D01*
G01X2422Y5909D01*
G01X2423Y5909D01*
G01X2423Y5908D01*
G01X2424Y5908D01*
G01X2424Y5908D01*
G01X2424Y5907D01*
G01X2424Y5907D01*
G01X2425Y5907D01*
G01X2425Y5906D01*
G01X2425Y5906D01*
G01X2425Y5905D01*
G01X2425Y5669D01*
G01X2425Y5668D01*
G01X2425Y5668D01*
G01X2425Y5667D01*
G01X2424Y5667D01*
G01X2424Y5666D01*
G01X2424Y5666D01*
G01X2424Y5666D01*
G01X2423Y5666D01*
G01X2423Y5665D01*
G01X2422Y5665D01*
G01X2422Y5665D01*
G01X2422Y5665D01*
G01X2421Y5665D01*
G01X2184Y5665D01*
G01X2184Y5665D01*
G01X2183Y5665D01*
G01X2183Y5665D01*
G01X2183Y5665D01*
G01X2182Y5666D01*
G01X2182Y5666D01*
G01X2182Y5666D01*
G01X2181Y5666D01*
G01X2181Y5667D01*
G01X2181Y5667D01*
G01X2181Y5668D01*
G01X2181Y5668D01*
G01X2181Y5669D01*
G01X2181Y5905D01*
G37*
G36*
G01X1590Y1333D02*
G01X1590Y1334D01*
G01X1590Y1334D01*
G01X1590Y1335D01*
G01X1591Y1335D01*
G01X1591Y1336D01*
G01X1591Y1336D01*
G01X1591Y1336D01*
G01X1592Y1336D01*
G01X1592Y1337D01*
G01X1592Y1337D01*
G01X1593Y1337D01*
G01X1593Y1337D01*
G01X1594Y1337D01*
G01X1830Y1337D01*
G01X1831Y1337D01*
G01X1831Y1337D01*
G01X1832Y1337D01*
G01X1832Y1337D01*
G01X1833Y1336D01*
G01X1833Y1336D01*
G01X1833Y1336D01*
G01X1834Y1336D01*
G01X1834Y1335D01*
G01X1834Y1335D01*
G01X1834Y1334D01*
G01X1834Y1334D01*
G01X1834Y1333D01*
G01X1834Y1097D01*
G01X1834Y1096D01*
G01X1834Y1096D01*
G01X1834Y1095D01*
G01X1834Y1095D01*
G01X1834Y1095D01*
G01X1833Y1094D01*
G01X1833Y1094D01*
G01X1833Y1094D01*
G01X1832Y1093D01*
G01X1832Y1093D01*
G01X1831Y1093D01*
G01X1831Y1093D01*
G01X1830Y1093D01*
G01X1594Y1093D01*
G01X1593Y1093D01*
G01X1593Y1093D01*
G01X1592Y1093D01*
G01X1592Y1093D01*
G01X1592Y1094D01*
G01X1591Y1094D01*
G01X1591Y1094D01*
G01X1591Y1095D01*
G01X1591Y1095D01*
G01X1590Y1095D01*
G01X1590Y1096D01*
G01X1590Y1096D01*
G01X1590Y1097D01*
G01X1590Y1333D01*
G37*
G36*
G01X1944Y1333D02*
G01X1944Y1334D01*
G01X1945Y1334D01*
G01X1945Y1335D01*
G01X1945Y1335D01*
G01X1945Y1336D01*
G01X1945Y1336D01*
G01X1946Y1336D01*
G01X1946Y1336D01*
G01X1946Y1337D01*
G01X1947Y1337D01*
G01X1947Y1337D01*
G01X1948Y1337D01*
G01X1948Y1337D01*
G01X2185Y1337D01*
G01X2185Y1337D01*
G01X2186Y1337D01*
G01X2186Y1337D01*
G01X2187Y1337D01*
G01X2187Y1336D01*
G01X2187Y1336D01*
G01X2188Y1336D01*
G01X2188Y1336D01*
G01X2188Y1335D01*
G01X2188Y1335D01*
G01X2188Y1334D01*
G01X2188Y1334D01*
G01X2189Y1333D01*
G01X2189Y1097D01*
G01X2188Y1096D01*
G01X2188Y1096D01*
G01X2188Y1095D01*
G01X2188Y1095D01*
G01X2188Y1095D01*
G01X2188Y1094D01*
G01X2187Y1094D01*
G01X2187Y1094D01*
G01X2187Y1093D01*
G01X2186Y1093D01*
G01X2186Y1093D01*
G01X2185Y1093D01*
G01X2185Y1093D01*
G01X1948Y1093D01*
G01X1948Y1093D01*
G01X1947Y1093D01*
G01X1947Y1093D01*
G01X1946Y1093D01*
G01X1946Y1094D01*
G01X1946Y1094D01*
G01X1945Y1094D01*
G01X1945Y1095D01*
G01X1945Y1095D01*
G01X1945Y1095D01*
G01X1945Y1096D01*
G01X1944Y1096D01*
G01X1944Y1097D01*
G01X1944Y1333D01*
G37*
G36*
G01X5492Y2608D02*
G01X5488Y2608D01*
G01X5485Y2609D01*
G01X5481Y2610D01*
G01X5478Y2611D01*
G01X5475Y2613D01*
G01X5472Y2615D01*
G01X5470Y2618D01*
G01X5467Y2621D01*
G01X5466Y2624D01*
G01X5464Y2627D01*
G01X5463Y2630D01*
G01X5462Y2634D01*
G01X5462Y2637D01*
G01X5462Y2677D01*
G01X5462Y2680D01*
G01X5463Y2684D01*
G01X5464Y2687D01*
G01X5466Y2690D01*
G01X5467Y2693D01*
G01X5470Y2696D01*
G01X5472Y2699D01*
G01X5475Y2701D01*
G01X5478Y2703D01*
G01X5481Y2704D01*
G01X5485Y2705D01*
G01X5488Y2706D01*
G01X5492Y2706D01*
G01X5708Y2706D01*
G01X5712Y2706D01*
G01X5715Y2705D01*
G01X5719Y2704D01*
G01X5722Y2703D01*
G01X5725Y2701D01*
G01X5728Y2699D01*
G01X5730Y2696D01*
G01X5733Y2693D01*
G01X5734Y2690D01*
G01X5736Y2687D01*
G01X5737Y2684D01*
G01X5738Y2680D01*
G01X5738Y2677D01*
G01X5738Y2637D01*
G01X5738Y2634D01*
G01X5737Y2630D01*
G01X5736Y2627D01*
G01X5734Y2624D01*
G01X5733Y2621D01*
G01X5730Y2618D01*
G01X5728Y2615D01*
G01X5725Y2613D01*
G01X5722Y2611D01*
G01X5719Y2610D01*
G01X5715Y2609D01*
G01X5712Y2608D01*
G01X5708Y2608D01*
G01X5492Y2608D01*
G37*
G36*
G01X5492Y2352D02*
G01X5488Y2352D01*
G01X5485Y2353D01*
G01X5481Y2354D01*
G01X5478Y2355D01*
G01X5475Y2357D01*
G01X5472Y2359D01*
G01X5470Y2362D01*
G01X5467Y2365D01*
G01X5466Y2368D01*
G01X5464Y2371D01*
G01X5463Y2374D01*
G01X5462Y2378D01*
G01X5462Y2381D01*
G01X5462Y2421D01*
G01X5462Y2424D01*
G01X5463Y2428D01*
G01X5464Y2431D01*
G01X5466Y2435D01*
G01X5467Y2438D01*
G01X5470Y2440D01*
G01X5472Y2443D01*
G01X5475Y2445D01*
G01X5478Y2447D01*
G01X5481Y2448D01*
G01X5485Y2449D01*
G01X5488Y2450D01*
G01X5492Y2450D01*
G01X5866Y2450D01*
G01X5869Y2450D01*
G01X5873Y2449D01*
G01X5876Y2448D01*
G01X5879Y2447D01*
G01X5882Y2445D01*
G01X5885Y2443D01*
G01X5888Y2440D01*
G01X5890Y2438D01*
G01X5892Y2435D01*
G01X5893Y2431D01*
G01X5894Y2428D01*
G01X5895Y2424D01*
G01X5895Y2421D01*
G01X5895Y2381D01*
G01X5895Y2378D01*
G01X5894Y2374D01*
G01X5893Y2371D01*
G01X5892Y2368D01*
G01X5890Y2365D01*
G01X5888Y2362D01*
G01X5885Y2359D01*
G01X5882Y2357D01*
G01X5879Y2355D01*
G01X5876Y2354D01*
G01X5873Y2353D01*
G01X5869Y2352D01*
G01X5866Y2352D01*
G01X5492Y2352D01*
G37*
G36*
G01X5492Y2096D02*
G01X5488Y2096D01*
G01X5485Y2097D01*
G01X5481Y2098D01*
G01X5478Y2099D01*
G01X5475Y2101D01*
G01X5472Y2103D01*
G01X5470Y2106D01*
G01X5467Y2109D01*
G01X5466Y2112D01*
G01X5464Y2115D01*
G01X5463Y2118D01*
G01X5462Y2122D01*
G01X5462Y2126D01*
G01X5462Y2165D01*
G01X5462Y2168D01*
G01X5463Y2172D01*
G01X5464Y2175D01*
G01X5466Y2179D01*
G01X5467Y2182D01*
G01X5470Y2184D01*
G01X5472Y2187D01*
G01X5475Y2189D01*
G01X5478Y2191D01*
G01X5481Y2193D01*
G01X5485Y2194D01*
G01X5488Y2194D01*
G01X5492Y2194D01*
G01X5866Y2194D01*
G01X5869Y2194D01*
G01X5873Y2194D01*
G01X5876Y2193D01*
G01X5879Y2191D01*
G01X5882Y2189D01*
G01X5885Y2187D01*
G01X5888Y2184D01*
G01X5890Y2182D01*
G01X5892Y2179D01*
G01X5893Y2175D01*
G01X5894Y2172D01*
G01X5895Y2168D01*
G01X5895Y2165D01*
G01X5895Y2126D01*
G01X5895Y2122D01*
G01X5894Y2118D01*
G01X5893Y2115D01*
G01X5892Y2112D01*
G01X5890Y2109D01*
G01X5888Y2106D01*
G01X5885Y2103D01*
G01X5882Y2101D01*
G01X5879Y2099D01*
G01X5876Y2098D01*
G01X5873Y2097D01*
G01X5869Y2096D01*
G01X5866Y2096D01*
G01X5492Y2096D01*
G37*
G36*
G01X5708Y1939D02*
G01X5712Y1938D01*
G01X5715Y1938D01*
G01X5719Y1937D01*
G01X5722Y1935D01*
G01X5725Y1933D01*
G01X5728Y1931D01*
G01X5730Y1929D01*
G01X5733Y1926D01*
G01X5734Y1923D01*
G01X5736Y1919D01*
G01X5737Y1916D01*
G01X5738Y1913D01*
G01X5738Y1909D01*
G01X5738Y1870D01*
G01X5738Y1866D01*
G01X5737Y1863D01*
G01X5736Y1859D01*
G01X5734Y1856D01*
G01X5733Y1853D01*
G01X5730Y1850D01*
G01X5728Y1848D01*
G01X5725Y1845D01*
G01X5722Y1843D01*
G01X5719Y1842D01*
G01X5715Y1841D01*
G01X5712Y1840D01*
G01X5708Y1840D01*
G01X5492Y1840D01*
G01X5488Y1840D01*
G01X5485Y1841D01*
G01X5481Y1842D01*
G01X5478Y1843D01*
G01X5475Y1845D01*
G01X5472Y1848D01*
G01X5470Y1850D01*
G01X5467Y1853D01*
G01X5466Y1856D01*
G01X5464Y1859D01*
G01X5463Y1863D01*
G01X5462Y1866D01*
G01X5462Y1870D01*
G01X5462Y1909D01*
G01X5462Y1913D01*
G01X5463Y1916D01*
G01X5464Y1919D01*
G01X5466Y1923D01*
G01X5467Y1926D01*
G01X5470Y1929D01*
G01X5472Y1931D01*
G01X5475Y1933D01*
G01X5478Y1935D01*
G01X5481Y1937D01*
G01X5485Y1938D01*
G01X5488Y1938D01*
G01X5492Y1939D01*
G01X5708Y1939D01*
G37*
G36*
G01X5708Y1604D02*
G01X5712Y1604D01*
G01X5715Y1603D01*
G01X5719Y1602D01*
G01X5722Y1600D01*
G01X5725Y1599D01*
G01X5728Y1596D01*
G01X5730Y1594D01*
G01X5733Y1591D01*
G01X5734Y1588D01*
G01X5736Y1585D01*
G01X5737Y1581D01*
G01X5738Y1578D01*
G01X5738Y1574D01*
G01X5738Y1535D01*
G01X5738Y1531D01*
G01X5737Y1528D01*
G01X5736Y1525D01*
G01X5734Y1521D01*
G01X5733Y1518D01*
G01X5730Y1515D01*
G01X5728Y1513D01*
G01X5725Y1511D01*
G01X5722Y1509D01*
G01X5719Y1507D01*
G01X5715Y1506D01*
G01X5712Y1506D01*
G01X5708Y1505D01*
G01X5492Y1505D01*
G01X5488Y1506D01*
G01X5485Y1506D01*
G01X5481Y1507D01*
G01X5478Y1509D01*
G01X5475Y1511D01*
G01X5472Y1513D01*
G01X5470Y1515D01*
G01X5467Y1518D01*
G01X5466Y1521D01*
G01X5464Y1525D01*
G01X5463Y1528D01*
G01X5462Y1531D01*
G01X5462Y1535D01*
G01X5462Y1574D01*
G01X5462Y1578D01*
G01X5463Y1581D01*
G01X5464Y1585D01*
G01X5466Y1588D01*
G01X5467Y1591D01*
G01X5470Y1594D01*
G01X5472Y1596D01*
G01X5475Y1599D01*
G01X5478Y1600D01*
G01X5481Y1602D01*
G01X5485Y1603D01*
G01X5488Y1604D01*
G01X5492Y1604D01*
G01X5708Y1604D01*
G37*
G36*
G01X5708Y1269D02*
G01X5712Y1269D01*
G01X5715Y1268D01*
G01X5719Y1267D01*
G01X5722Y1266D01*
G01X5725Y1264D01*
G01X5728Y1262D01*
G01X5730Y1259D01*
G01X5733Y1256D01*
G01X5734Y1253D01*
G01X5736Y1250D01*
G01X5737Y1247D01*
G01X5738Y1243D01*
G01X5738Y1240D01*
G01X5738Y1200D01*
G01X5738Y1197D01*
G01X5737Y1193D01*
G01X5736Y1190D01*
G01X5734Y1187D01*
G01X5733Y1184D01*
G01X5730Y1181D01*
G01X5728Y1178D01*
G01X5725Y1176D01*
G01X5722Y1174D01*
G01X5719Y1173D01*
G01X5715Y1172D01*
G01X5712Y1171D01*
G01X5708Y1171D01*
G01X5492Y1171D01*
G01X5488Y1171D01*
G01X5485Y1172D01*
G01X5481Y1173D01*
G01X5478Y1174D01*
G01X5475Y1176D01*
G01X5472Y1178D01*
G01X5470Y1181D01*
G01X5467Y1184D01*
G01X5466Y1187D01*
G01X5464Y1190D01*
G01X5463Y1193D01*
G01X5462Y1197D01*
G01X5462Y1200D01*
G01X5462Y1240D01*
G01X5462Y1243D01*
G01X5463Y1247D01*
G01X5464Y1250D01*
G01X5466Y1253D01*
G01X5467Y1256D01*
G01X5470Y1259D01*
G01X5472Y1262D01*
G01X5475Y1264D01*
G01X5478Y1266D01*
G01X5481Y1267D01*
G01X5485Y1268D01*
G01X5488Y1269D01*
G01X5492Y1269D01*
G01X5708Y1269D01*
G37*
G36*
G01X6850Y1269D02*
G01X6853Y1269D01*
G01X6857Y1268D01*
G01X6860Y1267D01*
G01X6864Y1266D01*
G01X6867Y1264D01*
G01X6870Y1262D01*
G01X6872Y1259D01*
G01X6874Y1256D01*
G01X6876Y1253D01*
G01X6878Y1250D01*
G01X6879Y1247D01*
G01X6879Y1243D01*
G01X6879Y1240D01*
G01X6879Y1200D01*
G01X6879Y1197D01*
G01X6879Y1193D01*
G01X6878Y1190D01*
G01X6876Y1187D01*
G01X6874Y1184D01*
G01X6872Y1181D01*
G01X6870Y1178D01*
G01X6867Y1176D01*
G01X6864Y1174D01*
G01X6860Y1173D01*
G01X6857Y1172D01*
G01X6853Y1171D01*
G01X6850Y1171D01*
G01X6633Y1171D01*
G01X6630Y1171D01*
G01X6626Y1172D01*
G01X6623Y1173D01*
G01X6620Y1174D01*
G01X6617Y1176D01*
G01X6614Y1178D01*
G01X6611Y1181D01*
G01X6609Y1184D01*
G01X6607Y1187D01*
G01X6606Y1190D01*
G01X6605Y1193D01*
G01X6604Y1197D01*
G01X6604Y1200D01*
G01X6604Y1240D01*
G01X6604Y1243D01*
G01X6605Y1247D01*
G01X6606Y1250D01*
G01X6607Y1253D01*
G01X6609Y1256D01*
G01X6611Y1259D01*
G01X6614Y1262D01*
G01X6617Y1264D01*
G01X6620Y1266D01*
G01X6623Y1267D01*
G01X6626Y1268D01*
G01X6630Y1269D01*
G01X6633Y1269D01*
G01X6850Y1269D01*
G37*
G36*
G01X6850Y1604D02*
G01X6853Y1604D01*
G01X6857Y1603D01*
G01X6860Y1602D01*
G01X6864Y1600D01*
G01X6867Y1599D01*
G01X6870Y1596D01*
G01X6872Y1594D01*
G01X6874Y1591D01*
G01X6876Y1588D01*
G01X6878Y1585D01*
G01X6879Y1581D01*
G01X6879Y1578D01*
G01X6879Y1574D01*
G01X6879Y1535D01*
G01X6879Y1531D01*
G01X6879Y1528D01*
G01X6878Y1525D01*
G01X6876Y1521D01*
G01X6874Y1518D01*
G01X6872Y1515D01*
G01X6870Y1513D01*
G01X6867Y1511D01*
G01X6864Y1509D01*
G01X6860Y1507D01*
G01X6857Y1506D01*
G01X6853Y1506D01*
G01X6850Y1505D01*
G01X6633Y1505D01*
G01X6630Y1506D01*
G01X6626Y1506D01*
G01X6623Y1507D01*
G01X6620Y1509D01*
G01X6617Y1511D01*
G01X6614Y1513D01*
G01X6611Y1515D01*
G01X6609Y1518D01*
G01X6607Y1521D01*
G01X6606Y1525D01*
G01X6605Y1528D01*
G01X6604Y1531D01*
G01X6604Y1535D01*
G01X6604Y1574D01*
G01X6604Y1578D01*
G01X6605Y1581D01*
G01X6606Y1585D01*
G01X6607Y1588D01*
G01X6609Y1591D01*
G01X6611Y1594D01*
G01X6614Y1596D01*
G01X6617Y1599D01*
G01X6620Y1600D01*
G01X6623Y1602D01*
G01X6626Y1603D01*
G01X6630Y1604D01*
G01X6633Y1604D01*
G01X6850Y1604D01*
G37*
G36*
G01X6850Y1939D02*
G01X6853Y1938D01*
G01X6857Y1938D01*
G01X6860Y1937D01*
G01X6864Y1935D01*
G01X6867Y1933D01*
G01X6870Y1931D01*
G01X6872Y1929D01*
G01X6874Y1926D01*
G01X6876Y1923D01*
G01X6878Y1919D01*
G01X6879Y1916D01*
G01X6879Y1913D01*
G01X6879Y1909D01*
G01X6879Y1870D01*
G01X6879Y1866D01*
G01X6879Y1863D01*
G01X6878Y1859D01*
G01X6876Y1856D01*
G01X6874Y1853D01*
G01X6872Y1850D01*
G01X6870Y1848D01*
G01X6867Y1845D01*
G01X6864Y1843D01*
G01X6860Y1842D01*
G01X6857Y1841D01*
G01X6853Y1840D01*
G01X6850Y1840D01*
G01X6633Y1840D01*
G01X6630Y1840D01*
G01X6626Y1841D01*
G01X6623Y1842D01*
G01X6620Y1843D01*
G01X6617Y1845D01*
G01X6614Y1848D01*
G01X6611Y1850D01*
G01X6609Y1853D01*
G01X6607Y1856D01*
G01X6606Y1859D01*
G01X6605Y1863D01*
G01X6604Y1866D01*
G01X6604Y1870D01*
G01X6604Y1909D01*
G01X6604Y1913D01*
G01X6605Y1916D01*
G01X6606Y1919D01*
G01X6607Y1923D01*
G01X6609Y1926D01*
G01X6611Y1929D01*
G01X6614Y1931D01*
G01X6617Y1933D01*
G01X6620Y1935D01*
G01X6623Y1937D01*
G01X6626Y1938D01*
G01X6630Y1938D01*
G01X6633Y1939D01*
G01X6850Y1939D01*
G37*
G36*
G01X6476Y2096D02*
G01X6472Y2096D01*
G01X6469Y2097D01*
G01X6465Y2098D01*
G01X6462Y2099D01*
G01X6459Y2101D01*
G01X6456Y2103D01*
G01X6454Y2106D01*
G01X6452Y2109D01*
G01X6450Y2112D01*
G01X6448Y2115D01*
G01X6447Y2118D01*
G01X6447Y2122D01*
G01X6446Y2126D01*
G01X6446Y2165D01*
G01X6447Y2168D01*
G01X6447Y2172D01*
G01X6448Y2175D01*
G01X6450Y2179D01*
G01X6452Y2182D01*
G01X6454Y2184D01*
G01X6456Y2187D01*
G01X6459Y2189D01*
G01X6462Y2191D01*
G01X6465Y2193D01*
G01X6469Y2194D01*
G01X6472Y2194D01*
G01X6476Y2194D01*
G01X6850Y2194D01*
G01X6853Y2194D01*
G01X6857Y2194D01*
G01X6860Y2193D01*
G01X6864Y2191D01*
G01X6867Y2189D01*
G01X6870Y2187D01*
G01X6872Y2184D01*
G01X6874Y2182D01*
G01X6876Y2179D01*
G01X6878Y2175D01*
G01X6879Y2172D01*
G01X6879Y2168D01*
G01X6879Y2165D01*
G01X6879Y2126D01*
G01X6879Y2122D01*
G01X6879Y2118D01*
G01X6878Y2115D01*
G01X6876Y2112D01*
G01X6874Y2109D01*
G01X6872Y2106D01*
G01X6870Y2103D01*
G01X6867Y2101D01*
G01X6864Y2099D01*
G01X6860Y2098D01*
G01X6857Y2097D01*
G01X6853Y2096D01*
G01X6850Y2096D01*
G01X6476Y2096D01*
G37*
G36*
G01X6476Y2352D02*
G01X6472Y2352D01*
G01X6469Y2353D01*
G01X6465Y2354D01*
G01X6462Y2355D01*
G01X6459Y2357D01*
G01X6456Y2359D01*
G01X6454Y2362D01*
G01X6452Y2365D01*
G01X6450Y2368D01*
G01X6448Y2371D01*
G01X6447Y2374D01*
G01X6447Y2378D01*
G01X6446Y2381D01*
G01X6446Y2421D01*
G01X6447Y2424D01*
G01X6447Y2428D01*
G01X6448Y2431D01*
G01X6450Y2435D01*
G01X6452Y2438D01*
G01X6454Y2440D01*
G01X6456Y2443D01*
G01X6459Y2445D01*
G01X6462Y2447D01*
G01X6465Y2448D01*
G01X6469Y2449D01*
G01X6472Y2450D01*
G01X6476Y2450D01*
G01X6850Y2450D01*
G01X6853Y2450D01*
G01X6857Y2449D01*
G01X6860Y2448D01*
G01X6864Y2447D01*
G01X6867Y2445D01*
G01X6870Y2443D01*
G01X6872Y2440D01*
G01X6874Y2438D01*
G01X6876Y2435D01*
G01X6878Y2431D01*
G01X6879Y2428D01*
G01X6879Y2424D01*
G01X6879Y2421D01*
G01X6879Y2381D01*
G01X6879Y2378D01*
G01X6879Y2374D01*
G01X6878Y2371D01*
G01X6876Y2368D01*
G01X6874Y2365D01*
G01X6872Y2362D01*
G01X6870Y2359D01*
G01X6867Y2357D01*
G01X6864Y2355D01*
G01X6860Y2354D01*
G01X6857Y2353D01*
G01X6853Y2352D01*
G01X6850Y2352D01*
G01X6476Y2352D01*
G37*
G36*
G01X6633Y2608D02*
G01X6630Y2608D01*
G01X6626Y2609D01*
G01X6623Y2610D01*
G01X6620Y2611D01*
G01X6617Y2613D01*
G01X6614Y2615D01*
G01X6611Y2618D01*
G01X6609Y2621D01*
G01X6607Y2624D01*
G01X6606Y2627D01*
G01X6605Y2630D01*
G01X6604Y2634D01*
G01X6604Y2637D01*
G01X6604Y2677D01*
G01X6604Y2680D01*
G01X6605Y2684D01*
G01X6606Y2687D01*
G01X6607Y2690D01*
G01X6609Y2693D01*
G01X6611Y2696D01*
G01X6614Y2699D01*
G01X6617Y2701D01*
G01X6620Y2703D01*
G01X6623Y2704D01*
G01X6626Y2705D01*
G01X6630Y2706D01*
G01X6633Y2706D01*
G01X6850Y2706D01*
G01X6853Y2706D01*
G01X6857Y2705D01*
G01X6860Y2704D01*
G01X6864Y2703D01*
G01X6867Y2701D01*
G01X6870Y2699D01*
G01X6872Y2696D01*
G01X6874Y2693D01*
G01X6876Y2690D01*
G01X6878Y2687D01*
G01X6879Y2684D01*
G01X6879Y2680D01*
G01X6879Y2677D01*
G01X6879Y2637D01*
G01X6879Y2634D01*
G01X6879Y2630D01*
G01X6878Y2627D01*
G01X6876Y2624D01*
G01X6874Y2621D01*
G01X6872Y2618D01*
G01X6870Y2615D01*
G01X6867Y2613D01*
G01X6864Y2611D01*
G01X6860Y2610D01*
G01X6857Y2609D01*
G01X6853Y2608D01*
G01X6850Y2608D01*
G01X6633Y2608D01*
G37*
G36*
G01X6614Y3120D02*
G01X6614Y3123D01*
G01X6615Y3127D01*
G01X6616Y3130D01*
G01X6617Y3133D01*
G01X6619Y3136D01*
G01X6621Y3139D01*
G01X6624Y3142D01*
G01X6626Y3144D01*
G01X6630Y3146D01*
G01X6633Y3147D01*
G01X6636Y3148D01*
G01X6640Y3149D01*
G01X6643Y3149D01*
G01X6683Y3149D01*
G01X6686Y3149D01*
G01X6690Y3148D01*
G01X6693Y3147D01*
G01X6696Y3146D01*
G01X6699Y3144D01*
G01X6702Y3142D01*
G01X6705Y3139D01*
G01X6707Y3136D01*
G01X6709Y3133D01*
G01X6710Y3130D01*
G01X6711Y3127D01*
G01X6712Y3123D01*
G01X6712Y3120D01*
G01X6712Y2903D01*
G01X6712Y2900D01*
G01X6711Y2896D01*
G01X6710Y2893D01*
G01X6709Y2889D01*
G01X6707Y2886D01*
G01X6705Y2884D01*
G01X6702Y2881D01*
G01X6699Y2879D01*
G01X6696Y2877D01*
G01X6693Y2875D01*
G01X6690Y2874D01*
G01X6686Y2874D01*
G01X6683Y2874D01*
G01X6643Y2874D01*
G01X6640Y2874D01*
G01X6636Y2874D01*
G01X6633Y2875D01*
G01X6630Y2877D01*
G01X6626Y2879D01*
G01X6624Y2881D01*
G01X6621Y2884D01*
G01X6619Y2886D01*
G01X6617Y2889D01*
G01X6616Y2893D01*
G01X6615Y2896D01*
G01X6614Y2900D01*
G01X6614Y2903D01*
G01X6614Y3120D01*
G37*
G36*
G01X6417Y3120D02*
G01X6417Y3123D01*
G01X6418Y3127D01*
G01X6419Y3130D01*
G01X6420Y3133D01*
G01X6422Y3136D01*
G01X6424Y3139D01*
G01X6427Y3142D01*
G01X6430Y3144D01*
G01X6433Y3146D01*
G01X6436Y3147D01*
G01X6439Y3148D01*
G01X6443Y3149D01*
G01X6446Y3149D01*
G01X6486Y3149D01*
G01X6489Y3149D01*
G01X6493Y3148D01*
G01X6496Y3147D01*
G01X6499Y3146D01*
G01X6503Y3144D01*
G01X6505Y3142D01*
G01X6508Y3139D01*
G01X6510Y3136D01*
G01X6512Y3133D01*
G01X6513Y3130D01*
G01X6514Y3127D01*
G01X6515Y3123D01*
G01X6515Y3120D01*
G01X6515Y2903D01*
G01X6515Y2900D01*
G01X6514Y2896D01*
G01X6513Y2893D01*
G01X6512Y2889D01*
G01X6510Y2886D01*
G01X6508Y2884D01*
G01X6505Y2881D01*
G01X6503Y2879D01*
G01X6499Y2877D01*
G01X6496Y2875D01*
G01X6493Y2874D01*
G01X6489Y2874D01*
G01X6486Y2874D01*
G01X6446Y2874D01*
G01X6443Y2874D01*
G01X6439Y2874D01*
G01X6436Y2875D01*
G01X6433Y2877D01*
G01X6430Y2879D01*
G01X6427Y2881D01*
G01X6424Y2884D01*
G01X6422Y2886D01*
G01X6420Y2889D01*
G01X6419Y2893D01*
G01X6418Y2896D01*
G01X6417Y2900D01*
G01X6417Y2903D01*
G01X6417Y3120D01*
G37*
G36*
G01X6220Y3120D02*
G01X6220Y3123D01*
G01X6221Y3127D01*
G01X6222Y3130D01*
G01X6223Y3133D01*
G01X6225Y3136D01*
G01X6227Y3139D01*
G01X6230Y3142D01*
G01X6233Y3144D01*
G01X6236Y3146D01*
G01X6239Y3147D01*
G01X6242Y3148D01*
G01X6246Y3149D01*
G01X6250Y3149D01*
G01X6289Y3149D01*
G01X6292Y3149D01*
G01X6296Y3148D01*
G01X6299Y3147D01*
G01X6303Y3146D01*
G01X6306Y3144D01*
G01X6308Y3142D01*
G01X6311Y3139D01*
G01X6313Y3136D01*
G01X6315Y3133D01*
G01X6317Y3130D01*
G01X6318Y3127D01*
G01X6318Y3123D01*
G01X6318Y3120D01*
G01X6318Y2746D01*
G01X6318Y2742D01*
G01X6318Y2739D01*
G01X6317Y2735D01*
G01X6315Y2732D01*
G01X6313Y2729D01*
G01X6311Y2726D01*
G01X6308Y2724D01*
G01X6306Y2721D01*
G01X6303Y2719D01*
G01X6299Y2718D01*
G01X6296Y2717D01*
G01X6292Y2716D01*
G01X6289Y2716D01*
G01X6250Y2716D01*
G01X6246Y2716D01*
G01X6242Y2717D01*
G01X6239Y2718D01*
G01X6236Y2719D01*
G01X6233Y2721D01*
G01X6230Y2724D01*
G01X6227Y2726D01*
G01X6225Y2729D01*
G01X6223Y2732D01*
G01X6222Y2735D01*
G01X6221Y2739D01*
G01X6220Y2742D01*
G01X6220Y2746D01*
G01X6220Y3120D01*
G37*
G36*
G01X6023Y3120D02*
G01X6023Y3123D01*
G01X6024Y3127D01*
G01X6025Y3130D01*
G01X6027Y3133D01*
G01X6028Y3136D01*
G01X6031Y3139D01*
G01X6033Y3142D01*
G01X6036Y3144D01*
G01X6039Y3146D01*
G01X6042Y3147D01*
G01X6046Y3148D01*
G01X6049Y3149D01*
G01X6053Y3149D01*
G01X6092Y3149D01*
G01X6096Y3149D01*
G01X6099Y3148D01*
G01X6103Y3147D01*
G01X6106Y3146D01*
G01X6109Y3144D01*
G01X6112Y3142D01*
G01X6114Y3139D01*
G01X6116Y3136D01*
G01X6118Y3133D01*
G01X6120Y3130D01*
G01X6121Y3127D01*
G01X6121Y3123D01*
G01X6122Y3120D01*
G01X6122Y2746D01*
G01X6121Y2742D01*
G01X6121Y2739D01*
G01X6120Y2735D01*
G01X6118Y2732D01*
G01X6116Y2729D01*
G01X6114Y2726D01*
G01X6112Y2724D01*
G01X6109Y2721D01*
G01X6106Y2719D01*
G01X6103Y2718D01*
G01X6099Y2717D01*
G01X6096Y2716D01*
G01X6092Y2716D01*
G01X6053Y2716D01*
G01X6049Y2716D01*
G01X6046Y2717D01*
G01X6042Y2718D01*
G01X6039Y2719D01*
G01X6036Y2721D01*
G01X6033Y2724D01*
G01X6031Y2726D01*
G01X6028Y2729D01*
G01X6027Y2732D01*
G01X6025Y2735D01*
G01X6024Y2739D01*
G01X6023Y2742D01*
G01X6023Y2746D01*
G01X6023Y3120D01*
G37*
G36*
G01X5826Y3120D02*
G01X5827Y3123D01*
G01X5827Y3127D01*
G01X5828Y3130D01*
G01X5830Y3133D01*
G01X5832Y3136D01*
G01X5834Y3139D01*
G01X5836Y3142D01*
G01X5839Y3144D01*
G01X5842Y3146D01*
G01X5845Y3147D01*
G01X5849Y3148D01*
G01X5852Y3149D01*
G01X5856Y3149D01*
G01X5895Y3149D01*
G01X5899Y3149D01*
G01X5902Y3148D01*
G01X5906Y3147D01*
G01X5909Y3146D01*
G01X5912Y3144D01*
G01X5915Y3142D01*
G01X5917Y3139D01*
G01X5920Y3136D01*
G01X5921Y3133D01*
G01X5923Y3130D01*
G01X5924Y3127D01*
G01X5925Y3123D01*
G01X5925Y3120D01*
G01X5925Y2903D01*
G01X5925Y2900D01*
G01X5924Y2896D01*
G01X5923Y2893D01*
G01X5921Y2889D01*
G01X5920Y2886D01*
G01X5917Y2884D01*
G01X5915Y2881D01*
G01X5912Y2879D01*
G01X5909Y2877D01*
G01X5906Y2875D01*
G01X5902Y2874D01*
G01X5899Y2874D01*
G01X5895Y2874D01*
G01X5856Y2874D01*
G01X5852Y2874D01*
G01X5849Y2874D01*
G01X5845Y2875D01*
G01X5842Y2877D01*
G01X5839Y2879D01*
G01X5836Y2881D01*
G01X5834Y2884D01*
G01X5832Y2886D01*
G01X5830Y2889D01*
G01X5828Y2893D01*
G01X5827Y2896D01*
G01X5827Y2900D01*
G01X5826Y2903D01*
G01X5826Y3120D01*
G37*
G36*
G01X5629Y3120D02*
G01X5630Y3123D01*
G01X5630Y3127D01*
G01X5631Y3130D01*
G01X5633Y3133D01*
G01X5635Y3136D01*
G01X5637Y3139D01*
G01X5639Y3142D01*
G01X5642Y3144D01*
G01X5645Y3146D01*
G01X5649Y3147D01*
G01X5652Y3148D01*
G01X5655Y3149D01*
G01X5659Y3149D01*
G01X5698Y3149D01*
G01X5702Y3149D01*
G01X5705Y3148D01*
G01X5709Y3147D01*
G01X5712Y3146D01*
G01X5715Y3144D01*
G01X5718Y3142D01*
G01X5720Y3139D01*
G01X5723Y3136D01*
G01X5725Y3133D01*
G01X5726Y3130D01*
G01X5727Y3127D01*
G01X5728Y3123D01*
G01X5728Y3120D01*
G01X5728Y2903D01*
G01X5728Y2900D01*
G01X5727Y2896D01*
G01X5726Y2893D01*
G01X5725Y2889D01*
G01X5723Y2886D01*
G01X5720Y2884D01*
G01X5718Y2881D01*
G01X5715Y2879D01*
G01X5712Y2877D01*
G01X5709Y2875D01*
G01X5705Y2874D01*
G01X5702Y2874D01*
G01X5698Y2874D01*
G01X5659Y2874D01*
G01X5655Y2874D01*
G01X5652Y2874D01*
G01X5649Y2875D01*
G01X5645Y2877D01*
G01X5642Y2879D01*
G01X5639Y2881D01*
G01X5637Y2884D01*
G01X5635Y2886D01*
G01X5633Y2889D01*
G01X5631Y2893D01*
G01X5630Y2896D01*
G01X5630Y2900D01*
G01X5629Y2903D01*
G01X5629Y3120D01*
G37*
G36*
G01X5671Y1171D02*
G01X5669Y1171D01*
G01X5668Y1171D01*
G01X5667Y1172D01*
G01X5665Y1172D01*
G01X5664Y1173D01*
G01X5663Y1174D01*
G01X5662Y1175D01*
G01X5661Y1176D01*
G01X5660Y1177D01*
G01X5660Y1178D01*
G01X5659Y1180D01*
G01X5659Y1181D01*
G01X5659Y1183D01*
G01X5659Y1927D01*
G01X5659Y1928D01*
G01X5659Y1930D01*
G01X5660Y1931D01*
G01X5660Y1932D01*
G01X5661Y1933D01*
G01X5662Y1935D01*
G01X5663Y1936D01*
G01X5664Y1936D01*
G01X5665Y1937D01*
G01X5667Y1938D01*
G01X5668Y1938D01*
G01X5669Y1938D01*
G01X5671Y1939D01*
G01X5883Y1939D01*
G01X5885Y1938D01*
G01X5886Y1938D01*
G01X5888Y1938D01*
G01X5889Y1937D01*
G01X5890Y1936D01*
G01X5891Y1936D01*
G01X5892Y1935D01*
G01X5893Y1933D01*
G01X5894Y1932D01*
G01X5894Y1931D01*
G01X5895Y1930D01*
G01X5895Y1928D01*
G01X5895Y1927D01*
G01X5895Y1183D01*
G01X5895Y1181D01*
G01X5895Y1180D01*
G01X5894Y1178D01*
G01X5894Y1177D01*
G01X5893Y1176D01*
G01X5892Y1175D01*
G01X5891Y1174D01*
G01X5890Y1173D01*
G01X5889Y1172D01*
G01X5888Y1172D01*
G01X5886Y1171D01*
G01X5885Y1171D01*
G01X5883Y1171D01*
G01X5671Y1171D01*
G37*
G36*
G01X6458Y1171D02*
G01X6457Y1171D01*
G01X6455Y1171D01*
G01X6454Y1172D01*
G01X6453Y1172D01*
G01X6451Y1173D01*
G01X6450Y1174D01*
G01X6449Y1175D01*
G01X6448Y1176D01*
G01X6448Y1177D01*
G01X6447Y1178D01*
G01X6447Y1180D01*
G01X6446Y1181D01*
G01X6446Y1183D01*
G01X6446Y1927D01*
G01X6446Y1928D01*
G01X6447Y1930D01*
G01X6447Y1931D01*
G01X6448Y1932D01*
G01X6448Y1933D01*
G01X6449Y1935D01*
G01X6450Y1936D01*
G01X6451Y1936D01*
G01X6453Y1937D01*
G01X6454Y1938D01*
G01X6455Y1938D01*
G01X6457Y1938D01*
G01X6458Y1939D01*
G01X6671Y1939D01*
G01X6672Y1938D01*
G01X6674Y1938D01*
G01X6675Y1938D01*
G01X6676Y1937D01*
G01X6678Y1936D01*
G01X6679Y1936D01*
G01X6680Y1935D01*
G01X6681Y1933D01*
G01X6681Y1932D01*
G01X6682Y1931D01*
G01X6682Y1930D01*
G01X6683Y1928D01*
G01X6683Y1927D01*
G01X6683Y1183D01*
G01X6683Y1181D01*
G01X6682Y1180D01*
G01X6682Y1178D01*
G01X6681Y1177D01*
G01X6681Y1176D01*
G01X6680Y1175D01*
G01X6679Y1174D01*
G01X6678Y1173D01*
G01X6676Y1172D01*
G01X6675Y1172D01*
G01X6674Y1171D01*
G01X6672Y1171D01*
G01X6671Y1171D01*
G01X6458Y1171D01*
G37*
G36*
G01X5310Y1967D02*
G01X5310Y1967D01*
G01X5311Y1967D01*
G01X5311Y1967D01*
G01X5312Y1967D01*
G01X5312Y1966D01*
G01X5312Y1966D01*
G01X5313Y1966D01*
G01X5313Y1965D01*
G01X5313Y1965D01*
G01X5313Y1965D01*
G01X5313Y1964D01*
G01X5313Y1964D01*
G01X5314Y1963D01*
G01X5314Y1727D01*
G01X5313Y1726D01*
G01X5313Y1726D01*
G01X5313Y1725D01*
G01X5313Y1725D01*
G01X5313Y1725D01*
G01X5313Y1724D01*
G01X5312Y1724D01*
G01X5312Y1724D01*
G01X5312Y1723D01*
G01X5311Y1723D01*
G01X5311Y1723D01*
G01X5310Y1723D01*
G01X5310Y1723D01*
G01X5073Y1723D01*
G01X5073Y1723D01*
G01X5072Y1723D01*
G01X5072Y1723D01*
G01X5071Y1723D01*
G01X5071Y1724D01*
G01X5071Y1724D01*
G01X5070Y1724D01*
G01X5070Y1725D01*
G01X5070Y1725D01*
G01X5070Y1725D01*
G01X5070Y1726D01*
G01X5069Y1726D01*
G01X5069Y1727D01*
G01X5069Y1963D01*
G01X5069Y1964D01*
G01X5070Y1964D01*
G01X5070Y1965D01*
G01X5070Y1965D01*
G01X5070Y1965D01*
G01X5070Y1966D01*
G01X5071Y1966D01*
G01X5071Y1966D01*
G01X5071Y1967D01*
G01X5072Y1967D01*
G01X5072Y1967D01*
G01X5073Y1967D01*
G01X5073Y1967D01*
G01X5310Y1967D01*
G37*
G36*
G01X5310Y1613D02*
G01X5310Y1613D01*
G01X5311Y1613D01*
G01X5311Y1612D01*
G01X5312Y1612D01*
G01X5312Y1612D01*
G01X5312Y1612D01*
G01X5313Y1612D01*
G01X5313Y1611D01*
G01X5313Y1611D01*
G01X5313Y1610D01*
G01X5313Y1610D01*
G01X5313Y1610D01*
G01X5314Y1609D01*
G01X5314Y1372D01*
G01X5313Y1372D01*
G01X5313Y1371D01*
G01X5313Y1371D01*
G01X5313Y1371D01*
G01X5313Y1370D01*
G01X5313Y1370D01*
G01X5312Y1370D01*
G01X5312Y1369D01*
G01X5312Y1369D01*
G01X5311Y1369D01*
G01X5311Y1369D01*
G01X5310Y1369D01*
G01X5310Y1369D01*
G01X5073Y1369D01*
G01X5073Y1369D01*
G01X5072Y1369D01*
G01X5072Y1369D01*
G01X5071Y1369D01*
G01X5071Y1369D01*
G01X5071Y1370D01*
G01X5070Y1370D01*
G01X5070Y1370D01*
G01X5070Y1371D01*
G01X5070Y1371D01*
G01X5070Y1371D01*
G01X5069Y1372D01*
G01X5069Y1372D01*
G01X5069Y1609D01*
G01X5069Y1610D01*
G01X5070Y1610D01*
G01X5070Y1610D01*
G01X5070Y1611D01*
G01X5070Y1611D01*
G01X5070Y1612D01*
G01X5071Y1612D01*
G01X5071Y1612D01*
G01X5071Y1612D01*
G01X5072Y1612D01*
G01X5072Y1613D01*
G01X5073Y1613D01*
G01X5073Y1613D01*
G01X5310Y1613D01*
G37*
G36*
G01X4694Y1364D02*
G01X4694Y1364D01*
G01X4693Y1364D01*
G01X4693Y1364D01*
G01X4692Y1364D01*
G01X4692Y1364D01*
G01X4692Y1365D01*
G01X4691Y1365D01*
G01X4691Y1365D01*
G01X4691Y1366D01*
G01X4691Y1366D01*
G01X4691Y1367D01*
G01X4691Y1367D01*
G01X4690Y1367D01*
G01X4690Y1604D01*
G01X4691Y1605D01*
G01X4691Y1605D01*
G01X4691Y1605D01*
G01X4691Y1606D01*
G01X4691Y1606D01*
G01X4691Y1607D01*
G01X4692Y1607D01*
G01X4692Y1607D01*
G01X4692Y1607D01*
G01X4693Y1607D01*
G01X4693Y1608D01*
G01X4694Y1608D01*
G01X4694Y1608D01*
G01X4931Y1608D01*
G01X4931Y1608D01*
G01X4932Y1608D01*
G01X4932Y1607D01*
G01X4933Y1607D01*
G01X4933Y1607D01*
G01X4933Y1607D01*
G01X4934Y1607D01*
G01X4934Y1606D01*
G01X4934Y1606D01*
G01X4934Y1605D01*
G01X4934Y1605D01*
G01X4935Y1605D01*
G01X4935Y1604D01*
G01X4935Y1367D01*
G01X4935Y1367D01*
G01X4934Y1367D01*
G01X4934Y1366D01*
G01X4934Y1366D01*
G01X4934Y1365D01*
G01X4934Y1365D01*
G01X4933Y1365D01*
G01X4933Y1364D01*
G01X4933Y1364D01*
G01X4932Y1364D01*
G01X4932Y1364D01*
G01X4931Y1364D01*
G01X4931Y1364D01*
G01X4694Y1364D01*
G37*
G36*
G01X4694Y1718D02*
G01X4694Y1718D01*
G01X4693Y1718D01*
G01X4693Y1718D01*
G01X4692Y1718D01*
G01X4692Y1719D01*
G01X4692Y1719D01*
G01X4691Y1719D01*
G01X4691Y1720D01*
G01X4691Y1720D01*
G01X4691Y1720D01*
G01X4691Y1721D01*
G01X4691Y1721D01*
G01X4690Y1722D01*
G01X4690Y1958D01*
G01X4691Y1959D01*
G01X4691Y1959D01*
G01X4691Y1960D01*
G01X4691Y1960D01*
G01X4691Y1961D01*
G01X4691Y1961D01*
G01X4692Y1961D01*
G01X4692Y1961D01*
G01X4692Y1962D01*
G01X4693Y1962D01*
G01X4693Y1962D01*
G01X4694Y1962D01*
G01X4694Y1962D01*
G01X4931Y1962D01*
G01X4931Y1962D01*
G01X4932Y1962D01*
G01X4932Y1962D01*
G01X4933Y1962D01*
G01X4933Y1961D01*
G01X4933Y1961D01*
G01X4934Y1961D01*
G01X4934Y1961D01*
G01X4934Y1960D01*
G01X4934Y1960D01*
G01X4934Y1959D01*
G01X4935Y1959D01*
G01X4935Y1958D01*
G01X4935Y1722D01*
G01X4935Y1721D01*
G01X4934Y1721D01*
G01X4934Y1720D01*
G01X4934Y1720D01*
G01X4934Y1720D01*
G01X4934Y1719D01*
G01X4933Y1719D01*
G01X4933Y1719D01*
G01X4933Y1718D01*
G01X4932Y1718D01*
G01X4932Y1718D01*
G01X4931Y1718D01*
G01X4931Y1718D01*
G01X4694Y1718D01*
G37*
G36*
G01X5571Y4590D02*
G01X5571Y4590D01*
G01X5572Y4590D01*
G01X5572Y4590D01*
G01X5572Y4590D01*
G01X5573Y4589D01*
G01X5573Y4589D01*
G01X5573Y4589D01*
G01X5574Y4589D01*
G01X5574Y4588D01*
G01X5574Y4588D01*
G01X5574Y4587D01*
G01X5574Y4587D01*
G01X5574Y4586D01*
G01X5574Y4350D01*
G01X5574Y4349D01*
G01X5574Y4349D01*
G01X5574Y4348D01*
G01X5574Y4348D01*
G01X5574Y4348D01*
G01X5573Y4347D01*
G01X5573Y4347D01*
G01X5573Y4347D01*
G01X5572Y4346D01*
G01X5572Y4346D01*
G01X5572Y4346D01*
G01X5571Y4346D01*
G01X5571Y4346D01*
G01X5334Y4346D01*
G01X5333Y4346D01*
G01X5333Y4346D01*
G01X5333Y4346D01*
G01X5332Y4346D01*
G01X5332Y4347D01*
G01X5331Y4347D01*
G01X5331Y4347D01*
G01X5331Y4348D01*
G01X5331Y4348D01*
G01X5330Y4348D01*
G01X5330Y4349D01*
G01X5330Y4349D01*
G01X5330Y4350D01*
G01X5330Y4586D01*
G01X5330Y4587D01*
G01X5330Y4587D01*
G01X5330Y4588D01*
G01X5331Y4588D01*
G01X5331Y4589D01*
G01X5331Y4589D01*
G01X5331Y4589D01*
G01X5332Y4589D01*
G01X5332Y4590D01*
G01X5333Y4590D01*
G01X5333Y4590D01*
G01X5333Y4590D01*
G01X5334Y4590D01*
G01X5571Y4590D01*
G37*
G36*
G01X5571Y4236D02*
G01X5571Y4236D01*
G01X5572Y4236D01*
G01X5572Y4236D01*
G01X5572Y4235D01*
G01X5573Y4235D01*
G01X5573Y4235D01*
G01X5573Y4235D01*
G01X5574Y4234D01*
G01X5574Y4234D01*
G01X5574Y4233D01*
G01X5574Y4233D01*
G01X5574Y4233D01*
G01X5574Y4232D01*
G01X5574Y3995D01*
G01X5574Y3995D01*
G01X5574Y3994D01*
G01X5574Y3994D01*
G01X5574Y3994D01*
G01X5574Y3993D01*
G01X5573Y3993D01*
G01X5573Y3993D01*
G01X5573Y3992D01*
G01X5572Y3992D01*
G01X5572Y3992D01*
G01X5572Y3992D01*
G01X5571Y3992D01*
G01X5571Y3992D01*
G01X5334Y3992D01*
G01X5333Y3992D01*
G01X5333Y3992D01*
G01X5333Y3992D01*
G01X5332Y3992D01*
G01X5332Y3992D01*
G01X5331Y3993D01*
G01X5331Y3993D01*
G01X5331Y3993D01*
G01X5331Y3994D01*
G01X5330Y3994D01*
G01X5330Y3994D01*
G01X5330Y3995D01*
G01X5330Y3995D01*
G01X5330Y4232D01*
G01X5330Y4233D01*
G01X5330Y4233D01*
G01X5330Y4233D01*
G01X5331Y4234D01*
G01X5331Y4234D01*
G01X5331Y4235D01*
G01X5331Y4235D01*
G01X5332Y4235D01*
G01X5332Y4235D01*
G01X5333Y4236D01*
G01X5333Y4236D01*
G01X5333Y4236D01*
G01X5334Y4236D01*
G01X5571Y4236D01*
G37*
G36*
G01X5708Y3992D02*
G01X5707Y3992D01*
G01X5707Y3992D01*
G01X5707Y3992D01*
G01X5706Y3992D01*
G01X5706Y3992D01*
G01X5705Y3993D01*
G01X5705Y3993D01*
G01X5705Y3993D01*
G01X5705Y3994D01*
G01X5705Y3994D01*
G01X5704Y3994D01*
G01X5704Y3995D01*
G01X5704Y3995D01*
G01X5704Y4232D01*
G01X5704Y4233D01*
G01X5704Y4233D01*
G01X5705Y4233D01*
G01X5705Y4234D01*
G01X5705Y4234D01*
G01X5705Y4235D01*
G01X5705Y4235D01*
G01X5706Y4235D01*
G01X5706Y4235D01*
G01X5707Y4236D01*
G01X5707Y4236D01*
G01X5707Y4236D01*
G01X5708Y4236D01*
G01X5945Y4236D01*
G01X5945Y4236D01*
G01X5946Y4236D01*
G01X5946Y4236D01*
G01X5946Y4235D01*
G01X5947Y4235D01*
G01X5947Y4235D01*
G01X5947Y4235D01*
G01X5948Y4234D01*
G01X5948Y4234D01*
G01X5948Y4233D01*
G01X5948Y4233D01*
G01X5948Y4233D01*
G01X5948Y4232D01*
G01X5948Y3995D01*
G01X5948Y3995D01*
G01X5948Y3994D01*
G01X5948Y3994D01*
G01X5948Y3994D01*
G01X5948Y3993D01*
G01X5947Y3993D01*
G01X5947Y3993D01*
G01X5947Y3992D01*
G01X5946Y3992D01*
G01X5946Y3992D01*
G01X5946Y3992D01*
G01X5945Y3992D01*
G01X5945Y3992D01*
G01X5708Y3992D01*
G37*
G36*
G01X5708Y4346D02*
G01X5707Y4346D01*
G01X5707Y4346D01*
G01X5707Y4346D01*
G01X5706Y4346D01*
G01X5706Y4347D01*
G01X5705Y4347D01*
G01X5705Y4347D01*
G01X5705Y4348D01*
G01X5705Y4348D01*
G01X5705Y4348D01*
G01X5704Y4349D01*
G01X5704Y4349D01*
G01X5704Y4350D01*
G01X5704Y4586D01*
G01X5704Y4587D01*
G01X5704Y4587D01*
G01X5705Y4588D01*
G01X5705Y4588D01*
G01X5705Y4589D01*
G01X5705Y4589D01*
G01X5705Y4589D01*
G01X5706Y4589D01*
G01X5706Y4590D01*
G01X5707Y4590D01*
G01X5707Y4590D01*
G01X5707Y4590D01*
G01X5708Y4590D01*
G01X5945Y4590D01*
G01X5945Y4590D01*
G01X5946Y4590D01*
G01X5946Y4590D01*
G01X5946Y4590D01*
G01X5947Y4589D01*
G01X5947Y4589D01*
G01X5947Y4589D01*
G01X5948Y4589D01*
G01X5948Y4588D01*
G01X5948Y4588D01*
G01X5948Y4587D01*
G01X5948Y4587D01*
G01X5948Y4586D01*
G01X5948Y4350D01*
G01X5948Y4349D01*
G01X5948Y4349D01*
G01X5948Y4348D01*
G01X5948Y4348D01*
G01X5948Y4348D01*
G01X5947Y4347D01*
G01X5947Y4347D01*
G01X5947Y4347D01*
G01X5946Y4346D01*
G01X5946Y4346D01*
G01X5946Y4346D01*
G01X5945Y4346D01*
G01X5945Y4346D01*
G01X5708Y4346D01*
G37*
G36*
G01X6156Y4838D02*
G01X6156Y4837D01*
G01X6156Y4836D01*
G01X6156Y4836D01*
G01X6155Y4835D01*
G01X6155Y4835D01*
G01X6155Y4834D01*
G01X6154Y4834D01*
G01X6154Y4833D01*
G01X6153Y4833D01*
G01X6152Y4833D01*
G01X6152Y4832D01*
G01X6151Y4832D01*
G01X6150Y4832D01*
G01X5788Y4832D01*
G01X5787Y4832D01*
G01X5786Y4832D01*
G01X5786Y4833D01*
G01X5785Y4833D01*
G01X5784Y4833D01*
G01X5784Y4834D01*
G01X5783Y4834D01*
G01X5783Y4835D01*
G01X5783Y4835D01*
G01X5782Y4836D01*
G01X5782Y4836D01*
G01X5782Y4837D01*
G01X5782Y4838D01*
G01X5782Y5397D01*
G01X5782Y5398D01*
G01X5782Y5399D01*
G01X5782Y5399D01*
G01X5783Y5400D01*
G01X5783Y5401D01*
G01X5783Y5401D01*
G01X5784Y5402D01*
G01X5784Y5402D01*
G01X5785Y5402D01*
G01X5786Y5403D01*
G01X5786Y5403D01*
G01X5787Y5403D01*
G01X5788Y5403D01*
G01X6150Y5403D01*
G01X6151Y5403D01*
G01X6152Y5403D01*
G01X6152Y5403D01*
G01X6153Y5402D01*
G01X6154Y5402D01*
G01X6154Y5402D01*
G01X6155Y5401D01*
G01X6155Y5401D01*
G01X6155Y5400D01*
G01X6156Y5399D01*
G01X6156Y5399D01*
G01X6156Y5398D01*
G01X6156Y5397D01*
G01X6156Y4838D01*
G37*
G36*
G01X5369Y4838D02*
G01X5369Y4837D01*
G01X5368Y4836D01*
G01X5368Y4836D01*
G01X5368Y4835D01*
G01X5368Y4835D01*
G01X5367Y4834D01*
G01X5367Y4834D01*
G01X5366Y4833D01*
G01X5366Y4833D01*
G01X5365Y4833D01*
G01X5364Y4832D01*
G01X5364Y4832D01*
G01X5363Y4832D01*
G01X5000Y4832D01*
G01X5000Y4832D01*
G01X4999Y4832D01*
G01X4998Y4833D01*
G01X4998Y4833D01*
G01X4997Y4833D01*
G01X4997Y4834D01*
G01X4996Y4834D01*
G01X4996Y4835D01*
G01X4995Y4835D01*
G01X4995Y4836D01*
G01X4995Y4836D01*
G01X4995Y4837D01*
G01X4995Y4838D01*
G01X4995Y5397D01*
G01X4995Y5398D01*
G01X4995Y5399D01*
G01X4995Y5399D01*
G01X4995Y5400D01*
G01X4996Y5401D01*
G01X4996Y5401D01*
G01X4997Y5402D01*
G01X4997Y5402D01*
G01X4998Y5402D01*
G01X4998Y5403D01*
G01X4999Y5403D01*
G01X5000Y5403D01*
G01X5000Y5403D01*
G01X5363Y5403D01*
G01X5364Y5403D01*
G01X5364Y5403D01*
G01X5365Y5403D01*
G01X5366Y5402D01*
G01X5366Y5402D01*
G01X5367Y5402D01*
G01X5367Y5401D01*
G01X5368Y5401D01*
G01X5368Y5400D01*
G01X5368Y5399D01*
G01X5368Y5399D01*
G01X5369Y5398D01*
G01X5369Y5397D01*
G01X5369Y4838D01*
G37*
G36*
G01X7676Y2977D02*
G01X7677Y2977D01*
G01X7677Y2977D01*
G01X7678Y2977D01*
G01X7679Y2976D01*
G01X7679Y2976D01*
G01X7680Y2975D01*
G01X7680Y2975D01*
G01X7681Y2974D01*
G01X7681Y2974D01*
G01X7681Y2973D01*
G01X7681Y2973D01*
G01X7681Y2972D01*
G01X7682Y2971D01*
G01X7682Y2609D01*
G01X7681Y2608D01*
G01X7681Y2607D01*
G01X7681Y2607D01*
G01X7681Y2606D01*
G01X7681Y2605D01*
G01X7680Y2605D01*
G01X7680Y2604D01*
G01X7679Y2604D01*
G01X7679Y2604D01*
G01X7678Y2603D01*
G01X7677Y2603D01*
G01X7677Y2603D01*
G01X7676Y2603D01*
G01X7116Y2603D01*
G01X7116Y2603D01*
G01X7115Y2603D01*
G01X7114Y2603D01*
G01X7114Y2604D01*
G01X7113Y2604D01*
G01X7113Y2604D01*
G01X7112Y2605D01*
G01X7112Y2605D01*
G01X7111Y2606D01*
G01X7111Y2607D01*
G01X7111Y2607D01*
G01X7111Y2608D01*
G01X7111Y2609D01*
G01X7111Y2971D01*
G01X7111Y2972D01*
G01X7111Y2973D01*
G01X7111Y2973D01*
G01X7111Y2974D01*
G01X7112Y2974D01*
G01X7112Y2975D01*
G01X7113Y2975D01*
G01X7113Y2976D01*
G01X7114Y2976D01*
G01X7114Y2977D01*
G01X7115Y2977D01*
G01X7116Y2977D01*
G01X7116Y2977D01*
G01X7676Y2977D01*
G37*
G36*
G01X7676Y2190D02*
G01X7677Y2189D01*
G01X7677Y2189D01*
G01X7678Y2189D01*
G01X7679Y2189D01*
G01X7679Y2189D01*
G01X7680Y2188D01*
G01X7680Y2188D01*
G01X7681Y2187D01*
G01X7681Y2187D01*
G01X7681Y2186D01*
G01X7681Y2185D01*
G01X7681Y2185D01*
G01X7682Y2184D01*
G01X7682Y1821D01*
G01X7681Y1820D01*
G01X7681Y1820D01*
G01X7681Y1819D01*
G01X7681Y1818D01*
G01X7681Y1818D01*
G01X7680Y1817D01*
G01X7680Y1817D01*
G01X7679Y1816D01*
G01X7679Y1816D01*
G01X7678Y1816D01*
G01X7677Y1816D01*
G01X7677Y1816D01*
G01X7676Y1815D01*
G01X7116Y1815D01*
G01X7116Y1816D01*
G01X7115Y1816D01*
G01X7114Y1816D01*
G01X7114Y1816D01*
G01X7113Y1816D01*
G01X7113Y1817D01*
G01X7112Y1817D01*
G01X7112Y1818D01*
G01X7111Y1818D01*
G01X7111Y1819D01*
G01X7111Y1820D01*
G01X7111Y1820D01*
G01X7111Y1821D01*
G01X7111Y2184D01*
G01X7111Y2185D01*
G01X7111Y2185D01*
G01X7111Y2186D01*
G01X7111Y2187D01*
G01X7112Y2187D01*
G01X7112Y2188D01*
G01X7113Y2188D01*
G01X7113Y2189D01*
G01X7114Y2189D01*
G01X7114Y2189D01*
G01X7115Y2189D01*
G01X7116Y2189D01*
G01X7116Y2190D01*
G01X7676Y2190D01*
G37*
G36*
G01X15078Y3637D02*
G01X15531Y3637D01*
G01X15531Y3362D01*
G01X15078Y3362D01*
G01X15078Y3637D01*
G37*
G36*
G01X15078Y3244D02*
G01X15531Y3244D01*
G01X15531Y2968D01*
G01X15078Y2968D01*
G01X15078Y3244D01*
G37*
G36*
G01X15078Y2850D02*
G01X15531Y2850D01*
G01X15531Y2574D01*
G01X15078Y2574D01*
G01X15078Y2850D01*
G37*
G36*
G01X15078Y4031D02*
G01X15531Y4031D01*
G01X15531Y3755D01*
G01X15078Y3755D01*
G01X15078Y4031D01*
G37*
G36*
G01X15078Y4425D02*
G01X15531Y4425D01*
G01X15531Y4149D01*
G01X15078Y4149D01*
G01X15078Y4425D01*
G37*
G36*
G01X11594Y2850D02*
G01X12047Y2850D01*
G01X12047Y2574D01*
G01X11594Y2574D01*
G01X11594Y2850D01*
G37*
G36*
G01X11594Y3244D02*
G01X12047Y3244D01*
G01X12047Y2968D01*
G01X11594Y2968D01*
G01X11594Y3244D01*
G37*
G36*
G01X11594Y3637D02*
G01X12047Y3637D01*
G01X12047Y3362D01*
G01X11594Y3362D01*
G01X11594Y3637D01*
G37*
G36*
G01X11594Y4425D02*
G01X12047Y4425D01*
G01X12047Y4149D01*
G01X11594Y4149D01*
G01X11594Y4425D01*
G37*
G36*
G01X11594Y4031D02*
G01X12047Y4031D01*
G01X12047Y3755D01*
G01X11594Y3755D01*
G01X11594Y4031D01*
G37*
G54D22*
G01X11791Y1876D03*
G01X12185Y1876D03*
G01X12578Y1876D03*
G01X12972Y1876D03*
G01X13366Y1876D03*
G01X13759Y1876D03*
G01X14153Y1876D03*
G01X14547Y1876D03*
G01X14940Y1876D03*
G01X15334Y1876D03*
G01X11791Y5124D03*
G01X12185Y5124D03*
G01X12578Y5124D03*
G01X12972Y5124D03*
G01X13366Y5124D03*
G01X13759Y5124D03*
G01X14153Y5124D03*
G01X14547Y5124D03*
G01X14940Y5124D03*
G01X15334Y5124D03*
G36*
G01X12224Y3854D02*
G01X12500Y3854D01*
G01X12500Y3578D01*
G01X12224Y3578D01*
G01X12224Y3854D01*
G37*
G36*
G01X12224Y4287D02*
G01X12500Y4287D01*
G01X12500Y4011D01*
G01X12224Y4011D01*
G01X12224Y4287D01*
G37*
G36*
G01X12224Y4720D02*
G01X12500Y4720D01*
G01X12500Y4444D01*
G01X12224Y4444D01*
G01X12224Y4720D01*
G37*
G36*
G01X12224Y3421D02*
G01X12500Y3421D01*
G01X12500Y3145D01*
G01X12224Y3145D01*
G01X12224Y3421D01*
G37*
G36*
G01X12224Y2988D02*
G01X12500Y2988D01*
G01X12500Y2712D01*
G01X12224Y2712D01*
G01X12224Y2988D01*
G37*
G36*
G01X12224Y2555D02*
G01X12500Y2555D01*
G01X12500Y2279D01*
G01X12224Y2279D01*
G01X12224Y2555D01*
G37*
G36*
G01X12748Y3421D02*
G01X13023Y3421D01*
G01X13023Y3145D01*
G01X12748Y3145D01*
G01X12748Y3421D01*
G37*
G36*
G01X12748Y3874D02*
G01X13023Y3874D01*
G01X13023Y3598D01*
G01X12748Y3598D01*
G01X12748Y3874D01*
G37*
G36*
G01X13200Y3421D02*
G01X13476Y3421D01*
G01X13476Y3145D01*
G01X13200Y3145D01*
G01X13200Y3421D01*
G37*
G36*
G01X13200Y2968D02*
G01X13476Y2968D01*
G01X13476Y2692D01*
G01X13200Y2692D01*
G01X13200Y2968D01*
G37*
G36*
G01X13200Y3874D02*
G01X13476Y3874D01*
G01X13476Y3598D01*
G01X13200Y3598D01*
G01X13200Y3874D01*
G37*
G36*
G01X13200Y4326D02*
G01X13476Y4326D01*
G01X13476Y4051D01*
G01X13200Y4051D01*
G01X13200Y4326D01*
G37*
G36*
G01X13653Y3874D02*
G01X13929Y3874D01*
G01X13929Y3598D01*
G01X13653Y3598D01*
G01X13653Y3874D01*
G37*
G36*
G01X13653Y3421D02*
G01X13929Y3421D01*
G01X13929Y3145D01*
G01X13653Y3145D01*
G01X13653Y3421D01*
G37*
G36*
G01X14106Y3421D02*
G01X14381Y3421D01*
G01X14381Y3145D01*
G01X14106Y3145D01*
G01X14106Y3421D01*
G37*
G36*
G01X14106Y3874D02*
G01X14381Y3874D01*
G01X14381Y3598D01*
G01X14106Y3598D01*
G01X14106Y3874D01*
G37*
G36*
G01X14106Y4326D02*
G01X14381Y4326D01*
G01X14381Y4051D01*
G01X14106Y4051D01*
G01X14106Y4326D01*
G37*
G36*
G01X14106Y2968D02*
G01X14381Y2968D01*
G01X14381Y2692D01*
G01X14106Y2692D01*
G01X14106Y2968D01*
G37*
G36*
G01X12677Y2555D02*
G01X12952Y2555D01*
G01X12952Y2279D01*
G01X12677Y2279D01*
G01X12677Y2555D01*
G37*
G36*
G01X13129Y2555D02*
G01X13405Y2555D01*
G01X13405Y2279D01*
G01X13129Y2279D01*
G01X13129Y2555D01*
G37*
G36*
G01X13582Y2555D02*
G01X13858Y2555D01*
G01X13858Y2279D01*
G01X13582Y2279D01*
G01X13582Y2555D01*
G37*
G36*
G01X14035Y2555D02*
G01X14311Y2555D01*
G01X14311Y2279D01*
G01X14035Y2279D01*
G01X14035Y2555D01*
G37*
G36*
G01X14488Y2555D02*
G01X14763Y2555D01*
G01X14763Y2279D01*
G01X14488Y2279D01*
G01X14488Y2555D01*
G37*
G36*
G01X14488Y4720D02*
G01X14763Y4720D01*
G01X14763Y4444D01*
G01X14488Y4444D01*
G01X14488Y4720D01*
G37*
G36*
G01X14035Y4720D02*
G01X14311Y4720D01*
G01X14311Y4444D01*
G01X14035Y4444D01*
G01X14035Y4720D01*
G37*
G36*
G01X13582Y4720D02*
G01X13858Y4720D01*
G01X13858Y4444D01*
G01X13582Y4444D01*
G01X13582Y4720D01*
G37*
G36*
G01X13129Y4720D02*
G01X13405Y4720D01*
G01X13405Y4444D01*
G01X13129Y4444D01*
G01X13129Y4720D01*
G37*
G36*
G01X12677Y4720D02*
G01X12952Y4720D01*
G01X12952Y4444D01*
G01X12677Y4444D01*
G01X12677Y4720D01*
G37*
G36*
G01X11200Y5212D02*
G01X11476Y5212D01*
G01X11476Y4937D01*
G01X11200Y4937D01*
G01X11200Y5212D01*
G37*
G36*
G01X11200Y4818D02*
G01X11476Y4818D01*
G01X11476Y4543D01*
G01X11200Y4543D01*
G01X11200Y4818D01*
G37*
G36*
G01X11200Y4425D02*
G01X11476Y4425D01*
G01X11476Y4149D01*
G01X11200Y4149D01*
G01X11200Y4425D01*
G37*
G36*
G01X11200Y4031D02*
G01X11476Y4031D01*
G01X11476Y3755D01*
G01X11200Y3755D01*
G01X11200Y4031D01*
G37*
G36*
G01X11200Y3637D02*
G01X11476Y3637D01*
G01X11476Y3362D01*
G01X11200Y3362D01*
G01X11200Y3637D01*
G37*
G36*
G01X11200Y3244D02*
G01X11476Y3244D01*
G01X11476Y2968D01*
G01X11200Y2968D01*
G01X11200Y3244D01*
G37*
G36*
G01X11200Y2850D02*
G01X11476Y2850D01*
G01X11476Y2574D01*
G01X11200Y2574D01*
G01X11200Y2850D01*
G37*
G36*
G01X11200Y2456D02*
G01X11476Y2456D01*
G01X11476Y2181D01*
G01X11200Y2181D01*
G01X11200Y2456D01*
G37*
G36*
G01X11200Y2063D02*
G01X11476Y2063D01*
G01X11476Y1787D01*
G01X11200Y1787D01*
G01X11200Y2063D01*
G37*
G36*
G01X12524Y1456D02*
G01X12524Y1456D01*
G01X12524Y1457D01*
G01X12524Y1458D01*
G01X12525Y1458D01*
G01X12525Y1459D01*
G01X12526Y1459D01*
G01X12526Y1460D01*
G01X12527Y1460D01*
G01X12527Y1461D01*
G01X12528Y1461D01*
G01X12528Y1461D01*
G01X12529Y1461D01*
G01X12530Y1461D01*
G01X12893Y1461D01*
G01X12893Y1461D01*
G01X12894Y1461D01*
G01X12894Y1461D01*
G01X12895Y1461D01*
G01X12896Y1460D01*
G01X12896Y1460D01*
G01X12897Y1459D01*
G01X12897Y1459D01*
G01X12897Y1458D01*
G01X12898Y1458D01*
G01X12898Y1457D01*
G01X12898Y1456D01*
G01X12898Y1456D01*
G01X12898Y1073D01*
G01X12898Y1072D01*
G01X12898Y1072D01*
G01X12898Y1071D01*
G01X12897Y1070D01*
G01X12897Y1070D01*
G01X12897Y1069D01*
G01X12896Y1069D01*
G01X12896Y1068D01*
G01X12895Y1068D01*
G01X12894Y1068D01*
G01X12894Y1068D01*
G01X12893Y1068D01*
G01X12893Y1067D01*
G01X12530Y1067D01*
G01X12529Y1068D01*
G01X12528Y1068D01*
G01X12528Y1068D01*
G01X12527Y1068D01*
G01X12527Y1068D01*
G01X12526Y1069D01*
G01X12526Y1069D01*
G01X12525Y1070D01*
G01X12525Y1070D01*
G01X12524Y1071D01*
G01X12524Y1072D01*
G01X12524Y1072D01*
G01X12524Y1073D01*
G01X12524Y1456D01*
G37*
G36*
G01X13154Y1456D02*
G01X13154Y1456D01*
G01X13154Y1457D01*
G01X13154Y1458D01*
G01X13155Y1458D01*
G01X13155Y1459D01*
G01X13155Y1459D01*
G01X13156Y1460D01*
G01X13156Y1460D01*
G01X13157Y1461D01*
G01X13158Y1461D01*
G01X13158Y1461D01*
G01X13159Y1461D01*
G01X13160Y1461D01*
G01X13522Y1461D01*
G01X13523Y1461D01*
G01X13524Y1461D01*
G01X13524Y1461D01*
G01X13525Y1461D01*
G01X13526Y1460D01*
G01X13526Y1460D01*
G01X13527Y1459D01*
G01X13527Y1459D01*
G01X13527Y1458D01*
G01X13528Y1458D01*
G01X13528Y1457D01*
G01X13528Y1456D01*
G01X13528Y1456D01*
G01X13528Y1073D01*
G01X13528Y1072D01*
G01X13528Y1072D01*
G01X13528Y1071D01*
G01X13527Y1070D01*
G01X13527Y1070D01*
G01X13527Y1069D01*
G01X13526Y1069D01*
G01X13526Y1068D01*
G01X13525Y1068D01*
G01X13524Y1068D01*
G01X13524Y1068D01*
G01X13523Y1068D01*
G01X13522Y1067D01*
G01X13160Y1067D01*
G01X13159Y1068D01*
G01X13158Y1068D01*
G01X13158Y1068D01*
G01X13157Y1068D01*
G01X13156Y1068D01*
G01X13156Y1069D01*
G01X13155Y1069D01*
G01X13155Y1070D01*
G01X13155Y1070D01*
G01X13154Y1071D01*
G01X13154Y1072D01*
G01X13154Y1072D01*
G01X13154Y1073D01*
G01X13154Y1456D01*
G37*
G36*
G01X9886Y1201D02*
G01X9886Y1201D01*
G01X9885Y1201D01*
G01X9885Y1202D01*
G01X9884Y1202D01*
G01X9884Y1202D01*
G01X9884Y1202D01*
G01X9883Y1203D01*
G01X9883Y1203D01*
G01X9883Y1203D01*
G01X9883Y1204D01*
G01X9883Y1204D01*
G01X9882Y1205D01*
G01X9882Y1205D01*
G01X9882Y1442D01*
G01X9882Y1442D01*
G01X9883Y1443D01*
G01X9883Y1443D01*
G01X9883Y1443D01*
G01X9883Y1444D01*
G01X9883Y1444D01*
G01X9884Y1444D01*
G01X9884Y1445D01*
G01X9884Y1445D01*
G01X9885Y1445D01*
G01X9885Y1445D01*
G01X9886Y1445D01*
G01X9886Y1445D01*
G01X10123Y1445D01*
G01X10123Y1445D01*
G01X10124Y1445D01*
G01X10124Y1445D01*
G01X10125Y1445D01*
G01X10125Y1445D01*
G01X10125Y1444D01*
G01X10126Y1444D01*
G01X10126Y1444D01*
G01X10126Y1443D01*
G01X10126Y1443D01*
G01X10126Y1443D01*
G01X10126Y1442D01*
G01X10126Y1442D01*
G01X10126Y1205D01*
G01X10126Y1205D01*
G01X10126Y1204D01*
G01X10126Y1204D01*
G01X10126Y1203D01*
G01X10126Y1203D01*
G01X10126Y1203D01*
G01X10125Y1202D01*
G01X10125Y1202D01*
G01X10125Y1202D01*
G01X10124Y1202D01*
G01X10124Y1201D01*
G01X10123Y1201D01*
G01X10123Y1201D01*
G01X9886Y1201D01*
G37*
G36*
G01X9886Y1556D02*
G01X9886Y1556D01*
G01X9885Y1556D01*
G01X9885Y1556D01*
G01X9884Y1556D01*
G01X9884Y1556D01*
G01X9884Y1557D01*
G01X9883Y1557D01*
G01X9883Y1557D01*
G01X9883Y1558D01*
G01X9883Y1558D01*
G01X9883Y1558D01*
G01X9882Y1559D01*
G01X9882Y1559D01*
G01X9882Y1796D01*
G01X9882Y1797D01*
G01X9883Y1797D01*
G01X9883Y1797D01*
G01X9883Y1798D01*
G01X9883Y1798D01*
G01X9883Y1798D01*
G01X9884Y1799D01*
G01X9884Y1799D01*
G01X9884Y1799D01*
G01X9885Y1800D01*
G01X9885Y1800D01*
G01X9886Y1800D01*
G01X9886Y1800D01*
G01X10123Y1800D01*
G01X10123Y1800D01*
G01X10124Y1800D01*
G01X10124Y1800D01*
G01X10125Y1799D01*
G01X10125Y1799D01*
G01X10125Y1799D01*
G01X10126Y1798D01*
G01X10126Y1798D01*
G01X10126Y1798D01*
G01X10126Y1797D01*
G01X10126Y1797D01*
G01X10126Y1797D01*
G01X10126Y1796D01*
G01X10126Y1559D01*
G01X10126Y1559D01*
G01X10126Y1558D01*
G01X10126Y1558D01*
G01X10126Y1558D01*
G01X10126Y1557D01*
G01X10126Y1557D01*
G01X10125Y1557D01*
G01X10125Y1556D01*
G01X10125Y1556D01*
G01X10124Y1556D01*
G01X10124Y1556D01*
G01X10123Y1556D01*
G01X10123Y1556D01*
G01X9886Y1556D01*
G37*
G36*
G01X14354Y1185D02*
G01X14354Y1185D01*
G01X14354Y1184D01*
G01X14354Y1184D01*
G01X14353Y1184D01*
G01X14353Y1183D01*
G01X14353Y1183D01*
G01X14353Y1183D01*
G01X14352Y1182D01*
G01X14352Y1182D01*
G01X14351Y1182D01*
G01X14351Y1182D01*
G01X14351Y1182D01*
G01X14350Y1182D01*
G01X14113Y1182D01*
G01X14113Y1182D01*
G01X14113Y1182D01*
G01X14112Y1182D01*
G01X14112Y1182D01*
G01X14111Y1182D01*
G01X14111Y1183D01*
G01X14111Y1183D01*
G01X14110Y1183D01*
G01X14110Y1184D01*
G01X14110Y1184D01*
G01X14110Y1184D01*
G01X14110Y1185D01*
G01X14110Y1185D01*
G01X14110Y1422D01*
G01X14110Y1423D01*
G01X14110Y1423D01*
G01X14110Y1423D01*
G01X14110Y1424D01*
G01X14110Y1424D01*
G01X14111Y1424D01*
G01X14111Y1425D01*
G01X14111Y1425D01*
G01X14112Y1425D01*
G01X14112Y1425D01*
G01X14113Y1426D01*
G01X14113Y1426D01*
G01X14113Y1426D01*
G01X14350Y1426D01*
G01X14351Y1426D01*
G01X14351Y1426D01*
G01X14351Y1425D01*
G01X14352Y1425D01*
G01X14352Y1425D01*
G01X14353Y1425D01*
G01X14353Y1424D01*
G01X14353Y1424D01*
G01X14353Y1424D01*
G01X14354Y1423D01*
G01X14354Y1423D01*
G01X14354Y1423D01*
G01X14354Y1422D01*
G01X14354Y1185D01*
G37*
G36*
G01X14000Y1185D02*
G01X13999Y1185D01*
G01X13999Y1184D01*
G01X13999Y1184D01*
G01X13999Y1184D01*
G01X13999Y1183D01*
G01X13999Y1183D01*
G01X13998Y1183D01*
G01X13998Y1182D01*
G01X13997Y1182D01*
G01X13997Y1182D01*
G01X13997Y1182D01*
G01X13996Y1182D01*
G01X13996Y1182D01*
G01X13759Y1182D01*
G01X13759Y1182D01*
G01X13758Y1182D01*
G01X13758Y1182D01*
G01X13757Y1182D01*
G01X13757Y1182D01*
G01X13757Y1183D01*
G01X13756Y1183D01*
G01X13756Y1183D01*
G01X13756Y1184D01*
G01X13756Y1184D01*
G01X13756Y1184D01*
G01X13755Y1185D01*
G01X13755Y1185D01*
G01X13755Y1422D01*
G01X13755Y1423D01*
G01X13756Y1423D01*
G01X13756Y1423D01*
G01X13756Y1424D01*
G01X13756Y1424D01*
G01X13756Y1424D01*
G01X13757Y1425D01*
G01X13757Y1425D01*
G01X13757Y1425D01*
G01X13758Y1425D01*
G01X13758Y1426D01*
G01X13759Y1426D01*
G01X13759Y1426D01*
G01X13996Y1426D01*
G01X13996Y1426D01*
G01X13997Y1426D01*
G01X13997Y1425D01*
G01X13997Y1425D01*
G01X13998Y1425D01*
G01X13998Y1425D01*
G01X13999Y1424D01*
G01X13999Y1424D01*
G01X13999Y1424D01*
G01X13999Y1423D01*
G01X13999Y1423D01*
G01X13999Y1423D01*
G01X14000Y1422D01*
G01X14000Y1185D01*
G37*
G36*
G01X9753Y4828D02*
G01X9753Y4828D01*
G01X9752Y4828D01*
G01X9752Y4829D01*
G01X9751Y4829D01*
G01X9751Y4829D01*
G01X9751Y4829D01*
G01X9750Y4830D01*
G01X9750Y4830D01*
G01X9750Y4830D01*
G01X9750Y4831D01*
G01X9750Y4831D01*
G01X9750Y4832D01*
G01X9750Y4832D01*
G01X9750Y5069D01*
G01X9750Y5069D01*
G01X9750Y5070D01*
G01X9750Y5070D01*
G01X9750Y5070D01*
G01X9750Y5071D01*
G01X9750Y5071D01*
G01X9751Y5071D01*
G01X9751Y5072D01*
G01X9751Y5072D01*
G01X9752Y5072D01*
G01X9752Y5072D01*
G01X9753Y5072D01*
G01X9753Y5072D01*
G01X9990Y5072D01*
G01X9990Y5072D01*
G01X9991Y5072D01*
G01X9991Y5072D01*
G01X9992Y5072D01*
G01X9992Y5072D01*
G01X9992Y5071D01*
G01X9993Y5071D01*
G01X9993Y5071D01*
G01X9993Y5070D01*
G01X9993Y5070D01*
G01X9994Y5070D01*
G01X9994Y5069D01*
G01X9994Y5069D01*
G01X9994Y4832D01*
G01X9994Y4832D01*
G01X9994Y4831D01*
G01X9993Y4831D01*
G01X9993Y4830D01*
G01X9993Y4830D01*
G01X9993Y4830D01*
G01X9992Y4829D01*
G01X9992Y4829D01*
G01X9992Y4829D01*
G01X9991Y4829D01*
G01X9991Y4828D01*
G01X9990Y4828D01*
G01X9990Y4828D01*
G01X9753Y4828D01*
G37*
G36*
G01X9753Y5183D02*
G01X9753Y5183D01*
G01X9752Y5183D01*
G01X9752Y5183D01*
G01X9751Y5183D01*
G01X9751Y5183D01*
G01X9751Y5184D01*
G01X9750Y5184D01*
G01X9750Y5184D01*
G01X9750Y5185D01*
G01X9750Y5185D01*
G01X9750Y5185D01*
G01X9750Y5186D01*
G01X9750Y5186D01*
G01X9750Y5423D01*
G01X9750Y5423D01*
G01X9750Y5424D01*
G01X9750Y5424D01*
G01X9750Y5425D01*
G01X9750Y5425D01*
G01X9750Y5425D01*
G01X9751Y5426D01*
G01X9751Y5426D01*
G01X9751Y5426D01*
G01X9752Y5426D01*
G01X9752Y5427D01*
G01X9753Y5427D01*
G01X9753Y5427D01*
G01X9990Y5427D01*
G01X9990Y5427D01*
G01X9991Y5427D01*
G01X9991Y5426D01*
G01X9992Y5426D01*
G01X9992Y5426D01*
G01X9992Y5426D01*
G01X9993Y5425D01*
G01X9993Y5425D01*
G01X9993Y5425D01*
G01X9993Y5424D01*
G01X9994Y5424D01*
G01X9994Y5423D01*
G01X9994Y5423D01*
G01X9994Y5186D01*
G01X9994Y5186D01*
G01X9994Y5185D01*
G01X9993Y5185D01*
G01X9993Y5185D01*
G01X9993Y5184D01*
G01X9993Y5184D01*
G01X9992Y5184D01*
G01X9992Y5183D01*
G01X9992Y5183D01*
G01X9991Y5183D01*
G01X9991Y5183D01*
G01X9990Y5183D01*
G01X9990Y5183D01*
G01X9753Y5183D01*
G37*
G36*
G01X10251Y4331D02*
G01X10252Y4331D01*
G01X10252Y4331D01*
G01X10252Y4332D01*
G01X10252Y4332D01*
G01X10252Y4333D01*
G01X10252Y4333D01*
G01X10253Y4333D01*
G01X10253Y4334D01*
G01X10253Y4334D01*
G01X10254Y4334D01*
G01X10254Y4334D01*
G01X10255Y4334D01*
G01X10255Y4334D01*
G01X10492Y4334D01*
G01X10492Y4334D01*
G01X10493Y4334D01*
G01X10493Y4334D01*
G01X10494Y4334D01*
G01X10494Y4334D01*
G01X10494Y4333D01*
G01X10495Y4333D01*
G01X10495Y4333D01*
G01X10495Y4332D01*
G01X10495Y4332D01*
G01X10495Y4331D01*
G01X10496Y4331D01*
G01X10496Y4331D01*
G01X10496Y4094D01*
G01X10496Y4093D01*
G01X10495Y4093D01*
G01X10495Y4092D01*
G01X10495Y4092D01*
G01X10495Y4092D01*
G01X10495Y4091D01*
G01X10494Y4091D01*
G01X10494Y4091D01*
G01X10494Y4090D01*
G01X10493Y4090D01*
G01X10493Y4090D01*
G01X10492Y4090D01*
G01X10492Y4090D01*
G01X10255Y4090D01*
G01X10255Y4090D01*
G01X10254Y4090D01*
G01X10254Y4090D01*
G01X10253Y4090D01*
G01X10253Y4091D01*
G01X10253Y4091D01*
G01X10252Y4091D01*
G01X10252Y4092D01*
G01X10252Y4092D01*
G01X10252Y4092D01*
G01X10252Y4093D01*
G01X10252Y4093D01*
G01X10251Y4094D01*
G01X10251Y4331D01*
G37*
G36*
G01X10606Y4331D02*
G01X10606Y4331D01*
G01X10606Y4331D01*
G01X10606Y4332D01*
G01X10606Y4332D01*
G01X10606Y4333D01*
G01X10607Y4333D01*
G01X10607Y4333D01*
G01X10607Y4334D01*
G01X10608Y4334D01*
G01X10608Y4334D01*
G01X10609Y4334D01*
G01X10609Y4334D01*
G01X10609Y4334D01*
G01X10846Y4334D01*
G01X10847Y4334D01*
G01X10847Y4334D01*
G01X10848Y4334D01*
G01X10848Y4334D01*
G01X10848Y4334D01*
G01X10849Y4333D01*
G01X10849Y4333D01*
G01X10849Y4333D01*
G01X10850Y4332D01*
G01X10850Y4332D01*
G01X10850Y4331D01*
G01X10850Y4331D01*
G01X10850Y4331D01*
G01X10850Y4094D01*
G01X10850Y4093D01*
G01X10850Y4093D01*
G01X10850Y4092D01*
G01X10850Y4092D01*
G01X10849Y4092D01*
G01X10849Y4091D01*
G01X10849Y4091D01*
G01X10848Y4091D01*
G01X10848Y4090D01*
G01X10848Y4090D01*
G01X10847Y4090D01*
G01X10847Y4090D01*
G01X10846Y4090D01*
G01X10609Y4090D01*
G01X10609Y4090D01*
G01X10609Y4090D01*
G01X10608Y4090D01*
G01X10608Y4090D01*
G01X10607Y4091D01*
G01X10607Y4091D01*
G01X10607Y4091D01*
G01X10606Y4092D01*
G01X10606Y4092D01*
G01X10606Y4092D01*
G01X10606Y4093D01*
G01X10606Y4093D01*
G01X10606Y4094D01*
G01X10606Y4331D01*
G37*
G36*
G01X10811Y5472D02*
G01X10811Y5471D01*
G01X10810Y5471D01*
G01X10810Y5470D01*
G01X10810Y5470D01*
G01X10810Y5470D01*
G01X10810Y5469D01*
G01X10809Y5469D01*
G01X10809Y5469D01*
G01X10809Y5468D01*
G01X10808Y5468D01*
G01X10808Y5468D01*
G01X10807Y5468D01*
G01X10807Y5468D01*
G01X10570Y5468D01*
G01X10570Y5468D01*
G01X10569Y5468D01*
G01X10569Y5468D01*
G01X10568Y5468D01*
G01X10568Y5469D01*
G01X10568Y5469D01*
G01X10567Y5469D01*
G01X10567Y5470D01*
G01X10567Y5470D01*
G01X10567Y5470D01*
G01X10567Y5471D01*
G01X10566Y5471D01*
G01X10566Y5472D01*
G01X10566Y5708D01*
G01X10566Y5709D01*
G01X10567Y5709D01*
G01X10567Y5710D01*
G01X10567Y5710D01*
G01X10567Y5711D01*
G01X10567Y5711D01*
G01X10568Y5711D01*
G01X10568Y5711D01*
G01X10568Y5712D01*
G01X10569Y5712D01*
G01X10569Y5712D01*
G01X10570Y5712D01*
G01X10570Y5712D01*
G01X10807Y5712D01*
G01X10807Y5712D01*
G01X10808Y5712D01*
G01X10808Y5712D01*
G01X10809Y5712D01*
G01X10809Y5711D01*
G01X10809Y5711D01*
G01X10810Y5711D01*
G01X10810Y5711D01*
G01X10810Y5710D01*
G01X10810Y5710D01*
G01X10810Y5709D01*
G01X10811Y5709D01*
G01X10811Y5708D01*
G01X10811Y5472D01*
G37*
G36*
G01X10456Y5472D02*
G01X10456Y5471D01*
G01X10456Y5471D01*
G01X10456Y5470D01*
G01X10456Y5470D01*
G01X10456Y5470D01*
G01X10455Y5469D01*
G01X10455Y5469D01*
G01X10455Y5469D01*
G01X10454Y5468D01*
G01X10454Y5468D01*
G01X10453Y5468D01*
G01X10453Y5468D01*
G01X10453Y5468D01*
G01X10216Y5468D01*
G01X10215Y5468D01*
G01X10215Y5468D01*
G01X10214Y5468D01*
G01X10214Y5468D01*
G01X10214Y5469D01*
G01X10213Y5469D01*
G01X10213Y5469D01*
G01X10213Y5470D01*
G01X10213Y5470D01*
G01X10212Y5470D01*
G01X10212Y5471D01*
G01X10212Y5471D01*
G01X10212Y5472D01*
G01X10212Y5708D01*
G01X10212Y5709D01*
G01X10212Y5709D01*
G01X10212Y5710D01*
G01X10213Y5710D01*
G01X10213Y5711D01*
G01X10213Y5711D01*
G01X10213Y5711D01*
G01X10214Y5711D01*
G01X10214Y5712D01*
G01X10214Y5712D01*
G01X10215Y5712D01*
G01X10215Y5712D01*
G01X10216Y5712D01*
G01X10453Y5712D01*
G01X10453Y5712D01*
G01X10453Y5712D01*
G01X10454Y5712D01*
G01X10454Y5712D01*
G01X10455Y5711D01*
G01X10455Y5711D01*
G01X10455Y5711D01*
G01X10456Y5711D01*
G01X10456Y5710D01*
G01X10456Y5710D01*
G01X10456Y5709D01*
G01X10456Y5709D01*
G01X10456Y5708D01*
G01X10456Y5472D01*
G37*
G54D24*
G01X10324Y4753D03*
G01X10324Y5088D03*
G01X10659Y4753D03*
G01X10659Y5088D03*
G54D25*
G01X7891Y5255D03*
G54D26*
G01X7903Y5027D03*
G01X7903Y4858D03*
G01X7903Y4689D03*
G01X7903Y4519D03*
G54D25*
G01X7891Y4291D03*
G01X8061Y4291D03*
G01X8230Y4291D03*
G01X8399Y4291D03*
G01X8568Y4291D03*
G01X8738Y4291D03*
G01X8907Y4291D03*
G01X9076Y4291D03*
G36*
G01X8976Y4572D02*
G01X9153Y4572D01*
G01X9153Y4466D01*
G01X8976Y4466D01*
G01X8976Y4572D01*
G37*
G36*
G01X8976Y4742D02*
G01X9153Y4742D01*
G01X9153Y4635D01*
G01X8976Y4635D01*
G01X8976Y4742D01*
G37*
G36*
G01X8976Y4911D02*
G01X9153Y4911D01*
G01X9153Y4805D01*
G01X8976Y4805D01*
G01X8976Y4911D01*
G37*
G36*
G01X8976Y5080D02*
G01X9153Y5080D01*
G01X9153Y4974D01*
G01X8976Y4974D01*
G01X8976Y5080D01*
G37*
G01X9076Y5255D03*
G01X8907Y5255D03*
G01X8738Y5255D03*
G01X8568Y5255D03*
G01X8399Y5255D03*
G01X8230Y5255D03*
G01X8061Y5255D03*
G36*
G01X7535Y5876D02*
G01X7535Y5876D01*
G01X7535Y5877D01*
G01X7535Y5877D01*
G01X7535Y5877D01*
G01X7536Y5878D01*
G01X7536Y5878D01*
G01X7536Y5879D01*
G01X7537Y5879D01*
G01X7537Y5879D01*
G01X7537Y5879D01*
G01X7538Y5879D01*
G01X7538Y5879D01*
G01X7539Y5879D01*
G01X7775Y5879D01*
G01X7776Y5879D01*
G01X7776Y5879D01*
G01X7777Y5879D01*
G01X7777Y5879D01*
G01X7777Y5879D01*
G01X7778Y5879D01*
G01X7778Y5878D01*
G01X7778Y5878D01*
G01X7779Y5877D01*
G01X7779Y5877D01*
G01X7779Y5877D01*
G01X7779Y5876D01*
G01X7779Y5876D01*
G01X7779Y5639D01*
G01X7779Y5639D01*
G01X7779Y5638D01*
G01X7779Y5638D01*
G01X7779Y5637D01*
G01X7778Y5637D01*
G01X7778Y5637D01*
G01X7778Y5636D01*
G01X7777Y5636D01*
G01X7777Y5636D01*
G01X7777Y5636D01*
G01X7776Y5635D01*
G01X7776Y5635D01*
G01X7775Y5635D01*
G01X7539Y5635D01*
G01X7538Y5635D01*
G01X7538Y5635D01*
G01X7537Y5636D01*
G01X7537Y5636D01*
G01X7537Y5636D01*
G01X7536Y5636D01*
G01X7536Y5637D01*
G01X7536Y5637D01*
G01X7535Y5637D01*
G01X7535Y5638D01*
G01X7535Y5638D01*
G01X7535Y5639D01*
G01X7535Y5639D01*
G01X7535Y5876D01*
G37*
G36*
G01X7889Y5876D02*
G01X7889Y5876D01*
G01X7889Y5877D01*
G01X7890Y5877D01*
G01X7890Y5877D01*
G01X7890Y5878D01*
G01X7890Y5878D01*
G01X7891Y5879D01*
G01X7891Y5879D01*
G01X7891Y5879D01*
G01X7892Y5879D01*
G01X7892Y5879D01*
G01X7893Y5879D01*
G01X7893Y5879D01*
G01X8130Y5879D01*
G01X8130Y5879D01*
G01X8131Y5879D01*
G01X8131Y5879D01*
G01X8131Y5879D01*
G01X8132Y5879D01*
G01X8132Y5879D01*
G01X8132Y5878D01*
G01X8133Y5878D01*
G01X8133Y5877D01*
G01X8133Y5877D01*
G01X8133Y5877D01*
G01X8133Y5876D01*
G01X8133Y5876D01*
G01X8133Y5639D01*
G01X8133Y5639D01*
G01X8133Y5638D01*
G01X8133Y5638D01*
G01X8133Y5637D01*
G01X8133Y5637D01*
G01X8132Y5637D01*
G01X8132Y5636D01*
G01X8132Y5636D01*
G01X8131Y5636D01*
G01X8131Y5636D01*
G01X8131Y5635D01*
G01X8130Y5635D01*
G01X8130Y5635D01*
G01X7893Y5635D01*
G01X7893Y5635D01*
G01X7892Y5635D01*
G01X7892Y5636D01*
G01X7891Y5636D01*
G01X7891Y5636D01*
G01X7891Y5636D01*
G01X7890Y5637D01*
G01X7890Y5637D01*
G01X7890Y5637D01*
G01X7890Y5638D01*
G01X7889Y5638D01*
G01X7889Y5639D01*
G01X7889Y5639D01*
G01X7889Y5876D01*
G37*
G36*
G01X9039Y5639D02*
G01X9039Y5639D01*
G01X9039Y5638D01*
G01X9039Y5638D01*
G01X9038Y5637D01*
G01X9038Y5637D01*
G01X9038Y5637D01*
G01X9038Y5636D01*
G01X9037Y5636D01*
G01X9037Y5636D01*
G01X9037Y5636D01*
G01X9036Y5635D01*
G01X9036Y5635D01*
G01X9035Y5635D01*
G01X8798Y5635D01*
G01X8798Y5635D01*
G01X8798Y5635D01*
G01X8797Y5636D01*
G01X8797Y5636D01*
G01X8796Y5636D01*
G01X8796Y5636D01*
G01X8796Y5637D01*
G01X8795Y5637D01*
G01X8795Y5637D01*
G01X8795Y5638D01*
G01X8795Y5638D01*
G01X8795Y5639D01*
G01X8795Y5639D01*
G01X8795Y5876D01*
G01X8795Y5876D01*
G01X8795Y5877D01*
G01X8795Y5877D01*
G01X8795Y5877D01*
G01X8795Y5878D01*
G01X8796Y5878D01*
G01X8796Y5879D01*
G01X8796Y5879D01*
G01X8797Y5879D01*
G01X8797Y5879D01*
G01X8798Y5879D01*
G01X8798Y5879D01*
G01X8798Y5879D01*
G01X9035Y5879D01*
G01X9036Y5879D01*
G01X9036Y5879D01*
G01X9037Y5879D01*
G01X9037Y5879D01*
G01X9037Y5879D01*
G01X9038Y5879D01*
G01X9038Y5878D01*
G01X9038Y5878D01*
G01X9038Y5877D01*
G01X9039Y5877D01*
G01X9039Y5877D01*
G01X9039Y5876D01*
G01X9039Y5876D01*
G01X9039Y5639D01*
G37*
G36*
G01X8685Y5639D02*
G01X8685Y5639D01*
G01X8684Y5638D01*
G01X8684Y5638D01*
G01X8684Y5637D01*
G01X8684Y5637D01*
G01X8684Y5637D01*
G01X8683Y5636D01*
G01X8683Y5636D01*
G01X8683Y5636D01*
G01X8682Y5636D01*
G01X8682Y5635D01*
G01X8681Y5635D01*
G01X8681Y5635D01*
G01X8444Y5635D01*
G01X8444Y5635D01*
G01X8443Y5635D01*
G01X8443Y5636D01*
G01X8442Y5636D01*
G01X8442Y5636D01*
G01X8442Y5636D01*
G01X8441Y5637D01*
G01X8441Y5637D01*
G01X8441Y5637D01*
G01X8441Y5638D01*
G01X8441Y5638D01*
G01X8441Y5639D01*
G01X8440Y5639D01*
G01X8440Y5876D01*
G01X8441Y5876D01*
G01X8441Y5877D01*
G01X8441Y5877D01*
G01X8441Y5877D01*
G01X8441Y5878D01*
G01X8441Y5878D01*
G01X8442Y5879D01*
G01X8442Y5879D01*
G01X8442Y5879D01*
G01X8443Y5879D01*
G01X8443Y5879D01*
G01X8444Y5879D01*
G01X8444Y5879D01*
G01X8681Y5879D01*
G01X8681Y5879D01*
G01X8682Y5879D01*
G01X8682Y5879D01*
G01X8683Y5879D01*
G01X8683Y5879D01*
G01X8683Y5879D01*
G01X8684Y5878D01*
G01X8684Y5878D01*
G01X8684Y5877D01*
G01X8684Y5877D01*
G01X8684Y5877D01*
G01X8685Y5876D01*
G01X8685Y5876D01*
G01X8685Y5639D01*
G37*
G36*
G01X6787Y5502D02*
G01X6787Y5502D01*
G01X6787Y5503D01*
G01X6787Y5503D01*
G01X6787Y5503D01*
G01X6788Y5504D01*
G01X6788Y5504D01*
G01X6788Y5505D01*
G01X6789Y5505D01*
G01X6789Y5505D01*
G01X6789Y5505D01*
G01X6790Y5505D01*
G01X6790Y5505D01*
G01X6791Y5505D01*
G01X7027Y5505D01*
G01X7028Y5505D01*
G01X7028Y5505D01*
G01X7029Y5505D01*
G01X7029Y5505D01*
G01X7029Y5505D01*
G01X7030Y5505D01*
G01X7030Y5504D01*
G01X7030Y5504D01*
G01X7031Y5503D01*
G01X7031Y5503D01*
G01X7031Y5503D01*
G01X7031Y5502D01*
G01X7031Y5502D01*
G01X7031Y5265D01*
G01X7031Y5265D01*
G01X7031Y5264D01*
G01X7031Y5264D01*
G01X7031Y5263D01*
G01X7030Y5263D01*
G01X7030Y5263D01*
G01X7030Y5262D01*
G01X7029Y5262D01*
G01X7029Y5262D01*
G01X7029Y5262D01*
G01X7028Y5261D01*
G01X7028Y5261D01*
G01X7027Y5261D01*
G01X6791Y5261D01*
G01X6790Y5261D01*
G01X6790Y5261D01*
G01X6789Y5262D01*
G01X6789Y5262D01*
G01X6789Y5262D01*
G01X6788Y5262D01*
G01X6788Y5263D01*
G01X6788Y5263D01*
G01X6787Y5263D01*
G01X6787Y5264D01*
G01X6787Y5264D01*
G01X6787Y5265D01*
G01X6787Y5265D01*
G01X6787Y5502D01*
G37*
G36*
G01X7141Y5502D02*
G01X7141Y5502D01*
G01X7141Y5503D01*
G01X7142Y5503D01*
G01X7142Y5503D01*
G01X7142Y5504D01*
G01X7142Y5504D01*
G01X7143Y5505D01*
G01X7143Y5505D01*
G01X7143Y5505D01*
G01X7144Y5505D01*
G01X7144Y5505D01*
G01X7144Y5505D01*
G01X7145Y5505D01*
G01X7382Y5505D01*
G01X7382Y5505D01*
G01X7383Y5505D01*
G01X7383Y5505D01*
G01X7383Y5505D01*
G01X7384Y5505D01*
G01X7384Y5505D01*
G01X7384Y5504D01*
G01X7385Y5504D01*
G01X7385Y5503D01*
G01X7385Y5503D01*
G01X7385Y5503D01*
G01X7385Y5502D01*
G01X7385Y5502D01*
G01X7385Y5265D01*
G01X7385Y5265D01*
G01X7385Y5264D01*
G01X7385Y5264D01*
G01X7385Y5263D01*
G01X7385Y5263D01*
G01X7384Y5263D01*
G01X7384Y5262D01*
G01X7384Y5262D01*
G01X7383Y5262D01*
G01X7383Y5262D01*
G01X7383Y5261D01*
G01X7382Y5261D01*
G01X7382Y5261D01*
G01X7145Y5261D01*
G01X7144Y5261D01*
G01X7144Y5261D01*
G01X7144Y5262D01*
G01X7143Y5262D01*
G01X7143Y5262D01*
G01X7143Y5262D01*
G01X7142Y5263D01*
G01X7142Y5263D01*
G01X7142Y5263D01*
G01X7142Y5264D01*
G01X7141Y5264D01*
G01X7141Y5265D01*
G01X7141Y5265D01*
G01X7141Y5502D01*
G37*
G36*
G01X6624Y5318D02*
G01X6624Y5318D01*
G01X6625Y5318D01*
G01X6625Y5318D01*
G01X6626Y5318D01*
G01X6626Y5318D01*
G01X6626Y5318D01*
G01X6627Y5317D01*
G01X6627Y5317D01*
G01X6627Y5316D01*
G01X6627Y5316D01*
G01X6627Y5316D01*
G01X6627Y5315D01*
G01X6627Y5315D01*
G01X6627Y5078D01*
G01X6627Y5078D01*
G01X6627Y5077D01*
G01X6627Y5077D01*
G01X6627Y5076D01*
G01X6627Y5076D01*
G01X6627Y5076D01*
G01X6626Y5075D01*
G01X6626Y5075D01*
G01X6626Y5075D01*
G01X6625Y5075D01*
G01X6625Y5074D01*
G01X6624Y5074D01*
G01X6624Y5074D01*
G01X6387Y5074D01*
G01X6387Y5074D01*
G01X6386Y5074D01*
G01X6386Y5075D01*
G01X6385Y5075D01*
G01X6385Y5075D01*
G01X6385Y5075D01*
G01X6384Y5076D01*
G01X6384Y5076D01*
G01X6384Y5076D01*
G01X6384Y5077D01*
G01X6384Y5077D01*
G01X6383Y5078D01*
G01X6383Y5078D01*
G01X6383Y5315D01*
G01X6383Y5315D01*
G01X6384Y5316D01*
G01X6384Y5316D01*
G01X6384Y5316D01*
G01X6384Y5317D01*
G01X6384Y5317D01*
G01X6385Y5318D01*
G01X6385Y5318D01*
G01X6385Y5318D01*
G01X6386Y5318D01*
G01X6386Y5318D01*
G01X6387Y5318D01*
G01X6387Y5318D01*
G01X6624Y5318D01*
G37*
G36*
G01X6624Y4964D02*
G01X6624Y4964D01*
G01X6625Y4964D01*
G01X6625Y4964D01*
G01X6626Y4964D01*
G01X6626Y4963D01*
G01X6626Y4963D01*
G01X6627Y4963D01*
G01X6627Y4963D01*
G01X6627Y4962D01*
G01X6627Y4962D01*
G01X6627Y4961D01*
G01X6627Y4961D01*
G01X6627Y4960D01*
G01X6627Y4724D01*
G01X6627Y4723D01*
G01X6627Y4723D01*
G01X6627Y4722D01*
G01X6627Y4722D01*
G01X6627Y4722D01*
G01X6627Y4721D01*
G01X6626Y4721D01*
G01X6626Y4721D01*
G01X6626Y4720D01*
G01X6625Y4720D01*
G01X6625Y4720D01*
G01X6624Y4720D01*
G01X6624Y4720D01*
G01X6387Y4720D01*
G01X6387Y4720D01*
G01X6386Y4720D01*
G01X6386Y4720D01*
G01X6385Y4720D01*
G01X6385Y4721D01*
G01X6385Y4721D01*
G01X6384Y4721D01*
G01X6384Y4722D01*
G01X6384Y4722D01*
G01X6384Y4722D01*
G01X6384Y4723D01*
G01X6383Y4723D01*
G01X6383Y4724D01*
G01X6383Y4960D01*
G01X6383Y4961D01*
G01X6384Y4961D01*
G01X6384Y4962D01*
G01X6384Y4962D01*
G01X6384Y4963D01*
G01X6384Y4963D01*
G01X6385Y4963D01*
G01X6385Y4963D01*
G01X6385Y4964D01*
G01X6386Y4964D01*
G01X6386Y4964D01*
G01X6387Y4964D01*
G01X6387Y4964D01*
G01X6624Y4964D01*
G37*
G36*
G01X8799Y1594D02*
G01X8799Y1692D01*
G01X8907Y1692D01*
G01X8907Y1594D01*
G01X8799Y1594D01*
G37*
G36*
G01X8799Y1791D02*
G01X8799Y1889D01*
G01X8907Y1889D01*
G01X8907Y1791D01*
G01X8799Y1791D01*
G37*
G36*
G01X9399Y1594D02*
G01X9399Y1692D01*
G01X9507Y1692D01*
G01X9507Y1594D01*
G01X9399Y1594D01*
G37*
G36*
G01X9399Y1791D02*
G01X9399Y1889D01*
G01X9507Y1889D01*
G01X9507Y1791D01*
G01X9399Y1791D01*
G37*
G36*
G01X9005Y1988D02*
G01X8907Y1988D01*
G01X8907Y2096D01*
G01X9005Y2096D01*
G01X9005Y1988D01*
G37*
G36*
G01X9202Y1988D02*
G01X9104Y1988D01*
G01X9104Y2096D01*
G01X9202Y2096D01*
G01X9202Y1988D01*
G37*
G36*
G01X9399Y1988D02*
G01X9301Y1988D01*
G01X9301Y2096D01*
G01X9399Y2096D01*
G01X9399Y1988D01*
G37*
G36*
G01X9202Y1387D02*
G01X9104Y1387D01*
G01X9104Y1496D01*
G01X9202Y1496D01*
G01X9202Y1387D01*
G37*
G36*
G01X9005Y1387D02*
G01X8907Y1387D01*
G01X8907Y1496D01*
G01X9005Y1496D01*
G01X9005Y1387D01*
G37*
G36*
G01X9399Y1387D02*
G01X9301Y1387D01*
G01X9301Y1496D01*
G01X9399Y1496D01*
G01X9399Y1387D01*
G37*
G36*
G01X7968Y2195D02*
G01X7968Y2195D01*
G01X7968Y2196D01*
G01X7968Y2196D01*
G01X7968Y2196D01*
G01X7969Y2197D01*
G01X7969Y2197D01*
G01X7969Y2197D01*
G01X7970Y2198D01*
G01X7970Y2198D01*
G01X7970Y2198D01*
G01X7971Y2198D01*
G01X7971Y2198D01*
G01X7972Y2198D01*
G01X8208Y2198D01*
G01X8209Y2198D01*
G01X8209Y2198D01*
G01X8210Y2198D01*
G01X8210Y2198D01*
G01X8211Y2198D01*
G01X8211Y2197D01*
G01X8211Y2197D01*
G01X8211Y2197D01*
G01X8212Y2196D01*
G01X8212Y2196D01*
G01X8212Y2196D01*
G01X8212Y2195D01*
G01X8212Y2195D01*
G01X8212Y1958D01*
G01X8212Y1957D01*
G01X8212Y1957D01*
G01X8212Y1957D01*
G01X8212Y1956D01*
G01X8211Y1956D01*
G01X8211Y1955D01*
G01X8211Y1955D01*
G01X8211Y1955D01*
G01X8210Y1955D01*
G01X8210Y1955D01*
G01X8209Y1954D01*
G01X8209Y1954D01*
G01X8208Y1954D01*
G01X7972Y1954D01*
G01X7971Y1954D01*
G01X7971Y1954D01*
G01X7970Y1955D01*
G01X7970Y1955D01*
G01X7970Y1955D01*
G01X7969Y1955D01*
G01X7969Y1955D01*
G01X7969Y1956D01*
G01X7968Y1956D01*
G01X7968Y1957D01*
G01X7968Y1957D01*
G01X7968Y1957D01*
G01X7968Y1958D01*
G01X7968Y2195D01*
G37*
G36*
G01X8322Y2195D02*
G01X8322Y2195D01*
G01X8322Y2196D01*
G01X8323Y2196D01*
G01X8323Y2196D01*
G01X8323Y2197D01*
G01X8323Y2197D01*
G01X8324Y2197D01*
G01X8324Y2198D01*
G01X8324Y2198D01*
G01X8325Y2198D01*
G01X8325Y2198D01*
G01X8326Y2198D01*
G01X8326Y2198D01*
G01X8563Y2198D01*
G01X8563Y2198D01*
G01X8564Y2198D01*
G01X8564Y2198D01*
G01X8565Y2198D01*
G01X8565Y2198D01*
G01X8565Y2197D01*
G01X8566Y2197D01*
G01X8566Y2197D01*
G01X8566Y2196D01*
G01X8566Y2196D01*
G01X8566Y2196D01*
G01X8566Y2195D01*
G01X8566Y2195D01*
G01X8566Y1958D01*
G01X8566Y1957D01*
G01X8566Y1957D01*
G01X8566Y1957D01*
G01X8566Y1956D01*
G01X8566Y1956D01*
G01X8566Y1955D01*
G01X8565Y1955D01*
G01X8565Y1955D01*
G01X8565Y1955D01*
G01X8564Y1955D01*
G01X8564Y1954D01*
G01X8563Y1954D01*
G01X8563Y1954D01*
G01X8326Y1954D01*
G01X8326Y1954D01*
G01X8325Y1954D01*
G01X8325Y1955D01*
G01X8324Y1955D01*
G01X8324Y1955D01*
G01X8324Y1955D01*
G01X8323Y1955D01*
G01X8323Y1956D01*
G01X8323Y1956D01*
G01X8323Y1957D01*
G01X8322Y1957D01*
G01X8322Y1957D01*
G01X8322Y1958D01*
G01X8322Y2195D01*
G37*
G36*
G01X7968Y2588D02*
G01X7968Y2589D01*
G01X7968Y2589D01*
G01X7968Y2590D01*
G01X7968Y2590D01*
G01X7969Y2590D01*
G01X7969Y2591D01*
G01X7969Y2591D01*
G01X7970Y2591D01*
G01X7970Y2592D01*
G01X7970Y2592D01*
G01X7971Y2592D01*
G01X7971Y2592D01*
G01X7972Y2592D01*
G01X8208Y2592D01*
G01X8209Y2592D01*
G01X8209Y2592D01*
G01X8210Y2592D01*
G01X8210Y2592D01*
G01X8211Y2591D01*
G01X8211Y2591D01*
G01X8211Y2591D01*
G01X8211Y2590D01*
G01X8212Y2590D01*
G01X8212Y2590D01*
G01X8212Y2589D01*
G01X8212Y2589D01*
G01X8212Y2588D01*
G01X8212Y2352D01*
G01X8212Y2351D01*
G01X8212Y2351D01*
G01X8212Y2350D01*
G01X8212Y2350D01*
G01X8211Y2350D01*
G01X8211Y2349D01*
G01X8211Y2349D01*
G01X8211Y2349D01*
G01X8210Y2348D01*
G01X8210Y2348D01*
G01X8209Y2348D01*
G01X8209Y2348D01*
G01X8208Y2348D01*
G01X7972Y2348D01*
G01X7971Y2348D01*
G01X7971Y2348D01*
G01X7970Y2348D01*
G01X7970Y2348D01*
G01X7970Y2349D01*
G01X7969Y2349D01*
G01X7969Y2349D01*
G01X7969Y2350D01*
G01X7968Y2350D01*
G01X7968Y2350D01*
G01X7968Y2351D01*
G01X7968Y2351D01*
G01X7968Y2352D01*
G01X7968Y2588D01*
G37*
G36*
G01X8322Y2588D02*
G01X8322Y2589D01*
G01X8322Y2589D01*
G01X8323Y2590D01*
G01X8323Y2590D01*
G01X8323Y2590D01*
G01X8323Y2591D01*
G01X8324Y2591D01*
G01X8324Y2591D01*
G01X8324Y2592D01*
G01X8325Y2592D01*
G01X8325Y2592D01*
G01X8326Y2592D01*
G01X8326Y2592D01*
G01X8563Y2592D01*
G01X8563Y2592D01*
G01X8564Y2592D01*
G01X8564Y2592D01*
G01X8565Y2592D01*
G01X8565Y2591D01*
G01X8565Y2591D01*
G01X8566Y2591D01*
G01X8566Y2590D01*
G01X8566Y2590D01*
G01X8566Y2590D01*
G01X8566Y2589D01*
G01X8566Y2589D01*
G01X8566Y2588D01*
G01X8566Y2352D01*
G01X8566Y2351D01*
G01X8566Y2351D01*
G01X8566Y2350D01*
G01X8566Y2350D01*
G01X8566Y2350D01*
G01X8566Y2349D01*
G01X8565Y2349D01*
G01X8565Y2349D01*
G01X8565Y2348D01*
G01X8564Y2348D01*
G01X8564Y2348D01*
G01X8563Y2348D01*
G01X8563Y2348D01*
G01X8326Y2348D01*
G01X8326Y2348D01*
G01X8325Y2348D01*
G01X8325Y2348D01*
G01X8324Y2348D01*
G01X8324Y2349D01*
G01X8324Y2349D01*
G01X8323Y2349D01*
G01X8323Y2350D01*
G01X8323Y2350D01*
G01X8323Y2350D01*
G01X8322Y2351D01*
G01X8322Y2351D01*
G01X8322Y2352D01*
G01X8322Y2588D01*
G37*
G54D27*
G01X9931Y3582D03*
G01X9931Y3247D03*
G01X10462Y3247D03*
G01X10462Y3582D03*
G54D28*
G01X10196Y2923D03*
G01X10196Y3907D03*
G36*
G01X10885Y3297D02*
G01X10807Y3297D01*
G01X10807Y3533D01*
G01X10885Y3533D01*
G01X10885Y3297D01*
G37*
G36*
G01X9586Y3297D02*
G01X9507Y3297D01*
G01X9507Y3533D01*
G01X9586Y3533D01*
G01X9586Y3297D01*
G37*
G36*
G01X6377Y4478D02*
G01X6377Y4596D01*
G01X6515Y4596D01*
G01X6515Y4478D01*
G01X6377Y4478D01*
G37*
G36*
G01X6377Y3887D02*
G01X6377Y4005D01*
G01X6515Y4005D01*
G01X6515Y3887D01*
G01X6377Y3887D01*
G37*
G36*
G01X6210Y4370D02*
G01X6092Y4370D01*
G01X6092Y4507D01*
G01X6210Y4507D01*
G01X6210Y4370D01*
G37*
G36*
G01X6210Y3976D02*
G01X6092Y3976D01*
G01X6092Y4114D01*
G01X6210Y4114D01*
G01X6210Y3976D01*
G37*
G36*
G01X6801Y4370D02*
G01X6683Y4370D01*
G01X6683Y4507D01*
G01X6801Y4507D01*
G01X6801Y4370D01*
G37*
G36*
G01X6801Y3976D02*
G01X6683Y3976D01*
G01X6683Y4114D01*
G01X6801Y4114D01*
G01X6801Y3976D01*
G37*
G36*
G01X8905Y3917D02*
G01X8905Y3681D01*
G01X8622Y3681D01*
G01X8622Y3917D01*
G01X8905Y3917D01*
G37*
G36*
G01X9287Y3917D02*
G01X9287Y3681D01*
G01X9003Y3681D01*
G01X9003Y3917D01*
G01X9287Y3917D01*
G37*
G36*
G01X8523Y3917D02*
G01X8523Y3681D01*
G01X8240Y3681D01*
G01X8240Y3917D01*
G01X8523Y3917D01*
G37*
G36*
G01X8141Y3917D02*
G01X8141Y3681D01*
G01X7858Y3681D01*
G01X7858Y3917D01*
G01X8141Y3917D01*
G37*
G36*
G01X8141Y3366D02*
G01X8141Y3129D01*
G01X7858Y3129D01*
G01X7858Y3366D01*
G01X8141Y3366D01*
G37*
G36*
G01X8523Y3366D02*
G01X8523Y3129D01*
G01X8240Y3129D01*
G01X8240Y3366D01*
G01X8523Y3366D01*
G37*
G36*
G01X8905Y3366D02*
G01X8905Y3129D01*
G01X8622Y3129D01*
G01X8622Y3366D01*
G01X8905Y3366D01*
G37*
G36*
G01X9287Y3366D02*
G01X9287Y3129D01*
G01X9003Y3129D01*
G01X9003Y3366D01*
G01X9287Y3366D01*
G37*
G36*
G01X7563Y3267D02*
G01X7563Y3267D01*
G01X7562Y3266D01*
G01X7562Y3266D01*
G01X7562Y3265D01*
G01X7562Y3265D01*
G01X7562Y3265D01*
G01X7561Y3264D01*
G01X7561Y3264D01*
G01X7561Y3264D01*
G01X7560Y3264D01*
G01X7560Y3263D01*
G01X7559Y3263D01*
G01X7559Y3263D01*
G01X7322Y3263D01*
G01X7322Y3263D01*
G01X7321Y3263D01*
G01X7321Y3264D01*
G01X7320Y3264D01*
G01X7320Y3264D01*
G01X7320Y3264D01*
G01X7319Y3265D01*
G01X7319Y3265D01*
G01X7319Y3265D01*
G01X7319Y3266D01*
G01X7319Y3266D01*
G01X7318Y3267D01*
G01X7318Y3267D01*
G01X7318Y3504D01*
G01X7318Y3504D01*
G01X7319Y3505D01*
G01X7319Y3505D01*
G01X7319Y3505D01*
G01X7319Y3506D01*
G01X7319Y3506D01*
G01X7320Y3506D01*
G01X7320Y3507D01*
G01X7320Y3507D01*
G01X7321Y3507D01*
G01X7321Y3507D01*
G01X7322Y3507D01*
G01X7322Y3507D01*
G01X7559Y3507D01*
G01X7559Y3507D01*
G01X7560Y3507D01*
G01X7560Y3507D01*
G01X7561Y3507D01*
G01X7561Y3507D01*
G01X7561Y3506D01*
G01X7562Y3506D01*
G01X7562Y3506D01*
G01X7562Y3505D01*
G01X7562Y3505D01*
G01X7562Y3505D01*
G01X7563Y3504D01*
G01X7563Y3504D01*
G01X7563Y3267D01*
G37*
G36*
G01X7208Y3267D02*
G01X7208Y3267D01*
G01X7208Y3266D01*
G01X7208Y3266D01*
G01X7208Y3265D01*
G01X7208Y3265D01*
G01X7207Y3265D01*
G01X7207Y3264D01*
G01X7207Y3264D01*
G01X7206Y3264D01*
G01X7206Y3264D01*
G01X7205Y3263D01*
G01X7205Y3263D01*
G01X7205Y3263D01*
G01X6968Y3263D01*
G01X6967Y3263D01*
G01X6967Y3263D01*
G01X6966Y3264D01*
G01X6966Y3264D01*
G01X6966Y3264D01*
G01X6965Y3264D01*
G01X6965Y3265D01*
G01X6965Y3265D01*
G01X6965Y3265D01*
G01X6964Y3266D01*
G01X6964Y3266D01*
G01X6964Y3267D01*
G01X6964Y3267D01*
G01X6964Y3504D01*
G01X6964Y3504D01*
G01X6964Y3505D01*
G01X6964Y3505D01*
G01X6965Y3505D01*
G01X6965Y3506D01*
G01X6965Y3506D01*
G01X6965Y3506D01*
G01X6966Y3507D01*
G01X6966Y3507D01*
G01X6966Y3507D01*
G01X6967Y3507D01*
G01X6967Y3507D01*
G01X6968Y3507D01*
G01X7205Y3507D01*
G01X7205Y3507D01*
G01X7205Y3507D01*
G01X7206Y3507D01*
G01X7206Y3507D01*
G01X7207Y3507D01*
G01X7207Y3506D01*
G01X7207Y3506D01*
G01X7208Y3506D01*
G01X7208Y3505D01*
G01X7208Y3505D01*
G01X7208Y3505D01*
G01X7208Y3504D01*
G01X7208Y3504D01*
G01X7208Y3267D01*
G37*
G36*
G01X6421Y3533D02*
G01X6421Y3532D01*
G01X6421Y3532D01*
G01X6420Y3531D01*
G01X6420Y3531D01*
G01X6420Y3531D01*
G01X6420Y3530D01*
G01X6420Y3530D01*
G01X6419Y3530D01*
G01X6419Y3529D01*
G01X6418Y3529D01*
G01X6418Y3529D01*
G01X6418Y3529D01*
G01X6417Y3529D01*
G01X6180Y3529D01*
G01X6180Y3529D01*
G01X6179Y3529D01*
G01X6179Y3529D01*
G01X6179Y3529D01*
G01X6178Y3530D01*
G01X6178Y3530D01*
G01X6178Y3530D01*
G01X6177Y3531D01*
G01X6177Y3531D01*
G01X6177Y3531D01*
G01X6177Y3532D01*
G01X6177Y3532D01*
G01X6177Y3533D01*
G01X6177Y3770D01*
G01X6177Y3770D01*
G01X6177Y3770D01*
G01X6177Y3771D01*
G01X6177Y3771D01*
G01X6177Y3772D01*
G01X6178Y3772D01*
G01X6178Y3772D01*
G01X6178Y3772D01*
G01X6179Y3773D01*
G01X6179Y3773D01*
G01X6179Y3773D01*
G01X6180Y3773D01*
G01X6180Y3773D01*
G01X6417Y3773D01*
G01X6418Y3773D01*
G01X6418Y3773D01*
G01X6418Y3773D01*
G01X6419Y3773D01*
G01X6419Y3772D01*
G01X6420Y3772D01*
G01X6420Y3772D01*
G01X6420Y3772D01*
G01X6420Y3771D01*
G01X6420Y3771D01*
G01X6421Y3770D01*
G01X6421Y3770D01*
G01X6421Y3770D01*
G01X6421Y3533D01*
G37*
G36*
G01X6066Y3533D02*
G01X6066Y3532D01*
G01X6066Y3532D01*
G01X6066Y3531D01*
G01X6066Y3531D01*
G01X6066Y3531D01*
G01X6066Y3530D01*
G01X6065Y3530D01*
G01X6065Y3530D01*
G01X6065Y3529D01*
G01X6064Y3529D01*
G01X6064Y3529D01*
G01X6063Y3529D01*
G01X6063Y3529D01*
G01X5826Y3529D01*
G01X5826Y3529D01*
G01X5825Y3529D01*
G01X5825Y3529D01*
G01X5824Y3529D01*
G01X5824Y3530D01*
G01X5824Y3530D01*
G01X5823Y3530D01*
G01X5823Y3531D01*
G01X5823Y3531D01*
G01X5823Y3531D01*
G01X5822Y3532D01*
G01X5822Y3532D01*
G01X5822Y3533D01*
G01X5822Y3770D01*
G01X5822Y3770D01*
G01X5822Y3770D01*
G01X5823Y3771D01*
G01X5823Y3771D01*
G01X5823Y3772D01*
G01X5823Y3772D01*
G01X5824Y3772D01*
G01X5824Y3772D01*
G01X5824Y3773D01*
G01X5825Y3773D01*
G01X5825Y3773D01*
G01X5826Y3773D01*
G01X5826Y3773D01*
G01X6063Y3773D01*
G01X6063Y3773D01*
G01X6064Y3773D01*
G01X6064Y3773D01*
G01X6065Y3773D01*
G01X6065Y3772D01*
G01X6065Y3772D01*
G01X6066Y3772D01*
G01X6066Y3772D01*
G01X6066Y3771D01*
G01X6066Y3771D01*
G01X6066Y3770D01*
G01X6066Y3770D01*
G01X6066Y3770D01*
G01X6066Y3533D01*
G37*
G36*
G01X6974Y3966D02*
G01X6974Y3967D01*
G01X6974Y3967D01*
G01X6974Y3968D01*
G01X6974Y3968D01*
G01X6975Y3968D01*
G01X6975Y3969D01*
G01X6975Y3969D01*
G01X6976Y3969D01*
G01X6976Y3970D01*
G01X6976Y3970D01*
G01X6977Y3970D01*
G01X6977Y3970D01*
G01X6978Y3970D01*
G01X7214Y3970D01*
G01X7215Y3970D01*
G01X7215Y3970D01*
G01X7216Y3970D01*
G01X7216Y3970D01*
G01X7216Y3969D01*
G01X7217Y3969D01*
G01X7217Y3969D01*
G01X7217Y3968D01*
G01X7218Y3968D01*
G01X7218Y3968D01*
G01X7218Y3967D01*
G01X7218Y3967D01*
G01X7218Y3966D01*
G01X7218Y3729D01*
G01X7218Y3729D01*
G01X7218Y3729D01*
G01X7218Y3728D01*
G01X7218Y3728D01*
G01X7217Y3728D01*
G01X7217Y3727D01*
G01X7217Y3727D01*
G01X7216Y3727D01*
G01X7216Y3726D01*
G01X7216Y3726D01*
G01X7215Y3726D01*
G01X7215Y3726D01*
G01X7214Y3726D01*
G01X6978Y3726D01*
G01X6977Y3726D01*
G01X6977Y3726D01*
G01X6976Y3726D01*
G01X6976Y3726D01*
G01X6976Y3727D01*
G01X6975Y3727D01*
G01X6975Y3727D01*
G01X6975Y3728D01*
G01X6974Y3728D01*
G01X6974Y3728D01*
G01X6974Y3729D01*
G01X6974Y3729D01*
G01X6974Y3729D01*
G01X6974Y3966D01*
G37*
G36*
G01X7328Y3966D02*
G01X7328Y3967D01*
G01X7328Y3967D01*
G01X7329Y3968D01*
G01X7329Y3968D01*
G01X7329Y3968D01*
G01X7329Y3969D01*
G01X7330Y3969D01*
G01X7330Y3969D01*
G01X7330Y3970D01*
G01X7331Y3970D01*
G01X7331Y3970D01*
G01X7331Y3970D01*
G01X7332Y3970D01*
G01X7569Y3970D01*
G01X7569Y3970D01*
G01X7570Y3970D01*
G01X7570Y3970D01*
G01X7570Y3970D01*
G01X7571Y3969D01*
G01X7571Y3969D01*
G01X7571Y3969D01*
G01X7572Y3968D01*
G01X7572Y3968D01*
G01X7572Y3968D01*
G01X7572Y3967D01*
G01X7572Y3967D01*
G01X7572Y3966D01*
G01X7572Y3729D01*
G01X7572Y3729D01*
G01X7572Y3729D01*
G01X7572Y3728D01*
G01X7572Y3728D01*
G01X7572Y3728D01*
G01X7571Y3727D01*
G01X7571Y3727D01*
G01X7571Y3727D01*
G01X7570Y3726D01*
G01X7570Y3726D01*
G01X7570Y3726D01*
G01X7569Y3726D01*
G01X7569Y3726D01*
G01X7332Y3726D01*
G01X7331Y3726D01*
G01X7331Y3726D01*
G01X7331Y3726D01*
G01X7330Y3726D01*
G01X7330Y3727D01*
G01X7330Y3727D01*
G01X7329Y3727D01*
G01X7329Y3728D01*
G01X7329Y3728D01*
G01X7329Y3728D01*
G01X7328Y3729D01*
G01X7328Y3729D01*
G01X7328Y3729D01*
G01X7328Y3966D01*
G37*
M00*
M02*
