G04 Layer: Inner2*
G04 EasyEDA v6.4.3, 2020-08-12T23:02:41+05:30*
G04 0c64d8637b0b46b586c93cd23854d17d,10*
G04 Gerber Generator version 0.2*
G04 Scale: 100 percent, Rotated: No, Reflected: No *
G04 Dimensions in inches *
G04 leading zeros omitted , absolute positions ,2 integer and 4 decimal *
%FSLAX24Y24*%
%MOIN*%
G90*
G70D02*

%ADD10C,0.010000*%
%ADD11C,0.008000*%
%ADD17C,0.015480*%
%ADD18C,0.015870*%

%LPD*%
G36*
G01X228Y6919D02*
G01X121Y6919D01*
G01X109Y6917D01*
G01X104Y6915D01*
G01X94Y6909D01*
G01X90Y6905D01*
G01X84Y6895D01*
G01X82Y6890D01*
G01X81Y6884D01*
G01X81Y6765D01*
G01X82Y6759D01*
G01X84Y6754D01*
G01X90Y6744D01*
G01X94Y6740D01*
G01X104Y6734D01*
G01X109Y6732D01*
G01X115Y6731D01*
G01X127Y6731D01*
G01X139Y6735D01*
G01X144Y6738D01*
G01X153Y6747D01*
G01X165Y6763D01*
G01X178Y6779D01*
G01X191Y6794D01*
G01X205Y6808D01*
G01X220Y6821D01*
G01X236Y6834D01*
G01X252Y6846D01*
G01X261Y6855D01*
G01X264Y6860D01*
G01X268Y6872D01*
G01X268Y6884D01*
G01X267Y6890D01*
G01X265Y6895D01*
G01X259Y6905D01*
G01X255Y6909D01*
G01X245Y6915D01*
G01X240Y6917D01*
G01X228Y6919D01*
G37*

%LPD*%
G36*
G01X16879Y6919D02*
G01X16771Y6919D01*
G01X16759Y6917D01*
G01X16754Y6915D01*
G01X16744Y6909D01*
G01X16740Y6905D01*
G01X16734Y6895D01*
G01X16732Y6890D01*
G01X16731Y6884D01*
G01X16731Y6872D01*
G01X16735Y6860D01*
G01X16738Y6855D01*
G01X16747Y6846D01*
G01X16763Y6834D01*
G01X16779Y6821D01*
G01X16794Y6808D01*
G01X16808Y6794D01*
G01X16821Y6779D01*
G01X16834Y6763D01*
G01X16846Y6747D01*
G01X16855Y6738D01*
G01X16860Y6735D01*
G01X16872Y6731D01*
G01X16884Y6731D01*
G01X16890Y6732D01*
G01X16895Y6734D01*
G01X16905Y6740D01*
G01X16909Y6744D01*
G01X16915Y6754D01*
G01X16917Y6759D01*
G01X16919Y6771D01*
G01X16919Y6879D01*
G01X16918Y6884D01*
G01X16917Y6890D01*
G01X16915Y6895D01*
G01X16909Y6905D01*
G01X16905Y6909D01*
G01X16895Y6915D01*
G01X16890Y6917D01*
G01X16884Y6918D01*
G01X16879Y6919D01*
G37*

%LPD*%
G36*
G01X4059Y6919D02*
G01X3941Y6919D01*
G01X3929Y6917D01*
G01X3924Y6915D01*
G01X3914Y6909D01*
G01X3910Y6905D01*
G01X3904Y6895D01*
G01X3902Y6890D01*
G01X3901Y6884D01*
G01X3901Y6671D01*
G01X3902Y6665D01*
G01X3905Y6659D01*
G01X3908Y6654D01*
G01X3912Y6649D01*
G01X3916Y6645D01*
G01X3921Y6642D01*
G01X3927Y6639D01*
G01X3933Y6638D01*
G01X3944Y6635D01*
G01X3956Y6631D01*
G01X3967Y6627D01*
G01X3987Y6615D01*
G01X4005Y6599D01*
G01X4030Y6574D01*
G01X4035Y6570D01*
G01X4040Y6567D01*
G01X4046Y6564D01*
G01X4052Y6563D01*
G01X4059Y6562D01*
G01X4064Y6563D01*
G01X4070Y6564D01*
G01X4075Y6566D01*
G01X4085Y6572D01*
G01X4089Y6576D01*
G01X4095Y6586D01*
G01X4097Y6591D01*
G01X4098Y6597D01*
G01X4099Y6602D01*
G01X4099Y6879D01*
G01X4098Y6884D01*
G01X4097Y6890D01*
G01X4095Y6895D01*
G01X4089Y6905D01*
G01X4085Y6909D01*
G01X4075Y6915D01*
G01X4070Y6917D01*
G01X4064Y6918D01*
G01X4059Y6919D01*
G37*

%LPD*%
G36*
G01X2059Y6919D02*
G01X1941Y6919D01*
G01X1929Y6917D01*
G01X1924Y6915D01*
G01X1914Y6909D01*
G01X1910Y6905D01*
G01X1904Y6895D01*
G01X1902Y6890D01*
G01X1901Y6884D01*
G01X1901Y6671D01*
G01X1902Y6665D01*
G01X1905Y6659D01*
G01X1908Y6654D01*
G01X1912Y6649D01*
G01X1916Y6645D01*
G01X1921Y6642D01*
G01X1927Y6639D01*
G01X1933Y6638D01*
G01X1944Y6635D01*
G01X1956Y6631D01*
G01X1967Y6627D01*
G01X1987Y6615D01*
G01X2005Y6599D01*
G01X2030Y6574D01*
G01X2035Y6570D01*
G01X2040Y6567D01*
G01X2046Y6564D01*
G01X2052Y6563D01*
G01X2059Y6562D01*
G01X2064Y6563D01*
G01X2070Y6564D01*
G01X2075Y6566D01*
G01X2085Y6572D01*
G01X2089Y6576D01*
G01X2095Y6586D01*
G01X2097Y6591D01*
G01X2098Y6597D01*
G01X2099Y6602D01*
G01X2099Y6879D01*
G01X2098Y6884D01*
G01X2097Y6890D01*
G01X2095Y6895D01*
G01X2089Y6905D01*
G01X2085Y6909D01*
G01X2075Y6915D01*
G01X2070Y6917D01*
G01X2064Y6918D01*
G01X2059Y6919D01*
G37*

%LPD*%
G36*
G01X6059Y6919D02*
G01X5941Y6919D01*
G01X5929Y6917D01*
G01X5924Y6915D01*
G01X5914Y6909D01*
G01X5910Y6905D01*
G01X5904Y6895D01*
G01X5902Y6890D01*
G01X5901Y6884D01*
G01X5901Y6566D01*
G01X5902Y6561D01*
G01X5904Y6555D01*
G01X5907Y6550D01*
G01X5910Y6546D01*
G01X5914Y6542D01*
G01X5919Y6538D01*
G01X5929Y6534D01*
G01X5935Y6532D01*
G01X5941Y6532D01*
G01X5948Y6533D01*
G01X5955Y6535D01*
G01X5969Y6540D01*
G01X5995Y6546D01*
G01X6023Y6548D01*
G01X6038Y6547D01*
G01X6052Y6546D01*
G01X6059Y6545D01*
G01X6064Y6546D01*
G01X6070Y6547D01*
G01X6080Y6551D01*
G01X6085Y6555D01*
G01X6089Y6559D01*
G01X6092Y6563D01*
G01X6095Y6568D01*
G01X6097Y6574D01*
G01X6098Y6579D01*
G01X6099Y6585D01*
G01X6099Y6879D01*
G01X6098Y6884D01*
G01X6097Y6890D01*
G01X6095Y6895D01*
G01X6089Y6905D01*
G01X6085Y6909D01*
G01X6075Y6915D01*
G01X6070Y6917D01*
G01X6064Y6918D01*
G01X6059Y6919D01*
G37*

%LPD*%
G36*
G01X7059Y6919D02*
G01X6941Y6919D01*
G01X6929Y6917D01*
G01X6924Y6915D01*
G01X6914Y6909D01*
G01X6910Y6905D01*
G01X6904Y6895D01*
G01X6902Y6890D01*
G01X6901Y6884D01*
G01X6901Y6500D01*
G01X6900Y6493D01*
G01X6898Y6455D01*
G01X6896Y6443D01*
G01X6889Y6406D01*
G01X6886Y6394D01*
G01X6877Y6365D01*
G01X6875Y6359D01*
G01X6875Y6347D01*
G01X6876Y6341D01*
G01X6878Y6336D01*
G01X6881Y6331D01*
G01X6885Y6326D01*
G01X6889Y6322D01*
G01X6893Y6319D01*
G01X6898Y6316D01*
G01X6903Y6314D01*
G01X6915Y6312D01*
G01X6921Y6313D01*
G01X6926Y6314D01*
G01X6952Y6320D01*
G01X6978Y6322D01*
G01X6990Y6321D01*
G01X7003Y6320D01*
G01X7015Y6318D01*
G01X7027Y6315D01*
G01X7039Y6311D01*
G01X7061Y6301D01*
G01X7072Y6295D01*
G01X7079Y6292D01*
G01X7086Y6290D01*
G01X7093Y6289D01*
G01X7099Y6289D01*
G01X7104Y6291D01*
G01X7110Y6293D01*
G01X7115Y6295D01*
G01X7127Y6307D01*
G01X7129Y6312D01*
G01X7131Y6318D01*
G01X7133Y6323D01*
G01X7133Y6335D01*
G01X7131Y6341D01*
G01X7129Y6346D01*
G01X7113Y6394D01*
G01X7110Y6406D01*
G01X7103Y6443D01*
G01X7101Y6455D01*
G01X7099Y6493D01*
G01X7099Y6879D01*
G01X7098Y6884D01*
G01X7097Y6890D01*
G01X7095Y6895D01*
G01X7089Y6905D01*
G01X7085Y6909D01*
G01X7075Y6915D01*
G01X7070Y6917D01*
G01X7064Y6918D01*
G01X7059Y6919D01*
G37*

%LPD*%
G36*
G01X3059Y6919D02*
G01X2941Y6919D01*
G01X2929Y6917D01*
G01X2924Y6915D01*
G01X2914Y6909D01*
G01X2910Y6905D01*
G01X2904Y6895D01*
G01X2902Y6890D01*
G01X2901Y6884D01*
G01X2901Y6500D01*
G01X2900Y6493D01*
G01X2898Y6455D01*
G01X2896Y6443D01*
G01X2889Y6406D01*
G01X2886Y6394D01*
G01X2874Y6358D01*
G01X2874Y6356D01*
G01X2872Y6350D01*
G01X2872Y6337D01*
G01X2876Y6325D01*
G01X2879Y6320D01*
G01X2883Y6315D01*
G01X2966Y6232D01*
G01X2971Y6228D01*
G01X2976Y6225D01*
G01X2982Y6222D01*
G01X2988Y6221D01*
G01X3135Y6221D01*
G01X3141Y6222D01*
G01X3146Y6224D01*
G01X3156Y6230D01*
G01X3160Y6234D01*
G01X3166Y6244D01*
G01X3168Y6249D01*
G01X3170Y6261D01*
G01X3169Y6266D01*
G01X3168Y6272D01*
G01X3166Y6277D01*
G01X3163Y6282D01*
G01X3151Y6301D01*
G01X3145Y6312D01*
G01X3129Y6346D01*
G01X3113Y6394D01*
G01X3110Y6406D01*
G01X3103Y6443D01*
G01X3101Y6455D01*
G01X3099Y6493D01*
G01X3099Y6879D01*
G01X3098Y6884D01*
G01X3097Y6890D01*
G01X3095Y6895D01*
G01X3089Y6905D01*
G01X3085Y6909D01*
G01X3075Y6915D01*
G01X3070Y6917D01*
G01X3064Y6918D01*
G01X3059Y6919D01*
G37*

%LPD*%
G36*
G01X3883Y6312D02*
G01X3871Y6312D01*
G01X3866Y6311D01*
G01X3860Y6309D01*
G01X3855Y6306D01*
G01X3851Y6302D01*
G01X3846Y6298D01*
G01X3843Y6294D01*
G01X3836Y6282D01*
G01X3833Y6277D01*
G01X3831Y6272D01*
G01X3830Y6266D01*
G01X3829Y6261D01*
G01X3831Y6249D01*
G01X3833Y6244D01*
G01X3839Y6234D01*
G01X3843Y6230D01*
G01X3853Y6224D01*
G01X3858Y6222D01*
G01X3864Y6221D01*
G01X3894Y6221D01*
G01X3900Y6222D01*
G01X3905Y6224D01*
G01X3915Y6230D01*
G01X3919Y6234D01*
G01X3925Y6244D01*
G01X3927Y6249D01*
G01X3929Y6261D01*
G01X3927Y6273D01*
G01X3924Y6279D01*
G01X3921Y6284D01*
G01X3917Y6289D01*
G01X3905Y6300D01*
G01X3900Y6305D01*
G01X3895Y6308D01*
G01X3883Y6312D01*
G37*

%LPD*%
G36*
G01X8059Y6919D02*
G01X7941Y6919D01*
G01X7929Y6917D01*
G01X7924Y6915D01*
G01X7914Y6909D01*
G01X7910Y6905D01*
G01X7904Y6895D01*
G01X7902Y6890D01*
G01X7901Y6884D01*
G01X7901Y6500D01*
G01X7900Y6493D01*
G01X7898Y6455D01*
G01X7896Y6443D01*
G01X7889Y6406D01*
G01X7886Y6394D01*
G01X7870Y6346D01*
G01X7854Y6312D01*
G01X7848Y6301D01*
G01X7836Y6282D01*
G01X7833Y6277D01*
G01X7831Y6272D01*
G01X7830Y6266D01*
G01X7829Y6261D01*
G01X7831Y6249D01*
G01X7833Y6244D01*
G01X7839Y6234D01*
G01X7843Y6230D01*
G01X7853Y6224D01*
G01X7858Y6222D01*
G01X7864Y6221D01*
G01X8135Y6221D01*
G01X8141Y6222D01*
G01X8146Y6224D01*
G01X8156Y6230D01*
G01X8160Y6234D01*
G01X8166Y6244D01*
G01X8168Y6249D01*
G01X8170Y6261D01*
G01X8169Y6266D01*
G01X8168Y6272D01*
G01X8166Y6277D01*
G01X8163Y6282D01*
G01X8151Y6301D01*
G01X8145Y6312D01*
G01X8129Y6346D01*
G01X8113Y6394D01*
G01X8110Y6406D01*
G01X8103Y6443D01*
G01X8101Y6456D01*
G01X8099Y6493D01*
G01X8099Y6879D01*
G01X8098Y6884D01*
G01X8097Y6890D01*
G01X8095Y6895D01*
G01X8089Y6905D01*
G01X8085Y6909D01*
G01X8075Y6915D01*
G01X8070Y6917D01*
G01X8064Y6918D01*
G01X8059Y6919D01*
G37*

%LPD*%
G36*
G01X11059Y6919D02*
G01X10941Y6919D01*
G01X10929Y6917D01*
G01X10924Y6915D01*
G01X10914Y6909D01*
G01X10910Y6905D01*
G01X10904Y6895D01*
G01X10902Y6890D01*
G01X10901Y6884D01*
G01X10901Y6500D01*
G01X10900Y6493D01*
G01X10898Y6455D01*
G01X10896Y6443D01*
G01X10889Y6406D01*
G01X10886Y6394D01*
G01X10870Y6346D01*
G01X10854Y6312D01*
G01X10848Y6301D01*
G01X10827Y6269D01*
G01X10820Y6259D01*
G01X10806Y6242D01*
G01X10802Y6236D01*
G01X10799Y6230D01*
G01X10797Y6223D01*
G01X10797Y6211D01*
G01X10799Y6205D01*
G01X10803Y6195D01*
G01X10807Y6190D01*
G01X10811Y6186D01*
G01X10815Y6183D01*
G01X10820Y6180D01*
G01X10826Y6178D01*
G01X10831Y6177D01*
G01X10837Y6176D01*
G01X11162Y6176D01*
G01X11168Y6177D01*
G01X11173Y6178D01*
G01X11179Y6180D01*
G01X11184Y6183D01*
G01X11188Y6186D01*
G01X11192Y6190D01*
G01X11196Y6195D01*
G01X11199Y6200D01*
G01X11200Y6205D01*
G01X11202Y6211D01*
G01X11202Y6223D01*
G01X11200Y6230D01*
G01X11197Y6236D01*
G01X11193Y6242D01*
G01X11179Y6259D01*
G01X11172Y6269D01*
G01X11151Y6301D01*
G01X11145Y6312D01*
G01X11129Y6346D01*
G01X11124Y6358D01*
G01X11113Y6394D01*
G01X11110Y6406D01*
G01X11103Y6443D01*
G01X11101Y6456D01*
G01X11099Y6493D01*
G01X11099Y6879D01*
G01X11098Y6884D01*
G01X11097Y6890D01*
G01X11095Y6895D01*
G01X11089Y6905D01*
G01X11085Y6909D01*
G01X11075Y6915D01*
G01X11070Y6917D01*
G01X11064Y6918D01*
G01X11059Y6919D01*
G37*

%LPD*%
G36*
G01X12181Y6919D02*
G01X11941Y6919D01*
G01X11929Y6917D01*
G01X11924Y6915D01*
G01X11914Y6909D01*
G01X11910Y6905D01*
G01X11904Y6895D01*
G01X11902Y6890D01*
G01X11901Y6884D01*
G01X11901Y6500D01*
G01X11900Y6493D01*
G01X11898Y6455D01*
G01X11896Y6443D01*
G01X11889Y6406D01*
G01X11886Y6394D01*
G01X11870Y6346D01*
G01X11854Y6312D01*
G01X11848Y6301D01*
G01X11827Y6269D01*
G01X11820Y6259D01*
G01X11806Y6242D01*
G01X11802Y6236D01*
G01X11799Y6230D01*
G01X11797Y6223D01*
G01X11797Y6211D01*
G01X11799Y6205D01*
G01X11803Y6195D01*
G01X11807Y6190D01*
G01X11811Y6186D01*
G01X11815Y6183D01*
G01X11820Y6180D01*
G01X11826Y6178D01*
G01X11831Y6177D01*
G01X11837Y6176D01*
G01X12688Y6176D01*
G01X12694Y6177D01*
G01X12699Y6178D01*
G01X12705Y6180D01*
G01X12720Y6189D01*
G01X12742Y6199D01*
G01X12753Y6202D01*
G01X12765Y6205D01*
G01X12776Y6206D01*
G01X12788Y6207D01*
G01X12901Y6207D01*
G01X12913Y6211D01*
G01X12928Y6220D01*
G01X12939Y6226D01*
G01X12961Y6236D01*
G01X12973Y6240D01*
G01X13009Y6246D01*
G01X13035Y6246D01*
G01X13048Y6244D01*
G01X13062Y6241D01*
G01X13075Y6238D01*
G01X13088Y6233D01*
G01X13100Y6228D01*
G01X13112Y6221D01*
G01X13119Y6218D01*
G01X13126Y6216D01*
G01X13138Y6216D01*
G01X13144Y6217D01*
G01X13149Y6219D01*
G01X13154Y6222D01*
G01X13159Y6226D01*
G01X13163Y6230D01*
G01X13166Y6234D01*
G01X13169Y6239D01*
G01X13171Y6244D01*
G01X13173Y6256D01*
G01X13172Y6261D01*
G01X13171Y6267D01*
G01X13169Y6272D01*
G01X13166Y6277D01*
G01X13151Y6301D01*
G01X13145Y6312D01*
G01X13129Y6346D01*
G01X13124Y6358D01*
G01X13113Y6394D01*
G01X13110Y6406D01*
G01X13103Y6443D01*
G01X13101Y6456D01*
G01X13099Y6493D01*
G01X13099Y6879D01*
G01X13098Y6884D01*
G01X13097Y6890D01*
G01X13095Y6895D01*
G01X13089Y6905D01*
G01X13085Y6909D01*
G01X13075Y6915D01*
G01X13070Y6917D01*
G01X13064Y6918D01*
G01X13059Y6919D01*
G01X12818Y6919D01*
G01X12806Y6917D01*
G01X12791Y6908D01*
G01X12783Y6898D01*
G01X12775Y6878D01*
G01X12761Y6850D01*
G01X12752Y6836D01*
G01X12744Y6823D01*
G01X12724Y6799D01*
G01X12713Y6787D01*
G01X12701Y6776D01*
G01X12677Y6756D01*
G01X12664Y6747D01*
G01X12650Y6739D01*
G01X12637Y6732D01*
G01X12622Y6725D01*
G01X12608Y6719D01*
G01X12593Y6713D01*
G01X12578Y6709D01*
G01X12562Y6705D01*
G01X12547Y6702D01*
G01X12531Y6700D01*
G01X12515Y6699D01*
G01X12484Y6699D01*
G01X12468Y6700D01*
G01X12452Y6702D01*
G01X12437Y6705D01*
G01X12421Y6709D01*
G01X12406Y6713D01*
G01X12391Y6719D01*
G01X12377Y6725D01*
G01X12362Y6732D01*
G01X12349Y6739D01*
G01X12335Y6747D01*
G01X12322Y6756D01*
G01X12298Y6776D01*
G01X12286Y6787D01*
G01X12275Y6799D01*
G01X12255Y6823D01*
G01X12247Y6836D01*
G01X12238Y6850D01*
G01X12224Y6878D01*
G01X12216Y6898D01*
G01X12208Y6908D01*
G01X12193Y6917D01*
G01X12181Y6919D01*
G37*

%LPD*%
G36*
G01X6194Y6222D02*
G01X6189Y6222D01*
G01X6183Y6220D01*
G01X6173Y6216D01*
G01X6168Y6212D01*
G01X6164Y6208D01*
G01X6161Y6204D01*
G01X6158Y6199D01*
G01X6156Y6193D01*
G01X6155Y6188D01*
G01X6154Y6182D01*
G01X6154Y6101D01*
G01X6156Y6089D01*
G01X6158Y6084D01*
G01X6164Y6074D01*
G01X6168Y6070D01*
G01X6178Y6064D01*
G01X6183Y6062D01*
G01X6189Y6061D01*
G01X6317Y6061D01*
G01X6323Y6062D01*
G01X6328Y6064D01*
G01X6338Y6070D01*
G01X6342Y6074D01*
G01X6348Y6084D01*
G01X6350Y6089D01*
G01X6352Y6101D01*
G01X6350Y6113D01*
G01X6344Y6125D01*
G01X6329Y6137D01*
G01X6323Y6140D01*
G01X6290Y6158D01*
G01X6279Y6165D01*
G01X6249Y6187D01*
G01X6239Y6195D01*
G01X6222Y6211D01*
G01X6217Y6215D01*
G01X6212Y6218D01*
G01X6206Y6220D01*
G01X6194Y6222D01*
G37*

%LPD*%
G36*
G01X6769Y6181D02*
G01X6757Y6183D01*
G01X6745Y6181D01*
G01X6739Y6178D01*
G01X6734Y6175D01*
G01X6719Y6164D01*
G01X6709Y6158D01*
G01X6676Y6140D01*
G01X6670Y6137D01*
G01X6655Y6125D01*
G01X6649Y6113D01*
G01X6647Y6101D01*
G01X6649Y6089D01*
G01X6651Y6084D01*
G01X6657Y6074D01*
G01X6661Y6070D01*
G01X6671Y6064D01*
G01X6676Y6062D01*
G01X6682Y6061D01*
G01X6767Y6061D01*
G01X6773Y6062D01*
G01X6778Y6064D01*
G01X6783Y6067D01*
G01X6787Y6070D01*
G01X6791Y6074D01*
G01X6795Y6079D01*
G01X6798Y6084D01*
G01X6800Y6089D01*
G01X6801Y6095D01*
G01X6801Y6108D01*
G01X6798Y6124D01*
G01X6797Y6141D01*
G01X6797Y6148D01*
G01X6796Y6154D01*
G01X6794Y6159D01*
G01X6788Y6169D01*
G01X6784Y6173D01*
G01X6774Y6179D01*
G01X6769Y6181D01*
G37*

%LPD*%
G36*
G01X9059Y6919D02*
G01X8941Y6919D01*
G01X8929Y6917D01*
G01X8924Y6915D01*
G01X8914Y6909D01*
G01X8910Y6905D01*
G01X8904Y6895D01*
G01X8902Y6890D01*
G01X8901Y6884D01*
G01X8901Y6500D01*
G01X8900Y6493D01*
G01X8898Y6455D01*
G01X8896Y6443D01*
G01X8889Y6406D01*
G01X8886Y6394D01*
G01X8870Y6346D01*
G01X8854Y6312D01*
G01X8848Y6301D01*
G01X8827Y6269D01*
G01X8820Y6259D01*
G01X8796Y6230D01*
G01X8787Y6220D01*
G01X8760Y6195D01*
G01X8750Y6187D01*
G01X8719Y6164D01*
G01X8709Y6158D01*
G01X8676Y6140D01*
G01X8664Y6134D01*
G01X8663Y6134D01*
G01X8653Y6128D01*
G01X8649Y6124D01*
G01X8645Y6119D01*
G01X8642Y6114D01*
G01X8640Y6108D01*
G01X8639Y6102D01*
G01X8638Y6097D01*
G01X8639Y6090D01*
G01X8640Y6084D01*
G01X8642Y6078D01*
G01X8650Y6068D01*
G01X8750Y5968D01*
G01X8756Y5965D01*
G01X8768Y5961D01*
G01X9797Y5961D01*
G01X9803Y5962D01*
G01X9808Y5964D01*
G01X9818Y5970D01*
G01X9822Y5975D01*
G01X9825Y5979D01*
G01X9828Y5984D01*
G01X9830Y5989D01*
G01X9832Y6001D01*
G01X9831Y6007D01*
G01X9829Y6035D01*
G01X9829Y6048D01*
G01X9833Y6072D01*
G01X9839Y6096D01*
G01X9849Y6118D01*
G01X9855Y6129D01*
G01X9869Y6149D01*
G01X9877Y6159D01*
G01X9895Y6175D01*
G01X9905Y6183D01*
G01X9916Y6189D01*
G01X9926Y6196D01*
G01X9937Y6201D01*
G01X9961Y6209D01*
G01X9973Y6212D01*
G01X9985Y6214D01*
G01X10009Y6216D01*
G01X10021Y6215D01*
G01X10034Y6214D01*
G01X10046Y6212D01*
G01X10057Y6209D01*
G01X10069Y6206D01*
G01X10091Y6196D01*
G01X10102Y6190D01*
G01X10112Y6184D01*
G01X10117Y6180D01*
G01X10123Y6178D01*
G01X10135Y6176D01*
G01X10162Y6176D01*
G01X10168Y6177D01*
G01X10173Y6178D01*
G01X10179Y6180D01*
G01X10184Y6183D01*
G01X10188Y6186D01*
G01X10192Y6190D01*
G01X10196Y6195D01*
G01X10199Y6200D01*
G01X10200Y6205D01*
G01X10202Y6211D01*
G01X10202Y6223D01*
G01X10200Y6230D01*
G01X10197Y6236D01*
G01X10193Y6242D01*
G01X10179Y6259D01*
G01X10172Y6269D01*
G01X10151Y6301D01*
G01X10145Y6312D01*
G01X10129Y6346D01*
G01X10124Y6358D01*
G01X10113Y6394D01*
G01X10110Y6406D01*
G01X10103Y6443D01*
G01X10101Y6456D01*
G01X10099Y6493D01*
G01X10099Y6879D01*
G01X10098Y6884D01*
G01X10097Y6890D01*
G01X10095Y6895D01*
G01X10089Y6905D01*
G01X10085Y6909D01*
G01X10075Y6915D01*
G01X10070Y6917D01*
G01X10064Y6918D01*
G01X10059Y6919D01*
G01X9941Y6919D01*
G01X9929Y6917D01*
G01X9924Y6915D01*
G01X9914Y6909D01*
G01X9910Y6905D01*
G01X9904Y6895D01*
G01X9902Y6890D01*
G01X9901Y6884D01*
G01X9901Y6500D01*
G01X9900Y6493D01*
G01X9898Y6455D01*
G01X9896Y6443D01*
G01X9889Y6406D01*
G01X9886Y6394D01*
G01X9870Y6346D01*
G01X9854Y6312D01*
G01X9848Y6301D01*
G01X9827Y6269D01*
G01X9820Y6259D01*
G01X9796Y6230D01*
G01X9787Y6220D01*
G01X9760Y6195D01*
G01X9750Y6187D01*
G01X9719Y6164D01*
G01X9709Y6158D01*
G01X9676Y6140D01*
G01X9664Y6134D01*
G01X9629Y6120D01*
G01X9617Y6116D01*
G01X9581Y6107D01*
G01X9568Y6105D01*
G01X9531Y6100D01*
G01X9518Y6099D01*
G01X9481Y6099D01*
G01X9468Y6100D01*
G01X9431Y6105D01*
G01X9418Y6107D01*
G01X9382Y6116D01*
G01X9370Y6120D01*
G01X9335Y6134D01*
G01X9323Y6140D01*
G01X9290Y6158D01*
G01X9279Y6165D01*
G01X9249Y6187D01*
G01X9239Y6195D01*
G01X9212Y6220D01*
G01X9203Y6230D01*
G01X9179Y6259D01*
G01X9172Y6269D01*
G01X9151Y6301D01*
G01X9145Y6312D01*
G01X9129Y6346D01*
G01X9124Y6358D01*
G01X9113Y6394D01*
G01X9110Y6406D01*
G01X9103Y6443D01*
G01X9101Y6456D01*
G01X9099Y6493D01*
G01X9099Y6879D01*
G01X9098Y6884D01*
G01X9097Y6890D01*
G01X9095Y6895D01*
G01X9089Y6905D01*
G01X9085Y6909D01*
G01X9075Y6915D01*
G01X9070Y6917D01*
G01X9064Y6918D01*
G01X9059Y6919D01*
G37*

%LPD*%
G36*
G01X14059Y6919D02*
G01X13941Y6919D01*
G01X13929Y6917D01*
G01X13924Y6915D01*
G01X13914Y6909D01*
G01X13910Y6905D01*
G01X13904Y6895D01*
G01X13902Y6890D01*
G01X13901Y6884D01*
G01X13901Y6500D01*
G01X13900Y6493D01*
G01X13898Y6455D01*
G01X13896Y6443D01*
G01X13889Y6406D01*
G01X13886Y6394D01*
G01X13875Y6358D01*
G01X13874Y6356D01*
G01X13872Y6350D01*
G01X13872Y6337D01*
G01X13876Y6325D01*
G01X13879Y6320D01*
G01X13883Y6315D01*
G01X14234Y5964D01*
G01X14239Y5960D01*
G01X14245Y5957D01*
G01X14250Y5954D01*
G01X14256Y5953D01*
G01X14263Y5952D01*
G01X14268Y5953D01*
G01X14274Y5954D01*
G01X14284Y5958D01*
G01X14289Y5962D01*
G01X14293Y5966D01*
G01X14299Y5976D01*
G01X14301Y5981D01*
G01X14302Y5986D01*
G01X14303Y5992D01*
G01X14302Y6001D01*
G01X14299Y6014D01*
G01X14297Y6040D01*
G01X14298Y6054D01*
G01X14300Y6067D01*
G01X14302Y6081D01*
G01X14310Y6107D01*
G01X14312Y6114D01*
G01X14313Y6121D01*
G01X14313Y6127D01*
G01X14309Y6139D01*
G01X14306Y6144D01*
G01X14302Y6149D01*
G01X14297Y6153D01*
G01X14292Y6156D01*
G01X14290Y6158D01*
G01X14279Y6164D01*
G01X14249Y6187D01*
G01X14239Y6195D01*
G01X14212Y6221D01*
G01X14203Y6230D01*
G01X14179Y6259D01*
G01X14172Y6269D01*
G01X14151Y6301D01*
G01X14145Y6312D01*
G01X14129Y6346D01*
G01X14124Y6358D01*
G01X14113Y6394D01*
G01X14110Y6406D01*
G01X14103Y6443D01*
G01X14101Y6456D01*
G01X14099Y6493D01*
G01X14099Y6879D01*
G01X14098Y6884D01*
G01X14097Y6890D01*
G01X14095Y6895D01*
G01X14089Y6905D01*
G01X14085Y6909D01*
G01X14075Y6915D01*
G01X14070Y6917D01*
G01X14064Y6918D01*
G01X14059Y6919D01*
G37*

%LPD*%
G36*
G01X5059Y6919D02*
G01X4941Y6919D01*
G01X4929Y6917D01*
G01X4924Y6915D01*
G01X4914Y6909D01*
G01X4910Y6905D01*
G01X4904Y6895D01*
G01X4902Y6890D01*
G01X4901Y6884D01*
G01X4901Y6500D01*
G01X4900Y6493D01*
G01X4898Y6455D01*
G01X4896Y6443D01*
G01X4889Y6406D01*
G01X4886Y6394D01*
G01X4874Y6358D01*
G01X4874Y6356D01*
G01X4872Y6350D01*
G01X4872Y6337D01*
G01X4876Y6325D01*
G01X4879Y6320D01*
G01X4883Y6315D01*
G01X5286Y5912D01*
G01X5291Y5908D01*
G01X5296Y5905D01*
G01X5302Y5902D01*
G01X5308Y5901D01*
G01X5844Y5901D01*
G01X5849Y5902D01*
G01X5855Y5904D01*
G01X5860Y5907D01*
G01X5864Y5910D01*
G01X5868Y5914D01*
G01X5872Y5919D01*
G01X5876Y5929D01*
G01X5878Y5935D01*
G01X5878Y5941D01*
G01X5877Y5950D01*
G01X5874Y5962D01*
G01X5872Y5986D01*
G01X5872Y6217D01*
G01X5871Y6222D01*
G01X5869Y6227D01*
G01X5863Y6237D01*
G01X5858Y6241D01*
G01X5854Y6244D01*
G01X5849Y6247D01*
G01X5844Y6249D01*
G01X5832Y6251D01*
G01X5826Y6250D01*
G01X5821Y6249D01*
G01X5815Y6247D01*
G01X5810Y6244D01*
G01X5806Y6241D01*
G01X5801Y6236D01*
G01X5796Y6230D01*
G01X5787Y6220D01*
G01X5760Y6195D01*
G01X5750Y6187D01*
G01X5719Y6164D01*
G01X5709Y6158D01*
G01X5676Y6140D01*
G01X5664Y6134D01*
G01X5629Y6120D01*
G01X5617Y6116D01*
G01X5581Y6107D01*
G01X5568Y6105D01*
G01X5531Y6100D01*
G01X5518Y6099D01*
G01X5481Y6099D01*
G01X5468Y6100D01*
G01X5431Y6105D01*
G01X5418Y6107D01*
G01X5382Y6116D01*
G01X5370Y6120D01*
G01X5335Y6134D01*
G01X5323Y6140D01*
G01X5290Y6158D01*
G01X5279Y6165D01*
G01X5249Y6187D01*
G01X5239Y6195D01*
G01X5212Y6220D01*
G01X5203Y6230D01*
G01X5179Y6259D01*
G01X5172Y6269D01*
G01X5151Y6301D01*
G01X5145Y6312D01*
G01X5129Y6346D01*
G01X5113Y6394D01*
G01X5110Y6406D01*
G01X5103Y6443D01*
G01X5101Y6455D01*
G01X5099Y6493D01*
G01X5099Y6879D01*
G01X5098Y6884D01*
G01X5097Y6890D01*
G01X5095Y6895D01*
G01X5089Y6905D01*
G01X5085Y6909D01*
G01X5075Y6915D01*
G01X5070Y6917D01*
G01X5064Y6918D01*
G01X5059Y6919D01*
G37*

%LPD*%
G36*
G01X14337Y5915D02*
G01X14326Y5915D01*
G01X14320Y5914D01*
G01X14315Y5912D01*
G01X14310Y5909D01*
G01X14305Y5905D01*
G01X14301Y5901D01*
G01X14298Y5897D01*
G01X14295Y5892D01*
G01X14293Y5887D01*
G01X14292Y5881D01*
G01X14292Y5869D01*
G01X14294Y5857D01*
G01X14294Y5806D01*
G01X14296Y5801D01*
G01X14298Y5795D01*
G01X14300Y5790D01*
G01X14312Y5778D01*
G01X14317Y5776D01*
G01X14323Y5774D01*
G01X14328Y5772D01*
G01X14334Y5772D01*
G01X14341Y5773D01*
G01X14347Y5774D01*
G01X14353Y5777D01*
G01X14359Y5781D01*
G01X14371Y5790D01*
G01X14385Y5798D01*
G01X14399Y5804D01*
G01X14404Y5807D01*
G01X14409Y5811D01*
G01X14413Y5815D01*
G01X14416Y5819D01*
G01X14419Y5824D01*
G01X14421Y5830D01*
G01X14423Y5835D01*
G01X14423Y5841D01*
G01X14422Y5848D01*
G01X14421Y5854D01*
G01X14418Y5860D01*
G01X14415Y5865D01*
G01X14411Y5870D01*
G01X14406Y5874D01*
G01X14400Y5877D01*
G01X14389Y5883D01*
G01X14378Y5890D01*
G01X14368Y5897D01*
G01X14358Y5905D01*
G01X14354Y5909D01*
G01X14348Y5912D01*
G01X14343Y5914D01*
G01X14337Y5915D01*
G37*

%LPD*%
G36*
G01X10927Y5567D02*
G01X10486Y5567D01*
G01X10481Y5566D01*
G01X10475Y5564D01*
G01X10470Y5561D01*
G01X10458Y5549D01*
G01X10455Y5544D01*
G01X10453Y5538D01*
G01X10452Y5533D01*
G01X10452Y5521D01*
G01X10456Y5509D01*
G01X10464Y5499D01*
G01X10744Y5218D01*
G01X10749Y5214D01*
G01X10754Y5211D01*
G01X10760Y5208D01*
G01X10766Y5207D01*
G01X10778Y5207D01*
G01X10784Y5208D01*
G01X10789Y5210D01*
G01X10794Y5213D01*
G01X10799Y5217D01*
G01X10823Y5241D01*
G01X10834Y5250D01*
G01X10839Y5254D01*
G01X10843Y5259D01*
G01X10846Y5264D01*
G01X10849Y5270D01*
G01X10851Y5282D01*
G01X10849Y5291D01*
G01X10845Y5319D01*
G01X10845Y5345D01*
G01X10846Y5357D01*
G01X10848Y5369D01*
G01X10851Y5381D01*
G01X10855Y5392D01*
G01X10859Y5404D01*
G01X10865Y5415D01*
G01X10870Y5426D01*
G01X10884Y5446D01*
G01X10892Y5455D01*
G01X10901Y5463D01*
G01X10910Y5472D01*
G01X10930Y5486D01*
G01X10940Y5492D01*
G01X10946Y5495D01*
G01X10950Y5499D01*
G01X10954Y5504D01*
G01X10957Y5509D01*
G01X10960Y5515D01*
G01X10962Y5527D01*
G01X10961Y5533D01*
G01X10960Y5538D01*
G01X10958Y5544D01*
G01X10955Y5549D01*
G01X10952Y5553D01*
G01X10948Y5557D01*
G01X10943Y5561D01*
G01X10938Y5564D01*
G01X10933Y5566D01*
G01X10927Y5567D01*
G37*

%LPD*%
G36*
G01X6936Y5139D02*
G01X6066Y5139D01*
G01X6060Y5138D01*
G01X6055Y5137D01*
G01X6049Y5135D01*
G01X6044Y5132D01*
G01X6040Y5129D01*
G01X6036Y5125D01*
G01X6032Y5120D01*
G01X6028Y5110D01*
G01X6026Y5104D01*
G01X6026Y5093D01*
G01X6030Y5081D01*
G01X6033Y5076D01*
G01X6036Y5072D01*
G01X6046Y5064D01*
G01X6057Y5057D01*
G01X6068Y5048D01*
G01X6078Y5039D01*
G01X6087Y5030D01*
G01X6096Y5019D01*
G01X6100Y5014D01*
G01X6105Y5010D01*
G01X6110Y5007D01*
G01X6116Y5005D01*
G01X6128Y5003D01*
G01X6938Y5003D01*
G01X6943Y5004D01*
G01X6949Y5005D01*
G01X6959Y5009D01*
G01X6964Y5013D01*
G01X6968Y5017D01*
G01X6971Y5021D01*
G01X6974Y5026D01*
G01X6976Y5032D01*
G01X6977Y5037D01*
G01X6977Y5049D01*
G01X6975Y5064D01*
G01X6975Y5095D01*
G01X6976Y5099D01*
G01X6975Y5104D01*
G01X6974Y5110D01*
G01X6972Y5115D01*
G01X6966Y5125D01*
G01X6962Y5129D01*
G01X6952Y5135D01*
G01X6947Y5137D01*
G01X6941Y5138D01*
G01X6936Y5139D01*
G37*

%LPD*%
G36*
G01X15059Y6919D02*
G01X14941Y6919D01*
G01X14929Y6917D01*
G01X14924Y6915D01*
G01X14914Y6909D01*
G01X14910Y6905D01*
G01X14904Y6895D01*
G01X14902Y6890D01*
G01X14901Y6884D01*
G01X14901Y6500D01*
G01X14900Y6493D01*
G01X14898Y6455D01*
G01X14896Y6443D01*
G01X14889Y6406D01*
G01X14886Y6394D01*
G01X14875Y6358D01*
G01X14870Y6346D01*
G01X14854Y6312D01*
G01X14848Y6301D01*
G01X14827Y6269D01*
G01X14820Y6259D01*
G01X14796Y6230D01*
G01X14787Y6220D01*
G01X14760Y6195D01*
G01X14750Y6187D01*
G01X14719Y6164D01*
G01X14709Y6158D01*
G01X14676Y6140D01*
G01X14672Y6137D01*
G01X14666Y6134D01*
G01X14661Y6130D01*
G01X14657Y6125D01*
G01X14654Y6120D01*
G01X14651Y6114D01*
G01X14650Y6108D01*
G01X14649Y6101D01*
G01X14651Y6090D01*
G01X14654Y6078D01*
G01X14656Y6065D01*
G01X14658Y6053D01*
G01X14658Y6028D01*
G01X14656Y6015D01*
G01X14654Y6003D01*
G01X14648Y5979D01*
G01X14638Y5957D01*
G01X14632Y5946D01*
G01X14625Y5936D01*
G01X14609Y5916D01*
G01X14591Y5900D01*
G01X14581Y5892D01*
G01X14571Y5885D01*
G01X14560Y5879D01*
G01X14549Y5874D01*
G01X14543Y5872D01*
G01X14535Y5864D01*
G01X14531Y5859D01*
G01X14528Y5854D01*
G01X14526Y5849D01*
G01X14524Y5837D01*
G01X14526Y5825D01*
G01X14529Y5819D01*
G01X14532Y5814D01*
G01X14536Y5809D01*
G01X14541Y5805D01*
G01X14547Y5801D01*
G01X14558Y5796D01*
G01X14569Y5789D01*
G01X14579Y5782D01*
G01X14588Y5774D01*
G01X14606Y5756D01*
G01X14614Y5746D01*
G01X14621Y5736D01*
G01X14627Y5725D01*
G01X14632Y5714D01*
G01X14637Y5702D01*
G01X14641Y5690D01*
G01X14644Y5678D01*
G01X14646Y5666D01*
G01X14647Y5653D01*
G01X14648Y5641D01*
G01X14647Y5628D01*
G01X14646Y5616D01*
G01X14644Y5603D01*
G01X14641Y5591D01*
G01X14637Y5579D01*
G01X14632Y5567D01*
G01X14620Y5545D01*
G01X14613Y5535D01*
G01X14605Y5525D01*
G01X14596Y5515D01*
G01X14587Y5507D01*
G01X14577Y5499D01*
G01X14573Y5495D01*
G01X14569Y5490D01*
G01X14566Y5485D01*
G01X14562Y5473D01*
G01X14562Y5461D01*
G01X14564Y5454D01*
G01X14566Y5449D01*
G01X14569Y5443D01*
G01X15101Y4911D01*
G01X15109Y4905D01*
G01X15119Y4898D01*
G01X15128Y4891D01*
G01X15137Y4883D01*
G01X15243Y4777D01*
G01X15255Y4771D01*
G01X15261Y4770D01*
G01X15616Y4770D01*
G01X15622Y4771D01*
G01X15627Y4773D01*
G01X15632Y4776D01*
G01X15636Y4779D01*
G01X15641Y4783D01*
G01X15647Y4793D01*
G01X15649Y4798D01*
G01X15650Y4804D01*
G01X15650Y4810D01*
G01X15649Y5472D01*
G01X16884Y5472D01*
G01X16890Y5474D01*
G01X16900Y5478D01*
G01X16905Y5482D01*
G01X16909Y5486D01*
G01X16912Y5490D01*
G01X16915Y5495D01*
G01X16917Y5501D01*
G01X16918Y5506D01*
G01X16919Y5512D01*
G01X16919Y6228D01*
G01X16917Y6240D01*
G01X16915Y6245D01*
G01X16909Y6255D01*
G01X16905Y6259D01*
G01X16895Y6265D01*
G01X16890Y6267D01*
G01X16884Y6268D01*
G01X16872Y6268D01*
G01X16860Y6264D01*
G01X16855Y6261D01*
G01X16846Y6252D01*
G01X16834Y6236D01*
G01X16822Y6221D01*
G01X16796Y6193D01*
G01X16782Y6180D01*
G01X16752Y6156D01*
G01X16736Y6145D01*
G01X16720Y6135D01*
G01X16703Y6125D01*
G01X16686Y6116D01*
G01X16668Y6108D01*
G01X16650Y6101D01*
G01X16614Y6089D01*
G01X16595Y6084D01*
G01X16576Y6080D01*
G01X16557Y6077D01*
G01X16538Y6075D01*
G01X16519Y6074D01*
G01X16481Y6074D01*
G01X16462Y6075D01*
G01X16444Y6077D01*
G01X16426Y6080D01*
G01X16407Y6084D01*
G01X16389Y6088D01*
G01X16371Y6093D01*
G01X16354Y6099D01*
G01X16336Y6106D01*
G01X16319Y6113D01*
G01X16271Y6140D01*
G01X16255Y6151D01*
G01X16240Y6162D01*
G01X16226Y6173D01*
G01X16212Y6185D01*
G01X16198Y6198D01*
G01X16185Y6212D01*
G01X16173Y6226D01*
G01X16162Y6240D01*
G01X16151Y6255D01*
G01X16140Y6271D01*
G01X16113Y6319D01*
G01X16106Y6336D01*
G01X16099Y6354D01*
G01X16093Y6371D01*
G01X16088Y6389D01*
G01X16084Y6407D01*
G01X16080Y6426D01*
G01X16077Y6444D01*
G01X16075Y6462D01*
G01X16074Y6481D01*
G01X16074Y6519D01*
G01X16075Y6538D01*
G01X16077Y6557D01*
G01X16080Y6576D01*
G01X16084Y6595D01*
G01X16089Y6614D01*
G01X16101Y6650D01*
G01X16108Y6668D01*
G01X16116Y6686D01*
G01X16125Y6703D01*
G01X16135Y6720D01*
G01X16145Y6736D01*
G01X16156Y6752D01*
G01X16180Y6782D01*
G01X16193Y6796D01*
G01X16221Y6822D01*
G01X16236Y6834D01*
G01X16252Y6846D01*
G01X16261Y6855D01*
G01X16264Y6860D01*
G01X16268Y6872D01*
G01X16268Y6884D01*
G01X16267Y6890D01*
G01X16265Y6895D01*
G01X16259Y6905D01*
G01X16255Y6909D01*
G01X16245Y6915D01*
G01X16240Y6917D01*
G01X16228Y6919D01*
G01X15941Y6919D01*
G01X15929Y6917D01*
G01X15924Y6915D01*
G01X15914Y6909D01*
G01X15910Y6905D01*
G01X15904Y6895D01*
G01X15902Y6890D01*
G01X15901Y6884D01*
G01X15901Y6500D01*
G01X15900Y6493D01*
G01X15898Y6455D01*
G01X15896Y6443D01*
G01X15889Y6406D01*
G01X15886Y6394D01*
G01X15875Y6358D01*
G01X15870Y6346D01*
G01X15854Y6312D01*
G01X15848Y6301D01*
G01X15827Y6269D01*
G01X15820Y6259D01*
G01X15796Y6230D01*
G01X15787Y6220D01*
G01X15760Y6195D01*
G01X15750Y6187D01*
G01X15719Y6164D01*
G01X15709Y6158D01*
G01X15676Y6140D01*
G01X15664Y6134D01*
G01X15629Y6120D01*
G01X15617Y6116D01*
G01X15581Y6107D01*
G01X15568Y6105D01*
G01X15531Y6100D01*
G01X15518Y6099D01*
G01X15481Y6099D01*
G01X15468Y6100D01*
G01X15431Y6105D01*
G01X15418Y6107D01*
G01X15382Y6116D01*
G01X15370Y6120D01*
G01X15335Y6134D01*
G01X15323Y6140D01*
G01X15279Y6164D01*
G01X15249Y6187D01*
G01X15239Y6195D01*
G01X15212Y6221D01*
G01X15203Y6230D01*
G01X15179Y6259D01*
G01X15172Y6269D01*
G01X15151Y6301D01*
G01X15145Y6312D01*
G01X15129Y6346D01*
G01X15124Y6358D01*
G01X15113Y6394D01*
G01X15110Y6406D01*
G01X15103Y6443D01*
G01X15101Y6456D01*
G01X15099Y6493D01*
G01X15099Y6879D01*
G01X15098Y6884D01*
G01X15097Y6890D01*
G01X15095Y6895D01*
G01X15089Y6905D01*
G01X15085Y6909D01*
G01X15075Y6915D01*
G01X15070Y6917D01*
G01X15064Y6918D01*
G01X15059Y6919D01*
G37*

%LPC*%
G36*
G01X14947Y5758D02*
G01X14936Y5759D01*
G01X14923Y5758D01*
G01X14911Y5757D01*
G01X14899Y5755D01*
G01X14887Y5752D01*
G01X14876Y5748D01*
G01X14864Y5744D01*
G01X14853Y5739D01*
G01X14843Y5733D01*
G01X14823Y5719D01*
G01X14814Y5711D01*
G01X14805Y5702D01*
G01X14797Y5693D01*
G01X14783Y5673D01*
G01X14777Y5662D01*
G01X14767Y5640D01*
G01X14764Y5628D01*
G01X14761Y5617D01*
G01X14759Y5604D01*
G01X14757Y5580D01*
G01X14759Y5556D01*
G01X14761Y5544D01*
G01X14767Y5520D01*
G01X14777Y5498D01*
G01X14783Y5488D01*
G01X14790Y5477D01*
G01X14797Y5468D01*
G01X14805Y5458D01*
G01X14823Y5442D01*
G01X14833Y5434D01*
G01X14853Y5422D01*
G01X14864Y5417D01*
G01X14876Y5412D01*
G01X14887Y5408D01*
G01X14899Y5406D01*
G01X14911Y5403D01*
G01X14923Y5402D01*
G01X14949Y5402D01*
G01X14975Y5406D01*
G01X14988Y5410D01*
G01X15000Y5414D01*
G01X15013Y5419D01*
G01X15024Y5425D01*
G01X15036Y5432D01*
G01X15046Y5438D01*
G01X15052Y5439D01*
G01X15065Y5439D01*
G01X15071Y5437D01*
G01X15083Y5431D01*
G01X15092Y5424D01*
G01X15103Y5417D01*
G01X15113Y5411D01*
G01X15124Y5406D01*
G01X15146Y5398D01*
G01X15182Y5392D01*
G01X15206Y5392D01*
G01X15230Y5396D01*
G01X15254Y5402D01*
G01X15276Y5412D01*
G01X15286Y5418D01*
G01X15297Y5425D01*
G01X15306Y5432D01*
G01X15316Y5440D01*
G01X15332Y5458D01*
G01X15340Y5468D01*
G01X15352Y5488D01*
G01X15357Y5499D01*
G01X15362Y5511D01*
G01X15366Y5522D01*
G01X15368Y5534D01*
G01X15371Y5546D01*
G01X15372Y5558D01*
G01X15372Y5583D01*
G01X15371Y5595D01*
G01X15368Y5607D01*
G01X15366Y5619D01*
G01X15362Y5630D01*
G01X15352Y5652D01*
G01X15346Y5663D01*
G01X15340Y5673D01*
G01X15332Y5683D01*
G01X15316Y5701D01*
G01X15306Y5709D01*
G01X15297Y5716D01*
G01X15286Y5723D01*
G01X15276Y5729D01*
G01X15254Y5739D01*
G01X15230Y5745D01*
G01X15218Y5747D01*
G01X15194Y5749D01*
G01X15181Y5748D01*
G01X15167Y5747D01*
G01X15141Y5741D01*
G01X15129Y5737D01*
G01X15105Y5725D01*
G01X15094Y5718D01*
G01X15089Y5715D01*
G01X15083Y5713D01*
G01X15071Y5711D01*
G01X15065Y5712D01*
G01X15058Y5713D01*
G01X15052Y5716D01*
G01X15046Y5720D01*
G01X15037Y5727D01*
G01X15027Y5733D01*
G01X15016Y5739D01*
G01X14994Y5749D01*
G01X14983Y5752D01*
G01X14971Y5755D01*
G01X14959Y5757D01*
G01X14947Y5758D01*
G37*

%LPD*%
G36*
G01X9748Y4861D02*
G01X7680Y4861D01*
G01X7668Y4859D01*
G01X7662Y4857D01*
G01X7657Y4854D01*
G01X7652Y4850D01*
G01X7648Y4845D01*
G01X7645Y4840D01*
G01X7642Y4834D01*
G01X7640Y4822D01*
G01X7639Y4808D01*
G01X7637Y4794D01*
G01X7627Y4759D01*
G01X7626Y4752D01*
G01X7627Y4747D01*
G01X7628Y4741D01*
G01X7630Y4736D01*
G01X7636Y4726D01*
G01X7640Y4722D01*
G01X7650Y4716D01*
G01X7655Y4714D01*
G01X7661Y4713D01*
G01X7666Y4712D01*
G01X9595Y4712D01*
G01X9606Y4711D01*
G01X9617Y4709D01*
G01X9627Y4706D01*
G01X9647Y4698D01*
G01X9656Y4693D01*
G01X9663Y4690D01*
G01X9670Y4688D01*
G01X9677Y4687D01*
G01X9683Y4687D01*
G01X9689Y4689D01*
G01X9694Y4691D01*
G01X9699Y4694D01*
G01X9704Y4698D01*
G01X9708Y4702D01*
G01X9714Y4712D01*
G01X9719Y4723D01*
G01X9731Y4745D01*
G01X9738Y4755D01*
G01X9754Y4773D01*
G01X9772Y4789D01*
G01X9777Y4793D01*
G01X9781Y4798D01*
G01X9784Y4803D01*
G01X9788Y4815D01*
G01X9788Y4826D01*
G01X9787Y4832D01*
G01X9785Y4837D01*
G01X9779Y4847D01*
G01X9774Y4851D01*
G01X9770Y4854D01*
G01X9765Y4857D01*
G01X9760Y4859D01*
G01X9748Y4861D01*
G37*

%LPD*%
G36*
G01X11275Y5344D02*
G01X11261Y5344D01*
G01X11254Y5342D01*
G01X11232Y5334D01*
G01X11222Y5330D01*
G01X11217Y5327D01*
G01X11213Y5323D01*
G01X11209Y5318D01*
G01X11206Y5313D01*
G01X11204Y5308D01*
G01X11203Y5302D01*
G01X11197Y5278D01*
G01X11193Y5266D01*
G01X11188Y5254D01*
G01X11182Y5243D01*
G01X11175Y5232D01*
G01X11168Y5222D01*
G01X11160Y5213D01*
G01X11151Y5203D01*
G01X11142Y5195D01*
G01X11127Y5183D01*
G01X11123Y5178D01*
G01X11120Y5173D01*
G01X11117Y5167D01*
G01X11115Y5155D01*
G01X11116Y5146D01*
G01X11119Y5132D01*
G01X11121Y5118D01*
G01X11121Y5089D01*
G01X11120Y5086D01*
G01X11121Y5080D01*
G01X11122Y5075D01*
G01X11124Y5069D01*
G01X11127Y5064D01*
G01X11130Y5060D01*
G01X11134Y5056D01*
G01X11139Y5052D01*
G01X11149Y5048D01*
G01X11155Y5046D01*
G01X11224Y5046D01*
G01X11246Y5044D01*
G01X11257Y5042D01*
G01X11268Y5039D01*
G01X11288Y5031D01*
G01X11298Y5025D01*
G01X11307Y5019D01*
G01X11316Y5012D01*
G01X11324Y5005D01*
G01X11555Y4774D01*
G01X11644Y4684D01*
G01X11649Y4680D01*
G01X11654Y4677D01*
G01X11660Y4674D01*
G01X11666Y4673D01*
G01X11727Y4673D01*
G01X11732Y4674D01*
G01X11738Y4676D01*
G01X11743Y4679D01*
G01X11747Y4682D01*
G01X11751Y4686D01*
G01X11755Y4691D01*
G01X11758Y4696D01*
G01X11760Y4701D01*
G01X11761Y4707D01*
G01X11761Y4716D01*
G01X11760Y4734D01*
G01X11761Y4746D01*
G01X11762Y4759D01*
G01X11764Y4771D01*
G01X11767Y4784D01*
G01X11768Y4789D01*
G01X11769Y4795D01*
G01X11769Y4799D01*
G01X11768Y4813D01*
G01X11768Y5151D01*
G01X11766Y5163D01*
G01X11764Y5169D01*
G01X11756Y5179D01*
G01X11673Y5263D01*
G01X11668Y5267D01*
G01X11663Y5270D01*
G01X11657Y5273D01*
G01X11651Y5274D01*
G01X11638Y5274D01*
G01X11633Y5273D01*
G01X11627Y5271D01*
G01X11622Y5268D01*
G01X11618Y5264D01*
G01X11613Y5260D01*
G01X11597Y5242D01*
G01X11588Y5235D01*
G01X11578Y5227D01*
G01X11568Y5221D01*
G01X11557Y5215D01*
G01X11535Y5205D01*
G01X11524Y5202D01*
G01X11512Y5199D01*
G01X11500Y5197D01*
G01X11476Y5195D01*
G01X11464Y5196D01*
G01X11451Y5197D01*
G01X11439Y5199D01*
G01X11427Y5202D01*
G01X11415Y5206D01*
G01X11404Y5210D01*
G01X11382Y5222D01*
G01X11362Y5236D01*
G01X11353Y5245D01*
G01X11344Y5253D01*
G01X11336Y5263D01*
G01X11322Y5283D01*
G01X11316Y5294D01*
G01X11311Y5305D01*
G01X11307Y5317D01*
G01X11304Y5323D01*
G01X11301Y5328D01*
G01X11297Y5333D01*
G01X11292Y5337D01*
G01X11287Y5340D01*
G01X11275Y5344D01*
G37*

%LPD*%
G36*
G01X5963Y4727D02*
G01X5951Y4729D01*
G01X5946Y4728D01*
G01X5940Y4727D01*
G01X5935Y4725D01*
G01X5925Y4719D01*
G01X5921Y4715D01*
G01X5915Y4705D01*
G01X5913Y4700D01*
G01X5912Y4694D01*
G01X5911Y4689D01*
G01X5912Y4682D01*
G01X5913Y4676D01*
G01X5916Y4671D01*
G01X5919Y4665D01*
G01X5923Y4660D01*
G01X5928Y4656D01*
G01X5933Y4653D01*
G01X5945Y4647D01*
G01X5956Y4639D01*
G01X5966Y4631D01*
G01X5976Y4622D01*
G01X5985Y4613D01*
G01X5994Y4603D01*
G01X6008Y4581D01*
G01X6014Y4569D01*
G01X6017Y4564D01*
G01X6020Y4560D01*
G01X6024Y4556D01*
G01X6029Y4552D01*
G01X6039Y4548D01*
G01X6045Y4546D01*
G01X6051Y4546D01*
G01X6061Y4547D01*
G01X6073Y4550D01*
G01X6086Y4552D01*
G01X6652Y4552D01*
G01X6664Y4554D01*
G01X6670Y4556D01*
G01X6675Y4559D01*
G01X6680Y4563D01*
G01X6696Y4577D01*
G01X6705Y4582D01*
G01X6725Y4592D01*
G01X6745Y4598D01*
G01X6755Y4600D01*
G01X6777Y4602D01*
G01X6902Y4602D01*
G01X6908Y4603D01*
G01X6913Y4605D01*
G01X6923Y4611D01*
G01X6927Y4615D01*
G01X6933Y4625D01*
G01X6935Y4630D01*
G01X6936Y4636D01*
G01X6936Y4648D01*
G01X6932Y4660D01*
G01X6929Y4665D01*
G01X6925Y4670D01*
G01X6885Y4710D01*
G01X6880Y4714D01*
G01X6875Y4717D01*
G01X6863Y4721D01*
G01X6003Y4721D01*
G01X5989Y4722D01*
G01X5976Y4724D01*
G01X5963Y4727D01*
G37*

%LPD*%
G36*
G01X3643Y5619D02*
G01X3030Y5619D01*
G01X3018Y5617D01*
G01X3013Y5615D01*
G01X3003Y5609D01*
G01X2999Y5605D01*
G01X2993Y5595D01*
G01X2991Y5590D01*
G01X2990Y5584D01*
G01X2990Y5579D01*
G01X2991Y5570D01*
G01X2992Y5563D01*
G01X2994Y5557D01*
G01X2996Y5552D01*
G01X2999Y5546D01*
G01X3981Y4564D01*
G01X3986Y4560D01*
G01X3991Y4557D01*
G01X3997Y4554D01*
G01X4009Y4552D01*
G01X5220Y4552D01*
G01X5231Y4551D01*
G01X5253Y4545D01*
G01X5263Y4542D01*
G01X5283Y4532D01*
G01X5292Y4525D01*
G01X5301Y4519D01*
G01X5383Y4437D01*
G01X5388Y4433D01*
G01X5393Y4430D01*
G01X5399Y4427D01*
G01X5411Y4425D01*
G01X5632Y4425D01*
G01X5644Y4427D01*
G01X5649Y4429D01*
G01X5654Y4432D01*
G01X5658Y4435D01*
G01X5662Y4439D01*
G01X5666Y4444D01*
G01X5669Y4449D01*
G01X5671Y4454D01*
G01X5672Y4460D01*
G01X5672Y4470D01*
G01X5671Y4493D01*
G01X5671Y4505D01*
G01X5672Y4517D01*
G01X5674Y4529D01*
G01X5677Y4541D01*
G01X5681Y4553D01*
G01X5685Y4564D01*
G01X5691Y4576D01*
G01X5697Y4586D01*
G01X5704Y4597D01*
G01X5711Y4606D01*
G01X5719Y4616D01*
G01X5728Y4624D01*
G01X5737Y4633D01*
G01X5757Y4647D01*
G01X5768Y4653D01*
G01X5779Y4658D01*
G01X5791Y4663D01*
G01X5802Y4666D01*
G01X5814Y4669D01*
G01X5826Y4671D01*
G01X5839Y4673D01*
G01X5868Y4673D01*
G01X5874Y4674D01*
G01X5879Y4676D01*
G01X5889Y4682D01*
G01X5893Y4686D01*
G01X5899Y4696D01*
G01X5901Y4701D01*
G01X5903Y4713D01*
G01X5902Y4718D01*
G01X5901Y4724D01*
G01X5899Y4729D01*
G01X5893Y4739D01*
G01X5889Y4743D01*
G01X5879Y4749D01*
G01X5857Y4761D01*
G01X5847Y4768D01*
G01X5837Y4776D01*
G01X5819Y4794D01*
G01X5811Y4804D01*
G01X5797Y4826D01*
G01X5792Y4837D01*
G01X5787Y4849D01*
G01X5783Y4861D01*
G01X5780Y4873D01*
G01X5778Y4886D01*
G01X5776Y4898D01*
G01X5776Y4923D01*
G01X5777Y4935D01*
G01X5780Y4948D01*
G01X5783Y4959D01*
G01X5786Y4971D01*
G01X5791Y4983D01*
G01X5796Y4994D01*
G01X5802Y5004D01*
G01X5809Y5015D01*
G01X5816Y5024D01*
G01X5825Y5034D01*
G01X5833Y5042D01*
G01X5843Y5050D01*
G01X5863Y5064D01*
G01X5868Y5068D01*
G01X5876Y5076D01*
G01X5879Y5081D01*
G01X5881Y5087D01*
G01X5882Y5093D01*
G01X5882Y5104D01*
G01X5881Y5110D01*
G01X5879Y5115D01*
G01X5873Y5125D01*
G01X5869Y5129D01*
G01X5859Y5135D01*
G01X5854Y5137D01*
G01X5842Y5139D01*
G01X5028Y5139D01*
G01X5015Y5141D01*
G01X5003Y5144D01*
G01X4991Y5148D01*
G01X4984Y5150D01*
G01X4970Y5150D01*
G01X4964Y5148D01*
G01X4959Y5146D01*
G01X4953Y5143D01*
G01X4945Y5135D01*
G01X4941Y5130D01*
G01X4935Y5119D01*
G01X4928Y5109D01*
G01X4921Y5100D01*
G01X4913Y5091D01*
G01X4904Y5082D01*
G01X4895Y5075D01*
G01X4885Y5067D01*
G01X4875Y5061D01*
G01X4864Y5055D01*
G01X4853Y5050D01*
G01X4831Y5042D01*
G01X4819Y5039D01*
G01X4807Y5037D01*
G01X4795Y5036D01*
G01X4771Y5036D01*
G01X4758Y5037D01*
G01X4746Y5039D01*
G01X4734Y5042D01*
G01X4723Y5046D01*
G01X4711Y5051D01*
G01X4700Y5056D01*
G01X4689Y5062D01*
G01X4669Y5076D01*
G01X4660Y5084D01*
G01X4651Y5093D01*
G01X4643Y5102D01*
G01X4629Y5122D01*
G01X4623Y5133D01*
G01X4618Y5144D01*
G01X4613Y5156D01*
G01X4609Y5167D01*
G01X4606Y5179D01*
G01X4604Y5191D01*
G01X4603Y5204D01*
G01X4603Y5231D01*
G01X4605Y5245D01*
G01X4608Y5259D01*
G01X4609Y5269D01*
G01X4609Y5275D01*
G01X4605Y5287D01*
G01X4597Y5297D01*
G01X4466Y5429D01*
G01X4461Y5433D01*
G01X4455Y5436D01*
G01X4450Y5439D01*
G01X4444Y5440D01*
G01X4437Y5441D01*
G01X4134Y5441D01*
G01X4123Y5442D01*
G01X4112Y5444D01*
G01X4102Y5447D01*
G01X4091Y5451D01*
G01X4082Y5455D01*
G01X4072Y5461D01*
G01X4054Y5473D01*
G01X4049Y5477D01*
G01X4042Y5480D01*
G01X4036Y5482D01*
G01X4029Y5483D01*
G01X4017Y5481D01*
G01X4012Y5479D01*
G01X4002Y5473D01*
G01X3998Y5469D01*
G01X3992Y5459D01*
G01X3990Y5454D01*
G01X3989Y5448D01*
G01X3989Y5433D01*
G01X3988Y5420D01*
G01X3987Y5408D01*
G01X3985Y5396D01*
G01X3982Y5384D01*
G01X3978Y5372D01*
G01X3974Y5361D01*
G01X3969Y5350D01*
G01X3963Y5339D01*
G01X3956Y5329D01*
G01X3948Y5319D01*
G01X3932Y5301D01*
G01X3922Y5293D01*
G01X3913Y5285D01*
G01X3902Y5279D01*
G01X3891Y5272D01*
G01X3880Y5267D01*
G01X3869Y5263D01*
G01X3857Y5259D01*
G01X3845Y5256D01*
G01X3833Y5254D01*
G01X3809Y5252D01*
G01X3796Y5253D01*
G01X3784Y5254D01*
G01X3772Y5256D01*
G01X3760Y5259D01*
G01X3748Y5263D01*
G01X3737Y5267D01*
G01X3726Y5272D01*
G01X3715Y5279D01*
G01X3705Y5285D01*
G01X3685Y5301D01*
G01X3669Y5319D01*
G01X3661Y5329D01*
G01X3654Y5339D01*
G01X3648Y5350D01*
G01X3643Y5361D01*
G01X3639Y5372D01*
G01X3635Y5384D01*
G01X3632Y5396D01*
G01X3630Y5408D01*
G01X3629Y5420D01*
G01X3628Y5433D01*
G01X3630Y5459D01*
G01X3632Y5471D01*
G01X3636Y5484D01*
G01X3640Y5496D01*
G01X3645Y5508D01*
G01X3651Y5520D01*
G01X3665Y5542D01*
G01X3677Y5557D01*
G01X3680Y5562D01*
G01X3682Y5567D01*
G01X3683Y5573D01*
G01X3683Y5584D01*
G01X3682Y5590D01*
G01X3680Y5595D01*
G01X3674Y5605D01*
G01X3670Y5609D01*
G01X3660Y5615D01*
G01X3655Y5617D01*
G01X3643Y5619D01*
G37*

%LPD*%
G36*
G01X8007Y4270D02*
G01X7577Y4270D01*
G01X7565Y4266D01*
G01X7560Y4263D01*
G01X7555Y4259D01*
G01X7433Y4137D01*
G01X7429Y4132D01*
G01X7425Y4126D01*
G01X7423Y4121D01*
G01X7422Y4115D01*
G01X7421Y4108D01*
G01X7422Y4103D01*
G01X7423Y4097D01*
G01X7427Y4087D01*
G01X7431Y4082D01*
G01X7435Y4078D01*
G01X7439Y4075D01*
G01X7444Y4072D01*
G01X7450Y4070D01*
G01X7455Y4069D01*
G01X7461Y4068D01*
G01X7977Y4068D01*
G01X7982Y4069D01*
G01X7988Y4070D01*
G01X7993Y4072D01*
G01X8003Y4078D01*
G01X8007Y4082D01*
G01X8013Y4092D01*
G01X8015Y4097D01*
G01X8016Y4103D01*
G01X8017Y4108D01*
G01X8016Y4112D01*
G01X8016Y4139D01*
G01X8018Y4152D01*
G01X8020Y4164D01*
G01X8023Y4176D01*
G01X8031Y4200D01*
G01X8037Y4211D01*
G01X8040Y4217D01*
G01X8041Y4224D01*
G01X8042Y4230D01*
G01X8040Y4242D01*
G01X8038Y4247D01*
G01X8035Y4252D01*
G01X8032Y4256D01*
G01X8028Y4261D01*
G01X8018Y4267D01*
G01X8013Y4269D01*
G01X8007Y4270D01*
G37*

%LPD*%
G36*
G01X4234Y3666D02*
G01X4222Y3666D01*
G01X4216Y3665D01*
G01X4210Y3662D01*
G01X4205Y3659D01*
G01X4200Y3655D01*
G01X4196Y3651D01*
G01X4195Y3649D01*
G01X4191Y3644D01*
G01X4189Y3638D01*
G01X4187Y3631D01*
G01X4187Y3619D01*
G01X4188Y3613D01*
G01X4190Y3608D01*
G01X4193Y3602D01*
G01X4194Y3601D01*
G01X4198Y3596D01*
G01X4202Y3592D01*
G01X4206Y3589D01*
G01X4211Y3586D01*
G01X4217Y3584D01*
G01X4222Y3583D01*
G01X4228Y3582D01*
G01X4234Y3583D01*
G01X4239Y3584D01*
G01X4245Y3586D01*
G01X4250Y3589D01*
G01X4254Y3592D01*
G01X4258Y3596D01*
G01X4262Y3601D01*
G01X4266Y3611D01*
G01X4267Y3617D01*
G01X4268Y3622D01*
G01X4268Y3626D01*
G01X4266Y3638D01*
G01X4262Y3648D01*
G01X4258Y3653D01*
G01X4254Y3657D01*
G01X4250Y3660D01*
G01X4245Y3663D01*
G01X4239Y3665D01*
G01X4234Y3666D01*
G37*

%LPD*%
G36*
G01X12072Y3519D02*
G01X11922Y3519D01*
G01X11916Y3518D01*
G01X11911Y3517D01*
G01X11905Y3515D01*
G01X11900Y3512D01*
G01X11896Y3509D01*
G01X11892Y3505D01*
G01X11888Y3500D01*
G01X11885Y3495D01*
G01X11883Y3490D01*
G01X11882Y3484D01*
G01X11882Y3475D01*
G01X11883Y3460D01*
G01X11882Y3445D01*
G01X11882Y3436D01*
G01X11883Y3431D01*
G01X11885Y3425D01*
G01X11888Y3420D01*
G01X11900Y3408D01*
G01X11905Y3405D01*
G01X11911Y3403D01*
G01X11916Y3402D01*
G01X12114Y3402D01*
G01X12120Y3403D01*
G01X12125Y3405D01*
G01X12130Y3408D01*
G01X12135Y3412D01*
G01X12139Y3416D01*
G01X12142Y3420D01*
G01X12145Y3425D01*
G01X12147Y3431D01*
G01X12148Y3436D01*
G01X12149Y3442D01*
G01X12147Y3454D01*
G01X12144Y3460D01*
G01X12141Y3465D01*
G01X12137Y3470D01*
G01X12096Y3511D01*
G01X12084Y3517D01*
G01X12072Y3519D01*
G37*

%LPD*%
G36*
G01X11302Y3898D02*
G01X11081Y3898D01*
G01X11069Y3896D01*
G01X11059Y3892D01*
G01X11054Y3888D01*
G01X11050Y3884D01*
G01X11047Y3880D01*
G01X11044Y3875D01*
G01X11042Y3869D01*
G01X11041Y3864D01*
G01X11041Y3833D01*
G01X11042Y3828D01*
G01X11043Y3822D01*
G01X11045Y3817D01*
G01X11051Y3807D01*
G01X11055Y3803D01*
G01X11065Y3797D01*
G01X11070Y3795D01*
G01X11076Y3794D01*
G01X11081Y3793D01*
G01X11085Y3794D01*
G01X11112Y3794D01*
G01X11136Y3790D01*
G01X11160Y3784D01*
G01X11171Y3779D01*
G01X11183Y3774D01*
G01X11193Y3768D01*
G01X11204Y3761D01*
G01X11213Y3754D01*
G01X11223Y3746D01*
G01X11231Y3737D01*
G01X11240Y3728D01*
G01X11254Y3708D01*
G01X11260Y3697D01*
G01X11265Y3686D01*
G01X11270Y3674D01*
G01X11276Y3650D01*
G01X11280Y3626D01*
G01X11280Y3601D01*
G01X11278Y3589D01*
G01X11278Y3578D01*
G01X11282Y3566D01*
G01X11285Y3561D01*
G01X11289Y3556D01*
G01X11293Y3552D01*
G01X11298Y3549D01*
G01X11304Y3546D01*
G01X11315Y3542D01*
G01X11325Y3536D01*
G01X11345Y3522D01*
G01X11353Y3514D01*
G01X11454Y3414D01*
G01X11459Y3409D01*
G01X11464Y3406D01*
G01X11476Y3402D01*
G01X11488Y3402D01*
G01X11494Y3403D01*
G01X11499Y3405D01*
G01X11504Y3408D01*
G01X11509Y3412D01*
G01X11513Y3416D01*
G01X11516Y3420D01*
G01X11519Y3425D01*
G01X11521Y3431D01*
G01X11522Y3436D01*
G01X11523Y3442D01*
G01X11522Y3445D01*
G01X11522Y3473D01*
G01X11524Y3486D01*
G01X11526Y3498D01*
G01X11529Y3511D01*
G01X11533Y3523D01*
G01X11538Y3534D01*
G01X11544Y3546D01*
G01X11550Y3557D01*
G01X11557Y3567D01*
G01X11565Y3577D01*
G01X11574Y3587D01*
G01X11578Y3592D01*
G01X11581Y3597D01*
G01X11585Y3609D01*
G01X11585Y3621D01*
G01X11581Y3633D01*
G01X11578Y3638D01*
G01X11574Y3643D01*
G01X11331Y3886D01*
G01X11321Y3894D01*
G01X11315Y3896D01*
G01X11309Y3897D01*
G01X11302Y3898D01*
G37*

%LPD*%
G36*
G01X5981Y3888D02*
G01X5969Y3888D01*
G01X5957Y3884D01*
G01X5952Y3881D01*
G01X5947Y3877D01*
G01X5943Y3872D01*
G01X5937Y3862D01*
G01X5933Y3850D01*
G01X5928Y3839D01*
G01X5922Y3828D01*
G01X5915Y3818D01*
G01X5907Y3808D01*
G01X5891Y3790D01*
G01X5871Y3774D01*
G01X5861Y3768D01*
G01X5850Y3761D01*
G01X5839Y3756D01*
G01X5828Y3752D01*
G01X5816Y3748D01*
G01X5804Y3745D01*
G01X5792Y3743D01*
G01X5780Y3742D01*
G01X5767Y3741D01*
G01X5755Y3742D01*
G01X5742Y3743D01*
G01X5730Y3745D01*
G01X5717Y3748D01*
G01X5705Y3752D01*
G01X5683Y3762D01*
G01X5672Y3769D01*
G01X5665Y3772D01*
G01X5658Y3774D01*
G01X5650Y3775D01*
G01X5644Y3774D01*
G01X5639Y3773D01*
G01X5633Y3771D01*
G01X5628Y3768D01*
G01X5623Y3764D01*
G01X5613Y3755D01*
G01X5589Y3739D01*
G01X5576Y3733D01*
G01X5563Y3728D01*
G01X5557Y3725D01*
G01X5552Y3722D01*
G01X5548Y3718D01*
G01X5544Y3713D01*
G01X5541Y3708D01*
G01X5538Y3702D01*
G01X5537Y3696D01*
G01X5537Y3684D01*
G01X5541Y3672D01*
G01X5544Y3666D01*
G01X5877Y3333D01*
G01X5887Y3325D01*
G01X5893Y3323D01*
G01X5905Y3321D01*
G01X5917Y3323D01*
G01X5927Y3327D01*
G01X5932Y3331D01*
G01X5936Y3335D01*
G01X5939Y3339D01*
G01X5942Y3344D01*
G01X5944Y3350D01*
G01X5945Y3355D01*
G01X5945Y3371D01*
G01X5947Y3395D01*
G01X5949Y3407D01*
G01X5952Y3419D01*
G01X5960Y3443D01*
G01X5965Y3454D01*
G01X5972Y3465D01*
G01X5978Y3475D01*
G01X5986Y3485D01*
G01X5994Y3494D01*
G01X6003Y3503D01*
G01X6012Y3511D01*
G01X6032Y3525D01*
G01X6043Y3531D01*
G01X6065Y3541D01*
G01X6089Y3547D01*
G01X6113Y3551D01*
G01X6138Y3551D01*
G01X6162Y3547D01*
G01X6186Y3541D01*
G01X6197Y3536D01*
G01X6209Y3531D01*
G01X6219Y3525D01*
G01X6230Y3518D01*
G01X6239Y3511D01*
G01X6249Y3503D01*
G01X6257Y3494D01*
G01X6266Y3485D01*
G01X6280Y3465D01*
G01X6286Y3454D01*
G01X6291Y3443D01*
G01X6296Y3431D01*
G01X6302Y3407D01*
G01X6306Y3383D01*
G01X6306Y3371D01*
G01X6305Y3357D01*
G01X6304Y3344D01*
G01X6303Y3338D01*
G01X6304Y3332D01*
G01X6305Y3327D01*
G01X6307Y3321D01*
G01X6310Y3316D01*
G01X6313Y3312D01*
G01X6317Y3308D01*
G01X6322Y3304D01*
G01X6332Y3300D01*
G01X6338Y3298D01*
G01X6491Y3298D01*
G01X6497Y3300D01*
G01X6507Y3304D01*
G01X6512Y3308D01*
G01X6516Y3312D01*
G01X6519Y3316D01*
G01X6522Y3321D01*
G01X6524Y3327D01*
G01X6525Y3332D01*
G01X6526Y3338D01*
G01X6524Y3350D01*
G01X6521Y3356D01*
G01X6518Y3361D01*
G01X6514Y3366D01*
G01X5999Y3881D01*
G01X5993Y3884D01*
G01X5981Y3888D01*
G37*

%LPD*%
G36*
G01X12244Y3120D02*
G01X12140Y3120D01*
G01X12135Y3119D01*
G01X12129Y3118D01*
G01X12124Y3116D01*
G01X12114Y3110D01*
G01X12110Y3106D01*
G01X12104Y3096D01*
G01X12102Y3091D01*
G01X12101Y3085D01*
G01X12100Y3080D01*
G01X12100Y3076D01*
G01X12101Y3059D01*
G01X12101Y3046D01*
G01X12099Y3034D01*
G01X12099Y3028D01*
G01X12100Y3022D01*
G01X12101Y3017D01*
G01X12103Y3011D01*
G01X12105Y3006D01*
G01X12117Y2994D01*
G01X12122Y2992D01*
G01X12128Y2990D01*
G01X12133Y2988D01*
G01X12337Y2988D01*
G01X12343Y2990D01*
G01X12353Y2994D01*
G01X12365Y3006D01*
G01X12368Y3011D01*
G01X12370Y3017D01*
G01X12371Y3022D01*
G01X12371Y3034D01*
G01X12370Y3040D01*
G01X12367Y3045D01*
G01X12365Y3050D01*
G01X12361Y3055D01*
G01X12357Y3059D01*
G01X12347Y3065D01*
G01X12341Y3067D01*
G01X12331Y3070D01*
G01X12321Y3074D01*
G01X12312Y3078D01*
G01X12302Y3084D01*
G01X12293Y3090D01*
G01X12285Y3096D01*
G01X12277Y3103D01*
G01X12273Y3108D01*
G01X12268Y3112D01*
G01X12263Y3115D01*
G01X12257Y3118D01*
G01X12251Y3119D01*
G01X12244Y3120D01*
G37*

%LPD*%
G36*
G01X11702Y3120D02*
G01X11618Y3120D01*
G01X11612Y3119D01*
G01X11607Y3118D01*
G01X11601Y3116D01*
G01X11596Y3113D01*
G01X11592Y3110D01*
G01X11588Y3106D01*
G01X11584Y3101D01*
G01X11580Y3091D01*
G01X11578Y3085D01*
G01X11578Y3080D01*
G01X11579Y3074D01*
G01X11580Y3067D01*
G01X11582Y3062D01*
G01X11586Y3056D01*
G01X11646Y2996D01*
G01X11652Y2992D01*
G01X11664Y2988D01*
G01X11708Y2988D01*
G01X11714Y2990D01*
G01X11724Y2994D01*
G01X11729Y2998D01*
G01X11733Y3002D01*
G01X11736Y3006D01*
G01X11739Y3011D01*
G01X11741Y3017D01*
G01X11742Y3022D01*
G01X11743Y3028D01*
G01X11742Y3034D01*
G01X11741Y3046D01*
G01X11741Y3076D01*
G01X11742Y3080D01*
G01X11741Y3085D01*
G01X11740Y3091D01*
G01X11738Y3096D01*
G01X11732Y3106D01*
G01X11728Y3110D01*
G01X11718Y3116D01*
G01X11713Y3118D01*
G01X11707Y3119D01*
G01X11702Y3120D01*
G37*

%LPD*%
G36*
G01X10746Y3226D02*
G01X10734Y3226D01*
G01X10728Y3224D01*
G01X10723Y3222D01*
G01X10713Y3216D01*
G01X10709Y3211D01*
G01X10706Y3207D01*
G01X10703Y3201D01*
G01X10698Y3190D01*
G01X10692Y3180D01*
G01X10686Y3169D01*
G01X10678Y3159D01*
G01X10671Y3150D01*
G01X10662Y3141D01*
G01X10653Y3133D01*
G01X10649Y3129D01*
G01X10645Y3124D01*
G01X10642Y3119D01*
G01X10640Y3114D01*
G01X10639Y3108D01*
G01X10639Y3096D01*
G01X10643Y3084D01*
G01X10646Y3079D01*
G01X10650Y3074D01*
G01X10774Y2950D01*
G01X10779Y2946D01*
G01X10785Y2943D01*
G01X10790Y2940D01*
G01X10797Y2939D01*
G01X10803Y2938D01*
G01X10908Y2938D01*
G01X10914Y2939D01*
G01X10919Y2940D01*
G01X10925Y2942D01*
G01X10930Y2945D01*
G01X10934Y2948D01*
G01X10938Y2952D01*
G01X10942Y2957D01*
G01X10946Y2967D01*
G01X10948Y2973D01*
G01X10948Y2978D01*
G01X10947Y2985D01*
G01X10946Y2991D01*
G01X10942Y3005D01*
G01X10939Y3019D01*
G01X10937Y3033D01*
G01X10937Y3048D01*
G01X10938Y3071D01*
G01X10939Y3076D01*
G01X10937Y3088D01*
G01X10934Y3094D01*
G01X10931Y3099D01*
G01X10927Y3104D01*
G01X10922Y3108D01*
G01X10917Y3111D01*
G01X10911Y3114D01*
G01X10905Y3115D01*
G01X10894Y3117D01*
G01X10884Y3120D01*
G01X10873Y3124D01*
G01X10863Y3129D01*
G01X10854Y3134D01*
G01X10845Y3140D01*
G01X10836Y3147D01*
G01X10828Y3155D01*
G01X10768Y3214D01*
G01X10764Y3218D01*
G01X10758Y3222D01*
G01X10746Y3226D01*
G37*

%LPD*%
G36*
G01X11287Y2945D02*
G01X11275Y2945D01*
G01X11269Y2944D01*
G01X11264Y2942D01*
G01X11259Y2939D01*
G01X11254Y2935D01*
G01X11250Y2931D01*
G01X11244Y2924D01*
G01X11240Y2919D01*
G01X11237Y2914D01*
G01X11234Y2908D01*
G01X11233Y2902D01*
G01X11233Y2890D01*
G01X11237Y2878D01*
G01X11240Y2873D01*
G01X11244Y2868D01*
G01X11272Y2840D01*
G01X11277Y2836D01*
G01X11283Y2832D01*
G01X11288Y2830D01*
G01X11295Y2828D01*
G01X11324Y2828D01*
G01X11329Y2830D01*
G01X11335Y2832D01*
G01X11340Y2834D01*
G01X11352Y2846D01*
G01X11354Y2851D01*
G01X11356Y2857D01*
G01X11358Y2862D01*
G01X11358Y2868D01*
G01X11356Y2880D01*
G01X11354Y2886D01*
G01X11350Y2892D01*
G01X11346Y2896D01*
G01X11309Y2934D01*
G01X11304Y2938D01*
G01X11299Y2941D01*
G01X11287Y2945D01*
G37*

%LPD*%
G36*
G01X2674Y5406D02*
G01X2662Y5406D01*
G01X2650Y5402D01*
G01X2644Y5398D01*
G01X2640Y5394D01*
G01X2632Y5384D01*
G01X2626Y5372D01*
G01X2620Y5362D01*
G01X2612Y5351D01*
G01X2596Y5333D01*
G01X2586Y5324D01*
G01X2576Y5316D01*
G01X2566Y5309D01*
G01X2544Y5297D01*
G01X2520Y5289D01*
G01X2508Y5286D01*
G01X2495Y5284D01*
G01X2483Y5282D01*
G01X2455Y5282D01*
G01X2452Y5283D01*
G01X2440Y5281D01*
G01X2435Y5279D01*
G01X2425Y5273D01*
G01X2421Y5269D01*
G01X2415Y5259D01*
G01X2413Y5254D01*
G01X2412Y5248D01*
G01X2412Y4185D01*
G01X2416Y4173D01*
G01X2419Y4168D01*
G01X2423Y4163D01*
G01X4204Y2382D01*
G01X4210Y2379D01*
G01X4222Y2375D01*
G01X4234Y2375D01*
G01X4239Y2376D01*
G01X4245Y2378D01*
G01X4250Y2381D01*
G01X4262Y2393D01*
G01X4264Y2398D01*
G01X4266Y2404D01*
G01X4267Y2409D01*
G01X4268Y2415D01*
G01X4268Y3384D01*
G01X4266Y3396D01*
G01X4262Y3406D01*
G01X4258Y3411D01*
G01X4254Y3415D01*
G01X4250Y3418D01*
G01X4245Y3421D01*
G01X4239Y3423D01*
G01X4234Y3424D01*
G01X4222Y3424D01*
G01X4217Y3423D01*
G01X4211Y3421D01*
G01X4206Y3418D01*
G01X4202Y3415D01*
G01X4198Y3411D01*
G01X4194Y3406D01*
G01X4187Y3396D01*
G01X4179Y3386D01*
G01X4161Y3368D01*
G01X4151Y3360D01*
G01X4141Y3353D01*
G01X4119Y3341D01*
G01X4107Y3336D01*
G01X4095Y3332D01*
G01X4083Y3329D01*
G01X4057Y3325D01*
G01X4033Y3325D01*
G01X4009Y3329D01*
G01X3985Y3335D01*
G01X3963Y3345D01*
G01X3952Y3351D01*
G01X3932Y3365D01*
G01X3923Y3373D01*
G01X3914Y3382D01*
G01X3906Y3391D01*
G01X3892Y3411D01*
G01X3886Y3421D01*
G01X3881Y3432D01*
G01X3877Y3444D01*
G01X3873Y3455D01*
G01X3870Y3467D01*
G01X3868Y3479D01*
G01X3866Y3503D01*
G01X3867Y3517D01*
G01X3868Y3530D01*
G01X3871Y3543D01*
G01X3874Y3555D01*
G01X3878Y3568D01*
G01X3890Y3592D01*
G01X3897Y3603D01*
G01X3904Y3613D01*
G01X3908Y3619D01*
G01X3911Y3625D01*
G01X3912Y3632D01*
G01X3913Y3638D01*
G01X3911Y3650D01*
G01X3909Y3655D01*
G01X3906Y3660D01*
G01X3899Y3671D01*
G01X3893Y3683D01*
G01X3888Y3695D01*
G01X3884Y3708D01*
G01X3881Y3720D01*
G01X3878Y3733D01*
G01X3876Y3759D01*
G01X3878Y3783D01*
G01X3880Y3795D01*
G01X3886Y3819D01*
G01X3896Y3841D01*
G01X3908Y3861D01*
G01X3916Y3871D01*
G01X3923Y3880D01*
G01X3932Y3889D01*
G01X3941Y3897D01*
G01X3961Y3911D01*
G01X3971Y3917D01*
G01X3993Y3927D01*
G01X3999Y3929D01*
G01X4004Y3933D01*
G01X4012Y3941D01*
G01X4015Y3947D01*
G01X4018Y3952D01*
G01X4019Y3958D01*
G01X4019Y4118D01*
G01X4020Y4129D01*
G01X4021Y4141D01*
G01X4024Y4153D01*
G01X4027Y4164D01*
G01X4037Y4186D01*
G01X4043Y4196D01*
G01X4050Y4205D01*
G01X4054Y4211D01*
G01X4057Y4217D01*
G01X4058Y4224D01*
G01X4059Y4230D01*
G01X4057Y4242D01*
G01X4053Y4252D01*
G01X4049Y4256D01*
G01X4045Y4261D01*
G01X4035Y4267D01*
G01X4030Y4269D01*
G01X4025Y4270D01*
G01X3934Y4270D01*
G01X3912Y4272D01*
G01X3901Y4274D01*
G01X3891Y4277D01*
G01X3880Y4281D01*
G01X3860Y4291D01*
G01X3851Y4297D01*
G01X3843Y4304D01*
G01X3834Y4312D01*
G01X2804Y5342D01*
G01X2794Y5350D01*
G01X2782Y5354D01*
G01X2770Y5356D01*
G01X2759Y5360D01*
G01X2747Y5364D01*
G01X2736Y5369D01*
G01X2714Y5381D01*
G01X2704Y5388D01*
G01X2695Y5396D01*
G01X2690Y5400D01*
G01X2680Y5404D01*
G01X2674Y5406D01*
G37*

%LPD*%
G36*
G01X11047Y2656D02*
G01X10932Y2656D01*
G01X10926Y2655D01*
G01X10921Y2653D01*
G01X10916Y2650D01*
G01X10912Y2647D01*
G01X10908Y2642D01*
G01X10904Y2638D01*
G01X10901Y2633D01*
G01X10899Y2628D01*
G01X10898Y2622D01*
G01X10898Y2610D01*
G01X10900Y2604D01*
G01X10902Y2599D01*
G01X10905Y2593D01*
G01X10912Y2583D01*
G01X10918Y2572D01*
G01X10923Y2561D01*
G01X10927Y2550D01*
G01X10931Y2538D01*
G01X10934Y2526D01*
G01X10936Y2514D01*
G01X10938Y2490D01*
G01X10937Y2477D01*
G01X10937Y2474D01*
G01X10938Y2468D01*
G01X10939Y2463D01*
G01X10941Y2457D01*
G01X10944Y2452D01*
G01X10947Y2448D01*
G01X10951Y2444D01*
G01X10956Y2440D01*
G01X10961Y2437D01*
G01X10966Y2435D01*
G01X10971Y2434D01*
G01X12206Y2434D01*
G01X12228Y2432D01*
G01X12238Y2430D01*
G01X12249Y2427D01*
G01X12259Y2423D01*
G01X12270Y2418D01*
G01X12279Y2413D01*
G01X12288Y2407D01*
G01X12297Y2400D01*
G01X12305Y2393D01*
G01X12315Y2382D01*
G01X12320Y2378D01*
G01X12326Y2375D01*
G01X12331Y2373D01*
G01X12337Y2371D01*
G01X12349Y2371D01*
G01X12355Y2372D01*
G01X12360Y2374D01*
G01X12370Y2380D01*
G01X12374Y2385D01*
G01X12383Y2394D01*
G01X12393Y2403D01*
G01X12403Y2411D01*
G01X12414Y2419D01*
G01X12425Y2426D01*
G01X12449Y2436D01*
G01X12462Y2440D01*
G01X12475Y2443D01*
G01X12481Y2445D01*
G01X12486Y2447D01*
G01X12492Y2451D01*
G01X12496Y2455D01*
G01X12500Y2460D01*
G01X12503Y2465D01*
G01X12505Y2470D01*
G01X12507Y2476D01*
G01X12507Y2489D01*
G01X12503Y2501D01*
G01X12500Y2506D01*
G01X12496Y2511D01*
G01X12472Y2534D01*
G01X12462Y2542D01*
G01X12450Y2546D01*
G01X11213Y2546D01*
G01X11191Y2550D01*
G01X11180Y2553D01*
G01X11160Y2561D01*
G01X11150Y2567D01*
G01X11132Y2579D01*
G01X11113Y2598D01*
G01X11100Y2613D01*
G01X11096Y2617D01*
G01X11069Y2645D01*
G01X11064Y2649D01*
G01X11059Y2652D01*
G01X11047Y2656D01*
G37*

%LPD*%
G36*
G01X6242Y4270D02*
G01X6167Y4270D01*
G01X6155Y4266D01*
G01X6149Y4263D01*
G01X6111Y4225D01*
G01X6107Y4220D01*
G01X6103Y4214D01*
G01X6101Y4209D01*
G01X6099Y4203D01*
G01X6099Y4190D01*
G01X6103Y4178D01*
G01X6111Y4168D01*
G01X6646Y3633D01*
G01X6656Y3625D01*
G01X6662Y3623D01*
G01X6674Y3621D01*
G01X6679Y3621D01*
G01X6702Y3623D01*
G01X6726Y3621D01*
G01X6739Y3619D01*
G01X6750Y3616D01*
G01X6762Y3613D01*
G01X6784Y3603D01*
G01X6795Y3597D01*
G01X6815Y3583D01*
G01X6824Y3575D01*
G01X6833Y3566D01*
G01X6841Y3557D01*
G01X6855Y3537D01*
G01X6861Y3526D01*
G01X6866Y3515D01*
G01X6874Y3493D01*
G01X6877Y3481D01*
G01X6879Y3469D01*
G01X6880Y3457D01*
G01X6881Y3444D01*
G01X6879Y3418D01*
G01X6876Y3406D01*
G01X6873Y3393D01*
G01X6869Y3381D01*
G01X6864Y3369D01*
G01X6855Y3351D01*
G01X6853Y3344D01*
G01X6853Y3332D01*
G01X6857Y3320D01*
G01X6860Y3315D01*
G01X6864Y3310D01*
G01X6868Y3306D01*
G01X6873Y3303D01*
G01X6879Y3300D01*
G01X6885Y3298D01*
G01X6891Y3298D01*
G01X6902Y3297D01*
G01X6914Y3295D01*
G01X6925Y3292D01*
G01X6936Y3288D01*
G01X6956Y3278D01*
G01X6966Y3271D01*
G01X6975Y3264D01*
G01X6983Y3257D01*
G01X7478Y2762D01*
G01X7488Y2754D01*
G01X7494Y2752D01*
G01X7506Y2750D01*
G01X7518Y2752D01*
G01X7528Y2756D01*
G01X7533Y2760D01*
G01X7537Y2764D01*
G01X7540Y2768D01*
G01X7543Y2773D01*
G01X7545Y2779D01*
G01X7546Y2784D01*
G01X7546Y2797D01*
G01X7544Y2804D01*
G01X7535Y2822D01*
G01X7530Y2834D01*
G01X7526Y2846D01*
G01X7522Y2859D01*
G01X7518Y2885D01*
G01X7518Y2910D01*
G01X7522Y2934D01*
G01X7528Y2958D01*
G01X7538Y2980D01*
G01X7544Y2991D01*
G01X7558Y3011D01*
G01X7566Y3020D01*
G01X7593Y3044D01*
G01X7604Y3051D01*
G01X7614Y3057D01*
G01X7625Y3062D01*
G01X7637Y3066D01*
G01X7648Y3070D01*
G01X7660Y3073D01*
G01X7672Y3075D01*
G01X7696Y3077D01*
G01X7708Y3076D01*
G01X7721Y3075D01*
G01X7733Y3073D01*
G01X7744Y3070D01*
G01X7756Y3066D01*
G01X7767Y3062D01*
G01X7778Y3057D01*
G01X7789Y3051D01*
G01X7799Y3044D01*
G01X7809Y3036D01*
G01X7827Y3020D01*
G01X7835Y3011D01*
G01X7849Y2991D01*
G01X7855Y2980D01*
G01X7860Y2969D01*
G01X7864Y2958D01*
G01X7868Y2946D01*
G01X7871Y2934D01*
G01X7873Y2922D01*
G01X7875Y2898D01*
G01X7873Y2874D01*
G01X7871Y2862D01*
G01X7868Y2850D01*
G01X7864Y2838D01*
G01X7860Y2827D01*
G01X7855Y2816D01*
G01X7849Y2805D01*
G01X7842Y2795D01*
G01X7835Y2786D01*
G01X7827Y2776D01*
G01X7809Y2760D01*
G01X7799Y2752D01*
G01X7789Y2746D01*
G01X7767Y2734D01*
G01X7756Y2730D01*
G01X7744Y2726D01*
G01X7733Y2723D01*
G01X7721Y2721D01*
G01X7708Y2720D01*
G01X7683Y2720D01*
G01X7657Y2724D01*
G01X7644Y2727D01*
G01X7620Y2737D01*
G01X7602Y2746D01*
G01X7595Y2748D01*
G01X7583Y2748D01*
G01X7577Y2747D01*
G01X7572Y2745D01*
G01X7562Y2739D01*
G01X7558Y2734D01*
G01X7555Y2730D01*
G01X7552Y2725D01*
G01X7550Y2720D01*
G01X7548Y2708D01*
G01X7550Y2696D01*
G01X7553Y2690D01*
G01X7556Y2685D01*
G01X7560Y2680D01*
G01X7954Y2286D01*
G01X7960Y2283D01*
G01X7972Y2279D01*
G01X9661Y2279D01*
G01X9667Y2280D01*
G01X9672Y2282D01*
G01X9682Y2288D01*
G01X9686Y2292D01*
G01X9692Y2302D01*
G01X9694Y2307D01*
G01X9696Y2319D01*
G01X9695Y2325D01*
G01X9694Y2337D01*
G01X9693Y2343D01*
G01X9689Y2353D01*
G01X9686Y2358D01*
G01X9682Y2362D01*
G01X9677Y2366D01*
G01X9672Y2369D01*
G01X9662Y2373D01*
G01X9656Y2374D01*
G01X9644Y2375D01*
G01X9631Y2377D01*
G01X9619Y2379D01*
G01X9608Y2383D01*
G01X9596Y2387D01*
G01X9585Y2392D01*
G01X9574Y2398D01*
G01X9554Y2412D01*
G01X9544Y2420D01*
G01X9536Y2429D01*
G01X9527Y2438D01*
G01X9513Y2458D01*
G01X9507Y2469D01*
G01X9497Y2491D01*
G01X9493Y2503D01*
G01X9490Y2515D01*
G01X9488Y2527D01*
G01X9487Y2539D01*
G01X9486Y2552D01*
G01X9488Y2576D01*
G01X9490Y2588D01*
G01X9493Y2600D01*
G01X9497Y2612D01*
G01X9501Y2623D01*
G01X9506Y2634D01*
G01X9512Y2644D01*
G01X9519Y2655D01*
G01X9526Y2664D01*
G01X9534Y2674D01*
G01X9552Y2690D01*
G01X9562Y2698D01*
G01X9572Y2704D01*
G01X9583Y2710D01*
G01X9605Y2720D01*
G01X9617Y2724D01*
G01X9629Y2726D01*
G01X9641Y2729D01*
G01X9653Y2730D01*
G01X9677Y2730D01*
G01X9689Y2729D01*
G01X9701Y2727D01*
G01X9712Y2724D01*
G01X9724Y2720D01*
G01X9735Y2716D01*
G01X9746Y2711D01*
G01X9757Y2705D01*
G01X9767Y2698D01*
G01X9776Y2691D01*
G01X9786Y2683D01*
G01X9794Y2675D01*
G01X9802Y2666D01*
G01X9810Y2656D01*
G01X9822Y2636D01*
G01X9828Y2625D01*
G01X9832Y2614D01*
G01X9836Y2602D01*
G01X9839Y2591D01*
G01X9843Y2567D01*
G01X9843Y2561D01*
G01X9845Y2556D01*
G01X9848Y2550D01*
G01X9851Y2546D01*
G01X9855Y2541D01*
G01X9859Y2538D01*
G01X9869Y2532D01*
G01X9875Y2531D01*
G01X9880Y2530D01*
G01X9893Y2529D01*
G01X9905Y2527D01*
G01X9929Y2521D01*
G01X9940Y2517D01*
G01X9973Y2499D01*
G01X9983Y2491D01*
G01X10001Y2475D01*
G01X10009Y2466D01*
G01X10023Y2446D01*
G01X10035Y2424D01*
G01X10039Y2412D01*
G01X10043Y2401D01*
G01X10046Y2389D01*
G01X10048Y2376D01*
G01X10050Y2352D01*
G01X10049Y2338D01*
G01X10048Y2325D01*
G01X10047Y2319D01*
G01X10049Y2307D01*
G01X10051Y2302D01*
G01X10057Y2292D01*
G01X10061Y2288D01*
G01X10071Y2282D01*
G01X10076Y2280D01*
G01X10082Y2279D01*
G01X10396Y2279D01*
G01X10402Y2280D01*
G01X10407Y2282D01*
G01X10417Y2288D01*
G01X10421Y2292D01*
G01X10427Y2302D01*
G01X10429Y2307D01*
G01X10430Y2313D01*
G01X10430Y2325D01*
G01X10426Y2337D01*
G01X10423Y2342D01*
G01X10419Y2347D01*
G01X10387Y2379D01*
G01X10373Y2395D01*
G01X10366Y2405D01*
G01X10361Y2414D01*
G01X10356Y2424D01*
G01X10353Y2435D01*
G01X10350Y2445D01*
G01X10347Y2456D01*
G01X10346Y2467D01*
G01X10346Y2498D01*
G01X10345Y2505D01*
G01X10344Y2511D01*
G01X10341Y2517D01*
G01X10338Y2522D01*
G01X10334Y2527D01*
G01X9860Y3000D01*
G01X9853Y3008D01*
G01X9846Y3017D01*
G01X9840Y3026D01*
G01X9834Y3036D01*
G01X9826Y3056D01*
G01X9823Y3067D01*
G01X9821Y3078D01*
G01X9819Y3100D01*
G01X9819Y3453D01*
G01X9817Y3459D01*
G01X9815Y3464D01*
G01X9812Y3469D01*
G01X9805Y3480D01*
G01X9799Y3490D01*
G01X9794Y3501D01*
G01X9790Y3513D01*
G01X9786Y3524D01*
G01X9783Y3536D01*
G01X9781Y3548D01*
G01X9780Y3560D01*
G01X9780Y3585D01*
G01X9782Y3597D01*
G01X9784Y3610D01*
G01X9787Y3622D01*
G01X9795Y3646D01*
G01X9807Y3668D01*
G01X9814Y3678D01*
G01X9830Y3698D01*
G01X9839Y3706D01*
G01X9859Y3722D01*
G01X9881Y3734D01*
G01X9892Y3739D01*
G01X9904Y3744D01*
G01X9910Y3746D01*
G01X9915Y3749D01*
G01X9924Y3758D01*
G01X9927Y3764D01*
G01X9930Y3769D01*
G01X9931Y3776D01*
G01X9932Y3782D01*
G01X9930Y3794D01*
G01X9927Y3800D01*
G01X9924Y3805D01*
G01X9920Y3810D01*
G01X9472Y4259D01*
G01X9467Y4263D01*
G01X9461Y4266D01*
G01X9456Y4268D01*
G01X9450Y4270D01*
G01X8994Y4270D01*
G01X8988Y4269D01*
G01X8983Y4267D01*
G01X8973Y4261D01*
G01X8969Y4256D01*
G01X8966Y4252D01*
G01X8963Y4247D01*
G01X8961Y4242D01*
G01X8959Y4230D01*
G01X8961Y4218D01*
G01X8963Y4213D01*
G01X8966Y4208D01*
G01X8973Y4198D01*
G01X8983Y4176D01*
G01X8986Y4165D01*
G01X8989Y4153D01*
G01X8991Y4147D01*
G01X8993Y4142D01*
G01X8996Y4136D01*
G01X9000Y4132D01*
G01X9005Y4128D01*
G01X9011Y4125D01*
G01X9016Y4122D01*
G01X9028Y4120D01*
G01X9040Y4122D01*
G01X9046Y4124D01*
G01X9051Y4127D01*
G01X9062Y4134D01*
G01X9086Y4146D01*
G01X9112Y4154D01*
G01X9125Y4156D01*
G01X9151Y4158D01*
G01X9164Y4158D01*
G01X9188Y4154D01*
G01X9212Y4148D01*
G01X9234Y4138D01*
G01X9245Y4132D01*
G01X9265Y4118D01*
G01X9274Y4109D01*
G01X9283Y4101D01*
G01X9291Y4091D01*
G01X9299Y4082D01*
G01X9305Y4071D01*
G01X9311Y4061D01*
G01X9317Y4049D01*
G01X9321Y4038D01*
G01X9325Y4026D01*
G01X9328Y4014D01*
G01X9330Y4002D01*
G01X9332Y3978D01*
G01X9331Y3965D01*
G01X9330Y3953D01*
G01X9328Y3941D01*
G01X9325Y3929D01*
G01X9321Y3917D01*
G01X9317Y3906D01*
G01X9305Y3884D01*
G01X9299Y3874D01*
G01X9291Y3864D01*
G01X9283Y3855D01*
G01X9274Y3846D01*
G01X9265Y3838D01*
G01X9255Y3830D01*
G01X9245Y3824D01*
G01X9234Y3817D01*
G01X9223Y3812D01*
G01X9212Y3808D01*
G01X9200Y3804D01*
G01X9188Y3801D01*
G01X9176Y3799D01*
G01X9164Y3798D01*
G01X9151Y3797D01*
G01X9139Y3798D01*
G01X9126Y3799D01*
G01X9113Y3801D01*
G01X9101Y3804D01*
G01X9089Y3808D01*
G01X9077Y3813D01*
G01X9055Y3825D01*
G01X9044Y3832D01*
G01X9034Y3840D01*
G01X9011Y3863D01*
G01X9006Y3867D01*
G01X9000Y3869D01*
G01X8993Y3871D01*
G01X8986Y3872D01*
G01X8981Y3871D01*
G01X8975Y3870D01*
G01X8970Y3868D01*
G01X8960Y3862D01*
G01X8950Y3852D01*
G01X8499Y3400D01*
G01X8491Y3390D01*
G01X8487Y3378D01*
G01X8487Y3052D01*
G01X8489Y3046D01*
G01X8491Y3041D01*
G01X8494Y3035D01*
G01X8501Y3025D01*
G01X8507Y3015D01*
G01X8512Y3004D01*
G01X8516Y2992D01*
G01X8520Y2981D01*
G01X8523Y2969D01*
G01X8525Y2957D01*
G01X8526Y2945D01*
G01X8526Y2920D01*
G01X8525Y2908D01*
G01X8522Y2896D01*
G01X8520Y2884D01*
G01X8516Y2872D01*
G01X8506Y2850D01*
G01X8500Y2839D01*
G01X8486Y2819D01*
G01X8478Y2810D01*
G01X8469Y2801D01*
G01X8460Y2793D01*
G01X8450Y2785D01*
G01X8440Y2779D01*
G01X8429Y2772D01*
G01X8418Y2767D01*
G01X8406Y2763D01*
G01X8395Y2759D01*
G01X8383Y2756D01*
G01X8370Y2754D01*
G01X8346Y2752D01*
G01X8334Y2753D01*
G01X8321Y2754D01*
G01X8309Y2756D01*
G01X8297Y2759D01*
G01X8286Y2763D01*
G01X8274Y2767D01*
G01X8263Y2772D01*
G01X8252Y2779D01*
G01X8242Y2785D01*
G01X8232Y2793D01*
G01X8223Y2801D01*
G01X8214Y2810D01*
G01X8206Y2819D01*
G01X8192Y2839D01*
G01X8180Y2861D01*
G01X8176Y2872D01*
G01X8172Y2884D01*
G01X8169Y2896D01*
G01X8167Y2908D01*
G01X8166Y2920D01*
G01X8166Y2945D01*
G01X8167Y2957D01*
G01X8169Y2969D01*
G01X8172Y2981D01*
G01X8176Y2992D01*
G01X8180Y3004D01*
G01X8185Y3015D01*
G01X8191Y3025D01*
G01X8198Y3035D01*
G01X8201Y3041D01*
G01X8203Y3046D01*
G01X8205Y3058D01*
G01X8205Y3458D01*
G01X8209Y3480D01*
G01X8212Y3490D01*
G01X8216Y3501D01*
G01X8220Y3511D01*
G01X8226Y3520D01*
G01X8232Y3530D01*
G01X8246Y3546D01*
G01X8418Y3718D01*
G01X8422Y3723D01*
G01X8425Y3728D01*
G01X8428Y3734D01*
G01X8430Y3746D01*
G01X8428Y3758D01*
G01X8426Y3763D01*
G01X8423Y3768D01*
G01X8420Y3772D01*
G01X8416Y3777D01*
G01X8406Y3783D01*
G01X8401Y3785D01*
G01X8395Y3786D01*
G01X8223Y3786D01*
G01X8217Y3785D01*
G01X8212Y3783D01*
G01X8202Y3777D01*
G01X8198Y3772D01*
G01X8195Y3768D01*
G01X8192Y3763D01*
G01X8190Y3758D01*
G01X8188Y3746D01*
G01X8189Y3742D01*
G01X8190Y3722D01*
G01X8188Y3698D01*
G01X8186Y3686D01*
G01X8183Y3674D01*
G01X8179Y3662D01*
G01X8175Y3651D01*
G01X8169Y3639D01*
G01X8163Y3629D01*
G01X8157Y3618D01*
G01X8149Y3609D01*
G01X8141Y3599D01*
G01X8123Y3583D01*
G01X8113Y3575D01*
G01X8103Y3568D01*
G01X8092Y3562D01*
G01X8070Y3552D01*
G01X8046Y3546D01*
G01X8022Y3542D01*
G01X7997Y3542D01*
G01X7973Y3546D01*
G01X7949Y3552D01*
G01X7937Y3557D01*
G01X7926Y3562D01*
G01X7916Y3568D01*
G01X7905Y3575D01*
G01X7895Y3583D01*
G01X7877Y3599D01*
G01X7869Y3609D01*
G01X7862Y3618D01*
G01X7855Y3629D01*
G01X7849Y3639D01*
G01X7844Y3651D01*
G01X7839Y3662D01*
G01X7833Y3686D01*
G01X7829Y3710D01*
G01X7829Y3722D01*
G01X7830Y3742D01*
G01X7830Y3752D01*
G01X7829Y3758D01*
G01X7827Y3763D01*
G01X7824Y3768D01*
G01X7820Y3772D01*
G01X7816Y3777D01*
G01X7812Y3780D01*
G01X7807Y3783D01*
G01X7802Y3785D01*
G01X7796Y3786D01*
G01X7347Y3786D01*
G01X7342Y3785D01*
G01X7336Y3783D01*
G01X7331Y3780D01*
G01X7327Y3777D01*
G01X7323Y3772D01*
G01X7319Y3768D01*
G01X7315Y3758D01*
G01X7313Y3752D01*
G01X7313Y3746D01*
G01X7314Y3740D01*
G01X7315Y3733D01*
G01X7319Y3721D01*
G01X7322Y3710D01*
G01X7324Y3698D01*
G01X7325Y3685D01*
G01X7326Y3673D01*
G01X7324Y3649D01*
G01X7322Y3637D01*
G01X7319Y3625D01*
G01X7311Y3601D01*
G01X7299Y3579D01*
G01X7293Y3569D01*
G01X7285Y3559D01*
G01X7277Y3550D01*
G01X7268Y3541D01*
G01X7259Y3533D01*
G01X7239Y3519D01*
G01X7228Y3513D01*
G01X7206Y3503D01*
G01X7182Y3497D01*
G01X7158Y3493D01*
G01X7133Y3493D01*
G01X7109Y3497D01*
G01X7085Y3503D01*
G01X7073Y3508D01*
G01X7062Y3513D01*
G01X7051Y3519D01*
G01X7031Y3533D01*
G01X7022Y3541D01*
G01X7013Y3550D01*
G01X7005Y3559D01*
G01X6991Y3579D01*
G01X6985Y3590D01*
G01X6980Y3601D01*
G01X6975Y3613D01*
G01X6969Y3637D01*
G01X6965Y3661D01*
G01X6965Y3686D01*
G01X6967Y3699D01*
G01X6969Y3711D01*
G01X6972Y3724D01*
G01X6976Y3736D01*
G01X6981Y3748D01*
G01X6987Y3759D01*
G01X6993Y3771D01*
G01X7017Y3801D01*
G01X7047Y3825D01*
G01X7052Y3828D01*
G01X7056Y3832D01*
G01X7062Y3842D01*
G01X7064Y3847D01*
G01X7065Y3853D01*
G01X7066Y3858D01*
G01X7065Y3865D01*
G01X7064Y3871D01*
G01X7061Y3876D01*
G01X7058Y3882D01*
G01X7054Y3887D01*
G01X6904Y4036D01*
G01X6894Y4044D01*
G01X6882Y4048D01*
G01X6870Y4048D01*
G01X6858Y4044D01*
G01X6853Y4041D01*
G01X6848Y4037D01*
G01X6844Y4032D01*
G01X6835Y4017D01*
G01X6828Y4007D01*
G01X6820Y3997D01*
G01X6812Y3988D01*
G01X6804Y3980D01*
G01X6794Y3972D01*
G01X6785Y3965D01*
G01X6775Y3959D01*
G01X6764Y3953D01*
G01X6742Y3943D01*
G01X6730Y3940D01*
G01X6719Y3937D01*
G01X6707Y3935D01*
G01X6683Y3933D01*
G01X6659Y3935D01*
G01X6647Y3937D01*
G01X6623Y3943D01*
G01X6601Y3953D01*
G01X6591Y3959D01*
G01X6580Y3965D01*
G01X6571Y3972D01*
G01X6561Y3980D01*
G01X6553Y3988D01*
G01X6545Y3997D01*
G01X6537Y4007D01*
G01X6530Y4017D01*
G01X6527Y4021D01*
G01X6523Y4026D01*
G01X6513Y4032D01*
G01X6508Y4034D01*
G01X6502Y4035D01*
G01X6489Y4035D01*
G01X6473Y4032D01*
G01X6444Y4032D01*
G01X6432Y4033D01*
G01X6420Y4035D01*
G01X6408Y4038D01*
G01X6396Y4042D01*
G01X6384Y4047D01*
G01X6373Y4052D01*
G01X6362Y4058D01*
G01X6342Y4072D01*
G01X6333Y4080D01*
G01X6324Y4089D01*
G01X6316Y4098D01*
G01X6302Y4118D01*
G01X6296Y4129D01*
G01X6291Y4140D01*
G01X6286Y4152D01*
G01X6283Y4163D01*
G01X6280Y4175D01*
G01X6278Y4187D01*
G01X6276Y4200D01*
G01X6276Y4227D01*
G01X6277Y4230D01*
G01X6275Y4242D01*
G01X6273Y4247D01*
G01X6270Y4252D01*
G01X6267Y4256D01*
G01X6263Y4261D01*
G01X6253Y4267D01*
G01X6248Y4269D01*
G01X6242Y4270D01*
G37*

%LPC*%
G36*
G01X9156Y3273D02*
G01X9131Y3273D01*
G01X9107Y3269D01*
G01X9083Y3263D01*
G01X9061Y3253D01*
G01X9050Y3247D01*
G01X9030Y3233D01*
G01X9021Y3225D01*
G01X9012Y3216D01*
G01X9004Y3207D01*
G01X8996Y3197D01*
G01X8990Y3187D01*
G01X8984Y3176D01*
G01X8976Y3166D01*
G01X8971Y3162D01*
G01X8966Y3159D01*
G01X8954Y3155D01*
G01X8942Y3155D01*
G01X8930Y3159D01*
G01X8924Y3163D01*
G01X8920Y3167D01*
G01X8916Y3172D01*
G01X8900Y3190D01*
G01X8891Y3199D01*
G01X8882Y3207D01*
G01X8862Y3221D01*
G01X8851Y3227D01*
G01X8840Y3232D01*
G01X8829Y3236D01*
G01X8817Y3240D01*
G01X8806Y3243D01*
G01X8794Y3245D01*
G01X8781Y3246D01*
G01X8769Y3247D01*
G01X8745Y3245D01*
G01X8733Y3243D01*
G01X8721Y3240D01*
G01X8697Y3232D01*
G01X8675Y3220D01*
G01X8665Y3214D01*
G01X8655Y3206D01*
G01X8646Y3198D01*
G01X8637Y3189D01*
G01X8629Y3180D01*
G01X8615Y3160D01*
G01X8609Y3149D01*
G01X8599Y3127D01*
G01X8593Y3103D01*
G01X8589Y3079D01*
G01X8589Y3054D01*
G01X8593Y3030D01*
G01X8599Y3006D01*
G01X8604Y2994D01*
G01X8609Y2983D01*
G01X8615Y2973D01*
G01X8622Y2962D01*
G01X8629Y2952D01*
G01X8637Y2943D01*
G01X8646Y2934D01*
G01X8655Y2926D01*
G01X8675Y2912D01*
G01X8686Y2906D01*
G01X8697Y2901D01*
G01X8709Y2896D01*
G01X8733Y2890D01*
G01X8757Y2886D01*
G01X8781Y2886D01*
G01X8794Y2888D01*
G01X8806Y2890D01*
G01X8818Y2893D01*
G01X8829Y2896D01*
G01X8841Y2901D01*
G01X8852Y2906D01*
G01X8863Y2912D01*
G01X8883Y2926D01*
G01X8892Y2934D01*
G01X8901Y2943D01*
G01X8909Y2952D01*
G01X8923Y2972D01*
G01X8929Y2983D01*
G01X8932Y2988D01*
G01X8936Y2992D01*
G01X8946Y3000D01*
G01X8952Y3002D01*
G01X8964Y3004D01*
G01X8971Y3003D01*
G01X8977Y3002D01*
G01X8983Y3000D01*
G01X8993Y2992D01*
G01X8997Y2987D01*
G01X9004Y2978D01*
G01X9012Y2969D01*
G01X9021Y2960D01*
G01X9030Y2952D01*
G01X9050Y2938D01*
G01X9061Y2932D01*
G01X9083Y2922D01*
G01X9107Y2916D01*
G01X9119Y2914D01*
G01X9143Y2912D01*
G01X9156Y2913D01*
G01X9168Y2914D01*
G01X9180Y2916D01*
G01X9192Y2919D01*
G01X9204Y2923D01*
G01X9215Y2927D01*
G01X9226Y2932D01*
G01X9237Y2939D01*
G01X9247Y2945D01*
G01X9257Y2953D01*
G01X9266Y2961D01*
G01X9275Y2970D01*
G01X9283Y2979D01*
G01X9291Y2989D01*
G01X9297Y2999D01*
G01X9309Y3021D01*
G01X9313Y3032D01*
G01X9317Y3044D01*
G01X9320Y3056D01*
G01X9322Y3068D01*
G01X9323Y3080D01*
G01X9324Y3093D01*
G01X9322Y3117D01*
G01X9320Y3129D01*
G01X9317Y3141D01*
G01X9313Y3153D01*
G01X9309Y3164D01*
G01X9303Y3176D01*
G01X9297Y3186D01*
G01X9291Y3197D01*
G01X9283Y3206D01*
G01X9275Y3216D01*
G01X9266Y3224D01*
G01X9257Y3233D01*
G01X9237Y3247D01*
G01X9226Y3253D01*
G01X9204Y3263D01*
G01X9180Y3269D01*
G01X9156Y3273D01*
G37*

%LPD*%
G36*
G01X12730Y2266D02*
G01X12718Y2266D01*
G01X12706Y2262D01*
G01X12701Y2259D01*
G01X12696Y2255D01*
G01X12692Y2250D01*
G01X12686Y2240D01*
G01X12684Y2234D01*
G01X12681Y2221D01*
G01X12677Y2208D01*
G01X12667Y2184D01*
G01X12653Y2162D01*
G01X12635Y2142D01*
G01X12622Y2129D01*
G01X12618Y2124D01*
G01X12615Y2119D01*
G01X12613Y2114D01*
G01X12612Y2108D01*
G01X12612Y2096D01*
G01X12616Y2084D01*
G01X12619Y2079D01*
G01X12623Y2074D01*
G01X12744Y1953D01*
G01X12749Y1949D01*
G01X12755Y1946D01*
G01X12760Y1944D01*
G01X12766Y1942D01*
G01X12818Y1942D01*
G01X12824Y1943D01*
G01X12829Y1945D01*
G01X12834Y1948D01*
G01X12838Y1951D01*
G01X12843Y1956D01*
G01X12846Y1960D01*
G01X12849Y1965D01*
G01X12851Y1970D01*
G01X12852Y1976D01*
G01X12852Y1988D01*
G01X12851Y1993D01*
G01X12848Y1999D01*
G01X12843Y2011D01*
G01X12835Y2037D01*
G01X12831Y2063D01*
G01X12831Y2076D01*
G01X12833Y2106D01*
G01X12836Y2120D01*
G01X12841Y2134D01*
G01X12842Y2141D01*
G01X12843Y2147D01*
G01X12841Y2159D01*
G01X12835Y2171D01*
G01X12752Y2254D01*
G01X12742Y2262D01*
G01X12730Y2266D01*
G37*

%LPD*%
G36*
G01X9932Y1997D02*
G01X9614Y1997D01*
G01X9602Y1995D01*
G01X9597Y1993D01*
G01X9587Y1987D01*
G01X9583Y1983D01*
G01X9577Y1973D01*
G01X9575Y1968D01*
G01X9574Y1962D01*
G01X9574Y1950D01*
G01X9578Y1938D01*
G01X9581Y1933D01*
G01X9585Y1928D01*
G01X9659Y1854D01*
G01X9664Y1850D01*
G01X9669Y1847D01*
G01X9681Y1843D01*
G01X9865Y1843D01*
G01X9877Y1847D01*
G01X9882Y1850D01*
G01X9887Y1854D01*
G01X9961Y1928D01*
G01X9965Y1933D01*
G01X9968Y1938D01*
G01X9972Y1950D01*
G01X9972Y1962D01*
G01X9971Y1968D01*
G01X9969Y1973D01*
G01X9963Y1983D01*
G01X9958Y1987D01*
G01X9954Y1990D01*
G01X9949Y1993D01*
G01X9944Y1995D01*
G01X9932Y1997D01*
G37*

%LPD*%
G36*
G01X10584Y1791D02*
G01X10458Y1791D01*
G01X10452Y1789D01*
G01X10442Y1785D01*
G01X10437Y1781D01*
G01X10433Y1777D01*
G01X10430Y1773D01*
G01X10427Y1768D01*
G01X10425Y1762D01*
G01X10424Y1757D01*
G01X10423Y1751D01*
G01X10423Y1748D01*
G01X10424Y1735D01*
G01X10423Y1719D01*
G01X10423Y1716D01*
G01X10424Y1710D01*
G01X10425Y1705D01*
G01X10427Y1699D01*
G01X10429Y1694D01*
G01X10441Y1682D01*
G01X10446Y1680D01*
G01X10452Y1678D01*
G01X10457Y1676D01*
G01X10532Y1676D01*
G01X10544Y1680D01*
G01X10549Y1683D01*
G01X10553Y1686D01*
G01X10563Y1695D01*
G01X10574Y1702D01*
G01X10584Y1709D01*
G01X10596Y1715D01*
G01X10601Y1718D01*
G01X10606Y1722D01*
G01X10610Y1727D01*
G01X10614Y1733D01*
G01X10618Y1745D01*
G01X10618Y1757D01*
G01X10617Y1762D01*
G01X10615Y1768D01*
G01X10612Y1773D01*
G01X10609Y1777D01*
G01X10605Y1781D01*
G01X10600Y1785D01*
G01X10590Y1789D01*
G01X10584Y1791D01*
G37*

%LPD*%
G36*
G01X13222Y6197D02*
G01X13216Y6197D01*
G01X13210Y6195D01*
G01X13200Y6191D01*
G01X13195Y6187D01*
G01X13191Y6183D01*
G01X13188Y6179D01*
G01X13185Y6174D01*
G01X13183Y6168D01*
G01X13182Y6163D01*
G01X13182Y6151D01*
G01X13183Y6146D01*
G01X13185Y6140D01*
G01X13191Y6127D01*
G01X13195Y6112D01*
G01X13199Y6098D01*
G01X13201Y6083D01*
G01X13202Y6077D01*
G01X13203Y6072D01*
G01X13206Y6066D01*
G01X13209Y6062D01*
G01X13213Y6057D01*
G01X13223Y6051D01*
G01X13229Y6049D01*
G01X13234Y6047D01*
G01X13240Y6047D01*
G01X13264Y6045D01*
G01X13277Y6043D01*
G01X13288Y6040D01*
G01X13300Y6036D01*
G01X13322Y6026D01*
G01X13333Y6020D01*
G01X13353Y6006D01*
G01X13362Y5998D01*
G01X13371Y5989D01*
G01X13379Y5980D01*
G01X13393Y5960D01*
G01X13399Y5949D01*
G01X13404Y5938D01*
G01X13408Y5926D01*
G01X13412Y5915D01*
G01X13415Y5903D01*
G01X13417Y5891D01*
G01X13418Y5879D01*
G01X13419Y5866D01*
G01X13417Y5842D01*
G01X13415Y5830D01*
G01X13412Y5818D01*
G01X13408Y5806D01*
G01X13404Y5795D01*
G01X13399Y5783D01*
G01X13392Y5773D01*
G01X13386Y5762D01*
G01X13378Y5753D01*
G01X13370Y5743D01*
G01X13362Y5735D01*
G01X13342Y5719D01*
G01X13332Y5712D01*
G01X13321Y5706D01*
G01X13299Y5696D01*
G01X13275Y5690D01*
G01X13251Y5686D01*
G01X13226Y5686D01*
G01X13202Y5690D01*
G01X13191Y5693D01*
G01X13179Y5696D01*
G01X13168Y5700D01*
G01X13157Y5706D01*
G01X13146Y5711D01*
G01X13126Y5725D01*
G01X13108Y5741D01*
G01X13100Y5750D01*
G01X13086Y5770D01*
G01X13080Y5780D01*
G01X13070Y5802D01*
G01X13066Y5814D01*
G01X13063Y5825D01*
G01X13060Y5837D01*
G01X13059Y5849D01*
G01X13058Y5855D01*
G01X13056Y5861D01*
G01X13050Y5871D01*
G01X13046Y5875D01*
G01X13042Y5878D01*
G01X13036Y5881D01*
G01X13031Y5884D01*
G01X13025Y5885D01*
G01X13019Y5885D01*
G01X13006Y5886D01*
G01X12993Y5888D01*
G01X12979Y5890D01*
G01X12966Y5894D01*
G01X12954Y5898D01*
G01X12941Y5904D01*
G01X12930Y5910D01*
G01X12918Y5918D01*
G01X12913Y5921D01*
G01X12907Y5923D01*
G01X12895Y5925D01*
G01X12858Y5925D01*
G01X12846Y5923D01*
G01X12841Y5921D01*
G01X12826Y5912D01*
G01X12804Y5902D01*
G01X12793Y5899D01*
G01X12781Y5896D01*
G01X12770Y5895D01*
G01X12758Y5894D01*
G01X11528Y5894D01*
G01X11522Y5893D01*
G01X11517Y5891D01*
G01X11507Y5885D01*
G01X11503Y5881D01*
G01X11497Y5871D01*
G01X11495Y5866D01*
G01X11493Y5854D01*
G01X11495Y5842D01*
G01X11498Y5836D01*
G01X11501Y5831D01*
G01X11505Y5826D01*
G01X11510Y5822D01*
G01X11526Y5808D01*
G01X12009Y5326D01*
G01X12016Y5317D01*
G01X12023Y5309D01*
G01X12029Y5300D01*
G01X12035Y5290D01*
G01X12039Y5280D01*
G01X12043Y5269D01*
G01X12046Y5259D01*
G01X12048Y5248D01*
G01X12050Y5226D01*
G01X12050Y4910D01*
G01X12052Y4904D01*
G01X12056Y4894D01*
G01X12060Y4889D01*
G01X12064Y4885D01*
G01X12068Y4882D01*
G01X12073Y4879D01*
G01X12079Y4877D01*
G01X12084Y4876D01*
G01X12096Y4876D01*
G01X12108Y4880D01*
G01X12114Y4883D01*
G01X12124Y4890D01*
G01X12135Y4897D01*
G01X12146Y4902D01*
G01X12158Y4907D01*
G01X12170Y4911D01*
G01X12182Y4914D01*
G01X12195Y4916D01*
G01X12207Y4918D01*
G01X12232Y4918D01*
G01X12245Y4916D01*
G01X12257Y4914D01*
G01X12281Y4908D01*
G01X12303Y4898D01*
G01X12314Y4892D01*
G01X12334Y4878D01*
G01X12343Y4870D01*
G01X12352Y4861D01*
G01X12360Y4852D01*
G01X12374Y4832D01*
G01X12386Y4810D01*
G01X12394Y4786D01*
G01X12397Y4774D01*
G01X12399Y4762D01*
G01X12400Y4750D01*
G01X12400Y4725D01*
G01X12399Y4713D01*
G01X12397Y4701D01*
G01X12394Y4689D01*
G01X12390Y4677D01*
G01X12385Y4665D01*
G01X12380Y4654D01*
G01X12374Y4643D01*
G01X12367Y4633D01*
G01X12359Y4623D01*
G01X12351Y4614D01*
G01X12342Y4605D01*
G01X12333Y4597D01*
G01X12313Y4583D01*
G01X12302Y4577D01*
G01X12296Y4574D01*
G01X12287Y4565D01*
G01X12284Y4559D01*
G01X12282Y4554D01*
G01X12280Y4548D01*
G01X12280Y4536D01*
G01X12281Y4530D01*
G01X12283Y4525D01*
G01X12286Y4520D01*
G01X12290Y4515D01*
G01X12294Y4511D01*
G01X12298Y4508D01*
G01X12303Y4505D01*
G01X12309Y4503D01*
G01X12314Y4502D01*
G01X12320Y4501D01*
G01X12477Y4501D01*
G01X12488Y4500D01*
G01X12498Y4498D01*
G01X12508Y4495D01*
G01X12519Y4491D01*
G01X12528Y4487D01*
G01X12538Y4482D01*
G01X12547Y4476D01*
G01X12555Y4470D01*
G01X12563Y4463D01*
G01X12570Y4457D01*
G01X12579Y4451D01*
G01X12588Y4444D01*
G01X12596Y4437D01*
G01X12601Y4433D01*
G01X12606Y4430D01*
G01X12612Y4427D01*
G01X12624Y4425D01*
G01X12636Y4427D01*
G01X12641Y4429D01*
G01X12651Y4435D01*
G01X12655Y4439D01*
G01X12661Y4449D01*
G01X12663Y4454D01*
G01X12664Y4459D01*
G01X12666Y4471D01*
G01X12669Y4483D01*
G01X12673Y4495D01*
G01X12677Y4506D01*
G01X12683Y4517D01*
G01X12695Y4537D01*
G01X12703Y4547D01*
G01X12711Y4556D01*
G01X12719Y4564D01*
G01X12729Y4572D01*
G01X12738Y4580D01*
G01X12748Y4586D01*
G01X12759Y4592D01*
G01X12781Y4602D01*
G01X12793Y4605D01*
G01X12804Y4608D01*
G01X12816Y4610D01*
G01X12828Y4611D01*
G01X12841Y4612D01*
G01X12865Y4610D01*
G01X12877Y4608D01*
G01X12889Y4605D01*
G01X12901Y4601D01*
G01X12912Y4597D01*
G01X12924Y4591D01*
G01X12934Y4585D01*
G01X12954Y4571D01*
G01X12963Y4563D01*
G01X12972Y4554D01*
G01X12980Y4545D01*
G01X12987Y4535D01*
G01X12994Y4524D01*
G01X13000Y4513D01*
G01X13005Y4502D01*
G01X13009Y4491D01*
G01X13013Y4479D01*
G01X13016Y4467D01*
G01X13017Y4461D01*
G01X13026Y4446D01*
G01X13031Y4443D01*
G01X13036Y4439D01*
G01X13041Y4437D01*
G01X13047Y4435D01*
G01X13052Y4434D01*
G01X13065Y4433D01*
G01X13077Y4431D01*
G01X13088Y4428D01*
G01X13100Y4425D01*
G01X13111Y4420D01*
G01X13123Y4415D01*
G01X13133Y4409D01*
G01X13153Y4395D01*
G01X13162Y4387D01*
G01X13171Y4378D01*
G01X13179Y4369D01*
G01X13193Y4349D01*
G01X13199Y4339D01*
G01X13204Y4328D01*
G01X13209Y4316D01*
G01X13213Y4305D01*
G01X13215Y4293D01*
G01X13218Y4281D01*
G01X13219Y4269D01*
G01X13219Y4244D01*
G01X13218Y4232D01*
G01X13215Y4220D01*
G01X13213Y4208D01*
G01X13209Y4197D01*
G01X13204Y4185D01*
G01X13199Y4174D01*
G01X13187Y4154D01*
G01X13179Y4144D01*
G01X13163Y4126D01*
G01X13153Y4118D01*
G01X13144Y4111D01*
G01X13133Y4104D01*
G01X13123Y4098D01*
G01X13101Y4088D01*
G01X13077Y4082D01*
G01X13053Y4078D01*
G01X13029Y4078D01*
G01X13005Y4082D01*
G01X12981Y4088D01*
G01X12959Y4098D01*
G01X12948Y4104D01*
G01X12938Y4110D01*
G01X12929Y4118D01*
G01X12919Y4126D01*
G01X12911Y4134D01*
G01X12903Y4143D01*
G01X12895Y4153D01*
G01X12889Y4163D01*
G01X12883Y4174D01*
G01X12875Y4184D01*
G01X12871Y4188D01*
G01X12865Y4191D01*
G01X12860Y4193D01*
G01X12854Y4195D01*
G01X12842Y4195D01*
G01X12836Y4194D01*
G01X12831Y4192D01*
G01X12826Y4189D01*
G01X12821Y4185D01*
G01X12817Y4181D01*
G01X12814Y4177D01*
G01X12811Y4172D01*
G01X12809Y4166D01*
G01X12808Y4161D01*
G01X12807Y4155D01*
G01X12807Y4142D01*
G01X12809Y4130D01*
G01X12811Y4125D01*
G01X12814Y4120D01*
G01X12821Y4108D01*
G01X12827Y4097D01*
G01X12833Y4084D01*
G01X12837Y4072D01*
G01X12843Y4046D01*
G01X12845Y4020D01*
G01X12844Y4007D01*
G01X12843Y3995D01*
G01X12841Y3983D01*
G01X12838Y3971D01*
G01X12834Y3960D01*
G01X12830Y3948D01*
G01X12818Y3926D01*
G01X12812Y3916D01*
G01X12804Y3906D01*
G01X12796Y3897D01*
G01X12778Y3881D01*
G01X12768Y3873D01*
G01X12758Y3867D01*
G01X12753Y3863D01*
G01X12745Y3855D01*
G01X12742Y3849D01*
G01X12740Y3844D01*
G01X12739Y3838D01*
G01X12739Y3825D01*
G01X12741Y3818D01*
G01X12756Y3788D01*
G01X12764Y3762D01*
G01X12766Y3749D01*
G01X12768Y3735D01*
G01X12769Y3722D01*
G01X12768Y3707D01*
G01X12768Y3698D01*
G01X12769Y3693D01*
G01X12771Y3687D01*
G01X12774Y3682D01*
G01X12786Y3670D01*
G01X12791Y3668D01*
G01X12797Y3666D01*
G01X12802Y3665D01*
G01X12808Y3664D01*
G01X14124Y3664D01*
G01X14146Y3660D01*
G01X14157Y3657D01*
G01X14177Y3649D01*
G01X14187Y3643D01*
G01X14196Y3637D01*
G01X14205Y3630D01*
G01X14213Y3623D01*
G01X14575Y3261D01*
G01X14580Y3258D01*
G01X14592Y3254D01*
G01X14604Y3251D01*
G01X14615Y3248D01*
G01X14627Y3243D01*
G01X14638Y3238D01*
G01X14649Y3232D01*
G01X14659Y3226D01*
G01X14669Y3218D01*
G01X14687Y3202D01*
G01X14695Y3192D01*
G01X14703Y3183D01*
G01X14710Y3172D01*
G01X14716Y3162D01*
G01X14721Y3151D01*
G01X14726Y3139D01*
G01X14732Y3115D01*
G01X14736Y3091D01*
G01X14736Y3067D01*
G01X14732Y3043D01*
G01X14726Y3019D01*
G01X14716Y2997D01*
G01X14710Y2986D01*
G01X14696Y2966D01*
G01X14688Y2957D01*
G01X14679Y2948D01*
G01X14670Y2940D01*
G01X14661Y2933D01*
G01X14650Y2926D01*
G01X14640Y2920D01*
G01X14629Y2915D01*
G01X14617Y2911D01*
G01X14606Y2907D01*
G01X14594Y2904D01*
G01X14582Y2902D01*
G01X14558Y2900D01*
G01X14545Y2901D01*
G01X14533Y2902D01*
G01X14521Y2904D01*
G01X14509Y2907D01*
G01X14497Y2911D01*
G01X14486Y2915D01*
G01X14464Y2927D01*
G01X14444Y2941D01*
G01X14435Y2949D01*
G01X14426Y2958D01*
G01X14418Y2967D01*
G01X14411Y2977D01*
G01X14404Y2988D01*
G01X14398Y2998D01*
G01X14393Y3010D01*
G01X14389Y3021D01*
G01X14385Y3033D01*
G01X14383Y3045D01*
G01X14381Y3051D01*
G01X14379Y3056D01*
G01X14375Y3061D01*
G01X14372Y3066D01*
G01X14067Y3370D01*
G01X14057Y3378D01*
G01X14045Y3382D01*
G01X13836Y3382D01*
G01X13831Y3380D01*
G01X13825Y3378D01*
G01X13820Y3376D01*
G01X13808Y3364D01*
G01X13806Y3359D01*
G01X13804Y3353D01*
G01X13802Y3348D01*
G01X13802Y3336D01*
G01X13806Y3324D01*
G01X13814Y3314D01*
G01X13914Y3213D01*
G01X13922Y3205D01*
G01X13929Y3196D01*
G01X13935Y3187D01*
G01X13945Y3167D01*
G01X13949Y3157D01*
G01X13952Y3146D01*
G01X13954Y3135D01*
G01X13956Y3113D01*
G01X13956Y2947D01*
G01X13957Y2941D01*
G01X13960Y2935D01*
G01X13963Y2930D01*
G01X13970Y2919D01*
G01X13976Y2907D01*
G01X13981Y2895D01*
G01X13985Y2883D01*
G01X13989Y2870D01*
G01X13993Y2844D01*
G01X13993Y2818D01*
G01X13987Y2782D01*
G01X13983Y2771D01*
G01X13978Y2759D01*
G01X13973Y2748D01*
G01X13961Y2728D01*
G01X13953Y2718D01*
G01X13937Y2700D01*
G01X13927Y2692D01*
G01X13918Y2685D01*
G01X13908Y2678D01*
G01X13897Y2672D01*
G01X13875Y2662D01*
G01X13851Y2656D01*
G01X13846Y2654D01*
G01X13840Y2652D01*
G01X13835Y2648D01*
G01X13827Y2640D01*
G01X13824Y2634D01*
G01X13821Y2629D01*
G01X13820Y2623D01*
G01X13820Y2617D01*
G01X13818Y2593D01*
G01X13816Y2581D01*
G01X13813Y2569D01*
G01X13809Y2557D01*
G01X13805Y2546D01*
G01X13793Y2524D01*
G01X13787Y2514D01*
G01X13763Y2487D01*
G01X13754Y2479D01*
G01X13734Y2465D01*
G01X13723Y2459D01*
G01X13701Y2449D01*
G01X13677Y2443D01*
G01X13665Y2441D01*
G01X13641Y2439D01*
G01X13617Y2441D01*
G01X13605Y2443D01*
G01X13593Y2446D01*
G01X13581Y2450D01*
G01X13570Y2454D01*
G01X13559Y2459D01*
G01X13549Y2465D01*
G01X13538Y2472D01*
G01X13529Y2479D01*
G01X13519Y2487D01*
G01X13503Y2505D01*
G01X13495Y2515D01*
G01X13489Y2525D01*
G01X13483Y2536D01*
G01X13473Y2558D01*
G01X13469Y2569D01*
G01X13467Y2581D01*
G01X13464Y2593D01*
G01X13463Y2605D01*
G01X13463Y2630D01*
G01X13465Y2643D01*
G01X13467Y2655D01*
G01X13470Y2667D01*
G01X13474Y2679D01*
G01X13476Y2686D01*
G01X13476Y3016D01*
G01X13472Y3028D01*
G01X13469Y3033D01*
G01X13465Y3038D01*
G01X13452Y3050D01*
G01X13442Y3058D01*
G01X13430Y3062D01*
G01X12635Y3062D01*
G01X12629Y3060D01*
G01X12619Y3056D01*
G01X12607Y3044D01*
G01X12604Y3039D01*
G01X12602Y3033D01*
G01X12601Y3028D01*
G01X12601Y3016D01*
G01X12602Y3011D01*
G01X12605Y3005D01*
G01X12607Y3000D01*
G01X12611Y2995D01*
G01X12615Y2991D01*
G01X12625Y2985D01*
G01X12631Y2983D01*
G01X12641Y2980D01*
G01X12651Y2976D01*
G01X12660Y2972D01*
G01X12670Y2967D01*
G01X12678Y2961D01*
G01X12687Y2954D01*
G01X12695Y2947D01*
G01X12845Y2797D01*
G01X12851Y2793D01*
G01X12863Y2789D01*
G01X12875Y2789D01*
G01X12881Y2791D01*
G01X12886Y2793D01*
G01X12891Y2796D01*
G01X12896Y2800D01*
G01X12900Y2804D01*
G01X12908Y2813D01*
G01X12926Y2831D01*
G01X12946Y2845D01*
G01X12957Y2851D01*
G01X12968Y2856D01*
G01X12980Y2861D01*
G01X12992Y2865D01*
G01X13004Y2868D01*
G01X13016Y2870D01*
G01X13028Y2871D01*
G01X13041Y2872D01*
G01X13065Y2870D01*
G01X13078Y2868D01*
G01X13090Y2865D01*
G01X13101Y2861D01*
G01X13113Y2857D01*
G01X13135Y2845D01*
G01X13145Y2839D01*
G01X13155Y2831D01*
G01X13164Y2823D01*
G01X13173Y2814D01*
G01X13181Y2805D01*
G01X13195Y2785D01*
G01X13201Y2774D01*
G01X13211Y2752D01*
G01X13215Y2740D01*
G01X13217Y2728D01*
G01X13220Y2716D01*
G01X13221Y2704D01*
G01X13221Y2679D01*
G01X13220Y2667D01*
G01X13217Y2654D01*
G01X13211Y2630D01*
G01X13201Y2608D01*
G01X13195Y2597D01*
G01X13188Y2586D01*
G01X13180Y2577D01*
G01X13172Y2567D01*
G01X13154Y2551D01*
G01X13149Y2546D01*
G01X13146Y2542D01*
G01X13143Y2537D01*
G01X13140Y2531D01*
G01X13139Y2525D01*
G01X13139Y2513D01*
G01X13143Y2501D01*
G01X13146Y2496D01*
G01X13150Y2491D01*
G01X13368Y2273D01*
G01X13373Y2269D01*
G01X13379Y2265D01*
G01X13385Y2263D01*
G01X13403Y2260D01*
G01X13415Y2257D01*
G01X13427Y2253D01*
G01X13449Y2243D01*
G01X13460Y2237D01*
G01X13480Y2223D01*
G01X13489Y2215D01*
G01X13498Y2206D01*
G01X13506Y2197D01*
G01X13520Y2177D01*
G01X13526Y2166D01*
G01X13531Y2155D01*
G01X13536Y2143D01*
G01X13539Y2132D01*
G01X13542Y2120D01*
G01X13544Y2108D01*
G01X13546Y2095D01*
G01X13546Y2071D01*
G01X13544Y2059D01*
G01X13542Y2046D01*
G01X13539Y2034D01*
G01X13536Y2023D01*
G01X13531Y2011D01*
G01X13526Y2000D01*
G01X13523Y1994D01*
G01X13521Y1982D01*
G01X13523Y1970D01*
G01X13525Y1965D01*
G01X13528Y1960D01*
G01X13531Y1956D01*
G01X13535Y1951D01*
G01X13545Y1945D01*
G01X13550Y1943D01*
G01X13556Y1942D01*
G01X13996Y1942D01*
G01X14018Y1940D01*
G01X14028Y1938D01*
G01X14039Y1935D01*
G01X14049Y1931D01*
G01X14060Y1926D01*
G01X14069Y1921D01*
G01X14078Y1915D01*
G01X14087Y1908D01*
G01X14095Y1900D01*
G01X14164Y1832D01*
G01X14168Y1828D01*
G01X14174Y1825D01*
G01X14179Y1822D01*
G01X14185Y1821D01*
G01X14209Y1815D01*
G01X14233Y1805D01*
G01X14244Y1799D01*
G01X14264Y1785D01*
G01X14274Y1777D01*
G01X14283Y1768D01*
G01X14291Y1759D01*
G01X14299Y1749D01*
G01X14306Y1738D01*
G01X14318Y1716D01*
G01X14323Y1704D01*
G01X14326Y1693D01*
G01X14329Y1680D01*
G01X14331Y1675D01*
G01X14334Y1669D01*
G01X14337Y1664D01*
G01X14341Y1659D01*
G01X14351Y1653D01*
G01X14357Y1650D01*
G01X14363Y1649D01*
G01X14375Y1649D01*
G01X14381Y1650D01*
G01X14387Y1653D01*
G01X14392Y1656D01*
G01X14397Y1660D01*
G01X14401Y1665D01*
G01X14404Y1670D01*
G01X14407Y1676D01*
G01X14410Y1694D01*
G01X14414Y1706D01*
G01X14422Y1728D01*
G01X14428Y1739D01*
G01X14434Y1749D01*
G01X14448Y1769D01*
G01X14456Y1778D01*
G01X14474Y1794D01*
G01X14494Y1808D01*
G01X14504Y1814D01*
G01X14515Y1819D01*
G01X14527Y1823D01*
G01X14538Y1827D01*
G01X14550Y1830D01*
G01X14562Y1832D01*
G01X14574Y1833D01*
G01X14598Y1833D01*
G01X14611Y1832D01*
G01X14623Y1830D01*
G01X14635Y1827D01*
G01X14647Y1823D01*
G01X14658Y1818D01*
G01X14670Y1813D01*
G01X14680Y1807D01*
G01X14691Y1800D01*
G01X14701Y1792D01*
G01X14710Y1784D01*
G01X14719Y1775D01*
G01X14727Y1766D01*
G01X14741Y1746D01*
G01X14747Y1735D01*
G01X14752Y1724D01*
G01X14757Y1712D01*
G01X14760Y1700D01*
G01X14762Y1695D01*
G01X14765Y1689D01*
G01X14768Y1685D01*
G01X14772Y1681D01*
G01X14777Y1677D01*
G01X14782Y1674D01*
G01X14787Y1672D01*
G01X14793Y1671D01*
G01X14804Y1671D01*
G01X14810Y1672D01*
G01X14815Y1674D01*
G01X14825Y1680D01*
G01X14829Y1684D01*
G01X14835Y1694D01*
G01X14837Y1699D01*
G01X14839Y1711D01*
G01X14839Y2190D01*
G01X14838Y2201D01*
G01X14838Y2389D01*
G01X14840Y2411D01*
G01X14842Y2422D01*
G01X14845Y2433D01*
G01X14849Y2443D01*
G01X14859Y2463D01*
G01X14865Y2472D01*
G01X14872Y2481D01*
G01X14880Y2489D01*
G01X14976Y2586D01*
G01X14980Y2590D01*
G01X14986Y2602D01*
G01X14988Y2614D01*
G01X14986Y2626D01*
G01X14984Y2631D01*
G01X14981Y2637D01*
G01X14977Y2641D01*
G01X14967Y2649D01*
G01X14962Y2651D01*
G01X14956Y2653D01*
G01X14944Y2656D01*
G01X14933Y2660D01*
G01X14921Y2664D01*
G01X14910Y2670D01*
G01X14900Y2676D01*
G01X14880Y2690D01*
G01X14871Y2698D01*
G01X14862Y2707D01*
G01X14854Y2716D01*
G01X14840Y2736D01*
G01X14834Y2747D01*
G01X14824Y2769D01*
G01X14818Y2793D01*
G01X14816Y2805D01*
G01X14814Y2829D01*
G01X14815Y2842D01*
G01X14816Y2854D01*
G01X14818Y2866D01*
G01X14821Y2878D01*
G01X14825Y2890D01*
G01X14829Y2901D01*
G01X14834Y2912D01*
G01X14840Y2923D01*
G01X14847Y2933D01*
G01X14855Y2943D01*
G01X14871Y2961D01*
G01X14891Y2977D01*
G01X14901Y2983D01*
G01X14923Y2995D01*
G01X14934Y2999D01*
G01X14946Y3003D01*
G01X14958Y3006D01*
G01X14970Y3008D01*
G01X14982Y3009D01*
G01X14995Y3010D01*
G01X15017Y3008D01*
G01X15027Y3008D01*
G01X15033Y3010D01*
G01X15043Y3014D01*
G01X15048Y3018D01*
G01X15052Y3022D01*
G01X15055Y3026D01*
G01X15058Y3031D01*
G01X15060Y3037D01*
G01X15061Y3042D01*
G01X15062Y3048D01*
G01X15062Y4378D01*
G01X15061Y4384D01*
G01X15060Y4389D01*
G01X15058Y4395D01*
G01X15055Y4400D01*
G01X15052Y4404D01*
G01X15048Y4408D01*
G01X15043Y4412D01*
G01X15033Y4416D01*
G01X15027Y4418D01*
G01X15015Y4418D01*
G01X15009Y4416D01*
G01X14996Y4412D01*
G01X14983Y4410D01*
G01X14969Y4408D01*
G01X14943Y4408D01*
G01X14931Y4409D01*
G01X14919Y4411D01*
G01X14907Y4414D01*
G01X14895Y4418D01*
G01X14884Y4422D01*
G01X14873Y4428D01*
G01X14863Y4434D01*
G01X14852Y4440D01*
G01X14843Y4448D01*
G01X14833Y4456D01*
G01X14825Y4464D01*
G01X14817Y4474D01*
G01X14809Y4483D01*
G01X14803Y4493D01*
G01X14797Y4504D01*
G01X14787Y4526D01*
G01X14783Y4538D01*
G01X14781Y4550D01*
G01X14778Y4562D01*
G01X14777Y4574D01*
G01X14777Y4599D01*
G01X14781Y4623D01*
G01X14787Y4647D01*
G01X14792Y4658D01*
G01X14798Y4670D01*
G01X14804Y4680D01*
G01X14811Y4691D01*
G01X14818Y4700D01*
G01X14827Y4710D01*
G01X14840Y4723D01*
G01X14844Y4729D01*
G01X14848Y4741D01*
G01X14849Y4748D01*
G01X14847Y4760D01*
G01X14844Y4766D01*
G01X14841Y4771D01*
G01X14837Y4776D01*
G01X14170Y5443D01*
G01X14165Y5447D01*
G01X14160Y5450D01*
G01X14154Y5453D01*
G01X14142Y5455D01*
G01X14130Y5453D01*
G01X14125Y5451D01*
G01X14115Y5445D01*
G01X14111Y5440D01*
G01X14108Y5436D01*
G01X14105Y5431D01*
G01X14100Y5420D01*
G01X14094Y5409D01*
G01X14080Y5389D01*
G01X14072Y5380D01*
G01X14063Y5371D01*
G01X14054Y5363D01*
G01X14034Y5349D01*
G01X14024Y5343D01*
G01X14013Y5338D01*
G01X14001Y5333D01*
G01X13990Y5330D01*
G01X13978Y5327D01*
G01X13966Y5325D01*
G01X13954Y5324D01*
G01X13941Y5323D01*
G01X13917Y5325D01*
G01X13905Y5327D01*
G01X13893Y5330D01*
G01X13882Y5333D01*
G01X13870Y5338D01*
G01X13859Y5343D01*
G01X13849Y5349D01*
G01X13829Y5363D01*
G01X13820Y5371D01*
G01X13811Y5380D01*
G01X13803Y5389D01*
G01X13789Y5409D01*
G01X13783Y5419D01*
G01X13778Y5430D01*
G01X13773Y5442D01*
G01X13770Y5453D01*
G01X13767Y5465D01*
G01X13763Y5489D01*
G01X13763Y5514D01*
G01X13767Y5538D01*
G01X13770Y5550D01*
G01X13773Y5561D01*
G01X13778Y5573D01*
G01X13783Y5584D01*
G01X13789Y5594D01*
G01X13803Y5614D01*
G01X13811Y5623D01*
G01X13820Y5632D01*
G01X13829Y5640D01*
G01X13849Y5654D01*
G01X13859Y5660D01*
G01X13870Y5665D01*
G01X13882Y5670D01*
G01X13893Y5673D01*
G01X13905Y5676D01*
G01X13917Y5678D01*
G01X13941Y5680D01*
G01X13954Y5679D01*
G01X13966Y5678D01*
G01X13978Y5678D01*
G01X13983Y5679D01*
G01X13989Y5681D01*
G01X13994Y5684D01*
G01X14006Y5696D01*
G01X14010Y5706D01*
G01X14012Y5712D01*
G01X14012Y5777D01*
G01X14008Y5789D01*
G01X14000Y5799D01*
G01X13684Y6116D01*
G01X13679Y6120D01*
G01X13674Y6123D01*
G01X13668Y6126D01*
G01X13662Y6127D01*
G01X13655Y6128D01*
G01X13648Y6127D01*
G01X13641Y6125D01*
G01X13629Y6120D01*
G01X13617Y6116D01*
G01X13581Y6107D01*
G01X13568Y6105D01*
G01X13531Y6100D01*
G01X13518Y6099D01*
G01X13481Y6099D01*
G01X13468Y6100D01*
G01X13431Y6105D01*
G01X13418Y6107D01*
G01X13382Y6116D01*
G01X13370Y6120D01*
G01X13335Y6134D01*
G01X13323Y6140D01*
G01X13279Y6164D01*
G01X13249Y6187D01*
G01X13246Y6189D01*
G01X13241Y6192D01*
G01X13235Y6195D01*
G01X13228Y6196D01*
G01X13222Y6197D01*
G37*

%LPC*%
G36*
G01X13673Y4543D02*
G01X13649Y4543D01*
G01X13625Y4539D01*
G01X13601Y4533D01*
G01X13579Y4523D01*
G01X13568Y4517D01*
G01X13548Y4503D01*
G01X13539Y4495D01*
G01X13523Y4477D01*
G01X13515Y4467D01*
G01X13508Y4457D01*
G01X13503Y4447D01*
G01X13497Y4436D01*
G01X13493Y4424D01*
G01X13489Y4413D01*
G01X13486Y4401D01*
G01X13484Y4389D01*
G01X13483Y4377D01*
G01X13483Y4352D01*
G01X13484Y4340D01*
G01X13486Y4328D01*
G01X13489Y4316D01*
G01X13497Y4294D01*
G01X13503Y4283D01*
G01X13508Y4272D01*
G01X13515Y4262D01*
G01X13523Y4252D01*
G01X13539Y4234D01*
G01X13548Y4226D01*
G01X13568Y4212D01*
G01X13579Y4206D01*
G01X13590Y4201D01*
G01X13601Y4197D01*
G01X13613Y4193D01*
G01X13625Y4190D01*
G01X13637Y4188D01*
G01X13661Y4186D01*
G01X13687Y4188D01*
G01X13713Y4194D01*
G01X13725Y4198D01*
G01X13737Y4203D01*
G01X13743Y4205D01*
G01X13748Y4207D01*
G01X13760Y4207D01*
G01X13766Y4206D01*
G01X13771Y4204D01*
G01X13776Y4201D01*
G01X13788Y4189D01*
G01X13791Y4184D01*
G01X13793Y4178D01*
G01X13794Y4173D01*
G01X13794Y4160D01*
G01X13792Y4153D01*
G01X13789Y4147D01*
G01X13783Y4136D01*
G01X13773Y4114D01*
G01X13770Y4102D01*
G01X13767Y4091D01*
G01X13763Y4067D01*
G01X13763Y4042D01*
G01X13767Y4018D01*
G01X13770Y4006D01*
G01X13773Y3995D01*
G01X13783Y3973D01*
G01X13789Y3962D01*
G01X13803Y3942D01*
G01X13811Y3933D01*
G01X13820Y3924D01*
G01X13829Y3916D01*
G01X13849Y3902D01*
G01X13859Y3896D01*
G01X13870Y3891D01*
G01X13882Y3887D01*
G01X13893Y3883D01*
G01X13905Y3880D01*
G01X13917Y3878D01*
G01X13941Y3876D01*
G01X13954Y3877D01*
G01X13966Y3878D01*
G01X13978Y3880D01*
G01X13990Y3883D01*
G01X14012Y3891D01*
G01X14023Y3896D01*
G01X14034Y3902D01*
G01X14054Y3916D01*
G01X14063Y3924D01*
G01X14072Y3933D01*
G01X14080Y3942D01*
G01X14094Y3962D01*
G01X14100Y3973D01*
G01X14110Y3995D01*
G01X14113Y4006D01*
G01X14116Y4018D01*
G01X14118Y4030D01*
G01X14119Y4042D01*
G01X14120Y4055D01*
G01X14118Y4079D01*
G01X14116Y4091D01*
G01X14113Y4103D01*
G01X14110Y4114D01*
G01X14105Y4126D01*
G01X14100Y4137D01*
G01X14094Y4147D01*
G01X14080Y4167D01*
G01X14072Y4176D01*
G01X14063Y4185D01*
G01X14054Y4193D01*
G01X14034Y4207D01*
G01X14023Y4213D01*
G01X14001Y4223D01*
G01X13990Y4226D01*
G01X13978Y4229D01*
G01X13954Y4233D01*
G01X13928Y4233D01*
G01X13902Y4229D01*
G01X13890Y4225D01*
G01X13877Y4221D01*
G01X13865Y4216D01*
G01X13860Y4214D01*
G01X13854Y4212D01*
G01X13842Y4212D01*
G01X13837Y4214D01*
G01X13831Y4216D01*
G01X13826Y4218D01*
G01X13814Y4230D01*
G01X13812Y4235D01*
G01X13810Y4241D01*
G01X13808Y4246D01*
G01X13808Y4252D01*
G01X13809Y4259D01*
G01X13811Y4266D01*
G01X13814Y4273D01*
G01X13820Y4283D01*
G01X13825Y4294D01*
G01X13829Y4305D01*
G01X13833Y4317D01*
G01X13836Y4329D01*
G01X13838Y4341D01*
G01X13839Y4353D01*
G01X13839Y4377D01*
G01X13838Y4389D01*
G01X13836Y4401D01*
G01X13833Y4413D01*
G01X13829Y4424D01*
G01X13825Y4436D01*
G01X13819Y4447D01*
G01X13807Y4467D01*
G01X13799Y4477D01*
G01X13783Y4495D01*
G01X13773Y4503D01*
G01X13764Y4510D01*
G01X13754Y4517D01*
G01X13743Y4523D01*
G01X13721Y4533D01*
G01X13697Y4539D01*
G01X13673Y4543D01*
G37*
G36*
G01X12590Y5650D02*
G01X12566Y5650D01*
G01X12554Y5649D01*
G01X12542Y5647D01*
G01X12530Y5644D01*
G01X12508Y5636D01*
G01X12497Y5631D01*
G01X12486Y5625D01*
G01X12466Y5611D01*
G01X12457Y5603D01*
G01X12452Y5599D01*
G01X12447Y5596D01*
G01X12442Y5594D01*
G01X12430Y5592D01*
G01X12423Y5593D01*
G01X12417Y5594D01*
G01X12410Y5597D01*
G01X12405Y5601D01*
G01X12385Y5615D01*
G01X12374Y5621D01*
G01X12363Y5626D01*
G01X12341Y5634D01*
G01X12329Y5637D01*
G01X12317Y5639D01*
G01X12293Y5641D01*
G01X12269Y5639D01*
G01X12257Y5637D01*
G01X12245Y5634D01*
G01X12233Y5630D01*
G01X12222Y5626D01*
G01X12211Y5621D01*
G01X12200Y5615D01*
G01X12190Y5608D01*
G01X12180Y5600D01*
G01X12162Y5584D01*
G01X12154Y5575D01*
G01X12140Y5555D01*
G01X12134Y5544D01*
G01X12129Y5533D01*
G01X12125Y5522D01*
G01X12121Y5510D01*
G01X12118Y5498D01*
G01X12116Y5486D01*
G01X12114Y5462D01*
G01X12116Y5438D01*
G01X12118Y5426D01*
G01X12121Y5414D01*
G01X12125Y5402D01*
G01X12129Y5391D01*
G01X12134Y5380D01*
G01X12140Y5369D01*
G01X12147Y5359D01*
G01X12154Y5350D01*
G01X12162Y5340D01*
G01X12180Y5324D01*
G01X12190Y5316D01*
G01X12200Y5310D01*
G01X12222Y5298D01*
G01X12233Y5294D01*
G01X12245Y5290D01*
G01X12257Y5287D01*
G01X12269Y5285D01*
G01X12281Y5284D01*
G01X12305Y5284D01*
G01X12317Y5285D01*
G01X12329Y5287D01*
G01X12341Y5290D01*
G01X12363Y5298D01*
G01X12374Y5303D01*
G01X12385Y5309D01*
G01X12405Y5323D01*
G01X12414Y5331D01*
G01X12419Y5335D01*
G01X12424Y5338D01*
G01X12429Y5340D01*
G01X12441Y5342D01*
G01X12448Y5341D01*
G01X12454Y5340D01*
G01X12461Y5337D01*
G01X12466Y5333D01*
G01X12486Y5319D01*
G01X12497Y5313D01*
G01X12508Y5308D01*
G01X12530Y5300D01*
G01X12542Y5297D01*
G01X12554Y5295D01*
G01X12566Y5294D01*
G01X12590Y5294D01*
G01X12602Y5295D01*
G01X12615Y5297D01*
G01X12626Y5300D01*
G01X12638Y5304D01*
G01X12649Y5308D01*
G01X12660Y5314D01*
G01X12671Y5319D01*
G01X12681Y5326D01*
G01X12691Y5334D01*
G01X12709Y5350D01*
G01X12717Y5359D01*
G01X12731Y5379D01*
G01X12737Y5390D01*
G01X12742Y5401D01*
G01X12746Y5412D01*
G01X12750Y5424D01*
G01X12753Y5436D01*
G01X12755Y5448D01*
G01X12757Y5472D01*
G01X12755Y5496D01*
G01X12753Y5508D01*
G01X12750Y5520D01*
G01X12746Y5532D01*
G01X12742Y5543D01*
G01X12737Y5554D01*
G01X12731Y5565D01*
G01X12724Y5575D01*
G01X12717Y5584D01*
G01X12709Y5594D01*
G01X12691Y5610D01*
G01X12681Y5618D01*
G01X12671Y5624D01*
G01X12649Y5636D01*
G01X12638Y5640D01*
G01X12626Y5644D01*
G01X12615Y5647D01*
G01X12602Y5649D01*
G01X12590Y5650D01*
G37*

%LPD*%
G36*
G01X13921Y1660D02*
G01X13437Y1660D01*
G01X13431Y1659D01*
G01X13426Y1658D01*
G01X13420Y1656D01*
G01X13415Y1653D01*
G01X13411Y1650D01*
G01X13407Y1646D01*
G01X13403Y1641D01*
G01X13399Y1631D01*
G01X13397Y1625D01*
G01X13397Y1620D01*
G01X13398Y1613D01*
G01X13399Y1607D01*
G01X13401Y1602D01*
G01X13405Y1596D01*
G01X13409Y1591D01*
G01X13775Y1225D01*
G01X13780Y1221D01*
G01X13785Y1218D01*
G01X13791Y1215D01*
G01X13803Y1213D01*
G01X14590Y1213D01*
G01X14602Y1215D01*
G01X14608Y1218D01*
G01X14613Y1221D01*
G01X14618Y1225D01*
G01X14827Y1434D01*
G01X14831Y1439D01*
G01X14834Y1444D01*
G01X14837Y1450D01*
G01X14839Y1462D01*
G01X14839Y1595D01*
G01X14837Y1607D01*
G01X14835Y1612D01*
G01X14829Y1622D01*
G01X14825Y1626D01*
G01X14815Y1632D01*
G01X14810Y1634D01*
G01X14804Y1635D01*
G01X14793Y1635D01*
G01X14787Y1634D01*
G01X14782Y1632D01*
G01X14777Y1629D01*
G01X14772Y1625D01*
G01X14768Y1621D01*
G01X14765Y1617D01*
G01X14762Y1611D01*
G01X14760Y1606D01*
G01X14757Y1594D01*
G01X14752Y1582D01*
G01X14747Y1571D01*
G01X14741Y1560D01*
G01X14727Y1540D01*
G01X14719Y1531D01*
G01X14710Y1522D01*
G01X14701Y1514D01*
G01X14691Y1506D01*
G01X14680Y1499D01*
G01X14670Y1493D01*
G01X14658Y1488D01*
G01X14647Y1483D01*
G01X14635Y1479D01*
G01X14623Y1476D01*
G01X14611Y1474D01*
G01X14598Y1473D01*
G01X14574Y1473D01*
G01X14562Y1474D01*
G01X14549Y1476D01*
G01X14538Y1479D01*
G01X14526Y1483D01*
G01X14514Y1488D01*
G01X14503Y1493D01*
G01X14493Y1499D01*
G01X14482Y1506D01*
G01X14472Y1513D01*
G01X14463Y1521D01*
G01X14454Y1530D01*
G01X14446Y1539D01*
G01X14432Y1559D01*
G01X14426Y1570D01*
G01X14416Y1592D01*
G01X14410Y1616D01*
G01X14408Y1622D01*
G01X14402Y1632D01*
G01X14398Y1637D01*
G01X14393Y1641D01*
G01X14388Y1644D01*
G01X14382Y1646D01*
G01X14377Y1647D01*
G01X14370Y1648D01*
G01X14358Y1646D01*
G01X14352Y1643D01*
G01X14347Y1640D01*
G01X14342Y1636D01*
G01X14338Y1631D01*
G01X14335Y1626D01*
G01X14332Y1620D01*
G01X14329Y1602D01*
G01X14326Y1591D01*
G01X14322Y1579D01*
G01X14317Y1568D01*
G01X14311Y1557D01*
G01X14299Y1537D01*
G01X14291Y1527D01*
G01X14283Y1518D01*
G01X14265Y1502D01*
G01X14245Y1488D01*
G01X14235Y1482D01*
G01X14224Y1477D01*
G01X14212Y1473D01*
G01X14201Y1469D01*
G01X14189Y1466D01*
G01X14177Y1464D01*
G01X14165Y1463D01*
G01X14140Y1463D01*
G01X14116Y1467D01*
G01X14103Y1470D01*
G01X14091Y1474D01*
G01X14080Y1478D01*
G01X14058Y1490D01*
G01X14047Y1497D01*
G01X14037Y1505D01*
G01X14028Y1513D01*
G01X14019Y1522D01*
G01X14011Y1532D01*
G01X14004Y1542D01*
G01X13997Y1553D01*
G01X13991Y1564D01*
G01X13986Y1575D01*
G01X13978Y1599D01*
G01X13976Y1611D01*
G01X13972Y1623D01*
G01X13968Y1628D01*
G01X13964Y1632D01*
G01X13949Y1648D01*
G01X13944Y1652D01*
G01X13939Y1655D01*
G01X13933Y1658D01*
G01X13921Y1660D01*
G37*

%LPD*%
G36*
G01X15611Y4488D02*
G01X15384Y4488D01*
G01X15372Y4486D01*
G01X15367Y4484D01*
G01X15357Y4478D01*
G01X15353Y4474D01*
G01X15347Y4464D01*
G01X15345Y4459D01*
G01X15344Y4453D01*
G01X15344Y2613D01*
G01X15342Y2591D01*
G01X15340Y2580D01*
G01X15337Y2569D01*
G01X15333Y2559D01*
G01X15323Y2539D01*
G01X15317Y2530D01*
G01X15310Y2521D01*
G01X15132Y2343D01*
G01X15128Y2338D01*
G01X15125Y2333D01*
G01X15122Y2327D01*
G01X15121Y2321D01*
G01X15120Y2314D01*
G01X15120Y2212D01*
G01X15121Y2201D01*
G01X15121Y1387D01*
G01X15119Y1365D01*
G01X15117Y1354D01*
G01X15114Y1344D01*
G01X15110Y1333D01*
G01X15105Y1323D01*
G01X15100Y1314D01*
G01X15094Y1304D01*
G01X15080Y1288D01*
G01X15068Y1276D01*
G01X15062Y1264D01*
G01X15061Y1258D01*
G01X15061Y1246D01*
G01X15062Y1240D01*
G01X15064Y1235D01*
G01X15067Y1230D01*
G01X15071Y1225D01*
G01X15075Y1221D01*
G01X15084Y1213D01*
G01X15093Y1204D01*
G01X15101Y1195D01*
G01X15109Y1185D01*
G01X15121Y1163D01*
G01X15124Y1158D01*
G01X15133Y1149D01*
G01X15145Y1143D01*
G01X15157Y1141D01*
G01X15169Y1143D01*
G01X15181Y1149D01*
G01X15185Y1153D01*
G01X15193Y1163D01*
G01X15205Y1185D01*
G01X15213Y1195D01*
G01X15221Y1204D01*
G01X15230Y1213D01*
G01X15239Y1221D01*
G01X15249Y1229D01*
G01X15259Y1236D01*
G01X15270Y1242D01*
G01X15281Y1247D01*
G01X15293Y1252D01*
G01X15305Y1256D01*
G01X15317Y1259D01*
G01X15329Y1261D01*
G01X15341Y1262D01*
G01X15354Y1263D01*
G01X15378Y1261D01*
G01X15390Y1259D01*
G01X15402Y1256D01*
G01X15426Y1248D01*
G01X15448Y1236D01*
G01X15458Y1230D01*
G01X15468Y1222D01*
G01X15477Y1214D01*
G01X15486Y1205D01*
G01X15494Y1196D01*
G01X15508Y1176D01*
G01X15514Y1165D01*
G01X15524Y1143D01*
G01X15530Y1119D01*
G01X15534Y1095D01*
G01X15534Y1070D01*
G01X15530Y1044D01*
G01X15527Y1032D01*
G01X15523Y1020D01*
G01X15518Y1008D01*
G01X15513Y997D01*
G01X15506Y986D01*
G01X15499Y976D01*
G01X15491Y966D01*
G01X15487Y960D01*
G01X15484Y954D01*
G01X15482Y940D01*
G01X15482Y934D01*
G01X15486Y922D01*
G01X15489Y917D01*
G01X15493Y912D01*
G01X15498Y908D01*
G01X15503Y905D01*
G01X15509Y902D01*
G01X15521Y900D01*
G01X15531Y899D01*
G01X15568Y894D01*
G01X15581Y892D01*
G01X15607Y885D01*
G01X15617Y884D01*
G01X15623Y884D01*
G01X15629Y886D01*
G01X15639Y890D01*
G01X15651Y902D01*
G01X15654Y907D01*
G01X15656Y913D01*
G01X15657Y918D01*
G01X15657Y924D01*
G01X15656Y1665D01*
G01X15654Y1677D01*
G01X15652Y1683D01*
G01X15644Y1693D01*
G01X15639Y1697D01*
G01X15634Y1700D01*
G01X15628Y1703D01*
G01X15616Y1707D01*
G01X15605Y1712D01*
G01X15594Y1718D01*
G01X15583Y1725D01*
G01X15573Y1732D01*
G01X15563Y1740D01*
G01X15554Y1749D01*
G01X15546Y1758D01*
G01X15538Y1768D01*
G01X15524Y1790D01*
G01X15519Y1801D01*
G01X15514Y1813D01*
G01X15510Y1825D01*
G01X15507Y1837D01*
G01X15505Y1849D01*
G01X15503Y1875D01*
G01X15504Y1887D01*
G01X15505Y1900D01*
G01X15507Y1912D01*
G01X15510Y1924D01*
G01X15514Y1936D01*
G01X15519Y1948D01*
G01X15524Y1959D01*
G01X15531Y1970D01*
G01X15545Y1990D01*
G01X15554Y2000D01*
G01X15563Y2008D01*
G01X15572Y2017D01*
G01X15583Y2024D01*
G01X15593Y2031D01*
G01X15604Y2037D01*
G01X15616Y2042D01*
G01X15628Y2046D01*
G01X15633Y2048D01*
G01X15639Y2052D01*
G01X15643Y2056D01*
G01X15648Y2060D01*
G01X15651Y2066D01*
G01X15655Y2078D01*
G01X15655Y2084D01*
G01X15654Y2609D01*
G01X15654Y2616D01*
G01X15650Y2628D01*
G01X15642Y2638D01*
G01X15626Y2656D01*
G01X15619Y2665D01*
G01X15613Y2676D01*
G01X15607Y2686D01*
G01X15602Y2697D01*
G01X15598Y2708D01*
G01X15595Y2720D01*
G01X15592Y2731D01*
G01X15591Y2737D01*
G01X15585Y2747D01*
G01X15581Y2752D01*
G01X15559Y2774D01*
G01X15552Y2782D01*
G01X15545Y2791D01*
G01X15533Y2809D01*
G01X15529Y2820D01*
G01X15525Y2830D01*
G01X15522Y2841D01*
G01X15520Y2851D01*
G01X15518Y2862D01*
G01X15518Y4050D01*
G01X15516Y4062D01*
G01X15514Y4068D01*
G01X15511Y4073D01*
G01X15504Y4084D01*
G01X15498Y4096D01*
G01X15493Y4108D01*
G01X15488Y4121D01*
G01X15485Y4133D01*
G01X15482Y4146D01*
G01X15481Y4159D01*
G01X15481Y4185D01*
G01X15482Y4197D01*
G01X15484Y4209D01*
G01X15487Y4220D01*
G01X15491Y4232D01*
G01X15495Y4243D01*
G01X15500Y4254D01*
G01X15506Y4264D01*
G01X15512Y4275D01*
G01X15520Y4284D01*
G01X15527Y4293D01*
G01X15536Y4302D01*
G01X15545Y4310D01*
G01X15554Y4317D01*
G01X15564Y4324D01*
G01X15575Y4330D01*
G01X15597Y4340D01*
G01X15608Y4344D01*
G01X15620Y4347D01*
G01X15626Y4349D01*
G01X15631Y4351D01*
G01X15636Y4354D01*
G01X15640Y4359D01*
G01X15644Y4363D01*
G01X15647Y4368D01*
G01X15651Y4380D01*
G01X15651Y4453D01*
G01X15649Y4459D01*
G01X15645Y4469D01*
G01X15641Y4474D01*
G01X15637Y4478D01*
G01X15633Y4481D01*
G01X15628Y4484D01*
G01X15622Y4486D01*
G01X15617Y4487D01*
G01X15611Y4488D01*
G37*

%LPD*%
G36*
G01X12064Y1992D02*
G01X11268Y1992D01*
G01X11256Y1990D01*
G01X11251Y1988D01*
G01X11241Y1982D01*
G01X11237Y1978D01*
G01X11231Y1968D01*
G01X11229Y1963D01*
G01X11228Y1957D01*
G01X11228Y1945D01*
G01X11230Y1938D01*
G01X11233Y1931D01*
G01X11238Y1922D01*
G01X11243Y1912D01*
G01X11249Y1892D01*
G01X11251Y1881D01*
G01X11252Y1870D01*
G01X11253Y1860D01*
G01X11253Y883D01*
G01X11254Y877D01*
G01X11256Y872D01*
G01X11262Y862D01*
G01X11267Y858D01*
G01X11271Y855D01*
G01X11276Y852D01*
G01X11281Y850D01*
G01X11293Y848D01*
G01X11299Y849D01*
G01X11306Y851D01*
G01X11312Y853D01*
G01X11323Y859D01*
G01X11335Y865D01*
G01X11370Y879D01*
G01X11382Y883D01*
G01X11418Y892D01*
G01X11431Y894D01*
G01X11468Y899D01*
G01X11481Y900D01*
G01X11518Y900D01*
G01X11531Y899D01*
G01X11568Y894D01*
G01X11581Y892D01*
G01X11617Y883D01*
G01X11629Y879D01*
G01X11641Y874D01*
G01X11648Y872D01*
G01X11655Y871D01*
G01X11662Y872D01*
G01X11668Y873D01*
G01X11674Y876D01*
G01X11679Y879D01*
G01X11684Y883D01*
G01X11828Y1027D01*
G01X11837Y1034D01*
G01X11846Y1040D01*
G01X11855Y1045D01*
G01X11866Y1050D01*
G01X11876Y1054D01*
G01X11887Y1057D01*
G01X11897Y1059D01*
G01X11908Y1060D01*
G01X11920Y1061D01*
G01X12673Y1061D01*
G01X12685Y1060D01*
G01X12696Y1059D01*
G01X12708Y1056D01*
G01X12719Y1053D01*
G01X12729Y1049D01*
G01X12740Y1044D01*
G01X12746Y1041D01*
G01X12752Y1040D01*
G01X12759Y1039D01*
G01X12771Y1041D01*
G01X12776Y1043D01*
G01X12782Y1047D01*
G01X12790Y1055D01*
G01X12794Y1060D01*
G01X12798Y1072D01*
G01X12798Y1078D01*
G01X12799Y1090D01*
G01X12801Y1103D01*
G01X12807Y1127D01*
G01X12811Y1139D01*
G01X12816Y1150D01*
G01X12822Y1161D01*
G01X12829Y1172D01*
G01X12836Y1182D01*
G01X12844Y1191D01*
G01X12862Y1209D01*
G01X12882Y1223D01*
G01X12893Y1230D01*
G01X12904Y1235D01*
G01X12916Y1240D01*
G01X12928Y1244D01*
G01X12940Y1247D01*
G01X12952Y1249D01*
G01X12964Y1250D01*
G01X12977Y1251D01*
G01X13001Y1249D01*
G01X13013Y1247D01*
G01X13025Y1244D01*
G01X13036Y1240D01*
G01X13048Y1236D01*
G01X13059Y1231D01*
G01X13069Y1225D01*
G01X13076Y1222D01*
G01X13083Y1220D01*
G01X13090Y1219D01*
G01X13096Y1219D01*
G01X13102Y1221D01*
G01X13107Y1223D01*
G01X13117Y1229D01*
G01X13121Y1234D01*
G01X13124Y1238D01*
G01X13131Y1249D01*
G01X13139Y1259D01*
G01X13148Y1269D01*
G01X13157Y1278D01*
G01X13166Y1286D01*
G01X13177Y1294D01*
G01X13188Y1301D01*
G01X13199Y1307D01*
G01X13211Y1312D01*
G01X13216Y1314D01*
G01X13221Y1318D01*
G01X13225Y1322D01*
G01X13229Y1327D01*
G01X13232Y1332D01*
G01X13234Y1337D01*
G01X13236Y1349D01*
G01X13234Y1361D01*
G01X13231Y1367D01*
G01X13228Y1372D01*
G01X13224Y1377D01*
G01X13121Y1481D01*
G01X13116Y1485D01*
G01X13111Y1488D01*
G01X13099Y1492D01*
G01X12657Y1492D01*
G01X12645Y1493D01*
G01X12632Y1495D01*
G01X12620Y1497D01*
G01X12608Y1501D01*
G01X12603Y1503D01*
G01X12591Y1505D01*
G01X12580Y1509D01*
G01X12570Y1514D01*
G01X12559Y1520D01*
G01X12550Y1526D01*
G01X12540Y1533D01*
G01X12093Y1980D01*
G01X12088Y1984D01*
G01X12082Y1987D01*
G01X12077Y1990D01*
G01X12071Y1991D01*
G01X12064Y1992D01*
G37*

%LPD*%
G36*
G01X4069Y959D02*
G01X3637Y959D01*
G01X3631Y958D01*
G01X3626Y957D01*
G01X3620Y955D01*
G01X3615Y952D01*
G01X3611Y949D01*
G01X3607Y945D01*
G01X3603Y940D01*
G01X3599Y930D01*
G01X3597Y924D01*
G01X3597Y912D01*
G01X3601Y900D01*
G01X3609Y890D01*
G01X3613Y886D01*
G01X3619Y883D01*
G01X3664Y865D01*
G01X3676Y859D01*
G01X3709Y841D01*
G01X3719Y835D01*
G01X3750Y812D01*
G01X3760Y804D01*
G01X3769Y796D01*
G01X3774Y792D01*
G01X3779Y789D01*
G01X3785Y787D01*
G01X3790Y785D01*
G01X3802Y785D01*
G01X3808Y786D01*
G01X3813Y789D01*
G01X3818Y791D01*
G01X3833Y803D01*
G01X3843Y810D01*
G01X3855Y817D01*
G01X3866Y823D01*
G01X3878Y828D01*
G01X3890Y832D01*
G01X3903Y835D01*
G01X3916Y837D01*
G01X3928Y839D01*
G01X3954Y839D01*
G01X3966Y838D01*
G01X3979Y835D01*
G01X4003Y829D01*
G01X4009Y827D01*
G01X4016Y826D01*
G01X4023Y827D01*
G01X4029Y828D01*
G01X4034Y831D01*
G01X4040Y834D01*
G01X4045Y838D01*
G01X4097Y890D01*
G01X4101Y895D01*
G01X4104Y900D01*
G01X4107Y906D01*
G01X4108Y912D01*
G01X4109Y919D01*
G01X4108Y924D01*
G01X4107Y930D01*
G01X4105Y935D01*
G01X4099Y945D01*
G01X4095Y949D01*
G01X4085Y955D01*
G01X4080Y957D01*
G01X4074Y958D01*
G01X4069Y959D01*
G37*

%LPD*%
G36*
G01X13486Y1105D02*
G01X13474Y1105D01*
G01X13462Y1101D01*
G01X13457Y1098D01*
G01X13449Y1090D01*
G01X13445Y1085D01*
G01X13443Y1080D01*
G01X13438Y1068D01*
G01X13432Y1057D01*
G01X13418Y1037D01*
G01X13410Y1027D01*
G01X13401Y1018D01*
G01X13392Y1010D01*
G01X13382Y1002D01*
G01X13372Y995D01*
G01X13350Y983D01*
G01X13326Y975D01*
G01X13314Y972D01*
G01X13302Y970D01*
G01X13289Y968D01*
G01X13265Y968D01*
G01X13253Y969D01*
G01X13241Y972D01*
G01X13229Y974D01*
G01X13217Y978D01*
G01X13195Y988D01*
G01X13185Y994D01*
G01X13178Y997D01*
G01X13171Y999D01*
G01X13158Y999D01*
G01X13152Y998D01*
G01X13147Y996D01*
G01X13142Y993D01*
G01X13137Y989D01*
G01X13133Y985D01*
G01X13130Y980D01*
G01X13116Y960D01*
G01X13108Y951D01*
G01X13081Y927D01*
G01X13071Y921D01*
G01X13049Y909D01*
G01X13027Y901D01*
G01X13015Y898D01*
G01X12991Y894D01*
G01X12985Y894D01*
G01X12980Y892D01*
G01X12974Y889D01*
G01X12969Y886D01*
G01X12965Y882D01*
G01X12961Y877D01*
G01X12958Y872D01*
G01X12956Y866D01*
G01X12955Y861D01*
G01X12954Y855D01*
G01X12955Y848D01*
G01X12956Y842D01*
G01X12959Y836D01*
G01X12962Y831D01*
G01X12966Y826D01*
G01X13026Y766D01*
G01X13031Y762D01*
G01X13036Y759D01*
G01X13041Y757D01*
G01X13047Y755D01*
G01X13059Y752D01*
G01X13072Y748D01*
G01X13084Y743D01*
G01X13095Y738D01*
G01X13117Y724D01*
G01X13123Y720D01*
G01X13128Y718D01*
G01X13135Y717D01*
G01X13141Y716D01*
G01X13147Y717D01*
G01X13154Y718D01*
G01X13159Y721D01*
G01X13165Y724D01*
G01X13170Y728D01*
G01X13174Y733D01*
G01X13179Y740D01*
G01X13203Y769D01*
G01X13212Y778D01*
G01X13239Y804D01*
G01X13249Y812D01*
G01X13279Y835D01*
G01X13323Y859D01*
G01X13335Y865D01*
G01X13370Y879D01*
G01X13382Y883D01*
G01X13418Y892D01*
G01X13431Y894D01*
G01X13468Y899D01*
G01X13481Y900D01*
G01X13518Y900D01*
G01X13531Y899D01*
G01X13542Y898D01*
G01X13547Y897D01*
G01X13559Y899D01*
G01X13564Y901D01*
G01X13574Y907D01*
G01X13578Y911D01*
G01X13584Y921D01*
G01X13586Y926D01*
G01X13587Y932D01*
G01X13587Y1004D01*
G01X13585Y1010D01*
G01X13583Y1015D01*
G01X13580Y1021D01*
G01X13576Y1026D01*
G01X13508Y1093D01*
G01X13498Y1101D01*
G01X13486Y1105D01*
G37*

%LPD*%
G36*
G01X10936Y1791D02*
G01X10763Y1791D01*
G01X10758Y1789D01*
G01X10752Y1787D01*
G01X10747Y1785D01*
G01X10735Y1773D01*
G01X10733Y1768D01*
G01X10731Y1762D01*
G01X10729Y1757D01*
G01X10729Y1751D01*
G01X10731Y1739D01*
G01X10737Y1727D01*
G01X10741Y1722D01*
G01X10746Y1718D01*
G01X10752Y1715D01*
G01X10763Y1709D01*
G01X10773Y1703D01*
G01X10793Y1687D01*
G01X10802Y1679D01*
G01X10810Y1669D01*
G01X10818Y1660D01*
G01X10825Y1649D01*
G01X10831Y1639D01*
G01X10837Y1627D01*
G01X10841Y1616D01*
G01X10845Y1604D01*
G01X10848Y1592D01*
G01X10850Y1579D01*
G01X10852Y1567D01*
G01X10852Y1543D01*
G01X10846Y1507D01*
G01X10842Y1496D01*
G01X10838Y1484D01*
G01X10833Y1473D01*
G01X10827Y1463D01*
G01X10813Y1443D01*
G01X10797Y1425D01*
G01X10788Y1417D01*
G01X10768Y1403D01*
G01X10753Y1394D01*
G01X10748Y1390D01*
G01X10744Y1385D01*
G01X10741Y1380D01*
G01X10737Y1368D01*
G01X10737Y1357D01*
G01X10738Y1336D01*
G01X10738Y1323D01*
G01X10736Y1310D01*
G01X10734Y1298D01*
G01X10731Y1285D01*
G01X10727Y1273D01*
G01X10722Y1261D01*
G01X10717Y1250D01*
G01X10703Y1228D01*
G01X10695Y1219D01*
G01X10686Y1209D01*
G01X10682Y1204D01*
G01X10679Y1199D01*
G01X10675Y1187D01*
G01X10675Y1175D01*
G01X10679Y1163D01*
G01X10683Y1157D01*
G01X10687Y1153D01*
G01X10697Y1145D01*
G01X10703Y1143D01*
G01X10714Y1139D01*
G01X10736Y1129D01*
G01X10746Y1123D01*
G01X10756Y1116D01*
G01X10766Y1108D01*
G01X10775Y1100D01*
G01X10783Y1092D01*
G01X10791Y1082D01*
G01X10798Y1073D01*
G01X10804Y1063D01*
G01X10810Y1052D01*
G01X10820Y1030D01*
G01X10823Y1018D01*
G01X10826Y1007D01*
G01X10828Y995D01*
G01X10829Y983D01*
G01X10829Y958D01*
G01X10828Y945D01*
G01X10825Y933D01*
G01X10822Y920D01*
G01X10818Y908D01*
G01X10813Y896D01*
G01X10808Y885D01*
G01X10794Y863D01*
G01X10786Y853D01*
G01X10777Y844D01*
G01X10773Y839D01*
G01X10770Y834D01*
G01X10766Y822D01*
G01X10766Y809D01*
G01X10768Y803D01*
G01X10771Y797D01*
G01X10774Y792D01*
G01X10787Y779D01*
G01X10796Y769D01*
G01X10820Y740D01*
G01X10827Y731D01*
G01X10830Y726D01*
G01X10834Y722D01*
G01X10844Y716D01*
G01X10849Y714D01*
G01X10861Y712D01*
G01X10873Y714D01*
G01X10879Y717D01*
G01X10884Y720D01*
G01X10889Y724D01*
G01X10959Y794D01*
G01X10963Y799D01*
G01X10966Y804D01*
G01X10969Y810D01*
G01X10970Y816D01*
G01X10971Y823D01*
G01X10971Y1751D01*
G01X10970Y1757D01*
G01X10969Y1762D01*
G01X10967Y1768D01*
G01X10964Y1773D01*
G01X10961Y1777D01*
G01X10957Y1781D01*
G01X10952Y1785D01*
G01X10942Y1789D01*
G01X10936Y1791D01*
G37*

%LPD*%
G36*
G01X3362Y959D02*
G01X2637Y959D01*
G01X2631Y958D01*
G01X2626Y957D01*
G01X2620Y955D01*
G01X2615Y952D01*
G01X2611Y949D01*
G01X2607Y945D01*
G01X2603Y940D01*
G01X2599Y930D01*
G01X2597Y924D01*
G01X2597Y912D01*
G01X2601Y900D01*
G01X2609Y890D01*
G01X2613Y886D01*
G01X2619Y883D01*
G01X2664Y865D01*
G01X2676Y859D01*
G01X2709Y841D01*
G01X2719Y835D01*
G01X2750Y812D01*
G01X2760Y804D01*
G01X2787Y779D01*
G01X2796Y769D01*
G01X2820Y740D01*
G01X2827Y730D01*
G01X2848Y698D01*
G01X2854Y687D01*
G01X2870Y653D01*
G01X2886Y605D01*
G01X2889Y593D01*
G01X2896Y556D01*
G01X2898Y544D01*
G01X2900Y506D01*
G01X2901Y500D01*
G01X2901Y115D01*
G01X2902Y109D01*
G01X2904Y104D01*
G01X2910Y94D01*
G01X2914Y90D01*
G01X2924Y84D01*
G01X2929Y82D01*
G01X2935Y81D01*
G01X3064Y81D01*
G01X3070Y82D01*
G01X3075Y84D01*
G01X3085Y90D01*
G01X3089Y94D01*
G01X3095Y104D01*
G01X3097Y109D01*
G01X3099Y121D01*
G01X3099Y506D01*
G01X3101Y544D01*
G01X3103Y556D01*
G01X3110Y593D01*
G01X3113Y605D01*
G01X3129Y653D01*
G01X3145Y687D01*
G01X3151Y698D01*
G01X3172Y730D01*
G01X3179Y740D01*
G01X3203Y769D01*
G01X3212Y779D01*
G01X3239Y804D01*
G01X3249Y812D01*
G01X3279Y834D01*
G01X3290Y841D01*
G01X3323Y860D01*
G01X3335Y865D01*
G01X3380Y883D01*
G01X3386Y886D01*
G01X3390Y890D01*
G01X3398Y900D01*
G01X3402Y912D01*
G01X3402Y924D01*
G01X3400Y930D01*
G01X3396Y940D01*
G01X3392Y945D01*
G01X3388Y949D01*
G01X3384Y952D01*
G01X3379Y955D01*
G01X3373Y957D01*
G01X3368Y958D01*
G01X3362Y959D01*
G37*

%LPD*%
G36*
G01X5136Y789D02*
G01X4863Y789D01*
G01X4857Y788D01*
G01X4852Y787D01*
G01X4846Y785D01*
G01X4841Y782D01*
G01X4837Y779D01*
G01X4833Y775D01*
G01X4829Y770D01*
G01X4825Y760D01*
G01X4823Y754D01*
G01X4823Y743D01*
G01X4825Y737D01*
G01X4829Y727D01*
G01X4848Y698D01*
G01X4854Y687D01*
G01X4870Y653D01*
G01X4886Y605D01*
G01X4889Y593D01*
G01X4896Y556D01*
G01X4898Y544D01*
G01X4900Y506D01*
G01X4901Y500D01*
G01X4901Y115D01*
G01X4902Y109D01*
G01X4904Y104D01*
G01X4910Y94D01*
G01X4914Y90D01*
G01X4924Y84D01*
G01X4929Y82D01*
G01X4935Y81D01*
G01X5064Y81D01*
G01X5070Y82D01*
G01X5075Y84D01*
G01X5085Y90D01*
G01X5089Y94D01*
G01X5095Y104D01*
G01X5097Y109D01*
G01X5099Y121D01*
G01X5099Y506D01*
G01X5101Y544D01*
G01X5103Y556D01*
G01X5110Y593D01*
G01X5113Y605D01*
G01X5129Y653D01*
G01X5145Y687D01*
G01X5151Y698D01*
G01X5170Y727D01*
G01X5174Y737D01*
G01X5176Y743D01*
G01X5176Y754D01*
G01X5174Y760D01*
G01X5170Y770D01*
G01X5166Y775D01*
G01X5162Y779D01*
G01X5158Y782D01*
G01X5153Y785D01*
G01X5147Y787D01*
G01X5142Y788D01*
G01X5136Y789D01*
G37*

%LPD*%
G36*
G01X1059Y6919D02*
G01X771Y6919D01*
G01X759Y6917D01*
G01X754Y6915D01*
G01X744Y6909D01*
G01X740Y6905D01*
G01X734Y6895D01*
G01X732Y6890D01*
G01X731Y6884D01*
G01X731Y6872D01*
G01X735Y6860D01*
G01X738Y6855D01*
G01X747Y6846D01*
G01X763Y6834D01*
G01X778Y6822D01*
G01X806Y6796D01*
G01X819Y6782D01*
G01X843Y6752D01*
G01X854Y6736D01*
G01X864Y6720D01*
G01X874Y6703D01*
G01X883Y6686D01*
G01X891Y6668D01*
G01X898Y6650D01*
G01X910Y6614D01*
G01X915Y6595D01*
G01X919Y6576D01*
G01X922Y6557D01*
G01X924Y6538D01*
G01X926Y6500D01*
G01X924Y6462D01*
G01X922Y6443D01*
G01X919Y6425D01*
G01X915Y6406D01*
G01X911Y6388D01*
G01X899Y6352D01*
G01X885Y6318D01*
G01X867Y6284D01*
G01X857Y6268D01*
G01X847Y6253D01*
G01X836Y6238D01*
G01X824Y6223D01*
G01X820Y6217D01*
G01X817Y6211D01*
G01X815Y6204D01*
G01X814Y6197D01*
G01X815Y6191D01*
G01X816Y6186D01*
G01X818Y6180D01*
G01X821Y6175D01*
G01X824Y6171D01*
G01X829Y6167D01*
G01X846Y6150D01*
G01X854Y6141D01*
G01X868Y6121D01*
G01X874Y6110D01*
G01X879Y6099D01*
G01X883Y6088D01*
G01X887Y6076D01*
G01X890Y6064D01*
G01X892Y6052D01*
G01X893Y6040D01*
G01X893Y6016D01*
G01X892Y6003D01*
G01X890Y5991D01*
G01X887Y5979D01*
G01X883Y5968D01*
G01X879Y5956D01*
G01X867Y5934D01*
G01X853Y5914D01*
G01X845Y5905D01*
G01X836Y5896D01*
G01X827Y5888D01*
G01X807Y5874D01*
G01X796Y5868D01*
G01X774Y5858D01*
G01X762Y5854D01*
G01X750Y5851D01*
G01X738Y5849D01*
G01X725Y5848D01*
G01X701Y5848D01*
G01X689Y5849D01*
G01X676Y5851D01*
G01X664Y5854D01*
G01X653Y5858D01*
G01X641Y5863D01*
G01X630Y5868D01*
G01X619Y5874D01*
G01X599Y5888D01*
G01X590Y5896D01*
G01X581Y5905D01*
G01X573Y5914D01*
G01X559Y5934D01*
G01X553Y5945D01*
G01X548Y5956D01*
G01X543Y5968D01*
G01X539Y5979D01*
G01X537Y5991D01*
G01X534Y6003D01*
G01X533Y6016D01*
G01X533Y6034D01*
G01X532Y6039D01*
G01X531Y6045D01*
G01X527Y6055D01*
G01X523Y6060D01*
G01X519Y6064D01*
G01X515Y6067D01*
G01X510Y6070D01*
G01X505Y6072D01*
G01X493Y6074D01*
G01X474Y6074D01*
G01X456Y6076D01*
G01X437Y6078D01*
G01X418Y6081D01*
G01X399Y6085D01*
G01X381Y6090D01*
G01X345Y6102D01*
G01X328Y6110D01*
G01X310Y6118D01*
G01X294Y6127D01*
G01X277Y6136D01*
G01X261Y6146D01*
G01X246Y6157D01*
G01X216Y6181D01*
G01X202Y6194D01*
G01X176Y6222D01*
G01X164Y6236D01*
G01X153Y6252D01*
G01X144Y6261D01*
G01X139Y6264D01*
G01X127Y6268D01*
G01X115Y6268D01*
G01X109Y6267D01*
G01X104Y6265D01*
G01X94Y6259D01*
G01X90Y6255D01*
G01X84Y6245D01*
G01X82Y6240D01*
G01X81Y6234D01*
G01X81Y765D01*
G01X82Y759D01*
G01X84Y754D01*
G01X90Y744D01*
G01X94Y740D01*
G01X104Y734D01*
G01X109Y732D01*
G01X115Y731D01*
G01X127Y731D01*
G01X139Y735D01*
G01X144Y738D01*
G01X153Y747D01*
G01X165Y763D01*
G01X177Y778D01*
G01X203Y806D01*
G01X217Y819D01*
G01X247Y843D01*
G01X263Y854D01*
G01X279Y864D01*
G01X296Y874D01*
G01X313Y883D01*
G01X331Y891D01*
G01X349Y898D01*
G01X385Y910D01*
G01X404Y915D01*
G01X423Y919D01*
G01X442Y922D01*
G01X461Y924D01*
G01X480Y925D01*
G01X500Y926D01*
G01X518Y925D01*
G01X537Y924D01*
G01X555Y922D01*
G01X573Y919D01*
G01X592Y915D01*
G01X610Y911D01*
G01X628Y906D01*
G01X645Y900D01*
G01X663Y893D01*
G01X680Y886D01*
G01X696Y877D01*
G01X713Y868D01*
G01X728Y859D01*
G01X744Y848D01*
G01X759Y837D01*
G01X773Y826D01*
G01X787Y814D01*
G01X801Y801D01*
G01X814Y787D01*
G01X826Y773D01*
G01X837Y759D01*
G01X848Y744D01*
G01X859Y728D01*
G01X868Y713D01*
G01X877Y696D01*
G01X886Y680D01*
G01X893Y663D01*
G01X900Y645D01*
G01X906Y628D01*
G01X911Y610D01*
G01X915Y592D01*
G01X919Y573D01*
G01X922Y555D01*
G01X924Y537D01*
G01X925Y518D01*
G01X926Y500D01*
G01X925Y480D01*
G01X924Y461D01*
G01X922Y442D01*
G01X919Y423D01*
G01X915Y404D01*
G01X910Y385D01*
G01X898Y349D01*
G01X891Y331D01*
G01X883Y313D01*
G01X874Y296D01*
G01X864Y279D01*
G01X854Y263D01*
G01X843Y247D01*
G01X819Y217D01*
G01X806Y203D01*
G01X778Y177D01*
G01X763Y165D01*
G01X747Y153D01*
G01X738Y144D01*
G01X735Y139D01*
G01X731Y127D01*
G01X731Y115D01*
G01X732Y109D01*
G01X734Y104D01*
G01X740Y94D01*
G01X744Y90D01*
G01X754Y84D01*
G01X759Y82D01*
G01X765Y81D01*
G01X1064Y81D01*
G01X1070Y82D01*
G01X1075Y84D01*
G01X1085Y90D01*
G01X1089Y94D01*
G01X1095Y104D01*
G01X1097Y109D01*
G01X1099Y121D01*
G01X1099Y506D01*
G01X1101Y544D01*
G01X1103Y556D01*
G01X1110Y593D01*
G01X1113Y605D01*
G01X1129Y653D01*
G01X1145Y687D01*
G01X1151Y698D01*
G01X1172Y730D01*
G01X1179Y740D01*
G01X1203Y769D01*
G01X1212Y779D01*
G01X1239Y804D01*
G01X1249Y812D01*
G01X1279Y834D01*
G01X1290Y841D01*
G01X1323Y860D01*
G01X1335Y865D01*
G01X1370Y879D01*
G01X1382Y883D01*
G01X1418Y892D01*
G01X1431Y894D01*
G01X1468Y899D01*
G01X1481Y900D01*
G01X1518Y900D01*
G01X1531Y899D01*
G01X1568Y894D01*
G01X1581Y892D01*
G01X1617Y883D01*
G01X1629Y879D01*
G01X1641Y874D01*
G01X1648Y872D01*
G01X1655Y871D01*
G01X1662Y872D01*
G01X1668Y873D01*
G01X1674Y876D01*
G01X1679Y879D01*
G01X1684Y883D01*
G01X2008Y1207D01*
G01X2017Y1214D01*
G01X2026Y1220D01*
G01X2035Y1225D01*
G01X2046Y1230D01*
G01X2056Y1234D01*
G01X2067Y1237D01*
G01X2077Y1239D01*
G01X2088Y1240D01*
G01X2100Y1241D01*
G01X4173Y1241D01*
G01X4179Y1242D01*
G01X4184Y1244D01*
G01X4194Y1250D01*
G01X4198Y1254D01*
G01X4204Y1264D01*
G01X4206Y1269D01*
G01X4208Y1281D01*
G01X4206Y1293D01*
G01X4204Y1298D01*
G01X4200Y1304D01*
G01X4192Y1312D01*
G01X4182Y1320D01*
G01X4173Y1329D01*
G01X4164Y1339D01*
G01X4156Y1349D01*
G01X4149Y1359D01*
G01X4142Y1370D01*
G01X4136Y1382D01*
G01X4124Y1418D01*
G01X4122Y1431D01*
G01X4121Y1443D01*
G01X4120Y1456D01*
G01X4121Y1469D01*
G01X4122Y1481D01*
G01X4124Y1493D01*
G01X4127Y1505D01*
G01X4131Y1517D01*
G01X4135Y1528D01*
G01X4147Y1550D01*
G01X4153Y1560D01*
G01X4161Y1570D01*
G01X4169Y1579D01*
G01X4178Y1588D01*
G01X4187Y1596D01*
G01X4197Y1604D01*
G01X4207Y1610D01*
G01X4229Y1622D01*
G01X4240Y1626D01*
G01X4252Y1630D01*
G01X4264Y1633D01*
G01X4276Y1635D01*
G01X4288Y1636D01*
G01X4301Y1637D01*
G01X4325Y1635D01*
G01X4337Y1633D01*
G01X4349Y1630D01*
G01X4373Y1622D01*
G01X4384Y1616D01*
G01X4394Y1610D01*
G01X4405Y1604D01*
G01X4415Y1596D01*
G01X4424Y1588D01*
G01X4433Y1579D01*
G01X4441Y1570D01*
G01X4455Y1550D01*
G01X4461Y1539D01*
G01X4471Y1517D01*
G01X4477Y1493D01*
G01X4481Y1469D01*
G01X4481Y1443D01*
G01X4479Y1431D01*
G01X4477Y1418D01*
G01X4474Y1406D01*
G01X4470Y1394D01*
G01X4465Y1382D01*
G01X4459Y1370D01*
G01X4453Y1359D01*
G01X4429Y1329D01*
G01X4419Y1320D01*
G01X4410Y1312D01*
G01X4405Y1308D01*
G01X4401Y1304D01*
G01X4398Y1298D01*
G01X4396Y1293D01*
G01X4394Y1287D01*
G01X4394Y1275D01*
G01X4395Y1269D01*
G01X4397Y1264D01*
G01X4403Y1254D01*
G01X4407Y1250D01*
G01X4417Y1244D01*
G01X4422Y1242D01*
G01X4428Y1241D01*
G01X5103Y1241D01*
G01X5109Y1242D01*
G01X5114Y1244D01*
G01X5124Y1250D01*
G01X5128Y1254D01*
G01X5134Y1264D01*
G01X5136Y1269D01*
G01X5137Y1275D01*
G01X5137Y1287D01*
G01X5135Y1303D01*
G01X5134Y1318D01*
G01X5134Y1331D01*
G01X5138Y1355D01*
G01X5144Y1379D01*
G01X5154Y1401D01*
G01X5160Y1412D01*
G01X5167Y1422D01*
G01X5183Y1442D01*
G01X5191Y1450D01*
G01X5201Y1458D01*
G01X5210Y1466D01*
G01X5221Y1472D01*
G01X5231Y1479D01*
G01X5243Y1484D01*
G01X5254Y1488D01*
G01X5266Y1492D01*
G01X5278Y1495D01*
G01X5290Y1497D01*
G01X5314Y1499D01*
G01X5327Y1498D01*
G01X5339Y1497D01*
G01X5351Y1495D01*
G01X5363Y1492D01*
G01X5375Y1488D01*
G01X5386Y1484D01*
G01X5397Y1479D01*
G01X5408Y1472D01*
G01X5418Y1466D01*
G01X5438Y1450D01*
G01X5446Y1442D01*
G01X5462Y1422D01*
G01X5468Y1412D01*
G01X5475Y1401D01*
G01X5480Y1390D01*
G01X5484Y1379D01*
G01X5488Y1367D01*
G01X5491Y1355D01*
G01X5493Y1343D01*
G01X5494Y1331D01*
G01X5495Y1318D01*
G01X5494Y1303D01*
G01X5492Y1287D01*
G01X5491Y1281D01*
G01X5493Y1269D01*
G01X5495Y1264D01*
G01X5501Y1254D01*
G01X5505Y1250D01*
G01X5515Y1244D01*
G01X5520Y1242D01*
G01X5526Y1241D01*
G01X7116Y1241D01*
G01X7122Y1242D01*
G01X7127Y1244D01*
G01X7137Y1250D01*
G01X7141Y1254D01*
G01X7147Y1264D01*
G01X7149Y1269D01*
G01X7151Y1281D01*
G01X7149Y1293D01*
G01X7146Y1298D01*
G01X7143Y1304D01*
G01X7135Y1312D01*
G01X7125Y1320D01*
G01X7116Y1329D01*
G01X7107Y1339D01*
G01X7099Y1349D01*
G01X7092Y1359D01*
G01X7085Y1370D01*
G01X7079Y1382D01*
G01X7074Y1394D01*
G01X7070Y1406D01*
G01X7067Y1418D01*
G01X7065Y1431D01*
G01X7064Y1443D01*
G01X7063Y1456D01*
G01X7064Y1469D01*
G01X7065Y1483D01*
G01X7071Y1509D01*
G01X7075Y1521D01*
G01X7081Y1533D01*
G01X7083Y1539D01*
G01X7084Y1545D01*
G01X7084Y1557D01*
G01X7080Y1569D01*
G01X7074Y1580D01*
G01X7066Y1604D01*
G01X7063Y1616D01*
G01X7061Y1628D01*
G01X7059Y1641D01*
G01X7059Y1665D01*
G01X7061Y1678D01*
G01X7063Y1690D01*
G01X7066Y1702D01*
G01X7069Y1713D01*
G01X7074Y1725D01*
G01X7079Y1736D01*
G01X7085Y1747D01*
G01X7092Y1757D01*
G01X7100Y1767D01*
G01X7116Y1785D01*
G01X7126Y1793D01*
G01X7135Y1800D01*
G01X7146Y1807D01*
G01X7156Y1813D01*
G01X7168Y1818D01*
G01X7179Y1823D01*
G01X7191Y1827D01*
G01X7203Y1830D01*
G01X7215Y1832D01*
G01X7227Y1833D01*
G01X7252Y1833D01*
G01X7264Y1832D01*
G01X7276Y1830D01*
G01X7288Y1827D01*
G01X7300Y1823D01*
G01X7322Y1813D01*
G01X7333Y1807D01*
G01X7353Y1793D01*
G01X7363Y1785D01*
G01X7379Y1767D01*
G01X7387Y1757D01*
G01X7393Y1747D01*
G01X7400Y1736D01*
G01X7405Y1725D01*
G01X7409Y1713D01*
G01X7413Y1702D01*
G01X7416Y1690D01*
G01X7418Y1678D01*
G01X7419Y1665D01*
G01X7420Y1653D01*
G01X7418Y1627D01*
G01X7415Y1613D01*
G01X7412Y1601D01*
G01X7408Y1588D01*
G01X7402Y1576D01*
G01X7400Y1570D01*
G01X7399Y1565D01*
G01X7399Y1552D01*
G01X7403Y1540D01*
G01X7409Y1529D01*
G01X7417Y1505D01*
G01X7420Y1493D01*
G01X7424Y1469D01*
G01X7424Y1443D01*
G01X7422Y1431D01*
G01X7420Y1418D01*
G01X7417Y1406D01*
G01X7413Y1394D01*
G01X7408Y1382D01*
G01X7402Y1370D01*
G01X7396Y1359D01*
G01X7372Y1329D01*
G01X7362Y1320D01*
G01X7352Y1312D01*
G01X7344Y1304D01*
G01X7341Y1298D01*
G01X7338Y1293D01*
G01X7337Y1287D01*
G01X7337Y1275D01*
G01X7338Y1269D01*
G01X7340Y1264D01*
G01X7346Y1254D01*
G01X7350Y1250D01*
G01X7360Y1244D01*
G01X7365Y1242D01*
G01X7371Y1241D01*
G01X7915Y1241D01*
G01X7921Y1242D01*
G01X7927Y1245D01*
G01X7932Y1248D01*
G01X7937Y1252D01*
G01X8319Y1635D01*
G01X8328Y1642D01*
G01X8337Y1650D01*
G01X8357Y1662D01*
G01X8379Y1670D01*
G01X8384Y1672D01*
G01X8394Y1678D01*
G01X8398Y1682D01*
G01X8404Y1692D01*
G01X8406Y1697D01*
G01X8407Y1703D01*
G01X8407Y1714D01*
G01X8406Y1720D01*
G01X8404Y1725D01*
G01X8401Y1730D01*
G01X8397Y1734D01*
G01X8393Y1739D01*
G01X8389Y1742D01*
G01X8384Y1745D01*
G01X8378Y1747D01*
G01X8373Y1748D01*
G01X8031Y1748D01*
G01X8019Y1744D01*
G01X8014Y1741D01*
G01X8009Y1737D01*
G01X7924Y1652D01*
G01X7920Y1647D01*
G01X7917Y1642D01*
G01X7915Y1637D01*
G01X7913Y1631D01*
G01X7911Y1619D01*
G01X7903Y1595D01*
G01X7898Y1583D01*
G01X7892Y1572D01*
G01X7878Y1552D01*
G01X7869Y1542D01*
G01X7861Y1533D01*
G01X7841Y1517D01*
G01X7831Y1510D01*
G01X7809Y1498D01*
G01X7797Y1493D01*
G01X7785Y1490D01*
G01X7773Y1486D01*
G01X7761Y1484D01*
G01X7748Y1483D01*
G01X7723Y1483D01*
G01X7711Y1484D01*
G01X7699Y1486D01*
G01X7687Y1489D01*
G01X7675Y1493D01*
G01X7664Y1497D01*
G01X7642Y1509D01*
G01X7622Y1523D01*
G01X7613Y1531D01*
G01X7604Y1540D01*
G01X7596Y1549D01*
G01X7588Y1559D01*
G01X7582Y1569D01*
G01X7570Y1591D01*
G01X7566Y1603D01*
G01X7562Y1614D01*
G01X7559Y1626D01*
G01X7557Y1638D01*
G01X7556Y1651D01*
G01X7555Y1663D01*
G01X7556Y1675D01*
G01X7557Y1688D01*
G01X7559Y1700D01*
G01X7562Y1712D01*
G01X7566Y1724D01*
G01X7571Y1736D01*
G01X7576Y1747D01*
G01X7590Y1769D01*
G01X7597Y1779D01*
G01X7615Y1797D01*
G01X7624Y1805D01*
G01X7634Y1812D01*
G01X7645Y1819D01*
G01X7656Y1825D01*
G01X7668Y1830D01*
G01X7679Y1834D01*
G01X7691Y1838D01*
G01X7704Y1840D01*
G01X7710Y1842D01*
G01X7715Y1844D01*
G01X7720Y1848D01*
G01X7725Y1851D01*
G01X7832Y1958D01*
G01X7836Y1963D01*
G01X7839Y1968D01*
G01X7843Y1980D01*
G01X7843Y1993D01*
G01X7839Y2005D01*
G01X7835Y2011D01*
G01X7831Y2016D01*
G01X7825Y2020D01*
G01X7814Y2028D01*
G01X7803Y2038D01*
G01X6837Y3004D01*
G01X6827Y3012D01*
G01X6821Y3014D01*
G01X6809Y3016D01*
G01X5843Y3016D01*
G01X5821Y3020D01*
G01X5810Y3023D01*
G01X5790Y3031D01*
G01X5780Y3037D01*
G01X5771Y3043D01*
G01X5762Y3050D01*
G01X5754Y3057D01*
G01X5612Y3199D01*
G01X5602Y3207D01*
G01X5596Y3209D01*
G01X5584Y3211D01*
G01X5572Y3209D01*
G01X5566Y3207D01*
G01X5561Y3204D01*
G01X5556Y3200D01*
G01X5552Y3196D01*
G01X5549Y3191D01*
G01X5546Y3185D01*
G01X5544Y3173D01*
G01X5543Y3161D01*
G01X5541Y3149D01*
G01X5538Y3137D01*
G01X5530Y3113D01*
G01X5518Y3091D01*
G01X5512Y3081D01*
G01X5496Y3061D01*
G01X5487Y3053D01*
G01X5478Y3044D01*
G01X5458Y3030D01*
G01X5436Y3018D01*
G01X5425Y3014D01*
G01X5413Y3010D01*
G01X5401Y3007D01*
G01X5388Y3005D01*
G01X5364Y3003D01*
G01X5351Y3004D01*
G01X5339Y3005D01*
G01X5327Y3007D01*
G01X5315Y3010D01*
G01X5303Y3014D01*
G01X5292Y3018D01*
G01X5270Y3030D01*
G01X5260Y3036D01*
G01X5250Y3044D01*
G01X5241Y3052D01*
G01X5232Y3061D01*
G01X5224Y3070D01*
G01X5216Y3080D01*
G01X5210Y3090D01*
G01X5198Y3112D01*
G01X5194Y3123D01*
G01X5190Y3135D01*
G01X5187Y3147D01*
G01X5185Y3159D01*
G01X5184Y3171D01*
G01X5183Y3184D01*
G01X5183Y3196D01*
G01X5182Y3201D01*
G01X5180Y3207D01*
G01X5177Y3212D01*
G01X5174Y3216D01*
G01X5170Y3220D01*
G01X5165Y3224D01*
G01X5155Y3228D01*
G01X5149Y3230D01*
G01X5121Y3230D01*
G01X5109Y3231D01*
G01X5097Y3234D01*
G01X5085Y3236D01*
G01X5073Y3240D01*
G01X5051Y3250D01*
G01X5040Y3256D01*
G01X5020Y3270D01*
G01X5011Y3278D01*
G01X5002Y3287D01*
G01X4994Y3296D01*
G01X4986Y3306D01*
G01X4980Y3316D01*
G01X4968Y3338D01*
G01X4964Y3350D01*
G01X4960Y3361D01*
G01X4957Y3373D01*
G01X4955Y3386D01*
G01X4953Y3410D01*
G01X4954Y3423D01*
G01X4955Y3435D01*
G01X4957Y3447D01*
G01X4960Y3460D01*
G01X4964Y3472D01*
G01X4974Y3494D01*
G01X4981Y3505D01*
G01X4987Y3516D01*
G01X4995Y3526D01*
G01X5004Y3535D01*
G01X5012Y3544D01*
G01X5022Y3552D01*
G01X5032Y3559D01*
G01X5043Y3566D01*
G01X5054Y3572D01*
G01X5065Y3577D01*
G01X5089Y3585D01*
G01X5101Y3587D01*
G01X5114Y3589D01*
G01X5126Y3590D01*
G01X5132Y3591D01*
G01X5144Y3595D01*
G01X5149Y3599D01*
G01X5157Y3607D01*
G01X5160Y3613D01*
G01X5163Y3618D01*
G01X5164Y3624D01*
G01X5164Y3637D01*
G01X5162Y3643D01*
G01X5160Y3648D01*
G01X5157Y3654D01*
G01X5153Y3659D01*
G01X4929Y3882D01*
G01X4919Y3890D01*
G01X4913Y3892D01*
G01X4901Y3894D01*
G01X4515Y3894D01*
G01X4509Y3893D01*
G01X4504Y3892D01*
G01X4498Y3890D01*
G01X4493Y3888D01*
G01X4481Y3876D01*
G01X4478Y3871D01*
G01X4476Y3865D01*
G01X4475Y3860D01*
G01X4475Y3848D01*
G01X4479Y3836D01*
G01X4482Y3830D01*
G01X4486Y3826D01*
G01X4509Y3804D01*
G01X4516Y3795D01*
G01X4523Y3787D01*
G01X4529Y3777D01*
G01X4535Y3768D01*
G01X4539Y3758D01*
G01X4543Y3747D01*
G01X4546Y3737D01*
G01X4548Y3726D01*
G01X4550Y3704D01*
G01X4550Y2440D01*
G01X4554Y2428D01*
G01X4562Y2418D01*
G01X4605Y2375D01*
G01X4612Y2366D01*
G01X4618Y2357D01*
G01X4628Y2337D01*
G01X4632Y2327D01*
G01X4635Y2316D01*
G01X4637Y2305D01*
G01X4639Y2283D01*
G01X4639Y1998D01*
G01X4638Y1986D01*
G01X4637Y1975D01*
G01X4635Y1965D01*
G01X4632Y1954D01*
G01X4628Y1944D01*
G01X4623Y1933D01*
G01X4618Y1924D01*
G01X4612Y1915D01*
G01X4605Y1906D01*
G01X4589Y1890D01*
G01X4580Y1883D01*
G01X4571Y1877D01*
G01X4562Y1872D01*
G01X4551Y1867D01*
G01X4541Y1863D01*
G01X4530Y1860D01*
G01X4520Y1858D01*
G01X4509Y1857D01*
G01X4472Y1857D01*
G01X4460Y1855D01*
G01X4455Y1853D01*
G01X4450Y1850D01*
G01X4438Y1843D01*
G01X4427Y1837D01*
G01X4415Y1831D01*
G01X4402Y1827D01*
G01X4376Y1821D01*
G01X4350Y1819D01*
G01X4337Y1820D01*
G01X4325Y1821D01*
G01X4313Y1823D01*
G01X4301Y1826D01*
G01X4289Y1830D01*
G01X4277Y1835D01*
G01X4266Y1840D01*
G01X4255Y1846D01*
G01X4245Y1853D01*
G01X4235Y1861D01*
G01X4226Y1869D01*
G01X4217Y1878D01*
G01X4209Y1888D01*
G01X4202Y1898D01*
G01X4195Y1909D01*
G01X4189Y1920D01*
G01X4184Y1931D01*
G01X4180Y1943D01*
G01X4174Y1967D01*
G01X4170Y1991D01*
G01X4167Y1996D01*
G01X4164Y2000D01*
G01X4160Y2005D01*
G01X4155Y2008D01*
G01X4151Y2011D01*
G01X4145Y2013D01*
G01X4112Y2028D01*
G01X4092Y2042D01*
G01X4083Y2049D01*
G01X4066Y2066D01*
G01X4058Y2076D01*
G01X4051Y2086D01*
G01X4045Y2096D01*
G01X4035Y2118D01*
G01X4031Y2129D01*
G01X4027Y2141D01*
G01X4025Y2152D01*
G01X4021Y2164D01*
G01X4018Y2169D01*
G01X4014Y2174D01*
G01X2163Y4025D01*
G01X2157Y4033D01*
G01X2150Y4043D01*
G01X2145Y4052D01*
G01X2140Y4062D01*
G01X2137Y4073D01*
G01X2134Y4083D01*
G01X2131Y4094D01*
G01X2130Y4105D01*
G01X2130Y5556D01*
G01X2131Y5567D01*
G01X2134Y5578D01*
G01X2137Y5588D01*
G01X2140Y5599D01*
G01X2145Y5609D01*
G01X2150Y5618D01*
G01X2157Y5628D01*
G01X2163Y5636D01*
G01X2338Y5811D01*
G01X2342Y5816D01*
G01X2345Y5821D01*
G01X2348Y5827D01*
G01X2349Y5833D01*
G01X2349Y5846D01*
G01X2348Y5852D01*
G01X2345Y5858D01*
G01X2342Y5863D01*
G01X2338Y5868D01*
G01X1905Y6300D01*
G01X1900Y6305D01*
G01X1895Y6308D01*
G01X1883Y6312D01*
G01X1871Y6312D01*
G01X1866Y6311D01*
G01X1860Y6309D01*
G01X1855Y6306D01*
G01X1851Y6302D01*
G01X1846Y6298D01*
G01X1843Y6294D01*
G01X1827Y6269D01*
G01X1820Y6259D01*
G01X1796Y6230D01*
G01X1787Y6220D01*
G01X1760Y6195D01*
G01X1750Y6187D01*
G01X1719Y6164D01*
G01X1709Y6158D01*
G01X1676Y6140D01*
G01X1664Y6134D01*
G01X1629Y6120D01*
G01X1617Y6116D01*
G01X1581Y6107D01*
G01X1568Y6105D01*
G01X1531Y6100D01*
G01X1518Y6099D01*
G01X1481Y6099D01*
G01X1468Y6100D01*
G01X1431Y6105D01*
G01X1418Y6107D01*
G01X1382Y6116D01*
G01X1370Y6120D01*
G01X1335Y6134D01*
G01X1323Y6140D01*
G01X1290Y6158D01*
G01X1279Y6165D01*
G01X1249Y6187D01*
G01X1239Y6195D01*
G01X1212Y6220D01*
G01X1203Y6230D01*
G01X1179Y6259D01*
G01X1172Y6269D01*
G01X1151Y6301D01*
G01X1145Y6312D01*
G01X1129Y6346D01*
G01X1113Y6394D01*
G01X1110Y6406D01*
G01X1103Y6443D01*
G01X1101Y6455D01*
G01X1099Y6493D01*
G01X1099Y6879D01*
G01X1098Y6884D01*
G01X1097Y6890D01*
G01X1095Y6895D01*
G01X1089Y6905D01*
G01X1085Y6909D01*
G01X1075Y6915D01*
G01X1070Y6917D01*
G01X1064Y6918D01*
G01X1059Y6919D01*
G37*

%LPC*%
G36*
G01X1414Y1395D02*
G01X1390Y1395D01*
G01X1378Y1394D01*
G01X1365Y1392D01*
G01X1353Y1389D01*
G01X1342Y1385D01*
G01X1330Y1380D01*
G01X1319Y1375D01*
G01X1308Y1369D01*
G01X1288Y1355D01*
G01X1279Y1347D01*
G01X1270Y1338D01*
G01X1262Y1329D01*
G01X1248Y1309D01*
G01X1242Y1298D01*
G01X1237Y1287D01*
G01X1232Y1275D01*
G01X1228Y1264D01*
G01X1226Y1252D01*
G01X1223Y1240D01*
G01X1222Y1227D01*
G01X1222Y1203D01*
G01X1223Y1190D01*
G01X1226Y1178D01*
G01X1228Y1166D01*
G01X1232Y1155D01*
G01X1237Y1143D01*
G01X1242Y1132D01*
G01X1248Y1121D01*
G01X1262Y1101D01*
G01X1270Y1092D01*
G01X1279Y1083D01*
G01X1288Y1075D01*
G01X1308Y1061D01*
G01X1319Y1055D01*
G01X1330Y1050D01*
G01X1342Y1045D01*
G01X1353Y1041D01*
G01X1365Y1038D01*
G01X1378Y1036D01*
G01X1390Y1035D01*
G01X1414Y1035D01*
G01X1427Y1036D01*
G01X1439Y1038D01*
G01X1451Y1041D01*
G01X1463Y1045D01*
G01X1485Y1055D01*
G01X1496Y1061D01*
G01X1516Y1075D01*
G01X1525Y1083D01*
G01X1534Y1092D01*
G01X1542Y1101D01*
G01X1556Y1121D01*
G01X1568Y1143D01*
G01X1572Y1155D01*
G01X1576Y1166D01*
G01X1579Y1178D01*
G01X1581Y1190D01*
G01X1582Y1203D01*
G01X1582Y1227D01*
G01X1581Y1240D01*
G01X1579Y1252D01*
G01X1576Y1264D01*
G01X1572Y1275D01*
G01X1568Y1287D01*
G01X1556Y1309D01*
G01X1542Y1329D01*
G01X1534Y1338D01*
G01X1525Y1347D01*
G01X1516Y1355D01*
G01X1496Y1369D01*
G01X1485Y1375D01*
G01X1463Y1385D01*
G01X1451Y1389D01*
G01X1439Y1392D01*
G01X1427Y1394D01*
G01X1414Y1395D01*
G37*
G36*
G01X642Y1400D02*
G01X617Y1400D01*
G01X605Y1399D01*
G01X593Y1397D01*
G01X581Y1394D01*
G01X569Y1390D01*
G01X558Y1385D01*
G01X546Y1380D01*
G01X536Y1374D01*
G01X525Y1367D01*
G01X516Y1360D01*
G01X506Y1352D01*
G01X490Y1334D01*
G01X482Y1324D01*
G01X475Y1314D01*
G01X469Y1303D01*
G01X464Y1292D01*
G01X459Y1280D01*
G01X456Y1269D01*
G01X453Y1257D01*
G01X451Y1245D01*
G01X449Y1232D01*
G01X449Y1208D01*
G01X451Y1195D01*
G01X453Y1183D01*
G01X456Y1171D01*
G01X459Y1160D01*
G01X464Y1148D01*
G01X469Y1137D01*
G01X475Y1126D01*
G01X482Y1116D01*
G01X490Y1106D01*
G01X506Y1088D01*
G01X516Y1080D01*
G01X525Y1073D01*
G01X536Y1066D01*
G01X546Y1060D01*
G01X558Y1055D01*
G01X569Y1050D01*
G01X581Y1046D01*
G01X593Y1043D01*
G01X605Y1041D01*
G01X617Y1040D01*
G01X642Y1040D01*
G01X654Y1041D01*
G01X666Y1043D01*
G01X678Y1046D01*
G01X690Y1050D01*
G01X712Y1060D01*
G01X723Y1066D01*
G01X743Y1080D01*
G01X753Y1088D01*
G01X769Y1106D01*
G01X777Y1116D01*
G01X783Y1126D01*
G01X790Y1137D01*
G01X795Y1148D01*
G01X799Y1160D01*
G01X803Y1171D01*
G01X806Y1183D01*
G01X808Y1195D01*
G01X809Y1208D01*
G01X810Y1220D01*
G01X809Y1232D01*
G01X808Y1245D01*
G01X806Y1257D01*
G01X803Y1269D01*
G01X799Y1280D01*
G01X795Y1292D01*
G01X790Y1303D01*
G01X783Y1314D01*
G01X777Y1324D01*
G01X769Y1334D01*
G01X753Y1352D01*
G01X743Y1360D01*
G01X723Y1374D01*
G01X712Y1380D01*
G01X690Y1390D01*
G01X678Y1394D01*
G01X666Y1397D01*
G01X654Y1399D01*
G01X642Y1400D01*
G37*
G36*
G01X6291Y1843D02*
G01X6267Y1843D01*
G01X6254Y1842D01*
G01X6242Y1839D01*
G01X6230Y1837D01*
G01X6219Y1833D01*
G01X6207Y1828D01*
G01X6196Y1823D01*
G01X6185Y1817D01*
G01X6165Y1803D01*
G01X6156Y1795D01*
G01X6147Y1786D01*
G01X6139Y1777D01*
G01X6125Y1757D01*
G01X6119Y1746D01*
G01X6114Y1735D01*
G01X6109Y1723D01*
G01X6105Y1712D01*
G01X6102Y1700D01*
G01X6100Y1687D01*
G01X6099Y1675D01*
G01X6099Y1651D01*
G01X6100Y1638D01*
G01X6102Y1626D01*
G01X6105Y1614D01*
G01X6109Y1603D01*
G01X6114Y1591D01*
G01X6119Y1580D01*
G01X6125Y1569D01*
G01X6139Y1549D01*
G01X6147Y1540D01*
G01X6156Y1531D01*
G01X6165Y1523D01*
G01X6185Y1509D01*
G01X6207Y1497D01*
G01X6219Y1493D01*
G01X6230Y1489D01*
G01X6242Y1486D01*
G01X6254Y1484D01*
G01X6267Y1483D01*
G01X6291Y1483D01*
G01X6304Y1484D01*
G01X6316Y1486D01*
G01X6328Y1489D01*
G01X6339Y1493D01*
G01X6351Y1497D01*
G01X6373Y1509D01*
G01X6393Y1523D01*
G01X6402Y1531D01*
G01X6411Y1540D01*
G01X6419Y1549D01*
G01X6433Y1569D01*
G01X6439Y1580D01*
G01X6444Y1591D01*
G01X6449Y1603D01*
G01X6453Y1614D01*
G01X6456Y1626D01*
G01X6458Y1638D01*
G01X6459Y1651D01*
G01X6459Y1675D01*
G01X6458Y1687D01*
G01X6456Y1700D01*
G01X6453Y1712D01*
G01X6449Y1723D01*
G01X6444Y1735D01*
G01X6439Y1746D01*
G01X6433Y1757D01*
G01X6419Y1777D01*
G01X6411Y1786D01*
G01X6402Y1795D01*
G01X6393Y1803D01*
G01X6373Y1817D01*
G01X6362Y1823D01*
G01X6351Y1828D01*
G01X6339Y1833D01*
G01X6328Y1837D01*
G01X6316Y1839D01*
G01X6304Y1842D01*
G01X6291Y1843D01*
G37*
G36*
G01X1665Y5967D02*
G01X1641Y5967D01*
G01X1628Y5966D01*
G01X1616Y5963D01*
G01X1604Y5961D01*
G01X1593Y5957D01*
G01X1581Y5952D01*
G01X1570Y5947D01*
G01X1559Y5941D01*
G01X1539Y5927D01*
G01X1530Y5919D01*
G01X1521Y5910D01*
G01X1513Y5901D01*
G01X1499Y5881D01*
G01X1493Y5870D01*
G01X1488Y5859D01*
G01X1483Y5847D01*
G01X1479Y5836D01*
G01X1476Y5824D01*
G01X1474Y5811D01*
G01X1473Y5799D01*
G01X1473Y5775D01*
G01X1474Y5762D01*
G01X1476Y5750D01*
G01X1479Y5738D01*
G01X1483Y5727D01*
G01X1488Y5715D01*
G01X1493Y5704D01*
G01X1499Y5693D01*
G01X1513Y5673D01*
G01X1521Y5664D01*
G01X1530Y5655D01*
G01X1539Y5647D01*
G01X1559Y5633D01*
G01X1581Y5621D01*
G01X1593Y5617D01*
G01X1604Y5613D01*
G01X1616Y5610D01*
G01X1628Y5608D01*
G01X1641Y5607D01*
G01X1665Y5607D01*
G01X1678Y5608D01*
G01X1690Y5610D01*
G01X1702Y5613D01*
G01X1713Y5617D01*
G01X1725Y5621D01*
G01X1747Y5633D01*
G01X1767Y5647D01*
G01X1776Y5655D01*
G01X1785Y5664D01*
G01X1793Y5673D01*
G01X1807Y5693D01*
G01X1813Y5704D01*
G01X1818Y5715D01*
G01X1823Y5727D01*
G01X1827Y5738D01*
G01X1830Y5750D01*
G01X1832Y5762D01*
G01X1833Y5775D01*
G01X1833Y5799D01*
G01X1832Y5811D01*
G01X1830Y5824D01*
G01X1827Y5836D01*
G01X1823Y5847D01*
G01X1818Y5859D01*
G01X1813Y5870D01*
G01X1807Y5881D01*
G01X1793Y5901D01*
G01X1785Y5910D01*
G01X1776Y5919D01*
G01X1767Y5927D01*
G01X1747Y5941D01*
G01X1736Y5947D01*
G01X1725Y5952D01*
G01X1713Y5957D01*
G01X1702Y5961D01*
G01X1690Y5963D01*
G01X1678Y5966D01*
G01X1665Y5967D01*
G37*

%LPD*%
G36*
G01X7945Y570D02*
G01X7939Y571D01*
G01X7933Y570D01*
G01X7928Y569D01*
G01X7922Y567D01*
G01X7917Y565D01*
G01X7909Y557D01*
G01X7905Y552D01*
G01X7902Y547D01*
G01X7900Y542D01*
G01X7899Y537D01*
G01X7899Y528D01*
G01X7900Y506D01*
G01X7901Y500D01*
G01X7901Y115D01*
G01X7902Y109D01*
G01X7904Y104D01*
G01X7910Y94D01*
G01X7914Y90D01*
G01X7924Y84D01*
G01X7929Y82D01*
G01X7935Y81D01*
G01X8064Y81D01*
G01X8070Y82D01*
G01X8075Y84D01*
G01X8085Y90D01*
G01X8089Y94D01*
G01X8095Y104D01*
G01X8097Y109D01*
G01X8099Y121D01*
G01X8099Y517D01*
G01X8097Y523D01*
G01X8093Y533D01*
G01X8089Y537D01*
G01X8085Y542D01*
G01X8081Y545D01*
G01X8076Y548D01*
G01X8070Y550D01*
G01X8065Y551D01*
G01X8054Y551D01*
G01X8033Y550D01*
G01X8020Y550D01*
G01X8006Y552D01*
G01X7993Y554D01*
G01X7981Y558D01*
G01X7968Y562D01*
G01X7956Y567D01*
G01X7950Y569D01*
G01X7945Y570D01*
G37*

%LPD*%
G36*
G01X2362Y959D02*
G01X2174Y959D01*
G01X2162Y957D01*
G01X2156Y954D01*
G01X2151Y951D01*
G01X2146Y947D01*
G01X1883Y684D01*
G01X1879Y679D01*
G01X1876Y674D01*
G01X1872Y662D01*
G01X1872Y649D01*
G01X1874Y643D01*
G01X1874Y641D01*
G01X1886Y605D01*
G01X1889Y593D01*
G01X1896Y556D01*
G01X1898Y544D01*
G01X1900Y506D01*
G01X1901Y500D01*
G01X1901Y115D01*
G01X1902Y109D01*
G01X1904Y104D01*
G01X1910Y94D01*
G01X1914Y90D01*
G01X1924Y84D01*
G01X1929Y82D01*
G01X1935Y81D01*
G01X2064Y81D01*
G01X2070Y82D01*
G01X2075Y84D01*
G01X2085Y90D01*
G01X2089Y94D01*
G01X2095Y104D01*
G01X2097Y109D01*
G01X2099Y121D01*
G01X2099Y506D01*
G01X2101Y544D01*
G01X2103Y556D01*
G01X2110Y593D01*
G01X2113Y605D01*
G01X2129Y653D01*
G01X2145Y687D01*
G01X2151Y698D01*
G01X2172Y730D01*
G01X2179Y740D01*
G01X2203Y769D01*
G01X2212Y779D01*
G01X2239Y804D01*
G01X2249Y812D01*
G01X2279Y834D01*
G01X2290Y841D01*
G01X2323Y860D01*
G01X2335Y865D01*
G01X2380Y883D01*
G01X2386Y886D01*
G01X2390Y890D01*
G01X2398Y900D01*
G01X2402Y912D01*
G01X2402Y924D01*
G01X2400Y930D01*
G01X2396Y940D01*
G01X2392Y945D01*
G01X2388Y949D01*
G01X2384Y952D01*
G01X2379Y955D01*
G01X2373Y957D01*
G01X2368Y958D01*
G01X2362Y959D01*
G37*

%LPD*%
G36*
G01X6136Y789D02*
G01X5863Y789D01*
G01X5857Y788D01*
G01X5852Y787D01*
G01X5846Y785D01*
G01X5841Y782D01*
G01X5837Y779D01*
G01X5833Y775D01*
G01X5829Y770D01*
G01X5825Y760D01*
G01X5823Y754D01*
G01X5823Y743D01*
G01X5825Y737D01*
G01X5829Y727D01*
G01X5848Y698D01*
G01X5854Y687D01*
G01X5870Y653D01*
G01X5886Y605D01*
G01X5889Y593D01*
G01X5896Y556D01*
G01X5898Y544D01*
G01X5900Y506D01*
G01X5901Y500D01*
G01X5901Y115D01*
G01X5902Y109D01*
G01X5904Y104D01*
G01X5910Y94D01*
G01X5914Y90D01*
G01X5924Y84D01*
G01X5929Y82D01*
G01X5935Y81D01*
G01X6064Y81D01*
G01X6070Y82D01*
G01X6075Y84D01*
G01X6085Y90D01*
G01X6089Y94D01*
G01X6095Y104D01*
G01X6097Y109D01*
G01X6099Y121D01*
G01X6099Y506D01*
G01X6101Y544D01*
G01X6103Y556D01*
G01X6110Y593D01*
G01X6113Y605D01*
G01X6129Y653D01*
G01X6145Y687D01*
G01X6151Y698D01*
G01X6170Y727D01*
G01X6174Y737D01*
G01X6176Y743D01*
G01X6176Y754D01*
G01X6174Y760D01*
G01X6170Y770D01*
G01X6166Y775D01*
G01X6162Y779D01*
G01X6158Y782D01*
G01X6153Y785D01*
G01X6147Y787D01*
G01X6142Y788D01*
G01X6136Y789D01*
G37*

%LPD*%
G36*
G01X4064Y508D02*
G01X4050Y508D01*
G01X4044Y507D01*
G01X4037Y505D01*
G01X4032Y503D01*
G01X4020Y496D01*
G01X4007Y491D01*
G01X3995Y487D01*
G01X3981Y483D01*
G01X3955Y479D01*
G01X3941Y479D01*
G01X3929Y477D01*
G01X3924Y475D01*
G01X3914Y469D01*
G01X3910Y465D01*
G01X3904Y455D01*
G01X3902Y450D01*
G01X3901Y444D01*
G01X3901Y115D01*
G01X3902Y109D01*
G01X3904Y104D01*
G01X3910Y94D01*
G01X3914Y90D01*
G01X3924Y84D01*
G01X3929Y82D01*
G01X3935Y81D01*
G01X4064Y81D01*
G01X4070Y82D01*
G01X4075Y84D01*
G01X4085Y90D01*
G01X4089Y94D01*
G01X4095Y104D01*
G01X4097Y109D01*
G01X4099Y121D01*
G01X4099Y468D01*
G01X4097Y480D01*
G01X4095Y485D01*
G01X4089Y495D01*
G01X4085Y499D01*
G01X4075Y505D01*
G01X4070Y507D01*
G01X4064Y508D01*
G37*

%LPD*%
G36*
G01X7136Y789D02*
G01X6863Y789D01*
G01X6857Y788D01*
G01X6852Y787D01*
G01X6846Y785D01*
G01X6841Y782D01*
G01X6837Y779D01*
G01X6833Y775D01*
G01X6829Y770D01*
G01X6825Y760D01*
G01X6823Y754D01*
G01X6823Y743D01*
G01X6825Y737D01*
G01X6829Y727D01*
G01X6848Y698D01*
G01X6854Y687D01*
G01X6870Y653D01*
G01X6886Y605D01*
G01X6889Y593D01*
G01X6896Y556D01*
G01X6898Y544D01*
G01X6900Y506D01*
G01X6901Y500D01*
G01X6901Y115D01*
G01X6902Y109D01*
G01X6904Y104D01*
G01X6910Y94D01*
G01X6914Y90D01*
G01X6924Y84D01*
G01X6929Y82D01*
G01X6935Y81D01*
G01X7064Y81D01*
G01X7070Y82D01*
G01X7075Y84D01*
G01X7085Y90D01*
G01X7089Y94D01*
G01X7095Y104D01*
G01X7097Y109D01*
G01X7099Y121D01*
G01X7099Y506D01*
G01X7101Y544D01*
G01X7103Y556D01*
G01X7110Y593D01*
G01X7113Y605D01*
G01X7129Y653D01*
G01X7145Y687D01*
G01X7151Y698D01*
G01X7170Y727D01*
G01X7174Y737D01*
G01X7176Y743D01*
G01X7176Y754D01*
G01X7174Y760D01*
G01X7170Y770D01*
G01X7166Y775D01*
G01X7162Y779D01*
G01X7158Y782D01*
G01X7153Y785D01*
G01X7147Y787D01*
G01X7142Y788D01*
G01X7136Y789D01*
G37*

%LPD*%
G36*
G01X15163Y1023D02*
G01X15151Y1023D01*
G01X15139Y1019D01*
G01X15133Y1015D01*
G01X15129Y1011D01*
G01X15124Y1007D01*
G01X15121Y1001D01*
G01X15115Y990D01*
G01X15109Y980D01*
G01X15093Y960D01*
G01X15084Y951D01*
G01X15075Y943D01*
G01X15055Y929D01*
G01X15033Y917D01*
G01X15021Y912D01*
G01X14997Y906D01*
G01X14973Y902D01*
G01X14948Y902D01*
G01X14912Y908D01*
G01X14900Y912D01*
G01X14878Y922D01*
G01X14867Y928D01*
G01X14857Y934D01*
G01X14847Y942D01*
G01X14829Y958D01*
G01X14821Y967D01*
G01X14817Y972D01*
G01X14807Y978D01*
G01X14802Y980D01*
G01X14790Y982D01*
G01X14778Y980D01*
G01X14773Y978D01*
G01X14767Y975D01*
G01X14763Y971D01*
G01X14754Y963D01*
G01X14746Y957D01*
G01X14737Y951D01*
G01X14727Y946D01*
G01X14707Y938D01*
G01X14697Y935D01*
G01X14686Y933D01*
G01X14676Y932D01*
G01X14665Y931D01*
G01X13904Y931D01*
G01X13898Y930D01*
G01X13893Y928D01*
G01X13883Y922D01*
G01X13879Y917D01*
G01X13876Y913D01*
G01X13873Y908D01*
G01X13871Y903D01*
G01X13869Y891D01*
G01X13869Y715D01*
G01X13867Y702D01*
G01X13864Y689D01*
G01X13863Y684D01*
G01X13862Y678D01*
G01X13864Y666D01*
G01X13866Y661D01*
G01X13870Y653D01*
G01X13886Y605D01*
G01X13889Y593D01*
G01X13896Y556D01*
G01X13898Y544D01*
G01X13900Y506D01*
G01X13901Y500D01*
G01X13901Y115D01*
G01X13902Y109D01*
G01X13904Y104D01*
G01X13910Y94D01*
G01X13914Y90D01*
G01X13924Y84D01*
G01X13929Y82D01*
G01X13935Y81D01*
G01X14187Y81D01*
G01X14193Y82D01*
G01X14208Y91D01*
G01X14216Y101D01*
G01X14224Y121D01*
G01X14238Y149D01*
G01X14247Y163D01*
G01X14255Y176D01*
G01X14275Y200D01*
G01X14286Y212D01*
G01X14298Y223D01*
G01X14322Y243D01*
G01X14335Y252D01*
G01X14349Y260D01*
G01X14362Y267D01*
G01X14377Y274D01*
G01X14391Y280D01*
G01X14406Y286D01*
G01X14421Y290D01*
G01X14437Y294D01*
G01X14452Y297D01*
G01X14468Y299D01*
G01X14500Y301D01*
G01X14515Y300D01*
G01X14531Y299D01*
G01X14547Y297D01*
G01X14562Y294D01*
G01X14578Y290D01*
G01X14593Y286D01*
G01X14608Y280D01*
G01X14622Y274D01*
G01X14637Y267D01*
G01X14650Y260D01*
G01X14664Y252D01*
G01X14677Y243D01*
G01X14701Y223D01*
G01X14713Y212D01*
G01X14724Y200D01*
G01X14744Y176D01*
G01X14752Y163D01*
G01X14761Y149D01*
G01X14775Y121D01*
G01X14783Y101D01*
G01X14791Y91D01*
G01X14806Y82D01*
G01X14812Y81D01*
G01X15064Y81D01*
G01X15070Y82D01*
G01X15075Y84D01*
G01X15085Y90D01*
G01X15089Y94D01*
G01X15095Y104D01*
G01X15097Y109D01*
G01X15099Y121D01*
G01X15099Y506D01*
G01X15101Y543D01*
G01X15103Y556D01*
G01X15110Y593D01*
G01X15113Y605D01*
G01X15124Y641D01*
G01X15129Y653D01*
G01X15145Y687D01*
G01X15151Y698D01*
G01X15172Y730D01*
G01X15179Y740D01*
G01X15203Y769D01*
G01X15212Y778D01*
G01X15239Y804D01*
G01X15249Y812D01*
G01X15279Y835D01*
G01X15290Y841D01*
G01X15292Y842D01*
G01X15297Y846D01*
G01X15305Y854D01*
G01X15308Y860D01*
G01X15311Y865D01*
G01X15313Y877D01*
G01X15311Y889D01*
G01X15309Y895D01*
G01X15306Y900D01*
G01X15302Y905D01*
G01X15298Y909D01*
G01X15293Y912D01*
G01X15287Y915D01*
G01X15275Y920D01*
G01X15264Y926D01*
G01X15253Y933D01*
G01X15242Y941D01*
G01X15232Y949D01*
G01X15223Y958D01*
G01X15214Y968D01*
G01X15206Y979D01*
G01X15199Y990D01*
G01X15193Y1001D01*
G01X15189Y1007D01*
G01X15181Y1015D01*
G01X15175Y1019D01*
G01X15163Y1023D01*
G37*

%LPD*%
G36*
G01X12130Y779D02*
G01X11994Y779D01*
G01X11982Y777D01*
G01X11976Y774D01*
G01X11971Y771D01*
G01X11966Y767D01*
G01X11883Y684D01*
G01X11879Y679D01*
G01X11876Y674D01*
G01X11872Y662D01*
G01X11872Y649D01*
G01X11874Y643D01*
G01X11874Y641D01*
G01X11886Y605D01*
G01X11889Y593D01*
G01X11896Y556D01*
G01X11898Y544D01*
G01X11900Y506D01*
G01X11901Y500D01*
G01X11901Y115D01*
G01X11902Y109D01*
G01X11904Y104D01*
G01X11910Y94D01*
G01X11914Y90D01*
G01X11924Y84D01*
G01X11929Y82D01*
G01X11935Y81D01*
G01X12064Y81D01*
G01X12070Y82D01*
G01X12075Y84D01*
G01X12085Y90D01*
G01X12089Y94D01*
G01X12095Y104D01*
G01X12097Y109D01*
G01X12099Y121D01*
G01X12099Y506D01*
G01X12101Y543D01*
G01X12103Y556D01*
G01X12110Y593D01*
G01X12113Y605D01*
G01X12124Y641D01*
G01X12129Y653D01*
G01X12145Y687D01*
G01X12151Y698D01*
G01X12163Y717D01*
G01X12166Y722D01*
G01X12168Y727D01*
G01X12170Y739D01*
G01X12169Y744D01*
G01X12168Y750D01*
G01X12166Y755D01*
G01X12160Y765D01*
G01X12156Y769D01*
G01X12146Y775D01*
G01X12141Y777D01*
G01X12135Y778D01*
G01X12130Y779D01*
G37*

%LPD*%
G36*
G01X127Y268D02*
G01X115Y268D01*
G01X109Y267D01*
G01X104Y265D01*
G01X94Y259D01*
G01X90Y255D01*
G01X84Y245D01*
G01X82Y240D01*
G01X81Y234D01*
G01X81Y115D01*
G01X82Y109D01*
G01X84Y104D01*
G01X90Y94D01*
G01X94Y90D01*
G01X104Y84D01*
G01X109Y82D01*
G01X115Y81D01*
G01X234Y81D01*
G01X240Y82D01*
G01X245Y84D01*
G01X255Y90D01*
G01X259Y94D01*
G01X265Y104D01*
G01X267Y109D01*
G01X268Y115D01*
G01X268Y127D01*
G01X264Y139D01*
G01X261Y144D01*
G01X252Y153D01*
G01X236Y165D01*
G01X220Y178D01*
G01X205Y191D01*
G01X191Y205D01*
G01X178Y220D01*
G01X165Y236D01*
G01X153Y252D01*
G01X144Y261D01*
G01X139Y264D01*
G01X127Y268D01*
G37*

%LPD*%
G36*
G01X10948Y418D02*
G01X10935Y418D01*
G01X10929Y417D01*
G01X10924Y415D01*
G01X10914Y409D01*
G01X10910Y405D01*
G01X10904Y395D01*
G01X10902Y390D01*
G01X10901Y384D01*
G01X10901Y115D01*
G01X10902Y109D01*
G01X10904Y104D01*
G01X10910Y94D01*
G01X10914Y90D01*
G01X10924Y84D01*
G01X10929Y82D01*
G01X10935Y81D01*
G01X11064Y81D01*
G01X11070Y82D01*
G01X11075Y84D01*
G01X11085Y90D01*
G01X11089Y94D01*
G01X11095Y104D01*
G01X11097Y109D01*
G01X11099Y121D01*
G01X11099Y368D01*
G01X11098Y373D01*
G01X11097Y379D01*
G01X11095Y384D01*
G01X11089Y394D01*
G01X11085Y398D01*
G01X11075Y404D01*
G01X11070Y406D01*
G01X11064Y407D01*
G01X11059Y408D01*
G01X11035Y405D01*
G01X11019Y404D01*
G01X11006Y404D01*
G01X10980Y408D01*
G01X10967Y412D01*
G01X10955Y416D01*
G01X10948Y418D01*
G37*

%LPD*%
G36*
G01X8910Y1394D02*
G01X8494Y1394D01*
G01X8482Y1392D01*
G01X8476Y1390D01*
G01X8466Y1382D01*
G01X8435Y1351D01*
G01X8427Y1341D01*
G01X8425Y1335D01*
G01X8423Y1323D01*
G01X8425Y1311D01*
G01X8427Y1305D01*
G01X8435Y1295D01*
G01X8439Y1291D01*
G01X8449Y1283D01*
G01X8457Y1275D01*
G01X8466Y1267D01*
G01X8474Y1257D01*
G01X8481Y1248D01*
G01X8487Y1238D01*
G01X8493Y1227D01*
G01X8498Y1216D01*
G01X8502Y1205D01*
G01X8506Y1193D01*
G01X8508Y1182D01*
G01X8512Y1158D01*
G01X8512Y1133D01*
G01X8508Y1109D01*
G01X8505Y1096D01*
G01X8501Y1084D01*
G01X8497Y1073D01*
G01X8491Y1061D01*
G01X8485Y1051D01*
G01X8478Y1040D01*
G01X8470Y1030D01*
G01X8462Y1021D01*
G01X8453Y1012D01*
G01X8443Y1004D01*
G01X8433Y997D01*
G01X8422Y990D01*
G01X8411Y984D01*
G01X8400Y979D01*
G01X8376Y971D01*
G01X8364Y968D01*
G01X8358Y967D01*
G01X8352Y965D01*
G01X8347Y961D01*
G01X8343Y957D01*
G01X8331Y946D01*
G01X8327Y941D01*
G01X8324Y936D01*
G01X8321Y930D01*
G01X8319Y918D01*
G01X8321Y906D01*
G01X8323Y901D01*
G01X8329Y891D01*
G01X8333Y887D01*
G01X8343Y881D01*
G01X8348Y879D01*
G01X8354Y878D01*
G01X8366Y878D01*
G01X8373Y880D01*
G01X8382Y883D01*
G01X8418Y892D01*
G01X8431Y894D01*
G01X8468Y899D01*
G01X8481Y900D01*
G01X8518Y900D01*
G01X8531Y899D01*
G01X8568Y894D01*
G01X8581Y892D01*
G01X8617Y883D01*
G01X8629Y879D01*
G01X8638Y875D01*
G01X8645Y873D01*
G01X8653Y872D01*
G01X8659Y873D01*
G01X8664Y874D01*
G01X8669Y876D01*
G01X8679Y882D01*
G01X8683Y886D01*
G01X8689Y896D01*
G01X8691Y901D01*
G01X8692Y907D01*
G01X8695Y919D01*
G01X8698Y930D01*
G01X8701Y942D01*
G01X8711Y964D01*
G01X8717Y975D01*
G01X8724Y985D01*
G01X8732Y995D01*
G01X8748Y1013D01*
G01X8758Y1021D01*
G01X8767Y1028D01*
G01X8778Y1035D01*
G01X8788Y1041D01*
G01X8799Y1046D01*
G01X8823Y1054D01*
G01X8834Y1057D01*
G01X8846Y1059D01*
G01X8859Y1060D01*
G01X8883Y1060D01*
G01X8895Y1059D01*
G01X8907Y1057D01*
G01X8919Y1054D01*
G01X8943Y1046D01*
G01X8965Y1034D01*
G01X8985Y1020D01*
G01X8994Y1012D01*
G01X9003Y1003D01*
G01X9011Y994D01*
G01X9025Y974D01*
G01X9031Y963D01*
G01X9041Y941D01*
G01X9047Y917D01*
G01X9049Y905D01*
G01X9051Y892D01*
G01X9051Y868D01*
G01X9049Y855D01*
G01X9047Y843D01*
G01X9044Y830D01*
G01X9040Y818D01*
G01X9036Y807D01*
G01X9030Y795D01*
G01X9024Y785D01*
G01X9017Y774D01*
G01X9009Y764D01*
G01X9001Y755D01*
G01X8991Y746D01*
G01X8982Y738D01*
G01X8972Y731D01*
G01X8961Y724D01*
G01X8950Y718D01*
G01X8938Y713D01*
G01X8914Y705D01*
G01X8902Y702D01*
G01X8896Y701D01*
G01X8890Y698D01*
G01X8885Y695D01*
G01X8880Y691D01*
G01X8876Y686D01*
G01X8873Y681D01*
G01X8869Y669D01*
G01X8869Y663D01*
G01X8870Y655D01*
G01X8874Y641D01*
G01X8886Y605D01*
G01X8889Y593D01*
G01X8896Y556D01*
G01X8898Y544D01*
G01X8900Y506D01*
G01X8901Y500D01*
G01X8901Y115D01*
G01X8902Y109D01*
G01X8904Y104D01*
G01X8910Y94D01*
G01X8914Y90D01*
G01X8924Y84D01*
G01X8929Y82D01*
G01X8935Y81D01*
G01X9064Y81D01*
G01X9070Y82D01*
G01X9075Y84D01*
G01X9085Y90D01*
G01X9089Y94D01*
G01X9095Y104D01*
G01X9097Y109D01*
G01X9099Y121D01*
G01X9099Y506D01*
G01X9101Y543D01*
G01X9103Y556D01*
G01X9110Y593D01*
G01X9113Y605D01*
G01X9124Y641D01*
G01X9129Y653D01*
G01X9145Y687D01*
G01X9151Y698D01*
G01X9172Y730D01*
G01X9179Y740D01*
G01X9203Y769D01*
G01X9212Y779D01*
G01X9239Y804D01*
G01X9249Y812D01*
G01X9279Y834D01*
G01X9290Y841D01*
G01X9323Y859D01*
G01X9335Y865D01*
G01X9370Y879D01*
G01X9382Y883D01*
G01X9418Y892D01*
G01X9431Y894D01*
G01X9468Y899D01*
G01X9481Y900D01*
G01X9518Y900D01*
G01X9531Y899D01*
G01X9568Y894D01*
G01X9581Y892D01*
G01X9617Y883D01*
G01X9629Y879D01*
G01X9664Y865D01*
G01X9676Y859D01*
G01X9709Y841D01*
G01X9719Y835D01*
G01X9750Y812D01*
G01X9760Y804D01*
G01X9787Y779D01*
G01X9796Y769D01*
G01X9820Y740D01*
G01X9827Y730D01*
G01X9848Y698D01*
G01X9854Y687D01*
G01X9870Y653D01*
G01X9886Y605D01*
G01X9889Y593D01*
G01X9896Y556D01*
G01X9898Y544D01*
G01X9900Y506D01*
G01X9901Y500D01*
G01X9901Y115D01*
G01X9902Y109D01*
G01X9904Y104D01*
G01X9910Y94D01*
G01X9914Y90D01*
G01X9924Y84D01*
G01X9929Y82D01*
G01X9935Y81D01*
G01X10064Y81D01*
G01X10070Y82D01*
G01X10075Y84D01*
G01X10085Y90D01*
G01X10089Y94D01*
G01X10095Y104D01*
G01X10097Y109D01*
G01X10099Y121D01*
G01X10099Y506D01*
G01X10101Y543D01*
G01X10103Y556D01*
G01X10110Y593D01*
G01X10113Y605D01*
G01X10124Y641D01*
G01X10129Y653D01*
G01X10145Y687D01*
G01X10151Y698D01*
G01X10172Y730D01*
G01X10179Y740D01*
G01X10203Y769D01*
G01X10212Y779D01*
G01X10239Y804D01*
G01X10249Y812D01*
G01X10279Y834D01*
G01X10290Y841D01*
G01X10323Y859D01*
G01X10335Y865D01*
G01X10370Y879D01*
G01X10382Y883D01*
G01X10418Y892D01*
G01X10431Y894D01*
G01X10437Y895D01*
G01X10442Y896D01*
G01X10448Y898D01*
G01X10458Y904D01*
G01X10462Y908D01*
G01X10468Y918D01*
G01X10470Y923D01*
G01X10472Y935D01*
G01X10471Y941D01*
G01X10469Y956D01*
G01X10469Y984D01*
G01X10471Y996D01*
G01X10473Y1009D01*
G01X10476Y1021D01*
G01X10480Y1033D01*
G01X10485Y1045D01*
G01X10490Y1056D01*
G01X10504Y1078D01*
G01X10512Y1088D01*
G01X10521Y1097D01*
G01X10525Y1102D01*
G01X10528Y1107D01*
G01X10532Y1119D01*
G01X10532Y1132D01*
G01X10528Y1144D01*
G01X10520Y1154D01*
G01X10515Y1158D01*
G01X10510Y1161D01*
G01X10504Y1164D01*
G01X10493Y1167D01*
G01X10482Y1172D01*
G01X10471Y1178D01*
G01X10461Y1184D01*
G01X10441Y1198D01*
G01X10432Y1206D01*
G01X10416Y1224D01*
G01X10409Y1234D01*
G01X10397Y1254D01*
G01X10392Y1265D01*
G01X10387Y1277D01*
G01X10384Y1288D01*
G01X10381Y1300D01*
G01X10379Y1312D01*
G01X10378Y1324D01*
G01X10378Y1360D01*
G01X10377Y1365D01*
G01X10375Y1371D01*
G01X10372Y1376D01*
G01X10369Y1380D01*
G01X10365Y1384D01*
G01X10360Y1388D01*
G01X10350Y1392D01*
G01X10338Y1394D01*
G01X9858Y1394D01*
G01X9852Y1393D01*
G01X9847Y1392D01*
G01X9841Y1390D01*
G01X9836Y1388D01*
G01X9824Y1376D01*
G01X9822Y1371D01*
G01X9820Y1365D01*
G01X9818Y1360D01*
G01X9818Y1354D01*
G01X9820Y1343D01*
G01X9823Y1331D01*
G01X9825Y1318D01*
G01X9826Y1306D01*
G01X9827Y1293D01*
G01X9826Y1281D01*
G01X9825Y1268D01*
G01X9823Y1256D01*
G01X9820Y1244D01*
G01X9816Y1233D01*
G01X9812Y1221D01*
G01X9800Y1199D01*
G01X9794Y1189D01*
G01X9786Y1179D01*
G01X9778Y1170D01*
G01X9769Y1161D01*
G01X9760Y1153D01*
G01X9740Y1139D01*
G01X9718Y1127D01*
G01X9707Y1123D01*
G01X9695Y1119D01*
G01X9683Y1116D01*
G01X9671Y1114D01*
G01X9659Y1113D01*
G01X9634Y1113D01*
G01X9622Y1114D01*
G01X9610Y1116D01*
G01X9598Y1119D01*
G01X9574Y1127D01*
G01X9552Y1139D01*
G01X9532Y1153D01*
G01X9523Y1161D01*
G01X9514Y1170D01*
G01X9506Y1179D01*
G01X9492Y1199D01*
G01X9486Y1210D01*
G01X9481Y1221D01*
G01X9476Y1233D01*
G01X9473Y1244D01*
G01X9470Y1256D01*
G01X9468Y1268D01*
G01X9466Y1281D01*
G01X9466Y1306D01*
G01X9468Y1318D01*
G01X9470Y1331D01*
G01X9473Y1343D01*
G01X9474Y1354D01*
G01X9474Y1360D01*
G01X9473Y1365D01*
G01X9471Y1371D01*
G01X9468Y1376D01*
G01X9465Y1380D01*
G01X9461Y1384D01*
G01X9456Y1388D01*
G01X9446Y1392D01*
G01X9434Y1394D01*
G01X9306Y1394D01*
G01X9294Y1392D01*
G01X9284Y1388D01*
G01X9279Y1384D01*
G01X9275Y1380D01*
G01X9272Y1376D01*
G01X9269Y1371D01*
G01X9267Y1365D01*
G01X9266Y1360D01*
G01X9266Y1348D01*
G01X9267Y1342D01*
G01X9270Y1336D01*
G01X9275Y1324D01*
G01X9280Y1311D01*
G01X9283Y1298D01*
G01X9286Y1284D01*
G01X9288Y1271D01*
G01X9288Y1244D01*
G01X9284Y1220D01*
G01X9278Y1196D01*
G01X9268Y1174D01*
G01X9262Y1163D01*
G01X9248Y1143D01*
G01X9240Y1134D01*
G01X9231Y1125D01*
G01X9222Y1117D01*
G01X9212Y1109D01*
G01X9202Y1103D01*
G01X9180Y1091D01*
G01X9156Y1083D01*
G01X9144Y1080D01*
G01X9132Y1078D01*
G01X9108Y1076D01*
G01X9095Y1077D01*
G01X9083Y1078D01*
G01X9071Y1080D01*
G01X9059Y1083D01*
G01X9047Y1087D01*
G01X9036Y1091D01*
G01X9014Y1103D01*
G01X9004Y1109D01*
G01X8994Y1117D01*
G01X8985Y1125D01*
G01X8976Y1134D01*
G01X8968Y1143D01*
G01X8960Y1153D01*
G01X8954Y1163D01*
G01X8942Y1185D01*
G01X8938Y1196D01*
G01X8934Y1208D01*
G01X8931Y1220D01*
G01X8929Y1232D01*
G01X8928Y1244D01*
G01X8927Y1257D01*
G01X8928Y1271D01*
G01X8930Y1284D01*
G01X8932Y1298D01*
G01X8940Y1324D01*
G01X8946Y1336D01*
G01X8950Y1348D01*
G01X8950Y1360D01*
G01X8948Y1365D01*
G01X8946Y1371D01*
G01X8944Y1376D01*
G01X8932Y1388D01*
G01X8927Y1390D01*
G01X8921Y1392D01*
G01X8916Y1393D01*
G01X8910Y1394D01*
G37*

%LPD*%
G36*
G01X12947Y413D02*
G01X12941Y414D01*
G01X12929Y412D01*
G01X12924Y410D01*
G01X12914Y404D01*
G01X12910Y400D01*
G01X12904Y390D01*
G01X12902Y385D01*
G01X12901Y379D01*
G01X12901Y115D01*
G01X12902Y109D01*
G01X12904Y104D01*
G01X12910Y94D01*
G01X12914Y90D01*
G01X12924Y84D01*
G01X12929Y82D01*
G01X12935Y81D01*
G01X13064Y81D01*
G01X13070Y82D01*
G01X13075Y84D01*
G01X13085Y90D01*
G01X13089Y94D01*
G01X13095Y104D01*
G01X13097Y109D01*
G01X13099Y121D01*
G01X13099Y367D01*
G01X13098Y373D01*
G01X13097Y378D01*
G01X13095Y384D01*
G01X13092Y389D01*
G01X13089Y393D01*
G01X13085Y397D01*
G01X13080Y401D01*
G01X13070Y405D01*
G01X13064Y407D01*
G01X13059Y407D01*
G01X13050Y406D01*
G01X13024Y402D01*
G01X12997Y402D01*
G01X12982Y404D01*
G01X12968Y407D01*
G01X12953Y411D01*
G01X12947Y413D01*
G37*

%LPD*%
G54D10*
G01X3941Y659D02*
G01X4045Y659D01*
G54D11*
G01X4045Y659D02*
G01X4065Y659D01*
G01X4336Y930D01*
G01X8115Y930D01*
G01X8332Y1146D01*
G01X8651Y4045D02*
G01X8534Y3927D01*
G01X7213Y3927D01*
G01X6898Y4242D01*
G01X1500Y6500D02*
G01X1905Y6500D01*
G01X2486Y5920D01*
G01X4033Y5920D01*
G01X4193Y5760D01*
G01X4561Y5760D01*
G01X5041Y5280D01*
G01X7331Y5280D01*
G01X7609Y5002D01*
G01X9856Y5002D01*
G01X10098Y4760D01*
G01X10098Y4645D01*
G01X10900Y3842D01*
G01X10900Y3508D01*
G01X10994Y3414D01*
G01X11254Y3414D01*
G01X11407Y3261D01*
G01X12320Y3261D01*
G01X12377Y3203D01*
G01X13499Y3203D01*
G01X13617Y3085D01*
G01X13617Y2642D01*
G01X13641Y2618D01*
G01X10674Y1555D02*
G01X10654Y1535D01*
G01X8419Y1535D01*
G01X7984Y1100D01*
G01X2100Y1100D01*
G01X1500Y500D01*
G01X13815Y2830D02*
G01X13815Y3113D01*
G01X13565Y3363D01*
G01X12443Y3363D01*
G01X12147Y3660D01*
G01X11757Y3660D01*
G01X11377Y4039D01*
G01X10930Y4039D01*
G01X10264Y4705D01*
G01X10264Y4821D01*
G01X9923Y5162D01*
G01X8046Y5162D01*
G01X7768Y5440D01*
G01X5107Y5440D01*
G01X4627Y5920D01*
G01X4259Y5920D01*
G01X4099Y6080D01*
G01X2920Y6080D01*
G01X2500Y6500D01*
G01X4202Y2185D02*
G01X2271Y4116D01*
G01X2271Y5545D01*
G01X2485Y5760D01*
G01X3967Y5760D01*
G01X4145Y5582D01*
G01X4512Y5582D01*
G01X4783Y5311D01*
G01X4783Y5216D01*
G01X5954Y4911D02*
G01X6003Y4862D01*
G01X6932Y4862D01*
G01X7047Y4747D01*
G01X7250Y4747D01*
G01X7426Y4571D01*
G01X9585Y4571D01*
G01X9739Y4417D01*
G01X9801Y4417D01*
G01X15659Y4173D02*
G01X15659Y2874D01*
G01X15767Y2765D01*
G01X13500Y6500D02*
G01X14153Y5846D01*
G01X14153Y5660D01*
G01X15029Y4784D01*
G01X15037Y4784D01*
G01X15192Y4629D01*
G01X15203Y4629D01*
G01X15203Y2613D01*
G01X14979Y2389D01*
G01X14979Y2201D01*
G01X14980Y2201D01*
G01X14980Y1387D01*
G01X14665Y1072D01*
G01X13728Y1072D01*
G01X13167Y1633D01*
G01X12657Y1633D01*
G01X12650Y1641D01*
G01X12631Y1641D01*
G01X12139Y2133D01*
G01X10909Y2133D01*
G01X10906Y2130D01*
G01X10609Y2130D01*
G01X10601Y2138D01*
G01X7903Y2138D01*
G01X6884Y3157D01*
G01X5854Y3157D01*
G01X4976Y4035D01*
G01X4360Y4035D01*
G01X15203Y4629D02*
G01X16158Y4629D01*
G01X16161Y4626D01*
G01X16171Y4635D01*
G01X13728Y1072D02*
G01X13728Y729D01*
G01X13500Y500D01*
G01X6023Y6368D02*
G01X6013Y6368D01*
G01X6013Y5986D01*
G01X6080Y5920D01*
G01X8373Y5920D01*
G01X8633Y5660D01*
G01X10103Y5660D01*
G01X10858Y4905D01*
G01X11224Y4905D01*
G01X11455Y4674D01*
G01X11598Y4532D01*
G01X11978Y4532D01*
G01X12149Y4360D01*
G01X12466Y4360D01*
G01X12490Y4337D01*
G01X12497Y4337D01*
G01X12666Y4167D01*
G01X12666Y4020D01*
G01X12590Y3722D02*
G01X12541Y3722D01*
G01X11899Y4364D01*
G01X11408Y4364D01*
G01X11111Y4661D01*
G01X10876Y4661D01*
G01X10037Y5500D01*
G01X8566Y5500D01*
G01X8307Y5760D01*
G01X5240Y5760D01*
G01X4500Y6500D01*
G01X14558Y3079D02*
G01X14113Y3523D01*
G01X12578Y3523D01*
G01X12577Y3525D01*
G01X12508Y3525D01*
G01X11834Y4199D01*
G01X10996Y4199D01*
G01X10424Y4772D01*
G01X10424Y4887D01*
G01X9989Y5322D01*
G01X8177Y5322D01*
G01X8061Y5439D01*
G01X8061Y5442D01*
G01X7903Y5600D01*
G01X5173Y5600D01*
G01X4693Y6080D01*
G01X4326Y6080D01*
G01X3906Y6500D01*
G01X3500Y6500D01*
G01X6702Y3444D02*
G01X6635Y3444D01*
G01X5958Y4121D01*
G01X5274Y4121D01*
G01X5143Y4251D01*
G01X4294Y4251D01*
G01X4160Y4118D01*
G01X4160Y3952D01*
G01X4409Y3704D01*
G01X4409Y2372D01*
G01X4498Y2283D01*
G01X4498Y1998D01*
G01X4350Y1998D01*
G01X6978Y6141D02*
G01X7040Y6080D01*
G01X8439Y6080D01*
G01X8699Y5820D01*
G01X10170Y5820D01*
G01X10281Y5708D01*
G01X11427Y5708D01*
G01X11909Y5226D01*
G01X11909Y4813D01*
G01X11939Y4783D01*
G01X11939Y4734D01*
G01X13011Y580D02*
G01X13011Y582D01*
G01X12673Y919D01*
G01X11920Y919D01*
G01X11500Y500D01*
G01X9980Y4232D02*
G01X10337Y3875D01*
G01X10337Y3188D01*
G01X10728Y2797D01*
G01X11116Y2797D01*
G01X11213Y2700D01*
G01X11212Y2698D01*
G01X11224Y2687D01*
G01X12519Y2687D01*
G01X13011Y2194D01*
G01X13011Y2076D01*
G01X9881Y4645D02*
G01X9881Y4629D01*
G01X10740Y3771D01*
G01X10740Y3490D01*
G01X10738Y3487D01*
G01X10738Y3444D01*
G01X10928Y3254D01*
G01X11188Y3254D01*
G01X11595Y2847D01*
G01X12595Y2847D01*
G01X13362Y2080D01*
G01X13366Y2083D01*
G01X10757Y2490D02*
G01X10757Y2539D01*
G01X10169Y3127D01*
G01X10169Y3761D01*
G01X9518Y4411D01*
G01X7508Y4411D01*
G01X7289Y4192D01*
G01X7230Y4192D01*
G01X6961Y4461D01*
G01X6777Y4461D01*
G01X6727Y4411D01*
G01X6098Y4411D01*
G01X5971Y4284D01*
G01X5336Y4284D01*
G01X5209Y4411D01*
G01X3934Y4411D01*
G01X2815Y5531D01*
G01X14153Y1643D02*
G01X13996Y1801D01*
G01X12698Y1801D01*
G01X12206Y2293D01*
G01X12066Y2293D01*
G01X10843Y2293D01*
G01X10840Y2290D01*
G01X10675Y2290D01*
G01X10487Y2478D01*
G01X10487Y2573D01*
G01X9960Y3100D01*
G01X9960Y3572D01*
G01X10009Y6035D02*
G01X12758Y6035D01*
G01X12788Y6066D01*
G01X13021Y6066D01*
G01X8196Y4127D02*
G01X8451Y4127D01*
G01X8569Y4244D01*
G01X8734Y4244D01*
G01X8850Y4127D01*
G01X8850Y3951D01*
G01X8346Y3447D01*
G01X8346Y2933D01*
G01X7736Y1663D02*
G01X7962Y1889D01*
G01X9425Y1889D01*
G01X9613Y1702D01*
G01X9933Y1702D01*
G01X10164Y1932D01*
G01X11039Y1932D01*
G01X11112Y1860D01*
G01X11112Y748D01*
G01X10984Y620D01*
G01X11019Y584D01*
G36*
G01X1200Y500D02*
G01X1202Y537D01*
G01X1209Y574D01*
G01X1221Y610D01*
G01X1237Y644D01*
G01X1257Y676D01*
G01X1281Y705D01*
G01X1308Y731D01*
G01X1339Y753D01*
G01X1372Y771D01*
G01X1407Y785D01*
G01X1443Y794D01*
G01X1481Y799D01*
G01X1518Y799D01*
G01X1556Y794D01*
G01X1592Y785D01*
G01X1627Y771D01*
G01X1660Y753D01*
G01X1691Y731D01*
G01X1718Y705D01*
G01X1742Y676D01*
G01X1762Y644D01*
G01X1778Y610D01*
G01X1790Y574D01*
G01X1797Y537D01*
G01X1800Y500D01*
G01X1800Y-100D01*
G01X1797Y-137D01*
G01X1790Y-174D01*
G01X1778Y-210D01*
G01X1762Y-244D01*
G01X1742Y-276D01*
G01X1718Y-305D01*
G01X1691Y-331D01*
G01X1660Y-353D01*
G01X1627Y-371D01*
G01X1592Y-385D01*
G01X1556Y-394D01*
G01X1518Y-399D01*
G01X1481Y-399D01*
G01X1443Y-394D01*
G01X1407Y-385D01*
G01X1372Y-371D01*
G01X1339Y-353D01*
G01X1308Y-331D01*
G01X1281Y-305D01*
G01X1257Y-276D01*
G01X1237Y-244D01*
G01X1221Y-210D01*
G01X1209Y-174D01*
G01X1202Y-137D01*
G01X1200Y-100D01*
G01X1200Y500D01*
G37*
G36*
G01X2200Y500D02*
G01X2202Y537D01*
G01X2209Y574D01*
G01X2221Y610D01*
G01X2237Y644D01*
G01X2257Y676D01*
G01X2281Y705D01*
G01X2308Y731D01*
G01X2339Y753D01*
G01X2372Y771D01*
G01X2407Y785D01*
G01X2443Y794D01*
G01X2481Y799D01*
G01X2518Y799D01*
G01X2556Y794D01*
G01X2592Y785D01*
G01X2627Y771D01*
G01X2660Y753D01*
G01X2691Y731D01*
G01X2718Y705D01*
G01X2742Y676D01*
G01X2762Y644D01*
G01X2778Y610D01*
G01X2790Y574D01*
G01X2797Y537D01*
G01X2800Y500D01*
G01X2800Y-100D01*
G01X2797Y-137D01*
G01X2790Y-174D01*
G01X2778Y-210D01*
G01X2762Y-244D01*
G01X2742Y-276D01*
G01X2718Y-305D01*
G01X2691Y-331D01*
G01X2660Y-353D01*
G01X2627Y-371D01*
G01X2592Y-385D01*
G01X2556Y-394D01*
G01X2518Y-399D01*
G01X2481Y-399D01*
G01X2443Y-394D01*
G01X2407Y-385D01*
G01X2372Y-371D01*
G01X2339Y-353D01*
G01X2308Y-331D01*
G01X2281Y-305D01*
G01X2257Y-276D01*
G01X2237Y-244D01*
G01X2221Y-210D01*
G01X2209Y-174D01*
G01X2202Y-137D01*
G01X2200Y-100D01*
G01X2200Y500D01*
G37*
G36*
G01X3200Y500D02*
G01X3202Y537D01*
G01X3209Y574D01*
G01X3221Y610D01*
G01X3237Y644D01*
G01X3257Y676D01*
G01X3281Y705D01*
G01X3308Y731D01*
G01X3339Y753D01*
G01X3372Y771D01*
G01X3407Y785D01*
G01X3443Y794D01*
G01X3481Y799D01*
G01X3518Y799D01*
G01X3556Y794D01*
G01X3592Y785D01*
G01X3627Y771D01*
G01X3660Y753D01*
G01X3691Y731D01*
G01X3718Y705D01*
G01X3742Y676D01*
G01X3762Y644D01*
G01X3778Y610D01*
G01X3790Y574D01*
G01X3797Y537D01*
G01X3800Y500D01*
G01X3800Y-100D01*
G01X3797Y-137D01*
G01X3790Y-174D01*
G01X3778Y-210D01*
G01X3762Y-244D01*
G01X3742Y-276D01*
G01X3718Y-305D01*
G01X3691Y-331D01*
G01X3660Y-353D01*
G01X3627Y-371D01*
G01X3592Y-385D01*
G01X3556Y-394D01*
G01X3518Y-399D01*
G01X3481Y-399D01*
G01X3443Y-394D01*
G01X3407Y-385D01*
G01X3372Y-371D01*
G01X3339Y-353D01*
G01X3308Y-331D01*
G01X3281Y-305D01*
G01X3257Y-276D01*
G01X3237Y-244D01*
G01X3221Y-210D01*
G01X3209Y-174D01*
G01X3202Y-137D01*
G01X3200Y-100D01*
G01X3200Y500D01*
G37*
G36*
G01X4200Y500D02*
G01X4202Y537D01*
G01X4209Y574D01*
G01X4221Y610D01*
G01X4237Y644D01*
G01X4257Y676D01*
G01X4281Y705D01*
G01X4308Y731D01*
G01X4339Y753D01*
G01X4372Y771D01*
G01X4407Y785D01*
G01X4443Y794D01*
G01X4481Y799D01*
G01X4518Y799D01*
G01X4556Y794D01*
G01X4592Y785D01*
G01X4627Y771D01*
G01X4660Y753D01*
G01X4691Y731D01*
G01X4718Y705D01*
G01X4742Y676D01*
G01X4762Y644D01*
G01X4778Y610D01*
G01X4790Y574D01*
G01X4797Y537D01*
G01X4800Y500D01*
G01X4800Y-100D01*
G01X4797Y-137D01*
G01X4790Y-174D01*
G01X4778Y-210D01*
G01X4762Y-244D01*
G01X4742Y-276D01*
G01X4718Y-305D01*
G01X4691Y-331D01*
G01X4660Y-353D01*
G01X4627Y-371D01*
G01X4592Y-385D01*
G01X4556Y-394D01*
G01X4518Y-399D01*
G01X4481Y-399D01*
G01X4443Y-394D01*
G01X4407Y-385D01*
G01X4372Y-371D01*
G01X4339Y-353D01*
G01X4308Y-331D01*
G01X4281Y-305D01*
G01X4257Y-276D01*
G01X4237Y-244D01*
G01X4221Y-210D01*
G01X4209Y-174D01*
G01X4202Y-137D01*
G01X4200Y-100D01*
G01X4200Y500D01*
G37*
G36*
G01X5200Y500D02*
G01X5202Y537D01*
G01X5209Y574D01*
G01X5221Y610D01*
G01X5237Y644D01*
G01X5257Y676D01*
G01X5281Y705D01*
G01X5308Y731D01*
G01X5339Y753D01*
G01X5372Y771D01*
G01X5407Y785D01*
G01X5443Y794D01*
G01X5481Y799D01*
G01X5518Y799D01*
G01X5556Y794D01*
G01X5592Y785D01*
G01X5627Y771D01*
G01X5660Y753D01*
G01X5691Y731D01*
G01X5718Y705D01*
G01X5742Y676D01*
G01X5762Y644D01*
G01X5778Y610D01*
G01X5790Y574D01*
G01X5797Y537D01*
G01X5800Y500D01*
G01X5800Y-100D01*
G01X5797Y-137D01*
G01X5790Y-174D01*
G01X5778Y-210D01*
G01X5762Y-244D01*
G01X5742Y-276D01*
G01X5718Y-305D01*
G01X5691Y-331D01*
G01X5660Y-353D01*
G01X5627Y-371D01*
G01X5592Y-385D01*
G01X5556Y-394D01*
G01X5518Y-399D01*
G01X5481Y-399D01*
G01X5443Y-394D01*
G01X5407Y-385D01*
G01X5372Y-371D01*
G01X5339Y-353D01*
G01X5308Y-331D01*
G01X5281Y-305D01*
G01X5257Y-276D01*
G01X5237Y-244D01*
G01X5221Y-210D01*
G01X5209Y-174D01*
G01X5202Y-137D01*
G01X5200Y-100D01*
G01X5200Y500D01*
G37*
G36*
G01X6200Y500D02*
G01X6202Y537D01*
G01X6209Y574D01*
G01X6221Y610D01*
G01X6237Y644D01*
G01X6257Y676D01*
G01X6281Y705D01*
G01X6308Y731D01*
G01X6339Y753D01*
G01X6372Y771D01*
G01X6407Y785D01*
G01X6443Y794D01*
G01X6481Y799D01*
G01X6518Y799D01*
G01X6556Y794D01*
G01X6592Y785D01*
G01X6627Y771D01*
G01X6660Y753D01*
G01X6691Y731D01*
G01X6718Y705D01*
G01X6742Y676D01*
G01X6762Y644D01*
G01X6778Y610D01*
G01X6790Y574D01*
G01X6797Y537D01*
G01X6800Y500D01*
G01X6800Y-100D01*
G01X6797Y-137D01*
G01X6790Y-174D01*
G01X6778Y-210D01*
G01X6762Y-244D01*
G01X6742Y-276D01*
G01X6718Y-305D01*
G01X6691Y-331D01*
G01X6660Y-353D01*
G01X6627Y-371D01*
G01X6592Y-385D01*
G01X6556Y-394D01*
G01X6518Y-399D01*
G01X6481Y-399D01*
G01X6443Y-394D01*
G01X6407Y-385D01*
G01X6372Y-371D01*
G01X6339Y-353D01*
G01X6308Y-331D01*
G01X6281Y-305D01*
G01X6257Y-276D01*
G01X6237Y-244D01*
G01X6221Y-210D01*
G01X6209Y-174D01*
G01X6202Y-137D01*
G01X6200Y-100D01*
G01X6200Y500D01*
G37*
G36*
G01X7200Y500D02*
G01X7202Y537D01*
G01X7209Y574D01*
G01X7221Y610D01*
G01X7237Y644D01*
G01X7257Y676D01*
G01X7281Y705D01*
G01X7308Y731D01*
G01X7339Y753D01*
G01X7372Y771D01*
G01X7407Y785D01*
G01X7443Y794D01*
G01X7481Y799D01*
G01X7518Y799D01*
G01X7556Y794D01*
G01X7592Y785D01*
G01X7627Y771D01*
G01X7660Y753D01*
G01X7691Y731D01*
G01X7718Y705D01*
G01X7742Y676D01*
G01X7762Y644D01*
G01X7778Y610D01*
G01X7790Y574D01*
G01X7797Y537D01*
G01X7800Y500D01*
G01X7800Y-100D01*
G01X7797Y-137D01*
G01X7790Y-174D01*
G01X7778Y-210D01*
G01X7762Y-244D01*
G01X7742Y-276D01*
G01X7718Y-305D01*
G01X7691Y-331D01*
G01X7660Y-353D01*
G01X7627Y-371D01*
G01X7592Y-385D01*
G01X7556Y-394D01*
G01X7518Y-399D01*
G01X7481Y-399D01*
G01X7443Y-394D01*
G01X7407Y-385D01*
G01X7372Y-371D01*
G01X7339Y-353D01*
G01X7308Y-331D01*
G01X7281Y-305D01*
G01X7257Y-276D01*
G01X7237Y-244D01*
G01X7221Y-210D01*
G01X7209Y-174D01*
G01X7202Y-137D01*
G01X7200Y-100D01*
G01X7200Y500D01*
G37*
G36*
G01X8200Y500D02*
G01X8202Y537D01*
G01X8209Y574D01*
G01X8221Y610D01*
G01X8237Y644D01*
G01X8257Y676D01*
G01X8281Y705D01*
G01X8308Y731D01*
G01X8339Y753D01*
G01X8372Y771D01*
G01X8407Y785D01*
G01X8443Y794D01*
G01X8481Y799D01*
G01X8518Y799D01*
G01X8556Y794D01*
G01X8592Y785D01*
G01X8627Y771D01*
G01X8660Y753D01*
G01X8691Y731D01*
G01X8718Y705D01*
G01X8742Y676D01*
G01X8762Y644D01*
G01X8778Y610D01*
G01X8790Y574D01*
G01X8797Y537D01*
G01X8800Y500D01*
G01X8800Y-100D01*
G01X8797Y-137D01*
G01X8790Y-174D01*
G01X8778Y-210D01*
G01X8762Y-244D01*
G01X8742Y-276D01*
G01X8718Y-305D01*
G01X8691Y-331D01*
G01X8660Y-353D01*
G01X8627Y-371D01*
G01X8592Y-385D01*
G01X8556Y-394D01*
G01X8518Y-399D01*
G01X8481Y-399D01*
G01X8443Y-394D01*
G01X8407Y-385D01*
G01X8372Y-371D01*
G01X8339Y-353D01*
G01X8308Y-331D01*
G01X8281Y-305D01*
G01X8257Y-276D01*
G01X8237Y-244D01*
G01X8221Y-210D01*
G01X8209Y-174D01*
G01X8202Y-137D01*
G01X8200Y-100D01*
G01X8200Y500D01*
G37*
G36*
G01X9200Y500D02*
G01X9202Y537D01*
G01X9209Y574D01*
G01X9221Y610D01*
G01X9237Y644D01*
G01X9257Y676D01*
G01X9281Y705D01*
G01X9308Y731D01*
G01X9339Y753D01*
G01X9372Y771D01*
G01X9407Y785D01*
G01X9443Y794D01*
G01X9481Y799D01*
G01X9518Y799D01*
G01X9556Y794D01*
G01X9592Y785D01*
G01X9627Y771D01*
G01X9660Y753D01*
G01X9691Y731D01*
G01X9718Y705D01*
G01X9742Y676D01*
G01X9762Y644D01*
G01X9778Y610D01*
G01X9790Y574D01*
G01X9797Y537D01*
G01X9800Y500D01*
G01X9800Y-100D01*
G01X9797Y-137D01*
G01X9790Y-174D01*
G01X9778Y-210D01*
G01X9762Y-244D01*
G01X9742Y-276D01*
G01X9718Y-305D01*
G01X9691Y-331D01*
G01X9660Y-353D01*
G01X9627Y-371D01*
G01X9592Y-385D01*
G01X9556Y-394D01*
G01X9518Y-399D01*
G01X9481Y-399D01*
G01X9443Y-394D01*
G01X9407Y-385D01*
G01X9372Y-371D01*
G01X9339Y-353D01*
G01X9308Y-331D01*
G01X9281Y-305D01*
G01X9257Y-276D01*
G01X9237Y-244D01*
G01X9221Y-210D01*
G01X9209Y-174D01*
G01X9202Y-137D01*
G01X9200Y-100D01*
G01X9200Y500D01*
G37*
G36*
G01X10200Y500D02*
G01X10202Y537D01*
G01X10209Y574D01*
G01X10221Y610D01*
G01X10237Y644D01*
G01X10257Y676D01*
G01X10281Y705D01*
G01X10308Y731D01*
G01X10339Y753D01*
G01X10372Y771D01*
G01X10407Y785D01*
G01X10443Y794D01*
G01X10481Y799D01*
G01X10518Y799D01*
G01X10556Y794D01*
G01X10592Y785D01*
G01X10627Y771D01*
G01X10660Y753D01*
G01X10691Y731D01*
G01X10718Y705D01*
G01X10742Y676D01*
G01X10762Y644D01*
G01X10778Y610D01*
G01X10790Y574D01*
G01X10797Y537D01*
G01X10800Y500D01*
G01X10800Y-100D01*
G01X10797Y-137D01*
G01X10790Y-174D01*
G01X10778Y-210D01*
G01X10762Y-244D01*
G01X10742Y-276D01*
G01X10718Y-305D01*
G01X10691Y-331D01*
G01X10660Y-353D01*
G01X10627Y-371D01*
G01X10592Y-385D01*
G01X10556Y-394D01*
G01X10518Y-399D01*
G01X10481Y-399D01*
G01X10443Y-394D01*
G01X10407Y-385D01*
G01X10372Y-371D01*
G01X10339Y-353D01*
G01X10308Y-331D01*
G01X10281Y-305D01*
G01X10257Y-276D01*
G01X10237Y-244D01*
G01X10221Y-210D01*
G01X10209Y-174D01*
G01X10202Y-137D01*
G01X10200Y-100D01*
G01X10200Y500D01*
G37*
G36*
G01X11200Y500D02*
G01X11202Y537D01*
G01X11209Y574D01*
G01X11221Y610D01*
G01X11237Y644D01*
G01X11257Y676D01*
G01X11281Y705D01*
G01X11308Y731D01*
G01X11339Y753D01*
G01X11372Y771D01*
G01X11407Y785D01*
G01X11443Y794D01*
G01X11481Y799D01*
G01X11518Y799D01*
G01X11556Y794D01*
G01X11592Y785D01*
G01X11627Y771D01*
G01X11660Y753D01*
G01X11691Y731D01*
G01X11718Y705D01*
G01X11742Y676D01*
G01X11762Y644D01*
G01X11778Y610D01*
G01X11790Y574D01*
G01X11797Y537D01*
G01X11800Y500D01*
G01X11800Y-100D01*
G01X11797Y-137D01*
G01X11790Y-174D01*
G01X11778Y-210D01*
G01X11762Y-244D01*
G01X11742Y-276D01*
G01X11718Y-305D01*
G01X11691Y-331D01*
G01X11660Y-353D01*
G01X11627Y-371D01*
G01X11592Y-385D01*
G01X11556Y-394D01*
G01X11518Y-399D01*
G01X11481Y-399D01*
G01X11443Y-394D01*
G01X11407Y-385D01*
G01X11372Y-371D01*
G01X11339Y-353D01*
G01X11308Y-331D01*
G01X11281Y-305D01*
G01X11257Y-276D01*
G01X11237Y-244D01*
G01X11221Y-210D01*
G01X11209Y-174D01*
G01X11202Y-137D01*
G01X11200Y-100D01*
G01X11200Y500D01*
G37*
G36*
G01X12200Y500D02*
G01X12202Y537D01*
G01X12209Y574D01*
G01X12221Y610D01*
G01X12237Y644D01*
G01X12257Y676D01*
G01X12281Y705D01*
G01X12308Y731D01*
G01X12339Y753D01*
G01X12372Y771D01*
G01X12407Y785D01*
G01X12443Y794D01*
G01X12481Y799D01*
G01X12518Y799D01*
G01X12556Y794D01*
G01X12592Y785D01*
G01X12627Y771D01*
G01X12660Y753D01*
G01X12691Y731D01*
G01X12718Y705D01*
G01X12742Y676D01*
G01X12762Y644D01*
G01X12778Y610D01*
G01X12790Y574D01*
G01X12797Y537D01*
G01X12800Y500D01*
G01X12800Y-100D01*
G01X12797Y-137D01*
G01X12790Y-174D01*
G01X12778Y-210D01*
G01X12762Y-244D01*
G01X12742Y-276D01*
G01X12718Y-305D01*
G01X12691Y-331D01*
G01X12660Y-353D01*
G01X12627Y-371D01*
G01X12592Y-385D01*
G01X12556Y-394D01*
G01X12518Y-399D01*
G01X12481Y-399D01*
G01X12443Y-394D01*
G01X12407Y-385D01*
G01X12372Y-371D01*
G01X12339Y-353D01*
G01X12308Y-331D01*
G01X12281Y-305D01*
G01X12257Y-276D01*
G01X12237Y-244D01*
G01X12221Y-210D01*
G01X12209Y-174D01*
G01X12202Y-137D01*
G01X12200Y-100D01*
G01X12200Y500D01*
G37*
G36*
G01X13200Y500D02*
G01X13202Y537D01*
G01X13209Y574D01*
G01X13221Y610D01*
G01X13237Y644D01*
G01X13257Y676D01*
G01X13281Y705D01*
G01X13308Y731D01*
G01X13339Y753D01*
G01X13372Y771D01*
G01X13407Y785D01*
G01X13443Y794D01*
G01X13481Y799D01*
G01X13518Y799D01*
G01X13556Y794D01*
G01X13592Y785D01*
G01X13627Y771D01*
G01X13660Y753D01*
G01X13691Y731D01*
G01X13718Y705D01*
G01X13742Y676D01*
G01X13762Y644D01*
G01X13778Y610D01*
G01X13790Y574D01*
G01X13797Y537D01*
G01X13800Y500D01*
G01X13800Y-100D01*
G01X13797Y-137D01*
G01X13790Y-174D01*
G01X13778Y-210D01*
G01X13762Y-244D01*
G01X13742Y-276D01*
G01X13718Y-305D01*
G01X13691Y-331D01*
G01X13660Y-353D01*
G01X13627Y-371D01*
G01X13592Y-385D01*
G01X13556Y-394D01*
G01X13518Y-399D01*
G01X13481Y-399D01*
G01X13443Y-394D01*
G01X13407Y-385D01*
G01X13372Y-371D01*
G01X13339Y-353D01*
G01X13308Y-331D01*
G01X13281Y-305D01*
G01X13257Y-276D01*
G01X13237Y-244D01*
G01X13221Y-210D01*
G01X13209Y-174D01*
G01X13202Y-137D01*
G01X13200Y-100D01*
G01X13200Y500D01*
G37*
G36*
G01X14200Y500D02*
G01X14202Y537D01*
G01X14209Y574D01*
G01X14221Y610D01*
G01X14237Y644D01*
G01X14257Y676D01*
G01X14281Y705D01*
G01X14308Y731D01*
G01X14339Y753D01*
G01X14372Y771D01*
G01X14407Y785D01*
G01X14443Y794D01*
G01X14481Y799D01*
G01X14518Y799D01*
G01X14556Y794D01*
G01X14592Y785D01*
G01X14627Y771D01*
G01X14660Y753D01*
G01X14691Y731D01*
G01X14718Y705D01*
G01X14742Y676D01*
G01X14762Y644D01*
G01X14778Y610D01*
G01X14790Y574D01*
G01X14797Y537D01*
G01X14800Y500D01*
G01X14800Y-100D01*
G01X14797Y-137D01*
G01X14790Y-174D01*
G01X14778Y-210D01*
G01X14762Y-244D01*
G01X14742Y-276D01*
G01X14718Y-305D01*
G01X14691Y-331D01*
G01X14660Y-353D01*
G01X14627Y-371D01*
G01X14592Y-385D01*
G01X14556Y-394D01*
G01X14518Y-399D01*
G01X14481Y-399D01*
G01X14443Y-394D01*
G01X14407Y-385D01*
G01X14372Y-371D01*
G01X14339Y-353D01*
G01X14308Y-331D01*
G01X14281Y-305D01*
G01X14257Y-276D01*
G01X14237Y-244D01*
G01X14221Y-210D01*
G01X14209Y-174D01*
G01X14202Y-137D01*
G01X14200Y-100D01*
G01X14200Y500D01*
G37*
G36*
G01X15200Y500D02*
G01X15202Y537D01*
G01X15209Y574D01*
G01X15221Y610D01*
G01X15237Y644D01*
G01X15257Y676D01*
G01X15281Y705D01*
G01X15308Y731D01*
G01X15339Y753D01*
G01X15372Y771D01*
G01X15407Y785D01*
G01X15443Y794D01*
G01X15481Y799D01*
G01X15518Y799D01*
G01X15556Y794D01*
G01X15592Y785D01*
G01X15627Y771D01*
G01X15660Y753D01*
G01X15691Y731D01*
G01X15718Y705D01*
G01X15742Y676D01*
G01X15762Y644D01*
G01X15778Y610D01*
G01X15790Y574D01*
G01X15797Y537D01*
G01X15800Y500D01*
G01X15800Y-100D01*
G01X15797Y-137D01*
G01X15790Y-174D01*
G01X15778Y-210D01*
G01X15762Y-244D01*
G01X15742Y-276D01*
G01X15718Y-305D01*
G01X15691Y-331D01*
G01X15660Y-353D01*
G01X15627Y-371D01*
G01X15592Y-385D01*
G01X15556Y-394D01*
G01X15518Y-399D01*
G01X15481Y-399D01*
G01X15443Y-394D01*
G01X15407Y-385D01*
G01X15372Y-371D01*
G01X15339Y-353D01*
G01X15308Y-331D01*
G01X15281Y-305D01*
G01X15257Y-276D01*
G01X15237Y-244D01*
G01X15221Y-210D01*
G01X15209Y-174D01*
G01X15202Y-137D01*
G01X15200Y-100D01*
G01X15200Y500D01*
G37*
G36*
G01X15800Y6500D02*
G01X15797Y6462D01*
G01X15790Y6425D01*
G01X15778Y6389D01*
G01X15762Y6355D01*
G01X15742Y6323D01*
G01X15718Y6294D01*
G01X15691Y6268D01*
G01X15660Y6246D01*
G01X15627Y6228D01*
G01X15592Y6214D01*
G01X15556Y6205D01*
G01X15518Y6200D01*
G01X15481Y6200D01*
G01X15443Y6205D01*
G01X15407Y6214D01*
G01X15372Y6228D01*
G01X15339Y6246D01*
G01X15308Y6268D01*
G01X15281Y6294D01*
G01X15257Y6323D01*
G01X15237Y6355D01*
G01X15221Y6389D01*
G01X15209Y6425D01*
G01X15202Y6462D01*
G01X15200Y6500D01*
G01X15200Y7100D01*
G01X15202Y7137D01*
G01X15209Y7174D01*
G01X15221Y7210D01*
G01X15237Y7244D01*
G01X15257Y7276D01*
G01X15281Y7305D01*
G01X15308Y7331D01*
G01X15339Y7353D01*
G01X15372Y7371D01*
G01X15407Y7385D01*
G01X15443Y7394D01*
G01X15481Y7399D01*
G01X15518Y7399D01*
G01X15556Y7394D01*
G01X15592Y7385D01*
G01X15627Y7371D01*
G01X15660Y7353D01*
G01X15691Y7331D01*
G01X15718Y7305D01*
G01X15742Y7276D01*
G01X15762Y7244D01*
G01X15778Y7210D01*
G01X15790Y7174D01*
G01X15797Y7137D01*
G01X15800Y7100D01*
G01X15800Y6500D01*
G37*
G36*
G01X14800Y6500D02*
G01X14797Y6462D01*
G01X14790Y6425D01*
G01X14778Y6389D01*
G01X14762Y6355D01*
G01X14742Y6323D01*
G01X14718Y6294D01*
G01X14691Y6268D01*
G01X14660Y6246D01*
G01X14627Y6228D01*
G01X14592Y6214D01*
G01X14556Y6205D01*
G01X14518Y6200D01*
G01X14481Y6200D01*
G01X14443Y6205D01*
G01X14407Y6214D01*
G01X14372Y6228D01*
G01X14339Y6246D01*
G01X14308Y6268D01*
G01X14281Y6294D01*
G01X14257Y6323D01*
G01X14237Y6355D01*
G01X14221Y6389D01*
G01X14209Y6425D01*
G01X14202Y6462D01*
G01X14200Y6500D01*
G01X14200Y7100D01*
G01X14202Y7137D01*
G01X14209Y7174D01*
G01X14221Y7210D01*
G01X14237Y7244D01*
G01X14257Y7276D01*
G01X14281Y7305D01*
G01X14308Y7331D01*
G01X14339Y7353D01*
G01X14372Y7371D01*
G01X14407Y7385D01*
G01X14443Y7394D01*
G01X14481Y7399D01*
G01X14518Y7399D01*
G01X14556Y7394D01*
G01X14592Y7385D01*
G01X14627Y7371D01*
G01X14660Y7353D01*
G01X14691Y7331D01*
G01X14718Y7305D01*
G01X14742Y7276D01*
G01X14762Y7244D01*
G01X14778Y7210D01*
G01X14790Y7174D01*
G01X14797Y7137D01*
G01X14800Y7100D01*
G01X14800Y6500D01*
G37*
G36*
G01X13800Y6500D02*
G01X13797Y6462D01*
G01X13790Y6425D01*
G01X13778Y6389D01*
G01X13762Y6355D01*
G01X13742Y6323D01*
G01X13718Y6294D01*
G01X13691Y6268D01*
G01X13660Y6246D01*
G01X13627Y6228D01*
G01X13592Y6214D01*
G01X13556Y6205D01*
G01X13518Y6200D01*
G01X13481Y6200D01*
G01X13443Y6205D01*
G01X13407Y6214D01*
G01X13372Y6228D01*
G01X13339Y6246D01*
G01X13308Y6268D01*
G01X13281Y6294D01*
G01X13257Y6323D01*
G01X13237Y6355D01*
G01X13221Y6389D01*
G01X13209Y6425D01*
G01X13202Y6462D01*
G01X13200Y6500D01*
G01X13200Y7100D01*
G01X13202Y7137D01*
G01X13209Y7174D01*
G01X13221Y7210D01*
G01X13237Y7244D01*
G01X13257Y7276D01*
G01X13281Y7305D01*
G01X13308Y7331D01*
G01X13339Y7353D01*
G01X13372Y7371D01*
G01X13407Y7385D01*
G01X13443Y7394D01*
G01X13481Y7399D01*
G01X13518Y7399D01*
G01X13556Y7394D01*
G01X13592Y7385D01*
G01X13627Y7371D01*
G01X13660Y7353D01*
G01X13691Y7331D01*
G01X13718Y7305D01*
G01X13742Y7276D01*
G01X13762Y7244D01*
G01X13778Y7210D01*
G01X13790Y7174D01*
G01X13797Y7137D01*
G01X13800Y7100D01*
G01X13800Y6500D01*
G37*
G36*
G01X12800Y6500D02*
G01X12797Y6462D01*
G01X12790Y6425D01*
G01X12778Y6389D01*
G01X12762Y6355D01*
G01X12742Y6323D01*
G01X12718Y6294D01*
G01X12691Y6268D01*
G01X12660Y6246D01*
G01X12627Y6228D01*
G01X12592Y6214D01*
G01X12556Y6205D01*
G01X12518Y6200D01*
G01X12481Y6200D01*
G01X12443Y6205D01*
G01X12407Y6214D01*
G01X12372Y6228D01*
G01X12339Y6246D01*
G01X12308Y6268D01*
G01X12281Y6294D01*
G01X12257Y6323D01*
G01X12237Y6355D01*
G01X12221Y6389D01*
G01X12209Y6425D01*
G01X12202Y6462D01*
G01X12200Y6500D01*
G01X12200Y7100D01*
G01X12202Y7137D01*
G01X12209Y7174D01*
G01X12221Y7210D01*
G01X12237Y7244D01*
G01X12257Y7276D01*
G01X12281Y7305D01*
G01X12308Y7331D01*
G01X12339Y7353D01*
G01X12372Y7371D01*
G01X12407Y7385D01*
G01X12443Y7394D01*
G01X12481Y7399D01*
G01X12518Y7399D01*
G01X12556Y7394D01*
G01X12592Y7385D01*
G01X12627Y7371D01*
G01X12660Y7353D01*
G01X12691Y7331D01*
G01X12718Y7305D01*
G01X12742Y7276D01*
G01X12762Y7244D01*
G01X12778Y7210D01*
G01X12790Y7174D01*
G01X12797Y7137D01*
G01X12800Y7100D01*
G01X12800Y6500D01*
G37*
G36*
G01X11800Y6500D02*
G01X11797Y6462D01*
G01X11790Y6425D01*
G01X11778Y6389D01*
G01X11762Y6355D01*
G01X11742Y6323D01*
G01X11718Y6294D01*
G01X11691Y6268D01*
G01X11660Y6246D01*
G01X11627Y6228D01*
G01X11592Y6214D01*
G01X11556Y6205D01*
G01X11518Y6200D01*
G01X11481Y6200D01*
G01X11443Y6205D01*
G01X11407Y6214D01*
G01X11372Y6228D01*
G01X11339Y6246D01*
G01X11308Y6268D01*
G01X11281Y6294D01*
G01X11257Y6323D01*
G01X11237Y6355D01*
G01X11221Y6389D01*
G01X11209Y6425D01*
G01X11202Y6462D01*
G01X11200Y6500D01*
G01X11200Y7100D01*
G01X11202Y7137D01*
G01X11209Y7174D01*
G01X11221Y7210D01*
G01X11237Y7244D01*
G01X11257Y7276D01*
G01X11281Y7305D01*
G01X11308Y7331D01*
G01X11339Y7353D01*
G01X11372Y7371D01*
G01X11407Y7385D01*
G01X11443Y7394D01*
G01X11481Y7399D01*
G01X11518Y7399D01*
G01X11556Y7394D01*
G01X11592Y7385D01*
G01X11627Y7371D01*
G01X11660Y7353D01*
G01X11691Y7331D01*
G01X11718Y7305D01*
G01X11742Y7276D01*
G01X11762Y7244D01*
G01X11778Y7210D01*
G01X11790Y7174D01*
G01X11797Y7137D01*
G01X11800Y7100D01*
G01X11800Y6500D01*
G37*
G36*
G01X10800Y6500D02*
G01X10797Y6462D01*
G01X10790Y6425D01*
G01X10778Y6389D01*
G01X10762Y6355D01*
G01X10742Y6323D01*
G01X10718Y6294D01*
G01X10691Y6268D01*
G01X10660Y6246D01*
G01X10627Y6228D01*
G01X10592Y6214D01*
G01X10556Y6205D01*
G01X10518Y6200D01*
G01X10481Y6200D01*
G01X10443Y6205D01*
G01X10407Y6214D01*
G01X10372Y6228D01*
G01X10339Y6246D01*
G01X10308Y6268D01*
G01X10281Y6294D01*
G01X10257Y6323D01*
G01X10237Y6355D01*
G01X10221Y6389D01*
G01X10209Y6425D01*
G01X10202Y6462D01*
G01X10200Y6500D01*
G01X10200Y7100D01*
G01X10202Y7137D01*
G01X10209Y7174D01*
G01X10221Y7210D01*
G01X10237Y7244D01*
G01X10257Y7276D01*
G01X10281Y7305D01*
G01X10308Y7331D01*
G01X10339Y7353D01*
G01X10372Y7371D01*
G01X10407Y7385D01*
G01X10443Y7394D01*
G01X10481Y7399D01*
G01X10518Y7399D01*
G01X10556Y7394D01*
G01X10592Y7385D01*
G01X10627Y7371D01*
G01X10660Y7353D01*
G01X10691Y7331D01*
G01X10718Y7305D01*
G01X10742Y7276D01*
G01X10762Y7244D01*
G01X10778Y7210D01*
G01X10790Y7174D01*
G01X10797Y7137D01*
G01X10800Y7100D01*
G01X10800Y6500D01*
G37*
G36*
G01X9800Y6500D02*
G01X9797Y6462D01*
G01X9790Y6425D01*
G01X9778Y6389D01*
G01X9762Y6355D01*
G01X9742Y6323D01*
G01X9718Y6294D01*
G01X9691Y6268D01*
G01X9660Y6246D01*
G01X9627Y6228D01*
G01X9592Y6214D01*
G01X9556Y6205D01*
G01X9518Y6200D01*
G01X9481Y6200D01*
G01X9443Y6205D01*
G01X9407Y6214D01*
G01X9372Y6228D01*
G01X9339Y6246D01*
G01X9308Y6268D01*
G01X9281Y6294D01*
G01X9257Y6323D01*
G01X9237Y6355D01*
G01X9221Y6389D01*
G01X9209Y6425D01*
G01X9202Y6462D01*
G01X9200Y6500D01*
G01X9200Y7100D01*
G01X9202Y7137D01*
G01X9209Y7174D01*
G01X9221Y7210D01*
G01X9237Y7244D01*
G01X9257Y7276D01*
G01X9281Y7305D01*
G01X9308Y7331D01*
G01X9339Y7353D01*
G01X9372Y7371D01*
G01X9407Y7385D01*
G01X9443Y7394D01*
G01X9481Y7399D01*
G01X9518Y7399D01*
G01X9556Y7394D01*
G01X9592Y7385D01*
G01X9627Y7371D01*
G01X9660Y7353D01*
G01X9691Y7331D01*
G01X9718Y7305D01*
G01X9742Y7276D01*
G01X9762Y7244D01*
G01X9778Y7210D01*
G01X9790Y7174D01*
G01X9797Y7137D01*
G01X9800Y7100D01*
G01X9800Y6500D01*
G37*
G36*
G01X8800Y6500D02*
G01X8797Y6462D01*
G01X8790Y6425D01*
G01X8778Y6389D01*
G01X8762Y6355D01*
G01X8742Y6323D01*
G01X8718Y6294D01*
G01X8691Y6268D01*
G01X8660Y6246D01*
G01X8627Y6228D01*
G01X8592Y6214D01*
G01X8556Y6205D01*
G01X8518Y6200D01*
G01X8481Y6200D01*
G01X8443Y6205D01*
G01X8407Y6214D01*
G01X8372Y6228D01*
G01X8339Y6246D01*
G01X8308Y6268D01*
G01X8281Y6294D01*
G01X8257Y6323D01*
G01X8237Y6355D01*
G01X8221Y6389D01*
G01X8209Y6425D01*
G01X8202Y6462D01*
G01X8200Y6500D01*
G01X8200Y7100D01*
G01X8202Y7137D01*
G01X8209Y7174D01*
G01X8221Y7210D01*
G01X8237Y7244D01*
G01X8257Y7276D01*
G01X8281Y7305D01*
G01X8308Y7331D01*
G01X8339Y7353D01*
G01X8372Y7371D01*
G01X8407Y7385D01*
G01X8443Y7394D01*
G01X8481Y7399D01*
G01X8518Y7399D01*
G01X8556Y7394D01*
G01X8592Y7385D01*
G01X8627Y7371D01*
G01X8660Y7353D01*
G01X8691Y7331D01*
G01X8718Y7305D01*
G01X8742Y7276D01*
G01X8762Y7244D01*
G01X8778Y7210D01*
G01X8790Y7174D01*
G01X8797Y7137D01*
G01X8800Y7100D01*
G01X8800Y6500D01*
G37*
G36*
G01X7800Y6500D02*
G01X7797Y6462D01*
G01X7790Y6425D01*
G01X7778Y6389D01*
G01X7762Y6355D01*
G01X7742Y6323D01*
G01X7718Y6294D01*
G01X7691Y6268D01*
G01X7660Y6246D01*
G01X7627Y6228D01*
G01X7592Y6214D01*
G01X7556Y6205D01*
G01X7518Y6200D01*
G01X7481Y6200D01*
G01X7443Y6205D01*
G01X7407Y6214D01*
G01X7372Y6228D01*
G01X7339Y6246D01*
G01X7308Y6268D01*
G01X7281Y6294D01*
G01X7257Y6323D01*
G01X7237Y6355D01*
G01X7221Y6389D01*
G01X7209Y6425D01*
G01X7202Y6462D01*
G01X7200Y6500D01*
G01X7200Y7100D01*
G01X7202Y7137D01*
G01X7209Y7174D01*
G01X7221Y7210D01*
G01X7237Y7244D01*
G01X7257Y7276D01*
G01X7281Y7305D01*
G01X7308Y7331D01*
G01X7339Y7353D01*
G01X7372Y7371D01*
G01X7407Y7385D01*
G01X7443Y7394D01*
G01X7481Y7399D01*
G01X7518Y7399D01*
G01X7556Y7394D01*
G01X7592Y7385D01*
G01X7627Y7371D01*
G01X7660Y7353D01*
G01X7691Y7331D01*
G01X7718Y7305D01*
G01X7742Y7276D01*
G01X7762Y7244D01*
G01X7778Y7210D01*
G01X7790Y7174D01*
G01X7797Y7137D01*
G01X7800Y7100D01*
G01X7800Y6500D01*
G37*
G36*
G01X6800Y6500D02*
G01X6797Y6462D01*
G01X6790Y6425D01*
G01X6778Y6389D01*
G01X6762Y6355D01*
G01X6742Y6323D01*
G01X6718Y6294D01*
G01X6691Y6268D01*
G01X6660Y6246D01*
G01X6627Y6228D01*
G01X6592Y6214D01*
G01X6556Y6205D01*
G01X6518Y6200D01*
G01X6481Y6200D01*
G01X6443Y6205D01*
G01X6407Y6214D01*
G01X6372Y6228D01*
G01X6339Y6246D01*
G01X6308Y6268D01*
G01X6281Y6294D01*
G01X6257Y6323D01*
G01X6237Y6355D01*
G01X6221Y6389D01*
G01X6209Y6425D01*
G01X6202Y6462D01*
G01X6200Y6500D01*
G01X6200Y7100D01*
G01X6202Y7137D01*
G01X6209Y7174D01*
G01X6221Y7210D01*
G01X6237Y7244D01*
G01X6257Y7276D01*
G01X6281Y7305D01*
G01X6308Y7331D01*
G01X6339Y7353D01*
G01X6372Y7371D01*
G01X6407Y7385D01*
G01X6443Y7394D01*
G01X6481Y7399D01*
G01X6518Y7399D01*
G01X6556Y7394D01*
G01X6592Y7385D01*
G01X6627Y7371D01*
G01X6660Y7353D01*
G01X6691Y7331D01*
G01X6718Y7305D01*
G01X6742Y7276D01*
G01X6762Y7244D01*
G01X6778Y7210D01*
G01X6790Y7174D01*
G01X6797Y7137D01*
G01X6800Y7100D01*
G01X6800Y6500D01*
G37*
G36*
G01X5800Y6500D02*
G01X5797Y6462D01*
G01X5790Y6425D01*
G01X5778Y6389D01*
G01X5762Y6355D01*
G01X5742Y6323D01*
G01X5718Y6294D01*
G01X5691Y6268D01*
G01X5660Y6246D01*
G01X5627Y6228D01*
G01X5592Y6214D01*
G01X5556Y6205D01*
G01X5518Y6200D01*
G01X5481Y6200D01*
G01X5443Y6205D01*
G01X5407Y6214D01*
G01X5372Y6228D01*
G01X5339Y6246D01*
G01X5308Y6268D01*
G01X5281Y6294D01*
G01X5257Y6323D01*
G01X5237Y6355D01*
G01X5221Y6389D01*
G01X5209Y6425D01*
G01X5202Y6462D01*
G01X5200Y6500D01*
G01X5200Y7100D01*
G01X5202Y7137D01*
G01X5209Y7174D01*
G01X5221Y7210D01*
G01X5237Y7244D01*
G01X5257Y7276D01*
G01X5281Y7305D01*
G01X5308Y7331D01*
G01X5339Y7353D01*
G01X5372Y7371D01*
G01X5407Y7385D01*
G01X5443Y7394D01*
G01X5481Y7399D01*
G01X5518Y7399D01*
G01X5556Y7394D01*
G01X5592Y7385D01*
G01X5627Y7371D01*
G01X5660Y7353D01*
G01X5691Y7331D01*
G01X5718Y7305D01*
G01X5742Y7276D01*
G01X5762Y7244D01*
G01X5778Y7210D01*
G01X5790Y7174D01*
G01X5797Y7137D01*
G01X5800Y7100D01*
G01X5800Y6500D01*
G37*
G36*
G01X4800Y6500D02*
G01X4797Y6462D01*
G01X4790Y6425D01*
G01X4778Y6389D01*
G01X4762Y6355D01*
G01X4742Y6323D01*
G01X4718Y6294D01*
G01X4691Y6268D01*
G01X4660Y6246D01*
G01X4627Y6228D01*
G01X4592Y6214D01*
G01X4556Y6205D01*
G01X4518Y6200D01*
G01X4481Y6200D01*
G01X4443Y6205D01*
G01X4407Y6214D01*
G01X4372Y6228D01*
G01X4339Y6246D01*
G01X4308Y6268D01*
G01X4281Y6294D01*
G01X4257Y6323D01*
G01X4237Y6355D01*
G01X4221Y6389D01*
G01X4209Y6425D01*
G01X4202Y6462D01*
G01X4200Y6500D01*
G01X4200Y7100D01*
G01X4202Y7137D01*
G01X4209Y7174D01*
G01X4221Y7210D01*
G01X4237Y7244D01*
G01X4257Y7276D01*
G01X4281Y7305D01*
G01X4308Y7331D01*
G01X4339Y7353D01*
G01X4372Y7371D01*
G01X4407Y7385D01*
G01X4443Y7394D01*
G01X4481Y7399D01*
G01X4518Y7399D01*
G01X4556Y7394D01*
G01X4592Y7385D01*
G01X4627Y7371D01*
G01X4660Y7353D01*
G01X4691Y7331D01*
G01X4718Y7305D01*
G01X4742Y7276D01*
G01X4762Y7244D01*
G01X4778Y7210D01*
G01X4790Y7174D01*
G01X4797Y7137D01*
G01X4800Y7100D01*
G01X4800Y6500D01*
G37*
G36*
G01X3800Y6500D02*
G01X3797Y6462D01*
G01X3790Y6425D01*
G01X3778Y6389D01*
G01X3762Y6355D01*
G01X3742Y6323D01*
G01X3718Y6294D01*
G01X3691Y6268D01*
G01X3660Y6246D01*
G01X3627Y6228D01*
G01X3592Y6214D01*
G01X3556Y6205D01*
G01X3518Y6200D01*
G01X3481Y6200D01*
G01X3443Y6205D01*
G01X3407Y6214D01*
G01X3372Y6228D01*
G01X3339Y6246D01*
G01X3308Y6268D01*
G01X3281Y6294D01*
G01X3257Y6323D01*
G01X3237Y6355D01*
G01X3221Y6389D01*
G01X3209Y6425D01*
G01X3202Y6462D01*
G01X3200Y6500D01*
G01X3200Y7100D01*
G01X3202Y7137D01*
G01X3209Y7174D01*
G01X3221Y7210D01*
G01X3237Y7244D01*
G01X3257Y7276D01*
G01X3281Y7305D01*
G01X3308Y7331D01*
G01X3339Y7353D01*
G01X3372Y7371D01*
G01X3407Y7385D01*
G01X3443Y7394D01*
G01X3481Y7399D01*
G01X3518Y7399D01*
G01X3556Y7394D01*
G01X3592Y7385D01*
G01X3627Y7371D01*
G01X3660Y7353D01*
G01X3691Y7331D01*
G01X3718Y7305D01*
G01X3742Y7276D01*
G01X3762Y7244D01*
G01X3778Y7210D01*
G01X3790Y7174D01*
G01X3797Y7137D01*
G01X3800Y7100D01*
G01X3800Y6500D01*
G37*
G36*
G01X2800Y6500D02*
G01X2797Y6462D01*
G01X2790Y6425D01*
G01X2778Y6389D01*
G01X2762Y6355D01*
G01X2742Y6323D01*
G01X2718Y6294D01*
G01X2691Y6268D01*
G01X2660Y6246D01*
G01X2627Y6228D01*
G01X2592Y6214D01*
G01X2556Y6205D01*
G01X2518Y6200D01*
G01X2481Y6200D01*
G01X2443Y6205D01*
G01X2407Y6214D01*
G01X2372Y6228D01*
G01X2339Y6246D01*
G01X2308Y6268D01*
G01X2281Y6294D01*
G01X2257Y6323D01*
G01X2237Y6355D01*
G01X2221Y6389D01*
G01X2209Y6425D01*
G01X2202Y6462D01*
G01X2200Y6500D01*
G01X2200Y7100D01*
G01X2202Y7137D01*
G01X2209Y7174D01*
G01X2221Y7210D01*
G01X2237Y7244D01*
G01X2257Y7276D01*
G01X2281Y7305D01*
G01X2308Y7331D01*
G01X2339Y7353D01*
G01X2372Y7371D01*
G01X2407Y7385D01*
G01X2443Y7394D01*
G01X2481Y7399D01*
G01X2518Y7399D01*
G01X2556Y7394D01*
G01X2592Y7385D01*
G01X2627Y7371D01*
G01X2660Y7353D01*
G01X2691Y7331D01*
G01X2718Y7305D01*
G01X2742Y7276D01*
G01X2762Y7244D01*
G01X2778Y7210D01*
G01X2790Y7174D01*
G01X2797Y7137D01*
G01X2800Y7100D01*
G01X2800Y6500D01*
G37*
G36*
G01X1800Y6500D02*
G01X1797Y6462D01*
G01X1790Y6425D01*
G01X1778Y6389D01*
G01X1762Y6355D01*
G01X1742Y6323D01*
G01X1718Y6294D01*
G01X1691Y6268D01*
G01X1660Y6246D01*
G01X1627Y6228D01*
G01X1592Y6214D01*
G01X1556Y6205D01*
G01X1518Y6200D01*
G01X1481Y6200D01*
G01X1443Y6205D01*
G01X1407Y6214D01*
G01X1372Y6228D01*
G01X1339Y6246D01*
G01X1308Y6268D01*
G01X1281Y6294D01*
G01X1257Y6323D01*
G01X1237Y6355D01*
G01X1221Y6389D01*
G01X1209Y6425D01*
G01X1202Y6462D01*
G01X1200Y6500D01*
G01X1200Y7100D01*
G01X1202Y7137D01*
G01X1209Y7174D01*
G01X1221Y7210D01*
G01X1237Y7244D01*
G01X1257Y7276D01*
G01X1281Y7305D01*
G01X1308Y7331D01*
G01X1339Y7353D01*
G01X1372Y7371D01*
G01X1407Y7385D01*
G01X1443Y7394D01*
G01X1481Y7399D01*
G01X1518Y7399D01*
G01X1556Y7394D01*
G01X1592Y7385D01*
G01X1627Y7371D01*
G01X1660Y7353D01*
G01X1691Y7331D01*
G01X1718Y7305D01*
G01X1742Y7276D01*
G01X1762Y7244D01*
G01X1778Y7210D01*
G01X1790Y7174D01*
G01X1797Y7137D01*
G01X1800Y7100D01*
G01X1800Y6500D01*
G37*
G54D17*
G01X14015Y866D03*
G01X14773Y2736D03*
G01X15177Y2283D03*
G01X9340Y2342D03*
G01X2037Y2962D03*
G01X1023Y826D03*
G01X2047Y1614D03*
G01X4734Y2165D03*
G01X4714Y3307D03*
G01X5354Y2165D03*
G01X10196Y905D03*
G01X3543Y4488D03*
G01X14842Y3661D03*
G01X15619Y5885D03*
G01X3444Y5551D03*
G54D18*
G01X13759Y2007D03*
G01X8828Y1328D03*
G01X9350Y1318D03*
G01X11692Y4734D03*
G01X13070Y4015D03*
G54D17*
G01X10275Y2490D03*
G01X12007Y6348D03*
G01X11929Y5511D03*
G01X9694Y1899D03*
G01X14704Y3326D03*
G54D18*
G01X14438Y1289D03*
G01X15935Y816D03*
G54D17*
G01X7509Y4133D03*
G01X9537Y3602D03*
G01X9488Y4153D03*
G01X8002Y6446D03*
G01X6850Y4665D03*
G54D18*
G01X7086Y3346D03*
G54D17*
G01X5580Y4813D03*
G01X12293Y5462D03*
G01X12578Y5472D03*
G01X13941Y5502D03*
G54D18*
G01X7255Y4453D03*
G01X9108Y1257D03*
G01X6683Y4114D03*
G01X9143Y3093D03*
G01X8033Y730D03*
G01X10558Y1336D03*
G01X3941Y659D03*
G01X8332Y1146D03*
G54D17*
G01X14469Y5641D03*
G54D18*
G01X4301Y1456D03*
G01X7155Y5078D03*
G01X6898Y4242D03*
G01X8651Y4045D03*
G01X6456Y4212D03*
G01X8871Y880D03*
G01X10649Y971D03*
G54D17*
G01X13661Y4365D03*
G01X13041Y4256D03*
G01X13941Y4055D03*
G01X14955Y4586D03*
G01X13641Y2618D03*
G01X10674Y1555D03*
G01X13815Y2830D03*
G01X12841Y4434D03*
G54D18*
G01X14960Y1082D03*
G01X15354Y1082D03*
G01X4783Y5216D03*
G01X15684Y1875D03*
G54D17*
G01X5954Y4911D03*
G01X16771Y1299D03*
G54D18*
G01X9801Y4417D03*
G01X4202Y2185D03*
G01X6279Y1663D03*
G01X8009Y3722D03*
G54D17*
G01X4045Y3503D03*
G01X9665Y2552D03*
G01X4055Y3759D03*
G01X9872Y2352D03*
G01X15767Y2765D03*
G01X15659Y4173D03*
G54D18*
G01X14994Y2829D03*
G54D17*
G01X16102Y1102D03*
G54D18*
G01X4360Y4035D03*
G54D17*
G01X16171Y4635D03*
G54D18*
G01X6126Y3371D03*
G01X5851Y4493D03*
G01X3809Y5433D03*
G54D17*
G01X7696Y2898D03*
G54D18*
G01X1653Y5787D03*
G01X713Y6028D03*
G01X1402Y1215D03*
G01X629Y1220D03*
G54D17*
G01X12666Y4020D03*
G54D18*
G01X11921Y3059D03*
G01X6023Y6368D03*
G54D17*
G01X12590Y3722D03*
G01X14558Y3079D03*
G01X12977Y1072D03*
G01X10246Y1735D03*
G54D18*
G01X2470Y5462D03*
G01X5364Y3184D03*
G01X5502Y3897D03*
G01X5134Y3410D03*
G01X5767Y3922D03*
G54D17*
G01X11476Y5374D03*
G01X6702Y3444D03*
G01X4350Y1998D03*
G01X11939Y4734D03*
G54D18*
G01X11702Y3460D03*
G01X6978Y6141D03*
G54D17*
G01X15194Y5570D03*
G01X13011Y580D03*
G01X14936Y5580D03*
G01X11804Y3942D03*
G01X12509Y2268D03*
G01X13277Y1146D03*
G54D18*
G01X11025Y5333D03*
G01X12384Y4161D03*
G01X13011Y2076D03*
G01X9980Y4232D03*
G01X9881Y4645D03*
G01X13366Y2083D03*
G01X2815Y5531D03*
G01X10757Y2490D03*
G01X13041Y2691D03*
G01X12220Y4738D03*
G01X10541Y3572D03*
G01X14153Y1643D03*
G01X9960Y3572D03*
G01X10537Y3271D03*
G01X11100Y3614D03*
G54D17*
G01X11115Y3048D03*
G54D18*
G01X8769Y3066D03*
G01X7145Y3673D03*
G01X9151Y3978D03*
G01X11186Y5509D03*
G01X10941Y5104D03*
G01X14478Y6040D03*
G01X10009Y6035D03*
G01X13021Y6066D03*
G01X13238Y5866D03*
G01X5314Y1318D03*
G01X7239Y1653D03*
G01X7244Y1456D03*
G01X8260Y5521D03*
G01X7657Y5236D03*
G01X11047Y4443D03*
G01X8196Y4127D03*
G01X7460Y4830D03*
G01X8346Y2933D03*
G01X9646Y1293D03*
G01X7736Y1663D03*
G01X11019Y584D03*
G01X14586Y1653D03*
M00*
M02*
