G04 Layer: BottomSilkLayer*
G04 EasyEDA v6.4.3, 2020-08-12T23:02:41+05:30*
G04 0c64d8637b0b46b586c93cd23854d17d,10*
G04 Gerber Generator version 0.2*
G04 Scale: 100 percent, Rotated: No, Reflected: No *
G04 Dimensions in inches *
G04 leading zeros omitted , absolute positions ,2 integer and 4 decimal *
%FSLAX24Y24*%
%MOIN*%
G90*
G70D02*

%ADD30C,0.006000*%
%ADD39C,0.000960*%

%LPD*%
G54D30*
G01X12904Y1103D02*
G01X12904Y2203D01*
G01X12804Y1003D02*
G01X12204Y1003D01*
G01X12804Y2303D02*
G01X12204Y2303D01*
G01X12104Y2203D02*
G01X12104Y1103D01*
G01X6096Y6160D02*
G01X6096Y5060D01*
G01X6196Y6260D02*
G01X6795Y6260D01*
G01X6196Y4960D02*
G01X6795Y4960D01*
G01X6895Y5060D02*
G01X6895Y6160D01*
G01X5102Y6160D02*
G01X5102Y5060D01*
G01X5202Y6260D02*
G01X5802Y6260D01*
G01X5202Y4960D02*
G01X5802Y4960D01*
G01X5902Y5060D02*
G01X5902Y6160D01*
G01X7341Y2053D02*
G01X6241Y2053D01*
G01X7441Y1953D02*
G01X7441Y1353D01*
G01X6141Y1953D02*
G01X6141Y1353D01*
G01X6241Y1253D02*
G01X7341Y1253D01*
G54D39*
G01X808Y6121D02*
G01X808Y6006D01*
G01X808Y6121D02*
G01X769Y6121D01*
G01X753Y6115D01*
G01X742Y6104D01*
G01X737Y6093D01*
G01X731Y6077D01*
G01X731Y6050D01*
G01X737Y6033D01*
G01X742Y6022D01*
G01X753Y6012D01*
G01X769Y6006D01*
G01X808Y6006D01*
G01X695Y6055D02*
G01X597Y6055D01*
G01X808Y5121D02*
G01X808Y5006D01*
G01X808Y5121D02*
G01X769Y5121D01*
G01X753Y5115D01*
G01X742Y5104D01*
G01X737Y5093D01*
G01X731Y5077D01*
G01X731Y5050D01*
G01X737Y5033D01*
G01X742Y5022D01*
G01X753Y5012D01*
G01X769Y5006D01*
G01X808Y5006D01*
G01X646Y5104D02*
G01X646Y5006D01*
G01X695Y5055D02*
G01X597Y5055D01*
G54D30*
G75*
G01X12105Y1104D02*
G03X12205Y1004I100J0D01*
G01*
G75*
G01X12205Y2304D02*
G03X12105Y2204I0J-100D01*
G01*
G75*
G01X12805Y2304D02*
G02X12905Y2204I0J-100D01*
G01*
G75*
G01X12905Y1104D02*
G02X12805Y1004I-100J0D01*
G01*
G75*
G01X6896Y6160D02*
G03X6796Y6260I-100J0D01*
G01*
G75*
G01X6796Y4960D02*
G03X6896Y5060I0J100D01*
G01*
G75*
G01X6196Y4960D02*
G02X6096Y5060I0J100D01*
G01*
G75*
G01X6096Y6160D02*
G02X6196Y6260I100J0D01*
G01*
G75*
G01X5902Y6160D02*
G03X5802Y6260I-100J0D01*
G01*
G75*
G01X5802Y4960D02*
G03X5902Y5060I0J100D01*
G01*
G75*
G01X5202Y4960D02*
G02X5102Y5060I0J100D01*
G01*
G75*
G01X5102Y6160D02*
G02X5202Y6260I100J0D01*
G01*
G75*
G01X7341Y1254D02*
G03X7441Y1354I0J100D01*
G01*
G75*
G01X6141Y1354D02*
G03X6241Y1254I100J0D01*
G01*
G75*
G01X6141Y1954D02*
G02X6241Y2054I100J0D01*
G01*
G75*
G01X7341Y2054D02*
G02X7441Y1954I0J-100D01*
G01*
M00*
M02*
