G04 Layer: TopSolderMaskLayer*
G04 EasyEDA v6.4.3, 2020-08-12T23:02:41+05:30*
G04 0c64d8637b0b46b586c93cd23854d17d,10*
G04 Gerber Generator version 0.2*
G04 Scale: 100 percent, Rotated: No, Reflected: No *
G04 Dimensions in inches *
G04 leading zeros omitted , absolute positions ,2 integer and 4 decimal *
%FSLAX24Y24*%
%MOIN*%
G90*
G70D02*


%LPD*%
G36*
G01X8294Y1162D02*
G01X8290Y1164D01*
G01X8286Y1165D01*
G01X8281Y1169D01*
G01X8275Y1173D01*
G01X8270Y1179D01*
G01X8269Y1180D01*
G01X8264Y1190D01*
G01X8262Y1195D01*
G01X8261Y1200D01*
G01X8261Y1448D01*
G01X8262Y1453D01*
G01X8263Y1457D01*
G01X8267Y1464D01*
G01X8269Y1467D01*
G01X8272Y1471D01*
G01X8279Y1478D01*
G01X8285Y1481D01*
G01X8295Y1485D01*
G01X8300Y1486D01*
G01X8546Y1486D01*
G01X8551Y1485D01*
G01X8557Y1483D01*
G01X8567Y1478D01*
G01X8572Y1473D01*
G01X8575Y1471D01*
G01X8577Y1467D01*
G01X8579Y1464D01*
G01X8582Y1460D01*
G01X8585Y1451D01*
G01X8585Y1195D01*
G01X8581Y1186D01*
G01X8577Y1180D01*
G01X8573Y1175D01*
G01X8572Y1173D01*
G01X8566Y1169D01*
G01X8561Y1165D01*
G01X8556Y1164D01*
G01X8552Y1162D01*
G01X8294Y1162D01*
G37*
G36*
G01X8300Y1516D02*
G01X8295Y1517D01*
G01X8285Y1521D01*
G01X8279Y1524D01*
G01X8269Y1534D01*
G01X8266Y1540D01*
G01X8262Y1550D01*
G01X8261Y1555D01*
G01X8261Y1801D01*
G01X8262Y1805D01*
G01X8264Y1812D01*
G01X8269Y1822D01*
G01X8274Y1827D01*
G01X8274Y1828D01*
G01X8279Y1832D01*
G01X8285Y1836D01*
G01X8290Y1838D01*
G01X8300Y1839D01*
G01X8546Y1839D01*
G01X8551Y1839D01*
G01X8557Y1838D01*
G01X8561Y1836D01*
G01X8567Y1832D01*
G01X8572Y1828D01*
G01X8573Y1827D01*
G01X8577Y1822D01*
G01X8581Y1816D01*
G01X8585Y1807D01*
G01X8585Y1549D01*
G01X8581Y1541D01*
G01X8581Y1540D01*
G01X8577Y1534D01*
G01X8573Y1529D01*
G01X8572Y1529D01*
G01X8567Y1524D01*
G01X8557Y1519D01*
G01X8551Y1517D01*
G01X8546Y1516D01*
G01X8300Y1516D01*
G37*
G36*
G01X7911Y1157D02*
G01X7906Y1158D01*
G01X7904Y1158D01*
G01X7900Y1159D01*
G01X7895Y1162D01*
G01X7892Y1163D01*
G01X7886Y1168D01*
G01X7879Y1175D01*
G01X7873Y1185D01*
G01X7872Y1191D01*
G01X7870Y1196D01*
G01X7870Y1442D01*
G01X7872Y1447D01*
G01X7873Y1453D01*
G01X7879Y1463D01*
G01X7886Y1470D01*
G01X7892Y1474D01*
G01X7904Y1480D01*
G01X7909Y1481D01*
G01X8156Y1481D01*
G01X8162Y1480D01*
G01X8167Y1478D01*
G01X8175Y1474D01*
G01X8181Y1470D01*
G01X8186Y1465D01*
G01X8187Y1463D01*
G01X8189Y1460D01*
G01X8193Y1453D01*
G01X8194Y1447D01*
G01X8196Y1442D01*
G01X8196Y1196D01*
G01X8194Y1191D01*
G01X8193Y1185D01*
G01X8189Y1178D01*
G01X8188Y1176D01*
G01X8186Y1173D01*
G01X8181Y1168D01*
G01X8175Y1163D01*
G01X8170Y1162D01*
G01X8167Y1159D01*
G01X8162Y1158D01*
G01X8161Y1158D01*
G01X8156Y1157D01*
G01X7911Y1157D01*
G37*
G36*
G01X7909Y1511D02*
G01X7904Y1512D01*
G01X7892Y1518D01*
G01X7886Y1522D01*
G01X7881Y1526D01*
G01X7879Y1530D01*
G01X7877Y1533D01*
G01X7873Y1540D01*
G01X7872Y1546D01*
G01X7870Y1549D01*
G01X7870Y1797D01*
G01X7873Y1802D01*
G01X7873Y1807D01*
G01X7879Y1817D01*
G01X7880Y1818D01*
G01X7886Y1826D01*
G01X7890Y1828D01*
G01X7895Y1832D01*
G01X7901Y1832D01*
G01X7905Y1835D01*
G01X8162Y1835D01*
G01X8166Y1832D01*
G01X8170Y1832D01*
G01X8177Y1828D01*
G01X8181Y1826D01*
G01X8187Y1818D01*
G01X8189Y1814D01*
G01X8193Y1807D01*
G01X8194Y1802D01*
G01X8196Y1797D01*
G01X8196Y1549D01*
G01X8194Y1544D01*
G01X8193Y1540D01*
G01X8188Y1529D01*
G01X8181Y1522D01*
G01X8175Y1518D01*
G01X8167Y1514D01*
G01X8162Y1512D01*
G01X8156Y1511D01*
G01X7909Y1511D01*
G37*
G36*
G01X2723Y1748D02*
G01X2715Y1754D01*
G01X2714Y1754D01*
G01X2708Y1757D01*
G01X2699Y1766D01*
G01X2696Y1772D01*
G01X2696Y1773D01*
G01X2691Y1780D01*
G01X2691Y1916D01*
G01X2696Y1923D01*
G01X2696Y1925D01*
G01X2702Y1937D01*
G01X2714Y1943D01*
G01X2723Y1947D01*
G01X2724Y1947D01*
G01X2726Y1948D01*
G01X3074Y1948D01*
G01X3080Y1945D01*
G01X3083Y1943D01*
G01X3095Y1937D01*
G01X3101Y1925D01*
G01X3101Y1923D01*
G01X3102Y1923D01*
G01X3106Y1916D01*
G01X3106Y1780D01*
G01X3102Y1773D01*
G01X3101Y1772D01*
G01X3098Y1766D01*
G01X3089Y1757D01*
G01X3083Y1754D01*
G01X3074Y1748D01*
G01X2723Y1748D01*
G37*
G36*
G01X2723Y1553D02*
G01X2714Y1557D01*
G01X2702Y1563D01*
G01X2696Y1575D01*
G01X2696Y1576D01*
G01X2691Y1584D01*
G01X2691Y1719D01*
G01X2696Y1727D01*
G01X2696Y1728D01*
G01X2699Y1734D01*
G01X2708Y1743D01*
G01X2714Y1746D01*
G01X2715Y1746D01*
G01X2723Y1751D01*
G01X3015Y1751D01*
G01X3024Y1746D01*
G01X3036Y1739D01*
G01X3042Y1728D01*
G01X3047Y1719D01*
G01X3047Y1585D01*
G01X3043Y1576D01*
G01X3042Y1576D01*
G01X3039Y1570D01*
G01X3035Y1565D01*
G01X3030Y1560D01*
G01X3024Y1557D01*
G01X3015Y1553D01*
G01X2723Y1553D01*
G37*
G36*
G01X2723Y1356D02*
G01X2714Y1360D01*
G01X2708Y1363D01*
G01X2703Y1368D01*
G01X2699Y1373D01*
G01X2696Y1379D01*
G01X2691Y1388D01*
G01X2691Y1522D01*
G01X2696Y1530D01*
G01X2696Y1531D01*
G01X2702Y1543D01*
G01X2714Y1549D01*
G01X2723Y1554D01*
G01X3015Y1554D01*
G01X3024Y1549D01*
G01X3030Y1546D01*
G01X3035Y1542D01*
G01X3035Y1541D01*
G01X3039Y1537D01*
G01X3042Y1531D01*
G01X3047Y1522D01*
G01X3047Y1388D01*
G01X3043Y1379D01*
G01X3042Y1379D01*
G01X3042Y1378D01*
G01X3036Y1366D01*
G01X3024Y1360D01*
G01X3015Y1356D01*
G01X2723Y1356D01*
G37*
G36*
G01X2723Y1159D02*
G01X2709Y1166D01*
G01X2708Y1167D01*
G01X2702Y1170D01*
G01X2696Y1182D01*
G01X2691Y1191D01*
G01X2691Y1325D01*
G01X2696Y1334D01*
G01X2699Y1340D01*
G01X2703Y1345D01*
G01X2708Y1349D01*
G01X2709Y1350D01*
G01X2723Y1357D01*
G01X3015Y1357D01*
G01X3024Y1353D01*
G01X3024Y1352D01*
G01X3036Y1346D01*
G01X3042Y1334D01*
G01X3043Y1333D01*
G01X3047Y1325D01*
G01X3047Y1191D01*
G01X3043Y1182D01*
G01X3042Y1182D01*
G01X3039Y1176D01*
G01X3035Y1171D01*
G01X3030Y1166D01*
G01X3024Y1163D01*
G01X3015Y1159D01*
G01X2723Y1159D01*
G37*
G36*
G01X3924Y1159D02*
G01X3915Y1163D01*
G01X3903Y1169D01*
G01X3897Y1181D01*
G01X3897Y1182D01*
G01X3896Y1182D01*
G01X3892Y1191D01*
G01X3892Y1325D01*
G01X3896Y1334D01*
G01X3897Y1334D01*
G01X3900Y1340D01*
G01X3904Y1345D01*
G01X3909Y1349D01*
G01X3915Y1352D01*
G01X3915Y1353D01*
G01X3924Y1357D01*
G01X4216Y1357D01*
G01X4224Y1353D01*
G01X4225Y1352D01*
G01X4237Y1346D01*
G01X4243Y1334D01*
G01X4248Y1325D01*
G01X4248Y1191D01*
G01X4243Y1182D01*
G01X4240Y1176D01*
G01X4235Y1171D01*
G01X4231Y1166D01*
G01X4225Y1163D01*
G01X4216Y1159D01*
G01X3924Y1159D01*
G37*
G36*
G01X3924Y1356D02*
G01X3915Y1360D01*
G01X3909Y1363D01*
G01X3904Y1368D01*
G01X3900Y1373D01*
G01X3897Y1379D01*
G01X3896Y1379D01*
G01X3892Y1388D01*
G01X3892Y1522D01*
G01X3896Y1530D01*
G01X3897Y1531D01*
G01X3903Y1543D01*
G01X3915Y1549D01*
G01X3924Y1554D01*
G01X4216Y1554D01*
G01X4225Y1549D01*
G01X4231Y1546D01*
G01X4235Y1542D01*
G01X4235Y1541D01*
G01X4240Y1537D01*
G01X4243Y1531D01*
G01X4248Y1522D01*
G01X4248Y1387D01*
G01X4243Y1379D01*
G01X4243Y1378D01*
G01X4237Y1366D01*
G01X4225Y1360D01*
G01X4224Y1360D01*
G01X4216Y1356D01*
G01X3924Y1356D01*
G37*
G36*
G01X3924Y1553D02*
G01X3915Y1557D01*
G01X3903Y1563D01*
G01X3897Y1575D01*
G01X3897Y1576D01*
G01X3896Y1576D01*
G01X3892Y1584D01*
G01X3892Y1719D01*
G01X3896Y1727D01*
G01X3897Y1728D01*
G01X3900Y1734D01*
G01X3909Y1743D01*
G01X3915Y1746D01*
G01X3924Y1751D01*
G01X4216Y1751D01*
G01X4224Y1746D01*
G01X4225Y1746D01*
G01X4237Y1739D01*
G01X4243Y1728D01*
G01X4248Y1719D01*
G01X4248Y1584D01*
G01X4243Y1576D01*
G01X4240Y1570D01*
G01X4235Y1565D01*
G01X4231Y1560D01*
G01X4225Y1557D01*
G01X4216Y1553D01*
G01X3924Y1553D01*
G37*
G36*
G01X3924Y1748D02*
G01X3915Y1754D01*
G01X3909Y1757D01*
G01X3900Y1766D01*
G01X3897Y1772D01*
G01X3896Y1773D01*
G01X3892Y1780D01*
G01X3892Y1916D01*
G01X3896Y1923D01*
G01X3897Y1923D01*
G01X3897Y1925D01*
G01X3903Y1937D01*
G01X3915Y1943D01*
G01X3918Y1945D01*
G01X3924Y1948D01*
G01X4216Y1948D01*
G01X4222Y1945D01*
G01X4225Y1943D01*
G01X4231Y1939D01*
G01X4235Y1935D01*
G01X4240Y1930D01*
G01X4243Y1923D01*
G01X4248Y1916D01*
G01X4248Y1780D01*
G01X4243Y1772D01*
G01X4237Y1760D01*
G01X4225Y1754D01*
G01X4224Y1754D01*
G01X4216Y1748D01*
G01X3924Y1748D01*
G37*
G36*
G01X3197Y1198D02*
G01X3191Y1200D01*
G01X3185Y1201D01*
G01X3178Y1204D01*
G01X3174Y1208D01*
G01X3170Y1210D01*
G01X3166Y1215D01*
G01X3163Y1218D01*
G01X3160Y1222D01*
G01X3157Y1230D01*
G01X3155Y1237D01*
G01X3154Y1242D01*
G01X3154Y1864D01*
G01X3155Y1870D01*
G01X3157Y1877D01*
G01X3160Y1884D01*
G01X3166Y1892D01*
G01X3170Y1896D01*
G01X3178Y1902D01*
G01X3185Y1905D01*
G01X3192Y1907D01*
G01X3197Y1907D01*
G01X3742Y1907D01*
G01X3747Y1907D01*
G01X3754Y1905D01*
G01X3760Y1902D01*
G01X3765Y1898D01*
G01X3769Y1896D01*
G01X3772Y1892D01*
G01X3777Y1887D01*
G01X3779Y1882D01*
G01X3784Y1871D01*
G01X3785Y1867D01*
G01X3785Y1240D01*
G01X3784Y1235D01*
G01X3782Y1230D01*
G01X3779Y1224D01*
G01X3777Y1219D01*
G01X3772Y1215D01*
G01X3769Y1210D01*
G01X3765Y1207D01*
G01X3760Y1204D01*
G01X3754Y1201D01*
G01X3749Y1200D01*
G01X3742Y1198D01*
G01X3197Y1198D01*
G37*
G36*
G01X3946Y2018D02*
G01X3940Y2019D01*
G01X3936Y2021D01*
G01X3926Y2026D01*
G01X3925Y2027D01*
G01X3919Y2030D01*
G01X3915Y2037D01*
G01X3915Y2037D01*
G01X3911Y2042D01*
G01X3909Y2051D01*
G01X3908Y2053D01*
G01X3908Y2309D01*
G01X3910Y2314D01*
G01X3911Y2318D01*
G01X3915Y2324D01*
G01X3919Y2329D01*
G01X3925Y2333D01*
G01X3926Y2334D01*
G01X3932Y2337D01*
G01X3932Y2338D01*
G01X3940Y2342D01*
G01X4197Y2342D01*
G01X4206Y2338D01*
G01X4210Y2336D01*
G01X4213Y2334D01*
G01X4217Y2331D01*
G01X4224Y2324D01*
G01X4229Y2314D01*
G01X4231Y2308D01*
G01X4232Y2303D01*
G01X4232Y2056D01*
G01X4231Y2051D01*
G01X4230Y2047D01*
G01X4227Y2042D01*
G01X4224Y2036D01*
G01X4217Y2029D01*
G01X4213Y2026D01*
G01X4210Y2023D01*
G01X4203Y2020D01*
G01X4199Y2019D01*
G01X4194Y2018D01*
G01X3946Y2018D01*
G37*
G36*
G01X3592Y2018D02*
G01X3586Y2019D01*
G01X3582Y2021D01*
G01X3574Y2025D01*
G01X3568Y2029D01*
G01X3561Y2036D01*
G01X3558Y2042D01*
G01X3556Y2047D01*
G01X3554Y2053D01*
G01X3554Y2053D01*
G01X3554Y2056D01*
G01X3554Y2303D01*
G01X3554Y2308D01*
G01X3556Y2314D01*
G01X3561Y2324D01*
G01X3568Y2331D01*
G01X3574Y2336D01*
G01X3578Y2337D01*
G01X3578Y2338D01*
G01X3586Y2342D01*
G01X3844Y2342D01*
G01X3853Y2338D01*
G01X3853Y2337D01*
G01X3857Y2336D01*
G01X3863Y2331D01*
G01X3869Y2325D01*
G01X3871Y2321D01*
G01X3875Y2314D01*
G01X3877Y2308D01*
G01X3878Y2303D01*
G01X3878Y2056D01*
G01X3877Y2053D01*
G01X3876Y2047D01*
G01X3871Y2039D01*
G01X3869Y2036D01*
G01X3868Y2034D01*
G01X3863Y2029D01*
G01X3857Y2025D01*
G01X3845Y2019D01*
G01X3839Y2018D01*
G01X3592Y2018D01*
G37*
G36*
G01X1421Y3893D02*
G01X1415Y3896D01*
G01X1409Y3897D01*
G01X1397Y3910D01*
G01X1392Y3919D01*
G01X1391Y3922D01*
G01X1389Y3926D01*
G01X1389Y4098D01*
G01X1393Y4107D01*
G01X1397Y4113D01*
G01X1401Y4118D01*
G01X1404Y4121D01*
G01X1406Y4122D01*
G01X1409Y4125D01*
G01X1414Y4127D01*
G01X1421Y4131D01*
G01X1964Y4131D01*
G01X1972Y4128D01*
G01X1980Y4125D01*
G01X1995Y4111D01*
G01X1998Y4102D01*
G01X2001Y4095D01*
G01X2001Y3928D01*
G01X1998Y3922D01*
G01X1995Y3913D01*
G01X1988Y3906D01*
G01X1988Y3904D01*
G01X1980Y3897D01*
G01X1972Y3895D01*
G01X1964Y3893D01*
G01X1421Y3893D01*
G37*
G36*
G01X1421Y3636D02*
G01X1418Y3639D01*
G01X1409Y3642D01*
G01X1401Y3650D01*
G01X1397Y3654D01*
G01X1392Y3663D01*
G01X1391Y3665D01*
G01X1389Y3670D01*
G01X1389Y3842D01*
G01X1393Y3851D01*
G01X1397Y3857D01*
G01X1401Y3861D01*
G01X1404Y3865D01*
G01X1406Y3865D01*
G01X1409Y3869D01*
G01X1414Y3871D01*
G01X1421Y3875D01*
G01X1964Y3875D01*
G01X1972Y3872D01*
G01X1980Y3869D01*
G01X1995Y3854D01*
G01X1998Y3846D01*
G01X2001Y3839D01*
G01X2001Y3672D01*
G01X1998Y3665D01*
G01X1995Y3657D01*
G01X1988Y3650D01*
G01X1988Y3649D01*
G01X1980Y3642D01*
G01X1972Y3639D01*
G01X1964Y3636D01*
G01X1421Y3636D01*
G37*
G36*
G01X1421Y3381D02*
G01X1418Y3383D01*
G01X1411Y3386D01*
G01X1408Y3386D01*
G01X1405Y3390D01*
G01X1402Y3393D01*
G01X1399Y3397D01*
G01X1395Y3402D01*
G01X1392Y3407D01*
G01X1391Y3410D01*
G01X1389Y3417D01*
G01X1389Y3586D01*
G01X1393Y3595D01*
G01X1397Y3601D01*
G01X1401Y3606D01*
G01X1404Y3609D01*
G01X1408Y3611D01*
G01X1409Y3613D01*
G01X1418Y3617D01*
G01X1421Y3619D01*
G01X1964Y3619D01*
G01X1972Y3617D01*
G01X1980Y3613D01*
G01X1988Y3607D01*
G01X1988Y3606D01*
G01X1995Y3599D01*
G01X1998Y3590D01*
G01X2001Y3583D01*
G01X2001Y3414D01*
G01X1996Y3404D01*
G01X1995Y3401D01*
G01X1988Y3394D01*
G01X1988Y3393D01*
G01X1980Y3386D01*
G01X1972Y3383D01*
G01X1964Y3381D01*
G01X1421Y3381D01*
G37*
G36*
G01X1421Y3125D02*
G01X1415Y3129D01*
G01X1408Y3131D01*
G01X1399Y3141D01*
G01X1395Y3146D01*
G01X1392Y3151D01*
G01X1391Y3154D01*
G01X1389Y3161D01*
G01X1389Y3329D01*
G01X1393Y3339D01*
G01X1397Y3345D01*
G01X1401Y3350D01*
G01X1409Y3358D01*
G01X1418Y3361D01*
G01X1421Y3363D01*
G01X1964Y3363D01*
G01X1972Y3361D01*
G01X1980Y3358D01*
G01X1988Y3351D01*
G01X1988Y3350D01*
G01X1995Y3343D01*
G01X1998Y3334D01*
G01X2001Y3327D01*
G01X2001Y3158D01*
G01X1996Y3149D01*
G01X1995Y3145D01*
G01X1980Y3131D01*
G01X1973Y3129D01*
G01X1968Y3125D01*
G01X1421Y3125D01*
G37*
G36*
G01X1425Y2869D02*
G01X1423Y2870D01*
G01X1421Y2870D01*
G01X1416Y2873D01*
G01X1408Y2875D01*
G01X1399Y2885D01*
G01X1395Y2890D01*
G01X1392Y2895D01*
G01X1391Y2898D01*
G01X1389Y2905D01*
G01X1389Y3071D01*
G01X1391Y3078D01*
G01X1392Y3081D01*
G01X1397Y3090D01*
G01X1409Y3102D01*
G01X1415Y3104D01*
G01X1421Y3107D01*
G01X1964Y3107D01*
G01X1972Y3105D01*
G01X1980Y3102D01*
G01X1988Y3095D01*
G01X1988Y3094D01*
G01X1995Y3087D01*
G01X1998Y3078D01*
G01X2001Y3072D01*
G01X2001Y2902D01*
G01X1996Y2893D01*
G01X1995Y2889D01*
G01X1980Y2875D01*
G01X1973Y2873D01*
G01X1968Y2869D01*
G01X1425Y2869D01*
G37*
G36*
G01X1334Y1826D02*
G01X1327Y1828D01*
G01X1323Y1829D01*
G01X1318Y1830D01*
G01X1312Y1835D01*
G01X1307Y1838D01*
G01X1299Y1848D01*
G01X1294Y1857D01*
G01X1292Y1864D01*
G01X1291Y1869D01*
G01X1291Y2690D01*
G01X1292Y2695D01*
G01X1294Y2700D01*
G01X1297Y2707D01*
G01X1300Y2712D01*
G01X1303Y2716D01*
G01X1307Y2721D01*
G01X1322Y2730D01*
G01X1329Y2732D01*
G01X1334Y2733D01*
G01X1953Y2733D01*
G01X1957Y2732D01*
G01X1962Y2732D01*
G01X1968Y2730D01*
G01X1975Y2727D01*
G01X1980Y2724D01*
G01X1984Y2721D01*
G01X1987Y2717D01*
G01X1992Y2712D01*
G01X1997Y2702D01*
G01X1998Y2696D01*
G01X2001Y2688D01*
G01X2001Y1871D01*
G01X1998Y1863D01*
G01X1997Y1855D01*
G01X1995Y1853D01*
G01X1992Y1848D01*
G01X1987Y1842D01*
G01X1984Y1838D01*
G01X1980Y1835D01*
G01X1973Y1830D01*
G01X1968Y1829D01*
G01X1964Y1828D01*
G01X1957Y1827D01*
G01X1953Y1826D01*
G01X1334Y1826D01*
G37*
G36*
G01X273Y1531D02*
G01X261Y1534D01*
G01X256Y1536D01*
G01X250Y1539D01*
G01X245Y1544D01*
G01X240Y1548D01*
G01X237Y1553D01*
G01X234Y1557D01*
G01X231Y1563D01*
G01X229Y1569D01*
G01X227Y1576D01*
G01X227Y2275D01*
G01X229Y2281D01*
G01X231Y2287D01*
G01X234Y2293D01*
G01X237Y2298D01*
G01X241Y2303D01*
G01X245Y2307D01*
G01X249Y2310D01*
G01X254Y2314D01*
G01X261Y2316D01*
G01X266Y2318D01*
G01X272Y2319D01*
G01X277Y2320D01*
G01X1007Y2320D01*
G01X1011Y2319D01*
G01X1017Y2318D01*
G01X1029Y2314D01*
G01X1034Y2310D01*
G01X1039Y2307D01*
G01X1043Y2303D01*
G01X1047Y2297D01*
G01X1050Y2293D01*
G01X1053Y2287D01*
G01X1054Y2281D01*
G01X1056Y2275D01*
G01X1056Y1576D01*
G01X1054Y1570D01*
G01X1053Y1563D01*
G01X1050Y1557D01*
G01X1044Y1548D01*
G01X1039Y1544D01*
G01X1033Y1539D01*
G01X1023Y1534D01*
G01X1011Y1531D01*
G01X273Y1531D01*
G37*
G36*
G01X272Y2614D02*
G01X266Y2615D01*
G01X262Y2616D01*
G01X256Y2619D01*
G01X249Y2623D01*
G01X245Y2626D01*
G01X241Y2630D01*
G01X237Y2636D01*
G01X234Y2640D01*
G01X231Y2646D01*
G01X229Y2653D01*
G01X227Y2659D01*
G01X227Y3396D01*
G01X229Y3402D01*
G01X231Y3409D01*
G01X234Y3415D01*
G01X237Y3419D01*
G01X241Y3425D01*
G01X245Y3429D01*
G01X249Y3432D01*
G01X256Y3436D01*
G01X262Y3439D01*
G01X266Y3440D01*
G01X272Y3440D01*
G01X277Y3442D01*
G01X1006Y3442D01*
G01X1018Y3440D01*
G01X1022Y3438D01*
G01X1028Y3436D01*
G01X1034Y3433D01*
G01X1039Y3428D01*
G01X1043Y3425D01*
G01X1046Y3420D01*
G01X1050Y3414D01*
G01X1053Y3407D01*
G01X1054Y3403D01*
G01X1056Y3396D01*
G01X1056Y2659D01*
G01X1054Y2652D01*
G01X1053Y2648D01*
G01X1050Y2641D01*
G01X1046Y2635D01*
G01X1043Y2630D01*
G01X1039Y2627D01*
G01X1034Y2623D01*
G01X1028Y2619D01*
G01X1022Y2617D01*
G01X1018Y2615D01*
G01X1011Y2614D01*
G01X272Y2614D01*
G37*
G36*
G01X277Y3558D02*
G01X273Y3559D01*
G01X267Y3560D01*
G01X261Y3561D01*
G01X254Y3565D01*
G01X250Y3567D01*
G01X245Y3571D01*
G01X240Y3576D01*
G01X237Y3581D01*
G01X234Y3585D01*
G01X231Y3590D01*
G01X229Y3597D01*
G01X227Y3604D01*
G01X227Y4341D01*
G01X229Y4347D01*
G01X231Y4354D01*
G01X234Y4359D01*
G01X236Y4363D01*
G01X241Y4370D01*
G01X245Y4374D01*
G01X249Y4377D01*
G01X256Y4381D01*
G01X262Y4384D01*
G01X266Y4385D01*
G01X273Y4386D01*
G01X1010Y4386D01*
G01X1018Y4385D01*
G01X1022Y4383D01*
G01X1028Y4381D01*
G01X1034Y4377D01*
G01X1039Y4373D01*
G01X1043Y4370D01*
G01X1047Y4364D01*
G01X1050Y4358D01*
G01X1053Y4353D01*
G01X1054Y4348D01*
G01X1056Y4341D01*
G01X1056Y3604D01*
G01X1054Y3597D01*
G01X1053Y3593D01*
G01X1050Y3586D01*
G01X1046Y3579D01*
G01X1043Y3576D01*
G01X1039Y3571D01*
G01X1033Y3567D01*
G01X1029Y3564D01*
G01X1023Y3561D01*
G01X1016Y3560D01*
G01X1010Y3559D01*
G01X1006Y3558D01*
G01X277Y3558D01*
G37*
G36*
G01X273Y4681D02*
G01X265Y4682D01*
G01X261Y4684D01*
G01X256Y4686D01*
G01X250Y4689D01*
G01X245Y4693D01*
G01X240Y4698D01*
G01X237Y4703D01*
G01X234Y4707D01*
G01X231Y4713D01*
G01X229Y4719D01*
G01X227Y4725D01*
G01X227Y5425D01*
G01X229Y5430D01*
G01X231Y5437D01*
G01X234Y5443D01*
G01X237Y5448D01*
G01X249Y5460D01*
G01X261Y5466D01*
G01X266Y5468D01*
G01X272Y5469D01*
G01X1011Y5469D01*
G01X1017Y5468D01*
G01X1023Y5466D01*
G01X1029Y5463D01*
G01X1034Y5460D01*
G01X1039Y5456D01*
G01X1043Y5452D01*
G01X1047Y5447D01*
G01X1050Y5443D01*
G01X1053Y5437D01*
G01X1054Y5431D01*
G01X1056Y5425D01*
G01X1056Y4725D01*
G01X1054Y4719D01*
G01X1053Y4713D01*
G01X1050Y4707D01*
G01X1044Y4698D01*
G01X1039Y4693D01*
G01X1033Y4689D01*
G01X1019Y4682D01*
G01X1011Y4681D01*
G01X273Y4681D01*
G37*
G36*
G01X1334Y4267D02*
G01X1327Y4269D01*
G01X1322Y4270D01*
G01X1307Y4279D01*
G01X1303Y4284D01*
G01X1300Y4288D01*
G01X1297Y4293D01*
G01X1294Y4300D01*
G01X1292Y4305D01*
G01X1291Y4310D01*
G01X1291Y5131D01*
G01X1292Y5136D01*
G01X1294Y5142D01*
G01X1296Y5147D01*
G01X1299Y5152D01*
G01X1307Y5162D01*
G01X1312Y5165D01*
G01X1318Y5169D01*
G01X1323Y5171D01*
G01X1335Y5174D01*
G01X1955Y5174D01*
G01X1968Y5171D01*
G01X1973Y5169D01*
G01X1980Y5165D01*
G01X1984Y5162D01*
G01X1987Y5158D01*
G01X1992Y5152D01*
G01X1996Y5146D01*
G01X1997Y5143D01*
G01X1998Y5138D01*
G01X2001Y5129D01*
G01X2001Y4312D01*
G01X1998Y4304D01*
G01X1997Y4298D01*
G01X1992Y4288D01*
G01X1987Y4283D01*
G01X1984Y4279D01*
G01X1980Y4276D01*
G01X1975Y4273D01*
G01X1968Y4270D01*
G01X1964Y4269D01*
G01X1957Y4267D01*
G01X1334Y4267D01*
G37*
G36*
G01X2354Y2972D02*
G01X2348Y2974D01*
G01X2344Y2975D01*
G01X2337Y2978D01*
G01X2335Y2980D01*
G01X2331Y2982D01*
G01X2325Y2988D01*
G01X2322Y2992D01*
G01X2320Y2995D01*
G01X2317Y3001D01*
G01X2315Y3008D01*
G01X2315Y3011D01*
G01X2314Y3015D01*
G01X2314Y3402D01*
G01X2315Y3406D01*
G01X2315Y3409D01*
G01X2317Y3415D01*
G01X2320Y3421D01*
G01X2322Y3426D01*
G01X2326Y3429D01*
G01X2329Y3434D01*
G01X2335Y3438D01*
G01X2340Y3440D01*
G01X2344Y3443D01*
G01X2348Y3444D01*
G01X2354Y3446D01*
G01X2748Y3446D01*
G01X2754Y3444D01*
G01X2758Y3443D01*
G01X2762Y3440D01*
G01X2769Y3436D01*
G01X2774Y3432D01*
G01X2775Y3432D01*
G01X2781Y3426D01*
G01X2783Y3420D01*
G01X2784Y3419D01*
G01X2787Y3411D01*
G01X2788Y3403D01*
G01X2788Y3014D01*
G01X2787Y3005D01*
G01X2783Y2997D01*
G01X2781Y2992D01*
G01X2776Y2987D01*
G01X2773Y2983D01*
G01X2769Y2981D01*
G01X2764Y2977D01*
G01X2758Y2974D01*
G01X2754Y2974D01*
G01X2748Y2972D01*
G01X2354Y2972D01*
G37*
G36*
G01X3101Y2972D02*
G01X3089Y2974D01*
G01X3077Y2982D01*
G01X3072Y2988D01*
G01X3068Y2993D01*
G01X3067Y2996D01*
G01X3065Y3000D01*
G01X3064Y3005D01*
G01X3062Y3010D01*
G01X3062Y3407D01*
G01X3064Y3413D01*
G01X3065Y3417D01*
G01X3067Y3421D01*
G01X3068Y3424D01*
G01X3072Y3429D01*
G01X3077Y3435D01*
G01X3089Y3443D01*
G01X3101Y3446D01*
G01X3340Y3446D01*
G01X3346Y3444D01*
G01X3350Y3443D01*
G01X3357Y3440D01*
G01X3360Y3438D01*
G01X3364Y3435D01*
G01X3369Y3429D01*
G01X3370Y3428D01*
G01X3375Y3421D01*
G01X3376Y3417D01*
G01X3379Y3407D01*
G01X3379Y3010D01*
G01X3377Y3004D01*
G01X3375Y2996D01*
G01X3370Y2989D01*
G01X3369Y2988D01*
G01X3364Y2982D01*
G01X3360Y2980D01*
G01X3357Y2978D01*
G01X3350Y2974D01*
G01X3346Y2973D01*
G01X3340Y2972D01*
G01X3101Y2972D01*
G37*
G36*
G01X3101Y3877D02*
G01X3089Y3879D01*
G01X3082Y3884D01*
G01X3077Y3888D01*
G01X3072Y3893D01*
G01X3068Y3899D01*
G01X3067Y3901D01*
G01X3065Y3906D01*
G01X3064Y3910D01*
G01X3062Y3915D01*
G01X3062Y4313D01*
G01X3064Y4318D01*
G01X3065Y4323D01*
G01X3067Y4327D01*
G01X3068Y4330D01*
G01X3072Y4335D01*
G01X3077Y4340D01*
G01X3083Y4345D01*
G01X3086Y4346D01*
G01X3089Y4348D01*
G01X3095Y4350D01*
G01X3101Y4351D01*
G01X3340Y4351D01*
G01X3346Y4350D01*
G01X3350Y4349D01*
G01X3357Y4345D01*
G01X3360Y4343D01*
G01X3364Y4340D01*
G01X3370Y4334D01*
G01X3375Y4327D01*
G01X3376Y4323D01*
G01X3376Y4322D01*
G01X3379Y4313D01*
G01X3379Y3915D01*
G01X3377Y3910D01*
G01X3375Y3902D01*
G01X3370Y3895D01*
G01X3369Y3893D01*
G01X3364Y3888D01*
G01X3360Y3885D01*
G01X3357Y3883D01*
G01X3350Y3879D01*
G01X3346Y3879D01*
G01X3340Y3877D01*
G01X3101Y3877D01*
G37*
G36*
G01X2352Y3877D02*
G01X2347Y3879D01*
G01X2343Y3879D01*
G01X2336Y3883D01*
G01X2333Y3885D01*
G01X2329Y3888D01*
G01X2324Y3893D01*
G01X2323Y3895D01*
G01X2318Y3902D01*
G01X2317Y3906D01*
G01X2314Y3911D01*
G01X2314Y4318D01*
G01X2317Y4324D01*
G01X2318Y4327D01*
G01X2323Y4334D01*
G01X2329Y4340D01*
G01X2333Y4343D01*
G01X2336Y4345D01*
G01X2343Y4349D01*
G01X2347Y4350D01*
G01X2352Y4351D01*
G01X2591Y4351D01*
G01X2597Y4350D01*
G01X2605Y4348D01*
G01X2609Y4345D01*
G01X2610Y4345D01*
G01X2616Y4340D01*
G01X2621Y4335D01*
G01X2625Y4330D01*
G01X2626Y4327D01*
G01X2628Y4323D01*
G01X2629Y4318D01*
G01X2631Y4313D01*
G01X2631Y3915D01*
G01X2629Y3910D01*
G01X2628Y3906D01*
G01X2626Y3901D01*
G01X2625Y3899D01*
G01X2621Y3893D01*
G01X2616Y3888D01*
G01X2611Y3884D01*
G01X2605Y3879D01*
G01X2597Y3878D01*
G01X2591Y3877D01*
G01X2352Y3877D01*
G37*
G36*
G01X4136Y4759D02*
G01X4131Y4760D01*
G01X4128Y4761D01*
G01X4117Y4766D01*
G01X4115Y4767D01*
G01X4108Y4774D01*
G01X4102Y4783D01*
G01X4100Y4788D01*
G01X4099Y4792D01*
G01X4098Y4797D01*
G01X4098Y5045D01*
G01X4100Y5055D01*
G01X4104Y5063D01*
G01X4108Y5068D01*
G01X4117Y5077D01*
G01X4128Y5081D01*
G01X4131Y5082D01*
G01X4136Y5083D01*
G01X4384Y5083D01*
G01X4389Y5082D01*
G01X4393Y5081D01*
G01X4401Y5077D01*
G01X4402Y5076D01*
G01X4404Y5075D01*
G01X4413Y5068D01*
G01X4415Y5063D01*
G01X4418Y5059D01*
G01X4419Y5056D01*
G01X4420Y5054D01*
G01X4422Y5045D01*
G01X4422Y4797D01*
G01X4420Y4788D01*
G01X4418Y4784D01*
G01X4417Y4783D01*
G01X4413Y4774D01*
G01X4404Y4767D01*
G01X4403Y4767D01*
G01X4401Y4765D01*
G01X4393Y4762D01*
G01X4389Y4760D01*
G01X4384Y4759D01*
G01X4136Y4759D01*
G37*
G36*
G01X4490Y4759D02*
G01X4485Y4760D01*
G01X4481Y4762D01*
G01X4473Y4765D01*
G01X4471Y4767D01*
G01X4470Y4767D01*
G01X4461Y4774D01*
G01X4457Y4783D01*
G01X4456Y4784D01*
G01X4456Y4786D01*
G01X4454Y4788D01*
G01X4452Y4797D01*
G01X4452Y5045D01*
G01X4454Y5054D01*
G01X4455Y5056D01*
G01X4456Y5059D01*
G01X4459Y5063D01*
G01X4461Y5068D01*
G01X4470Y5075D01*
G01X4472Y5076D01*
G01X4473Y5077D01*
G01X4481Y5081D01*
G01X4485Y5082D01*
G01X4490Y5083D01*
G01X4738Y5083D01*
G01X4743Y5082D01*
G01X4746Y5081D01*
G01X4757Y5077D01*
G01X4766Y5068D01*
G01X4770Y5063D01*
G01X4774Y5055D01*
G01X4776Y5045D01*
G01X4776Y4797D01*
G01X4775Y4792D01*
G01X4774Y4788D01*
G01X4772Y4783D01*
G01X4766Y4774D01*
G01X4759Y4767D01*
G01X4757Y4766D01*
G01X4746Y4761D01*
G01X4743Y4760D01*
G01X4738Y4759D01*
G01X4490Y4759D01*
G37*
G36*
G01X16077Y1144D02*
G01X16072Y1145D01*
G01X16066Y1147D01*
G01X16059Y1151D01*
G01X16054Y1155D01*
G01X16046Y1163D01*
G01X16044Y1165D01*
G01X16041Y1172D01*
G01X16040Y1178D01*
G01X16038Y1183D01*
G01X16038Y1429D01*
G01X16040Y1434D01*
G01X16041Y1440D01*
G01X16044Y1447D01*
G01X16047Y1451D01*
G01X16047Y1451D01*
G01X16059Y1462D01*
G01X16063Y1463D01*
G01X16066Y1466D01*
G01X16077Y1468D01*
G01X16325Y1468D01*
G01X16330Y1467D01*
G01X16334Y1466D01*
G01X16338Y1463D01*
G01X16341Y1462D01*
G01X16347Y1457D01*
G01X16355Y1450D01*
G01X16360Y1440D01*
G01X16362Y1434D01*
G01X16363Y1429D01*
G01X16363Y1183D01*
G01X16362Y1178D01*
G01X16360Y1172D01*
G01X16355Y1162D01*
G01X16347Y1155D01*
G01X16338Y1149D01*
G01X16334Y1147D01*
G01X16330Y1145D01*
G01X16325Y1144D01*
G01X16077Y1144D01*
G37*
G36*
G01X16432Y1144D02*
G01X16427Y1145D01*
G01X16421Y1147D01*
G01X16411Y1152D01*
G01X16401Y1162D01*
G01X16398Y1168D01*
G01X16398Y1169D01*
G01X16393Y1177D01*
G01X16393Y1435D01*
G01X16398Y1444D01*
G01X16401Y1450D01*
G01X16411Y1460D01*
G01X16417Y1463D01*
G01X16421Y1466D01*
G01X16427Y1467D01*
G01X16432Y1468D01*
G01X16679Y1468D01*
G01X16684Y1467D01*
G01X16688Y1466D01*
G01X16693Y1463D01*
G01X16699Y1460D01*
G01X16709Y1450D01*
G01X16712Y1444D01*
G01X16715Y1440D01*
G01X16716Y1434D01*
G01X16717Y1429D01*
G01X16717Y1183D01*
G01X16716Y1178D01*
G01X16715Y1172D01*
G01X16712Y1168D01*
G01X16709Y1162D01*
G01X16699Y1152D01*
G01X16693Y1149D01*
G01X16688Y1146D01*
G01X16684Y1145D01*
G01X16679Y1144D01*
G01X16432Y1144D01*
G37*
G36*
G01X4136Y5192D02*
G01X4131Y5194D01*
G01X4128Y5194D01*
G01X4121Y5197D01*
G01X4116Y5200D01*
G01X4113Y5203D01*
G01X4108Y5207D01*
G01X4106Y5211D01*
G01X4104Y5214D01*
G01X4100Y5222D01*
G01X4099Y5227D01*
G01X4098Y5231D01*
G01X4098Y5477D01*
G01X4099Y5482D01*
G01X4100Y5488D01*
G01X4102Y5492D01*
G01X4106Y5498D01*
G01X4110Y5503D01*
G01X4113Y5506D01*
G01X4116Y5508D01*
G01X4121Y5511D01*
G01X4122Y5512D01*
G01X4131Y5516D01*
G01X4389Y5516D01*
G01X4397Y5512D01*
G01X4398Y5512D01*
G01X4404Y5509D01*
G01X4410Y5503D01*
G01X4413Y5499D01*
G01X4418Y5492D01*
G01X4419Y5489D01*
G01X4420Y5487D01*
G01X4422Y5477D01*
G01X4422Y5231D01*
G01X4420Y5223D01*
G01X4419Y5220D01*
G01X4418Y5214D01*
G01X4415Y5211D01*
G01X4413Y5207D01*
G01X4405Y5201D01*
G01X4404Y5200D01*
G01X4398Y5197D01*
G01X4393Y5195D01*
G01X4389Y5194D01*
G01X4384Y5192D01*
G01X4136Y5192D01*
G37*
G36*
G01X4490Y5192D02*
G01X4485Y5194D01*
G01X4481Y5195D01*
G01X4476Y5197D01*
G01X4470Y5200D01*
G01X4469Y5201D01*
G01X4461Y5207D01*
G01X4459Y5211D01*
G01X4456Y5214D01*
G01X4455Y5220D01*
G01X4454Y5223D01*
G01X4452Y5231D01*
G01X4452Y5477D01*
G01X4454Y5487D01*
G01X4455Y5489D01*
G01X4456Y5492D01*
G01X4461Y5499D01*
G01X4464Y5503D01*
G01X4470Y5509D01*
G01X4476Y5512D01*
G01X4477Y5512D01*
G01X4485Y5516D01*
G01X4743Y5516D01*
G01X4752Y5512D01*
G01X4753Y5511D01*
G01X4758Y5508D01*
G01X4761Y5506D01*
G01X4764Y5503D01*
G01X4768Y5498D01*
G01X4772Y5492D01*
G01X4774Y5488D01*
G01X4775Y5482D01*
G01X4776Y5477D01*
G01X4776Y5231D01*
G01X4775Y5227D01*
G01X4774Y5222D01*
G01X4770Y5214D01*
G01X4768Y5211D01*
G01X4766Y5207D01*
G01X4761Y5203D01*
G01X4758Y5200D01*
G01X4753Y5197D01*
G01X4746Y5194D01*
G01X4743Y5194D01*
G01X4738Y5192D01*
G01X4490Y5192D01*
G37*
G36*
G01X2122Y2204D02*
G01X2116Y2206D01*
G01X2115Y2206D01*
G01X2107Y2209D01*
G01X2103Y2212D01*
G01X2099Y2214D01*
G01X2095Y2219D01*
G01X2090Y2225D01*
G01X2086Y2233D01*
G01X2084Y2240D01*
G01X2084Y2243D01*
G01X2083Y2247D01*
G01X2083Y2812D01*
G01X2084Y2816D01*
G01X2084Y2820D01*
G01X2086Y2826D01*
G01X2090Y2834D01*
G01X2095Y2840D01*
G01X2102Y2847D01*
G01X2107Y2849D01*
G01X2112Y2852D01*
G01X2119Y2854D01*
G01X2121Y2854D01*
G01X2125Y2855D01*
G01X2494Y2855D01*
G01X2498Y2854D01*
G01X2502Y2854D01*
G01X2509Y2852D01*
G01X2512Y2850D01*
G01X2517Y2848D01*
G01X2522Y2843D01*
G01X2527Y2839D01*
G01X2529Y2835D01*
G01X2531Y2833D01*
G01X2534Y2826D01*
G01X2536Y2820D01*
G01X2537Y2813D01*
G01X2537Y2246D01*
G01X2536Y2240D01*
G01X2534Y2233D01*
G01X2531Y2227D01*
G01X2528Y2223D01*
G01X2527Y2221D01*
G01X2523Y2216D01*
G01X2517Y2212D01*
G01X2512Y2208D01*
G01X2506Y2207D01*
G01X2505Y2206D01*
G01X2498Y2204D01*
G01X2122Y2204D01*
G37*
G36*
G01X2910Y2204D02*
G01X2904Y2206D01*
G01X2902Y2206D01*
G01X2894Y2209D01*
G01X2889Y2213D01*
G01X2887Y2214D01*
G01X2882Y2219D01*
G01X2878Y2225D01*
G01X2875Y2229D01*
G01X2873Y2233D01*
G01X2872Y2240D01*
G01X2871Y2243D01*
G01X2870Y2247D01*
G01X2870Y2812D01*
G01X2872Y2820D01*
G01X2873Y2826D01*
G01X2875Y2830D01*
G01X2878Y2834D01*
G01X2882Y2840D01*
G01X2887Y2845D01*
G01X2887Y2844D01*
G01X2890Y2847D01*
G01X2894Y2849D01*
G01X2899Y2852D01*
G01X2906Y2854D01*
G01X2909Y2854D01*
G01X2913Y2855D01*
G01X3282Y2855D01*
G01X3285Y2854D01*
G01X3289Y2854D01*
G01X3296Y2852D01*
G01X3299Y2850D01*
G01X3304Y2848D01*
G01X3310Y2843D01*
G01X3314Y2839D01*
G01X3317Y2835D01*
G01X3318Y2833D01*
G01X3322Y2826D01*
G01X3322Y2820D01*
G01X3324Y2813D01*
G01X3324Y2246D01*
G01X3322Y2240D01*
G01X3322Y2233D01*
G01X3318Y2227D01*
G01X3315Y2223D01*
G01X3314Y2221D01*
G01X3310Y2216D01*
G01X3304Y2212D01*
G01X3299Y2208D01*
G01X3293Y2207D01*
G01X3292Y2206D01*
G01X3285Y2204D01*
G01X2910Y2204D01*
G37*
G36*
G01X2337Y1396D02*
G01X2331Y1397D01*
G01X2320Y1400D01*
G01X2317Y1403D01*
G01X2313Y1405D01*
G01X2310Y1410D01*
G01X2306Y1414D01*
G01X2301Y1424D01*
G01X2299Y1434D01*
G01X2299Y1682D01*
G01X2300Y1685D01*
G01X2299Y1685D01*
G01X2301Y1691D01*
G01X2304Y1698D01*
G01X2307Y1702D01*
G01X2309Y1705D01*
G01X2314Y1709D01*
G01X2317Y1712D01*
G01X2320Y1714D01*
G01X2328Y1718D01*
G01X2332Y1719D01*
G01X2337Y1720D01*
G01X2584Y1720D01*
G01X2590Y1719D01*
G01X2594Y1718D01*
G01X2599Y1714D01*
G01X2605Y1712D01*
G01X2608Y1709D01*
G01X2613Y1705D01*
G01X2614Y1703D01*
G01X2618Y1698D01*
G01X2620Y1693D01*
G01X2623Y1685D01*
G01X2623Y1429D01*
G01X2620Y1424D01*
G01X2619Y1420D01*
G01X2614Y1414D01*
G01X2613Y1412D01*
G01X2607Y1406D01*
G01X2603Y1403D01*
G01X2598Y1400D01*
G01X2595Y1399D01*
G01X2594Y1398D01*
G01X2591Y1397D01*
G01X2590Y1397D01*
G01X2584Y1396D01*
G01X2337Y1396D01*
G37*
G36*
G01X2337Y1750D02*
G01X2334Y1751D01*
G01X2328Y1752D01*
G01X2320Y1755D01*
G01X2317Y1757D01*
G01X2314Y1761D01*
G01X2311Y1763D01*
G01X2306Y1768D01*
G01X2303Y1773D01*
G01X2301Y1779D01*
G01X2300Y1784D01*
G01X2299Y1789D01*
G01X2299Y2035D01*
G01X2300Y2039D01*
G01X2301Y2046D01*
G01X2303Y2050D01*
G01X2306Y2057D01*
G01X2311Y2061D01*
G01X2314Y2064D01*
G01X2317Y2066D01*
G01X2320Y2069D01*
G01X2328Y2072D01*
G01X2334Y2074D01*
G01X2334Y2073D01*
G01X2337Y2074D01*
G01X2584Y2074D01*
G01X2590Y2073D01*
G01X2594Y2072D01*
G01X2599Y2070D01*
G01X2605Y2067D01*
G01X2611Y2061D01*
G01X2614Y2057D01*
G01X2619Y2050D01*
G01X2620Y2047D01*
G01X2623Y2041D01*
G01X2623Y1784D01*
G01X2620Y1779D01*
G01X2619Y1775D01*
G01X2614Y1768D01*
G01X2611Y1764D01*
G01X2605Y1757D01*
G01X2599Y1755D01*
G01X2594Y1753D01*
G01X2590Y1752D01*
G01X2584Y1750D01*
G01X2337Y1750D01*
G37*
G36*
G01X3126Y4874D02*
G01X3097Y4876D01*
G01X3068Y4881D01*
G01X3041Y4890D01*
G01X3014Y4902D01*
G01X2990Y4917D01*
G01X2967Y4934D01*
G01X2946Y4955D01*
G01X2928Y4978D01*
G01X2913Y5003D01*
G01X2902Y5029D01*
G01X2893Y5057D01*
G01X2888Y5085D01*
G01X2886Y5114D01*
G01X2888Y5143D01*
G01X2893Y5172D01*
G01X2902Y5199D01*
G01X2913Y5226D01*
G01X2928Y5251D01*
G01X2946Y5273D01*
G01X2967Y5294D01*
G01X2990Y5312D01*
G01X3014Y5327D01*
G01X3041Y5339D01*
G01X3069Y5347D01*
G01X3097Y5352D01*
G01X3126Y5354D01*
G01X3155Y5352D01*
G01X3183Y5347D01*
G01X3211Y5339D01*
G01X3238Y5327D01*
G01X3261Y5312D01*
G01X3285Y5294D01*
G01X3306Y5273D01*
G01X3324Y5251D01*
G01X3339Y5226D01*
G01X3350Y5199D01*
G01X3359Y5172D01*
G01X3364Y5143D01*
G01X3365Y5114D01*
G01X3364Y5085D01*
G01X3359Y5057D01*
G01X3350Y5029D01*
G01X3339Y5003D01*
G01X3324Y4978D01*
G01X3306Y4955D01*
G01X3285Y4934D01*
G01X3261Y4917D01*
G01X3238Y4902D01*
G01X3211Y4890D01*
G01X3183Y4881D01*
G01X3155Y4876D01*
G01X3126Y4874D01*
G37*
G36*
G01X3578Y2614D02*
G01X3578Y3146D01*
G01X3953Y3146D01*
G01X3953Y2614D01*
G01X3578Y2614D01*
G37*
G36*
G01X4779Y2614D02*
G01X4779Y3146D01*
G01X5154Y3146D01*
G01X5154Y2614D01*
G01X4779Y2614D01*
G37*
G36*
G01X3578Y3854D02*
G01X3578Y4387D01*
G01X3953Y4387D01*
G01X3953Y3854D01*
G01X3578Y3854D01*
G37*
G36*
G01X4779Y3854D02*
G01X4779Y4387D01*
G01X5154Y4387D01*
G01X5154Y3854D01*
G01X4779Y3854D01*
G37*
G36*
G01X4051Y2456D02*
G01X4051Y2910D01*
G01X4682Y2910D01*
G01X4682Y2456D01*
G01X4051Y2456D01*
G37*
G36*
G01X4051Y4090D02*
G01X4051Y4544D01*
G01X4682Y4544D01*
G01X4682Y4090D01*
G01X4051Y4090D01*
G37*
G36*
G01X14883Y1145D02*
G01X14874Y1149D01*
G01X14866Y1153D01*
G01X14861Y1158D01*
G01X14860Y1158D01*
G01X14856Y1163D01*
G01X14852Y1169D01*
G01X14850Y1173D01*
G01X14849Y1179D01*
G01X14847Y1184D01*
G01X14847Y1431D01*
G01X14849Y1436D01*
G01X14850Y1440D01*
G01X14854Y1447D01*
G01X14856Y1451D01*
G01X14858Y1454D01*
G01X14861Y1456D01*
G01X14866Y1461D01*
G01X14872Y1464D01*
G01X14877Y1467D01*
G01X14881Y1468D01*
G01X14886Y1469D01*
G01X15133Y1469D01*
G01X15143Y1467D01*
G01X15147Y1464D01*
G01X15154Y1461D01*
G01X15163Y1451D01*
G01X15168Y1443D01*
G01X15172Y1434D01*
G01X15172Y1178D01*
G01X15166Y1170D01*
G01X15166Y1169D01*
G01X15163Y1163D01*
G01X15154Y1153D01*
G01X15147Y1150D01*
G01X15147Y1150D01*
G01X15138Y1145D01*
G01X14883Y1145D01*
G37*
G36*
G01X14527Y1145D02*
G01X14518Y1150D01*
G01X14511Y1153D01*
G01X14501Y1163D01*
G01X14497Y1169D01*
G01X14497Y1170D01*
G01X14494Y1178D01*
G01X14494Y1182D01*
G01X14493Y1184D01*
G01X14493Y1430D01*
G01X14494Y1436D01*
G01X14497Y1443D01*
G01X14501Y1451D01*
G01X14511Y1461D01*
G01X14518Y1464D01*
G01X14522Y1467D01*
G01X14527Y1468D01*
G01X14533Y1469D01*
G01X14779Y1469D01*
G01X14784Y1468D01*
G01X14788Y1467D01*
G01X14796Y1463D01*
G01X14799Y1461D01*
G01X14803Y1458D01*
G01X14810Y1451D01*
G01X14812Y1447D01*
G01X14815Y1440D01*
G01X14816Y1436D01*
G01X14818Y1431D01*
G01X14818Y1184D01*
G01X14816Y1179D01*
G01X14815Y1173D01*
G01X14810Y1163D01*
G01X14803Y1156D01*
G01X14799Y1153D01*
G01X14796Y1151D01*
G01X14791Y1149D01*
G01X14782Y1145D01*
G01X14527Y1145D01*
G37*
G36*
G01X15651Y1145D02*
G01X15641Y1149D01*
G01X15637Y1151D01*
G01X15634Y1153D01*
G01X15630Y1156D01*
G01X15622Y1163D01*
G01X15618Y1173D01*
G01X15616Y1179D01*
G01X15616Y1184D01*
G01X15616Y1431D01*
G01X15616Y1434D01*
G01X15616Y1434D01*
G01X15618Y1440D01*
G01X15621Y1447D01*
G01X15622Y1451D01*
G01X15630Y1458D01*
G01X15634Y1461D01*
G01X15637Y1463D01*
G01X15644Y1467D01*
G01X15649Y1468D01*
G01X15654Y1469D01*
G01X15901Y1469D01*
G01X15907Y1468D01*
G01X15911Y1467D01*
G01X15915Y1464D01*
G01X15922Y1461D01*
G01X15925Y1458D01*
G01X15930Y1454D01*
G01X15931Y1452D01*
G01X15935Y1448D01*
G01X15937Y1440D01*
G01X15940Y1434D01*
G01X15940Y1178D01*
G01X15937Y1173D01*
G01X15936Y1169D01*
G01X15931Y1163D01*
G01X15928Y1158D01*
G01X15925Y1156D01*
G01X15922Y1153D01*
G01X15915Y1150D01*
G01X15906Y1145D01*
G01X15651Y1145D01*
G37*
G36*
G01X15294Y1145D02*
G01X15286Y1150D01*
G01X15285Y1150D01*
G01X15279Y1153D01*
G01X15269Y1163D01*
G01X15263Y1173D01*
G01X15262Y1179D01*
G01X15261Y1184D01*
G01X15261Y1431D01*
G01X15262Y1436D01*
G01X15263Y1440D01*
G01X15266Y1447D01*
G01X15269Y1451D01*
G01X15279Y1461D01*
G01X15285Y1464D01*
G01X15290Y1467D01*
G01X15300Y1469D01*
G01X15546Y1469D01*
G01X15551Y1468D01*
G01X15557Y1467D01*
G01X15561Y1464D01*
G01X15566Y1461D01*
G01X15572Y1456D01*
G01X15575Y1454D01*
G01X15577Y1451D01*
G01X15579Y1447D01*
G01X15583Y1440D01*
G01X15584Y1436D01*
G01X15585Y1431D01*
G01X15585Y1184D01*
G01X15584Y1179D01*
G01X15583Y1173D01*
G01X15581Y1169D01*
G01X15577Y1163D01*
G01X15572Y1158D01*
G01X15572Y1158D01*
G01X15566Y1153D01*
G01X15561Y1150D01*
G01X15552Y1145D01*
G01X15294Y1145D01*
G37*
G36*
G01X1479Y-438D02*
G01X1436Y-434D01*
G01X1395Y-423D01*
G01X1355Y-408D01*
G01X1318Y-387D01*
G01X1283Y-362D01*
G01X1252Y-333D01*
G01X1225Y-300D01*
G01X1202Y-264D01*
G01X1184Y-225D01*
G01X1171Y-185D01*
G01X1163Y-143D01*
G01X1160Y-101D01*
G01X1160Y501D01*
G01X1163Y543D01*
G01X1171Y585D01*
G01X1184Y625D01*
G01X1202Y664D01*
G01X1225Y700D01*
G01X1252Y733D01*
G01X1283Y762D01*
G01X1318Y787D01*
G01X1355Y808D01*
G01X1395Y823D01*
G01X1436Y834D01*
G01X1479Y839D01*
G01X1521Y839D01*
G01X1564Y834D01*
G01X1605Y823D01*
G01X1645Y808D01*
G01X1682Y787D01*
G01X1717Y762D01*
G01X1748Y733D01*
G01X1775Y700D01*
G01X1798Y664D01*
G01X1816Y625D01*
G01X1829Y585D01*
G01X1837Y543D01*
G01X1839Y501D01*
G01X1839Y-101D01*
G01X1837Y-143D01*
G01X1829Y-185D01*
G01X1816Y-225D01*
G01X1798Y-264D01*
G01X1775Y-300D01*
G01X1748Y-333D01*
G01X1717Y-362D01*
G01X1682Y-387D01*
G01X1645Y-408D01*
G01X1605Y-423D01*
G01X1564Y-434D01*
G01X1521Y-438D01*
G01X1479Y-438D01*
G37*
G36*
G01X2479Y-438D02*
G01X2436Y-434D01*
G01X2395Y-423D01*
G01X2355Y-408D01*
G01X2318Y-387D01*
G01X2283Y-362D01*
G01X2252Y-333D01*
G01X2225Y-300D01*
G01X2202Y-264D01*
G01X2184Y-225D01*
G01X2171Y-185D01*
G01X2163Y-143D01*
G01X2160Y-101D01*
G01X2160Y501D01*
G01X2163Y543D01*
G01X2171Y585D01*
G01X2184Y625D01*
G01X2202Y664D01*
G01X2225Y700D01*
G01X2252Y733D01*
G01X2283Y762D01*
G01X2318Y787D01*
G01X2355Y808D01*
G01X2395Y823D01*
G01X2436Y834D01*
G01X2479Y839D01*
G01X2521Y839D01*
G01X2564Y834D01*
G01X2605Y823D01*
G01X2645Y808D01*
G01X2682Y787D01*
G01X2717Y762D01*
G01X2748Y733D01*
G01X2775Y700D01*
G01X2798Y664D01*
G01X2816Y625D01*
G01X2829Y585D01*
G01X2837Y543D01*
G01X2840Y501D01*
G01X2840Y-101D01*
G01X2837Y-143D01*
G01X2829Y-185D01*
G01X2816Y-225D01*
G01X2798Y-264D01*
G01X2775Y-300D01*
G01X2748Y-333D01*
G01X2717Y-362D01*
G01X2682Y-387D01*
G01X2645Y-408D01*
G01X2605Y-423D01*
G01X2564Y-434D01*
G01X2521Y-438D01*
G01X2479Y-438D01*
G37*
G36*
G01X3479Y-438D02*
G01X3436Y-434D01*
G01X3395Y-423D01*
G01X3354Y-408D01*
G01X3318Y-387D01*
G01X3283Y-362D01*
G01X3252Y-333D01*
G01X3225Y-300D01*
G01X3202Y-264D01*
G01X3184Y-225D01*
G01X3171Y-185D01*
G01X3163Y-143D01*
G01X3160Y-101D01*
G01X3160Y501D01*
G01X3163Y543D01*
G01X3171Y585D01*
G01X3184Y625D01*
G01X3202Y664D01*
G01X3225Y700D01*
G01X3252Y733D01*
G01X3283Y762D01*
G01X3318Y787D01*
G01X3354Y808D01*
G01X3395Y823D01*
G01X3436Y834D01*
G01X3479Y839D01*
G01X3521Y839D01*
G01X3564Y834D01*
G01X3604Y823D01*
G01X3645Y808D01*
G01X3682Y787D01*
G01X3717Y762D01*
G01X3747Y733D01*
G01X3775Y700D01*
G01X3797Y664D01*
G01X3815Y625D01*
G01X3829Y585D01*
G01X3836Y543D01*
G01X3840Y501D01*
G01X3840Y-101D01*
G01X3836Y-143D01*
G01X3829Y-185D01*
G01X3815Y-225D01*
G01X3797Y-264D01*
G01X3775Y-300D01*
G01X3747Y-333D01*
G01X3717Y-362D01*
G01X3682Y-387D01*
G01X3645Y-408D01*
G01X3604Y-423D01*
G01X3564Y-434D01*
G01X3521Y-438D01*
G01X3479Y-438D01*
G37*
G36*
G01X4479Y-438D02*
G01X4436Y-434D01*
G01X4395Y-423D01*
G01X4355Y-408D01*
G01X4318Y-387D01*
G01X4283Y-362D01*
G01X4252Y-333D01*
G01X4225Y-300D01*
G01X4202Y-264D01*
G01X4184Y-225D01*
G01X4171Y-185D01*
G01X4163Y-143D01*
G01X4160Y-101D01*
G01X4160Y501D01*
G01X4163Y543D01*
G01X4171Y585D01*
G01X4184Y625D01*
G01X4202Y664D01*
G01X4225Y700D01*
G01X4252Y733D01*
G01X4283Y762D01*
G01X4318Y787D01*
G01X4355Y808D01*
G01X4395Y823D01*
G01X4436Y834D01*
G01X4479Y839D01*
G01X4521Y839D01*
G01X4564Y834D01*
G01X4605Y823D01*
G01X4645Y808D01*
G01X4682Y787D01*
G01X4717Y762D01*
G01X4748Y733D01*
G01X4775Y700D01*
G01X4798Y664D01*
G01X4816Y625D01*
G01X4829Y585D01*
G01X4837Y543D01*
G01X4840Y501D01*
G01X4840Y-101D01*
G01X4837Y-143D01*
G01X4829Y-185D01*
G01X4816Y-225D01*
G01X4798Y-264D01*
G01X4775Y-300D01*
G01X4748Y-333D01*
G01X4717Y-362D01*
G01X4682Y-387D01*
G01X4645Y-408D01*
G01X4605Y-423D01*
G01X4564Y-434D01*
G01X4521Y-438D01*
G01X4479Y-438D01*
G37*
G36*
G01X5479Y-438D02*
G01X5436Y-434D01*
G01X5395Y-423D01*
G01X5355Y-408D01*
G01X5318Y-387D01*
G01X5283Y-362D01*
G01X5252Y-333D01*
G01X5225Y-300D01*
G01X5202Y-264D01*
G01X5184Y-225D01*
G01X5171Y-185D01*
G01X5163Y-143D01*
G01X5160Y-101D01*
G01X5160Y501D01*
G01X5163Y543D01*
G01X5171Y585D01*
G01X5184Y625D01*
G01X5202Y664D01*
G01X5225Y700D01*
G01X5252Y733D01*
G01X5283Y762D01*
G01X5318Y787D01*
G01X5355Y808D01*
G01X5395Y823D01*
G01X5436Y834D01*
G01X5479Y839D01*
G01X5521Y839D01*
G01X5564Y834D01*
G01X5605Y823D01*
G01X5645Y808D01*
G01X5682Y787D01*
G01X5717Y762D01*
G01X5748Y733D01*
G01X5775Y700D01*
G01X5798Y664D01*
G01X5816Y625D01*
G01X5829Y585D01*
G01X5837Y543D01*
G01X5840Y501D01*
G01X5840Y-101D01*
G01X5837Y-143D01*
G01X5829Y-185D01*
G01X5816Y-225D01*
G01X5798Y-264D01*
G01X5775Y-300D01*
G01X5748Y-333D01*
G01X5717Y-362D01*
G01X5682Y-387D01*
G01X5645Y-408D01*
G01X5605Y-423D01*
G01X5564Y-434D01*
G01X5521Y-438D01*
G01X5479Y-438D01*
G37*
G36*
G01X6479Y-438D02*
G01X6436Y-434D01*
G01X6395Y-423D01*
G01X6355Y-408D01*
G01X6318Y-387D01*
G01X6283Y-362D01*
G01X6252Y-333D01*
G01X6225Y-300D01*
G01X6202Y-264D01*
G01X6184Y-225D01*
G01X6171Y-185D01*
G01X6163Y-143D01*
G01X6160Y-101D01*
G01X6160Y501D01*
G01X6163Y543D01*
G01X6171Y585D01*
G01X6184Y625D01*
G01X6202Y664D01*
G01X6225Y700D01*
G01X6252Y733D01*
G01X6283Y762D01*
G01X6318Y787D01*
G01X6355Y808D01*
G01X6395Y823D01*
G01X6436Y834D01*
G01X6479Y839D01*
G01X6520Y839D01*
G01X6564Y834D01*
G01X6605Y823D01*
G01X6645Y808D01*
G01X6681Y787D01*
G01X6717Y762D01*
G01X6748Y733D01*
G01X6775Y700D01*
G01X6798Y664D01*
G01X6816Y625D01*
G01X6829Y585D01*
G01X6837Y543D01*
G01X6840Y501D01*
G01X6840Y-101D01*
G01X6837Y-143D01*
G01X6829Y-185D01*
G01X6816Y-225D01*
G01X6798Y-264D01*
G01X6775Y-300D01*
G01X6748Y-333D01*
G01X6717Y-362D01*
G01X6681Y-387D01*
G01X6645Y-408D01*
G01X6605Y-423D01*
G01X6564Y-434D01*
G01X6520Y-438D01*
G01X6479Y-438D01*
G37*
G36*
G01X7479Y-438D02*
G01X7436Y-434D01*
G01X7395Y-423D01*
G01X7355Y-408D01*
G01X7318Y-387D01*
G01X7283Y-362D01*
G01X7252Y-333D01*
G01X7225Y-300D01*
G01X7202Y-264D01*
G01X7184Y-225D01*
G01X7170Y-185D01*
G01X7163Y-143D01*
G01X7159Y-101D01*
G01X7159Y501D01*
G01X7163Y543D01*
G01X7170Y585D01*
G01X7184Y625D01*
G01X7202Y664D01*
G01X7225Y700D01*
G01X7252Y733D01*
G01X7283Y762D01*
G01X7318Y787D01*
G01X7355Y808D01*
G01X7395Y823D01*
G01X7436Y834D01*
G01X7479Y839D01*
G01X7520Y839D01*
G01X7564Y834D01*
G01X7605Y823D01*
G01X7645Y808D01*
G01X7681Y787D01*
G01X7717Y762D01*
G01X7748Y733D01*
G01X7775Y700D01*
G01X7798Y664D01*
G01X7816Y625D01*
G01X7829Y585D01*
G01X7837Y543D01*
G01X7840Y501D01*
G01X7840Y-101D01*
G01X7837Y-143D01*
G01X7829Y-185D01*
G01X7816Y-225D01*
G01X7798Y-264D01*
G01X7775Y-300D01*
G01X7748Y-333D01*
G01X7717Y-362D01*
G01X7681Y-387D01*
G01X7645Y-408D01*
G01X7605Y-423D01*
G01X7564Y-434D01*
G01X7520Y-438D01*
G01X7479Y-438D01*
G37*
G36*
G01X8479Y-438D02*
G01X8436Y-434D01*
G01X8395Y-423D01*
G01X8355Y-408D01*
G01X8318Y-387D01*
G01X8283Y-362D01*
G01X8252Y-333D01*
G01X8225Y-300D01*
G01X8202Y-264D01*
G01X8184Y-225D01*
G01X8170Y-185D01*
G01X8163Y-143D01*
G01X8159Y-101D01*
G01X8159Y501D01*
G01X8163Y543D01*
G01X8170Y585D01*
G01X8184Y625D01*
G01X8202Y664D01*
G01X8225Y700D01*
G01X8252Y733D01*
G01X8283Y762D01*
G01X8318Y787D01*
G01X8355Y808D01*
G01X8395Y823D01*
G01X8436Y834D01*
G01X8479Y839D01*
G01X8521Y839D01*
G01X8564Y834D01*
G01X8605Y823D01*
G01X8645Y808D01*
G01X8682Y787D01*
G01X8717Y762D01*
G01X8748Y733D01*
G01X8775Y700D01*
G01X8798Y664D01*
G01X8816Y625D01*
G01X8829Y585D01*
G01X8837Y543D01*
G01X8840Y501D01*
G01X8840Y-101D01*
G01X8837Y-143D01*
G01X8829Y-185D01*
G01X8816Y-225D01*
G01X8798Y-264D01*
G01X8775Y-300D01*
G01X8748Y-333D01*
G01X8717Y-362D01*
G01X8682Y-387D01*
G01X8645Y-408D01*
G01X8605Y-423D01*
G01X8564Y-434D01*
G01X8521Y-438D01*
G01X8479Y-438D01*
G37*
G36*
G01X9479Y-438D02*
G01X9436Y-434D01*
G01X9395Y-423D01*
G01X9355Y-408D01*
G01X9318Y-387D01*
G01X9283Y-362D01*
G01X9252Y-333D01*
G01X9225Y-300D01*
G01X9202Y-264D01*
G01X9184Y-225D01*
G01X9171Y-185D01*
G01X9163Y-143D01*
G01X9160Y-101D01*
G01X9160Y501D01*
G01X9163Y543D01*
G01X9171Y585D01*
G01X9184Y625D01*
G01X9202Y664D01*
G01X9225Y700D01*
G01X9252Y733D01*
G01X9283Y762D01*
G01X9318Y787D01*
G01X9355Y808D01*
G01X9395Y823D01*
G01X9436Y834D01*
G01X9479Y839D01*
G01X9521Y839D01*
G01X9564Y834D01*
G01X9605Y823D01*
G01X9645Y808D01*
G01X9682Y787D01*
G01X9717Y762D01*
G01X9748Y733D01*
G01X9775Y700D01*
G01X9798Y664D01*
G01X9816Y625D01*
G01X9829Y585D01*
G01X9837Y543D01*
G01X9840Y501D01*
G01X9840Y-101D01*
G01X9837Y-143D01*
G01X9829Y-185D01*
G01X9816Y-225D01*
G01X9798Y-264D01*
G01X9775Y-300D01*
G01X9748Y-333D01*
G01X9717Y-362D01*
G01X9682Y-387D01*
G01X9645Y-408D01*
G01X9605Y-423D01*
G01X9564Y-434D01*
G01X9521Y-438D01*
G01X9479Y-438D01*
G37*
G36*
G01X10479Y-438D02*
G01X10436Y-434D01*
G01X10395Y-423D01*
G01X10355Y-408D01*
G01X10318Y-387D01*
G01X10283Y-362D01*
G01X10252Y-333D01*
G01X10225Y-300D01*
G01X10202Y-264D01*
G01X10184Y-225D01*
G01X10171Y-185D01*
G01X10163Y-143D01*
G01X10160Y-101D01*
G01X10160Y501D01*
G01X10163Y543D01*
G01X10171Y585D01*
G01X10184Y625D01*
G01X10202Y664D01*
G01X10225Y700D01*
G01X10252Y733D01*
G01X10283Y762D01*
G01X10318Y787D01*
G01X10355Y808D01*
G01X10395Y823D01*
G01X10436Y834D01*
G01X10479Y839D01*
G01X10521Y839D01*
G01X10564Y834D01*
G01X10605Y823D01*
G01X10645Y808D01*
G01X10682Y787D01*
G01X10717Y762D01*
G01X10748Y733D01*
G01X10775Y700D01*
G01X10798Y664D01*
G01X10816Y625D01*
G01X10829Y585D01*
G01X10837Y543D01*
G01X10840Y501D01*
G01X10840Y-101D01*
G01X10837Y-143D01*
G01X10829Y-185D01*
G01X10816Y-225D01*
G01X10798Y-264D01*
G01X10775Y-300D01*
G01X10748Y-333D01*
G01X10717Y-362D01*
G01X10682Y-387D01*
G01X10645Y-408D01*
G01X10605Y-423D01*
G01X10564Y-434D01*
G01X10521Y-438D01*
G01X10479Y-438D01*
G37*
G36*
G01X11479Y-438D02*
G01X11436Y-434D01*
G01X11395Y-423D01*
G01X11355Y-408D01*
G01X11318Y-387D01*
G01X11283Y-362D01*
G01X11252Y-333D01*
G01X11225Y-300D01*
G01X11202Y-264D01*
G01X11184Y-225D01*
G01X11171Y-185D01*
G01X11163Y-143D01*
G01X11160Y-101D01*
G01X11160Y501D01*
G01X11163Y543D01*
G01X11171Y585D01*
G01X11184Y625D01*
G01X11202Y664D01*
G01X11225Y700D01*
G01X11252Y733D01*
G01X11283Y762D01*
G01X11318Y787D01*
G01X11355Y808D01*
G01X11395Y823D01*
G01X11436Y834D01*
G01X11479Y839D01*
G01X11521Y839D01*
G01X11564Y834D01*
G01X11605Y823D01*
G01X11645Y808D01*
G01X11682Y787D01*
G01X11717Y762D01*
G01X11748Y733D01*
G01X11775Y700D01*
G01X11798Y664D01*
G01X11816Y625D01*
G01X11829Y585D01*
G01X11837Y543D01*
G01X11840Y501D01*
G01X11840Y-101D01*
G01X11837Y-143D01*
G01X11829Y-185D01*
G01X11816Y-225D01*
G01X11798Y-264D01*
G01X11775Y-300D01*
G01X11748Y-333D01*
G01X11717Y-362D01*
G01X11682Y-387D01*
G01X11645Y-408D01*
G01X11605Y-423D01*
G01X11564Y-434D01*
G01X11521Y-438D01*
G01X11479Y-438D01*
G37*
G36*
G01X12479Y-438D02*
G01X12436Y-434D01*
G01X12395Y-423D01*
G01X12355Y-408D01*
G01X12318Y-387D01*
G01X12283Y-362D01*
G01X12252Y-333D01*
G01X12225Y-300D01*
G01X12202Y-264D01*
G01X12184Y-225D01*
G01X12171Y-185D01*
G01X12163Y-143D01*
G01X12160Y-101D01*
G01X12160Y501D01*
G01X12163Y543D01*
G01X12171Y585D01*
G01X12184Y625D01*
G01X12202Y664D01*
G01X12225Y700D01*
G01X12252Y733D01*
G01X12283Y762D01*
G01X12318Y787D01*
G01X12355Y808D01*
G01X12395Y823D01*
G01X12436Y834D01*
G01X12479Y839D01*
G01X12521Y839D01*
G01X12564Y834D01*
G01X12605Y823D01*
G01X12645Y808D01*
G01X12682Y787D01*
G01X12717Y762D01*
G01X12748Y733D01*
G01X12775Y700D01*
G01X12798Y664D01*
G01X12816Y625D01*
G01X12829Y585D01*
G01X12837Y543D01*
G01X12840Y501D01*
G01X12840Y-101D01*
G01X12837Y-143D01*
G01X12829Y-185D01*
G01X12816Y-225D01*
G01X12798Y-264D01*
G01X12775Y-300D01*
G01X12748Y-333D01*
G01X12717Y-362D01*
G01X12682Y-387D01*
G01X12645Y-408D01*
G01X12605Y-423D01*
G01X12564Y-434D01*
G01X12521Y-438D01*
G01X12479Y-438D01*
G37*
G36*
G01X13479Y-438D02*
G01X13436Y-434D01*
G01X13394Y-423D01*
G01X13355Y-408D01*
G01X13318Y-387D01*
G01X13283Y-362D01*
G01X13252Y-333D01*
G01X13225Y-300D01*
G01X13202Y-264D01*
G01X13184Y-225D01*
G01X13171Y-185D01*
G01X13163Y-143D01*
G01X13160Y-101D01*
G01X13160Y501D01*
G01X13163Y543D01*
G01X13171Y585D01*
G01X13184Y625D01*
G01X13202Y664D01*
G01X13225Y700D01*
G01X13252Y733D01*
G01X13283Y762D01*
G01X13318Y787D01*
G01X13355Y808D01*
G01X13394Y823D01*
G01X13436Y834D01*
G01X13479Y839D01*
G01X13521Y839D01*
G01X13563Y834D01*
G01X13605Y823D01*
G01X13644Y808D01*
G01X13682Y787D01*
G01X13716Y762D01*
G01X13747Y733D01*
G01X13775Y700D01*
G01X13797Y664D01*
G01X13816Y625D01*
G01X13829Y585D01*
G01X13837Y543D01*
G01X13840Y501D01*
G01X13840Y-101D01*
G01X13837Y-143D01*
G01X13829Y-185D01*
G01X13816Y-225D01*
G01X13797Y-264D01*
G01X13775Y-300D01*
G01X13747Y-333D01*
G01X13716Y-362D01*
G01X13682Y-387D01*
G01X13644Y-408D01*
G01X13605Y-423D01*
G01X13563Y-434D01*
G01X13521Y-438D01*
G01X13479Y-438D01*
G37*
G36*
G01X14479Y-438D02*
G01X14436Y-434D01*
G01X14394Y-423D01*
G01X14355Y-408D01*
G01X14318Y-387D01*
G01X14283Y-362D01*
G01X14252Y-333D01*
G01X14225Y-300D01*
G01X14202Y-264D01*
G01X14184Y-225D01*
G01X14171Y-185D01*
G01X14163Y-143D01*
G01X14160Y-101D01*
G01X14160Y501D01*
G01X14163Y543D01*
G01X14171Y585D01*
G01X14184Y625D01*
G01X14202Y664D01*
G01X14225Y700D01*
G01X14252Y733D01*
G01X14283Y762D01*
G01X14318Y787D01*
G01X14355Y808D01*
G01X14394Y823D01*
G01X14436Y834D01*
G01X14479Y839D01*
G01X14521Y839D01*
G01X14563Y834D01*
G01X14605Y823D01*
G01X14644Y808D01*
G01X14682Y787D01*
G01X14716Y762D01*
G01X14747Y733D01*
G01X14775Y700D01*
G01X14797Y664D01*
G01X14816Y625D01*
G01X14829Y585D01*
G01X14837Y543D01*
G01X14840Y501D01*
G01X14840Y-101D01*
G01X14837Y-143D01*
G01X14829Y-185D01*
G01X14816Y-225D01*
G01X14797Y-264D01*
G01X14775Y-300D01*
G01X14747Y-333D01*
G01X14716Y-362D01*
G01X14682Y-387D01*
G01X14644Y-408D01*
G01X14605Y-423D01*
G01X14563Y-434D01*
G01X14521Y-438D01*
G01X14479Y-438D01*
G37*
G36*
G01X15479Y-438D02*
G01X15436Y-434D01*
G01X15394Y-423D01*
G01X15355Y-408D01*
G01X15318Y-387D01*
G01X15283Y-362D01*
G01X15252Y-333D01*
G01X15225Y-300D01*
G01X15202Y-264D01*
G01X15184Y-225D01*
G01X15171Y-185D01*
G01X15163Y-143D01*
G01X15160Y-101D01*
G01X15160Y501D01*
G01X15163Y543D01*
G01X15171Y585D01*
G01X15184Y625D01*
G01X15202Y664D01*
G01X15225Y700D01*
G01X15252Y733D01*
G01X15283Y762D01*
G01X15318Y787D01*
G01X15355Y808D01*
G01X15394Y823D01*
G01X15436Y834D01*
G01X15479Y839D01*
G01X15521Y839D01*
G01X15563Y834D01*
G01X15605Y823D01*
G01X15644Y808D01*
G01X15682Y787D01*
G01X15716Y762D01*
G01X15747Y733D01*
G01X15775Y700D01*
G01X15797Y664D01*
G01X15816Y625D01*
G01X15829Y585D01*
G01X15837Y543D01*
G01X15840Y501D01*
G01X15840Y-101D01*
G01X15837Y-143D01*
G01X15829Y-185D01*
G01X15816Y-225D01*
G01X15797Y-264D01*
G01X15775Y-300D01*
G01X15747Y-333D01*
G01X15716Y-362D01*
G01X15682Y-387D01*
G01X15644Y-408D01*
G01X15605Y-423D01*
G01X15563Y-434D01*
G01X15521Y-438D01*
G01X15479Y-438D01*
G37*
G36*
G01X2298Y4848D02*
G01X2288Y4850D01*
G01X2281Y4854D01*
G01X2278Y4856D01*
G01X2274Y4858D01*
G01X2272Y4861D01*
G01X2267Y4866D01*
G01X2262Y4876D01*
G01X2260Y4881D01*
G01X2259Y4886D01*
G01X2259Y5311D01*
G01X2260Y5316D01*
G01X2262Y5321D01*
G01X2267Y5331D01*
G01X2274Y5338D01*
G01X2278Y5341D01*
G01X2281Y5343D01*
G01X2288Y5347D01*
G01X2298Y5349D01*
G01X2659Y5349D01*
G01X2664Y5348D01*
G01X2668Y5347D01*
G01X2676Y5343D01*
G01X2679Y5341D01*
G01X2683Y5338D01*
G01X2688Y5333D01*
G01X2689Y5331D01*
G01X2694Y5325D01*
G01X2695Y5321D01*
G01X2697Y5316D01*
G01X2697Y5313D01*
G01X2698Y5310D01*
G01X2698Y4887D01*
G01X2697Y4883D01*
G01X2697Y4881D01*
G01X2695Y4877D01*
G01X2694Y4872D01*
G01X2689Y4865D01*
G01X2688Y4864D01*
G01X2683Y4858D01*
G01X2679Y4856D01*
G01X2676Y4854D01*
G01X2668Y4850D01*
G01X2664Y4849D01*
G01X2659Y4848D01*
G01X2298Y4848D01*
G37*
G36*
G01X3561Y4848D02*
G01X3551Y4850D01*
G01X3547Y4852D01*
G01X3540Y4856D01*
G01X3536Y4860D01*
G01X3536Y4861D01*
G01X3531Y4866D01*
G01X3528Y4872D01*
G01X3525Y4876D01*
G01X3522Y4886D01*
G01X3522Y5311D01*
G01X3525Y5321D01*
G01X3528Y5325D01*
G01X3531Y5331D01*
G01X3540Y5341D01*
G01X3547Y5344D01*
G01X3551Y5347D01*
G01X3561Y5349D01*
G01X3922Y5349D01*
G01X3933Y5347D01*
G01X3936Y5344D01*
G01X3943Y5341D01*
G01X3944Y5340D01*
G01X3950Y5336D01*
G01X3954Y5328D01*
G01X3957Y5325D01*
G01X3959Y5321D01*
G01X3960Y5316D01*
G01X3961Y5310D01*
G01X3961Y4887D01*
G01X3960Y4882D01*
G01X3960Y4881D01*
G01X3959Y4876D01*
G01X3957Y4872D01*
G01X3954Y4869D01*
G01X3950Y4861D01*
G01X3944Y4857D01*
G01X3943Y4856D01*
G01X3936Y4852D01*
G01X3933Y4850D01*
G01X3922Y4848D01*
G01X3561Y4848D01*
G37*
G36*
G01X258Y994D02*
G01X250Y994D01*
G01X244Y997D01*
G01X239Y999D01*
G01X235Y1001D01*
G01X227Y1009D01*
G01X224Y1013D01*
G01X220Y1019D01*
G01X218Y1024D01*
G01X218Y1025D01*
G01X216Y1032D01*
G01X216Y1409D01*
G01X218Y1416D01*
G01X218Y1417D01*
G01X219Y1420D01*
G01X223Y1427D01*
G01X229Y1434D01*
G01X233Y1437D01*
G01X233Y1438D01*
G01X239Y1443D01*
G01X254Y1447D01*
G01X258Y1448D01*
G01X608Y1448D01*
G01X616Y1446D01*
G01X619Y1445D01*
G01X627Y1443D01*
G01X633Y1438D01*
G01X633Y1437D01*
G01X637Y1434D01*
G01X643Y1427D01*
G01X645Y1422D01*
G01X647Y1419D01*
G01X649Y1413D01*
G01X650Y1406D01*
G01X650Y1035D01*
G01X649Y1028D01*
G01X647Y1022D01*
G01X645Y1017D01*
G01X639Y1009D01*
G01X631Y1001D01*
G01X627Y999D01*
G01X622Y997D01*
G01X616Y994D01*
G01X609Y994D01*
G01X258Y994D01*
G37*
G36*
G01X886Y994D02*
G01X880Y994D01*
G01X871Y998D01*
G01X866Y1001D01*
G01X859Y1006D01*
G01X856Y1010D01*
G01X856Y1011D01*
G01X851Y1017D01*
G01X848Y1024D01*
G01X846Y1032D01*
G01X846Y1409D01*
G01X848Y1417D01*
G01X850Y1422D01*
G01X853Y1429D01*
G01X864Y1439D01*
G01X871Y1443D01*
G01X880Y1446D01*
G01X888Y1448D01*
G01X1238Y1448D01*
G01X1246Y1446D01*
G01X1255Y1443D01*
G01X1262Y1439D01*
G01X1269Y1432D01*
G01X1273Y1427D01*
G01X1275Y1422D01*
G01X1277Y1419D01*
G01X1279Y1413D01*
G01X1280Y1409D01*
G01X1280Y1032D01*
G01X1279Y1028D01*
G01X1277Y1022D01*
G01X1275Y1017D01*
G01X1272Y1013D01*
G01X1270Y1010D01*
G01X1267Y1006D01*
G01X1260Y1001D01*
G01X1255Y998D01*
G01X1246Y994D01*
G01X1239Y994D01*
G01X886Y994D01*
G37*
G36*
G01X258Y5560D02*
G01X250Y5561D01*
G01X244Y5564D01*
G01X239Y5566D01*
G01X235Y5568D01*
G01X231Y5572D01*
G01X227Y5575D01*
G01X224Y5580D01*
G01X220Y5586D01*
G01X218Y5591D01*
G01X218Y5593D01*
G01X216Y5599D01*
G01X216Y5975D01*
G01X218Y5982D01*
G01X218Y5984D01*
G01X220Y5988D01*
G01X224Y5995D01*
G01X227Y5999D01*
G01X231Y6003D01*
G01X239Y6009D01*
G01X247Y6013D01*
G01X252Y6014D01*
G01X613Y6014D01*
G01X619Y6013D01*
G01X627Y6009D01*
G01X635Y6003D01*
G01X639Y5999D01*
G01X645Y5991D01*
G01X647Y5986D01*
G01X649Y5980D01*
G01X650Y5973D01*
G01X650Y5602D01*
G01X649Y5595D01*
G01X647Y5588D01*
G01X645Y5584D01*
G01X642Y5580D01*
G01X639Y5575D01*
G01X635Y5572D01*
G01X631Y5568D01*
G01X627Y5566D01*
G01X622Y5564D01*
G01X616Y5562D01*
G01X609Y5560D01*
G01X258Y5560D01*
G37*
G36*
G01X886Y5560D02*
G01X880Y5562D01*
G01X871Y5565D01*
G01X866Y5567D01*
G01X859Y5573D01*
G01X856Y5577D01*
G01X856Y5578D01*
G01X851Y5584D01*
G01X848Y5591D01*
G01X846Y5599D01*
G01X846Y5976D01*
G01X848Y5984D01*
G01X851Y5991D01*
G01X856Y5997D01*
G01X856Y5998D01*
G01X859Y6002D01*
G01X866Y6007D01*
G01X871Y6010D01*
G01X877Y6013D01*
G01X883Y6014D01*
G01X1243Y6014D01*
G01X1249Y6013D01*
G01X1255Y6010D01*
G01X1260Y6007D01*
G01X1267Y6002D01*
G01X1270Y5998D01*
G01X1272Y5995D01*
G01X1275Y5991D01*
G01X1277Y5986D01*
G01X1279Y5980D01*
G01X1280Y5976D01*
G01X1280Y5599D01*
G01X1279Y5595D01*
G01X1277Y5588D01*
G01X1275Y5584D01*
G01X1272Y5580D01*
G01X1270Y5577D01*
G01X1267Y5573D01*
G01X1260Y5567D01*
G01X1255Y5565D01*
G01X1246Y5562D01*
G01X1239Y5560D01*
G01X886Y5560D01*
G37*
G36*
G01X1822Y5625D02*
G01X1813Y5629D01*
G01X1805Y5633D01*
G01X1800Y5638D01*
G01X1798Y5638D01*
G01X1795Y5643D01*
G01X1791Y5649D01*
G01X1789Y5654D01*
G01X1788Y5659D01*
G01X1787Y5665D01*
G01X1787Y5910D01*
G01X1788Y5915D01*
G01X1789Y5921D01*
G01X1791Y5925D01*
G01X1795Y5932D01*
G01X1805Y5942D01*
G01X1811Y5945D01*
G01X1816Y5947D01*
G01X1822Y5949D01*
G01X1822Y5948D01*
G01X1825Y5949D01*
G01X2072Y5949D01*
G01X2082Y5947D01*
G01X2087Y5945D01*
G01X2093Y5942D01*
G01X2098Y5937D01*
G01X2098Y5936D01*
G01X2103Y5932D01*
G01X2106Y5925D01*
G01X2111Y5916D01*
G01X2111Y5659D01*
G01X2106Y5650D01*
G01X2106Y5649D01*
G01X2103Y5643D01*
G01X2093Y5633D01*
G01X2087Y5630D01*
G01X2086Y5630D01*
G01X2078Y5625D01*
G01X1822Y5625D01*
G37*
G36*
G01X2174Y5625D02*
G01X2166Y5630D01*
G01X2165Y5630D01*
G01X2156Y5636D01*
G01X2149Y5643D01*
G01X2146Y5649D01*
G01X2142Y5659D01*
G01X2141Y5665D01*
G01X2141Y5910D01*
G01X2142Y5915D01*
G01X2144Y5921D01*
G01X2146Y5925D01*
G01X2149Y5932D01*
G01X2154Y5936D01*
G01X2156Y5939D01*
G01X2165Y5945D01*
G01X2170Y5947D01*
G01X2174Y5948D01*
G01X2179Y5949D01*
G01X2427Y5949D01*
G01X2437Y5947D01*
G01X2445Y5943D01*
G01X2450Y5939D01*
G01X2455Y5934D01*
G01X2456Y5932D01*
G01X2459Y5929D01*
G01X2463Y5921D01*
G01X2464Y5915D01*
G01X2465Y5910D01*
G01X2465Y5665D01*
G01X2464Y5659D01*
G01X2463Y5654D01*
G01X2459Y5646D01*
G01X2458Y5645D01*
G01X2455Y5641D01*
G01X2450Y5636D01*
G01X2445Y5632D01*
G01X2441Y5630D01*
G01X2432Y5625D01*
G01X2174Y5625D01*
G37*
G36*
G01X1590Y1054D02*
G01X1585Y1055D01*
G01X1579Y1056D01*
G01X1575Y1058D01*
G01X1568Y1061D01*
G01X1564Y1066D01*
G01X1561Y1068D01*
G01X1557Y1074D01*
G01X1553Y1082D01*
G01X1552Y1087D01*
G01X1552Y1088D01*
G01X1551Y1093D01*
G01X1551Y1338D01*
G01X1552Y1343D01*
G01X1552Y1345D01*
G01X1553Y1349D01*
G01X1557Y1357D01*
G01X1561Y1363D01*
G01X1566Y1368D01*
G01X1570Y1370D01*
G01X1571Y1371D01*
G01X1579Y1375D01*
G01X1585Y1377D01*
G01X1590Y1378D01*
G01X1835Y1378D01*
G01X1841Y1377D01*
G01X1846Y1375D01*
G01X1854Y1371D01*
G01X1855Y1370D01*
G01X1859Y1368D01*
G01X1864Y1363D01*
G01X1868Y1357D01*
G01X1872Y1349D01*
G01X1873Y1345D01*
G01X1875Y1339D01*
G01X1875Y1092D01*
G01X1873Y1087D01*
G01X1872Y1082D01*
G01X1868Y1074D01*
G01X1864Y1068D01*
G01X1857Y1061D01*
G01X1851Y1058D01*
G01X1846Y1056D01*
G01X1841Y1055D01*
G01X1835Y1054D01*
G01X1590Y1054D01*
G37*
G36*
G01X1939Y1054D02*
G01X1934Y1056D01*
G01X1927Y1059D01*
G01X1923Y1061D01*
G01X1916Y1068D01*
G01X1911Y1074D01*
G01X1910Y1078D01*
G01X1907Y1082D01*
G01X1905Y1092D01*
G01X1905Y1339D01*
G01X1905Y1345D01*
G01X1907Y1349D01*
G01X1910Y1353D01*
G01X1911Y1357D01*
G01X1916Y1363D01*
G01X1922Y1370D01*
G01X1929Y1373D01*
G01X1934Y1376D01*
G01X1939Y1377D01*
G01X1943Y1378D01*
G01X2191Y1378D01*
G01X2196Y1376D01*
G01X2201Y1375D01*
G01X2208Y1371D01*
G01X2210Y1370D01*
G01X2211Y1369D01*
G01X2220Y1363D01*
G01X2225Y1353D01*
G01X2226Y1349D01*
G01X2229Y1344D01*
G01X2229Y1087D01*
G01X2228Y1086D01*
G01X2225Y1078D01*
G01X2224Y1077D01*
G01X2220Y1068D01*
G01X2212Y1062D01*
G01X2211Y1061D01*
G01X2201Y1056D01*
G01X2191Y1054D01*
G01X1943Y1054D01*
G01X1939Y1055D01*
G01X1939Y1054D01*
G37*
G36*
G01X5491Y2568D02*
G01X5484Y2569D01*
G01X5476Y2570D01*
G01X5467Y2573D01*
G01X5460Y2576D01*
G01X5452Y2581D01*
G01X5446Y2586D01*
G01X5440Y2592D01*
G01X5435Y2598D01*
G01X5431Y2606D01*
G01X5427Y2613D01*
G01X5424Y2621D01*
G01X5423Y2630D01*
G01X5423Y2685D01*
G01X5424Y2694D01*
G01X5427Y2702D01*
G01X5431Y2710D01*
G01X5435Y2717D01*
G01X5440Y2723D01*
G01X5446Y2729D01*
G01X5453Y2735D01*
G01X5460Y2739D01*
G01X5467Y2742D01*
G01X5476Y2745D01*
G01X5484Y2746D01*
G01X5491Y2747D01*
G01X5710Y2747D01*
G01X5717Y2746D01*
G01X5725Y2745D01*
G01X5741Y2739D01*
G01X5748Y2735D01*
G01X5755Y2729D01*
G01X5761Y2723D01*
G01X5766Y2717D01*
G01X5770Y2710D01*
G01X5774Y2702D01*
G01X5778Y2686D01*
G01X5778Y2629D01*
G01X5774Y2613D01*
G01X5770Y2606D01*
G01X5766Y2598D01*
G01X5761Y2591D01*
G01X5754Y2585D01*
G01X5749Y2581D01*
G01X5741Y2576D01*
G01X5725Y2570D01*
G01X5717Y2569D01*
G01X5710Y2568D01*
G01X5491Y2568D01*
G37*
G36*
G01X5491Y2312D02*
G01X5484Y2313D01*
G01X5476Y2314D01*
G01X5467Y2317D01*
G01X5460Y2320D01*
G01X5452Y2325D01*
G01X5446Y2330D01*
G01X5440Y2336D01*
G01X5435Y2343D01*
G01X5427Y2357D01*
G01X5424Y2365D01*
G01X5423Y2374D01*
G01X5423Y2429D01*
G01X5424Y2438D01*
G01X5427Y2446D01*
G01X5431Y2454D01*
G01X5435Y2461D01*
G01X5440Y2467D01*
G01X5446Y2473D01*
G01X5453Y2479D01*
G01X5460Y2483D01*
G01X5467Y2486D01*
G01X5476Y2489D01*
G01X5484Y2490D01*
G01X5491Y2491D01*
G01X5867Y2491D01*
G01X5883Y2489D01*
G01X5899Y2483D01*
G01X5906Y2479D01*
G01X5913Y2473D01*
G01X5923Y2461D01*
G01X5928Y2454D01*
G01X5934Y2438D01*
G01X5935Y2430D01*
G01X5936Y2423D01*
G01X5936Y2380D01*
G01X5935Y2373D01*
G01X5934Y2365D01*
G01X5931Y2357D01*
G01X5928Y2350D01*
G01X5923Y2342D01*
G01X5918Y2336D01*
G01X5912Y2330D01*
G01X5906Y2325D01*
G01X5899Y2320D01*
G01X5883Y2314D01*
G01X5874Y2313D01*
G01X5867Y2312D01*
G01X5491Y2312D01*
G37*
G36*
G01X5484Y2057D02*
G01X5476Y2058D01*
G01X5467Y2061D01*
G01X5460Y2064D01*
G01X5452Y2069D01*
G01X5446Y2074D01*
G01X5440Y2080D01*
G01X5435Y2087D01*
G01X5427Y2101D01*
G01X5424Y2109D01*
G01X5423Y2118D01*
G01X5423Y2173D01*
G01X5424Y2182D01*
G01X5427Y2190D01*
G01X5431Y2198D01*
G01X5435Y2205D01*
G01X5440Y2211D01*
G01X5446Y2217D01*
G01X5453Y2223D01*
G01X5467Y2231D01*
G01X5476Y2233D01*
G01X5484Y2234D01*
G01X5491Y2235D01*
G01X5867Y2235D01*
G01X5883Y2233D01*
G01X5891Y2231D01*
G01X5899Y2227D01*
G01X5906Y2223D01*
G01X5913Y2217D01*
G01X5923Y2205D01*
G01X5928Y2198D01*
G01X5934Y2182D01*
G01X5935Y2174D01*
G01X5936Y2167D01*
G01X5936Y2124D01*
G01X5935Y2117D01*
G01X5934Y2109D01*
G01X5931Y2101D01*
G01X5928Y2094D01*
G01X5923Y2086D01*
G01X5918Y2080D01*
G01X5912Y2074D01*
G01X5906Y2069D01*
G01X5899Y2064D01*
G01X5883Y2058D01*
G01X5874Y2057D01*
G01X5484Y2057D01*
G37*
G36*
G01X5484Y1801D02*
G01X5476Y1802D01*
G01X5467Y1805D01*
G01X5460Y1807D01*
G01X5452Y1813D01*
G01X5446Y1818D01*
G01X5440Y1823D01*
G01X5435Y1830D01*
G01X5427Y1845D01*
G01X5424Y1853D01*
G01X5423Y1862D01*
G01X5423Y1918D01*
G01X5424Y1926D01*
G01X5427Y1934D01*
G01X5431Y1942D01*
G01X5435Y1948D01*
G01X5440Y1955D01*
G01X5446Y1961D01*
G01X5452Y1967D01*
G01X5459Y1971D01*
G01X5467Y1975D01*
G01X5476Y1977D01*
G01X5484Y1979D01*
G01X5717Y1979D01*
G01X5733Y1975D01*
G01X5741Y1971D01*
G01X5749Y1966D01*
G01X5754Y1962D01*
G01X5761Y1955D01*
G01X5766Y1948D01*
G01X5770Y1942D01*
G01X5774Y1934D01*
G01X5778Y1918D01*
G01X5778Y1861D01*
G01X5774Y1845D01*
G01X5766Y1830D01*
G01X5761Y1823D01*
G01X5754Y1818D01*
G01X5749Y1813D01*
G01X5741Y1807D01*
G01X5725Y1802D01*
G01X5717Y1801D01*
G01X5484Y1801D01*
G37*
G36*
G01X5484Y1466D02*
G01X5476Y1468D01*
G01X5467Y1470D01*
G01X5453Y1478D01*
G01X5446Y1483D01*
G01X5440Y1489D01*
G01X5435Y1496D01*
G01X5431Y1503D01*
G01X5427Y1511D01*
G01X5424Y1519D01*
G01X5423Y1527D01*
G01X5423Y1583D01*
G01X5424Y1591D01*
G01X5427Y1600D01*
G01X5435Y1614D01*
G01X5440Y1621D01*
G01X5446Y1627D01*
G01X5453Y1632D01*
G01X5467Y1639D01*
G01X5476Y1642D01*
G01X5484Y1644D01*
G01X5717Y1644D01*
G01X5725Y1642D01*
G01X5734Y1639D01*
G01X5748Y1632D01*
G01X5754Y1627D01*
G01X5761Y1621D01*
G01X5766Y1614D01*
G01X5774Y1600D01*
G01X5776Y1591D01*
G01X5778Y1583D01*
G01X5778Y1527D01*
G01X5774Y1511D01*
G01X5770Y1503D01*
G01X5766Y1496D01*
G01X5761Y1489D01*
G01X5754Y1483D01*
G01X5748Y1478D01*
G01X5741Y1474D01*
G01X5733Y1470D01*
G01X5717Y1466D01*
G01X5484Y1466D01*
G37*
G36*
G01X5491Y1131D02*
G01X5484Y1132D01*
G01X5476Y1133D01*
G01X5467Y1136D01*
G01X5460Y1139D01*
G01X5452Y1144D01*
G01X5446Y1149D01*
G01X5440Y1155D01*
G01X5435Y1161D01*
G01X5431Y1169D01*
G01X5427Y1176D01*
G01X5424Y1184D01*
G01X5423Y1193D01*
G01X5423Y1248D01*
G01X5424Y1257D01*
G01X5427Y1265D01*
G01X5431Y1273D01*
G01X5435Y1280D01*
G01X5440Y1286D01*
G01X5446Y1292D01*
G01X5453Y1298D01*
G01X5460Y1302D01*
G01X5467Y1305D01*
G01X5476Y1308D01*
G01X5484Y1309D01*
G01X5491Y1310D01*
G01X5710Y1310D01*
G01X5717Y1309D01*
G01X5725Y1308D01*
G01X5741Y1302D01*
G01X5748Y1298D01*
G01X5755Y1292D01*
G01X5761Y1286D01*
G01X5766Y1280D01*
G01X5770Y1273D01*
G01X5774Y1265D01*
G01X5778Y1249D01*
G01X5778Y1192D01*
G01X5774Y1176D01*
G01X5770Y1169D01*
G01X5766Y1161D01*
G01X5761Y1154D01*
G01X5754Y1148D01*
G01X5749Y1144D01*
G01X5741Y1139D01*
G01X5725Y1133D01*
G01X5717Y1132D01*
G01X5710Y1131D01*
G01X5491Y1131D01*
G37*
G36*
G01X6633Y1131D02*
G01X6626Y1132D01*
G01X6617Y1133D01*
G01X6601Y1139D01*
G01X6594Y1144D01*
G01X6588Y1148D01*
G01X6581Y1154D01*
G01X6576Y1161D01*
G01X6572Y1169D01*
G01X6569Y1176D01*
G01X6566Y1184D01*
G01X6564Y1200D01*
G01X6564Y1241D01*
G01X6566Y1257D01*
G01X6572Y1273D01*
G01X6576Y1280D01*
G01X6594Y1298D01*
G01X6601Y1302D01*
G01X6617Y1308D01*
G01X6633Y1310D01*
G01X6852Y1310D01*
G01X6859Y1309D01*
G01X6867Y1308D01*
G01X6883Y1302D01*
G01X6890Y1298D01*
G01X6897Y1292D01*
G01X6903Y1286D01*
G01X6908Y1280D01*
G01X6912Y1273D01*
G01X6916Y1265D01*
G01X6918Y1257D01*
G01X6920Y1241D01*
G01X6920Y1200D01*
G01X6918Y1184D01*
G01X6916Y1176D01*
G01X6912Y1169D01*
G01X6908Y1161D01*
G01X6902Y1155D01*
G01X6897Y1149D01*
G01X6883Y1139D01*
G01X6867Y1133D01*
G01X6858Y1132D01*
G01X6852Y1131D01*
G01X6633Y1131D01*
G37*
G36*
G01X6625Y1466D02*
G01X6609Y1470D01*
G01X6601Y1474D01*
G01X6594Y1478D01*
G01X6588Y1483D01*
G01X6581Y1489D01*
G01X6576Y1496D01*
G01X6572Y1503D01*
G01X6566Y1519D01*
G01X6565Y1527D01*
G01X6564Y1534D01*
G01X6564Y1576D01*
G01X6565Y1583D01*
G01X6566Y1591D01*
G01X6569Y1600D01*
G01X6572Y1607D01*
G01X6576Y1614D01*
G01X6581Y1621D01*
G01X6588Y1627D01*
G01X6594Y1632D01*
G01X6601Y1636D01*
G01X6609Y1639D01*
G01X6617Y1642D01*
G01X6626Y1644D01*
G01X6858Y1644D01*
G01X6867Y1642D01*
G01X6875Y1639D01*
G01X6883Y1636D01*
G01X6890Y1632D01*
G01X6897Y1627D01*
G01X6902Y1621D01*
G01X6908Y1614D01*
G01X6916Y1600D01*
G01X6918Y1591D01*
G01X6919Y1583D01*
G01X6920Y1576D01*
G01X6920Y1534D01*
G01X6919Y1527D01*
G01X6918Y1519D01*
G01X6916Y1511D01*
G01X6912Y1503D01*
G01X6908Y1496D01*
G01X6903Y1489D01*
G01X6897Y1483D01*
G01X6890Y1478D01*
G01X6883Y1474D01*
G01X6875Y1470D01*
G01X6859Y1466D01*
G01X6625Y1466D01*
G37*
G36*
G01X6625Y1801D02*
G01X6617Y1802D01*
G01X6601Y1807D01*
G01X6594Y1813D01*
G01X6588Y1818D01*
G01X6581Y1823D01*
G01X6576Y1830D01*
G01X6572Y1838D01*
G01X6569Y1845D01*
G01X6566Y1853D01*
G01X6564Y1869D01*
G01X6564Y1911D01*
G01X6565Y1918D01*
G01X6566Y1926D01*
G01X6572Y1942D01*
G01X6576Y1948D01*
G01X6581Y1955D01*
G01X6588Y1962D01*
G01X6594Y1966D01*
G01X6601Y1971D01*
G01X6609Y1975D01*
G01X6625Y1979D01*
G01X6859Y1979D01*
G01X6875Y1975D01*
G01X6883Y1971D01*
G01X6890Y1967D01*
G01X6897Y1961D01*
G01X6902Y1955D01*
G01X6908Y1948D01*
G01X6912Y1942D01*
G01X6916Y1934D01*
G01X6918Y1926D01*
G01X6919Y1918D01*
G01X6920Y1911D01*
G01X6920Y1869D01*
G01X6918Y1853D01*
G01X6916Y1845D01*
G01X6908Y1830D01*
G01X6902Y1823D01*
G01X6897Y1818D01*
G01X6883Y1807D01*
G01X6867Y1802D01*
G01X6859Y1801D01*
G01X6625Y1801D01*
G37*
G36*
G01X6468Y2057D02*
G01X6459Y2058D01*
G01X6444Y2064D01*
G01X6436Y2069D01*
G01X6430Y2074D01*
G01X6423Y2080D01*
G01X6419Y2086D01*
G01X6415Y2094D01*
G01X6411Y2101D01*
G01X6406Y2117D01*
G01X6406Y2174D01*
G01X6411Y2190D01*
G01X6415Y2198D01*
G01X6419Y2205D01*
G01X6423Y2211D01*
G01X6430Y2217D01*
G01X6437Y2223D01*
G01X6444Y2227D01*
G01X6452Y2231D01*
G01X6459Y2233D01*
G01X6468Y2234D01*
G01X6475Y2235D01*
G01X6852Y2235D01*
G01X6859Y2234D01*
G01X6867Y2233D01*
G01X6875Y2231D01*
G01X6883Y2227D01*
G01X6890Y2223D01*
G01X6897Y2217D01*
G01X6903Y2211D01*
G01X6908Y2205D01*
G01X6912Y2198D01*
G01X6916Y2190D01*
G01X6918Y2182D01*
G01X6920Y2166D01*
G01X6920Y2125D01*
G01X6918Y2109D01*
G01X6916Y2101D01*
G01X6908Y2087D01*
G01X6902Y2080D01*
G01X6897Y2074D01*
G01X6883Y2064D01*
G01X6867Y2058D01*
G01X6858Y2057D01*
G01X6468Y2057D01*
G37*
G36*
G01X6475Y2312D02*
G01X6468Y2313D01*
G01X6459Y2314D01*
G01X6444Y2320D01*
G01X6436Y2325D01*
G01X6430Y2330D01*
G01X6423Y2336D01*
G01X6419Y2342D01*
G01X6415Y2350D01*
G01X6411Y2357D01*
G01X6406Y2373D01*
G01X6406Y2430D01*
G01X6411Y2446D01*
G01X6415Y2454D01*
G01X6419Y2461D01*
G01X6423Y2467D01*
G01X6430Y2473D01*
G01X6437Y2479D01*
G01X6444Y2483D01*
G01X6459Y2489D01*
G01X6468Y2490D01*
G01X6475Y2491D01*
G01X6852Y2491D01*
G01X6859Y2490D01*
G01X6867Y2489D01*
G01X6883Y2483D01*
G01X6890Y2479D01*
G01X6897Y2473D01*
G01X6903Y2467D01*
G01X6908Y2461D01*
G01X6912Y2454D01*
G01X6916Y2446D01*
G01X6918Y2438D01*
G01X6920Y2422D01*
G01X6920Y2381D01*
G01X6918Y2365D01*
G01X6916Y2357D01*
G01X6908Y2343D01*
G01X6902Y2336D01*
G01X6897Y2330D01*
G01X6883Y2320D01*
G01X6867Y2314D01*
G01X6858Y2313D01*
G01X6852Y2312D01*
G01X6475Y2312D01*
G37*
G36*
G01X6633Y2568D02*
G01X6626Y2569D01*
G01X6617Y2570D01*
G01X6601Y2576D01*
G01X6594Y2581D01*
G01X6588Y2585D01*
G01X6581Y2591D01*
G01X6576Y2598D01*
G01X6572Y2606D01*
G01X6569Y2613D01*
G01X6566Y2621D01*
G01X6564Y2637D01*
G01X6564Y2678D01*
G01X6566Y2694D01*
G01X6572Y2710D01*
G01X6576Y2717D01*
G01X6594Y2735D01*
G01X6601Y2739D01*
G01X6617Y2745D01*
G01X6633Y2747D01*
G01X6852Y2747D01*
G01X6859Y2746D01*
G01X6867Y2745D01*
G01X6883Y2739D01*
G01X6890Y2735D01*
G01X6897Y2729D01*
G01X6903Y2723D01*
G01X6908Y2717D01*
G01X6912Y2710D01*
G01X6916Y2702D01*
G01X6918Y2694D01*
G01X6920Y2678D01*
G01X6920Y2637D01*
G01X6918Y2621D01*
G01X6916Y2613D01*
G01X6912Y2606D01*
G01X6908Y2598D01*
G01X6902Y2592D01*
G01X6897Y2586D01*
G01X6883Y2576D01*
G01X6867Y2570D01*
G01X6858Y2569D01*
G01X6852Y2568D01*
G01X6633Y2568D01*
G37*
G36*
G01X6634Y2834D02*
G01X6619Y2838D01*
G01X6611Y2842D01*
G01X6604Y2846D01*
G01X6597Y2852D01*
G01X6591Y2858D01*
G01X6587Y2864D01*
G01X6581Y2871D01*
G01X6576Y2887D01*
G01X6575Y2895D01*
G01X6573Y2902D01*
G01X6573Y3121D01*
G01X6575Y3128D01*
G01X6576Y3137D01*
G01X6579Y3144D01*
G01X6581Y3152D01*
G01X6587Y3160D01*
G01X6591Y3166D01*
G01X6598Y3172D01*
G01X6604Y3178D01*
G01X6611Y3182D01*
G01X6627Y3188D01*
G01X6643Y3190D01*
G01X6684Y3190D01*
G01X6700Y3188D01*
G01X6706Y3185D01*
G01X6715Y3182D01*
G01X6723Y3177D01*
G01X6729Y3172D01*
G01X6734Y3166D01*
G01X6741Y3159D01*
G01X6745Y3152D01*
G01X6748Y3144D01*
G01X6751Y3137D01*
G01X6753Y3121D01*
G01X6753Y2902D01*
G01X6752Y2895D01*
G01X6751Y2887D01*
G01X6745Y2871D01*
G01X6734Y2857D01*
G01X6729Y2851D01*
G01X6723Y2846D01*
G01X6706Y2838D01*
G01X6700Y2836D01*
G01X6692Y2834D01*
G01X6634Y2834D01*
G37*
G36*
G01X6438Y2834D02*
G01X6422Y2838D01*
G01X6414Y2842D01*
G01X6406Y2846D01*
G01X6401Y2851D01*
G01X6395Y2857D01*
G01X6389Y2864D01*
G01X6385Y2871D01*
G01X6379Y2887D01*
G01X6378Y2895D01*
G01X6377Y2902D01*
G01X6377Y3121D01*
G01X6379Y3137D01*
G01X6382Y3144D01*
G01X6385Y3152D01*
G01X6389Y3159D01*
G01X6395Y3166D01*
G01X6401Y3172D01*
G01X6406Y3177D01*
G01X6414Y3182D01*
G01X6430Y3188D01*
G01X6445Y3190D01*
G01X6487Y3190D01*
G01X6503Y3188D01*
G01X6511Y3185D01*
G01X6518Y3182D01*
G01X6526Y3178D01*
G01X6531Y3172D01*
G01X6539Y3166D01*
G01X6543Y3160D01*
G01X6548Y3152D01*
G01X6551Y3144D01*
G01X6554Y3137D01*
G01X6555Y3128D01*
G01X6556Y3121D01*
G01X6556Y2902D01*
G01X6555Y2895D01*
G01X6554Y2887D01*
G01X6548Y2871D01*
G01X6543Y2864D01*
G01X6539Y2858D01*
G01X6533Y2852D01*
G01X6526Y2846D01*
G01X6518Y2842D01*
G01X6511Y2838D01*
G01X6495Y2834D01*
G01X6438Y2834D01*
G37*
G36*
G01X6241Y2677D02*
G01X6225Y2681D01*
G01X6217Y2685D01*
G01X6210Y2689D01*
G01X6204Y2694D01*
G01X6198Y2700D01*
G01X6193Y2706D01*
G01X6188Y2714D01*
G01X6185Y2722D01*
G01X6182Y2729D01*
G01X6181Y2738D01*
G01X6181Y3128D01*
G01X6182Y3137D01*
G01X6185Y3144D01*
G01X6188Y3152D01*
G01X6193Y3160D01*
G01X6198Y3166D01*
G01X6204Y3172D01*
G01X6211Y3178D01*
G01X6218Y3182D01*
G01X6225Y3185D01*
G01X6233Y3188D01*
G01X6249Y3190D01*
G01X6291Y3190D01*
G01X6298Y3189D01*
G01X6306Y3188D01*
G01X6322Y3182D01*
G01X6329Y3177D01*
G01X6335Y3172D01*
G01X6341Y3166D01*
G01X6347Y3159D01*
G01X6351Y3152D01*
G01X6355Y3144D01*
G01X6357Y3137D01*
G01X6359Y3121D01*
G01X6359Y2745D01*
G01X6357Y2729D01*
G01X6355Y2722D01*
G01X6351Y2714D01*
G01X6347Y2707D01*
G01X6341Y2700D01*
G01X6335Y2694D01*
G01X6329Y2689D01*
G01X6322Y2685D01*
G01X6314Y2681D01*
G01X6298Y2677D01*
G01X6241Y2677D01*
G37*
G36*
G01X6045Y2677D02*
G01X6029Y2681D01*
G01X6020Y2685D01*
G01X6013Y2689D01*
G01X6007Y2694D01*
G01X6001Y2700D01*
G01X5996Y2707D01*
G01X5992Y2714D01*
G01X5988Y2722D01*
G01X5986Y2729D01*
G01X5984Y2737D01*
G01X5984Y3129D01*
G01X5986Y3137D01*
G01X5988Y3144D01*
G01X5992Y3152D01*
G01X5996Y3159D01*
G01X6001Y3166D01*
G01X6007Y3172D01*
G01X6021Y3182D01*
G01X6037Y3188D01*
G01X6045Y3189D01*
G01X6052Y3190D01*
G01X6094Y3190D01*
G01X6101Y3189D01*
G01X6109Y3188D01*
G01X6125Y3182D01*
G01X6132Y3178D01*
G01X6139Y3172D01*
G01X6145Y3166D01*
G01X6150Y3160D01*
G01X6158Y3144D01*
G01X6160Y3137D01*
G01X6162Y3128D01*
G01X6162Y2738D01*
G01X6160Y2729D01*
G01X6158Y2722D01*
G01X6150Y2706D01*
G01X6145Y2700D01*
G01X6139Y2694D01*
G01X6132Y2689D01*
G01X6125Y2685D01*
G01X6117Y2681D01*
G01X6101Y2677D01*
G01X6045Y2677D01*
G37*
G36*
G01X5848Y2834D02*
G01X5832Y2838D01*
G01X5824Y2842D01*
G01X5817Y2846D01*
G01X5810Y2852D01*
G01X5804Y2858D01*
G01X5799Y2864D01*
G01X5795Y2871D01*
G01X5791Y2879D01*
G01X5787Y2895D01*
G01X5787Y3128D01*
G01X5789Y3137D01*
G01X5791Y3144D01*
G01X5799Y3160D01*
G01X5804Y3166D01*
G01X5810Y3172D01*
G01X5817Y3178D01*
G01X5824Y3182D01*
G01X5840Y3188D01*
G01X5848Y3189D01*
G01X5855Y3190D01*
G01X5897Y3190D01*
G01X5904Y3189D01*
G01X5912Y3188D01*
G01X5928Y3182D01*
G01X5935Y3177D01*
G01X5941Y3172D01*
G01X5948Y3166D01*
G01X5953Y3159D01*
G01X5957Y3152D01*
G01X5961Y3144D01*
G01X5963Y3137D01*
G01X5965Y3129D01*
G01X5965Y2895D01*
G01X5961Y2879D01*
G01X5957Y2871D01*
G01X5953Y2864D01*
G01X5948Y2857D01*
G01X5942Y2851D01*
G01X5935Y2846D01*
G01X5928Y2842D01*
G01X5920Y2838D01*
G01X5904Y2834D01*
G01X5848Y2834D01*
G37*
G36*
G01X5651Y2834D02*
G01X5635Y2838D01*
G01X5627Y2842D01*
G01X5620Y2846D01*
G01X5613Y2851D01*
G01X5607Y2857D01*
G01X5602Y2864D01*
G01X5598Y2871D01*
G01X5594Y2879D01*
G01X5590Y2895D01*
G01X5590Y3129D01*
G01X5592Y3137D01*
G01X5594Y3144D01*
G01X5598Y3152D01*
G01X5602Y3159D01*
G01X5607Y3166D01*
G01X5614Y3172D01*
G01X5620Y3177D01*
G01X5627Y3182D01*
G01X5643Y3188D01*
G01X5651Y3189D01*
G01X5658Y3190D01*
G01X5700Y3190D01*
G01X5707Y3189D01*
G01X5715Y3188D01*
G01X5724Y3185D01*
G01X5731Y3182D01*
G01X5738Y3178D01*
G01X5745Y3172D01*
G01X5751Y3166D01*
G01X5756Y3160D01*
G01X5761Y3152D01*
G01X5764Y3144D01*
G01X5766Y3137D01*
G01X5768Y3128D01*
G01X5768Y2895D01*
G01X5764Y2879D01*
G01X5761Y2871D01*
G01X5756Y2864D01*
G01X5751Y2858D01*
G01X5745Y2852D01*
G01X5738Y2846D01*
G01X5724Y2838D01*
G01X5715Y2836D01*
G01X5707Y2834D01*
G01X5651Y2834D01*
G37*
G36*
G01X5666Y1131D02*
G01X5658Y1133D01*
G01X5648Y1137D01*
G01X5642Y1140D01*
G01X5637Y1145D01*
G01X5632Y1149D01*
G01X5628Y1154D01*
G01X5625Y1159D01*
G01X5623Y1165D01*
G01X5621Y1170D01*
G01X5619Y1182D01*
G01X5619Y1929D01*
G01X5620Y1934D01*
G01X5621Y1939D01*
G01X5623Y1945D01*
G01X5625Y1951D01*
G01X5629Y1957D01*
G01X5633Y1962D01*
G01X5637Y1966D01*
G01X5642Y1970D01*
G01X5648Y1973D01*
G01X5653Y1976D01*
G01X5658Y1977D01*
G01X5664Y1979D01*
G01X5891Y1979D01*
G01X5897Y1977D01*
G01X5902Y1976D01*
G01X5907Y1973D01*
G01X5913Y1970D01*
G01X5919Y1966D01*
G01X5922Y1962D01*
G01X5927Y1957D01*
G01X5933Y1945D01*
G01X5934Y1939D01*
G01X5935Y1934D01*
G01X5936Y1929D01*
G01X5936Y1182D01*
G01X5934Y1170D01*
G01X5932Y1165D01*
G01X5930Y1159D01*
G01X5927Y1154D01*
G01X5923Y1149D01*
G01X5919Y1145D01*
G01X5913Y1140D01*
G01X5907Y1137D01*
G01X5897Y1133D01*
G01X5890Y1131D01*
G01X5666Y1131D01*
G37*
G36*
G01X6453Y1131D02*
G01X6445Y1133D01*
G01X6440Y1135D01*
G01X6434Y1137D01*
G01X6430Y1140D01*
G01X6423Y1145D01*
G01X6420Y1149D01*
G01X6416Y1154D01*
G01X6413Y1159D01*
G01X6409Y1165D01*
G01X6408Y1170D01*
G01X6406Y1176D01*
G01X6406Y1934D01*
G01X6408Y1939D01*
G01X6409Y1945D01*
G01X6412Y1951D01*
G01X6416Y1957D01*
G01X6420Y1962D01*
G01X6423Y1966D01*
G01X6430Y1970D01*
G01X6440Y1976D01*
G01X6445Y1977D01*
G01X6452Y1979D01*
G01X6678Y1979D01*
G01X6684Y1977D01*
G01X6690Y1976D01*
G01X6700Y1970D01*
G01X6706Y1966D01*
G01X6709Y1962D01*
G01X6714Y1957D01*
G01X6720Y1945D01*
G01X6720Y1939D01*
G01X6723Y1934D01*
G01X6723Y1176D01*
G01X6720Y1170D01*
G01X6720Y1165D01*
G01X6717Y1159D01*
G01X6714Y1154D01*
G01X6709Y1149D01*
G01X6706Y1145D01*
G01X6700Y1140D01*
G01X6695Y1137D01*
G01X6690Y1135D01*
G01X6684Y1133D01*
G01X6677Y1131D01*
G01X6453Y1131D01*
G37*
G36*
G01X5068Y1682D02*
G01X5060Y1685D01*
G01X5059Y1686D01*
G01X5051Y1688D01*
G01X5047Y1692D01*
G01X5045Y1693D01*
G01X5043Y1696D01*
G01X5038Y1701D01*
G01X5035Y1707D01*
G01X5032Y1712D01*
G01X5031Y1716D01*
G01X5030Y1722D01*
G01X5030Y1969D01*
G01X5031Y1973D01*
G01X5032Y1978D01*
G01X5036Y1986D01*
G01X5038Y1989D01*
G01X5041Y1993D01*
G01X5048Y2000D01*
G01X5052Y2002D01*
G01X5059Y2005D01*
G01X5068Y2007D01*
G01X5315Y2007D01*
G01X5320Y2005D01*
G01X5326Y2005D01*
G01X5336Y2000D01*
G01X5343Y1993D01*
G01X5346Y1989D01*
G01X5348Y1986D01*
G01X5350Y1982D01*
G01X5354Y1972D01*
G01X5354Y1717D01*
G01X5349Y1707D01*
G01X5346Y1701D01*
G01X5343Y1698D01*
G01X5341Y1695D01*
G01X5335Y1691D01*
G01X5330Y1687D01*
G01X5326Y1686D01*
G01X5324Y1685D01*
G01X5315Y1682D01*
G01X5068Y1682D01*
G37*
G36*
G01X5068Y1329D02*
G01X5063Y1330D01*
G01X5059Y1331D01*
G01X5052Y1335D01*
G01X5048Y1337D01*
G01X5041Y1344D01*
G01X5036Y1350D01*
G01X5035Y1353D01*
G01X5032Y1358D01*
G01X5031Y1362D01*
G01X5030Y1367D01*
G01X5030Y1614D01*
G01X5032Y1625D01*
G01X5035Y1629D01*
G01X5036Y1632D01*
G01X5041Y1638D01*
G01X5043Y1641D01*
G01X5051Y1648D01*
G01X5062Y1652D01*
G01X5068Y1653D01*
G01X5315Y1653D01*
G01X5321Y1652D01*
G01X5330Y1650D01*
G01X5335Y1646D01*
G01X5343Y1638D01*
G01X5347Y1632D01*
G01X5349Y1629D01*
G01X5354Y1620D01*
G01X5354Y1362D01*
G01X5349Y1354D01*
G01X5349Y1353D01*
G01X5343Y1344D01*
G01X5336Y1337D01*
G01X5326Y1332D01*
G01X5320Y1330D01*
G01X5315Y1329D01*
G01X5068Y1329D01*
G37*
G36*
G01X4690Y1324D02*
G01X4685Y1325D01*
G01X4679Y1327D01*
G01X4669Y1332D01*
G01X4662Y1339D01*
G01X4659Y1343D01*
G01X4657Y1346D01*
G01X4655Y1350D01*
G01X4651Y1359D01*
G01X4651Y1614D01*
G01X4655Y1623D01*
G01X4656Y1623D01*
G01X4659Y1630D01*
G01X4664Y1635D01*
G01X4664Y1636D01*
G01X4669Y1639D01*
G01X4675Y1644D01*
G01X4684Y1648D01*
G01X4940Y1648D01*
G01X4949Y1645D01*
G01X4953Y1642D01*
G01X4957Y1639D01*
G01X4960Y1638D01*
G01X4962Y1635D01*
G01X4967Y1630D01*
G01X4970Y1623D01*
G01X4973Y1620D01*
G01X4974Y1614D01*
G01X4975Y1609D01*
G01X4975Y1362D01*
G01X4974Y1357D01*
G01X4973Y1353D01*
G01X4969Y1346D01*
G01X4967Y1343D01*
G01X4964Y1339D01*
G01X4957Y1332D01*
G01X4953Y1330D01*
G01X4946Y1326D01*
G01X4942Y1325D01*
G01X4937Y1324D01*
G01X4690Y1324D01*
G37*
G36*
G01X4690Y1678D02*
G01X4685Y1680D01*
G01X4679Y1680D01*
G01X4669Y1686D01*
G01X4662Y1693D01*
G01X4657Y1698D01*
G01X4656Y1703D01*
G01X4655Y1703D01*
G01X4651Y1712D01*
G01X4651Y1969D01*
G01X4655Y1978D01*
G01X4656Y1978D01*
G01X4657Y1982D01*
G01X4662Y1988D01*
G01X4667Y1993D01*
G01X4670Y1995D01*
G01X4672Y1996D01*
G01X4679Y2000D01*
G01X4685Y2002D01*
G01X4690Y2003D01*
G01X4937Y2003D01*
G01X4940Y2002D01*
G01X4946Y2001D01*
G01X4951Y1998D01*
G01X4957Y1995D01*
G01X4964Y1988D01*
G01X4969Y1982D01*
G01X4970Y1978D01*
G01X4973Y1973D01*
G01X4974Y1970D01*
G01X4975Y1964D01*
G01X4975Y1717D01*
G01X4973Y1707D01*
G01X4970Y1703D01*
G01X4969Y1698D01*
G01X4964Y1693D01*
G01X4957Y1686D01*
G01X4953Y1684D01*
G01X4946Y1680D01*
G01X4937Y1678D01*
G01X4690Y1678D01*
G37*
G36*
G01X5330Y4306D02*
G01X5325Y4307D01*
G01X5324Y4308D01*
G01X5319Y4309D01*
G01X5311Y4313D01*
G01X5306Y4317D01*
G01X5303Y4319D01*
G01X5298Y4324D01*
G01X5295Y4331D01*
G01X5293Y4335D01*
G01X5292Y4340D01*
G01X5291Y4346D01*
G01X5291Y4591D01*
G01X5292Y4597D01*
G01X5293Y4602D01*
G01X5295Y4606D01*
G01X5298Y4613D01*
G01X5303Y4618D01*
G01X5306Y4620D01*
G01X5311Y4624D01*
G01X5319Y4628D01*
G01X5324Y4629D01*
G01X5329Y4631D01*
G01X5577Y4631D01*
G01X5582Y4629D01*
G01X5586Y4628D01*
G01X5591Y4626D01*
G01X5600Y4620D01*
G01X5605Y4615D01*
G01X5606Y4613D01*
G01X5609Y4610D01*
G01X5612Y4602D01*
G01X5614Y4597D01*
G01X5615Y4591D01*
G01X5615Y4346D01*
G01X5614Y4340D01*
G01X5612Y4335D01*
G01X5609Y4327D01*
G01X5606Y4324D01*
G01X5605Y4322D01*
G01X5600Y4317D01*
G01X5591Y4311D01*
G01X5586Y4309D01*
G01X5582Y4308D01*
G01X5580Y4307D01*
G01X5575Y4306D01*
G01X5330Y4306D01*
G37*
G36*
G01X5329Y3952D02*
G01X5320Y3954D01*
G01X5318Y3954D01*
G01X5315Y3956D01*
G01X5314Y3957D01*
G01X5306Y3961D01*
G01X5303Y3965D01*
G01X5298Y3970D01*
G01X5295Y3976D01*
G01X5293Y3981D01*
G01X5292Y3985D01*
G01X5291Y3990D01*
G01X5291Y4238D01*
G01X5292Y4243D01*
G01X5293Y4246D01*
G01X5296Y4253D01*
G01X5299Y4258D01*
G01X5301Y4261D01*
G01X5306Y4266D01*
G01X5311Y4270D01*
G01X5319Y4274D01*
G01X5329Y4276D01*
G01X5577Y4276D01*
G01X5582Y4275D01*
G01X5586Y4274D01*
G01X5591Y4272D01*
G01X5600Y4266D01*
G01X5607Y4259D01*
G01X5607Y4258D01*
G01X5608Y4257D01*
G01X5613Y4246D01*
G01X5614Y4243D01*
G01X5615Y4238D01*
G01X5615Y3990D01*
G01X5614Y3985D01*
G01X5612Y3981D01*
G01X5609Y3972D01*
G01X5607Y3971D01*
G01X5607Y3970D01*
G01X5600Y3961D01*
G01X5591Y3957D01*
G01X5590Y3956D01*
G01X5586Y3954D01*
G01X5577Y3952D01*
G01X5329Y3952D01*
G37*
G36*
G01X5703Y3952D02*
G01X5694Y3954D01*
G01X5692Y3954D01*
G01X5689Y3956D01*
G01X5688Y3957D01*
G01X5680Y3961D01*
G01X5673Y3970D01*
G01X5668Y3977D01*
G01X5666Y3985D01*
G01X5665Y3990D01*
G01X5665Y4238D01*
G01X5667Y4247D01*
G01X5668Y4254D01*
G01X5680Y4266D01*
G01X5685Y4270D01*
G01X5693Y4274D01*
G01X5703Y4276D01*
G01X5951Y4276D01*
G01X5956Y4275D01*
G01X5960Y4274D01*
G01X5965Y4272D01*
G01X5974Y4266D01*
G01X5978Y4261D01*
G01X5981Y4258D01*
G01X5984Y4253D01*
G01X5987Y4246D01*
G01X5988Y4243D01*
G01X5989Y4238D01*
G01X5989Y3990D01*
G01X5988Y3985D01*
G01X5986Y3981D01*
G01X5984Y3976D01*
G01X5981Y3970D01*
G01X5980Y3969D01*
G01X5974Y3961D01*
G01X5965Y3957D01*
G01X5964Y3956D01*
G01X5960Y3954D01*
G01X5951Y3952D01*
G01X5703Y3952D01*
G37*
G36*
G01X5704Y4306D02*
G01X5699Y4307D01*
G01X5698Y4308D01*
G01X5693Y4309D01*
G01X5685Y4313D01*
G01X5680Y4317D01*
G01X5675Y4322D01*
G01X5672Y4326D01*
G01X5668Y4331D01*
G01X5666Y4339D01*
G01X5665Y4346D01*
G01X5665Y4591D01*
G01X5667Y4601D01*
G01X5667Y4602D01*
G01X5668Y4606D01*
G01X5673Y4613D01*
G01X5680Y4620D01*
G01X5685Y4624D01*
G01X5693Y4628D01*
G01X5698Y4629D01*
G01X5703Y4631D01*
G01X5951Y4631D01*
G01X5956Y4629D01*
G01X5960Y4628D01*
G01X5965Y4626D01*
G01X5974Y4620D01*
G01X5981Y4613D01*
G01X5984Y4606D01*
G01X5986Y4602D01*
G01X5988Y4597D01*
G01X5989Y4591D01*
G01X5989Y4346D01*
G01X5988Y4340D01*
G01X5986Y4335D01*
G01X5984Y4331D01*
G01X5981Y4324D01*
G01X5974Y4317D01*
G01X5965Y4311D01*
G01X5960Y4309D01*
G01X5956Y4308D01*
G01X5954Y4307D01*
G01X5949Y4306D01*
G01X5704Y4306D01*
G37*
G36*
G01X5785Y4793D02*
G01X5777Y4794D01*
G01X5771Y4796D01*
G01X5761Y4801D01*
G01X5751Y4811D01*
G01X5748Y4816D01*
G01X5746Y4821D01*
G01X5744Y4828D01*
G01X5743Y4835D01*
G01X5743Y5401D01*
G01X5744Y5409D01*
G01X5748Y5421D01*
G01X5751Y5425D01*
G01X5761Y5435D01*
G01X5765Y5438D01*
G01X5777Y5442D01*
G01X5785Y5444D01*
G01X6154Y5444D01*
G01X6161Y5443D01*
G01X6167Y5441D01*
G01X6174Y5438D01*
G01X6178Y5435D01*
G01X6185Y5428D01*
G01X6189Y5423D01*
G01X6192Y5418D01*
G01X6195Y5409D01*
G01X6196Y5404D01*
G01X6197Y5401D01*
G01X6197Y4835D01*
G01X6196Y4832D01*
G01X6195Y4828D01*
G01X6193Y4821D01*
G01X6192Y4818D01*
G01X6189Y4813D01*
G01X6185Y4808D01*
G01X6178Y4801D01*
G01X6174Y4799D01*
G01X6167Y4796D01*
G01X6161Y4794D01*
G01X6154Y4793D01*
G01X5785Y4793D01*
G37*
G36*
G01X4997Y4793D02*
G01X4990Y4794D01*
G01X4983Y4796D01*
G01X4978Y4799D01*
G01X4974Y4801D01*
G01X4970Y4804D01*
G01X4967Y4808D01*
G01X4964Y4811D01*
G01X4958Y4821D01*
G01X4956Y4828D01*
G01X4955Y4835D01*
G01X4955Y5401D01*
G01X4956Y5409D01*
G01X4958Y5415D01*
G01X4961Y5421D01*
G01X4964Y5425D01*
G01X4967Y5428D01*
G01X4970Y5432D01*
G01X4978Y5438D01*
G01X4983Y5440D01*
G01X4997Y5444D01*
G01X5367Y5444D01*
G01X5373Y5443D01*
G01X5380Y5441D01*
G01X5386Y5438D01*
G01X5394Y5432D01*
G01X5398Y5428D01*
G01X5402Y5423D01*
G01X5404Y5418D01*
G01X5406Y5415D01*
G01X5408Y5409D01*
G01X5409Y5404D01*
G01X5409Y4832D01*
G01X5408Y4828D01*
G01X5406Y4821D01*
G01X5404Y4818D01*
G01X5402Y4813D01*
G01X5398Y4808D01*
G01X5394Y4804D01*
G01X5390Y4801D01*
G01X5380Y4796D01*
G01X5373Y4794D01*
G01X5367Y4793D01*
G01X4997Y4793D01*
G37*
G36*
G01X7114Y2563D02*
G01X7109Y2564D01*
G01X7106Y2564D01*
G01X7100Y2566D01*
G01X7090Y2571D01*
G01X7087Y2575D01*
G01X7083Y2578D01*
G01X7081Y2581D01*
G01X7076Y2588D01*
G01X7073Y2594D01*
G01X7073Y2596D01*
G01X7070Y2603D01*
G01X7070Y2978D01*
G01X7073Y2985D01*
G01X7076Y2993D01*
G01X7081Y3000D01*
G01X7083Y3003D01*
G01X7088Y3007D01*
G01X7090Y3009D01*
G01X7100Y3014D01*
G01X7106Y3016D01*
G01X7109Y3017D01*
G01X7684Y3017D01*
G01X7686Y3016D01*
G01X7693Y3014D01*
G01X7698Y3012D01*
G01X7703Y3009D01*
G01X7706Y3007D01*
G01X7711Y3003D01*
G01X7715Y2996D01*
G01X7717Y2993D01*
G01X7719Y2988D01*
G01X7720Y2982D01*
G01X7722Y2978D01*
G01X7722Y2603D01*
G01X7720Y2598D01*
G01X7717Y2588D01*
G01X7715Y2584D01*
G01X7711Y2578D01*
G01X7706Y2574D01*
G01X7703Y2572D01*
G01X7693Y2566D01*
G01X7686Y2564D01*
G01X7684Y2564D01*
G01X7680Y2563D01*
G01X7114Y2563D01*
G37*
G36*
G01X7109Y1776D02*
G01X7106Y1777D01*
G01X7100Y1779D01*
G01X7090Y1784D01*
G01X7088Y1786D01*
G01X7083Y1789D01*
G01X7081Y1793D01*
G01X7076Y1800D01*
G01X7073Y1807D01*
G01X7073Y1807D01*
G01X7070Y1814D01*
G01X7070Y2191D01*
G01X7073Y2198D01*
G01X7073Y2199D01*
G01X7076Y2206D01*
G01X7081Y2212D01*
G01X7083Y2215D01*
G01X7090Y2222D01*
G01X7100Y2227D01*
G01X7106Y2229D01*
G01X7109Y2229D01*
G01X7114Y2230D01*
G01X7680Y2230D01*
G01X7684Y2229D01*
G01X7686Y2229D01*
G01X7693Y2227D01*
G01X7698Y2224D01*
G01X7703Y2222D01*
G01X7705Y2220D01*
G01X7711Y2215D01*
G01X7715Y2209D01*
G01X7719Y2201D01*
G01X7720Y2195D01*
G01X7722Y2191D01*
G01X7722Y1814D01*
G01X7720Y1811D01*
G01X7719Y1805D01*
G01X7715Y1797D01*
G01X7711Y1789D01*
G01X7705Y1786D01*
G01X7703Y1784D01*
G01X7698Y1782D01*
G01X7693Y1779D01*
G01X7686Y1777D01*
G01X7683Y1776D01*
G01X7683Y1777D01*
G01X7680Y1776D01*
G01X7109Y1776D01*
G37*
G36*
G01X15479Y6161D02*
G01X15436Y6166D01*
G01X15394Y6177D01*
G01X15355Y6192D01*
G01X15318Y6213D01*
G01X15283Y6238D01*
G01X15252Y6267D01*
G01X15225Y6300D01*
G01X15202Y6336D01*
G01X15184Y6375D01*
G01X15171Y6415D01*
G01X15163Y6456D01*
G01X15160Y6498D01*
G01X15160Y7101D01*
G01X15163Y7143D01*
G01X15171Y7184D01*
G01X15184Y7225D01*
G01X15202Y7264D01*
G01X15225Y7300D01*
G01X15252Y7333D01*
G01X15283Y7362D01*
G01X15318Y7387D01*
G01X15355Y7408D01*
G01X15394Y7423D01*
G01X15436Y7434D01*
G01X15479Y7439D01*
G01X15521Y7439D01*
G01X15563Y7434D01*
G01X15605Y7423D01*
G01X15644Y7408D01*
G01X15682Y7387D01*
G01X15716Y7362D01*
G01X15747Y7333D01*
G01X15775Y7300D01*
G01X15797Y7264D01*
G01X15816Y7225D01*
G01X15829Y7184D01*
G01X15837Y7143D01*
G01X15840Y7101D01*
G01X15840Y6498D01*
G01X15837Y6456D01*
G01X15829Y6415D01*
G01X15816Y6375D01*
G01X15797Y6336D01*
G01X15775Y6300D01*
G01X15747Y6267D01*
G01X15716Y6238D01*
G01X15682Y6213D01*
G01X15644Y6192D01*
G01X15605Y6177D01*
G01X15563Y6166D01*
G01X15521Y6161D01*
G01X15479Y6161D01*
G37*
G36*
G01X14479Y6161D02*
G01X14436Y6166D01*
G01X14394Y6177D01*
G01X14355Y6192D01*
G01X14318Y6213D01*
G01X14283Y6238D01*
G01X14252Y6267D01*
G01X14225Y6300D01*
G01X14202Y6336D01*
G01X14184Y6375D01*
G01X14171Y6415D01*
G01X14163Y6456D01*
G01X14160Y6498D01*
G01X14160Y7101D01*
G01X14163Y7143D01*
G01X14171Y7184D01*
G01X14184Y7225D01*
G01X14202Y7264D01*
G01X14225Y7300D01*
G01X14252Y7333D01*
G01X14283Y7362D01*
G01X14318Y7387D01*
G01X14355Y7408D01*
G01X14394Y7423D01*
G01X14436Y7434D01*
G01X14479Y7439D01*
G01X14521Y7439D01*
G01X14563Y7434D01*
G01X14605Y7423D01*
G01X14644Y7408D01*
G01X14682Y7387D01*
G01X14716Y7362D01*
G01X14747Y7333D01*
G01X14775Y7300D01*
G01X14797Y7264D01*
G01X14816Y7225D01*
G01X14829Y7184D01*
G01X14837Y7143D01*
G01X14840Y7101D01*
G01X14840Y6498D01*
G01X14837Y6456D01*
G01X14829Y6415D01*
G01X14816Y6375D01*
G01X14797Y6336D01*
G01X14775Y6300D01*
G01X14747Y6267D01*
G01X14716Y6238D01*
G01X14682Y6213D01*
G01X14644Y6192D01*
G01X14605Y6177D01*
G01X14563Y6166D01*
G01X14521Y6161D01*
G01X14479Y6161D01*
G37*
G36*
G01X13479Y6161D02*
G01X13436Y6166D01*
G01X13394Y6177D01*
G01X13355Y6192D01*
G01X13318Y6213D01*
G01X13283Y6238D01*
G01X13252Y6267D01*
G01X13225Y6300D01*
G01X13202Y6336D01*
G01X13184Y6375D01*
G01X13171Y6415D01*
G01X13163Y6456D01*
G01X13160Y6498D01*
G01X13160Y7101D01*
G01X13163Y7143D01*
G01X13171Y7184D01*
G01X13184Y7225D01*
G01X13202Y7264D01*
G01X13225Y7300D01*
G01X13252Y7333D01*
G01X13283Y7362D01*
G01X13318Y7387D01*
G01X13355Y7408D01*
G01X13394Y7423D01*
G01X13436Y7434D01*
G01X13479Y7439D01*
G01X13521Y7439D01*
G01X13563Y7434D01*
G01X13605Y7423D01*
G01X13644Y7408D01*
G01X13682Y7387D01*
G01X13716Y7362D01*
G01X13747Y7333D01*
G01X13775Y7300D01*
G01X13797Y7264D01*
G01X13816Y7225D01*
G01X13829Y7184D01*
G01X13837Y7143D01*
G01X13840Y7101D01*
G01X13840Y6498D01*
G01X13837Y6456D01*
G01X13829Y6415D01*
G01X13816Y6375D01*
G01X13797Y6336D01*
G01X13775Y6300D01*
G01X13747Y6267D01*
G01X13716Y6238D01*
G01X13682Y6213D01*
G01X13644Y6192D01*
G01X13605Y6177D01*
G01X13563Y6166D01*
G01X13521Y6161D01*
G01X13479Y6161D01*
G37*
G36*
G01X12479Y6161D02*
G01X12436Y6166D01*
G01X12395Y6177D01*
G01X12355Y6192D01*
G01X12318Y6213D01*
G01X12283Y6238D01*
G01X12252Y6267D01*
G01X12225Y6300D01*
G01X12202Y6336D01*
G01X12184Y6375D01*
G01X12171Y6415D01*
G01X12163Y6456D01*
G01X12160Y6498D01*
G01X12160Y7101D01*
G01X12163Y7143D01*
G01X12171Y7184D01*
G01X12184Y7225D01*
G01X12202Y7264D01*
G01X12225Y7300D01*
G01X12252Y7333D01*
G01X12283Y7362D01*
G01X12318Y7387D01*
G01X12355Y7408D01*
G01X12395Y7423D01*
G01X12436Y7434D01*
G01X12479Y7439D01*
G01X12521Y7439D01*
G01X12564Y7434D01*
G01X12605Y7423D01*
G01X12645Y7408D01*
G01X12682Y7387D01*
G01X12717Y7362D01*
G01X12748Y7333D01*
G01X12775Y7300D01*
G01X12798Y7264D01*
G01X12816Y7225D01*
G01X12829Y7184D01*
G01X12837Y7143D01*
G01X12840Y7101D01*
G01X12840Y6498D01*
G01X12837Y6456D01*
G01X12829Y6415D01*
G01X12816Y6375D01*
G01X12798Y6336D01*
G01X12775Y6300D01*
G01X12748Y6267D01*
G01X12717Y6238D01*
G01X12682Y6213D01*
G01X12645Y6192D01*
G01X12605Y6177D01*
G01X12564Y6166D01*
G01X12521Y6161D01*
G01X12479Y6161D01*
G37*
G36*
G01X11479Y6161D02*
G01X11436Y6166D01*
G01X11395Y6177D01*
G01X11355Y6192D01*
G01X11318Y6213D01*
G01X11283Y6238D01*
G01X11252Y6267D01*
G01X11225Y6300D01*
G01X11202Y6336D01*
G01X11184Y6375D01*
G01X11171Y6415D01*
G01X11163Y6456D01*
G01X11160Y6498D01*
G01X11160Y7101D01*
G01X11163Y7143D01*
G01X11171Y7184D01*
G01X11184Y7225D01*
G01X11202Y7264D01*
G01X11225Y7300D01*
G01X11252Y7333D01*
G01X11283Y7362D01*
G01X11318Y7387D01*
G01X11355Y7408D01*
G01X11395Y7423D01*
G01X11436Y7434D01*
G01X11479Y7439D01*
G01X11521Y7439D01*
G01X11564Y7434D01*
G01X11605Y7423D01*
G01X11645Y7408D01*
G01X11682Y7387D01*
G01X11717Y7362D01*
G01X11748Y7333D01*
G01X11775Y7300D01*
G01X11798Y7264D01*
G01X11816Y7225D01*
G01X11829Y7184D01*
G01X11837Y7143D01*
G01X11840Y7101D01*
G01X11840Y6498D01*
G01X11837Y6456D01*
G01X11829Y6415D01*
G01X11816Y6375D01*
G01X11798Y6336D01*
G01X11775Y6300D01*
G01X11748Y6267D01*
G01X11717Y6238D01*
G01X11682Y6213D01*
G01X11645Y6192D01*
G01X11605Y6177D01*
G01X11564Y6166D01*
G01X11521Y6161D01*
G01X11479Y6161D01*
G37*
G36*
G01X10479Y6161D02*
G01X10436Y6166D01*
G01X10395Y6177D01*
G01X10355Y6192D01*
G01X10318Y6213D01*
G01X10283Y6238D01*
G01X10252Y6267D01*
G01X10225Y6300D01*
G01X10202Y6336D01*
G01X10184Y6375D01*
G01X10171Y6415D01*
G01X10163Y6456D01*
G01X10160Y6498D01*
G01X10160Y7101D01*
G01X10163Y7143D01*
G01X10171Y7184D01*
G01X10184Y7225D01*
G01X10202Y7264D01*
G01X10225Y7300D01*
G01X10252Y7333D01*
G01X10283Y7362D01*
G01X10318Y7387D01*
G01X10355Y7408D01*
G01X10395Y7423D01*
G01X10436Y7434D01*
G01X10479Y7439D01*
G01X10521Y7439D01*
G01X10564Y7434D01*
G01X10605Y7423D01*
G01X10645Y7408D01*
G01X10682Y7387D01*
G01X10717Y7362D01*
G01X10748Y7333D01*
G01X10775Y7300D01*
G01X10798Y7264D01*
G01X10816Y7225D01*
G01X10829Y7184D01*
G01X10837Y7143D01*
G01X10840Y7101D01*
G01X10840Y6498D01*
G01X10837Y6456D01*
G01X10829Y6415D01*
G01X10816Y6375D01*
G01X10798Y6336D01*
G01X10775Y6300D01*
G01X10748Y6267D01*
G01X10717Y6238D01*
G01X10682Y6213D01*
G01X10645Y6192D01*
G01X10605Y6177D01*
G01X10564Y6166D01*
G01X10521Y6161D01*
G01X10479Y6161D01*
G37*
G36*
G01X9479Y6161D02*
G01X9436Y6166D01*
G01X9395Y6177D01*
G01X9355Y6192D01*
G01X9318Y6213D01*
G01X9283Y6238D01*
G01X9252Y6267D01*
G01X9225Y6300D01*
G01X9202Y6336D01*
G01X9184Y6375D01*
G01X9171Y6415D01*
G01X9163Y6456D01*
G01X9160Y6498D01*
G01X9160Y7101D01*
G01X9163Y7143D01*
G01X9171Y7184D01*
G01X9184Y7225D01*
G01X9202Y7264D01*
G01X9225Y7300D01*
G01X9252Y7333D01*
G01X9283Y7362D01*
G01X9318Y7387D01*
G01X9355Y7408D01*
G01X9395Y7423D01*
G01X9436Y7434D01*
G01X9479Y7439D01*
G01X9521Y7439D01*
G01X9564Y7434D01*
G01X9605Y7423D01*
G01X9645Y7408D01*
G01X9682Y7387D01*
G01X9717Y7362D01*
G01X9748Y7333D01*
G01X9775Y7300D01*
G01X9798Y7264D01*
G01X9816Y7225D01*
G01X9829Y7184D01*
G01X9837Y7143D01*
G01X9840Y7101D01*
G01X9840Y6498D01*
G01X9837Y6456D01*
G01X9829Y6415D01*
G01X9816Y6375D01*
G01X9798Y6336D01*
G01X9775Y6300D01*
G01X9748Y6267D01*
G01X9717Y6238D01*
G01X9682Y6213D01*
G01X9645Y6192D01*
G01X9605Y6177D01*
G01X9564Y6166D01*
G01X9521Y6161D01*
G01X9479Y6161D01*
G37*
G36*
G01X8479Y6161D02*
G01X8436Y6166D01*
G01X8395Y6177D01*
G01X8355Y6192D01*
G01X8318Y6213D01*
G01X8283Y6238D01*
G01X8252Y6267D01*
G01X8225Y6300D01*
G01X8202Y6336D01*
G01X8184Y6375D01*
G01X8170Y6415D01*
G01X8163Y6456D01*
G01X8159Y6498D01*
G01X8159Y7101D01*
G01X8163Y7143D01*
G01X8170Y7184D01*
G01X8184Y7225D01*
G01X8202Y7264D01*
G01X8225Y7300D01*
G01X8252Y7333D01*
G01X8283Y7362D01*
G01X8318Y7387D01*
G01X8355Y7408D01*
G01X8395Y7423D01*
G01X8436Y7434D01*
G01X8479Y7439D01*
G01X8521Y7439D01*
G01X8564Y7434D01*
G01X8605Y7423D01*
G01X8645Y7408D01*
G01X8682Y7387D01*
G01X8717Y7362D01*
G01X8748Y7333D01*
G01X8775Y7300D01*
G01X8798Y7264D01*
G01X8816Y7225D01*
G01X8829Y7184D01*
G01X8837Y7143D01*
G01X8840Y7101D01*
G01X8840Y6498D01*
G01X8837Y6456D01*
G01X8829Y6415D01*
G01X8816Y6375D01*
G01X8798Y6336D01*
G01X8775Y6300D01*
G01X8748Y6267D01*
G01X8717Y6238D01*
G01X8682Y6213D01*
G01X8645Y6192D01*
G01X8605Y6177D01*
G01X8564Y6166D01*
G01X8521Y6161D01*
G01X8479Y6161D01*
G37*
G36*
G01X7479Y6161D02*
G01X7436Y6166D01*
G01X7395Y6177D01*
G01X7355Y6192D01*
G01X7318Y6213D01*
G01X7283Y6238D01*
G01X7252Y6267D01*
G01X7225Y6300D01*
G01X7202Y6336D01*
G01X7184Y6375D01*
G01X7170Y6415D01*
G01X7163Y6456D01*
G01X7159Y6498D01*
G01X7159Y7101D01*
G01X7163Y7143D01*
G01X7170Y7184D01*
G01X7184Y7225D01*
G01X7202Y7264D01*
G01X7225Y7300D01*
G01X7252Y7333D01*
G01X7283Y7362D01*
G01X7318Y7387D01*
G01X7355Y7408D01*
G01X7395Y7423D01*
G01X7436Y7434D01*
G01X7479Y7439D01*
G01X7520Y7439D01*
G01X7564Y7434D01*
G01X7605Y7423D01*
G01X7645Y7408D01*
G01X7681Y7387D01*
G01X7717Y7362D01*
G01X7748Y7333D01*
G01X7775Y7300D01*
G01X7798Y7264D01*
G01X7816Y7225D01*
G01X7829Y7184D01*
G01X7837Y7143D01*
G01X7840Y7101D01*
G01X7840Y6498D01*
G01X7837Y6456D01*
G01X7829Y6415D01*
G01X7816Y6375D01*
G01X7798Y6336D01*
G01X7775Y6300D01*
G01X7748Y6267D01*
G01X7717Y6238D01*
G01X7681Y6213D01*
G01X7645Y6192D01*
G01X7605Y6177D01*
G01X7564Y6166D01*
G01X7520Y6161D01*
G01X7479Y6161D01*
G37*
G36*
G01X6479Y6161D02*
G01X6436Y6166D01*
G01X6395Y6177D01*
G01X6355Y6192D01*
G01X6318Y6213D01*
G01X6283Y6238D01*
G01X6252Y6267D01*
G01X6225Y6300D01*
G01X6202Y6336D01*
G01X6184Y6375D01*
G01X6171Y6415D01*
G01X6163Y6456D01*
G01X6160Y6498D01*
G01X6160Y7101D01*
G01X6163Y7143D01*
G01X6171Y7184D01*
G01X6184Y7225D01*
G01X6202Y7264D01*
G01X6225Y7300D01*
G01X6252Y7333D01*
G01X6283Y7362D01*
G01X6318Y7387D01*
G01X6355Y7408D01*
G01X6395Y7423D01*
G01X6436Y7434D01*
G01X6479Y7439D01*
G01X6520Y7439D01*
G01X6564Y7434D01*
G01X6605Y7423D01*
G01X6645Y7408D01*
G01X6681Y7387D01*
G01X6717Y7362D01*
G01X6748Y7333D01*
G01X6775Y7300D01*
G01X6798Y7264D01*
G01X6816Y7225D01*
G01X6829Y7184D01*
G01X6837Y7143D01*
G01X6840Y7101D01*
G01X6840Y6498D01*
G01X6837Y6456D01*
G01X6829Y6415D01*
G01X6816Y6375D01*
G01X6798Y6336D01*
G01X6775Y6300D01*
G01X6748Y6267D01*
G01X6717Y6238D01*
G01X6681Y6213D01*
G01X6645Y6192D01*
G01X6605Y6177D01*
G01X6564Y6166D01*
G01X6520Y6161D01*
G01X6479Y6161D01*
G37*
G36*
G01X5479Y6161D02*
G01X5436Y6166D01*
G01X5395Y6177D01*
G01X5355Y6192D01*
G01X5318Y6213D01*
G01X5283Y6238D01*
G01X5252Y6267D01*
G01X5225Y6300D01*
G01X5202Y6336D01*
G01X5184Y6375D01*
G01X5171Y6415D01*
G01X5163Y6456D01*
G01X5160Y6498D01*
G01X5160Y7101D01*
G01X5163Y7143D01*
G01X5171Y7184D01*
G01X5184Y7225D01*
G01X5202Y7264D01*
G01X5225Y7300D01*
G01X5252Y7333D01*
G01X5283Y7362D01*
G01X5318Y7387D01*
G01X5355Y7408D01*
G01X5395Y7423D01*
G01X5436Y7434D01*
G01X5479Y7439D01*
G01X5521Y7439D01*
G01X5564Y7434D01*
G01X5605Y7423D01*
G01X5645Y7408D01*
G01X5682Y7387D01*
G01X5717Y7362D01*
G01X5748Y7333D01*
G01X5775Y7300D01*
G01X5798Y7264D01*
G01X5816Y7225D01*
G01X5829Y7184D01*
G01X5837Y7143D01*
G01X5840Y7101D01*
G01X5840Y6498D01*
G01X5837Y6456D01*
G01X5829Y6415D01*
G01X5816Y6375D01*
G01X5798Y6336D01*
G01X5775Y6300D01*
G01X5748Y6267D01*
G01X5717Y6238D01*
G01X5682Y6213D01*
G01X5645Y6192D01*
G01X5605Y6177D01*
G01X5564Y6166D01*
G01X5521Y6161D01*
G01X5479Y6161D01*
G37*
G36*
G01X4479Y6161D02*
G01X4436Y6166D01*
G01X4395Y6177D01*
G01X4355Y6192D01*
G01X4318Y6213D01*
G01X4283Y6238D01*
G01X4252Y6267D01*
G01X4225Y6300D01*
G01X4202Y6336D01*
G01X4184Y6375D01*
G01X4171Y6415D01*
G01X4163Y6456D01*
G01X4160Y6498D01*
G01X4160Y7101D01*
G01X4163Y7143D01*
G01X4171Y7184D01*
G01X4184Y7225D01*
G01X4202Y7264D01*
G01X4225Y7300D01*
G01X4252Y7333D01*
G01X4283Y7362D01*
G01X4318Y7387D01*
G01X4355Y7408D01*
G01X4395Y7423D01*
G01X4436Y7434D01*
G01X4479Y7439D01*
G01X4521Y7439D01*
G01X4564Y7434D01*
G01X4605Y7423D01*
G01X4645Y7408D01*
G01X4682Y7387D01*
G01X4717Y7362D01*
G01X4748Y7333D01*
G01X4775Y7300D01*
G01X4798Y7264D01*
G01X4816Y7225D01*
G01X4829Y7184D01*
G01X4837Y7143D01*
G01X4840Y7101D01*
G01X4840Y6498D01*
G01X4837Y6456D01*
G01X4829Y6415D01*
G01X4816Y6375D01*
G01X4798Y6336D01*
G01X4775Y6300D01*
G01X4748Y6267D01*
G01X4717Y6238D01*
G01X4682Y6213D01*
G01X4645Y6192D01*
G01X4605Y6177D01*
G01X4564Y6166D01*
G01X4521Y6161D01*
G01X4479Y6161D01*
G37*
G36*
G01X3479Y6161D02*
G01X3436Y6166D01*
G01X3395Y6177D01*
G01X3354Y6192D01*
G01X3318Y6213D01*
G01X3283Y6238D01*
G01X3252Y6267D01*
G01X3225Y6300D01*
G01X3202Y6336D01*
G01X3184Y6375D01*
G01X3171Y6415D01*
G01X3163Y6456D01*
G01X3160Y6498D01*
G01X3160Y7101D01*
G01X3163Y7143D01*
G01X3171Y7184D01*
G01X3184Y7225D01*
G01X3202Y7264D01*
G01X3225Y7300D01*
G01X3252Y7333D01*
G01X3283Y7362D01*
G01X3318Y7387D01*
G01X3354Y7408D01*
G01X3395Y7423D01*
G01X3436Y7434D01*
G01X3479Y7439D01*
G01X3521Y7439D01*
G01X3564Y7434D01*
G01X3604Y7423D01*
G01X3645Y7408D01*
G01X3682Y7387D01*
G01X3717Y7362D01*
G01X3747Y7333D01*
G01X3775Y7300D01*
G01X3797Y7264D01*
G01X3815Y7225D01*
G01X3829Y7184D01*
G01X3836Y7143D01*
G01X3840Y7101D01*
G01X3840Y6498D01*
G01X3836Y6456D01*
G01X3829Y6415D01*
G01X3815Y6375D01*
G01X3797Y6336D01*
G01X3775Y6300D01*
G01X3747Y6267D01*
G01X3717Y6238D01*
G01X3682Y6213D01*
G01X3645Y6192D01*
G01X3604Y6177D01*
G01X3564Y6166D01*
G01X3521Y6161D01*
G01X3479Y6161D01*
G37*
G36*
G01X2479Y6161D02*
G01X2436Y6166D01*
G01X2395Y6177D01*
G01X2355Y6192D01*
G01X2318Y6213D01*
G01X2283Y6238D01*
G01X2252Y6267D01*
G01X2225Y6300D01*
G01X2202Y6336D01*
G01X2184Y6375D01*
G01X2171Y6415D01*
G01X2163Y6456D01*
G01X2160Y6498D01*
G01X2160Y7101D01*
G01X2163Y7143D01*
G01X2171Y7184D01*
G01X2184Y7225D01*
G01X2202Y7264D01*
G01X2225Y7300D01*
G01X2252Y7333D01*
G01X2283Y7362D01*
G01X2318Y7387D01*
G01X2355Y7408D01*
G01X2395Y7423D01*
G01X2436Y7434D01*
G01X2479Y7439D01*
G01X2521Y7439D01*
G01X2564Y7434D01*
G01X2605Y7423D01*
G01X2645Y7408D01*
G01X2682Y7387D01*
G01X2717Y7362D01*
G01X2748Y7333D01*
G01X2775Y7300D01*
G01X2798Y7264D01*
G01X2816Y7225D01*
G01X2829Y7184D01*
G01X2837Y7143D01*
G01X2840Y7101D01*
G01X2840Y6498D01*
G01X2837Y6456D01*
G01X2829Y6415D01*
G01X2816Y6375D01*
G01X2798Y6336D01*
G01X2775Y6300D01*
G01X2748Y6267D01*
G01X2717Y6238D01*
G01X2682Y6213D01*
G01X2645Y6192D01*
G01X2605Y6177D01*
G01X2564Y6166D01*
G01X2521Y6161D01*
G01X2479Y6161D01*
G37*
G36*
G01X1479Y6161D02*
G01X1436Y6166D01*
G01X1395Y6177D01*
G01X1355Y6192D01*
G01X1318Y6213D01*
G01X1283Y6238D01*
G01X1252Y6267D01*
G01X1225Y6300D01*
G01X1202Y6336D01*
G01X1184Y6375D01*
G01X1171Y6415D01*
G01X1163Y6456D01*
G01X1160Y6498D01*
G01X1160Y7101D01*
G01X1163Y7143D01*
G01X1171Y7184D01*
G01X1184Y7225D01*
G01X1202Y7264D01*
G01X1225Y7300D01*
G01X1252Y7333D01*
G01X1283Y7362D01*
G01X1318Y7387D01*
G01X1355Y7408D01*
G01X1395Y7423D01*
G01X1436Y7434D01*
G01X1479Y7439D01*
G01X1521Y7439D01*
G01X1564Y7434D01*
G01X1605Y7423D01*
G01X1645Y7408D01*
G01X1682Y7387D01*
G01X1717Y7362D01*
G01X1748Y7333D01*
G01X1775Y7300D01*
G01X1798Y7264D01*
G01X1816Y7225D01*
G01X1829Y7184D01*
G01X1837Y7143D01*
G01X1839Y7101D01*
G01X1839Y6498D01*
G01X1837Y6456D01*
G01X1829Y6415D01*
G01X1816Y6375D01*
G01X1798Y6336D01*
G01X1775Y6300D01*
G01X1748Y6267D01*
G01X1717Y6238D01*
G01X1682Y6213D01*
G01X1645Y6192D01*
G01X1605Y6177D01*
G01X1564Y6166D01*
G01X1521Y6161D01*
G01X1479Y6161D01*
G37*
G36*
G01X15038Y3322D02*
G01X15038Y3678D01*
G01X15572Y3678D01*
G01X15572Y3322D01*
G01X15038Y3322D01*
G37*
G36*
G01X15038Y2929D02*
G01X15038Y3284D01*
G01X15572Y3284D01*
G01X15572Y2929D01*
G01X15038Y2929D01*
G37*
G36*
G01X15038Y2535D02*
G01X15038Y2890D01*
G01X15572Y2890D01*
G01X15572Y2535D01*
G01X15038Y2535D01*
G37*
G36*
G01X15038Y3715D02*
G01X15038Y4072D01*
G01X15572Y4072D01*
G01X15572Y3715D01*
G01X15038Y3715D01*
G37*
G36*
G01X15038Y4110D02*
G01X15038Y4465D01*
G01X15572Y4465D01*
G01X15572Y4110D01*
G01X15038Y4110D01*
G37*
G36*
G01X11554Y2535D02*
G01X11554Y2890D01*
G01X12087Y2890D01*
G01X12087Y2535D01*
G01X11554Y2535D01*
G37*
G36*
G01X11554Y2929D02*
G01X11554Y3284D01*
G01X12087Y3284D01*
G01X12087Y2929D01*
G01X11554Y2929D01*
G37*
G36*
G01X11554Y3322D02*
G01X11554Y3678D01*
G01X12087Y3678D01*
G01X12087Y3322D01*
G01X11554Y3322D01*
G37*
G36*
G01X11554Y4110D02*
G01X11554Y4465D01*
G01X12087Y4465D01*
G01X12087Y4110D01*
G01X11554Y4110D01*
G37*
G36*
G01X11554Y3715D02*
G01X11554Y4072D01*
G01X12087Y4072D01*
G01X12087Y3715D01*
G01X11554Y3715D01*
G37*
G36*
G01X11614Y1610D02*
G01X11614Y2142D01*
G01X11969Y2142D01*
G01X11969Y1610D01*
G01X11614Y1610D01*
G37*
G36*
G01X12007Y1610D02*
G01X12007Y2142D01*
G01X12363Y2142D01*
G01X12363Y1610D01*
G01X12007Y1610D01*
G37*
G36*
G01X12401Y1610D02*
G01X12401Y2142D01*
G01X12757Y2142D01*
G01X12757Y1610D01*
G01X12401Y1610D01*
G37*
G36*
G01X12795Y1610D02*
G01X12795Y2142D01*
G01X13150Y2142D01*
G01X13150Y1610D01*
G01X12795Y1610D01*
G37*
G36*
G01X13188Y1610D02*
G01X13188Y2142D01*
G01X13544Y2142D01*
G01X13544Y1610D01*
G01X13188Y1610D01*
G37*
G36*
G01X13582Y1610D02*
G01X13582Y2142D01*
G01X13938Y2142D01*
G01X13938Y1610D01*
G01X13582Y1610D01*
G37*
G36*
G01X13976Y1610D02*
G01X13976Y2142D01*
G01X14331Y2142D01*
G01X14331Y1610D01*
G01X13976Y1610D01*
G37*
G36*
G01X14369Y1610D02*
G01X14369Y2142D01*
G01X14725Y2142D01*
G01X14725Y1610D01*
G01X14369Y1610D01*
G37*
G36*
G01X14763Y1610D02*
G01X14763Y2142D01*
G01X15119Y2142D01*
G01X15119Y1610D01*
G01X14763Y1610D01*
G37*
G36*
G01X15157Y1610D02*
G01X15157Y2142D01*
G01X15512Y2142D01*
G01X15512Y1610D01*
G01X15157Y1610D01*
G37*
G36*
G01X11614Y4858D02*
G01X11614Y5390D01*
G01X11969Y5390D01*
G01X11969Y4858D01*
G01X11614Y4858D01*
G37*
G36*
G01X12007Y4858D02*
G01X12007Y5390D01*
G01X12363Y5390D01*
G01X12363Y4858D01*
G01X12007Y4858D01*
G37*
G36*
G01X12401Y4858D02*
G01X12401Y5390D01*
G01X12757Y5390D01*
G01X12757Y4858D01*
G01X12401Y4858D01*
G37*
G36*
G01X12795Y4858D02*
G01X12795Y5390D01*
G01X13150Y5390D01*
G01X13150Y4858D01*
G01X12795Y4858D01*
G37*
G36*
G01X13188Y4858D02*
G01X13188Y5390D01*
G01X13544Y5390D01*
G01X13544Y4858D01*
G01X13188Y4858D01*
G37*
G36*
G01X13582Y4858D02*
G01X13582Y5390D01*
G01X13938Y5390D01*
G01X13938Y4858D01*
G01X13582Y4858D01*
G37*
G36*
G01X13976Y4858D02*
G01X13976Y5390D01*
G01X14331Y5390D01*
G01X14331Y4858D01*
G01X13976Y4858D01*
G37*
G36*
G01X14369Y4858D02*
G01X14369Y5390D01*
G01X14725Y5390D01*
G01X14725Y4858D01*
G01X14369Y4858D01*
G37*
G36*
G01X14763Y4858D02*
G01X14763Y5390D01*
G01X15119Y5390D01*
G01X15119Y4858D01*
G01X14763Y4858D01*
G37*
G36*
G01X15157Y4858D02*
G01X15157Y5390D01*
G01X15512Y5390D01*
G01X15512Y4858D01*
G01X15157Y4858D01*
G37*
G36*
G01X12184Y3539D02*
G01X12184Y3894D01*
G01X12540Y3894D01*
G01X12540Y3539D01*
G01X12184Y3539D01*
G37*
G36*
G01X12184Y3972D02*
G01X12184Y4327D01*
G01X12540Y4327D01*
G01X12540Y3972D01*
G01X12184Y3972D01*
G37*
G36*
G01X12184Y4405D02*
G01X12184Y4761D01*
G01X12540Y4761D01*
G01X12540Y4405D01*
G01X12184Y4405D01*
G37*
G36*
G01X12184Y3106D02*
G01X12184Y3461D01*
G01X12540Y3461D01*
G01X12540Y3106D01*
G01X12184Y3106D01*
G37*
G36*
G01X12184Y2673D02*
G01X12184Y3028D01*
G01X12540Y3028D01*
G01X12540Y2673D01*
G01X12184Y2673D01*
G37*
G36*
G01X12184Y2240D02*
G01X12184Y2595D01*
G01X12540Y2595D01*
G01X12540Y2240D01*
G01X12184Y2240D01*
G37*
G36*
G01X12708Y3106D02*
G01X12708Y3461D01*
G01X13063Y3461D01*
G01X13063Y3106D01*
G01X12708Y3106D01*
G37*
G36*
G01X12708Y3558D02*
G01X12708Y3914D01*
G01X13063Y3914D01*
G01X13063Y3558D01*
G01X12708Y3558D01*
G37*
G36*
G01X13161Y3106D02*
G01X13161Y3461D01*
G01X13516Y3461D01*
G01X13516Y3106D01*
G01X13161Y3106D01*
G37*
G36*
G01X13161Y2653D02*
G01X13161Y3009D01*
G01X13516Y3009D01*
G01X13516Y2653D01*
G01X13161Y2653D01*
G37*
G36*
G01X13161Y3558D02*
G01X13161Y3914D01*
G01X13516Y3914D01*
G01X13516Y3558D01*
G01X13161Y3558D01*
G37*
G36*
G01X13161Y4011D02*
G01X13161Y4367D01*
G01X13516Y4367D01*
G01X13516Y4011D01*
G01X13161Y4011D01*
G37*
G36*
G01X13613Y3558D02*
G01X13613Y3914D01*
G01X13969Y3914D01*
G01X13969Y3558D01*
G01X13613Y3558D01*
G37*
G36*
G01X13613Y3106D02*
G01X13613Y3461D01*
G01X13969Y3461D01*
G01X13969Y3106D01*
G01X13613Y3106D01*
G37*
G36*
G01X14066Y3106D02*
G01X14066Y3461D01*
G01X14422Y3461D01*
G01X14422Y3106D01*
G01X14066Y3106D01*
G37*
G36*
G01X14066Y3558D02*
G01X14066Y3914D01*
G01X14422Y3914D01*
G01X14422Y3558D01*
G01X14066Y3558D01*
G37*
G36*
G01X14066Y4011D02*
G01X14066Y4367D01*
G01X14422Y4367D01*
G01X14422Y4011D01*
G01X14066Y4011D01*
G37*
G36*
G01X14066Y2653D02*
G01X14066Y3009D01*
G01X14422Y3009D01*
G01X14422Y2653D01*
G01X14066Y2653D01*
G37*
G36*
G01X12637Y2240D02*
G01X12637Y2595D01*
G01X12993Y2595D01*
G01X12993Y2240D01*
G01X12637Y2240D01*
G37*
G36*
G01X13090Y2240D02*
G01X13090Y2595D01*
G01X13446Y2595D01*
G01X13446Y2240D01*
G01X13090Y2240D01*
G37*
G36*
G01X13543Y2240D02*
G01X13543Y2595D01*
G01X13897Y2595D01*
G01X13897Y2240D01*
G01X13543Y2240D01*
G37*
G36*
G01X13994Y2240D02*
G01X13994Y2595D01*
G01X14351Y2595D01*
G01X14351Y2240D01*
G01X13994Y2240D01*
G37*
G36*
G01X14447Y2240D02*
G01X14447Y2595D01*
G01X14804Y2595D01*
G01X14804Y2240D01*
G01X14447Y2240D01*
G37*
G36*
G01X14447Y4405D02*
G01X14447Y4761D01*
G01X14804Y4761D01*
G01X14804Y4405D01*
G01X14447Y4405D01*
G37*
G36*
G01X13994Y4405D02*
G01X13994Y4761D01*
G01X14351Y4761D01*
G01X14351Y4405D01*
G01X13994Y4405D01*
G37*
G36*
G01X13543Y4405D02*
G01X13543Y4761D01*
G01X13897Y4761D01*
G01X13897Y4405D01*
G01X13543Y4405D01*
G37*
G36*
G01X13090Y4405D02*
G01X13090Y4761D01*
G01X13446Y4761D01*
G01X13446Y4405D01*
G01X13090Y4405D01*
G37*
G36*
G01X12637Y4405D02*
G01X12637Y4761D01*
G01X12993Y4761D01*
G01X12993Y4405D01*
G01X12637Y4405D01*
G37*
G36*
G01X11161Y4897D02*
G01X11161Y5253D01*
G01X11516Y5253D01*
G01X11516Y4897D01*
G01X11161Y4897D01*
G37*
G36*
G01X11161Y4503D02*
G01X11161Y4859D01*
G01X11516Y4859D01*
G01X11516Y4503D01*
G01X11161Y4503D01*
G37*
G36*
G01X11161Y4110D02*
G01X11161Y4465D01*
G01X11516Y4465D01*
G01X11516Y4110D01*
G01X11161Y4110D01*
G37*
G36*
G01X11161Y3715D02*
G01X11161Y4072D01*
G01X11516Y4072D01*
G01X11516Y3715D01*
G01X11161Y3715D01*
G37*
G36*
G01X11161Y3322D02*
G01X11161Y3678D01*
G01X11516Y3678D01*
G01X11516Y3322D01*
G01X11161Y3322D01*
G37*
G36*
G01X11161Y2929D02*
G01X11161Y3284D01*
G01X11516Y3284D01*
G01X11516Y2929D01*
G01X11161Y2929D01*
G37*
G36*
G01X11161Y2535D02*
G01X11161Y2890D01*
G01X11516Y2890D01*
G01X11516Y2535D01*
G01X11161Y2535D01*
G37*
G36*
G01X11161Y2141D02*
G01X11161Y2497D01*
G01X11516Y2497D01*
G01X11516Y2141D01*
G01X11161Y2141D01*
G37*
G36*
G01X11161Y1747D02*
G01X11161Y2103D01*
G01X11516Y2103D01*
G01X11516Y1747D01*
G01X11161Y1747D01*
G37*
G36*
G01X12524Y1028D02*
G01X12520Y1029D01*
G01X12513Y1031D01*
G01X12510Y1033D01*
G01X12505Y1035D01*
G01X12500Y1039D01*
G01X12496Y1043D01*
G01X12493Y1047D01*
G01X12491Y1051D01*
G01X12487Y1057D01*
G01X12485Y1069D01*
G01X12485Y1460D01*
G01X12486Y1466D01*
G01X12487Y1473D01*
G01X12491Y1479D01*
G01X12493Y1483D01*
G01X12503Y1493D01*
G01X12510Y1497D01*
G01X12516Y1499D01*
G01X12517Y1500D01*
G01X12524Y1502D01*
G01X12900Y1502D01*
G01X12905Y1500D01*
G01X12907Y1499D01*
G01X12913Y1497D01*
G01X12919Y1493D01*
G01X12930Y1483D01*
G01X12934Y1476D01*
G01X12936Y1470D01*
G01X12938Y1463D01*
G01X12938Y1066D01*
G01X12937Y1061D01*
G01X12936Y1060D01*
G01X12934Y1053D01*
G01X12930Y1047D01*
G01X12927Y1043D01*
G01X12922Y1039D01*
G01X12918Y1035D01*
G01X12913Y1033D01*
G01X12910Y1031D01*
G01X12903Y1029D01*
G01X12900Y1028D01*
G01X12524Y1028D01*
G37*
G36*
G01X13153Y1028D02*
G01X13144Y1031D01*
G01X13140Y1033D01*
G01X13135Y1035D01*
G01X13130Y1039D01*
G01X13126Y1043D01*
G01X13122Y1047D01*
G01X13119Y1053D01*
G01X13116Y1060D01*
G01X13116Y1061D01*
G01X13113Y1066D01*
G01X13113Y1463D01*
G01X13116Y1470D01*
G01X13119Y1476D01*
G01X13122Y1483D01*
G01X13133Y1493D01*
G01X13140Y1497D01*
G01X13146Y1499D01*
G01X13147Y1500D01*
G01X13153Y1502D01*
G01X13530Y1502D01*
G01X13535Y1500D01*
G01X13537Y1499D01*
G01X13543Y1497D01*
G01X13550Y1493D01*
G01X13560Y1483D01*
G01X13563Y1479D01*
G01X13566Y1473D01*
G01X13566Y1466D01*
G01X13569Y1460D01*
G01X13569Y1069D01*
G01X13566Y1063D01*
G01X13566Y1057D01*
G01X13563Y1051D01*
G01X13557Y1043D01*
G01X13553Y1039D01*
G01X13547Y1035D01*
G01X13543Y1033D01*
G01X13538Y1031D01*
G01X13530Y1028D01*
G01X13153Y1028D01*
G37*
G36*
G01X9882Y1162D02*
G01X9877Y1163D01*
G01X9871Y1164D01*
G01X9867Y1166D01*
G01X9861Y1170D01*
G01X9856Y1174D01*
G01X9854Y1177D01*
G01X9851Y1180D01*
G01X9849Y1184D01*
G01X9845Y1191D01*
G01X9844Y1195D01*
G01X9843Y1200D01*
G01X9843Y1447D01*
G01X9845Y1457D01*
G01X9848Y1462D01*
G01X9851Y1468D01*
G01X9861Y1478D01*
G01X9867Y1481D01*
G01X9876Y1486D01*
G01X10134Y1486D01*
G01X10142Y1481D01*
G01X10143Y1481D01*
G01X10149Y1478D01*
G01X10159Y1468D01*
G01X10162Y1462D01*
G01X10166Y1452D01*
G01X10167Y1447D01*
G01X10167Y1200D01*
G01X10166Y1195D01*
G01X10165Y1191D01*
G01X10161Y1184D01*
G01X10159Y1180D01*
G01X10156Y1177D01*
G01X10154Y1174D01*
G01X10149Y1170D01*
G01X10143Y1166D01*
G01X10139Y1164D01*
G01X10133Y1163D01*
G01X10128Y1162D01*
G01X9882Y1162D01*
G37*
G36*
G01X9882Y1516D02*
G01X9877Y1517D01*
G01X9871Y1519D01*
G01X9861Y1524D01*
G01X9854Y1531D01*
G01X9849Y1537D01*
G01X9848Y1540D01*
G01X9845Y1545D01*
G01X9844Y1549D01*
G01X9843Y1554D01*
G01X9843Y1802D01*
G01X9845Y1812D01*
G01X9848Y1816D01*
G01X9849Y1820D01*
G01X9862Y1832D01*
G01X9864Y1834D01*
G01X9871Y1838D01*
G01X9877Y1839D01*
G01X9882Y1839D01*
G01X10128Y1839D01*
G01X10133Y1839D01*
G01X10139Y1838D01*
G01X10146Y1834D01*
G01X10148Y1832D01*
G01X10148Y1832D01*
G01X10156Y1825D01*
G01X10160Y1820D01*
G01X10164Y1812D01*
G01X10166Y1807D01*
G01X10167Y1802D01*
G01X10167Y1554D01*
G01X10166Y1549D01*
G01X10164Y1545D01*
G01X10162Y1540D01*
G01X10156Y1531D01*
G01X10149Y1524D01*
G01X10139Y1519D01*
G01X10133Y1517D01*
G01X10128Y1516D01*
G01X9882Y1516D01*
G37*
G36*
G01X14108Y1142D02*
G01X14103Y1143D01*
G01X14099Y1145D01*
G01X14094Y1147D01*
G01X14085Y1153D01*
G01X14078Y1160D01*
G01X14075Y1166D01*
G01X14072Y1171D01*
G01X14071Y1175D01*
G01X14069Y1180D01*
G01X14069Y1428D01*
G01X14071Y1433D01*
G01X14072Y1438D01*
G01X14076Y1445D01*
G01X14085Y1457D01*
G01X14088Y1459D01*
G01X14094Y1463D01*
G01X14103Y1465D01*
G01X14108Y1466D01*
G01X14356Y1466D01*
G01X14362Y1465D01*
G01X14369Y1463D01*
G01X14374Y1459D01*
G01X14379Y1457D01*
G01X14382Y1453D01*
G01X14387Y1448D01*
G01X14391Y1438D01*
G01X14394Y1428D01*
G01X14394Y1180D01*
G01X14393Y1175D01*
G01X14391Y1171D01*
G01X14388Y1164D01*
G01X14386Y1161D01*
G01X14384Y1157D01*
G01X14374Y1149D01*
G01X14366Y1145D01*
G01X14361Y1143D01*
G01X14356Y1142D01*
G01X14108Y1142D01*
G37*
G36*
G01X13754Y1142D02*
G01X13749Y1143D01*
G01X13744Y1144D01*
G01X13738Y1148D01*
G01X13734Y1150D01*
G01X13727Y1157D01*
G01X13724Y1161D01*
G01X13722Y1164D01*
G01X13718Y1171D01*
G01X13716Y1175D01*
G01X13716Y1180D01*
G01X13716Y1428D01*
G01X13718Y1438D01*
G01X13721Y1442D01*
G01X13724Y1448D01*
G01X13725Y1449D01*
G01X13731Y1457D01*
G01X13733Y1458D01*
G01X13737Y1462D01*
G01X13747Y1465D01*
G01X13754Y1466D01*
G01X14002Y1466D01*
G01X14007Y1465D01*
G01X14016Y1463D01*
G01X14021Y1459D01*
G01X14033Y1447D01*
G01X14036Y1442D01*
G01X14037Y1438D01*
G01X14040Y1433D01*
G01X14040Y1177D01*
G01X14038Y1175D01*
G01X14036Y1164D01*
G01X14033Y1161D01*
G01X14031Y1157D01*
G01X14022Y1151D01*
G01X14022Y1150D01*
G01X14012Y1145D01*
G01X14007Y1143D01*
G01X14002Y1142D01*
G01X13754Y1142D01*
G37*
G36*
G01X9745Y4789D02*
G01X9741Y4791D01*
G01X9731Y4793D01*
G01X9723Y4801D01*
G01X9723Y4802D01*
G01X9718Y4807D01*
G01X9715Y4813D01*
G01X9712Y4817D01*
G01X9711Y4823D01*
G01X9710Y4828D01*
G01X9710Y5075D01*
G01X9711Y5080D01*
G01X9712Y5084D01*
G01X9716Y5091D01*
G01X9718Y5094D01*
G01X9721Y5098D01*
G01X9728Y5105D01*
G01X9732Y5107D01*
G01X9739Y5111D01*
G01X9743Y5112D01*
G01X9748Y5113D01*
G01X9996Y5113D01*
G01X10001Y5112D01*
G01X10006Y5110D01*
G01X10016Y5105D01*
G01X10017Y5104D01*
G01X10025Y5098D01*
G01X10027Y5094D01*
G01X10030Y5091D01*
G01X10033Y5081D01*
G01X10034Y5078D01*
G01X10034Y4822D01*
G01X10032Y4818D01*
G01X10031Y4813D01*
G01X10027Y4808D01*
G01X10023Y4802D01*
G01X10020Y4800D01*
G01X10019Y4799D01*
G01X10010Y4792D01*
G01X10006Y4791D01*
G01X10001Y4789D01*
G01X9745Y4789D01*
G37*
G36*
G01X9748Y5143D02*
G01X9743Y5144D01*
G01X9739Y5145D01*
G01X9732Y5149D01*
G01X9728Y5151D01*
G01X9718Y5161D01*
G01X9715Y5167D01*
G01X9712Y5171D01*
G01X9711Y5177D01*
G01X9710Y5182D01*
G01X9710Y5428D01*
G01X9711Y5433D01*
G01X9712Y5439D01*
G01X9715Y5443D01*
G01X9718Y5449D01*
G01X9728Y5459D01*
G01X9732Y5461D01*
G01X9739Y5465D01*
G01X9743Y5466D01*
G01X9749Y5467D01*
G01X9994Y5467D01*
G01X10000Y5466D01*
G01X10001Y5466D01*
G01X10006Y5465D01*
G01X10010Y5462D01*
G01X10016Y5459D01*
G01X10017Y5458D01*
G01X10023Y5454D01*
G01X10026Y5449D01*
G01X10031Y5443D01*
G01X10032Y5439D01*
G01X10034Y5434D01*
G01X10034Y5176D01*
G01X10032Y5172D01*
G01X10031Y5167D01*
G01X10026Y5162D01*
G01X10027Y5162D01*
G01X10023Y5156D01*
G01X10017Y5152D01*
G01X10016Y5151D01*
G01X10006Y5146D01*
G01X10001Y5144D01*
G01X9996Y5143D01*
G01X9748Y5143D01*
G37*
G36*
G01X10245Y4051D02*
G01X10236Y4054D01*
G01X10230Y4058D01*
G01X10225Y4063D01*
G01X10225Y4064D01*
G01X10220Y4068D01*
G01X10217Y4075D01*
G01X10214Y4079D01*
G01X10212Y4089D01*
G01X10212Y4336D01*
G01X10214Y4346D01*
G01X10217Y4351D01*
G01X10220Y4357D01*
G01X10230Y4367D01*
G01X10240Y4372D01*
G01X10246Y4374D01*
G01X10251Y4375D01*
G01X10497Y4375D01*
G01X10502Y4374D01*
G01X10508Y4372D01*
G01X10518Y4367D01*
G01X10528Y4357D01*
G01X10531Y4351D01*
G01X10534Y4346D01*
G01X10535Y4341D01*
G01X10536Y4335D01*
G01X10536Y4090D01*
G01X10535Y4085D01*
G01X10534Y4079D01*
G01X10531Y4075D01*
G01X10528Y4068D01*
G01X10523Y4064D01*
G01X10523Y4063D01*
G01X10518Y4058D01*
G01X10512Y4054D01*
G01X10503Y4051D01*
G01X10245Y4051D01*
G37*
G36*
G01X10601Y4051D02*
G01X10592Y4054D01*
G01X10588Y4056D01*
G01X10585Y4059D01*
G01X10581Y4061D01*
G01X10579Y4064D01*
G01X10574Y4068D01*
G01X10571Y4075D01*
G01X10569Y4079D01*
G01X10567Y4085D01*
G01X10566Y4090D01*
G01X10566Y4335D01*
G01X10567Y4341D01*
G01X10571Y4351D01*
G01X10574Y4357D01*
G01X10581Y4364D01*
G01X10585Y4367D01*
G01X10588Y4369D01*
G01X10596Y4373D01*
G01X10601Y4374D01*
G01X10605Y4375D01*
G01X10852Y4375D01*
G01X10857Y4373D01*
G01X10862Y4372D01*
G01X10872Y4367D01*
G01X10873Y4366D01*
G01X10879Y4361D01*
G01X10882Y4357D01*
G01X10887Y4350D01*
G01X10888Y4345D01*
G01X10890Y4341D01*
G01X10890Y4084D01*
G01X10888Y4079D01*
G01X10887Y4075D01*
G01X10882Y4068D01*
G01X10879Y4064D01*
G01X10876Y4061D01*
G01X10872Y4058D01*
G01X10866Y4054D01*
G01X10857Y4051D01*
G01X10601Y4051D01*
G37*
G36*
G01X10565Y5429D02*
G01X10555Y5431D01*
G01X10547Y5435D01*
G01X10542Y5439D01*
G01X10535Y5446D01*
G01X10532Y5452D01*
G01X10529Y5457D01*
G01X10527Y5467D01*
G01X10527Y5714D01*
G01X10528Y5720D01*
G01X10529Y5724D01*
G01X10533Y5732D01*
G01X10534Y5733D01*
G01X10535Y5735D01*
G01X10544Y5745D01*
G01X10548Y5746D01*
G01X10551Y5749D01*
G01X10557Y5750D01*
G01X10565Y5753D01*
G01X10813Y5753D01*
G01X10821Y5750D01*
G01X10827Y5749D01*
G01X10833Y5745D01*
G01X10840Y5738D01*
G01X10845Y5732D01*
G01X10846Y5728D01*
G01X10849Y5724D01*
G01X10850Y5720D01*
G01X10851Y5714D01*
G01X10851Y5467D01*
G01X10849Y5457D01*
G01X10846Y5453D01*
G01X10845Y5449D01*
G01X10840Y5443D01*
G01X10836Y5439D01*
G01X10831Y5435D01*
G01X10823Y5431D01*
G01X10813Y5429D01*
G01X10565Y5429D01*
G37*
G36*
G01X10208Y5429D02*
G01X10202Y5431D01*
G01X10194Y5434D01*
G01X10191Y5436D01*
G01X10188Y5439D01*
G01X10183Y5443D01*
G01X10179Y5449D01*
G01X10175Y5457D01*
G01X10173Y5467D01*
G01X10173Y5714D01*
G01X10174Y5720D01*
G01X10175Y5724D01*
G01X10179Y5732D01*
G01X10183Y5738D01*
G01X10190Y5745D01*
G01X10192Y5746D01*
G01X10194Y5748D01*
G01X10202Y5750D01*
G01X10203Y5751D01*
G01X10211Y5753D01*
G01X10458Y5753D01*
G01X10468Y5750D01*
G01X10472Y5749D01*
G01X10479Y5744D01*
G01X10487Y5738D01*
G01X10490Y5732D01*
G01X10493Y5728D01*
G01X10494Y5725D01*
G01X10497Y5719D01*
G01X10497Y5462D01*
G01X10494Y5457D01*
G01X10493Y5453D01*
G01X10492Y5452D01*
G01X10487Y5443D01*
G01X10484Y5441D01*
G01X10479Y5436D01*
G01X10473Y5433D01*
G01X10468Y5431D01*
G01X10464Y5430D01*
G01X10458Y5429D01*
G01X10211Y5429D01*
G01X10208Y5430D01*
G01X10208Y5429D01*
G37*
G36*
G01X10196Y4625D02*
G01X10196Y4883D01*
G01X10453Y4883D01*
G01X10453Y4625D01*
G01X10196Y4625D01*
G37*
G36*
G01X10196Y4960D02*
G01X10196Y5217D01*
G01X10453Y5217D01*
G01X10453Y4960D01*
G01X10196Y4960D01*
G37*
G36*
G01X10531Y4625D02*
G01X10531Y4883D01*
G01X10788Y4883D01*
G01X10788Y4625D01*
G01X10531Y4625D01*
G37*
G36*
G01X10531Y4960D02*
G01X10531Y5217D01*
G01X10788Y5217D01*
G01X10788Y4960D01*
G01X10531Y4960D01*
G37*
G36*
G01X7798Y5127D02*
G01X7798Y5385D01*
G01X7984Y5385D01*
G01X7984Y5127D01*
G01X7798Y5127D01*
G37*
G36*
G01X7775Y4934D02*
G01X7775Y5121D01*
G01X8031Y5121D01*
G01X8031Y4934D01*
G01X7775Y4934D01*
G37*
G36*
G01X7775Y4765D02*
G01X7775Y4951D01*
G01X8031Y4951D01*
G01X8031Y4765D01*
G01X7775Y4765D01*
G37*
G36*
G01X7775Y4596D02*
G01X7775Y4782D01*
G01X8031Y4782D01*
G01X8031Y4596D01*
G01X7775Y4596D01*
G37*
G36*
G01X7775Y4427D02*
G01X7775Y4613D01*
G01X8031Y4613D01*
G01X8031Y4427D01*
G01X7775Y4427D01*
G37*
G36*
G01X7798Y4163D02*
G01X7798Y4420D01*
G01X7984Y4420D01*
G01X7984Y4163D01*
G01X7798Y4163D01*
G37*
G36*
G01X7968Y4163D02*
G01X7968Y4420D01*
G01X8154Y4420D01*
G01X8154Y4163D01*
G01X7968Y4163D01*
G37*
G36*
G01X8137Y4163D02*
G01X8137Y4420D01*
G01X8323Y4420D01*
G01X8323Y4163D01*
G01X8137Y4163D01*
G37*
G36*
G01X8306Y4163D02*
G01X8306Y4420D01*
G01X8493Y4420D01*
G01X8493Y4163D01*
G01X8306Y4163D01*
G37*
G36*
G01X8476Y4163D02*
G01X8476Y4420D01*
G01X8662Y4420D01*
G01X8662Y4163D01*
G01X8476Y4163D01*
G37*
G36*
G01X8645Y4163D02*
G01X8645Y4420D01*
G01X8831Y4420D01*
G01X8831Y4163D01*
G01X8645Y4163D01*
G37*
G36*
G01X8814Y4163D02*
G01X8814Y4420D01*
G01X9001Y4420D01*
G01X9001Y4163D01*
G01X8814Y4163D01*
G37*
G36*
G01X8984Y4163D02*
G01X8984Y4420D01*
G01X9170Y4420D01*
G01X9170Y4163D01*
G01X8984Y4163D01*
G37*
G36*
G01X8936Y4427D02*
G01X8936Y4613D01*
G01X9194Y4613D01*
G01X9194Y4427D01*
G01X8936Y4427D01*
G37*
G36*
G01X8936Y4596D02*
G01X8936Y4782D01*
G01X9194Y4782D01*
G01X9194Y4596D01*
G01X8936Y4596D01*
G37*
G36*
G01X8936Y4765D02*
G01X8936Y4951D01*
G01X9194Y4951D01*
G01X9194Y4765D01*
G01X8936Y4765D01*
G37*
G36*
G01X8936Y4934D02*
G01X8936Y5121D01*
G01X9194Y5121D01*
G01X9194Y4934D01*
G01X8936Y4934D01*
G37*
G36*
G01X8984Y5127D02*
G01X8984Y5385D01*
G01X9170Y5385D01*
G01X9170Y5127D01*
G01X8984Y5127D01*
G37*
G36*
G01X8814Y5127D02*
G01X8814Y5385D01*
G01X9001Y5385D01*
G01X9001Y5127D01*
G01X8814Y5127D01*
G37*
G36*
G01X8645Y5127D02*
G01X8645Y5385D01*
G01X8831Y5385D01*
G01X8831Y5127D01*
G01X8645Y5127D01*
G37*
G36*
G01X8476Y5127D02*
G01X8476Y5385D01*
G01X8662Y5385D01*
G01X8662Y5127D01*
G01X8476Y5127D01*
G37*
G36*
G01X8306Y5127D02*
G01X8306Y5385D01*
G01X8493Y5385D01*
G01X8493Y5127D01*
G01X8306Y5127D01*
G37*
G36*
G01X8137Y5127D02*
G01X8137Y5385D01*
G01X8323Y5385D01*
G01X8323Y5127D01*
G01X8137Y5127D01*
G37*
G36*
G01X7968Y5127D02*
G01X7968Y5385D01*
G01X8154Y5385D01*
G01X8154Y5127D01*
G01X7968Y5127D01*
G37*
G36*
G01X7534Y5596D02*
G01X7528Y5597D01*
G01X7520Y5599D01*
G01X7513Y5605D01*
G01X7505Y5611D01*
G01X7504Y5613D01*
G01X7498Y5620D01*
G01X7497Y5628D01*
G01X7495Y5634D01*
G01X7495Y5882D01*
G01X7498Y5891D01*
G01X7498Y5895D01*
G01X7501Y5898D01*
G01X7505Y5905D01*
G01X7509Y5909D01*
G01X7513Y5912D01*
G01X7520Y5915D01*
G01X7528Y5919D01*
G01X7534Y5920D01*
G01X7781Y5920D01*
G01X7786Y5919D01*
G01X7789Y5918D01*
G01X7795Y5915D01*
G01X7801Y5912D01*
G01X7805Y5909D01*
G01X7809Y5905D01*
G01X7815Y5896D01*
G01X7817Y5891D01*
G01X7818Y5887D01*
G01X7820Y5882D01*
G01X7820Y5634D01*
G01X7818Y5629D01*
G01X7817Y5624D01*
G01X7813Y5616D01*
G01X7809Y5611D01*
G01X7797Y5599D01*
G01X7791Y5598D01*
G01X7781Y5596D01*
G01X7534Y5596D01*
G37*
G36*
G01X7889Y5596D02*
G01X7881Y5597D01*
G01X7873Y5599D01*
G01X7867Y5604D01*
G01X7867Y5605D01*
G01X7866Y5606D01*
G01X7859Y5611D01*
G01X7856Y5616D01*
G01X7852Y5624D01*
G01X7851Y5629D01*
G01X7851Y5630D01*
G01X7850Y5636D01*
G01X7850Y5880D01*
G01X7851Y5885D01*
G01X7851Y5887D01*
G01X7852Y5891D01*
G01X7854Y5896D01*
G01X7859Y5905D01*
G01X7863Y5907D01*
G01X7868Y5912D01*
G01X7878Y5917D01*
G01X7884Y5919D01*
G01X7889Y5920D01*
G01X8134Y5920D01*
G01X8140Y5919D01*
G01X8150Y5915D01*
G01X8156Y5912D01*
G01X8163Y5905D01*
G01X8169Y5896D01*
G01X8170Y5891D01*
G01X8173Y5887D01*
G01X8173Y5882D01*
G01X8173Y5634D01*
G01X8173Y5629D01*
G01X8170Y5624D01*
G01X8167Y5616D01*
G01X8163Y5611D01*
G01X8158Y5606D01*
G01X8154Y5603D01*
G01X8148Y5599D01*
G01X8141Y5597D01*
G01X8134Y5596D01*
G01X7889Y5596D01*
G37*
G36*
G01X8795Y5596D02*
G01X8788Y5597D01*
G01X8780Y5599D01*
G01X8775Y5603D01*
G01X8771Y5606D01*
G01X8766Y5611D01*
G01X8762Y5616D01*
G01X8758Y5624D01*
G01X8757Y5629D01*
G01X8755Y5634D01*
G01X8755Y5882D01*
G01X8757Y5887D01*
G01X8758Y5891D01*
G01X8760Y5896D01*
G01X8766Y5905D01*
G01X8773Y5912D01*
G01X8779Y5915D01*
G01X8789Y5919D01*
G01X8795Y5920D01*
G01X9040Y5920D01*
G01X9045Y5919D01*
G01X9051Y5917D01*
G01X9061Y5912D01*
G01X9066Y5907D01*
G01X9069Y5905D01*
G01X9075Y5896D01*
G01X9077Y5891D01*
G01X9078Y5887D01*
G01X9078Y5885D01*
G01X9079Y5880D01*
G01X9079Y5636D01*
G01X9078Y5630D01*
G01X9078Y5629D01*
G01X9077Y5624D01*
G01X9073Y5616D01*
G01X9069Y5611D01*
G01X9064Y5606D01*
G01X9060Y5603D01*
G01X9055Y5599D01*
G01X9047Y5597D01*
G01X9040Y5596D01*
G01X8795Y5596D01*
G37*
G36*
G01X8439Y5596D02*
G01X8430Y5598D01*
G01X8431Y5598D01*
G01X8425Y5599D01*
G01X8418Y5605D01*
G01X8410Y5611D01*
G01X8408Y5615D01*
G01X8404Y5620D01*
G01X8403Y5625D01*
G01X8401Y5629D01*
G01X8401Y5887D01*
G01X8403Y5891D01*
G01X8404Y5895D01*
G01X8407Y5899D01*
G01X8410Y5905D01*
G01X8418Y5911D01*
G01X8419Y5912D01*
G01X8429Y5917D01*
G01X8434Y5919D01*
G01X8439Y5920D01*
G01X8687Y5920D01*
G01X8692Y5919D01*
G01X8696Y5918D01*
G01X8703Y5914D01*
G01X8707Y5912D01*
G01X8714Y5905D01*
G01X8719Y5899D01*
G01X8720Y5896D01*
G01X8723Y5891D01*
G01X8724Y5887D01*
G01X8725Y5882D01*
G01X8725Y5634D01*
G01X8723Y5624D01*
G01X8720Y5620D01*
G01X8719Y5616D01*
G01X8711Y5608D01*
G01X8712Y5608D01*
G01X8704Y5600D01*
G01X8692Y5597D01*
G01X8687Y5596D01*
G01X8439Y5596D01*
G37*
G36*
G01X6786Y5222D02*
G01X6780Y5223D01*
G01X6777Y5224D01*
G01X6770Y5227D01*
G01X6766Y5230D01*
G01X6762Y5232D01*
G01X6754Y5242D01*
G01X6750Y5250D01*
G01X6748Y5255D01*
G01X6747Y5260D01*
G01X6747Y5508D01*
G01X6748Y5513D01*
G01X6750Y5517D01*
G01X6752Y5522D01*
G01X6758Y5531D01*
G01X6765Y5538D01*
G01X6766Y5538D01*
G01X6767Y5540D01*
G01X6777Y5544D01*
G01X6780Y5545D01*
G01X6786Y5546D01*
G01X7033Y5546D01*
G01X7038Y5545D01*
G01X7043Y5543D01*
G01X7051Y5540D01*
G01X7053Y5538D01*
G01X7062Y5531D01*
G01X7066Y5524D01*
G01X7068Y5521D01*
G01X7069Y5517D01*
G01X7072Y5508D01*
G01X7072Y5260D01*
G01X7070Y5254D01*
G01X7068Y5246D01*
G01X7063Y5239D01*
G01X7062Y5237D01*
G01X7058Y5234D01*
G01X7054Y5230D01*
G01X7047Y5226D01*
G01X7043Y5224D01*
G01X7033Y5222D01*
G01X6786Y5222D01*
G37*
G36*
G01X7140Y5222D02*
G01X7130Y5224D01*
G01X7126Y5226D01*
G01X7120Y5230D01*
G01X7119Y5231D01*
G01X7111Y5237D01*
G01X7109Y5239D01*
G01X7105Y5246D01*
G01X7103Y5254D01*
G01X7102Y5260D01*
G01X7102Y5508D01*
G01X7104Y5517D01*
G01X7105Y5521D01*
G01X7109Y5528D01*
G01X7111Y5531D01*
G01X7120Y5538D01*
G01X7123Y5540D01*
G01X7130Y5543D01*
G01X7134Y5545D01*
G01X7140Y5546D01*
G01X7388Y5546D01*
G01X7393Y5545D01*
G01X7395Y5544D01*
G01X7406Y5540D01*
G01X7406Y5538D01*
G01X7408Y5538D01*
G01X7415Y5531D01*
G01X7420Y5522D01*
G01X7423Y5517D01*
G01X7425Y5513D01*
G01X7426Y5508D01*
G01X7426Y5260D01*
G01X7425Y5255D01*
G01X7423Y5250D01*
G01X7419Y5242D01*
G01X7411Y5232D01*
G01X7406Y5230D01*
G01X7403Y5227D01*
G01X7395Y5224D01*
G01X7393Y5223D01*
G01X7388Y5222D01*
G01X7140Y5222D01*
G37*
G36*
G01X6383Y5035D02*
G01X6378Y5036D01*
G01X6372Y5037D01*
G01X6368Y5039D01*
G01X6362Y5043D01*
G01X6357Y5047D01*
G01X6355Y5050D01*
G01X6350Y5055D01*
G01X6349Y5059D01*
G01X6346Y5063D01*
G01X6345Y5068D01*
G01X6345Y5069D01*
G01X6344Y5075D01*
G01X6344Y5319D01*
G01X6345Y5324D01*
G01X6345Y5326D01*
G01X6346Y5330D01*
G01X6349Y5335D01*
G01X6350Y5338D01*
G01X6355Y5344D01*
G01X6361Y5350D01*
G01X6368Y5355D01*
G01X6372Y5356D01*
G01X6374Y5357D01*
G01X6383Y5359D01*
G01X6629Y5359D01*
G01X6638Y5357D01*
G01X6640Y5356D01*
G01X6644Y5355D01*
G01X6648Y5351D01*
G01X6652Y5349D01*
G01X6656Y5344D01*
G01X6663Y5335D01*
G01X6665Y5330D01*
G01X6667Y5326D01*
G01X6668Y5321D01*
G01X6668Y5073D01*
G01X6667Y5068D01*
G01X6665Y5063D01*
G01X6661Y5055D01*
G01X6656Y5050D01*
G01X6655Y5047D01*
G01X6650Y5043D01*
G01X6644Y5039D01*
G01X6640Y5037D01*
G01X6634Y5036D01*
G01X6629Y5035D01*
G01X6383Y5035D01*
G37*
G36*
G01X6383Y4681D02*
G01X6378Y4682D01*
G01X6372Y4683D01*
G01X6362Y4688D01*
G01X6352Y4698D01*
G01X6349Y4705D01*
G01X6346Y4709D01*
G01X6344Y4719D01*
G01X6344Y4966D01*
G01X6346Y4976D01*
G01X6349Y4980D01*
G01X6352Y4987D01*
G01X6362Y4997D01*
G01X6368Y5000D01*
G01X6377Y5005D01*
G01X6634Y5005D01*
G01X6643Y5000D01*
G01X6644Y5000D01*
G01X6650Y4997D01*
G01X6659Y4987D01*
G01X6663Y4980D01*
G01X6665Y4976D01*
G01X6667Y4971D01*
G01X6668Y4965D01*
G01X6668Y4720D01*
G01X6667Y4714D01*
G01X6665Y4709D01*
G01X6663Y4705D01*
G01X6659Y4698D01*
G01X6650Y4688D01*
G01X6640Y4683D01*
G01X6634Y4682D01*
G01X6629Y4681D01*
G01X6383Y4681D01*
G37*
G36*
G01X8759Y1555D02*
G01X8759Y1732D01*
G01X8948Y1732D01*
G01X8948Y1555D01*
G01X8759Y1555D01*
G37*
G36*
G01X8759Y1751D02*
G01X8759Y1930D01*
G01X8948Y1930D01*
G01X8948Y1751D01*
G01X8759Y1751D01*
G37*
G36*
G01X9360Y1555D02*
G01X9360Y1732D01*
G01X9548Y1732D01*
G01X9548Y1555D01*
G01X9360Y1555D01*
G37*
G36*
G01X9360Y1751D02*
G01X9360Y1930D01*
G01X9548Y1930D01*
G01X9548Y1751D01*
G01X9360Y1751D01*
G37*
G36*
G01X8868Y1948D02*
G01X8868Y2137D01*
G01X9046Y2137D01*
G01X9046Y1948D01*
G01X8868Y1948D01*
G37*
G36*
G01X9064Y1948D02*
G01X9064Y2137D01*
G01X9243Y2137D01*
G01X9243Y1948D01*
G01X9064Y1948D01*
G37*
G36*
G01X9261Y1948D02*
G01X9261Y2137D01*
G01X9440Y2137D01*
G01X9440Y1948D01*
G01X9261Y1948D01*
G37*
G36*
G01X9064Y1348D02*
G01X9064Y1536D01*
G01X9243Y1536D01*
G01X9243Y1348D01*
G01X9064Y1348D01*
G37*
G36*
G01X8868Y1348D02*
G01X8868Y1536D01*
G01X9046Y1536D01*
G01X9046Y1348D01*
G01X8868Y1348D01*
G37*
G36*
G01X9261Y1348D02*
G01X9261Y1536D01*
G01X9440Y1536D01*
G01X9440Y1348D01*
G01X9261Y1348D01*
G37*
G36*
G01X7967Y1914D02*
G01X7956Y1917D01*
G01X7951Y1918D01*
G01X7947Y1922D01*
G01X7943Y1923D01*
G01X7937Y1932D01*
G01X7936Y1932D01*
G01X7931Y1943D01*
G01X7929Y1953D01*
G01X7929Y2201D01*
G01X7930Y2204D01*
G01X7929Y2204D01*
G01X7931Y2210D01*
G01X7934Y2217D01*
G01X7936Y2220D01*
G01X7939Y2224D01*
G01X7943Y2228D01*
G01X7947Y2231D01*
G01X7952Y2234D01*
G01X7959Y2237D01*
G01X7962Y2238D01*
G01X7967Y2239D01*
G01X8214Y2239D01*
G01X8220Y2238D01*
G01X8228Y2234D01*
G01X8235Y2231D01*
G01X8238Y2228D01*
G01X8243Y2224D01*
G01X8245Y2220D01*
G01X8248Y2217D01*
G01X8250Y2210D01*
G01X8251Y2208D01*
G01X8253Y2201D01*
G01X8253Y1953D01*
G01X8251Y1947D01*
G01X8249Y1939D01*
G01X8244Y1932D01*
G01X8235Y1923D01*
G01X8228Y1918D01*
G01X8220Y1916D01*
G01X8214Y1914D01*
G01X7967Y1914D01*
G37*
G36*
G01X8321Y1914D02*
G01X8315Y1916D01*
G01X8307Y1918D01*
G01X8300Y1923D01*
G01X8300Y1923D01*
G01X8292Y1932D01*
G01X8291Y1932D01*
G01X8286Y1939D01*
G01X8284Y1947D01*
G01X8283Y1953D01*
G01X8283Y2201D01*
G01X8285Y2208D01*
G01X8287Y2217D01*
G01X8290Y2220D01*
G01X8292Y2224D01*
G01X8300Y2230D01*
G01X8301Y2231D01*
G01X8311Y2236D01*
G01X8316Y2238D01*
G01X8321Y2239D01*
G01X8569Y2239D01*
G01X8574Y2238D01*
G01X8577Y2237D01*
G01X8584Y2234D01*
G01X8592Y2228D01*
G01X8596Y2224D01*
G01X8599Y2220D01*
G01X8601Y2217D01*
G01X8605Y2210D01*
G01X8606Y2206D01*
G01X8607Y2201D01*
G01X8607Y1953D01*
G01X8606Y1948D01*
G01X8604Y1943D01*
G01X8599Y1932D01*
G01X8598Y1932D01*
G01X8592Y1923D01*
G01X8590Y1923D01*
G01X8585Y1918D01*
G01X8577Y1917D01*
G01X8569Y1914D01*
G01X8321Y1914D01*
G37*
G36*
G01X7967Y2308D02*
G01X7951Y2312D01*
G01X7947Y2316D01*
G01X7943Y2318D01*
G01X7941Y2321D01*
G01X7936Y2326D01*
G01X7933Y2333D01*
G01X7931Y2337D01*
G01X7930Y2341D01*
G01X7929Y2347D01*
G01X7929Y2594D01*
G01X7930Y2598D01*
G01X7929Y2598D01*
G01X7931Y2603D01*
G01X7934Y2611D01*
G01X7936Y2614D01*
G01X7939Y2618D01*
G01X7943Y2622D01*
G01X7947Y2625D01*
G01X7952Y2628D01*
G01X7959Y2630D01*
G01X7962Y2631D01*
G01X7967Y2633D01*
G01X8214Y2633D01*
G01X8220Y2631D01*
G01X8224Y2630D01*
G01X8228Y2628D01*
G01X8235Y2625D01*
G01X8238Y2622D01*
G01X8243Y2618D01*
G01X8245Y2614D01*
G01X8248Y2611D01*
G01X8250Y2603D01*
G01X8251Y2602D01*
G01X8253Y2594D01*
G01X8253Y2347D01*
G01X8251Y2341D01*
G01X8249Y2333D01*
G01X8244Y2326D01*
G01X8243Y2324D01*
G01X8237Y2318D01*
G01X8235Y2317D01*
G01X8228Y2312D01*
G01X8224Y2311D01*
G01X8214Y2308D01*
G01X7967Y2308D01*
G37*
G36*
G01X8321Y2308D02*
G01X8315Y2310D01*
G01X8307Y2312D01*
G01X8300Y2317D01*
G01X8293Y2324D01*
G01X8290Y2328D01*
G01X8286Y2333D01*
G01X8284Y2341D01*
G01X8283Y2347D01*
G01X8283Y2594D01*
G01X8284Y2600D01*
G01X8287Y2611D01*
G01X8290Y2614D01*
G01X8292Y2618D01*
G01X8300Y2624D01*
G01X8301Y2625D01*
G01X8311Y2630D01*
G01X8316Y2631D01*
G01X8321Y2633D01*
G01X8569Y2633D01*
G01X8574Y2631D01*
G01X8577Y2630D01*
G01X8584Y2628D01*
G01X8592Y2622D01*
G01X8596Y2618D01*
G01X8599Y2614D01*
G01X8601Y2611D01*
G01X8605Y2603D01*
G01X8606Y2599D01*
G01X8607Y2594D01*
G01X8607Y2347D01*
G01X8606Y2341D01*
G01X8602Y2333D01*
G01X8599Y2326D01*
G01X8594Y2321D01*
G01X8592Y2318D01*
G01X8590Y2317D01*
G01X8585Y2312D01*
G01X8572Y2309D01*
G01X8569Y2308D01*
G01X8321Y2308D01*
G37*
G36*
G01X9704Y3454D02*
G01X9704Y3711D01*
G01X10158Y3711D01*
G01X10158Y3454D01*
G01X9704Y3454D01*
G37*
G36*
G01X9704Y3119D02*
G01X9704Y3377D01*
G01X10158Y3377D01*
G01X10158Y3119D01*
G01X9704Y3119D01*
G37*
G36*
G01X10236Y3119D02*
G01X10236Y3377D01*
G01X10690Y3377D01*
G01X10690Y3119D01*
G01X10236Y3119D01*
G37*
G36*
G01X10236Y3454D02*
G01X10236Y3711D01*
G01X10690Y3711D01*
G01X10690Y3454D01*
G01X10236Y3454D01*
G37*
G36*
G01X10039Y2844D02*
G01X10039Y3003D01*
G01X10355Y3003D01*
G01X10355Y2844D01*
G01X10039Y2844D01*
G37*
G36*
G01X10039Y3828D02*
G01X10039Y3986D01*
G01X10355Y3986D01*
G01X10355Y3828D01*
G01X10039Y3828D01*
G37*
G36*
G01X10767Y3257D02*
G01X10767Y3574D01*
G01X10926Y3574D01*
G01X10926Y3257D01*
G01X10767Y3257D01*
G37*
G36*
G01X9468Y3257D02*
G01X9468Y3574D01*
G01X9627Y3574D01*
G01X9627Y3257D01*
G01X9468Y3257D01*
G37*
G36*
G01X6338Y4438D02*
G01X6338Y4636D01*
G01X6556Y4636D01*
G01X6556Y4438D01*
G01X6338Y4438D01*
G37*
G36*
G01X6338Y3847D02*
G01X6338Y4046D01*
G01X6556Y4046D01*
G01X6556Y3847D01*
G01X6338Y3847D01*
G37*
G36*
G01X6053Y4330D02*
G01X6053Y4548D01*
G01X6251Y4548D01*
G01X6251Y4330D01*
G01X6053Y4330D01*
G37*
G36*
G01X6053Y3936D02*
G01X6053Y4154D01*
G01X6251Y4154D01*
G01X6251Y3936D01*
G01X6053Y3936D01*
G37*
G36*
G01X6643Y4330D02*
G01X6643Y4548D01*
G01X6841Y4548D01*
G01X6841Y4330D01*
G01X6643Y4330D01*
G37*
G36*
G01X6643Y3936D02*
G01X6643Y4154D01*
G01X6841Y4154D01*
G01X6841Y3936D01*
G01X6643Y3936D01*
G37*
G36*
G01X8582Y3640D02*
G01X8582Y3957D01*
G01X8946Y3957D01*
G01X8946Y3640D01*
G01X8582Y3640D01*
G37*
G36*
G01X8964Y3640D02*
G01X8964Y3957D01*
G01X9327Y3957D01*
G01X9327Y3640D01*
G01X8964Y3640D01*
G37*
G36*
G01X8200Y3640D02*
G01X8200Y3957D01*
G01X8564Y3957D01*
G01X8564Y3640D01*
G01X8200Y3640D01*
G37*
G36*
G01X7818Y3640D02*
G01X7818Y3957D01*
G01X8181Y3957D01*
G01X8181Y3640D01*
G01X7818Y3640D01*
G37*
G36*
G01X7818Y3090D02*
G01X7818Y3406D01*
G01X8181Y3406D01*
G01X8181Y3090D01*
G01X7818Y3090D01*
G37*
G36*
G01X8200Y3090D02*
G01X8200Y3406D01*
G01X8564Y3406D01*
G01X8564Y3090D01*
G01X8200Y3090D01*
G37*
G36*
G01X8582Y3090D02*
G01X8582Y3406D01*
G01X8946Y3406D01*
G01X8946Y3090D01*
G01X8582Y3090D01*
G37*
G36*
G01X8964Y3090D02*
G01X8964Y3406D01*
G01X9327Y3406D01*
G01X9327Y3090D01*
G01X8964Y3090D01*
G37*
G36*
G01X7317Y3224D02*
G01X7312Y3225D01*
G01X7308Y3226D01*
G01X7301Y3229D01*
G01X7297Y3232D01*
G01X7294Y3234D01*
G01X7290Y3239D01*
G01X7287Y3242D01*
G01X7284Y3246D01*
G01X7281Y3253D01*
G01X7280Y3257D01*
G01X7279Y3261D01*
G01X7279Y3509D01*
G01X7281Y3519D01*
G01X7284Y3524D01*
G01X7287Y3529D01*
G01X7297Y3540D01*
G01X7305Y3544D01*
G01X7314Y3547D01*
G01X7570Y3547D01*
G01X7578Y3543D01*
G01X7579Y3543D01*
G01X7584Y3540D01*
G01X7586Y3539D01*
G01X7592Y3534D01*
G01X7595Y3528D01*
G01X7598Y3522D01*
G01X7601Y3519D01*
G01X7601Y3518D01*
G01X7603Y3509D01*
G01X7603Y3261D01*
G01X7602Y3256D01*
G01X7598Y3245D01*
G01X7595Y3240D01*
G01X7594Y3239D01*
G01X7586Y3233D01*
G01X7584Y3232D01*
G01X7579Y3228D01*
G01X7575Y3226D01*
G01X7565Y3224D01*
G01X7317Y3224D01*
G37*
G36*
G01X6964Y3224D02*
G01X6959Y3225D01*
G01X6953Y3226D01*
G01X6948Y3228D01*
G01X6942Y3232D01*
G01X6934Y3239D01*
G01X6933Y3242D01*
G01X6930Y3246D01*
G01X6927Y3253D01*
G01X6925Y3259D01*
G01X6926Y3259D01*
G01X6925Y3261D01*
G01X6925Y3509D01*
G01X6927Y3519D01*
G01X6929Y3524D01*
G01X6931Y3529D01*
G01X6937Y3535D01*
G01X6938Y3535D01*
G01X6942Y3540D01*
G01X6948Y3543D01*
G01X6958Y3547D01*
G01X7215Y3547D01*
G01X7223Y3543D01*
G01X7225Y3543D01*
G01X7231Y3540D01*
G01X7241Y3529D01*
G01X7244Y3524D01*
G01X7248Y3514D01*
G01X7248Y3509D01*
G01X7248Y3261D01*
G01X7248Y3259D01*
G01X7247Y3253D01*
G01X7243Y3246D01*
G01X7241Y3242D01*
G01X7238Y3239D01*
G01X7236Y3236D01*
G01X7231Y3232D01*
G01X7225Y3228D01*
G01X7220Y3226D01*
G01X7215Y3225D01*
G01X7209Y3224D01*
G01X6964Y3224D01*
G37*
G36*
G01X6176Y3490D02*
G01X6167Y3490D01*
G01X6165Y3492D01*
G01X6162Y3493D01*
G01X6155Y3497D01*
G01X6151Y3501D01*
G01X6148Y3504D01*
G01X6145Y3507D01*
G01X6142Y3514D01*
G01X6140Y3518D01*
G01X6138Y3522D01*
G01X6137Y3528D01*
G01X6137Y3775D01*
G01X6138Y3781D01*
G01X6139Y3784D01*
G01X6143Y3792D01*
G01X6145Y3795D01*
G01X6148Y3799D01*
G01X6155Y3806D01*
G01X6161Y3809D01*
G01X6171Y3813D01*
G01X6176Y3814D01*
G01X6422Y3814D01*
G01X6427Y3813D01*
G01X6433Y3811D01*
G01X6443Y3806D01*
G01X6448Y3801D01*
G01X6451Y3799D01*
G01X6453Y3795D01*
G01X6455Y3792D01*
G01X6459Y3784D01*
G01X6459Y3781D01*
G01X6461Y3775D01*
G01X6461Y3528D01*
G01X6459Y3518D01*
G01X6456Y3514D01*
G01X6453Y3507D01*
G01X6448Y3503D01*
G01X6448Y3501D01*
G01X6444Y3497D01*
G01X6437Y3493D01*
G01X6434Y3492D01*
G01X6431Y3490D01*
G01X6422Y3490D01*
G01X6176Y3490D01*
G37*
G36*
G01X5821Y3490D02*
G01X5815Y3490D01*
G01X5807Y3493D01*
G01X5800Y3497D01*
G01X5793Y3504D01*
G01X5790Y3509D01*
G01X5786Y3514D01*
G01X5784Y3522D01*
G01X5783Y3528D01*
G01X5783Y3775D01*
G01X5784Y3781D01*
G01X5787Y3792D01*
G01X5790Y3795D01*
G01X5792Y3799D01*
G01X5800Y3804D01*
G01X5801Y3806D01*
G01X5811Y3811D01*
G01X5816Y3811D01*
G01X5821Y3814D01*
G01X6069Y3814D01*
G01X6072Y3813D01*
G01X6078Y3811D01*
G01X6085Y3808D01*
G01X6088Y3806D01*
G01X6092Y3803D01*
G01X6096Y3799D01*
G01X6099Y3795D01*
G01X6101Y3792D01*
G01X6105Y3784D01*
G01X6106Y3781D01*
G01X6107Y3775D01*
G01X6107Y3528D01*
G01X6106Y3522D01*
G01X6104Y3518D01*
G01X6102Y3514D01*
G01X6099Y3507D01*
G01X6097Y3504D01*
G01X6092Y3499D01*
G01X6090Y3497D01*
G01X6085Y3494D01*
G01X6077Y3492D01*
G01X6076Y3490D01*
G01X6069Y3490D01*
G01X5821Y3490D01*
G37*
G36*
G01X6973Y3686D02*
G01X6967Y3688D01*
G01X6963Y3689D01*
G01X6955Y3693D01*
G01X6948Y3697D01*
G01X6945Y3701D01*
G01X6942Y3704D01*
G01X6940Y3708D01*
G01X6936Y3715D01*
G01X6934Y3721D01*
G01X6934Y3725D01*
G01X6934Y3971D01*
G01X6934Y3976D01*
G01X6937Y3982D01*
G01X6939Y3986D01*
G01X6942Y3993D01*
G01X6947Y3997D01*
G01X6948Y4000D01*
G01X6955Y4004D01*
G01X6959Y4006D01*
G01X6968Y4010D01*
G01X6970Y4010D01*
G01X6973Y4011D01*
G01X7219Y4011D01*
G01X7223Y4010D01*
G01X7225Y4010D01*
G01X7234Y4006D01*
G01X7238Y4004D01*
G01X7244Y4000D01*
G01X7248Y3995D01*
G01X7250Y3993D01*
G01X7252Y3990D01*
G01X7256Y3982D01*
G01X7256Y3976D01*
G01X7259Y3971D01*
G01X7259Y3725D01*
G01X7258Y3721D01*
G01X7256Y3715D01*
G01X7253Y3710D01*
G01X7254Y3710D01*
G01X7250Y3704D01*
G01X7244Y3697D01*
G01X7238Y3693D01*
G01X7230Y3689D01*
G01X7225Y3688D01*
G01X7220Y3686D01*
G01X6973Y3686D01*
G37*
G36*
G01X7327Y3686D02*
G01X7322Y3688D01*
G01X7317Y3689D01*
G01X7306Y3694D01*
G01X7306Y3695D01*
G01X7298Y3701D01*
G01X7295Y3704D01*
G01X7293Y3708D01*
G01X7290Y3719D01*
G01X7289Y3721D01*
G01X7289Y3977D01*
G01X7291Y3982D01*
G01X7292Y3986D01*
G01X7297Y3993D01*
G01X7300Y3997D01*
G01X7303Y3999D01*
G01X7306Y4003D01*
G01X7313Y4006D01*
G01X7322Y4010D01*
G01X7323Y4010D01*
G01X7328Y4011D01*
G01X7573Y4011D01*
G01X7576Y4010D01*
G01X7578Y4010D01*
G01X7587Y4007D01*
G01X7591Y4004D01*
G01X7594Y4002D01*
G01X7598Y4000D01*
G01X7600Y3997D01*
G01X7605Y3993D01*
G01X7608Y3986D01*
G01X7609Y3982D01*
G01X7612Y3976D01*
G01X7613Y3971D01*
G01X7613Y3725D01*
G01X7612Y3721D01*
G01X7611Y3715D01*
G01X7606Y3708D01*
G01X7605Y3704D01*
G01X7602Y3701D01*
G01X7598Y3697D01*
G01X7594Y3694D01*
G01X7591Y3692D01*
G01X7584Y3688D01*
G01X7578Y3686D01*
G01X7575Y3686D01*
G01X7327Y3686D01*
G37*
M00*
M02*
