;Layer: Drill NPTH
;EasyEDA v6.4.3, 2020-08-12T23:02:41+05:30
;0c64d8637b0b46b586c93cd23854d17d,10
;Gerber Generator version 0.2
M48
INCH,LZ,00.0000
;Holesize 1 = 0.040 INCH
T01C0.040
;Holesize 2 = 0.065 INCH
T02C0.065
%
G05
G90
T01
X+015500Y+000000
X+014500Y+000000
X+013500Y+000000
X+012500Y+000000
X+011500Y+000000
X+010500Y+000000
X+009500Y+000000
X+008500Y+000000
X+007500Y+000000
X+006500Y+000000
X+005500Y+000000
X+004500Y+000000
X+003500Y+000000
X+002500Y+000000
X+001500Y+000000
X+001500Y+007000
X+002500Y+007000
X+003500Y+007000
X+004500Y+007000
X+005500Y+007000
X+006500Y+007000
X+007500Y+007000
X+008500Y+007000
X+009500Y+007000
X+010500Y+007000
X+011500Y+007000
X+012500Y+007000
X+013500Y+007000
X+014500Y+007000
X+015500Y+007000
T02
X+000500Y+006500
X+000500Y+000500
X+016500Y+000500
X+016500Y+006500
M30
