G04 Layer: BottomPasteMaskLayer*
G04 EasyEDA v6.4.3, 2020-08-12T23:02:41+05:30*
G04 0c64d8637b0b46b586c93cd23854d17d,10*
G04 Gerber Generator version 0.2*
G04 Scale: 100 percent, Rotated: No, Reflected: No *
G04 Dimensions in inches *
G04 leading zeros omitted , absolute positions ,2 integer and 4 decimal *
%FSLAX24Y24*%
%MOIN*%
G90*
G70D02*


%LPD*%
G36*
G01X503Y5650D02*
G01X504Y5673D01*
G01X508Y5697D01*
G01X515Y5719D01*
G01X525Y5741D01*
G01X538Y5761D01*
G01X552Y5780D01*
G01X569Y5797D01*
G01X588Y5812D01*
G01X608Y5824D01*
G01X630Y5834D01*
G01X652Y5841D01*
G01X676Y5845D01*
G01X700Y5846D01*
G01X723Y5845D01*
G01X747Y5841D01*
G01X769Y5834D01*
G01X791Y5824D01*
G01X811Y5812D01*
G01X830Y5797D01*
G01X847Y5780D01*
G01X861Y5761D01*
G01X874Y5741D01*
G01X884Y5719D01*
G01X891Y5697D01*
G01X895Y5673D01*
G01X896Y5650D01*
G01X895Y5626D01*
G01X891Y5602D01*
G01X884Y5580D01*
G01X874Y5558D01*
G01X861Y5538D01*
G01X847Y5519D01*
G01X830Y5502D01*
G01X811Y5488D01*
G01X791Y5475D01*
G01X769Y5465D01*
G01X747Y5458D01*
G01X723Y5454D01*
G01X700Y5453D01*
G01X676Y5454D01*
G01X652Y5458D01*
G01X630Y5465D01*
G01X608Y5475D01*
G01X588Y5488D01*
G01X569Y5502D01*
G01X552Y5519D01*
G01X538Y5538D01*
G01X525Y5558D01*
G01X515Y5580D01*
G01X508Y5602D01*
G01X504Y5626D01*
G01X503Y5650D01*
G37*
G36*
G01X503Y4650D02*
G01X504Y4673D01*
G01X508Y4697D01*
G01X515Y4719D01*
G01X525Y4741D01*
G01X538Y4761D01*
G01X552Y4780D01*
G01X569Y4797D01*
G01X588Y4812D01*
G01X608Y4824D01*
G01X630Y4834D01*
G01X652Y4841D01*
G01X676Y4845D01*
G01X700Y4846D01*
G01X723Y4845D01*
G01X747Y4841D01*
G01X769Y4834D01*
G01X791Y4824D01*
G01X811Y4812D01*
G01X830Y4797D01*
G01X847Y4780D01*
G01X861Y4761D01*
G01X874Y4741D01*
G01X884Y4719D01*
G01X891Y4697D01*
G01X895Y4673D01*
G01X896Y4650D01*
G01X895Y4626D01*
G01X891Y4602D01*
G01X884Y4580D01*
G01X874Y4558D01*
G01X861Y4538D01*
G01X847Y4519D01*
G01X830Y4502D01*
G01X811Y4488D01*
G01X791Y4475D01*
G01X769Y4465D01*
G01X747Y4458D01*
G01X723Y4454D01*
G01X700Y4453D01*
G01X676Y4454D01*
G01X652Y4458D01*
G01X630Y4465D01*
G01X608Y4475D01*
G01X588Y4488D01*
G01X569Y4502D01*
G01X552Y4519D01*
G01X538Y4538D01*
G01X525Y4558D01*
G01X515Y4580D01*
G01X508Y4602D01*
G01X504Y4626D01*
G01X503Y4650D01*
G37*
G36*
G01X16460Y2303D02*
G01X16436Y2304D01*
G01X16412Y2308D01*
G01X16390Y2315D01*
G01X16368Y2325D01*
G01X16348Y2338D01*
G01X16329Y2352D01*
G01X16312Y2369D01*
G01X16297Y2388D01*
G01X16285Y2408D01*
G01X16275Y2430D01*
G01X16268Y2452D01*
G01X16264Y2476D01*
G01X16263Y2500D01*
G01X16264Y2523D01*
G01X16268Y2547D01*
G01X16275Y2569D01*
G01X16285Y2591D01*
G01X16297Y2611D01*
G01X16312Y2630D01*
G01X16329Y2647D01*
G01X16348Y2662D01*
G01X16368Y2674D01*
G01X16390Y2684D01*
G01X16412Y2691D01*
G01X16436Y2695D01*
G01X16460Y2696D01*
G01X16483Y2695D01*
G01X16507Y2691D01*
G01X16529Y2684D01*
G01X16551Y2674D01*
G01X16571Y2662D01*
G01X16590Y2647D01*
G01X16607Y2630D01*
G01X16622Y2611D01*
G01X16634Y2591D01*
G01X16644Y2569D01*
G01X16651Y2547D01*
G01X16655Y2523D01*
G01X16656Y2500D01*
G01X16655Y2476D01*
G01X16651Y2452D01*
G01X16644Y2430D01*
G01X16634Y2408D01*
G01X16622Y2388D01*
G01X16607Y2369D01*
G01X16590Y2352D01*
G01X16571Y2338D01*
G01X16551Y2325D01*
G01X16529Y2315D01*
G01X16507Y2308D01*
G01X16483Y2304D01*
G01X16460Y2303D01*
G37*
G36*
G01X16460Y4303D02*
G01X16436Y4304D01*
G01X16412Y4308D01*
G01X16390Y4315D01*
G01X16368Y4325D01*
G01X16348Y4338D01*
G01X16329Y4352D01*
G01X16312Y4369D01*
G01X16297Y4388D01*
G01X16285Y4408D01*
G01X16275Y4430D01*
G01X16268Y4452D01*
G01X16264Y4476D01*
G01X16263Y4500D01*
G01X16264Y4523D01*
G01X16268Y4547D01*
G01X16275Y4569D01*
G01X16285Y4591D01*
G01X16297Y4611D01*
G01X16312Y4630D01*
G01X16329Y4647D01*
G01X16348Y4662D01*
G01X16368Y4674D01*
G01X16390Y4684D01*
G01X16412Y4691D01*
G01X16436Y4695D01*
G01X16460Y4696D01*
G01X16483Y4695D01*
G01X16507Y4691D01*
G01X16529Y4684D01*
G01X16551Y4674D01*
G01X16571Y4662D01*
G01X16590Y4647D01*
G01X16607Y4630D01*
G01X16622Y4611D01*
G01X16634Y4591D01*
G01X16644Y4569D01*
G01X16651Y4547D01*
G01X16655Y4523D01*
G01X16656Y4500D01*
G01X16655Y4476D01*
G01X16651Y4452D01*
G01X16644Y4430D01*
G01X16634Y4408D01*
G01X16622Y4388D01*
G01X16607Y4369D01*
G01X16590Y4352D01*
G01X16571Y4338D01*
G01X16551Y4325D01*
G01X16529Y4315D01*
G01X16507Y4308D01*
G01X16483Y4304D01*
G01X16460Y4303D01*
G37*
G36*
G01X15460Y4303D02*
G01X15436Y4304D01*
G01X15412Y4308D01*
G01X15390Y4315D01*
G01X15368Y4325D01*
G01X15348Y4338D01*
G01X15329Y4352D01*
G01X15312Y4369D01*
G01X15297Y4388D01*
G01X15285Y4408D01*
G01X15275Y4430D01*
G01X15268Y4452D01*
G01X15264Y4476D01*
G01X15263Y4500D01*
G01X15264Y4523D01*
G01X15268Y4547D01*
G01X15275Y4569D01*
G01X15285Y4591D01*
G01X15297Y4611D01*
G01X15312Y4630D01*
G01X15329Y4647D01*
G01X15348Y4662D01*
G01X15368Y4674D01*
G01X15390Y4684D01*
G01X15412Y4691D01*
G01X15436Y4695D01*
G01X15460Y4696D01*
G01X15483Y4695D01*
G01X15507Y4691D01*
G01X15529Y4684D01*
G01X15551Y4674D01*
G01X15571Y4662D01*
G01X15590Y4647D01*
G01X15607Y4630D01*
G01X15622Y4611D01*
G01X15634Y4591D01*
G01X15644Y4569D01*
G01X15651Y4547D01*
G01X15655Y4523D01*
G01X15656Y4500D01*
G01X15655Y4476D01*
G01X15651Y4452D01*
G01X15644Y4430D01*
G01X15634Y4408D01*
G01X15622Y4388D01*
G01X15607Y4369D01*
G01X15590Y4352D01*
G01X15571Y4338D01*
G01X15551Y4325D01*
G01X15529Y4315D01*
G01X15507Y4308D01*
G01X15483Y4304D01*
G01X15460Y4303D01*
G37*
G36*
G01X15460Y3303D02*
G01X15436Y3304D01*
G01X15412Y3308D01*
G01X15390Y3315D01*
G01X15368Y3325D01*
G01X15348Y3338D01*
G01X15329Y3352D01*
G01X15312Y3369D01*
G01X15297Y3388D01*
G01X15285Y3408D01*
G01X15275Y3430D01*
G01X15268Y3452D01*
G01X15264Y3476D01*
G01X15263Y3500D01*
G01X15264Y3523D01*
G01X15268Y3547D01*
G01X15275Y3569D01*
G01X15285Y3591D01*
G01X15297Y3611D01*
G01X15312Y3630D01*
G01X15329Y3647D01*
G01X15348Y3661D01*
G01X15368Y3674D01*
G01X15390Y3684D01*
G01X15412Y3691D01*
G01X15436Y3695D01*
G01X15460Y3696D01*
G01X15483Y3695D01*
G01X15507Y3691D01*
G01X15529Y3684D01*
G01X15551Y3674D01*
G01X15571Y3661D01*
G01X15590Y3647D01*
G01X15607Y3630D01*
G01X15622Y3611D01*
G01X15634Y3591D01*
G01X15644Y3569D01*
G01X15651Y3547D01*
G01X15655Y3523D01*
G01X15656Y3500D01*
G01X15655Y3476D01*
G01X15651Y3452D01*
G01X15644Y3430D01*
G01X15634Y3408D01*
G01X15622Y3388D01*
G01X15607Y3369D01*
G01X15590Y3352D01*
G01X15571Y3338D01*
G01X15551Y3325D01*
G01X15529Y3315D01*
G01X15507Y3308D01*
G01X15483Y3304D01*
G01X15460Y3303D01*
G37*
G36*
G01X15460Y2303D02*
G01X15436Y2304D01*
G01X15412Y2308D01*
G01X15390Y2315D01*
G01X15368Y2325D01*
G01X15348Y2338D01*
G01X15329Y2352D01*
G01X15312Y2369D01*
G01X15297Y2388D01*
G01X15285Y2408D01*
G01X15275Y2430D01*
G01X15268Y2452D01*
G01X15264Y2476D01*
G01X15263Y2500D01*
G01X15264Y2523D01*
G01X15268Y2547D01*
G01X15275Y2569D01*
G01X15285Y2591D01*
G01X15297Y2611D01*
G01X15312Y2630D01*
G01X15329Y2647D01*
G01X15348Y2662D01*
G01X15368Y2674D01*
G01X15390Y2684D01*
G01X15412Y2691D01*
G01X15436Y2695D01*
G01X15460Y2696D01*
G01X15483Y2695D01*
G01X15507Y2691D01*
G01X15529Y2684D01*
G01X15551Y2674D01*
G01X15571Y2662D01*
G01X15590Y2647D01*
G01X15607Y2630D01*
G01X15622Y2611D01*
G01X15634Y2591D01*
G01X15644Y2569D01*
G01X15651Y2547D01*
G01X15655Y2523D01*
G01X15656Y2500D01*
G01X15655Y2476D01*
G01X15651Y2452D01*
G01X15644Y2430D01*
G01X15634Y2408D01*
G01X15622Y2388D01*
G01X15607Y2369D01*
G01X15590Y2352D01*
G01X15571Y2338D01*
G01X15551Y2325D01*
G01X15529Y2315D01*
G01X15507Y2308D01*
G01X15483Y2304D01*
G01X15460Y2303D01*
G37*
G36*
G01X12819Y2183D02*
G01X12819Y1723D01*
G01X12189Y1723D01*
G01X12189Y2183D01*
G01X12819Y2183D01*
G37*
G36*
G01X12819Y1583D02*
G01X12819Y1123D01*
G01X12189Y1123D01*
G01X12189Y1583D01*
G01X12819Y1583D01*
G37*
G36*
G01X6181Y5080D02*
G01X6181Y5540D01*
G01X6811Y5540D01*
G01X6811Y5080D01*
G01X6181Y5080D01*
G37*
G36*
G01X6181Y5680D02*
G01X6181Y6140D01*
G01X6811Y6140D01*
G01X6811Y5680D01*
G01X6181Y5680D01*
G37*
G36*
G01X5187Y5080D02*
G01X5187Y5540D01*
G01X5817Y5540D01*
G01X5817Y5080D01*
G01X5187Y5080D01*
G37*
G36*
G01X5187Y5680D02*
G01X5187Y6140D01*
G01X5817Y6140D01*
G01X5817Y5680D01*
G01X5187Y5680D01*
G37*
G36*
G01X6261Y1968D02*
G01X6721Y1968D01*
G01X6721Y1338D01*
G01X6261Y1338D01*
G01X6261Y1968D01*
G37*
G36*
G01X6861Y1968D02*
G01X7321Y1968D01*
G01X7321Y1338D01*
G01X6861Y1338D01*
G01X6861Y1968D01*
G37*
M00*
M02*
